<?xml version="1.0" standalone="no"?>
<!DOCTYPE svg PUBLIC "-//W3C//DTD SVG 1.1//EN" "http://www.w3.org/Graphics/SVG/1.1/DTD/svg11.dtd" >
<svg xmlns="http://www.w3.org/2000/svg">
<metadata></metadata>
<defs>
<font id="valencia-regularitaregular" horiz-adv-x="1142" >
<font-face units-per-em="2048" ascent="1638" descent="-410" />
<missing-glyph horiz-adv-x="593" />
<glyph horiz-adv-x="2048" />
<glyph horiz-adv-x="2048" />
<glyph unicode="&#xd;" horiz-adv-x="593" />
<glyph unicode=" "  horiz-adv-x="593" />
<glyph unicode="&#x09;" horiz-adv-x="593" />
<glyph unicode="&#xa0;" horiz-adv-x="593" />
<glyph unicode="!" horiz-adv-x="481" d="M-66 90q0 43 32 75t77 32q43 0 72.5 -32t29.5 -75q0 -45 -31.5 -76.5t-76.5 -31.5q-43 0 -73 31.5t-30 76.5zM104 406l226 927l10 53q12 45 49 78t80 33q45 0 75.5 -28.5t30.5 -71.5q0 -18 -4 -30.5t-24 -61.5l-385 -899h-58z" />
<glyph unicode="&#x22;" horiz-adv-x="708" d="M117 1004l16 57q176 80 176 213q0 20 -12 57l-14 60q0 41 32.5 71.5t77.5 30.5q47 0 76 -30.5t29 -78.5q0 -96 -116 -211.5t-265 -168.5zM436 1004l19 57q174 78 174 213q0 27 -11 57q-16 35 -16 60q0 41 33 71.5t78 30.5q47 0 75.5 -30.5t28.5 -78.5 q0 -96 -115.5 -211.5t-265.5 -168.5z" />
<glyph unicode="#" horiz-adv-x="1173" d="M129 459l23 102h235l74 352h-236l21 103h237l90 430h103l-92 -430h215l90 430h100l-90 -430h236l-21 -103h-235l-76 -352h235l-20 -102h-236l-92 -430h-100l90 430h-213l-92 -430h-101l91 430h-236zM487 561h215l74 352h-213z" />
<glyph unicode="$" horiz-adv-x="1173" d="M-113 0l191 621h57q-16 -61 -22.5 -109.5t-6.5 -93.5q0 -96 24 -170t63.5 -112t128.5 -77l196 623q-84 55 -130 94t-106.5 112t-60.5 210q0 164 120 285.5t286 121.5q35 0 64.5 -4t84.5 -20l49 161h60l-54 -178l82 -34l74 -50q20 -14 49 -14q76 0 111 109h49l-162 -531 h-53q8 72 10 96.5t2 61.5q0 125 -34.5 186.5t-145.5 124.5l-186 -575l35 -27l137 -98q184 -127 184 -324q0 -186 -136 -306t-347 -120q-51 0 -70.5 2t-71.5 19l-51 -164h-57l53 182l-55 25l-94 43q-66 31 -97 30q-70 0 -116 -100h-54zM377 43q63 -20 110 -20q121 0 213.5 92 t92.5 213q0 94 -44 150.5t-75 85t-103 87.5zM393 1165q0 -82 49.5 -159.5t135.5 -133.5l180 558q-61 12 -96 12q-115 0 -192 -79t-77 -198z" />
<glyph unicode="%" horiz-adv-x="1644" d="M168 983q0 86 44 190.5t135 214t249 109.5q119 0 188.5 -67.5t69.5 -180.5q0 -84 -42 -187.5t-134 -215t-248 -111.5q-100 0 -167.5 49.5t-88.5 135.5zM195 0l1214 1477h66l-1211 -1477h-69zM276 911q0 -59 33 -94t90 -35q72 0 121 56q37 35 61.5 76.5t76 152.5t68.5 165 t17 97q0 53 -34.5 88t-92.5 35q-92 0 -171.5 -129t-122.5 -229.5t-43 -163.5zM797 203q0 94 45 199.5t142 216t245 110.5q115 0 186.5 -67.5t71.5 -178.5q0 -84 -41 -185t-133 -216t-258 -115q-98 0 -167 49.5t-87 135.5zM907 145q0 -61 34 -97t91 -36q63 0 106.5 43t86 116 t65.5 130l56 137q35 84 34 127q0 49 -36.5 84t-92.5 35q-63 0 -123.5 -64.5t-117 -180t-80 -184.5t-23.5 -110z" />
<glyph unicode="&#x26;" horiz-adv-x="1558" d="M-31 317q0 197 90.5 286t131 117t95 54.5t117 46t172.5 41.5q8 43 21 94.5t33 114.5q29 94 76 177t132 171t232 88q104 0 161.5 -55t57.5 -158q0 -66 -28.5 -135t-62.5 -104t-63.5 -57.5t-78.5 -51t-111.5 -49t-169.5 -39.5l-10 -229q0 -88 5 -142.5t24 -187.5l49 72 q51 78 64.5 100.5t87 157.5t133 188t135.5 53q74 0 128 -50t54 -118q0 -57 -35 -98t-82 -41q-43 0 -69.5 24.5t-26.5 63.5q0 35 14 51l27 31q18 23 18 41q0 39 -49 39t-96 -52t-129 -198l-70 -129q-55 -90 -137 -198q25 -94 78 -149.5t121 -55.5q115 0 177 85t79.5 116.5 t54.5 113.5h61q-37 -84 -61.5 -133t-100 -147.5t-247.5 -98.5q-178 0 -283 154q-37 -37 -66.5 -58.5t-104.5 -58.5t-189 -37q-164 0 -261.5 95.5t-97.5 254.5zM172 367q0 -158 57.5 -248t159.5 -90q135 0 270 129q-41 84 -56 137t-28.5 152.5t-13.5 195.5l8 166 q-76 -14 -112.5 -27.5t-99 -48.5t-124 -120t-61.5 -246zM780 907q84 18 126 33.5t94.5 47.5t125 112t72.5 203q0 66 -32.5 104.5t-92.5 38.5q-111 0 -186.5 -138.5t-106.5 -400.5z" />
<glyph unicode="'" horiz-adv-x="389" d="M117 1004l16 57q176 80 176 213q0 20 -12 57l-14 60q0 41 32.5 71.5t77.5 30.5q47 0 76 -30.5t29 -78.5q0 -96 -116 -211.5t-265 -168.5z" />
<glyph unicode="(" horiz-adv-x="540" d="M78 479q0 297 81 454t136 233.5t135 163.5t169 162t259 189l43 -22q-74 -53 -133 -103.5t-115.5 -107.5t-136.5 -183t-131 -248t-111.5 -344t-60.5 -446q0 -115 17.5 -189.5t78.5 -213.5h-51l-57 113q-61 125 -92 263t-31 279z" />
<glyph unicode=")" horiz-adv-x="524" d="M-338 -156l139 131q193 186 286 373t136 309.5t76 284.5t33 309q0 104 -17.5 189.5t-72.5 240.5h53q29 -57 59 -112q23 -47 70 -164t47 -377q0 -367 -127 -548t-176 -239.5t-102 -109.5q-86 -90 -165 -152.5t-223 -154.5z" />
<glyph unicode="*" horiz-adv-x="825" d="M197 1102q0 43 26.5 71.5t65.5 28.5q27 0 79 -15.5t130 -15.5h28q-41 29 -76.5 48.5t-68.5 29.5q-61 18 -80.5 39t-19.5 66q0 92 77 92q51 0 73 -22.5t38 -75t26.5 -77t43.5 -81.5l4 61q0 45 -13 95l-6 57q0 100 107 100q31 0 54.5 -31.5t23.5 -72.5q0 -35 -38 -73 t-63.5 -73.5t-46.5 -72.5q55 25 75.5 39t68 54t75.5 40q37 0 64.5 -19.5t36.5 -52.5l2 -10q0 -100 -92 -101q-18 0 -71.5 13.5t-141.5 13.5h-11q53 -35 80 -48t74 -27.5t66.5 -35t19.5 -63.5q0 -88 -82 -88q-84 0 -103.5 78t-30.5 103.5t-40 70.5l-6 -72l10 -92q6 -16 6 -47 q0 -104 -108 -105q-31 0 -54.5 32t-23.5 73q0 37 44 79t63.5 67.5t41.5 68.5q-51 -23 -78.5 -40t-70.5 -55t-70 -38q-45 0 -76.5 24.5t-31.5 59.5z" />
<glyph unicode="+" d="M-16 698l45 148h411l127 407h154l-125 -407h395l-45 -152h-403l-125 -409h-154l125 413h-405z" />
<glyph unicode="," horiz-adv-x="401" d="M-289 -291l19 55q176 80 176 213q0 20 -13.5 59.5t-13.5 61.5q0 37 34 69t77 32q47 0 74.5 -30t27.5 -81q0 -94 -115.5 -210t-265.5 -169z" />
<glyph unicode="-" horiz-adv-x="681" d="M-4 446l43 152l256 -6l262 4l-43 -152q-74 0 -156 4.5t-108 4.5q-70 0 -133.5 -2t-120.5 -5z" />
<glyph unicode="." horiz-adv-x="387" d="M-113 92q0 43 32 73t77 30q43 0 74.5 -32t31.5 -75q0 -45 -30.5 -75.5t-79.5 -30.5q-45 0 -75 31.5t-30 78.5z" />
<glyph unicode="/" horiz-adv-x="444" d="M-92 0l561 1477h70l-566 -1477h-65z" />
<glyph unicode="0" d="M57 393v55.5t31 258t237.5 514t444.5 286.5q150 0 233.5 -120.5t83.5 -333.5q0 -141 -40.5 -297t-114.5 -295t-217.5 -316.5t-352.5 -177.5q-141 0 -223 115t-82 311zM211 254q0 -106 42 -166.5t114 -60.5q84 0 152.5 62.5t125.5 183t100 230t83 235.5t71 271.5t31 223.5 q0 215 -150 215q-106 0 -195 -107.5t-178.5 -335t-141.5 -410.5t-52 -304z" />
<glyph unicode="1" d="M45 0l14 55l47 -2l76 -2q41 0 59.5 4t51.5 19q33 18 50 47t42 112l244 797q6 18 12 46t6 38q0 43 -29.5 60.5t-103.5 17.5h-182l18 57q127 0 179.5 6.5t126 31t121.5 69.5t100 139h88l-402 -1321l-14 -43l-2 -16q0 -63 80 -64l53 2l49 2l-18 -55h-666z" />
<glyph unicode="2" d="M0 0q33 117 59.5 175t81.5 132t131 148.5t172 148.5l138 105q137 104 212.5 221t75.5 219q0 127 -71.5 207t-190.5 80q-113 0 -179.5 -51.5t-96 -99.5t-29.5 -87q0 -16 8 -41q10 -14 25.5 -22.5t80 -23.5t64.5 -83q0 -43 -29.5 -70.5t-74.5 -27.5q-66 0 -110 56t-44 138 q0 158 128 269.5t306 111.5q184 0 298 -105.5t114 -275.5q0 -143 -92 -269t-258 -210l-189 -96q-168 -86 -274 -189q-25 -29 -54.5 -69.5t-62.5 -97.5h518q61 0 83 4t36 20q29 20 53 105l33 98h51l-127 -420h-786z" />
<glyph unicode="3" d="M29 258q0 80 41 129t104 49q49 0 78 -26.5t29 -69.5q0 -66 -72 -90q-72 -18 -72 -70q0 -59 61.5 -104t147.5 -45q152 0 258.5 139t106.5 340q0 109 -59.5 172t-159.5 63h-142l17 58h135q82 0 139 20.5t102 69.5t76 136t31 167q0 117 -60.5 181.5t-168.5 64.5 q-90 0 -162 -49.5t-72 -108.5q0 -39 41 -61l29 -17q37 -18 37 -69q0 -41 -31 -70t-74 -29q-53 0 -92 45t-39 111q0 123 121 215t278 92q166 0 271.5 -91t105.5 -234q0 -86 -33.5 -164t-97 -131.5t-120 -74t-162.5 -36.5q80 -31 121.5 -59.5t78.5 -81.5q68 -100 68 -226 q0 -184 -139.5 -309t-350.5 -125q-170 0 -270 78t-100 211z" />
<glyph unicode="4" d="M4 391l19 55l927 1045h84l-317 -1038h254l-19 -60h-254l-67 -219q-12 -47 -13 -55q0 -68 97 -68l65 2l58 2l-17 -55h-704l18 55l47 -2l74 -2q37 0 57.5 4t50 18.5t44 34t28.5 66.5l66 217h-498zM90 453h434l230 745z" />
<glyph unicode="5" d="M37 240q0 80 43 131t108 51q43 0 74 -26.5t31 -67.5q0 -70 -55.5 -85.5t-68.5 -28.5t-13 -40q0 -55 63.5 -102t142.5 -47q131 0 197 91t95.5 150.5t69.5 178t40 192.5q0 117 -58.5 181.5t-166.5 64.5q-94 0 -153.5 -45t-82 -72t-54.5 -78t-56 -51q-41 0 -41 43 q0 27 20 55l27 35q18 27 35.5 63.5t41.5 102.5l64 184q20 59 53 185.5t43 171.5h62q66 -49 110.5 -65.5t108.5 -16.5q104 0 264 86l25 -19l-72 -78q-147 -158 -336 -157q-53 0 -95 9t-69 15q-39 -143 -61.5 -213.5t-75.5 -206.5l59 48q88 57 211 57q166 0 264.5 -100.5 t98.5 -274.5q0 -242 -160 -418t-383 -176q-154 0 -252 76t-98 197z" />
<glyph unicode="6" d="M70 455q0 246 79.5 437t150.5 297.5t148.5 180.5t167 108.5t185.5 34.5q143 0 236 -73.5t93 -188.5q0 -74 -40.5 -125t-100.5 -51q-43 0 -71.5 29t-28.5 70q0 53 41 77l31 15q47 25 47 67q0 51 -53.5 86t-135.5 35q-168 0 -254 -127t-130 -222t-70.5 -175t-55.5 -205 q37 55 64 86q45 57 115.5 91t148.5 34q143 0 233.5 -96.5t90.5 -255.5q0 -252 -152 -434.5t-365 -182.5q-182 0 -278 125t-96 363zM238 274q0 -244 192 -243q86 0 147.5 63.5t108.5 184t70.5 217t23.5 155.5q0 102 -51 161.5t-143 59.5q-125 0 -222 -151.5t-124 -384.5z" />
<glyph unicode="7" d="M233 1040l132 437h753q-25 -113 -64.5 -193t-78.5 -133t-186.5 -228t-210 -323.5t-62.5 -372.5l-4 -100q0 -160 -115 -160q-55 0 -85.5 39t-30.5 113q0 154 93 357.5t224 340.5l172 182q76 76 115 128.5t100 156.5h-485q-63 0 -87 -4t-38 -20q-29 -25 -58 -130l-26 -90 h-58z" />
<glyph unicode="8" d="M-6 326q0 90 43 174t110.5 138t116.5 79.5t135 56.5q-53 47 -78.5 75.5t-50.5 63.5q-55 90 -55 189q0 174 127 290.5t315 116.5q174 0 287 -96t113 -248q0 -145 -96.5 -243.5t-274.5 -135.5q70 -59 95.5 -82.5t92 -102.5t66.5 -226q0 -182 -135 -297t-352 -115 q-209 0 -334 98.5t-125 264.5zM139 344q0 -141 84 -229t223 -88t230.5 78.5t91.5 199.5q0 90 -47 158.5t-88 109.5t-133 113l-62 49q-86 -29 -125 -52.5t-73 -66.5q-47 -51 -74 -124.5t-27 -147.5zM383 1190q0 -100 60.5 -187.5t195.5 -177.5q127 33 198.5 127.5t71.5 229.5 q0 119 -69.5 194.5t-182.5 75.5q-115 0 -194.5 -76t-79.5 -186z" />
<glyph unicode="9" d="M10 225q0 76 41 127t103 51q41 0 69.5 -28.5t28.5 -69.5q0 -53 -41 -78l-31 -14q-47 -27 -47 -66q0 -51 54.5 -86.5t134.5 -35.5q160 0 247.5 123.5t134 224t71 175.5t54.5 208q-12 -25 -31.5 -50.5t-27.5 -37.5q-102 -125 -266 -125q-145 0 -234.5 97t-89.5 255 q0 252 153.5 434t364.5 182q180 0 276.5 -122.5t96.5 -358.5q0 -242 -106.5 -506t-270.5 -411.5t-356 -147.5q-139 0 -233.5 74t-94.5 186zM362 827q0 -104 50.5 -162.5t140.5 -58.5q168 0 237.5 163t92 264.5t22.5 172.5q0 244 -194 244q-82 0 -145.5 -63.5t-121 -213 t-77.5 -288.5z" />
<glyph unicode=":" horiz-adv-x="456" d="M-66 92q0 43 32 73t77 30q43 0 73.5 -31t30.5 -76t-30.5 -75.5t-79.5 -30.5q-43 0 -73 31.5t-30 78.5zM188 918q0 43 31 75.5t74 32.5q45 0 76.5 -31.5t31.5 -76.5t-30.5 -76t-77.5 -31q-45 0 -75 29.5t-30 77.5z" />
<glyph unicode=";" horiz-adv-x="479" d="M-242 -291l19 55q174 78 174 213q0 27 -9.5 54.5t-13.5 41t-4 25.5q0 35 35 68t78 33q47 0 75.5 -30t28.5 -81q0 -94 -115.5 -210t-267.5 -169zM186 918q0 43 31 75.5t76 32.5t76.5 -31.5t31.5 -76.5q0 -47 -30.5 -78t-77.5 -31q-43 0 -75 31.5t-32 77.5z" />
<glyph unicode="&#x3c;" horiz-adv-x="552" d="M12 528l434 484h68l-338 -484l76 -483h-66z" />
<glyph unicode="=" d="M-37 573l43 142h969l-43 -142h-969zM43 821l45 146h969l-45 -146h-969z" />
<glyph unicode="&#x3e;" horiz-adv-x="573" d="M-76 47l334 483l-76 484h68l172 -484l-430 -483h-68z" />
<glyph unicode="?" horiz-adv-x="866" d="M106 90q0 47 31 78t78 31q45 0 76 -31t31 -76t-32 -76.5t-79 -31.5q-43 0 -74 30.5t-31 75.5zM111 612q0 61 43 122t109.5 99.5t194.5 92t166 75t105.5 75.5t67.5 159q0 92 -71 153.5t-175 61.5q-106 0 -191.5 -56.5t-85.5 -127.5q0 -33 21 -66l22 -33l5 -26 q0 -41 -29 -67.5t-70 -26.5q-49 0 -77.5 32.5t-28.5 89.5q0 131 132 230.5t308 99.5q166 0 273.5 -90t107.5 -231q0 -125 -90 -227.5t-254 -162.5l-129 -47q-131 -45 -185.5 -86t-54.5 -94t44 -89t108 -36q84 0 136 48t68.5 73t45.5 82l41 -12q-66 -125 -135.5 -179.5 t-165.5 -54.5q-109 0 -182.5 63.5t-73.5 155.5z" />
<glyph unicode="@" horiz-adv-x="1792" d="M229 680q0 53 17.5 199.5t191.5 366.5t352.5 239.5t223.5 19.5q262 0 428 -165.5t166 -428.5q0 -82 -23.5 -191.5t-82 -207.5t-121 -142t-105.5 -58.5t-84 -14.5q-131 0 -146.5 62.5t-15.5 86.5v25q-14 -41 -45 -72q-78 -88 -172 -88q-47 0 -106.5 28t-97.5 101.5 t-38 190.5l4 69l13 72q25 125 85 225.5t139 155.5t159 55q117 0 170 -108l8 -21l25 117l100 -2l-100 -440l-37 -179q-8 -33 -9 -75q0 -53 25 -84t61 -31q14 0 37 8t46.5 26.5t65.5 63.5t73.5 117t49 157t17.5 150q0 225 -136 361.5t-355 136.5q-47 0 -180.5 -18.5 t-290 -190.5t-172 -306t-15.5 -156.5v-35.5v-43q0 -262 164 -428t402 -166q117 0 250 53.5t257 178.5l56 59l37 -73l-56 -60q-96 -96 -201.5 -154.5t-194.5 -76t-165 -17.5q-287 0 -480.5 200t-193.5 509zM688 596q1 -84 19 -127q33 -74 114 -74q55 0 91 33t57.5 68.5t43 87 t32 89.5t24.5 91l4 18l19 88q8 43 9 52.5t1 35.5q0 23 -4 57t-41 68.5t-86 34.5q-25 0 -67 -17.5t-81 -65.5t-69.5 -126t-48 -158.5t-17.5 -154.5z" />
<glyph unicode="A" horiz-adv-x="1159" d="M-344 0l16 55l39 -2l66 -2q68 0 115 29t88 94l808 1303h140l-74 -1303l-2 -37q0 -86 102 -86l56 2l53 2l-16 -55h-603l17 55l37 -2l55 -2q27 0 43 4t36.5 19.5t28 33t7.5 66.5l18 285h-461l-176 -285q-37 -57 -37 -80q0 -43 80 -43l62 2l55 2l-16 -55h-537zM264 516h424 l43 760z" />
<glyph unicode="B" horiz-adv-x="1302" d="M-186 0l18 55l29 -2l57 -2q33 0 49.5 4t43 20.5t46 52.5t45.5 118l324 1057l14 43l4 18q0 59 -73 59l-52 -2h-55l17 56h557q150 0 222.5 -16.5t161.5 -82t89 -211.5q0 -51 -15.5 -98t-63.5 -110.5t-123 -103.5t-130 -55.5t-166 -31.5q88 -25 133 -45.5t88 -57t68.5 -91 t25.5 -115.5q0 -119 -75 -236q-82 -117 -205 -170t-318 -53h-716zM254 119q0 -61 68 -62h67h135q213 0 309.5 162t96.5 311q0 96 -74 151.5t-205 55.5h-211l-168 -553l-18 -55v-10zM467 799h205q254 0 323.5 114.5t92 186t22.5 131.5q0 186 -233 186h-109q-82 0 -104 -24 l-27 -47l-16 -41z" />
<glyph unicode="C" horiz-adv-x="1286" d="M72 520q0 246 119.5 486.5t284.5 368.5t351 128q152 0 237 -59.5t108.5 -69.5t50.5 -10q88 0 127 113h53l-174 -576h-55q12 53 16 84t4 62q0 176 -94 287.5t-244 111.5q-274 0 -401 -298t-166 -464t-39 -287q0 -180 78 -276t223 -96q172 0 316.5 142t244.5 413h62 q-37 -102 -62 -151.5t-147.5 -256.5t-425.5 -207q-213 0 -340 150.5t-127 404.5z" />
<glyph unicode="D" horiz-adv-x="1443" d="M-197 0l15 55l35 -2l59 -2q31 0 48 4t44 20.5t45.5 50.5t44.5 120l322 1057l16 43l4 18q0 59 -78 59l-51 -2h-53l16 56h607q242 0 372.5 -137.5t130.5 -391.5q0 -55 -6 -99t-18 -106q-33 -123 -100.5 -248.5t-173 -248.5t-246 -184.5t-332.5 -61.5h-701zM250 125 q0 -39 23.5 -53.5t91.5 -14.5h139q82 0 160.5 29t143 83t129 146.5t123 222.5t97.5 279.5t39 251.5q0 158 -90 252t-244 94h-102q-76 0 -98 -18l-31 -49q-16 -31 -23 -54l-334 -1093q-25 -49 -24 -76z" />
<glyph unicode="E" horiz-adv-x="1290" d="M-193 0l19 55l31 -2l59 -2q57 0 84 18.5t47.5 47t30.5 57.5l342 1129l20 43l4 18q0 59 -77 59l-50 -2h-55l17 56h1093l-174 -576h-61q27 94 35 142.5t8 103.5q0 129 -74 198.5t-211 69.5h-125q-68 0 -92.5 -14.5t-44.5 -67.5l-21 -55l-149 -492h127q115 0 177 54.5 t103 189.5l21 60h53l-217 -709h-63l28 90q20 68 21 111q0 66 -44 105.5t-118 39.5h-115l-151 -491l-23 -80q-8 -14 -8 -29q0 -41 26.5 -55.5t104.5 -14.5h190q166 0 260.5 86t133.5 141.5t64.5 108.5t53.5 137h54l-162 -530h-1172z" />
<glyph unicode="F" horiz-adv-x="1159" d="M-193 0l19 55l35 -2l57 -2q35 0 52.5 4t37 18.5t42 45.5t28.5 55l344 1129l18 43l4 18q0 59 -73 59l-49 -2h-64l16 56h1110l-178 -580h-61q27 100 36 153.5t9 102.5q0 127 -70.5 195.5t-201.5 68.5h-154q-82 0 -107 -33l-26 -53l-23 -65l-145 -473h117q223 0 288 215 l27 82h55l-217 -707h-61l30 102q14 45 15 97q0 153 -162 153h-2h-113l-172 -561l-14 -43l-4 -18q0 -61 82 -62l55 2l51 2l-18 -55h-613z" />
<glyph unicode="G" horiz-adv-x="1447" d="M74 526q0 381 246.5 679t564.5 298q141 0 270 -78l76 -45q37 -22 66 -22h3q76 0 117 119h53l-176 -578h-57q10 59 14 94t4 66q0 176 -96 280.5t-258 104.5q-150 0 -268.5 -103.5t-209.5 -293t-134 -352.5t-43 -285q0 -178 87 -281.5t232 -103.5q139 0 207 66.5 t92.5 113.5t53.5 133l59 199l12 41l2 18q0 61 -80 61l-53 -2l-49 -2l16 56h613l-17 -56l-37 2l-57 2q-119 0 -158 -120l-163 -537h-56l6 33l2 28q0 45 -32 45q-18 0 -31 -12l-80 -51q-111 -76 -264 -76q-217 0 -347 152.5t-130 406.5z" />
<glyph unicode="H" horiz-adv-x="1554" d="M-193 0l19 55l33 -2l57 -2q57 0 80.5 17.5t48.5 52.5t31 53l344 1129l18 43l2 18q0 59 -78 59l-47 -2h-57l18 56h613l-19 -56h-32l-62 2q-123 0 -160 -120l-153 -504h667l156 504l14 43l3 18q0 59 -74 59l-49 -2h-54l19 56h606l-18 -56h-33l-60 2q-125 0 -163 -120 l-342 -1129l-19 -43l-2 -18q0 -61 80 -62l51 2l49 2l-16 -55h-606l14 55l35 -2l61 -2q113 0 152 123l174 561h-672l-170 -561l-16 -43l-2 -18q0 -61 80 -62l55 2l49 2l-16 -55h-609z" />
<glyph unicode="I" horiz-adv-x="686" d="M-193 0l19 55l35 -2l59 -2q31 0 47.5 4t42 20.5t43 49.5t45.5 123l320 1055l14 43l4 18q0 59 -76 59l-49 -2h-49l17 56h606l-17 -56h-28l-64 2q-61 0 -92 -22q-23 -12 -43 -40t-29 -58l-344 -1129l-16 -43l-4 -18q0 -61 84 -62l53 2l51 2l-16 -55h-613z" />
<glyph unicode="J" horiz-adv-x="978" d="M-139 264q0 86 43 141.5t112 55.5q47 0 76 -26.5t29 -69.5q0 -86 -84 -103l-47 -12q-33 -10 -33 -57q0 -66 62.5 -115t146.5 -49q117 0 154.5 54t61.5 108.5t36 97.5l313 1014l12 43l2 18q0 59 -77 59l-52 -2h-51l17 56h608l-19 -56h-26l-60 2q-125 0 -159 -120 l-303 -994q-20 -63 -53 -128.5t-68 -110.5t-111 -74t-168 -29q-160 0 -261 83t-101 214z" />
<glyph unicode="K" horiz-adv-x="1372" d="M-197 0l15 55l37 -2l59 -2q35 0 52.5 4t38 18.5t39.5 42t32 56.5l342 1131l18 43l4 20q0 57 -75 57l-48 -2h-65l18 56h623l-19 -56h-34l-64 2q-125 0 -160 -120l-184 -601l651 519q59 47 83 76.5t24 60.5q0 27 -28.5 45t-74.5 18h-34l14 56h549l-14 -56h-48 q-51 0 -98 -12q-39 -14 -61.5 -28.5t-91.5 -67.5l-62 -45l-450 -357l159 -737q8 -49 15.5 -64.5t34 -37t67.5 -21.5l49 2l49 2l-18 -55h-567l18 55l31 -2l53 -2q86 0 86 70l-8 53l-131 612l-232 -182l-133 -430l-14 -43l-4 -20q0 -59 73 -60l52 2l47 2l-17 -55h-598z" />
<glyph unicode="L" horiz-adv-x="1157" d="M-197 0l17 55l35 -2l57 -2q35 0 52.5 4t36.5 17.5t40.5 45.5t32.5 56l342 1129l18 43l4 18q0 59 -76 59l-51 -2h-57l18 56h621l-19 -56h-38l-64 2q-125 0 -162 -120l-327 -1078l-27 -71q-4 -10 -4 -33q0 -37 25.5 -52.5t87.5 -15.5h143q164 0 266.5 83t155.5 161 q41 53 66.5 105.5t62.5 158.5h53l-172 -561h-1137z" />
<glyph unicode="M" horiz-adv-x="1644" d="M-211 0l18 55h41q86 0 131.5 42t60.5 71t42 104l348 1031q4 12 10 35.5t6 27.5q0 57 -73 57l-49 -2h-72l18 56h428l-30 -1239l731 1239h442l-14 -56h-31l-59 2q-63 0 -95 -22q-23 -12 -43 -40t-30 -58l-342 -1129l-17 -43l-2 -18q0 -61 82 -62l53 2l50 2l-17 -55h-610 l18 55l33 -2l57 -2q35 0 52.5 4t36 17.5t40 45.5t29.5 56l359 1174l-807 -1348h-103l33 1350l-373 -1076l-16 -53q-12 -35 -12 -63q0 -102 141 -103h37l-17 -55h-485z" />
<glyph unicode="N" horiz-adv-x="1368" d="M-193 0l19 55h29q111 0 165 58q53 66 86 176l310 1014l16 43l2 16q0 61 -82 61l-55 -2h-45l16 56h381l260 -1213l295 965l17 43q8 23 8 55q0 51 -29 72.5t-100 21.5h-47l16 56h496l-17 -56h-49q-111 0 -160 -55l-45 -72l-26 -61l-377 -1233h-111l-295 1331l-319 -1040 l-21 -58q-12 -37 -12 -71q0 -57 34 -82t114 -25h41l-17 -55h-498z" />
<glyph unicode="O" horiz-adv-x="1482" d="M72 520q0 383 266 684t602 301q213 0 348 -149.5t135 -384.5q0 -385 -269 -693.5t-607 -308.5q-217 0 -346 149.5t-129 401.5zM256 403q0 -55 10 -94q20 -133 95 -209.5t186 -76.5q305 0 460.5 314t199.5 472t44 276q0 168 -84 264.5t-227 96.5q-156 0 -291 -110.5 t-264 -375t-129 -557.5z" />
<glyph unicode="P" horiz-adv-x="1222" d="M-197 0l15 55l35 -2l59 -2q57 0 88 23l49 57q20 29 25 43l342 1129l18 43l2 18q0 59 -76 59l-51 -2h-55l16 56h576q133 0 203.5 -18.5t162 -92.5t91.5 -250q0 -195 -154 -311.5t-412 -116.5h-317l-156 -514l-16 -43l-2 -18q0 -61 82 -62l55 2l49 2l-16 -55h-613zM442 743 h211q289 0 370 157t81 300q0 104 -65.5 161.5t-190.5 57.5h-92q-72 0 -95.5 -22.5t-50.5 -104.5z" />
<glyph unicode="Q" horiz-adv-x="1474" d="M72 514q0 387 265 689t603 302q213 0 348 -149.5t135 -384.5q0 -299 -177 -572.5t-439 -380.5q-21 -81 -21 -124q0 -70 40 -110t108 -40q76 0 134 38t90 81t51.5 81t45.5 111h58q-59 -190 -170 -295.5t-254 -105.5q-113 0 -186.5 65.5t-73.5 163.5l10 92l-115 -6 q-201 0 -326.5 152.5t-125.5 392.5zM254 459q0 -111 26.5 -179.5t112.5 -181.5q0 279 219 279q78 0 129.5 -39t59.5 -84t10 -68.5t2 -58.5q115 115 165 181.5t94 157.5t63.5 140t67.5 185.5t48 293.5q0 168 -84 264.5t-227 96.5q-158 0 -286 -105.5t-264 -370.5t-136 -511z M436 59q72 -32 116 -32h3q33 0 100 18q14 55 18.5 78.5t4.5 52.5q0 55 -28.5 88t-76.5 33q-68 0 -102.5 -57.5t-34.5 -180.5z" />
<glyph unicode="R" horiz-adv-x="1361" d="M-197 0l17 57q14 -2 37.5 -4t40.5 -2q70 0 104 23l51 57q8 14 14.5 24.5t8.5 18.5l342 1129l18 43l2 18q0 59 -78 59l-51 -2h-57l18 56h584q129 0 190.5 -12.5t124 -52.5t99.5 -112.5t37 -156.5q0 -96 -46.5 -172t-112 -117t-122.5 -57.5t-154 -28.5q18 -10 46 -24.5 t58 -38t56.5 -78t26.5 -111.5q0 -37 -12.5 -81t-47 -132t-46 -120.5t-11.5 -63.5q0 -74 68 -74q51 0 112.5 75t114.5 204l53 -25q-70 -172 -149.5 -251t-186.5 -79q-90 0 -147 51.5t-57 133.5q0 78 50 208t60 164.5t10 69.5q0 154 -209 154h-219l-174 -576l-16 -43l-4 -18 q0 -61 82 -62l55 2l49 2l-16 -55h-613zM461 809h254q184 0 283.5 103.5t99.5 291.5q0 102 -61.5 159.5t-174.5 57.5h-102q-70 0 -90.5 -18.5t-33.5 -45t-28 -65.5z" />
<glyph unicode="S" horiz-adv-x="1173" d="M-113 0l191 621h57q-16 -61 -22.5 -109.5t-6.5 -95.5q0 -94 29 -181.5t126 -151t212 -63.5q131 0 223 90.5t92 215.5q0 94 -54 168.5t-188 168t-168 120t-95.5 102.5t-61.5 213q0 170 123 288.5t303 118.5q72 0 142.5 -20.5t119.5 -54.5l76 -50q20 -14 49 -14 q78 0 113 109h49l-162 -531h-53q8 72 10 96.5t2 61.5q0 162 -86 252t-239 90q-117 0 -199 -80t-82 -195q0 -100 52.5 -164.5t97.5 -102.5t146 -106.5t142 -104.5t99.5 -108.5t58.5 -195.5q0 -182 -135 -303t-338 -121q-23 0 -42 1t-77 9q-57 14 -102 32t-135 65 q-64 30 -95 30h-2q-70 0 -116 -100h-54z" />
<glyph unicode="T" horiz-adv-x="1165" d="M35 0l16 55l39 -2l62 -2q31 0 48 4t43.5 21.5t43 46.5t45.5 125l307 1012l23 71l2 15q0 71 -114 71h-3q-96 0 -185.5 -49t-143.5 -153.5t-112 -266.5h-57l162 529h1200l-162 -527h-63q27 88 37 141.5t10 110.5q0 115 -51.5 164t-175.5 49q-90 0 -113 -26q-12 -8 -29 -50 l-33 -79l-331 -1086l-15 -43l-2 -18q0 -61 80 -62l53 2l58 2l-19 -55h-620z" />
<glyph unicode="U" horiz-adv-x="1398" d="M131 289q0 72 41 203l248 811l16 43l2 18q0 59 -76 59l-51 -2h-47l15 56h606l-15 -56h-30l-64 2q-127 0 -164 -120l-276 -902q-8 -33 -18.5 -73.5t-10.5 -69.5q0 -104 75 -166.5t196 -62.5q301 0 399 319l260 848l20 59q4 8 7.5 25.5t3.5 40.5q0 57 -30 78.5t-108 21.5 h-28l18 56h482l-17 -56h-31q-123 0 -168 -55q-6 -4 -16 -21.5t-25.5 -46t-27.5 -57.5t-25 -63l-258 -848q-113 -367 -473 -367q-193 0 -311.5 90t-118.5 236z" />
<glyph unicode="V" horiz-adv-x="1150" d="M152 1421l14 56h567l-18 -56h-27l-57 2q-39 0 -50.5 -3t-34 -18.5t-29.5 -32.5t-7 -66l-35 -1014l529 913l26 45q31 51 31 88q0 86 -127 86h-27l17 56h503l-14 -56h-51q-86 0 -132 -29.5t-61.5 -47t-31.5 -44.5l-54 -90l-710 -1210h-94l49 1303v34q0 86 -86 86l-47 -2 h-43z" />
<glyph unicode="W" horiz-adv-x="1837" d="M152 1421l14 56h563l-18 -56h-25l-55 2q-66 0 -94.5 -26.5t-28.5 -93.5l-41 -1018l549 909v109q0 120 -85 120h-1l-41 -2h-43l18 56h561l-16 -56h-27l-55 2q-20 0 -40.5 -1t-45 -18.5t-31 -32.5t-6.5 -68l-39 -1012l539 940q29 49 39 72.5t10 44.5q0 73 -116 73h-3h-8 h-33l19 56h502l-15 -56h-41q-96 0 -158.5 -40t-117.5 -134l-715 -1247h-94l39 1071l-645 -1071h-95l52 1303l2 32q0 88 -86 88l-45 -2h-43z" />
<glyph unicode="X" horiz-adv-x="1267" d="M-252 0l16 55h41q61 0 101.5 12.5t102 57.5t136.5 129l408 457l-188 592q-14 51 -22.5 64t-31 30.5t-35 21.5t-40.5 4l-52 -2h-45l17 56h594l-17 -56h-28l-58 2q-100 0 -100 -65q0 -14 14 -55l133 -435l307 340q43 49 61.5 80t18.5 55q0 78 -118 78h-43l16 56h539 l-19 -56h-55q-74 0 -132.5 -33.5t-140.5 -125.5l-413 -459l198 -629l15 -43q14 -33 46 -55.5t66 -22.5l68 2h29l-17 -55h-608l16 55l21 -2l61 -2q119 0 119 70q0 10 -2 22.5t-10 30.5l-146 473l-344 -389q-59 -66 -59 -115q0 -43 37 -65.5t104 -22.5h35l-16 -55h-580z" />
<glyph unicode="Y" horiz-adv-x="1224" d="M106 0l15 55l37 -2l59 -2q66 0 99.5 27.5t56.5 95.5l143 475l-182 654q-12 45 -20.5 62t-30 37.5t-62.5 20.5l-41 -2h-41l17 56h583l-14 -56h-43l-64 2q-102 0 -102 -67l10 -53l162 -584l379 477q43 53 56.5 78.5t13.5 54.5q0 92 -131 92h-48l19 56h532l-16 -56h-43 q-55 0 -117.5 -33.5t-101.5 -82.5l-47 -58l-473 -594l-146 -479l-14 -43l-4 -18q0 -61 84 -62l53 2l51 2l-18 -55h-611z" />
<glyph unicode="Z" horiz-adv-x="1224" d="M-109 0l17 53l1087 1364h-211q-111 0 -175 -18.5t-138 -69.5q-66 -49 -122 -115.5t-84.5 -116.5t-71.5 -161h-50l164 541h950l-16 -52l-1089 -1368h268q227 0 325.5 73t150.5 148.5t80 132t64 156.5h54l-172 -567h-1031z" />
<glyph unicode="[" horiz-adv-x="575" d="M-100 -219l592 1919h350l-25 -84h-162l-536 -1753h151l-26 -82h-344z" />
<glyph unicode="\" horiz-adv-x="847" d="M276 1475h156l260 -1475h-157z" />
<glyph unicode="]" horiz-adv-x="581" d="M-268 -217l26 82h160l537 1753h-148l27 84h340l-592 -1919h-350z" />
<glyph unicode="^" horiz-adv-x="577" d="M90 1171v35q45 18 69.5 32.5t50.5 37t36 41t27.5 60.5t31.5 53.5t43 11.5h66q31 0 43 -8.5t28.5 -54.5t52 -87t62.5 -56t78 -30l-12 -35q-123 20 -172.5 43t-118.5 91q-78 -61 -133.5 -87t-151.5 -47z" />
<glyph unicode="_" horiz-adv-x="966" d="M74 0h737v-61h-737v61z" />
<glyph unicode="`" horiz-adv-x="380" d="M147 1399q0 39 50 39h61q55 0 81 -70t66.5 -106.5t124.5 -57.5l-10 -35q-150 20 -261.5 89t-111.5 141z" />
<glyph unicode="a" horiz-adv-x="1265" d="M-12 301q0 106 41 229t126 252t214 215t256 86q27 0 56.5 -7t68 -26.5t60 -47t44.5 -89.5l37 123h172l-236 -770l-20 -67q-18 -43 -19 -84q0 -94 80 -95q68 0 135.5 90.5t122.5 249.5h50l-25 -69q-37 -102 -117 -216t-209 -114q-164 0 -190 199q-31 -45 -50.5 -64.5 t-64.5 -56.5t-100 -57.5t-119 -20.5q-145 0 -229 90t-84 250zM145 215q0 -92 47.5 -145.5t131.5 -53.5q74 0 144.5 39t113.5 103.5t70.5 131t76.5 222.5l37 123q27 90 38 140t11 81q0 74 -47 125t-119 51q-174 0 -293.5 -221t-165 -360.5t-45.5 -235.5z" />
<glyph unicode="b" horiz-adv-x="1118" d="M33 225q0 43 14 84l33 99l274 903l19 49l2 8q0 51 -76 51h-41l-55 -2l16 53h55q104 0 170 5.5l138 11.5l-193 -631q119 217 303 217q133 0 213 -99.5t80 -268.5q0 -203 -100.5 -384.5t-231.5 -267.5t-291 -86q-143 0 -236 73t-93 185zM190 172q0 -68 44.5 -112t115.5 -44 q199 0 301.5 219.5t139 354.5t36.5 233q0 88 -43 143.5t-110 55.5q-76 0 -155 -67.5t-120 -147.5t-63 -139.5t-55 -153.5l-35 -108q-35 -102 -45.5 -148.5t-10.5 -85.5z" />
<glyph unicode="c" horiz-adv-x="933" d="M-4 295q0 137 58.5 284.5t201.5 320.5t362 173q104 0 171 -62.5t67 -162.5q0 -82 -43 -137.5t-108 -55.5q-47 0 -78 27t-31 72q0 33 23.5 60.5t54.5 29.5l45 2q69 6 69 61q0 49 -45 84t-106 35q-74 0 -143.5 -51t-142 -176t-136 -305.5t-63.5 -276.5q0 -94 49 -149.5 t135 -55.5q111 0 210 89t181 259h45q-92 -203 -207.5 -301t-261.5 -98q-139 0 -223 90t-84 244z" />
<glyph unicode="d" horiz-adv-x="1253" d="M-8 299q0 100 40 218t125 250t213 219t255 87q47 0 100 -18q45 -20 69.5 -52t45.5 -98l123 406l16 49q0 59 -76 59h-39l-53 -2l16 53q111 0 167.5 3.5t195.5 19.5l-377 -1235l-29 -72q-14 -39 -14 -71q0 -41 22.5 -65.5t61.5 -24.5q35 0 79 29.5t73 74.5l47 84 q20 41 28.5 60.5t32.5 82.5h45q-72 -205 -153.5 -299t-190.5 -94q-80 0 -133 49t-53 127v31q-127 -207 -332 -207q-137 0 -221 92t-84 244zM152 219q0 -96 45 -151.5t125 -55.5t164.5 65.5t117.5 134.5t61 153t48 145q8 33 20 75t25 70q41 131 41 197q0 76 -41 125t-109 49 t-127 -41t-140 -153.5t-155.5 -304t-74.5 -308.5z" />
<glyph unicode="e" horiz-adv-x="935" d="M-12 295q0 90 39 208t120.5 255t211.5 227t266 90q106 0 175.5 -59.5t69.5 -149.5q0 -156 -178 -268.5t-495 -153.5q-27 -80 -39.5 -139t-12.5 -96q0 -92 51.5 -145.5t137.5 -53.5q113 0 215 88t178 250h47q-176 -387 -465 -387q-145 0 -233 90t-88 244zM211 494 q229 27 376.5 141.5t147.5 265.5q0 57 -30.5 94t-77.5 37q-158 0 -245 -166t-107.5 -212.5t-63.5 -159.5z" />
<glyph unicode="f" horiz-adv-x="581" d="M-31 0l299 979h-184l18 57h189l35 113q109 350 364 350q92 0 148.5 -47t56.5 -123q0 -74 -35 -119t-90 -45q-41 0 -66.5 26t-25.5 66q0 43 35 72l24 17q29 23 29 51q0 53 -61 53q-115 0 -189 -233l-55 -181h229l-18 -57h-234l-299 -979h-170z" />
<glyph unicode="g" horiz-adv-x="1128" d="M-109 -193q0 55 32 89t81 34q45 0 76 -24.5t31 -65.5q0 -31 -11 -41l-22 -18l-21 -19l-24 -18q-6 -14 -6 -18q0 -29 37.5 -47.5t99.5 -18.5q119 0 234.5 98.5t156.5 237.5l31 98l-43 -47q-90 -86 -234 -86q-143 0 -227 92t-84 250q0 199 175 486.5t448 287.5 q35 0 69.5 -8t71.5 -28.5t54.5 -48t29.5 -89.5l43 133h164l-277 -893l-35 -98q-20 -55 -33.5 -85t-27.5 -54q-66 -131 -200 -213t-281 -82q-135 0 -221.5 55t-86.5 141zM156 213q0 -90 49 -145.5t133 -55.5q111 0 178.5 64.5t91 107.5t56.5 144l49 155l59 193q41 129 41 182 q0 72 -51 121t-125 49q-125 0 -206 -113.5t-115.5 -185.5t-77.5 -184.5t-62.5 -192.5t-19.5 -139z" />
<glyph unicode="h" horiz-adv-x="1196" d="M-45 0l401 1311l21 51l2 8q0 51 -74 51l-39 -2h-53l14 54h72q131 0 182 6t105 12l-215 -711q170 293 360 293q94 0 158.5 -70.5t64.5 -173.5q0 -14 -1 -27.5t-11 -54t-26.5 -80.5t-71.5 -157l-41 -84l-55 -115q-31 -63 -48.5 -114.5t-17.5 -79.5q0 -96 88 -97 q168 0 289 340h45q-137 -397 -350 -397q-92 0 -151.5 61.5t-59.5 157.5q0 37 12 86t26.5 84t67.5 137l64 132l63 129q45 88 45 141q0 59 -32.5 94t-88.5 35q-106 0 -202.5 -128t-149.5 -228.5t-78 -188.5l-145 -475h-170z" />
<glyph unicode="i" horiz-adv-x="741" d="M-59 639q127 438 381 438q84 0 143 -61.5t59 -151.5q0 -41 -12 -88q-20 -59 -45 -117.5t-53 -115.5l-37 -78l-74 -146q-39 -80 -53 -123.5t-14 -80.5q0 -41 23.5 -69t62.5 -28q82 0 156.5 89.5t127.5 252.5h47q-57 -188 -150 -293.5t-200 -105.5q-84 0 -143.5 61.5 t-59.5 149.5q0 96 52 211q20 51 42.5 97t71.5 141l56 118q55 127 55 185q0 96 -94 96q-86 0 -167 -103.5t-128 -277.5h-47zM459 1315q0 43 29.5 74.5t68.5 31.5q47 0 82 -30.5t35 -75.5q0 -43 -32 -75t-79 -32q-43 0 -73.5 31t-30.5 76z" />
<glyph unicode="j" horiz-adv-x="636" d="M-346 -207q0 55 32.5 90t84.5 35q43 0 71.5 -26.5t28.5 -67.5q0 -51 -53 -78q-27 -18 -27 -37q0 -18 21.5 -32.5t50.5 -14.5q131 0 209 252l274 901l21 62q10 27 10 45q0 41 -25.5 65.5t-66.5 24.5q-82 0 -154 -94.5t-125 -274.5h-43q123 430 369 430q88 0 141 -55 t53 -148q0 -33 -10 -73l-29 -92l-233 -758q-100 -330 -369 -330q-100 0 -165.5 49t-65.5 127zM461 1313q0 45 26.5 75.5t67.5 30.5q49 0 84 -30.5t35 -73.5q0 -45 -31 -76t-78 -31q-43 0 -73.5 31t-30.5 74z" />
<glyph unicode="k" horiz-adv-x="1128" d="M-45 0l401 1311l21 49l2 8q0 51 -74 51h-39l-53 -2l16 53q178 0 357 21l-285 -930h84q115 0 158 42t58 63.5t30 42.5q16 31 21 42t11.5 26.5t18.5 49t35.5 96t75 107.5t125.5 45q76 0 127 -49t51 -127q0 -66 -35 -113t-84 -47q-41 0 -69.5 27t-28.5 65q0 47 44 80t44 62 q0 25 -18.5 41t-49.5 16q-16 0 -35.5 -8t-43 -28.5t-39 -50.5t-53.5 -136.5t-81 -157.5t-67.5 -68.5t-79.5 -39.5q115 -14 158.5 -62.5t43.5 -103.5q0 -27 -8 -59.5t-28 -86.5l-17 -49q-18 -47 -18 -76q0 -81 76 -81h2q70 0 141.5 90t120.5 243h49q-55 -184 -147.5 -288.5 t-196.5 -104.5q-80 0 -137.5 55.5t-57.5 135.5q0 76 35 156.5t35 117.5q0 88 -164 88h-106l-156 -516h-170z" />
<glyph unicode="l" horiz-adv-x="649" d="M12 164q0 57 47 190l291 953l21 49v8q0 53 -74 53l-41 -2h-55l18 53q137 0 207 6.5t152 12.5l-388 -1264l-20 -53q-4 -12 -6 -24.5t-2 -30.5q0 -96 82 -97q78 0 121 60.5t60 91.5t29.5 53.5t29 59t30.5 75.5h47q-14 -47 -29.5 -79.5t-59.5 -119.5t-108.5 -141.5 t-148.5 -54.5t-143.5 57.5t-59.5 143.5z" />
<glyph unicode="m" horiz-adv-x="1972" d="M-27 645q49 205 145.5 315.5t229.5 110.5q80 0 127 -45t47 -127q0 -39 -10 -91t-18 -91q205 358 436 358q80 0 135 -53t55 -133q0 -41 -3 -61.5t-27 -108.5q203 354 432 354q84 0 141 -57.5t57 -143.5l-2 -22q-4 -45 -26.5 -115.5t-44.5 -116.5l-43 -92l-78 -170l-49 -98 q-39 -72 -39 -141q0 -43 24.5 -70t65.5 -27q80 0 155.5 91.5t124.5 248.5h47q-53 -182 -146 -287.5t-206 -105.5q-86 0 -142 60.5t-56 154.5q0 51 21.5 127t53.5 140l41 86l72 147l39 84q49 111 49 166q0 41 -23.5 64.5t-66.5 23.5q-133 0 -280.5 -192.5t-235.5 -479.5 l-107 -348h-168l248 815l25 74q8 18 8 45q0 86 -86 86q-139 0 -244.5 -142.5t-163 -257t-88.5 -217.5l-125 -403h-170l248 811l25 74q4 10 6 23.5t2 23.5q0 86 -80 86q-86 0 -164 -101.5t-123 -271.5h-45z" />
<glyph unicode="n" horiz-adv-x="1339" d="M-53 643q39 190 143.5 311t231.5 121q80 0 129 -47t49 -127q0 -31 -6.5 -68.5t-24.5 -105.5q115 180 218.5 263t209.5 83q90 0 145.5 -57.5t55.5 -147.5q0 -53 -35 -156.5t-88 -213.5l-43 -82l-60 -121q-23 -49 -39 -100.5t-16 -75.5q0 -43 24.5 -72t63.5 -29 q80 0 160 96.5t125 245.5h45q-53 -186 -147.5 -290.5t-206.5 -104.5q-94 0 -146.5 60.5t-52.5 167.5q0 59 16.5 115.5t38 104.5t88.5 179l58 115q43 80 62.5 132t19.5 85q0 43 -27 69.5t-70 26.5q-70 0 -148.5 -60.5t-127.5 -129t-68.5 -99.5t-50.5 -88l-63 -141l-37 -101 l-125 -401h-168l256 840l22 63l4 33q0 35 -22.5 57.5t-56.5 22.5q-84 0 -167 -106.5t-124 -266.5h-45z" />
<glyph unicode="o" horiz-adv-x="1146" d="M12 350q0 281 192.5 506t430.5 225q166 0 265 -107.5t99 -289.5q0 -283 -188 -502t-432 -219q-166 0 -266.5 104.5t-100.5 282.5zM168 244q0 -109 55.5 -172.5t151.5 -63.5q193 0 298 226.5t139 354.5t34 206q0 106 -55.5 171.5t-147.5 65.5q-207 0 -304 -220t-134 -355 t-37 -213z" />
<glyph unicode="p" horiz-adv-x="1267" d="M-240 -362l17 57h47l47 -2q117 0 152 110l294 967l31 84q14 37 14 78q0 84 -77 84q-74 0 -152 -84q-39 -49 -70.5 -108.5t-68.5 -180.5h-45q113 432 375 432q90 0 141 -45t51 -131l-2 -20q27 43 50.5 70.5t85 77.5t186.5 50q135 0 218 -93t83 -251q0 -98 -41 -219 t-122 -251t-206 -214t-252 -84q-70 0 -117 24.5t-68.5 53.5t-41.5 84l-101 -326l-16 -49q0 -59 84 -59h47l62 2l-15 -57h-590zM328 186q0 -74 49 -125t121 -51q193 0 296 232.5t144 373t41 213.5q0 88 -49 143.5t-127 55.5q-53 0 -107.5 -27.5t-96.5 -78t-68.5 -102.5 t-69.5 -171l-53 -149l-33 -115q-25 -78 -36 -125t-11 -74z" />
<glyph unicode="q" horiz-adv-x="1103" d="M-8 301q0 86 39 209t114.5 249t207.5 220t255 94q63 0 124 -26.5t87 -69.5l43 -66q12 -18 39 -18q33 0 59.5 35t51.5 114h43l-381 -1245l-17 -49l-2 -6q0 -53 86 -53h47l58 2l-17 -53h-583l18 55l43 -2h47q43 0 74 13t44 31.5t26 63.5l102 334q-35 -49 -54.5 -70.5 t-77.5 -61.5t-169 -40q-139 0 -223 92t-84 248zM156 217q0 -96 45 -151.5t123 -55.5q49 0 104 25.5t110.5 78t92.5 152t71.5 206t62.5 192.5t28 163q0 84 -50.5 142.5t-121.5 58.5q-88 0 -167 -83t-132.5 -200.5t-87 -210t-52 -152.5t-24.5 -132z" />
<glyph unicode="r" horiz-adv-x="897" d="M-53 645q125 430 377 430q176 0 176 -182v-16q108 198 266 198h2q74 0 118 -46t44 -122q0 -78 -39 -129t-98 -51q-43 0 -73 25.5t-30 66.5q0 68 76 92q41 16 55.5 28.5t14.5 33.5q0 25 -25 41t-61 16q-66 0 -111 -42t-56.5 -58.5t-36 -56t-51 -101t-36.5 -100.5 l-207 -672h-172l250 819l20 49q12 41 12 66q0 82 -79 82q-90 0 -148.5 -79t-86.5 -140.5t-54 -151.5h-47z" />
<glyph unicode="s" horiz-adv-x="923" d="M-92 172q0 53 34.5 90t86.5 37q43 0 74.5 -29.5t31.5 -68.5q0 -45 -35 -68l-20 -16q-23 -12 -23 -37q0 -31 46.5 -49.5t121.5 -18.5q160 0 250 63.5t90 172.5q0 61 -32.5 102t-120.5 90l-90 52q-107 59 -158 110q-63 66 -64 152q0 137 122 230t302 93q137 0 222 -55 t85 -145q0 -47 -32.5 -82t-79.5 -35q-49 0 -80 24.5t-31 65.5q0 39 40 67.5t40 53.5t-42 43t-101 18q-127 0 -205 -55t-78 -148q0 -39 15.5 -71.5t46 -58t134 -81t180.5 -121t77 -180.5q0 -152 -135.5 -250t-341.5 -98q-150 0 -240 55.5t-90 147.5z" />
<glyph unicode="t" horiz-adv-x="684" d="M29 162q0 18 1 40.5t15 65.5l27 82l192 629h-188l18 57h191l123 396h170l-119 -396h223l-20 -57h-228l-231 -754l-19 -61q-10 -23 -10 -53q0 -41 22.5 -68t57.5 -27q70 0 141.5 91.5t128.5 248.5h49q-135 -393 -350 -393q-84 0 -139 57.5t-55 141.5z" />
<glyph unicode="u" horiz-adv-x="1306" d="M-59 637q132 436 374 436q88 0 145.5 -61.5t57.5 -159.5q0 -63 -22.5 -131t-38 -103.5t-60.5 -123.5l-78 -148q-12 -23 -31.5 -63.5t-35.5 -86.5t-16 -77q0 -43 26.5 -72t69.5 -29q129 0 277.5 199t236.5 494l100 325h168l-244 -798l-20 -50l-10 -49l-2 -37 q0 -35 22.5 -57t57.5 -22q137 0 258 333h49q-137 -391 -346 -391q-178 0 -179 193q0 37 4.5 69.5t16.5 87.5q-33 -55 -53.5 -85.5t-111.5 -146.5t-257 -116q-86 0 -141.5 59.5t-55.5 149.5q0 72 31 152t58.5 138t48.5 105l71 154q63 125 64 184q0 109 -90 109 q-88 0 -164 -98.5t-133 -282.5h-47z" />
<glyph unicode="v" horiz-adv-x="1107" d="M-57 639q36 127 65 186q59 121 137 186.5t164 65.5q94 0 148.5 -60.5t54.5 -164.5q0 -31 -8 -75t-20.5 -82t-40 -100.5t-58.5 -121.5l-68 -135q-47 -86 -65.5 -136t-18.5 -89q0 -96 113 -97q76 0 166 53.5t188.5 163t172 256t73.5 238.5q0 55 -16.5 87t-66.5 64.5 t-65.5 51t-15.5 47.5q0 43 27 69.5t70 26.5q66 0 107.5 -64.5t41.5 -162.5q0 -104 -57.5 -250.5t-223 -387.5t-425.5 -241q-104 0 -167 60.5t-63 160.5q0 57 29 138.5t96 214.5l76 145l41 86q41 86 41 150q0 47 -24.5 73.5t-67.5 26.5q-86 0 -169 -107.5t-124 -275.5h-47z " />
<glyph unicode="w" horiz-adv-x="1693" d="M-57 637q20 78 35 119t40 86q123 231 297 231q90 0 148.5 -58.5t58.5 -152.5q0 -49 -26.5 -136t-67.5 -165l-45 -92l-64 -125l-28 -63q-55 -102 -55 -156q0 -106 94 -107q133 0 284.5 199t237.5 481l104 338h168l-252 -823l-26 -78l-4 -31q0 -41 26.5 -67.5t67.5 -26.5 q74 0 166 58.5t188 168t170 258t74 236.5q0 94 -66.5 133t-82 60.5t-15.5 54.5q0 41 26.5 65.5t67.5 24.5q66 0 108 -60.5t42 -160.5t-44 -225t-146.5 -287t-243 -267.5t-269.5 -105.5q-98 0 -153.5 49t-55.5 142q0 35 6.5 66.5t24.5 94.5q-94 -166 -206.5 -258t-223.5 -92 q-92 0 -150.5 62.5t-58.5 160.5q0 86 78 252l45 90l57 125l33 70q70 123 70 193q0 43 -26.5 71.5t-67.5 28.5q-86 0 -162 -98.5t-131 -282.5h-47z" />
<glyph unicode="x" horiz-adv-x="1085" d="M-76 139q0 72 42 126t100 54q39 0 65.5 -27.5t26.5 -68.5q0 -31 -16.5 -52t-65.5 -45t-49 -63q0 -55 71 -55q68 0 127.5 74t102.5 215l164 541l20 55q8 18 8 43q0 86 -86 86q-84 0 -175 -108.5t-146 -274.5h-43q29 82 48 126t99 176t254 132q55 0 96 -22.5t58.5 -48 t29.5 -84.5q91 153 222 153h2q78 0 123 -46t45 -128q0 -72 -41 -121t-103 -49q-43 0 -69.5 24.5t-26.5 63.5q0 76 82 98q65 25 65 59q0 26 -20.5 40t-54.5 14q-72 0 -134.5 -64.5t-93.5 -168.5l-168 -549l-16 -45q-6 -20 -12 -49t-6 -48q0 -37 22.5 -61.5t58.5 -24.5 q66 0 156 97l76 90q20 31 40.5 68.5t41.5 86.5h51q-37 -78 -56.5 -112.5t-33.5 -56t-52 -67.5t-71 -79t-76 -55.5t-98 -22.5q-168 0 -193 176q-94 -176 -229 -176q-72 0 -117 47t-45 127z" />
<glyph unicode="y" horiz-adv-x="1148" d="M-72 637q133 438 375 438q88 0 146.5 -60.5t58.5 -152.5q0 -78 -32 -158.5t-54.5 -129t-67.5 -138.5l-65 -131q-66 -123 -66 -186q0 -47 26.5 -74t72.5 -27q121 0 270 197t231 461l111 360h168l-285 -936q-66 -217 -226.5 -351t-352.5 -134q-129 0 -213 55.5t-84 141.5 q0 53 32.5 87.5t83.5 34.5q45 0 76 -24.5t31 -65.5q0 -45 -43 -71l-31 -21q-10 -10 -10 -26q0 -29 36 -45.5t95 -16.5q160 0 278 139q53 55 83 118t45.5 105t66.5 203l25 82q-115 -182 -212.5 -263t-205.5 -81q-86 0 -145.5 63.5t-59.5 159.5q0 104 84 273l68 131l67 143 q35 72 47.5 110t12.5 71q0 45 -25 73.5t-68 28.5q-80 0 -142 -78t-82.5 -125t-41 -99t-31.5 -81h-47z" />
<glyph unicode="z" horiz-adv-x="956" d="M-57 55q0 137 85 231.5t147.5 145.5t129 91t182.5 95l156 80q55 31 86 63t64 93q-41 -12 -58.5 -17.5t-40.5 -5.5q-57 0 -125 31l-88 39q-35 12 -52 17.5t-40 5.5q-80 0 -155.5 -70t-133.5 -192l-43 14q27 55 48.5 98t103.5 172t252 129q113 0 196 -114l31 -39 q31 -37 55 -37q43 0 43 39q0 23 -11 45t-11 43q0 63 59 63t60 -76q0 -70 -52.5 -174t-164 -200.5t-183 -139.5t-186.5 -90t-155 -76.5t-95 -107.5l55 8q33 0 54.5 -8t107.5 -46t120 -49.5t75 -11.5q88 0 164 70q49 49 104 162l39 -12q-23 -55 -35 -81t-96 -153t-252 -127 q-35 0 -58.5 5t-50 19.5t-46 34t-65.5 86t-87 66.5q-45 0 -45 -43q0 -23 14 -45l16 -31q12 -16 13 -37q0 -53 -56 -53q-35 0 -55 24.5t-20 65.5z" />
<glyph unicode="{" horiz-adv-x="626" d="M141 737q57 0 98.5 41t49.5 107l82 676q18 145 184 145h160l-13 -92h-22q-74 0 -99.5 -23.5t-35.5 -95.5l-72 -594q-12 -102 -67.5 -127.5t-69.5 -30t-29 -6.5q57 -6 91 -46t34 -99v-19l-72 -593q-4 -33 -4 -43q0 -45 23.5 -60.5t85.5 -15.5h22l-10 -92h-160 q-150 0 -149 122v23l84 676q2 8 2 24q0 80 -46 101.5t-67 21.5z" />
<glyph unicode="|" horiz-adv-x="565" d="M274 0v1475h156v-1475h-156z" />
<glyph unicode="}" horiz-adv-x="626" d="M63 -231l13 92h22q74 0 99.5 23.5t33.5 95.5l74 593q14 104 66.5 128t70 29t29.5 7q-53 6 -90 45t-37 95q0 16 2 24l72 594q4 33 4 43q0 45 -23.5 60.5t-85.5 15.5h-22l10 92h160q150 0 149 -121q0 -16 -2 -24l-82 -676q-8 -63 24 -105.5t87 -42.5q-57 0 -98 -41 t-50 -106l-81 -676q-18 -145 -185 -145h-160z" />
<glyph unicode="~" horiz-adv-x="675" d="M197 1554l30 78q57 119 174 119q39 0 78 -10t123 -43l76 -31q49 -16 80 -16q35 0 58.5 19.5t51.5 68.5h45q-57 -182 -200 -183q-59 0 -155.5 36t-130.5 46.5t-60 10.5q-43 0 -70 -19.5t-57 -75.5h-43z" />
<glyph unicode="&#xa1;" horiz-adv-x="475" d="M-102 84q0 23 28 92l385 916h60l-228 -945l-12 -55q-10 -47 -47 -79.5t-82 -32.5t-74.5 29.5t-29.5 74.5zM334 1393q0 43 30.5 73.5t71.5 30.5q43 0 74 -30.5t31 -73.5q0 -41 -31 -72t-72 -31q-43 0 -73.5 31t-30.5 72z" />
<glyph unicode="&#xa2;" horiz-adv-x="929" d="M-6 297q0 133 59.5 283.5t144.5 252t154.5 150.5t118.5 67.5t129 18.5l49 150h58l-48 -154q88 0 141.5 -61.5t53.5 -155.5q0 -82 -43 -137.5t-109 -55.5q-47 0 -77.5 27t-30.5 72q0 33 23.5 60.5t54.5 29.5l45 2q70 6 69 63q0 94 -139 117l-315 -1010q86 10 128 27.5 t89 65t80 92.5t49 72.5t47 86.5h45q-94 -201 -203.5 -300t-247.5 -99l-43 -141h-63l49 143q-61 12 -119.5 37t-103.5 109t-45 188zM154 213q0 -74 27.5 -114t97.5 -72l303 989q-41 -10 -56.5 -21.5t-58.5 -48.5q-55 -55 -90 -109.5t-88 -174.5l-72 -164q-35 -86 -47 -143.5 t-14 -85t-2 -56.5z" />
<glyph unicode="&#xa3;" horiz-adv-x="1189" d="M-127 90q0 84 85 148.5t196 64.5q47 0 137 -22q25 72 33 108.5t22 128.5l25 244h-174l22 67h156q43 319 200.5 491.5t411.5 172.5q135 0 210 -60.5t75 -168.5q0 -90 -55.5 -162t-124.5 -72q-78 0 -78 80q0 82 70.5 106.5t85 42t14.5 50.5q0 55 -46 89t-122 34 q-188 0 -314.5 -164t-126.5 -437h437l-23 -69h-422q-20 -178 -40.5 -252t-46 -125t-83.5 -135q80 -68 135.5 -94.5t118.5 -26.5q104 0 171 47t112 103l51 -13q-37 -57 -60.5 -86.5t-56.5 -64.5q-150 -139 -313 -140q-141 0 -240 134q-80 -70 -151.5 -104t-140.5 -34 q-68 0 -109 33t-41 86zM-59 109q0 -31 24.5 -51.5t63.5 -20.5q55 0 109 38.5t91 108.5q-55 45 -129 45q-66 0 -112.5 -34.5t-46.5 -85.5z" />
<glyph unicode="&#xa4;" horiz-adv-x="1087" d="M219 436l127 125q-57 78 -57 180q0 96 55 177l-123 118q25 37 64 72l127 -127q78 59 180 59q100 0 178 -57l125 127q16 -12 29.5 -24.5t25.5 -28.5l15 -21l-127 -118q57 -78 57 -179q0 -98 -59 -180l127 -127l-15 -16l-16 -15l-39 -34l-123 127q-78 -59 -180 -60 q-98 0 -176 60l-129 -125q-18 14 -33.5 29.5t-32.5 37.5zM387 737q0 -84 59.5 -143t145.5 -59q84 0 143.5 59t59.5 145q0 82 -59.5 141.5t-143.5 59.5t-144.5 -58.5t-60.5 -144.5z" />
<glyph unicode="&#xa5;" horiz-adv-x="1587" d="M-76 465l43 125h459l16 59l-12 64h-430l39 123h354l-129 467q-10 33 -19 55t-33 43.5t-60 21.5l-46 -2h-40l16 56h584l-15 -56h-43l-63 2q-102 0 -103 -67q0 -6 2 -18.5t11 -34.5l161 -584l377 477q43 53 56.5 78.5t13.5 54.5q0 92 -131 92h-47l18 56h535l-19 -56h-43 q-74 0 -132 -40t-132 -134l-315 -407h366l-39 -125h-436l-51 -62l-16 -59h462l-39 -125h-458l-94 -295l-13 -43q-2 -2 -3 -7t-3 -11q0 -61 84 -62l53 2l52 2l-17 -55h-612l16 55l35 -2l59 -2q66 0 99.5 27.5t56.5 95.5l90 291h-465z" />
<glyph unicode="&#xa7;" horiz-adv-x="1126" d="M-72 -272l88 278l50 -2q-14 -94 -15 -139q0 -88 52.5 -136t148.5 -48q94 0 156.5 50t62.5 122q0 29 -12.5 57.5t-46.5 77.5l-275 393q-33 43 -49 97t-16 108q0 111 55 194.5t114.5 124.5t188.5 86q-35 59 -47 99t-12 81q0 145 117.5 238.5t297.5 93.5h39.5t73.5 -11 t111.5 -39t136.5 -97l-86 -279h-39v49q0 76 -6 113t-29.5 80t-77 71.5t-114.5 28.5q-96 0 -164 -63.5t-68 -151.5q0 -68 72 -170l207 -289q106 -150 106 -251q0 -51 -14 -93q-31 -119 -100.5 -184t-235.5 -133q33 -59 48.5 -104.5t15.5 -85.5q0 -127 -98.5 -211t-248.5 -84 l-61 2q-102 10 -162.5 33.5t-163.5 93.5zM217 678q0 -72 53 -141l283 -383q115 14 164 42.5t73.5 88t24.5 102.5q0 78 -61 162l-273 362q-113 -10 -152.5 -32.5t-75.5 -86t-36 -114.5z" />
<glyph unicode="&#xa8;" horiz-adv-x="575" d="M133 1276q0 43 29.5 74.5t70.5 31.5q49 0 82 -30.5t33 -77.5q0 -43 -31.5 -75t-78.5 -32q-45 0 -75 32t-30 77zM504 1274q0 45 34 76.5t83 31.5q43 0 71.5 -30.5t28.5 -75.5q0 -43 -31 -76t-74 -33q-47 0 -79.5 31t-32.5 76z" />
<glyph unicode="&#xa9;" horiz-adv-x="1974" d="M236 739q0 318 223 541q109 109 251 165t291 56q150 0 289.5 -56t250 -166t166.5 -250t56 -292q0 -150 -56 -289t-166.5 -249.5t-251 -167t-292.5 -56.5q-150 0 -289 56.5t-305.5 223.5t-166.5 484zM338 739q0 -133 51.5 -257t145.5 -220q92 -92 217 -142t252 -50 q129 0 248.5 48t214 144t144.5 219t50 256q0 131 -49 255t-193.5 270.5t-421.5 146.5q-127 0 -248.5 -50t-215 -145.5t-144.5 -217.5t-51 -257zM530 657q0 76 25 162l37 96q100 201 207.5 242t136.5 50.5t68.5 17.5t93.5 8q88 0 165.5 -29.5t143.5 -89.5l-74 -90 q-47 45 -111.5 70.5t-134.5 25.5q-100 0 -189 -44t-156.5 -135t-77 -160.5t-9.5 -84v-22.5q0 -143 94.5 -237.5t237.5 -94.5q39 0 72 7t54.5 13.5t44 15.5t48 23.5t54.5 36.5l51 -88q-76 -57 -157 -87t-175 -30q-197 0 -323 120t-126 304z" />
<glyph unicode="&#xaa;" horiz-adv-x="1062" d="M197 571l16 125h719l-12 -125h-723zM264 1063q0 39 4 76t25.5 105.5t87 134t130 92t128.5 26.5q74 0 134.5 -35t88.5 -96l8 -16l7 -15l16 140h135l-82 -678h-137l18 149l-8 -16l-10 -17q-45 -70 -120 -101.5t-142 -31.5q-119 0 -201 80t-82 203zM406 1092 q0 -82 56 -136.5t138 -54.5q49 0 92 21q61 23 98 70.5t51.5 97t14.5 98.5q0 82 -56.5 136t-137.5 54q-43 0 -124 -33.5t-103.5 -105.5t-26.5 -100z" />
<glyph unicode="&#xab;" horiz-adv-x="802" d="M12 528l437 484h67l-340 -484l76 -483h-66zM264 528l436 484h66l-338 -484l74 -481h-66z" />
<glyph unicode="&#xac;" horiz-adv-x="1335" d="M203 737v156h995v-451h-129v295h-866z" />
<glyph unicode="&#xad;" horiz-adv-x="681" d="M-4 446l43 152l256 -6l262 4l-43 -152q-74 0 -156 4.5t-108 4.5q-70 0 -133.5 -2t-120.5 -5z" />
<glyph unicode="&#xae;" horiz-adv-x="1974" d="M236 739q0 318 223 541q109 109 251 165t291 56q150 0 289.5 -56t250 -166t166.5 -250t56 -292q0 -150 -56 -289t-166.5 -249.5t-251 -167t-292.5 -56.5q-150 0 -289 56.5t-305.5 223.5t-166.5 484zM338 739q0 -133 51.5 -257t145.5 -220q92 -92 217 -142t252 -50 q129 0 248.5 48t214 144t144.5 219t50 256q0 131 -49 255t-193.5 270.5t-421.5 146.5q-127 0 -248.5 -50t-215 -145.5t-144.5 -217.5t-51 -257zM702 268l119 961h226q133 0 204.5 -57.5t71.5 -161.5q0 -49 -21.5 -119t-81 -119t-149.5 -61l-33 -2l246 -441h-145l-254 473 l-60 -473h-123zM889 782h80q172 0 200.5 85t28.5 120q0 139 -174 139h-92z" />
<glyph unicode="&#xb1;" horiz-adv-x="1216" d="M90 39v139h946v-139h-946zM90 539v139h404v250h139v-250h403v-139h-403v-250h-139v250h-404z" />
<glyph unicode="&#xb4;" horiz-adv-x="325" d="M147 1169v35q84 23 127 62t78 127q18 47 64 47h51q61 0 61 -43q0 -68 -113.5 -136.5t-267.5 -91.5z" />
<glyph unicode="&#xb5;" horiz-adv-x="1275" d="M150 -285l4 119l4 182l-2 207l-4 195v502h188v-607q0 -145 28.5 -194t102.5 -49q117 0 194.5 165.5t77.5 417.5v267h189v-672q0 -92 19.5 -135t58.5 -43q41 0 64.5 42t23.5 126v28h43l2 -18v-27q0 -113 -48 -176t-137 -63q-100 0 -154 88t-54 264q-47 -182 -126 -267 t-198 -85q-86 0 -150 53q-57 55 -81 158l-2 -58q0 -133 65.5 -290.5t65.5 -186.5q0 -41 -22.5 -63.5t-63.5 -22.5q-47 0 -67.5 35t-20.5 108z" />
<glyph unicode="&#xb6;" horiz-adv-x="1232" d="M201 1038q0 25 9 116t136 206t301 115h633l-14 -107h-633q-127 0 -220.5 -86t-103.5 -211q0 -121 72 -205t180 -84h141l62 496h113l-158 -1278h-113l84 676h-141q-141 0 -244.5 105.5t-103.5 256.5zM856 0l156 1278h112l-155 -1278h-113z" />
<glyph unicode="&#xb8;" horiz-adv-x="415" d="M-166 -317l10 38q57 -14 82 -14q61 0 103.5 20.5t42.5 53.5q0 20 -22.5 34.5t-57.5 14.5l-51 -4l51 205h53l-29 -117q70 0 110 -29.5t40 -79.5q0 -63 -55.5 -100t-153.5 -37q-57 0 -123 15z" />
<glyph unicode="&#xba;" horiz-adv-x="1060" d="M201 571l16 125h717l-12 -125h-721zM266 1094q0 31 7 95.5t83 158.5q92 123 187.5 140t130.5 17q139 0 228 -89t89 -226q0 -33 -6 -80t-49 -130t-125 -133t-138.5 -60.5t-90.5 -10.5q-135 0 -225.5 90t-90.5 228zM403 1096q0 -84 56.5 -138.5t138.5 -54.5q49 0 141 40 t104.5 134t10.5 109q0 84 -57.5 139t-137.5 55q-49 0 -128.5 -35.5t-116.5 -158.5l-8 -45q-5 -29 -3 -45z" />
<glyph unicode="&#xbb;" horiz-adv-x="823" d="M-76 47l338 483l-78 484h66l172 -484l-430 -483h-68zM174 47l338 483l-78 484h66l176 -479l-434 -488h-68z" />
<glyph unicode="&#xbf;" horiz-adv-x="899" d="M-72 315q0 125 92.5 230.5t253.5 167.5l129 47q135 49 188.5 90t53.5 96q0 49 -45 86t-108 37q-154 0 -250 -207l-41 12q63 131 131.5 185.5t167.5 54.5q111 0 184.5 -63.5t73.5 -161.5q0 -63 -43 -123.5t-111.5 -102.5t-195.5 -96.5t-166 -75t-104.5 -76t-65.5 -161.5 q0 -94 70.5 -156.5t176.5 -62.5q104 0 189.5 58.5t85.5 129.5q0 31 -21 68l-20 35l-6 28q0 39 28.5 65.5t69.5 26.5q47 0 78 -32.5t31 -89.5q0 -135 -133.5 -235.5t-309.5 -100.5q-166 0 -274.5 92t-108.5 235zM557 1397q0 43 31 73.5t74 30.5q41 0 71.5 -30.5t30.5 -71.5 t-29.5 -71t-75.5 -30q-41 0 -71.5 29t-30.5 70z" />
<glyph unicode="&#xc0;" horiz-adv-x="1159" d="M-344 0l16 55l39 -2l66 -2q68 0 115 29t88 94l808 1303h140l-74 -1303l-2 -37q0 -86 102 -86l56 2l53 2l-16 -55h-603l17 55l37 -2l55 -2q27 0 43 4t36.5 19.5t28 33t7.5 66.5l18 285h-461l-176 -285q-37 -57 -37 -80q0 -43 80 -43l62 2l55 2l-16 -55h-537zM264 516h424 l43 760zM679 1870q0 39 50 39h61q55 0 81 -70t66.5 -106.5t124.5 -57.5l-10 -35q-150 20 -261.5 89t-111.5 141z" />
<glyph unicode="&#xc1;" horiz-adv-x="1159" d="M-344 0l16 55l39 -2l66 -2q68 0 115 29t88 94l808 1303h140l-74 -1303l-2 -37q0 -86 102 -86l56 2l53 2l-16 -55h-603l17 55l37 -2l55 -2q27 0 43 4t36.5 19.5t28 33t7.5 66.5l18 285h-461l-176 -285q-37 -57 -37 -80q0 -43 80 -43l62 2l55 2l-16 -55h-537zM264 516h424 l43 760zM706 1640v35q84 23 127 62t78 127q18 47 64 47h51q61 0 61 -43q0 -68 -113.5 -136.5t-267.5 -91.5z" />
<glyph unicode="&#xc2;" horiz-adv-x="1159" d="M-344 0l16 55l39 -2l66 -2q68 0 115 29t88 94l808 1303h140l-74 -1303l-2 -37q0 -86 102 -86l56 2l53 2l-16 -55h-603l17 55l37 -2l55 -2q27 0 43 4t36.5 19.5t28 33t7.5 66.5l18 285h-461l-176 -285q-37 -57 -37 -80q0 -43 80 -43l62 2l55 2l-16 -55h-537zM264 516h424 l43 760zM524 1642v35q45 18 69.5 32.5t50.5 37t36 41t27.5 60.5t31.5 53.5t43 11.5h66q31 0 43 -8.5t28.5 -54.5t52 -87t62.5 -56t78 -30l-12 -35q-123 20 -172.5 43t-118.5 91q-78 -61 -133.5 -87t-151.5 -47z" />
<glyph unicode="&#xc3;" horiz-adv-x="1159" d="M-344 0l16 55l39 -2l66 -2q68 0 115 29t88 94l808 1303h140l-74 -1303l-2 -37q0 -86 102 -86l56 2l53 2l-16 -55h-603l17 55l37 -2l55 -2q27 0 43 4t36.5 19.5t28 33t7.5 66.5l18 285h-461l-176 -285q-37 -57 -37 -80q0 -43 80 -43l62 2l55 2l-16 -55h-537zM264 516h424 l43 760zM537 1636l29 84q53 135 157 135q35 0 69 -12t114 -51l69 -33q47 -20 70 -20q33 0 55.5 22.5t46.5 77.5h43q-55 -201 -180 -201q-29 0 -83 18.5t-107.5 44t-79 36t-43.5 10.5q-39 0 -63.5 -22.5t-57.5 -88.5h-39z" />
<glyph unicode="&#xc4;" horiz-adv-x="1183" d="M-344 0l16 55l39 -2l66 -2q68 0 115 29t88 94l808 1303h140l-74 -1303l-2 -37q0 -86 102 -86l56 2l53 2l-16 -55h-603l17 55l37 -2l55 -2q27 0 43 4t36.5 19.5t28 33t7.5 66.5l18 285h-461l-176 -285q-37 -57 -37 -80q0 -43 80 -43l62 2l55 2l-16 -55h-537zM264 516h424 l43 760zM502 1669q0 43 30.5 74t71.5 31t69.5 -31t28.5 -72q0 -45 -31.5 -74.5t-78.5 -29.5q-37 0 -63.5 30.5t-26.5 71.5zM993 1667q0 43 31 74t74 31q39 0 67.5 -31t28.5 -74q0 -41 -28.5 -71.5t-71.5 -30.5q-41 0 -71 29.5t-30 72.5z" />
<glyph unicode="&#xc5;" horiz-adv-x="1153" d="M-334 0l15 55l40 -2l64 -2q129 0 205 123l807 1303h139l-72 -1303l-2 -37q0 -86 101 -86l55 2l53 2l-14 -55h-602l14 55l39 -2l55 -2q27 0 42.5 4t37 20.5t28.5 32t7 66.5l16 285h-458l-179 -285q-23 -37 -28.5 -50t-5.5 -30q0 -43 79 -43l60 2l55 2l-16 -55h-535z M272 516h426l41 760zM725 1731q0 68 49 112.5t123 44.5q68 0 115 -45t47 -112q0 -68 -48 -116t-118 -48t-119 47t-49 117zM797 1731q0 -39 28.5 -68t67.5 -29t65.5 27t26.5 68q0 39 -25.5 66.5t-64.5 27.5q-41 0 -69.5 -27t-28.5 -65z" />
<glyph unicode="&#xc6;" horiz-adv-x="1906" d="M-336 0l17 55h61q104 0 147 35t55.5 46t32.5 36l70 82l893 1051q39 45 46 56t7 30q0 35 -80 34l-65 -2l-57 -2l16 56h1182l-174 -572h-64q31 96 41 144.5t10 103.5q0 268 -297 268h-123q-72 0 -98 -26q-10 -6 -24.5 -34t-22.5 -50l-160 -520h123q117 0 181.5 53 t105.5 188l18 62h56l-218 -711h-59l16 53q31 102 31 154q0 61 -42 101t-107 40h-129l-156 -512l-20 -63l-5 -21q0 -41 28 -58.5t91 -17.5h189q78 0 154.5 29t140 79t105.5 111.5t65.5 108.5t62.5 150h51l-164 -537h-1179l18 55l37 -2l59 -2q66 0 102 27.5t56 95.5l86 289 h-473l-166 -197l-41 -45q-31 -41 -31 -69q0 -96 138 -97h24l-16 -55h-545zM350 520h449l256 836z" />
<glyph unicode="&#xc7;" horiz-adv-x="1286" d="M72 520q0 248 119.5 486.5t285.5 367.5t352 129q78 0 140.5 -18.5t121 -59.5t82 -51t50.5 -10q88 0 127 113h55l-176 -576h-55q12 53 16 84t4 62q0 176 -94 287.5t-244 111.5q-272 0 -400 -298t-167 -463t-39 -288q0 -180 78 -276t225 -96q170 0 314.5 143t246.5 412h60 l-46 -113q-39 -90 -91 -175t-162.5 -206t-364.5 -121h-8l-10 -31q154 0 153 -106q0 -66 -55 -102.5t-156 -36.5q-45 0 -74.5 6t-48.5 10l13 39q45 -14 82 -14q59 0 100 20.5t41 50.5q0 47 -80 47l-49 -4l41 125q-137 37 -203 86t-125 171t-59 294z" />
<glyph unicode="&#xc8;" horiz-adv-x="1290" d="M-193 0l19 55l31 -2l59 -2q57 0 84 18.5t47.5 47t30.5 57.5l342 1129l20 43l4 18q0 59 -77 59l-50 -2h-55l17 56h1093l-174 -576h-61q27 94 35 142.5t8 103.5q0 129 -74 198.5t-211 69.5h-125q-68 0 -92.5 -14.5t-44.5 -67.5l-21 -55l-149 -492h127q115 0 177 54.5 t103 189.5l21 60h53l-217 -709h-63l28 90q20 68 21 111q0 66 -44 105.5t-118 39.5h-115l-151 -491l-23 -80q-8 -14 -8 -29q0 -41 26.5 -55.5t104.5 -14.5h190q166 0 260.5 86t133.5 141.5t64.5 108.5t53.5 137h54l-162 -530h-1172zM745 1870q0 39 50 39h61q55 0 81 -70 t66.5 -106.5t124.5 -57.5l-10 -35q-150 20 -261.5 89t-111.5 141z" />
<glyph unicode="&#xc9;" horiz-adv-x="1290" d="M-193 0l19 55l31 -2l59 -2q57 0 84 18.5t47.5 47t30.5 57.5l342 1129l20 43l4 18q0 59 -77 59l-50 -2h-55l17 56h1093l-174 -576h-61q27 94 35 142.5t8 103.5q0 129 -74 198.5t-211 69.5h-125q-68 0 -92.5 -14.5t-44.5 -67.5l-21 -55l-149 -492h127q115 0 177 54.5 t103 189.5l21 60h53l-217 -709h-63l28 90q20 68 21 111q0 66 -44 105.5t-118 39.5h-115l-151 -491l-23 -80q-8 -14 -8 -29q0 -41 26.5 -55.5t104.5 -14.5h190q166 0 260.5 86t133.5 141.5t64.5 108.5t53.5 137h54l-162 -530h-1172zM772 1640v35q84 23 127 62t78 127 q18 47 64 47h51q61 0 61 -43q0 -68 -113.5 -136.5t-267.5 -91.5z" />
<glyph unicode="&#xca;" horiz-adv-x="1290" d="M-193 0l19 55l31 -2l59 -2q57 0 84 18.5t47.5 47t30.5 57.5l342 1129l20 43l4 18q0 59 -77 59l-50 -2h-55l17 56h1093l-174 -576h-61q27 94 35 142.5t8 103.5q0 129 -74 198.5t-211 69.5h-125q-68 0 -92.5 -14.5t-44.5 -67.5l-21 -55l-149 -492h127q115 0 177 54.5 t103 189.5l21 60h53l-217 -709h-63l28 90q20 68 21 111q0 66 -44 105.5t-118 39.5h-115l-151 -491l-23 -80q-8 -14 -8 -29q0 -41 26.5 -55.5t104.5 -14.5h190q166 0 260.5 86t133.5 141.5t64.5 108.5t53.5 137h54l-162 -530h-1172zM590 1642v35q45 18 69.5 32.5t50.5 37 t36 41t27.5 60.5t31.5 53.5t43 11.5h66q31 0 43 -8.5t28.5 -54.5t52 -87t62.5 -56t78 -30l-12 -35q-123 20 -172.5 43t-118.5 91q-78 -61 -133.5 -87t-151.5 -47z" />
<glyph unicode="&#xcb;" horiz-adv-x="1290" d="M-193 0l19 55l31 -2l59 -2q57 0 84 18.5t47.5 47t30.5 57.5l342 1129l20 43l4 18q0 59 -77 59l-50 -2h-55l17 56h1093l-174 -576h-61q27 94 35 142.5t8 103.5q0 129 -74 198.5t-211 69.5h-125q-68 0 -92.5 -14.5t-44.5 -67.5l-21 -55l-149 -492h127q115 0 177 54.5 t103 189.5l21 60h53l-217 -709h-63l28 90q20 68 21 111q0 66 -44 105.5t-118 39.5h-115l-151 -491l-23 -80q-8 -14 -8 -29q0 -41 26.5 -55.5t104.5 -14.5h190q166 0 260.5 86t133.5 141.5t64.5 108.5t53.5 137h54l-162 -530h-1172zM633 1747q0 43 29.5 74.5t70.5 31.5 q49 0 82 -30.5t33 -77.5q0 -43 -31.5 -75t-78.5 -32q-45 0 -75 32t-30 77zM1004 1745q0 45 34 76.5t83 31.5q43 0 71.5 -30.5t28.5 -75.5q0 -43 -31 -76t-74 -33q-47 0 -79.5 31t-32.5 76z" />
<glyph unicode="&#xcc;" horiz-adv-x="686" d="M-193 0l19 55l35 -2l59 -2q31 0 47.5 4t42 20.5t43 49.5t45.5 123l320 1055l14 43l4 18q0 59 -76 59l-49 -2h-49l17 56h606l-17 -56h-28l-64 2q-61 0 -92 -22q-23 -12 -43 -40t-29 -58l-344 -1129l-16 -43l-4 -18q0 -61 84 -62l53 2l51 2l-16 -55h-613zM442 1870 q0 39 50 39h61q55 0 81 -70t66.5 -106.5t124.5 -57.5l-10 -35q-150 20 -261.5 89t-111.5 141z" />
<glyph unicode="&#xcd;" horiz-adv-x="686" d="M-193 0l19 55l35 -2l59 -2q31 0 47.5 4t42 20.5t43 49.5t45.5 123l320 1055l14 43l4 18q0 59 -76 59l-49 -2h-49l17 56h606l-17 -56h-28l-64 2q-61 0 -92 -22q-23 -12 -43 -40t-29 -58l-344 -1129l-16 -43l-4 -18q0 -61 84 -62l53 2l51 2l-16 -55h-613zM471 1640v35 q84 23 127 62t78 127q18 47 64 47h51q61 0 61 -43q0 -68 -113.5 -136.5t-267.5 -91.5z" />
<glyph unicode="&#xce;" horiz-adv-x="686" d="M-193 0l19 55l35 -2l59 -2q31 0 47.5 4t42 20.5t43 49.5t45.5 123l320 1055l14 43l4 18q0 59 -76 59l-49 -2h-49l17 56h606l-17 -56h-28l-64 2q-61 0 -92 -22q-23 -12 -43 -40t-29 -58l-344 -1129l-16 -43l-4 -18q0 -61 84 -62l53 2l51 2l-16 -55h-613zM287 1642v35 q45 18 69.5 32.5t50.5 37t36 41t27.5 60.5t31.5 53.5t43 11.5h66q31 0 43 -8.5t28.5 -54.5t52 -87t62.5 -56t78 -30l-12 -35q-123 20 -172.5 43t-118.5 91q-78 -61 -133.5 -87t-151.5 -47z" />
<glyph unicode="&#xcf;" horiz-adv-x="686" d="M-193 0l19 55l35 -2l59 -2q31 0 47.5 4t42 20.5t43 49.5t45.5 123l320 1055l14 43l4 18q0 59 -76 59l-49 -2h-49l17 56h606l-17 -56h-28l-64 2q-61 0 -92 -22q-23 -12 -43 -40t-29 -58l-344 -1129l-16 -43l-4 -18q0 -61 84 -62l53 2l51 2l-16 -55h-613zM332 1747 q0 43 29.5 74.5t70.5 31.5q49 0 82 -30.5t33 -77.5q0 -43 -31.5 -75t-78.5 -32q-45 0 -75 32t-30 77zM703 1745q0 45 34 76.5t83 31.5q43 0 71.5 -30.5t28.5 -75.5q0 -43 -31 -76t-74 -33q-47 0 -79.5 31t-32.5 76z" />
<glyph unicode="&#xd1;" horiz-adv-x="1368" d="M-193 0l19 55h29q111 0 165 58q53 66 86 176l310 1014l16 43l2 16q0 61 -82 61l-55 -2h-45l16 56h381l260 -1213l295 965l17 43q8 23 8 55q0 51 -29 72.5t-100 21.5h-47l16 56h496l-17 -56h-49q-111 0 -160 -55l-45 -72l-26 -61l-377 -1233h-111l-295 1331l-319 -1040 l-21 -58q-12 -37 -12 -71q0 -57 34 -82t114 -25h41l-17 -55h-498zM641 1636l29 84q53 135 157 135q35 0 69 -12t114 -51l69 -33q47 -20 70 -20q33 0 55.5 22.5t46.5 77.5h43q-55 -201 -180 -201q-29 0 -83 18.5t-107.5 44t-79 36t-43.5 10.5q-39 0 -63.5 -22.5t-57.5 -88.5 h-39z" />
<glyph unicode="&#xd2;" horiz-adv-x="1482" d="M72 520q0 383 266 684t602 301q213 0 348 -149.5t135 -384.5q0 -385 -269 -693.5t-607 -308.5q-217 0 -346 149.5t-129 401.5zM256 403q0 -55 10 -94q20 -133 95 -209.5t186 -76.5q305 0 460.5 314t199.5 472t44 276q0 168 -84 264.5t-227 96.5q-156 0 -291 -110.5 t-264 -375t-129 -557.5zM841 1870q0 39 50 39h61q55 0 81 -70t66.5 -106.5t124.5 -57.5l-10 -35q-150 20 -261.5 89t-111.5 141z" />
<glyph unicode="&#xd3;" horiz-adv-x="1482" d="M72 520q0 383 266 684t602 301q213 0 348 -149.5t135 -384.5q0 -385 -269 -693.5t-607 -308.5q-217 0 -346 149.5t-129 401.5zM256 403q0 -55 10 -94q20 -133 95 -209.5t186 -76.5q305 0 460.5 314t199.5 472t44 276q0 168 -84 264.5t-227 96.5q-156 0 -291 -110.5 t-264 -375t-129 -557.5zM868 1640v35q84 23 127 62t78 127q18 47 64 47h51q61 0 61 -43q0 -68 -113.5 -136.5t-267.5 -91.5z" />
<glyph unicode="&#xd4;" horiz-adv-x="1482" d="M72 520q0 383 266 684t602 301q213 0 348 -149.5t135 -384.5q0 -385 -269 -693.5t-607 -308.5q-217 0 -346 149.5t-129 401.5zM256 403q0 -55 10 -94q20 -133 95 -209.5t186 -76.5q305 0 460.5 314t199.5 472t44 276q0 168 -84 264.5t-227 96.5q-156 0 -291 -110.5 t-264 -375t-129 -557.5zM686 1642v35q45 18 69.5 32.5t50.5 37t36 41t27.5 60.5t31.5 53.5t43 11.5h66q31 0 43 -8.5t28.5 -54.5t52 -87t62.5 -56t78 -30l-12 -35q-123 20 -172.5 43t-118.5 91q-78 -61 -133.5 -87t-151.5 -47z" />
<glyph unicode="&#xd5;" horiz-adv-x="1482" d="M72 520q0 383 266 684t602 301q213 0 348 -149.5t135 -384.5q0 -385 -269 -693.5t-607 -308.5q-217 0 -346 149.5t-129 401.5zM256 403q0 -55 10 -94q20 -133 95 -209.5t186 -76.5q305 0 460.5 314t199.5 472t44 276q0 168 -84 264.5t-227 96.5q-156 0 -291 -110.5 t-264 -375t-129 -557.5zM698 1636l29 84q53 135 157 135q35 0 69 -12t114 -51l69 -33q47 -20 70 -20q33 0 55.5 22.5t46.5 77.5h43q-55 -201 -180 -201q-29 0 -83 18.5t-107.5 44t-79 36t-43.5 10.5q-39 0 -63.5 -22.5t-57.5 -88.5h-39z" />
<glyph unicode="&#xd6;" horiz-adv-x="1482" d="M72 520q0 383 266 684t602 301q213 0 348 -149.5t135 -384.5q0 -385 -269 -693.5t-607 -308.5q-217 0 -346 149.5t-129 401.5zM256 403q0 -55 10 -94q20 -133 95 -209.5t186 -76.5q305 0 460.5 314t199.5 472t44 276q0 168 -84 264.5t-227 96.5q-156 0 -291 -110.5 t-264 -375t-129 -557.5zM371 1675q0 43 28.5 72t73.5 29q41 0 69.5 -29t28.5 -74q0 -43 -30.5 -71.5t-75.5 -28.5q-41 0 -67.5 28.5t-26.5 73.5zM1262 1671q0 43 28.5 74t71.5 31q41 0 71.5 -31t30.5 -74t-31.5 -72.5t-74.5 -29.5q-39 0 -67.5 30.5t-28.5 71.5z" />
<glyph unicode="&#xd8;" horiz-adv-x="1478" d="M-80 31l211 198q-43 88 -57.5 143.5t-14.5 145.5q0 385 267.5 687t605.5 302q117 0 191.5 -32.5t176.5 -133.5l193 179l72 -80l-207 -191q35 -72 45 -120t10 -144q0 -397 -266 -706.5t-610 -309.5q-125 0 -193 31t-160 133l-194 -186zM248 416l2 -62l962 906 q-55 109 -110 144.5t-166 35.5q-311 0 -455.5 -284t-188.5 -443.5t-44 -296.5zM276 229q47 -115 104.5 -159.5t156.5 -44.5q223 0 350 174t187.5 291.5t84 191.5t39.5 138.5t31 133.5l20 117v12l-2 58z" />
<glyph unicode="&#xd9;" horiz-adv-x="1398" d="M131 289q0 72 41 203l248 811l16 43l2 18q0 59 -76 59l-51 -2h-47l15 56h606l-15 -56h-30l-64 2q-127 0 -164 -120l-276 -902q-8 -33 -18.5 -73.5t-10.5 -69.5q0 -104 75 -166.5t196 -62.5q301 0 399 319l260 848l20 59q4 8 7.5 25.5t3.5 40.5q0 57 -30 78.5t-108 21.5 h-28l18 56h482l-17 -56h-31q-123 0 -168 -55q-6 -4 -16 -21.5t-25.5 -46t-27.5 -57.5t-25 -63l-258 -848q-113 -367 -473 -367q-193 0 -311.5 90t-118.5 236zM798 1870q0 39 50 39h61q55 0 81 -70t66.5 -106.5t124.5 -57.5l-10 -35q-150 20 -261.5 89t-111.5 141z" />
<glyph unicode="&#xda;" horiz-adv-x="1398" d="M131 289q0 72 41 203l248 811l16 43l2 18q0 59 -76 59l-51 -2h-47l15 56h606l-15 -56h-30l-64 2q-127 0 -164 -120l-276 -902q-8 -33 -18.5 -73.5t-10.5 -69.5q0 -104 75 -166.5t196 -62.5q301 0 399 319l260 848l20 59q4 8 7.5 25.5t3.5 40.5q0 57 -30 78.5t-108 21.5 h-28l18 56h482l-17 -56h-31q-123 0 -168 -55q-6 -4 -16 -21.5t-25.5 -46t-27.5 -57.5t-25 -63l-258 -848q-113 -367 -473 -367q-193 0 -311.5 90t-118.5 236zM827 1640v35q84 23 127 62t78 127q18 47 64 47h51q61 0 61 -43q0 -68 -113.5 -136.5t-267.5 -91.5z" />
<glyph unicode="&#xdb;" horiz-adv-x="1398" d="M131 289q0 72 41 203l248 811l16 43l2 18q0 59 -76 59l-51 -2h-47l15 56h606l-15 -56h-30l-64 2q-127 0 -164 -120l-276 -902q-8 -33 -18.5 -73.5t-10.5 -69.5q0 -104 75 -166.5t196 -62.5q301 0 399 319l260 848l20 59q4 8 7.5 25.5t3.5 40.5q0 57 -30 78.5t-108 21.5 h-28l18 56h482l-17 -56h-31q-123 0 -168 -55q-6 -4 -16 -21.5t-25.5 -46t-27.5 -57.5t-25 -63l-258 -848q-113 -367 -473 -367q-193 0 -311.5 90t-118.5 236zM643 1642v35q45 18 69.5 32.5t50.5 37t36 41t27.5 60.5t31.5 53.5t43 11.5h66q31 0 43 -8.5t28.5 -54.5t52 -87 t62.5 -56t78 -30l-12 -35q-123 20 -172.5 43t-118.5 91q-78 -61 -133.5 -87t-151.5 -47z" />
<glyph unicode="&#xdc;" horiz-adv-x="1398" d="M131 289q0 72 41 203l248 811l16 43l2 18q0 59 -76 59l-51 -2h-47l15 56h606l-15 -56h-30l-64 2q-127 0 -164 -120l-276 -902q-8 -33 -18.5 -73.5t-10.5 -69.5q0 -104 75 -166.5t196 -62.5q301 0 399 319l260 848l20 59q4 8 7.5 25.5t3.5 40.5q0 57 -30 78.5t-108 21.5 h-28l18 56h482l-17 -56h-31q-123 0 -168 -55q-6 -4 -16 -21.5t-25.5 -46t-27.5 -57.5t-25 -63l-258 -848q-113 -367 -473 -367q-193 0 -311.5 90t-118.5 236zM709 1677q0 41 30.5 72t71.5 31t68.5 -30t27.5 -73t-29.5 -72.5t-74.5 -29.5q-41 0 -67.5 28.5t-26.5 73.5z M1157 1675q0 43 29 74t74 31q39 0 69.5 -31t30.5 -74t-31 -71.5t-76 -28.5q-41 0 -68.5 29.5t-27.5 70.5z" />
<glyph unicode="&#xdf;" horiz-adv-x="1136" d="M-57 0l303 989q8 31 24.5 70t56.5 123t159.5 202.5t332.5 118.5q141 0 226 -68.5t85 -183.5q0 -51 -18 -102t-60 -100.5t-120 -95.5t-139.5 -66.5t-163.5 -20.5q104 -31 155.5 -61.5t114 -112.5t62.5 -233q0 -201 -128 -347.5t-307 -146.5q-98 0 -160.5 60.5t-62.5 156.5 q0 84 31 154t56.5 111.5t43.5 72.5l45 -16q-63 -102 -96 -173t-33 -141t38 -113.5t101 -43.5q119 0 209 149.5t90 352.5q0 160 -62 216t-106.5 73.5t-121.5 25.5l14 43l96 6q166 18 233.5 114.5t92 165t24.5 119.5q0 70 -37.5 112t-103.5 42q-98 0 -175 -73.5t-109.5 -130 t-68.5 -136.5t-52 -133l-299 -979h-170z" />
<glyph unicode="&#xe0;" horiz-adv-x="1265" d="M-12 301q0 106 41 229t126 252t214 215t256 86q27 0 56.5 -7t68 -26.5t60 -47t44.5 -89.5l37 123h172l-236 -770l-20 -67q-18 -43 -19 -84q0 -94 80 -95q68 0 135.5 90.5t122.5 249.5h50l-25 -69q-37 -102 -117 -216t-209 -114q-164 0 -190 199q-31 -45 -50.5 -64.5 t-64.5 -56.5t-100 -57.5t-119 -20.5q-145 0 -229 90t-84 250zM145 215q0 -92 47.5 -145.5t131.5 -53.5q74 0 144.5 39t113.5 103.5t70.5 131t76.5 222.5l37 123q27 90 38 140t11 81q0 74 -47 125t-119 51q-174 0 -293.5 -221t-165 -360.5t-45.5 -235.5zM589 1399q0 39 50 39 h61q55 0 81 -70t66.5 -106.5t124.5 -57.5l-10 -35q-150 20 -261.5 89t-111.5 141z" />
<glyph unicode="&#xe1;" horiz-adv-x="1265" d="M-12 301q0 106 41 229t126 252t214 215t256 86q27 0 56.5 -7t68 -26.5t60 -47t44.5 -89.5l37 123h172l-236 -770l-20 -67q-18 -43 -19 -84q0 -94 80 -95q68 0 135.5 90.5t122.5 249.5h50l-25 -69q-37 -102 -117 -216t-209 -114q-164 0 -190 199q-31 -45 -50.5 -64.5 t-64.5 -56.5t-100 -57.5t-119 -20.5q-145 0 -229 90t-84 250zM145 215q0 -92 47.5 -145.5t131.5 -53.5q74 0 144.5 39t113.5 103.5t70.5 131t76.5 222.5l37 123q27 90 38 140t11 81q0 74 -47 125t-119 51q-174 0 -293.5 -221t-165 -360.5t-45.5 -235.5zM616 1169v35 q84 23 127 62t78 127q18 47 64 47h51q61 0 61 -43q0 -68 -113.5 -136.5t-267.5 -91.5z" />
<glyph unicode="&#xe2;" horiz-adv-x="1265" d="M-12 301q0 106 41 229t126 252t214 215t256 86q27 0 56.5 -7t68 -26.5t60 -47t44.5 -89.5l37 123h172l-236 -770l-20 -67q-18 -43 -19 -84q0 -94 80 -95q68 0 135.5 90.5t122.5 249.5h50l-25 -69q-37 -102 -117 -216t-209 -114q-164 0 -190 199q-31 -45 -50.5 -64.5 t-64.5 -56.5t-100 -57.5t-119 -20.5q-145 0 -229 90t-84 250zM145 215q0 -92 47.5 -145.5t131.5 -53.5q74 0 144.5 39t113.5 103.5t70.5 131t76.5 222.5l37 123q27 90 38 140t11 81q0 74 -47 125t-119 51q-174 0 -293.5 -221t-165 -360.5t-45.5 -235.5zM434 1171v35 q45 18 69.5 32.5t50.5 37t36 41t27.5 60.5t31.5 53.5t43 11.5h66q31 0 43 -8.5t28.5 -54.5t52 -87t62.5 -56t78 -30l-12 -35q-123 20 -172.5 43t-118.5 91q-78 -61 -133.5 -87t-151.5 -47z" />
<glyph unicode="&#xe3;" horiz-adv-x="1265" d="M-12 301q0 106 41 229t126 252t214 215t256 86q27 0 56.5 -7t68 -26.5t60 -47t44.5 -89.5l37 123h172l-236 -770l-20 -67q-18 -43 -19 -84q0 -94 80 -95q68 0 135.5 90.5t122.5 249.5h50l-25 -69q-37 -102 -117 -216t-209 -114q-164 0 -190 199q-31 -45 -50.5 -64.5 t-64.5 -56.5t-100 -57.5t-119 -20.5q-145 0 -229 90t-84 250zM145 215q0 -92 47.5 -145.5t131.5 -53.5q74 0 144.5 39t113.5 103.5t70.5 131t76.5 222.5l37 123q27 90 38 140t11 81q0 74 -47 125t-119 51q-174 0 -293.5 -221t-165 -360.5t-45.5 -235.5zM446 1165l29 84 q53 135 157 135q35 0 69 -12t114 -51l69 -33q47 -20 70 -20q33 0 55.5 22.5t46.5 77.5h43q-55 -201 -180 -201q-29 0 -83 18.5t-107.5 44t-79 36t-43.5 10.5q-39 0 -63.5 -22.5t-57.5 -88.5h-39z" />
<glyph unicode="&#xe4;" horiz-adv-x="1265" d="M-12 301q0 106 41 229t126 252t214 215t256 86q27 0 56.5 -7t68 -26.5t60 -47t44.5 -89.5l37 123h172l-236 -770l-20 -67q-18 -43 -19 -84q0 -94 80 -95q68 0 135.5 90.5t122.5 249.5h50l-25 -69q-37 -102 -117 -216t-209 -114q-164 0 -190 199q-31 -45 -50.5 -64.5 t-64.5 -56.5t-100 -57.5t-119 -20.5q-145 0 -229 90t-84 250zM145 215q0 -92 47.5 -145.5t131.5 -53.5q74 0 144.5 39t113.5 103.5t70.5 131t76.5 222.5l37 123q27 90 38 140t11 81q0 74 -47 125t-119 51q-174 0 -293.5 -221t-165 -360.5t-45.5 -235.5zM479 1278 q0 43 30 74.5t69 31.5q47 0 79.5 -30.5t32.5 -77.5q0 -43 -32.5 -74t-77.5 -31q-43 0 -72 31t-29 76zM852 1276q0 45 32 76.5t79 31.5q43 0 72.5 -31.5t29.5 -74.5t-29.5 -75t-74.5 -32q-43 0 -76 31t-33 74z" />
<glyph unicode="&#xe5;" horiz-adv-x="1267" d="M-12 301q0 106 41 229t126 252t214 215t256 86q27 0 56.5 -7t68 -26.5t60 -47t44.5 -89.5l37 123h172l-236 -770l-20 -67q-18 -43 -19 -84q0 -94 80 -95q68 0 135.5 90.5t122.5 249.5h50l-25 -69q-37 -102 -117 -216t-209 -114q-164 0 -190 199q-31 -45 -50.5 -64.5 t-64.5 -56.5t-100 -57.5t-119 -20.5q-145 0 -229 90t-84 250zM145 215q0 -92 47.5 -145.5t131.5 -53.5q74 0 144.5 39t113.5 103.5t70.5 131t76.5 222.5l37 123q27 90 38 140t11 81q0 74 -47 125t-119 51q-174 0 -293.5 -221t-165 -360.5t-45.5 -235.5zM618 1337 q0 66 47 111t117 45q63 0 108.5 -45t45.5 -113t-46 -116t-114 -48t-113 47.5t-45 118.5zM682 1337q0 -43 26.5 -71.5t67.5 -28.5q37 0 65.5 28.5t28.5 69.5q0 39 -26.5 65.5t-67.5 26.5q-39 0 -66.5 -25.5t-27.5 -64.5z" />
<glyph unicode="&#xe6;" horiz-adv-x="1646" d="M-16 311q0 98 38.5 214t181 333t412.5 217q57 0 105.5 -17.5t75 -48t53.5 -100.5l39 127h166l-33 -104l63 53q106 88 250 88q109 0 177.5 -57.5t68.5 -149.5q0 -166 -126 -235.5t-167 -88t-94 -34.5t-142 -34.5t-153 -29.5l-25 -84q-25 -86 -24 -145q0 -92 51 -147.5 t139 -55.5q102 0 206 89t184 247h47q-102 -203 -211 -292t-252 -89q-168 0 -226.5 74t-70.5 113t-23 116q-25 -49 -49 -92t-74.5 -96t-122 -84t-155.5 -31q-143 0 -226 93.5t-83 250.5zM143 197q0 -80 50.5 -130.5t128.5 -50.5q113 0 209 91t143 243l53 170q8 37 24.5 82 t30.5 84q33 109 33 168q0 70 -52 124t-118 54q-92 0 -170 -75.5t-161 -236.5t-127 -298t-44 -225zM911 492q96 16 144.5 29.5t146.5 57.5t148.5 110.5t73 123.5t22.5 92q0 55 -34 91t-83 36q-68 0 -132 -46t-109.5 -119.5t-76 -135t-57.5 -129.5z" />
<glyph unicode="&#xe7;" horiz-adv-x="935" d="M-2 295q0 133 60.5 283.5t201.5 322.5t361 172q104 0 170.5 -62.5t66.5 -162.5q0 -82 -43 -137.5t-108 -55.5q-47 0 -78 27t-31 72q0 33 23.5 60.5t54.5 29.5l45 2q70 6 70 63q0 47 -45.5 82t-106.5 35q-74 0 -143.5 -51t-142 -176t-136 -304.5t-63.5 -277.5 q0 -94 49 -149.5t135 -55.5q111 0 210 89t181 259h45q-94 -205 -207.5 -302t-257.5 -97l-33 2l-18 -45q154 0 154 -106q0 -63 -55.5 -100.5t-153.5 -37.5q-39 0 -57.5 2t-65.5 15l10 37q33 -8 47.5 -10.5t32.5 -2.5q59 0 102 20.5t43 49.5q0 49 -79 49l-50 -4l43 139 q-14 4 -31.5 9.5t-63.5 26t-91 104.5t-45 186z" />
<glyph unicode="&#xe8;" horiz-adv-x="935" d="M-12 295q0 90 39 208t120.5 255t211.5 227t266 90q106 0 175.5 -59.5t69.5 -149.5q0 -156 -178 -268.5t-495 -153.5q-27 -80 -39.5 -139t-12.5 -96q0 -92 51.5 -145.5t137.5 -53.5q113 0 215 88t178 250h47q-176 -387 -465 -387q-145 0 -233 90t-88 244zM211 494 q229 27 376.5 141.5t147.5 265.5q0 57 -30.5 94t-77.5 37q-158 0 -245 -166t-107.5 -212.5t-63.5 -159.5zM423 1399q0 39 50 39h61q55 0 81 -70t66.5 -106.5t124.5 -57.5l-10 -35q-150 20 -261.5 89t-111.5 141z" />
<glyph unicode="&#xe9;" horiz-adv-x="935" d="M-12 295q0 90 39 208t120.5 255t211.5 227t266 90q106 0 175.5 -59.5t69.5 -149.5q0 -156 -178 -268.5t-495 -153.5q-27 -80 -39.5 -139t-12.5 -96q0 -92 51.5 -145.5t137.5 -53.5q113 0 215 88t178 250h47q-176 -387 -465 -387q-145 0 -233 90t-88 244zM211 494 q229 27 376.5 141.5t147.5 265.5q0 57 -30.5 94t-77.5 37q-158 0 -245 -166t-107.5 -212.5t-63.5 -159.5zM452 1169v35q84 23 127 62t78 127q18 47 64 47h51q61 0 61 -43q0 -68 -113.5 -136.5t-267.5 -91.5z" />
<glyph unicode="&#xea;" horiz-adv-x="935" d="M-12 295q0 90 39 208t120.5 255t211.5 227t266 90q106 0 175.5 -59.5t69.5 -149.5q0 -156 -178 -268.5t-495 -153.5q-27 -80 -39.5 -139t-12.5 -96q0 -92 51.5 -145.5t137.5 -53.5q113 0 215 88t178 250h47q-176 -387 -465 -387q-145 0 -233 90t-88 244zM211 494 q229 27 376.5 141.5t147.5 265.5q0 57 -30.5 94t-77.5 37q-158 0 -245 -166t-107.5 -212.5t-63.5 -159.5zM268 1171v35q45 18 69.5 32.5t50.5 37t36 41t27.5 60.5t31.5 53.5t43 11.5h66q31 0 43 -8.5t28.5 -54.5t52 -87t62.5 -56t78 -30l-12 -35q-123 20 -172.5 43 t-118.5 91q-78 -61 -133.5 -87t-151.5 -47z" />
<glyph unicode="&#xeb;" horiz-adv-x="935" d="M-12 295q0 90 39 208t120.5 255t211.5 227t266 90q106 0 175.5 -59.5t69.5 -149.5q0 -156 -178 -268.5t-495 -153.5q-27 -80 -39.5 -139t-12.5 -96q0 -92 51.5 -145.5t137.5 -53.5q113 0 215 88t178 250h47q-176 -387 -465 -387q-145 0 -233 90t-88 244zM211 494 q229 27 376.5 141.5t147.5 265.5q0 57 -30.5 94t-77.5 37q-158 0 -245 -166t-107.5 -212.5t-63.5 -159.5zM313 1276q0 43 29.5 74.5t70.5 31.5q49 0 82 -30.5t33 -77.5q0 -43 -31.5 -75t-78.5 -32q-45 0 -75 32t-30 77zM684 1274q0 45 34 76.5t83 31.5q43 0 71.5 -30.5 t28.5 -75.5q0 -43 -31 -76t-74 -33q-47 0 -79.5 31t-32.5 76z" />
<glyph unicode="&#xec;" horiz-adv-x="724" d="M-59 639q127 438 381 438q84 0 143 -61.5t59 -151.5q0 -41 -12 -88q-20 -59 -45 -117.5t-53 -115.5l-37 -78l-74 -146q-39 -80 -53 -123.5t-14 -80.5q0 -41 23.5 -69t62.5 -28q84 0 157.5 88.5t126.5 253.5h49q-61 -190 -152 -294.5t-200 -104.5q-84 0 -143.5 61.5 t-59.5 149.5q0 96 52 211q20 51 42.5 97t71.5 141l56 118q55 127 55 185q0 96 -94 96q-86 0 -167 -103.5t-126 -277.5h-49zM319 1399q0 39 50 39h61q55 0 81 -70t66.5 -106.5t124.5 -57.5l-10 -35q-150 20 -261.5 89t-111.5 141z" />
<glyph unicode="&#xed;" horiz-adv-x="724" d="M-59 639q127 438 381 438q84 0 143 -61.5t59 -151.5q0 -41 -12 -88q-20 -59 -45 -117.5t-53 -115.5l-37 -78l-74 -146q-39 -80 -53 -123.5t-14 -80.5q0 -41 23.5 -69t62.5 -28q84 0 157.5 88.5t126.5 253.5h49q-61 -190 -152 -294.5t-200 -104.5q-84 0 -143.5 61.5 t-59.5 149.5q0 96 52 211q20 51 42.5 97t71.5 141l56 118q55 127 55 185q0 96 -94 96q-86 0 -167 -103.5t-126 -277.5h-49zM346 1169v35q84 23 127 62t78 127q18 47 64 47h51q61 0 61 -43q0 -68 -113.5 -136.5t-267.5 -91.5z" />
<glyph unicode="&#xee;" horiz-adv-x="724" d="M-59 639q127 438 381 438q84 0 143 -61.5t59 -151.5q0 -41 -12 -88q-20 -59 -45 -117.5t-53 -115.5l-37 -78l-74 -146q-39 -80 -53 -123.5t-14 -80.5q0 -41 23.5 -69t62.5 -28q84 0 157.5 88.5t126.5 253.5h49q-61 -190 -152 -294.5t-200 -104.5q-84 0 -143.5 61.5 t-59.5 149.5q0 96 52 211q20 51 42.5 97t71.5 141l56 118q55 127 55 185q0 96 -94 96q-86 0 -167 -103.5t-126 -277.5h-49zM164 1171v35q45 18 69.5 32.5t50.5 37t36 41t27.5 60.5t31.5 53.5t43 11.5h66q31 0 43 -8.5t28.5 -54.5t52 -87t62.5 -56t78 -30l-12 -35 q-123 20 -172.5 43t-118.5 91q-78 -61 -133.5 -87t-151.5 -47z" />
<glyph unicode="&#xef;" horiz-adv-x="724" d="M-59 639q127 438 381 438q84 0 143 -61.5t59 -151.5q0 -41 -12 -88q-20 -59 -45 -117.5t-53 -115.5l-37 -78l-74 -146q-39 -80 -53 -123.5t-14 -80.5q0 -41 23.5 -69t62.5 -28q84 0 157.5 88.5t126.5 253.5h49q-61 -190 -152 -294.5t-200 -104.5q-84 0 -143.5 61.5 t-59.5 149.5q0 96 52 211q20 51 42.5 97t71.5 141l56 118q55 127 55 185q0 96 -94 96q-86 0 -167 -103.5t-126 -277.5h-49zM207 1276q0 43 29.5 74.5t70.5 31.5q49 0 82 -30.5t33 -77.5q0 -43 -31.5 -75t-78.5 -32q-45 0 -75 32t-30 77zM578 1274q0 45 34 76.5t83 31.5 q43 0 71.5 -30.5t28.5 -75.5q0 -43 -31 -76t-74 -33q-47 0 -79.5 31t-32.5 76z" />
<glyph unicode="&#xf1;" horiz-adv-x="1339" d="M-53 643q39 190 143.5 311t231.5 121q80 0 129 -47t49 -127q0 -31 -6.5 -68.5t-24.5 -105.5q115 180 218.5 263t209.5 83q90 0 145.5 -57.5t55.5 -147.5q0 -53 -35 -156.5t-88 -213.5l-43 -82l-60 -121q-23 -49 -39 -100.5t-16 -75.5q0 -43 24.5 -72t63.5 -29 q80 0 160 96.5t125 245.5h45q-53 -186 -147.5 -290.5t-206.5 -104.5q-94 0 -146.5 60.5t-52.5 167.5q0 59 16.5 115.5t38 104.5t88.5 179l58 115q43 80 62.5 132t19.5 85q0 43 -27 69.5t-70 26.5q-70 0 -148.5 -60.5t-127.5 -129t-68.5 -99.5t-50.5 -88l-63 -141l-37 -101 l-125 -401h-168l256 840l22 63l4 33q0 35 -22.5 57.5t-56.5 22.5q-84 0 -167 -106.5t-124 -266.5h-45zM483 1165l29 84q53 135 157 135q35 0 69 -12t114 -51l69 -33q47 -20 70 -20q33 0 55.5 22.5t46.5 77.5h43q-55 -201 -180 -201q-29 0 -83 18.5t-107.5 44t-79 36 t-43.5 10.5q-39 0 -63.5 -22.5t-57.5 -88.5h-39z" />
<glyph unicode="&#xf2;" horiz-adv-x="1146" d="M12 350q0 281 192.5 506t430.5 225q166 0 265 -107.5t99 -289.5q0 -283 -188 -502t-432 -219q-166 0 -266.5 104.5t-100.5 282.5zM168 244q0 -109 55.5 -172.5t151.5 -63.5q193 0 298 226.5t139 354.5t34 206q0 106 -55.5 171.5t-147.5 65.5q-207 0 -304 -220t-134 -355 t-37 -213zM530 1399q0 39 50 39h61q55 0 81 -70t66.5 -106.5t124.5 -57.5l-10 -35q-150 20 -261.5 89t-111.5 141z" />
<glyph unicode="&#xf3;" horiz-adv-x="1146" d="M12 350q0 281 192.5 506t430.5 225q166 0 265 -107.5t99 -289.5q0 -283 -188 -502t-432 -219q-166 0 -266.5 104.5t-100.5 282.5zM168 244q0 -109 55.5 -172.5t151.5 -63.5q193 0 298 226.5t139 354.5t34 206q0 106 -55.5 171.5t-147.5 65.5q-207 0 -304 -220t-134 -355 t-37 -213zM557 1169v35q84 23 127 62t78 127q18 47 64 47h51q61 0 61 -43q0 -68 -113.5 -136.5t-267.5 -91.5z" />
<glyph unicode="&#xf4;" horiz-adv-x="1146" d="M12 350q0 281 192.5 506t430.5 225q166 0 265 -107.5t99 -289.5q0 -283 -188 -502t-432 -219q-166 0 -266.5 104.5t-100.5 282.5zM168 244q0 -109 55.5 -172.5t151.5 -63.5q193 0 298 226.5t139 354.5t34 206q0 106 -55.5 171.5t-147.5 65.5q-207 0 -304 -220t-134 -355 t-37 -213zM375 1171v35q45 18 69.5 32.5t50.5 37t36 41t27.5 60.5t31.5 53.5t43 11.5h66q31 0 43 -8.5t28.5 -54.5t52 -87t62.5 -56t78 -30l-12 -35q-123 20 -172.5 43t-118.5 91q-78 -61 -133.5 -87t-151.5 -47z" />
<glyph unicode="&#xf5;" horiz-adv-x="1146" d="M12 350q0 281 192.5 506t430.5 225q166 0 265 -107.5t99 -289.5q0 -283 -188 -502t-432 -219q-166 0 -266.5 104.5t-100.5 282.5zM168 244q0 -109 55.5 -172.5t151.5 -63.5q193 0 298 226.5t139 354.5t34 206q0 106 -55.5 171.5t-147.5 65.5q-207 0 -304 -220t-134 -355 t-37 -213zM387 1165l29 84q53 135 157 135q35 0 69 -12t114 -51l69 -33q47 -20 70 -20q33 0 55.5 22.5t46.5 77.5h43q-55 -201 -180 -201q-29 0 -83 18.5t-107.5 44t-79 36t-43.5 10.5q-39 0 -63.5 -22.5t-57.5 -88.5h-39z" />
<glyph unicode="&#xf6;" horiz-adv-x="1140" d="M12 350q0 281 192.5 506t430.5 225q166 0 265 -107.5t99 -289.5q0 -283 -188 -502t-432 -219q-166 0 -266.5 104.5t-100.5 282.5zM168 244q0 -109 55.5 -172.5t151.5 -63.5q193 0 298 226.5t139 354.5t34 206q0 106 -55.5 171.5t-147.5 65.5q-207 0 -304 -220t-134 -355 t-37 -213zM442 1278q0 43 30 74.5t71 31.5q47 0 79.5 -30.5t32.5 -77.5q0 -45 -31.5 -75t-76.5 -30q-43 0 -74 31t-31 76zM817 1276q0 45 31 75.5t80 30.5q41 0 71.5 -30.5t30.5 -73.5t-29.5 -75t-74.5 -32q-43 0 -76 31t-33 74z" />
<glyph unicode="&#xf7;" horiz-adv-x="1216" d="M88 414v139h948v-139h-948zM446 207q0 49 36 83t81 34q49 0 82 -33t33 -84q0 -49 -35 -82q-31 -35 -80 -35t-83 36t-34 81zM446 758q0 49 36 82.5t81 33.5q49 0 82 -34.5t33 -81.5q0 -49 -35 -82q-31 -35 -80 -35t-83 34t-34 83z" />
<glyph unicode="&#xf8;" horiz-adv-x="1163" d="M-78 31l137 137q-49 141 -49 199q0 72 33 176t104.5 230t208 217t289.5 91q80 0 132 -20.5t136 -83.5l164 151l43 -71l-155 -146l6 -37q33 -207 33 -231q0 -74 -34 -175t-105.5 -221t-200.5 -202t-277 -82q-104 0 -155.5 22.5t-131.5 108.5l-123 -123zM186 281l650 628 q-29 63 -68 88t-113 25q-121 0 -201.5 -99.5t-112.5 -158.5t-60.5 -141l-57 -164t-33.5 -123zM193 174q14 -82 57 -119t125 -37q92 0 176 66t122 143.5t54 114.5t49 121t39 121l31 176l16 63z" />
<glyph unicode="&#xf9;" horiz-adv-x="1306" d="M-59 637q132 436 374 436q88 0 145.5 -61.5t57.5 -159.5q0 -63 -22.5 -131t-38 -103.5t-60.5 -123.5l-78 -148q-12 -23 -31.5 -63.5t-35.5 -86.5t-16 -77q0 -43 26.5 -72t69.5 -29q129 0 277.5 199t236.5 494l100 325h168l-244 -798l-20 -50l-10 -49l-2 -37 q0 -35 22.5 -57t57.5 -22q137 0 258 333h49q-137 -391 -346 -391q-178 0 -179 193q0 37 4.5 69.5t16.5 87.5q-33 -55 -53.5 -85.5t-111.5 -146.5t-257 -116q-86 0 -141.5 59.5t-55.5 149.5q0 72 31 152t58.5 138t48.5 105l71 154q63 125 64 184q0 109 -90 109 q-88 0 -164 -98.5t-133 -282.5h-47zM610 1399q0 39 50 39h61q55 0 81 -70t66.5 -106.5t124.5 -57.5l-10 -35q-150 20 -261.5 89t-111.5 141z" />
<glyph unicode="&#xfa;" horiz-adv-x="1306" d="M-59 637q132 436 374 436q88 0 145.5 -61.5t57.5 -159.5q0 -63 -22.5 -131t-38 -103.5t-60.5 -123.5l-78 -148q-12 -23 -31.5 -63.5t-35.5 -86.5t-16 -77q0 -43 26.5 -72t69.5 -29q129 0 277.5 199t236.5 494l100 325h168l-244 -798l-20 -50l-10 -49l-2 -37 q0 -35 22.5 -57t57.5 -22q137 0 258 333h49q-137 -391 -346 -391q-178 0 -179 193q0 37 4.5 69.5t16.5 87.5q-33 -55 -53.5 -85.5t-111.5 -146.5t-257 -116q-86 0 -141.5 59.5t-55.5 149.5q0 72 31 152t58.5 138t48.5 105l71 154q63 125 64 184q0 109 -90 109 q-88 0 -164 -98.5t-133 -282.5h-47zM636 1169v35q84 23 127 62t78 127q18 47 64 47h51q61 0 61 -43q0 -68 -113.5 -136.5t-267.5 -91.5z" />
<glyph unicode="&#xfb;" horiz-adv-x="1306" d="M-59 637q132 436 374 436q88 0 145.5 -61.5t57.5 -159.5q0 -63 -22.5 -131t-38 -103.5t-60.5 -123.5l-78 -148q-12 -23 -31.5 -63.5t-35.5 -86.5t-16 -77q0 -43 26.5 -72t69.5 -29q129 0 277.5 199t236.5 494l100 325h168l-244 -798l-20 -50l-10 -49l-2 -37 q0 -35 22.5 -57t57.5 -22q137 0 258 333h49q-137 -391 -346 -391q-178 0 -179 193q0 37 4.5 69.5t16.5 87.5q-33 -55 -53.5 -85.5t-111.5 -146.5t-257 -116q-86 0 -141.5 59.5t-55.5 149.5q0 72 31 152t58.5 138t48.5 105l71 154q63 125 64 184q0 109 -90 109 q-88 0 -164 -98.5t-133 -282.5h-47zM455 1171v35q45 18 69.5 32.5t50.5 37t36 41t27.5 60.5t31.5 53.5t43 11.5h66q31 0 43 -8.5t28.5 -54.5t52 -87t62.5 -56t78 -30l-12 -35q-123 20 -172.5 43t-118.5 91q-78 -61 -133.5 -87t-151.5 -47z" />
<glyph unicode="&#xfc;" horiz-adv-x="1306" d="M-59 637q132 436 374 436q88 0 145.5 -61.5t57.5 -159.5q0 -63 -22.5 -131t-38 -103.5t-60.5 -123.5l-78 -148q-12 -23 -31.5 -63.5t-35.5 -86.5t-16 -77q0 -43 26.5 -72t69.5 -29q129 0 277.5 199t236.5 494l100 325h168l-244 -798l-20 -50l-10 -49l-2 -37 q0 -35 22.5 -57t57.5 -22q137 0 258 333h49q-137 -391 -346 -391q-178 0 -179 193q0 37 4.5 69.5t16.5 87.5q-33 -55 -53.5 -85.5t-111.5 -146.5t-257 -116q-86 0 -141.5 59.5t-55.5 149.5q0 72 31 152t58.5 138t48.5 105l71 154q63 125 64 184q0 109 -90 109 q-88 0 -164 -98.5t-133 -282.5h-47zM467 1278q0 43 29.5 74.5t70.5 31.5q47 0 80 -30.5t33 -77.5q0 -45 -32 -75t-77 -30q-43 0 -73.5 31t-30.5 76zM842 1276q0 45 33.5 76.5t78.5 31.5q43 0 73 -31.5t30 -74.5q0 -41 -31 -74t-74 -33q-45 0 -77.5 31t-32.5 74z" />
<glyph unicode="&#xff;" horiz-adv-x="1148" d="M-72 637q133 438 375 438q88 0 146.5 -60.5t58.5 -152.5q0 -78 -32 -158.5t-54.5 -129t-67.5 -138.5l-65 -131q-66 -123 -66 -186q0 -47 26.5 -74t72.5 -27q121 0 270 197t231 461l111 360h168l-285 -936q-66 -217 -226.5 -351t-352.5 -134q-129 0 -213 55.5t-84 141.5 q0 53 32.5 87.5t83.5 34.5q45 0 76 -24.5t31 -65.5q0 -45 -43 -71l-31 -21q-10 -10 -10 -26q0 -29 36 -45.5t95 -16.5q160 0 278 139q53 55 83 118t45.5 105t66.5 203l25 82q-115 -182 -212.5 -263t-205.5 -81q-86 0 -145.5 63.5t-59.5 159.5q0 104 84 273l68 131l67 143 q35 72 47.5 110t12.5 71q0 45 -25 73.5t-68 28.5q-80 0 -142 -78t-82.5 -125t-41 -99t-31.5 -81h-47zM420 1276q0 43 29.5 74.5t70.5 31.5q49 0 82 -30.5t33 -77.5q0 -43 -31.5 -75t-78.5 -32q-45 0 -75 32t-30 77zM791 1274q0 45 34 76.5t83 31.5q43 0 71.5 -30.5 t28.5 -75.5q0 -43 -31 -76t-74 -33q-47 0 -79.5 31t-32.5 76z" />
<glyph unicode="&#x152;" horiz-adv-x="2220" d="M66 520q0 387 262 688t600 301q51 0 80.5 -4t48.5 -6l117 -18l114 -4h1014l-176 -576h-60q27 90 35 136t8 102q0 59 -8 96t-38.5 89t-75.5 72.5t-140 20.5h-137q-84 0 -101.5 -16.5t-33.5 -45t-25 -52.5l-157 -515h98q84 0 117.5 8.5t94 53.5t99.5 178l21 62h53 l-215 -709h-62l19 59q25 86 24 150q0 66 -45 102.5t-124 36.5h-107l-160 -528l-22 -62l-2 -10q0 -70 116 -70h181q174 0 266 78t107.5 95.5t48 62.5t57 94t61.5 146h54l-162 -535h-981l-129 -4l-125 -21q-51 -8 -113 -8q-219 0 -358 153.5t-139 399.5zM250 408 q0 -379 321 -379q88 0 171 26.5t139.5 70.5t117.5 134t84 162l172 569q16 53 25.5 99.5t9.5 80.5q0 117 -103.5 198t-252.5 81q-301 0 -446.5 -273.5t-191.5 -442.5t-46 -326z" />
<glyph unicode="&#x153;" horiz-adv-x="1722" d="M35 350q0 285 184 505t424 220q94 0 167 -30.5t109.5 -72.5t65.5 -126q49 57 83 88.5t81 60.5q129 80 252 80q113 0 183.5 -60.5t70.5 -156.5q0 -74 -57.5 -150.5t-153.5 -125.5q-78 -45 -180 -74q-63 -20 -133 -34.5t-156 -27.5q-27 -76 -38 -129t-11 -104 q0 -98 50 -150.5t144 -52.5q106 0 204.5 87t178.5 251h49q-29 -66 -52 -103.5t-83.5 -113.5t-142.5 -121t-180 -45q-74 0 -135.5 23.5t-94.5 59.5t-67 114q-37 -43 -66 -68.5t-112.5 -77t-217.5 -51.5q-174 0 -270 100.5t-96 284.5zM186 221l2 -31q10 -80 63.5 -130 t129.5 -50q211 0 313.5 226.5t130 343t33.5 155.5t6 66q0 106 -55 167.5t-152 61.5q-203 0 -300 -216t-134 -361.5t-37 -231.5zM991 494q137 20 247 69t197 146.5t87 199.5q0 53 -33 88t-86 35q-129 0 -225.5 -147.5t-147.5 -286.5z" />
<glyph unicode="&#x178;" horiz-adv-x="1224" d="M106 0l15 55l37 -2l59 -2q66 0 99.5 27.5t56.5 95.5l143 475l-182 654q-12 45 -20.5 62t-30 37.5t-62.5 20.5l-41 -2h-41l17 56h583l-14 -56h-43l-64 2q-102 0 -102 -67l10 -53l162 -584l379 477q43 53 56.5 78.5t13.5 54.5q0 92 -131 92h-48l19 56h532l-16 -56h-43 q-55 0 -117.5 -33.5t-101.5 -82.5l-47 -58l-473 -594l-146 -479l-14 -43l-4 -18q0 -61 84 -62l53 2l51 2l-18 -55h-611zM600 1747q0 43 29.5 74.5t70.5 31.5q49 0 82 -30.5t33 -77.5q0 -43 -31.5 -75t-78.5 -32q-45 0 -75 32t-30 77zM971 1745q0 45 34 76.5t83 31.5 q43 0 71.5 -30.5t28.5 -75.5q0 -43 -31 -76t-74 -33q-47 0 -79.5 31t-32.5 76z" />
<glyph unicode="&#x2000;" horiz-adv-x="956" />
<glyph unicode="&#x2001;" horiz-adv-x="1913" />
<glyph unicode="&#x2002;" horiz-adv-x="956" />
<glyph unicode="&#x2003;" horiz-adv-x="1913" />
<glyph unicode="&#x2004;" horiz-adv-x="637" />
<glyph unicode="&#x2005;" horiz-adv-x="478" />
<glyph unicode="&#x2006;" horiz-adv-x="318" />
<glyph unicode="&#x2007;" horiz-adv-x="318" />
<glyph unicode="&#x2008;" horiz-adv-x="239" />
<glyph unicode="&#x2009;" horiz-adv-x="382" />
<glyph unicode="&#x200a;" horiz-adv-x="106" />
<glyph unicode="&#x2010;" horiz-adv-x="681" d="M-4 446l43 152l256 -6l262 4l-43 -152q-74 0 -156 4.5t-108 4.5q-70 0 -133.5 -2t-120.5 -5z" />
<glyph unicode="&#x2011;" horiz-adv-x="681" d="M-4 446l43 152l256 -6l262 4l-43 -152q-74 0 -156 4.5t-108 4.5q-70 0 -133.5 -2t-120.5 -5z" />
<glyph unicode="&#x2012;" horiz-adv-x="681" d="M-4 446l43 152l256 -6l262 4l-43 -152q-74 0 -156 4.5t-108 4.5q-70 0 -133.5 -2t-120.5 -5z" />
<glyph unicode="&#x2013;" d="M-6 682l43 141h973l-45 -141h-971z" />
<glyph unicode="&#x2014;" horiz-adv-x="2039" d="M61 662l17 153h1915l-15 -153h-1917z" />
<glyph unicode="&#x2018;" horiz-adv-x="393" d="M190 1114q0 94 116 210t265 169l-16 -55q-176 -80 -176 -213q0 -18 7 -42t11 -42.5t4 -32.5q0 -47 -28.5 -75.5t-75.5 -28.5q-49 0 -78 28.5t-29 81.5z" />
<glyph unicode="&#x2019;" horiz-adv-x="389" d="M117 1004l16 57q176 80 176 213q0 20 -12 57l-14 60q0 41 32.5 71.5t77.5 30.5q47 0 76 -30.5t29 -78.5q0 -96 -116 -211.5t-265 -168.5z" />
<glyph unicode="&#x201a;" horiz-adv-x="401" d="M-289 -291l19 55q176 80 176 213q0 20 -13.5 59.5t-13.5 61.5q0 37 34 69t77 32q47 0 74.5 -30t27.5 -81q0 -94 -115.5 -210t-265.5 -169z" />
<glyph unicode="&#x201c;" horiz-adv-x="714" d="M190 1114q0 94 116 210t265 169l-16 -55q-176 -80 -176 -213q0 -18 7 -42t11 -42.5t4 -32.5q0 -47 -28.5 -75.5t-75.5 -28.5q-49 0 -78 28.5t-29 81.5zM512 1114q0 94 115.5 210t265.5 169l-19 -55q-174 -82 -174 -213q0 -25 10.5 -60t10.5 -57q0 -47 -28.5 -75.5 t-76.5 -28.5q-47 0 -75.5 29.5t-28.5 80.5z" />
<glyph unicode="&#x201d;" horiz-adv-x="708" d="M117 1004l16 57q176 80 176 213q0 20 -12 57l-14 60q0 41 32.5 71.5t77.5 30.5q47 0 76 -30.5t29 -78.5q0 -96 -116 -211.5t-265 -168.5zM436 1004l19 57q174 78 174 213q0 27 -11 57q-16 35 -16 60q0 41 33 71.5t78 30.5q47 0 75.5 -30.5t28.5 -78.5 q0 -96 -115.5 -211.5t-265.5 -168.5z" />
<glyph unicode="&#x201e;" horiz-adv-x="718" d="M-289 -291l19 55q176 80 176 213q0 20 -13.5 59.5t-13.5 61.5q0 37 34 69t77 32q47 0 74.5 -30t27.5 -81q0 -94 -115.5 -210t-265.5 -169zM31 -291l18 55q174 78 174 213q0 27 -9 54.5t-13 41t-4 25.5q0 37 33.5 69t76.5 32q49 0 77 -30t28 -81q0 -94 -116 -210 t-265 -169z" />
<glyph unicode="&#x2022;" horiz-adv-x="473" d="M57 526q0 43 31 74t76 31t75.5 -31t30.5 -76t-31.5 -76.5t-76.5 -31.5t-75 31.5t-30 78.5z" />
<glyph unicode="&#x2026;" horiz-adv-x="2039" d="M213 109q0 55 37 92t92 37t92 -37t37 -92t-37 -92t-92 -37t-92 36.5t-37 92.5zM895 109q0 55 37 92t92 37t92 -37t37 -92t-37 -92t-92 -37t-92 36.5t-37 92.5zM1577 109q0 55 37 92t92 37t92 -37t37 -92t-37 -92t-92 -37t-92 36.5t-37 92.5z" />
<glyph unicode="&#x202f;" horiz-adv-x="382" />
<glyph unicode="&#x2039;" horiz-adv-x="552" d="M12 528l434 484h68l-338 -484l76 -483h-66z" />
<glyph unicode="&#x203a;" horiz-adv-x="573" d="M-76 47l334 483l-76 484h68l172 -484l-430 -483h-68z" />
<glyph unicode="&#x205f;" horiz-adv-x="478" />
<glyph unicode="&#x2122;" horiz-adv-x="1574" d="M264 1372l19 103h444l-18 -103h-166l-129 -635h-115l129 635h-164zM555 737l293 756h61l107 -467l10 -45l2 -6v-39q0 -25 -2 -39q6 27 14.5 46.5t12.5 31.5l28 51l303 467h64l-12 -756h-115l14 430v29l2 12q2 23 4 35t11 37l-33 -72l-14 -28l-7 -9l-286 -450h-39 l-103 450l-2 13l-4 26l-8 70q0 -37 -12 -72l-4 -20l-9 -21l-161 -430h-115z" />
<glyph unicode="&#xe000;" horiz-adv-x="1075" d="M0 0v1075h1075v-1075h-1075z" />
</font>
</defs>
</svg>
