<?xml version="1.0" standalone="no"?>
<!DOCTYPE svg PUBLIC "-//W3C//DTD SVG 1.1//EN" "http://www.w3.org/Graphics/SVG/1.1/DTD/svg11.dtd" >
<svg xmlns="http://www.w3.org/2000/svg">
<metadata></metadata>
<defs>
<font id="cochiseregular" horiz-adv-x="1425" >
<font-face units-per-em="2048" ascent="1638" descent="-410" />
<missing-glyph horiz-adv-x="593" />
<glyph horiz-adv-x="2048" />
<glyph horiz-adv-x="2048" />
<glyph unicode="&#xd;" horiz-adv-x="593" />
<glyph unicode=" "  horiz-adv-x="593" />
<glyph unicode="&#x09;" horiz-adv-x="593" />
<glyph unicode="&#xa0;" horiz-adv-x="593" />
<glyph unicode="!" horiz-adv-x="544" d="M133 104q0 76 44.5 136.5t101.5 60.5q49 0 85.5 -51t36.5 -119q0 -23 -4 -48.5t-10 -54t-38 -46t-77 -17.5q-63 0 -101 38t-38 101zM147 1118l9 119v121v18l4 101q6 23 12 45t19.5 55t48 63.5t61.5 30.5h33h24q18 0 30.5 -19.5t17.5 -49.5l6 -56l-6 -59l-3 -78l-6 -80 l-10 -78l-8 -125l-2 -41l-6 -84l-9 -127l-2 -126v-54v-41v-92l11 -78q0 -16 -30 -53t-75 -37q-86 0 -98 119l-4 45l-6 45q-2 23 -4 51.5t-2 63.5v74v67v80v51z" />
<glyph unicode="&#x22;" horiz-adv-x="888" d="M57 1036q0 14 3 29.5t22 52.5l33 64l26 67l47 80q20 33 41 88.5t35.5 72.5t36.5 17l10 -2q18 -2 37 -20l27 -33l35 -35q29 -29 28 -51q0 -35 -61 -141l-72 -127q-84 -147 -160 -148q-31 0 -59.5 32t-28.5 54zM422 1036q0 14 3 29.5t21 52.5l33 64l27 67l47 80 q20 33 40.5 88.5t35 72.5t37.5 17l10 -2q18 -2 37 -20l26 -33l35 -35q29 -29 29 -51q0 -35 -62 -141l-71 -127q-84 -147 -160 -148q-31 0 -59.5 32t-28.5 54z" />
<glyph unicode="#" horiz-adv-x="1052" d="M0 442l37 150h205l73 293h-209l37 149h209l111 443h149l-110 -443h205l110 443h150l-109 -443h195l-37 -149h-195l-73 -293h200l-39 -150h-198l-111 -442h-151l112 442h-205l-110 -442h-154l111 442h-203zM393 592h203l72 293h-201z" />
<glyph unicode="$" horiz-adv-x="1271" d="M86 1061q0 166 94 299t167 187.5t133.5 85t92.5 30.5h17l8 213q0 29 49 29q23 0 40.5 -9.5t17.5 -21.5l2 -205l34 4q18 0 48 -8t91.5 -30.5t96.5 -65.5l14 45l13 37q14 31 53 30q53 0 88 -39l18 -28l8 -33l5 -70l4 -69v-12v-68v-74q2 -20 2 -34.5v-26.5v-21l-13 -80 q-6 -43 -11 -59t-10 -22.5t-38 -6.5q-43 0 -94 64q-25 37 -31 54.5t-6 62.5v10v28q0 14 -4 43l-10 56l-11 49q-8 33 -36.5 53.5t-70.5 34.5t-69.5 19.5t-68.5 5.5q0 -96 2 -190.5t6 -203.5v-61l-8 -328l116 -55l72 -33l12 -8l80 -43q68 -39 89.5 -57.5t59.5 -69.5t38 -109 q0 -53 -43 -123.5t-145.5 -167t-256.5 -96.5l-24 2v-327q0 -14 -16.5 -24.5t-39.5 -10.5q-55 0 -55 37l2 317h-25h-30q-37 0 -56 8l-84 27l-47 10l-45 17l-18 -19l-25 -80q-4 -14 -30 -14q-25 0 -58 23l-45 28l-18 70l-8 78l-3 28v52v102v70v32l-4 97q0 39 50 39 q10 0 19 -2.5t55 -25t46 -44.5v-31q0 -29 21 -88q35 -115 98.5 -144.5t194.5 -29.5l4 178v182q-29 20 -51.5 34t-67.5 38l-90 49q-47 29 -98.5 66t-124 107.5t-72.5 236.5zM303 999q0 -20 29.5 -58t66.5 -60q33 -25 77 -45.5t120 -49.5l4 328l-2 242l-2 139l-70 -41 q-68 -41 -96.5 -69.5t-67 -99.5t-49 -120t-10.5 -166zM698 393l7 -213q74 8 92 23l65 41q41 31 41 45q0 70 -22.5 95.5t-110.5 55.5l-72 29v-76z" />
<glyph unicode="%" horiz-adv-x="2058" d="M59 979q0 242 118 431t267 189q76 0 170.5 -43t155.5 -106l51 -51q27 -27 67 -44.5t70 -17.5h89l90 4q25 4 63.5 15.5t59.5 19.5l122 47l113 47l64 37l55 41l57 33l39 31q10 8 31 8q25 0 45 -21l29 -30l47 -41q23 -23 22 -45l-2 -15q-6 -18 -22 -24l-33 -19 q-20 -10 -44 -27.5t-38 -29.5l-80 -61l-76 -74l-53 -39l-49 -49l-51 -45q-29 -20 -80 -82l-74 -82l-80 -82l-61 -74l-68 -75l-51 -60l-14 -18l-82 -103l-84 -104l-84 -103l-142 -186q-16 -20 -38.5 -48t-57.5 -62.5t-41 -49t-12 -19.5t-6 -7q-18 0 -30.5 18.5t-12.5 46.5 q0 35 14 56l33 53l33 53l49 68l49 63l47 68l68 86l71 88l31 37l37 49l49 55l25 31l67 92l72 90q39 47 61.5 73.5t85.5 98.5l25 29l27 35l49 59l-13 4q-18 6 -102 -29q-29 -14 -72 -14t-77 14l-58 23l-43 20q-12 6 -21.5 10.5t-19.5 6.5q-16 0 -16 -45l2 -37v-17l-14 -124 q-29 -215 -79 -288t-74 -101.5t-46.5 -49t-85 -43t-117.5 -22.5l-18 2l-43 12l-39 8q-59 16 -168 110.5t-124 159t-19.5 104.5t-4.5 81zM209 907q0 -268 217 -268q72 0 119 26.5t85 72.5t67.5 119t52 164t22.5 153q0 33 -4 43l-39 47q-12 14 -17 22t-12 27q-20 39 -20 53 l-6 59q0 18 -29 30.5t-72 12.5q-152 0 -258 -163.5t-106 -397.5zM1149 401q0 248 110.5 418t272.5 170q29 0 75 -9t74.5 -17.5t44 -16.5t46.5 -26l47 -27l47 -45l41 -51l39 -52q27 -31 41 -96t14 -151q0 -80 -22.5 -165t-69.5 -172t-130 -139.5t-184 -52.5q-104 0 -145 27 l-96 63l-62 45l-55 56l-35 41q-20 27 -36.5 87t-16.5 113zM1290 379q0 -125 67.5 -211t168.5 -86q104 0 170 65l41 54l37 51q23 37 45 98q16 59 27.5 117.5t11.5 87.5l-7 78l-12 67q-8 45 -55 93q-33 37 -58.5 49t-66.5 12q-154 0 -261.5 -138t-107.5 -337z" />
<glyph unicode="&#x26;" horiz-adv-x="1822" d="M59 375q0 82 65.5 185.5t170.5 184.5l29 23l51 39q45 29 45 43q0 23 -33 63l-37 64l-18 35q-55 109 -56 219q0 84 31 160.5t88.5 149.5t102.5 99l53 31q41 25 54 28t32.5 7t36.5 6l67 10h15q98 0 194 -41l51 -26l52 -25l45 -35l51 -22q57 -29 78.5 -69t38 -90t16.5 -75 q0 -35 -16 -63l-33 -66l-37 -61l-51 -51l-86 -78l-94 -68q-59 -45 -132 -88t-73 -76q0 -29 82 -83l43 -37l47 -35l88 -68l20 -14l50 -35q49 -41 73 -41q10 0 23.5 16.5t23.5 30.5l37 47q14 20 15 41q0 16 -23 17q-27 0 -39 -4q-51 -8 -70.5 -9.5t-31.5 -1.5q-88 0 -141.5 31 t-53.5 82q0 27 43 37l43 12l109 33l108 29l105 28l125 19l116 18l119 8l55 2q51 0 73 -9t38 -52q12 -23 12 -49q0 -47 -71.5 -82t-165.5 -35h-17h-34q-84 0 -84 -25l4 -38v-15l-2 -28l-9 -60q-6 -59 -30.5 -93t-34.5 -52.5t-16 -28.5q0 -14 30 -37l51 -35l52 -34l51 -35 q12 -10 12 -39q0 -41 -12 -53l-39 -13l-37 -12q-14 -6 -57 6l-56 19q-31 10 -79 42.5t-68 32.5q-14 0 -32.5 -10t-82.5 -55l-39 -23q-37 -20 -78.5 -39.5t-74.5 -29.5l-107 -29l-104 -23q-23 -4 -57.5 -6t-63.5 -2q-96 0 -210 41t-172 79t-107.5 118t-49.5 168zM270 297 q0 -164 230 -164q135 0 243 47q27 8 84 41q18 8 29 19q23 10 33 16t53 28.5t43 43.5q0 20 -35 45l-110 80l-19 14l-86 74l-104 88q-33 39 -49 39q-8 0 -32 -17.5t-69 -58.5l-100 -88q-49 -45 -80 -101.5t-31 -105.5zM479 1255l2 -16l15 -80q10 -45 24.5 -74.5t46 -68.5 t45.5 -39l41 27l15 8q35 23 102.5 73t130 103t112.5 125.5t50 116.5q0 59 -56.5 103t-134.5 44q-59 0 -127.5 -22.5t-120 -63.5t-98.5 -114.5t-47 -121.5z" />
<glyph unicode="'" horiz-adv-x="495" d="M57 1036q0 14 3 29.5t22 52.5l33 64l26 67l47 80q20 33 41 88.5t35.5 72.5t36.5 17l10 -2q18 -2 37 -20l27 -33l35 -35q29 -29 28 -51q0 -35 -61 -141l-72 -127q-84 -147 -160 -148q-31 0 -59.5 32t-28.5 54z" />
<glyph unicode="(" horiz-adv-x="608" d="M88 666l10 96l8 92q2 12 6.5 36.5t14.5 57.5l20 88q10 29 16.5 48.5t19 50t21.5 52t40 85.5l37 69l28 52l31 51q53 86 119.5 149.5t101.5 63.5q37 0 61.5 -18.5t24.5 -47.5q0 -14 -10 -18l-35 -23l-29 -30l-26 -41l-21 -29l-4 -8l-14 -33l-23 -43q-6 -14 -15 -38.5 t-13 -39.5l-23 -57l-6 -21l-20 -82l-35 -174q-16 -70 -24.5 -158.5t-8.5 -191.5q0 -256 68 -452l65 -164q18 -41 38.5 -67.5t63.5 -64.5t43 -59q0 -12 -28 -35l-25 -12l-14 -4l-47 -2l-41 -2l-41 6q-18 4 -31.5 15.5t-44.5 50.5l-53 61l-23 35l-20 33l-23 51l-30 65l-25 70 l-25 68l-6 39l-10 36q-8 31 -20.5 94.5t-12.5 100.5l-8 102z" />
<glyph unicode=")" horiz-adv-x="608" d="M-37 -195q0 12 8 19l35 22q23 23 29 33l24 37l21 29l4 8l18 35l23 41l29 77l20 58l8 20l17 82l39 174q31 158 30 351q0 252 -42 374.5t-56 159.5t-42 97.5t-82 105.5t-54 71q0 16 28 33l25 15l12 4h47l41 4q39 0 58.5 -12.5t60.5 -61.5l51 -59q29 -41 41 -70l25 -49 l31 -68l24 -69l25 -68l6 -39l12 -35l19 -96l12 -98l6 -105l4 -84v-12l-8 -96l-10 -92l-19 -92l-24 -91q-8 -29 -27.5 -79t-32.5 -82l-37 -70q-6 -18 -19 -43t-15 -31l-29 -51l-31 -51q-57 -86 -121.5 -147.5t-99.5 -61.5q-37 0 -60.5 17.5t-23.5 45.5z" />
<glyph unicode="*" horiz-adv-x="937" d="M59 1165q0 115 93 115q16 0 35.5 -8t41.5 -17q68 -37 93 -36q43 0 43 65l-3 21l-51 200q0 6 7.5 15.5t19.5 19.5t37 10q57 0 100 -62.5t43 -146.5v-26q0 -20 17 -21q20 0 34.5 31t28.5 48.5t23 25.5l43 51q47 53 102 53q35 0 65.5 -39t30.5 -55q0 -14 -16.5 -36.5 t-74.5 -67.5t-95 -93l-33 -34q-4 -2 -6 -5.5t-2 -5.5q0 -33 86 -60.5t105.5 -37.5t37 -28.5t17.5 -88.5q0 -96 -54 -96l-73 21q-25 8 -46.5 16t-39.5 18l-35 15q-25 0 -25 -37q0 -20 36 -91t36 -118q0 -63 -109 -64q-29 0 -37 5.5t-18 21.5q-16 18 -30.5 57t-23.5 109 t-40 70q-14 0 -31.5 -19.5t-44.5 -66.5l-76 -78q-61 -59 -90 -60q-27 0 -47 22.5t-20 53.5q0 27 8 46.5t45 64.5l59 80l4 6q43 53 66 65l6 8q0 27 -37 45.5t-92 18.5q-74 0 -93.5 17.5t-19.5 82.5z" />
<glyph unicode="+" d="M166 739v11q0 74 27 73h432v432q0 12 27.5 22.5t66.5 10.5q33 0 53.5 -9t20.5 -24v-432h434q8 0 20.5 -21.5t18.5 -51.5l2 -23q0 -74 -41 -74h-434v-434q0 -37 -91 -37q-33 0 -55 10.5t-22 26.5v434h-432q-8 0 -17.5 27t-9.5 59z" />
<glyph unicode="," horiz-adv-x="378" d="M-61 -158q0 29 26 80l31 68l29 65l47 80q8 16 19 39t18 45q25 63 38 79.5t37 16.5l9 -4q20 -2 29 -12t34 -41l35 -35q31 -31 31 -51q0 -33 -64 -143l-70 -127q-84 -147 -159 -148q-33 0 -61.5 33t-28.5 55z" />
<glyph unicode="-" horiz-adv-x="798" d="M59 645q0 39 43 39l88 6l50 4l141 6l22 2l115 9l49 2q82 0 108.5 -21.5t43.5 -52.5q23 -29 22 -53q0 -74 -102 -74h-8l-119 2h-10h-66h-49h-37l-84 -12q-41 -8 -76 -8q-51 0 -76.5 33.5t-40 66.5t-14.5 51z" />
<glyph unicode="." horiz-adv-x="387" d="M59 115q0 76 45.5 135t102.5 59q53 0 88 -56t35 -144q0 -135 -131 -136q-61 0 -100.5 39t-39.5 103z" />
<glyph unicode="/" horiz-adv-x="1384" d="M37 18q0 37 49 115l74 109q4 8 9 16t21 25l50 67l84 107l59 78l23 26l79 105l82 106l78 105l80 106l76 107l45 61l10 16l66 80l55 76l80 98l86 97q37 41 67.5 69.5t53.5 28.5q31 0 54 -32t23 -73t-38 -86l-54 -57l-53 -63l-98 -121l-94 -117l-101 -119l-37 -47l-63 -74 l-86 -102l-88 -102l-88 -107q-119 -135 -179 -223l-81 -117l-88 -113l-33 -51q-35 -66 -56 -65q-4 0 -9 4t-21 20l-29 29q-8 6 -8 18z" />
<glyph unicode="0" d="M43 612l4 82l16 127l15 88l26 90l27 84l27 60l32 61l29 62q18 35 64 84l73 77q51 59 82 72l51 21l50 24l55 8l55 4l53 -8h56q10 0 37.5 -9t78.5 -30l84 -24l33 -8q14 -6 40 -21.5t67 -42.5l57 -43q39 -23 55 -49l21 -33l14 -16l6 -12l41 -54q6 -6 13.5 -19t25 -55 t24.5 -68t11 -54l8 -76l6 -45l2 -51q0 -43 -2 -65.5t-12 -84.5l-6 -55l-4 -23l-8 -37l-7 -36l-24 -78l-21 -70l-6 -8l-37 -74l-49 -86q-41 -78 -192 -186l-49 -29l-72 -24l-74 -21l-76 -8l-61 -6l-53 4l-43 2q-18 0 -33.5 4t-42.5 14l-64 23l-57 24l-61 37l-60 37l-55 47 l-33 29q-18 18 -31.5 39.5t-34 62.5t-27.5 55.5t-9 26.5q-14 37 -20.5 81t-10.5 91t-4 88zM279 563q0 -78 6 -122t34.5 -127t98.5 -150q47 -41 102 -59.5t142 -18.5q41 0 87 15.5t87 38t65 46.5l62 70l28 29q20 20 44 67t38 97l19 59q8 23 16 51.5t8 30.5l12 86l13 88l6 119 q0 109 -10 166l-41 143q-25 76 -107 143l-45 35q-23 16 -67 16l-48 5l-43 6l-24 -4l-27 -4q-37 -4 -51 -9.5t-45 -21.5q-6 -6 -19.5 -14.5t-25.5 -16.5l-53 -39q-23 -16 -48.5 -45t-37.5 -49l-41 -76l-35 -76l-27 -81l-26 -64l-17 -70l-8 -69l-18 -107z" />
<glyph unicode="1" d="M422 1360q0 41 76 84l55 31l59 22l62 21q18 6 61 6t53 -11l29 -22l31 -21q18 -12 26.5 -30.5t8.5 -50.5l-4 -82l-5 -56v-20l-2 -76l-8 -182l-8 -182l-8 -185v-41l-2 -143l-2 -137q0 -94 24 -101l78 -22q25 -8 41.5 -33t16.5 -55q0 -37 -24 -53.5t-95 -30.5l-105 -23 l-71 -6q-86 0 -145.5 37t-59.5 90q0 20 21.5 33.5t80.5 21.5q47 10 47 43v54l-8 36v117v78l2 39l4 115l2 333l2 78l-4 78l4 76l-2 35q-4 14 -10 21t-10 9l-72 -10l-20 -4q-45 0 -82 37t-37 82z" />
<glyph unicode="2" d="M147 975q0 23 13.5 44t60.5 68l21 23l32 37l80 78l82 78l86 67q70 53 91.5 66.5t76.5 40.5l90 45l51 12q20 6 45 11t33 5q33 0 93.5 -20.5t167 -79.5t106.5 -217q0 -37 -8 -62q-6 -33 -31 -94l-43 -86l-31 -47q-27 -43 -35 -49l-38 -45l-31 -41l-37 -41l-74 -70l-71 -75 q-25 -27 -53.5 -53.5t-88.5 -80.5l-63 -57l-64 -59l-51 -41l-47 -39q-27 -27 -47.5 -36t-24.5 -14t-6 -7l2 -11l31 13l53 -9q12 -2 121 15l43 6l78 8l92 12l29 2l22 2l41 7h25q23 0 37 -2l24 -3q31 0 45.5 13.5t22.5 48.5l18 63l21 54q10 25 16 74t45 49q23 0 37 -21 q39 -39 39 -98l-6 -45v-43l-13 -90l-8 -35l-10 -49q-14 -80 -29.5 -98.5t-68.5 -18.5l-70 2q-20 0 -57 -2t-84 -8l-86 -13l-54 -8l-135 -26l-137 -25l-45 -8l-25 -4q-2 -2 -67 -17l-72 -10q-23 0 -51 12q-25 14 -37 27.5t-33 52.5l-20 35q-8 14 -8 27q0 27 22.5 58.5 t83.5 88.5l51 55l43 58q27 33 45.5 51t49.5 49l131 137q170 176 267 292t163.5 226.5t66.5 157.5q0 37 -18.5 59.5t-50.5 22.5q-57 0 -142 -39l-59 -31l-57 -32l-60 -33l-84 -64l-84 -67l-82 -76l-34 -33l-35 -30l-56 -45q-45 -45 -63 -35l-33 18l-39 23q-37 18 -37 49z" />
<glyph unicode="3" d="M143 1034q0 53 25 94t86 89l78 55l8 6l90 57l88 58q68 43 154 71.5t155 28.5q63 0 113.5 -14.5t195 -80t144.5 -222.5q0 -72 -37 -124.5t-109.5 -112.5t-138.5 -99l-63 -39l-49 -29q-20 -8 -29.5 -14t-17.5 -15q0 -12 32 -22l41 -10q18 -4 40 -14.5t67 -41.5l57 -34 q68 -43 111 -112t43 -136q0 -68 -37 -133.5t-96 -102.5l-68 -39l-59 -35l-60 -24l-61 -23q-41 -18 -168 -33.5t-199 -15.5l-39 2l-51 8l-43 7q-16 4 -36.5 15t-73 51t-52.5 120q0 41 35 41q18 0 31 -12l33 -35q18 -12 77 -12h62l98 10l33 4l22 2l54 12l63 8l58 19l57 20 l37 15q23 10 69 49l52 39q31 23 51 53.5t20 54.5q0 43 -87 79t-191 36q-66 0 -150 -12l-63 -6q-61 0 -99 41.5t-38 111.5q0 37 13 52.5t60 33t78 34.5t59 34l80 43l76 55q178 129 242.5 190.5t64.5 120.5q0 49 -98 49q-14 0 -50 -6t-87 -13t-141 -44l-105 -41l-102 -43 l-90 -57q-41 -27 -55.5 -36t-50.5 -40t-58.5 -45t-36.5 -14q-63 0 -64 73z" />
<glyph unicode="4" d="M92 575q0 25 39 82l45 70l74 102l41 56l49 65q6 6 14 16.5t21 24.5l117 144l88 96l88 96l96 92l49 47q49 47 107 47q31 0 52 -7t58 -29.5t54.5 -39t28.5 -39t11 -50.5l-8 -113l-4 -68l-4 -69l-12 -135l-6 -91l-5 -49l-8 -108q0 -37 9.5 -44t52.5 -7l78 -2q53 0 86.5 -24 t33.5 -60q0 -49 -45 -70t-69 -21l-74 13l-29 4q-51 0 -51 -51l2 -56q2 -12 2 -24.5v-24.5q0 -14 -4 -43l-6 -57q0 -39 39 -39h39q47 0 86 -55q23 -41 22 -66q0 -29 -17.5 -43t-131 -49t-217.5 -35q-61 0 -108.5 35t-47.5 84q0 16 26.5 37.5t59.5 29.5l57 23q4 4 4 25l-2 53 l2 76v43v34l-2 33l-2 29q-4 10 -26 10l-49 -4q-23 -6 -76 -6l-64 -2l-102 -21l-100 -14l-103 -18l-71 -19l-54 -6q-16 0 -27.5 7t-34 31.5t-37.5 49.5t-22 53q-12 29 -12 51zM344 623l72 8l28 2l48 6l86 14l53 4l33 2l90 9l41 4l41 -6q41 0 41 51l-3 41v82l3 80v65l2 53 l4 117q4 16 4 41t2 37q0 29 -6 41l-4 6l-58 -53l-47 -45q-29 -27 -89 -97.5t-93 -113.5l-70 -90l-59 -70l-31 -49l-20 -27l-54 -71z" />
<glyph unicode="5" d="M131 143q0 33 27 33q12 0 28 -10l31 -19q10 -10 51 -10l51 -2l43 -2q23 0 40.5 2t76.5 10l78 15q25 4 55.5 14t71.5 25q98 43 209 123.5t143.5 115.5t32.5 66q0 57 -113.5 100t-216.5 43l-32 -2l-70 -8l-66 -6l-82 -23l-77 -24q-39 -18 -58.5 -25.5t-27.5 -7.5 q-20 0 -45 16.5t-48 44.5l-38 50l-2 59l2 65l14 150l10 151l4 56l10 94q0 66 7.5 104.5t13.5 58t33.5 32t89.5 12.5q35 0 97.5 13t96.5 13l111 9l113 14l110 10l29 2l72 8l104 5h45q74 0 86 -13q27 -18 27 -94l-2 -37l-6 -63l-5 -76l-4 -76l-4 -74q0 -31 -16.5 -53 t-38.5 -22q-31 0 -57 20q-37 23 -43 62l-9 79l-8 78l2 43v8q0 25 -6 31t-31 6l-127 -6l-118 -20l-121 -21l-64 -12l-41 -10l-18 -4l-51 -11q-14 -6 -27.5 -30.5t-26.5 -73.5l-26 -107l-12 -110l-2 -31q0 -23 3 -27t12 -7t44 -3h33q29 0 77 -10l80 -6l43 -2l37 -8l60 -9 q25 -4 33 -6t55 -22l35 -10l63 -23q39 -14 92 -47l86 -55l39 -37l35 -31q59 -55 59 -145q0 -96 -61.5 -169t-94 -98.5t-57 -41t-54.5 -32t-49.5 -25.5t-62.5 -26l-30 -10l-31 -18l-59 -17l-62 -20q-92 -27 -141 -27l-66 2l-24 -2l-47 -2l-62 6l-55 7l-62 20 q-43 14 -67.5 28.5t-50 45t-25.5 69.5z" />
<glyph unicode="6" d="M109 522q0 45 5 82t19 96.5t21.5 88t21.5 74.5t24.5 75t20.5 53l33 66q27 51 42 75.5t30 41.5l41 49l41 51l24 29l27 26l71 57l72 56q20 14 67.5 35.5t86.5 35t69.5 17.5t112.5 4h12q47 0 109.5 -21.5t110 -53.5t79 -67.5t31.5 -60.5q0 -43 -43 -43q-23 0 -61.5 27.5 t-76.5 40t-73 12.5q-43 0 -105.5 -16.5t-121.5 -40.5q-102 -49 -148.5 -90t-58.5 -54.5t-49 -58.5l-78 -102l-55 -113q-6 -10 -12.5 -23.5t-10.5 -23.5q14 -6 19 -6q35 0 98 28.5t128.5 36.5t151.5 8q78 0 113 -6t74 -21.5t50 -20.5t28 -17l61 -31l53 -43l66 -59 q39 -43 63.5 -113t24.5 -137q0 -176 -109 -297l-45 -47q-25 -18 -47 -31.5t-63 -36.5l-58 -28q-35 -18 -57 -25l-102 -25q-33 -6 -72 -13t-70 -7h-18l-55 8l-68 14l-59 15l-64 26q-96 41 -119.5 57.5t-112.5 121t-89 325.5zM303 416q0 -41 16.5 -101.5t32.5 -85.5l35 -41 q29 -31 44 -43t58 -35.5t89 -23.5q49 0 131 20l51 13q115 39 197.5 108.5t125.5 153.5t43 166q0 63 -20.5 104t-60 70t-73.5 37t-93 8l-72 -6l-129 -27q-61 -16 -133 -46t-109 -54l-47 -33l-43 -37q-16 -18 -29.5 -63t-13.5 -84z" />
<glyph unicode="7" d="M162 86v12q10 43 59 56l86 14q45 6 60.5 33.5t46.5 101.5q2 10 13 31.5t58 101.5l72 129l74 129l74 129l75 129l76 125q57 94 74.5 119t34 44.5t21.5 30.5t9 21q-10 8 -16 8l-33 -2l-53 -8l-53 -2l-41 -8l-39 -2l-27 -2l-86 -14l-112 -17q-43 0 -68 -6t-47 -18 q-8 -8 -11 -21.5t-12 -73.5l-14 -65l-6 -84q0 -115 -70 -115l-33 8q-37 18 -45 39t-8 101v112l6 111l6 65q6 37 38 56.5t116 34.5l125 32l80 21l45 10l129 29l55 14l23 6l74 19l34 4l70 4q74 0 96.5 -2t44 -15.5t61.5 -77t40 -100.5q0 -18 -13.5 -41.5t-46.5 -64.5l-61 -92 l-15 -21l-47 -76l-75 -108l-76 -113l-74 -108l-68 -113l-77 -113q-33 -47 -59.5 -101t-44 -84t-38 -55.5t-20.5 -43.5q0 -10 15.5 -12.5t37.5 -2.5q45 0 79 -33.5t34 -80.5q0 -55 -113 -68l-57 -6l-92 -14l-99 -5l-98 -6q-25 0 -59.5 43t-34.5 72z" />
<glyph unicode="8" d="M8 295q0 39 20.5 99.5t39 87t39 53t45.5 57.5l81 92l68 64l66 67l69 64l6 14q0 20 -59 60t-112.5 115t-53.5 157q0 84 76 161.5t209 131.5l61 20q39 16 62 21l63 8l62 8l32 2q23 0 53.5 -6t67.5 -17q82 -29 132 -54t63.5 -43.5t22.5 -26t16 -13.5l28 13l33 20l33 23 l55 32q20 12 36.5 22.5t23.5 10.5q31 0 51 -28.5t20 -71.5q0 -49 -10 -69.5t-49 -45.5l-53 -31l-52 -35l-47 -30l-47 -31l-47 -39l-47 -35l-47 -41l-35 -28l-29 -25l-8 -6l-57 -41l-60 -49q-18 -16 -32.5 -29.5t-22.5 -21.5q6 -4 13.5 -10.5t19.5 -12.5l82 -43l76 -49 l75 -51q195 -127 195 -285q0 -96 -69.5 -206.5t-157.5 -157.5l-62 -31l-57 -33l-66 -22l-80 -25q-29 -6 -48 -9t-38 -3l-88 -6l-53 -3l-61 9l-64 6l-51 12l-45 16l-33 11l-33 14l-30 16q-35 12 -51.5 22.5t-49 39.5t-61.5 90t-29 125zM223 207q0 -55 29 -73.5t84 -29 t121 -10.5q82 0 174 23.5t110.5 32t65.5 36t74.5 45t46 31.5t55.5 47l51 72q8 27 14.5 51.5t6.5 46.5q0 47 -37 78q-12 14 -34.5 29.5t-55.5 36.5l-97 53l-96 45q-72 45 -96 45q-6 0 -24.5 -15.5t-36.5 -29.5l-58 -45q-20 -16 -51 -55l-53 -60l-43 -53l-39 -53l-41 -52 l-27 -53l-28 -65q-14 -23 -15 -70v-8zM455 1184q0 -47 24 -76l41 -49q29 -35 39 -42t27 -7q16 0 30.5 10t83.5 74l107 82l106 79q66 37 66 66q0 14 -27 39l-30 31q-37 37 -93 36l-63 -4q-25 0 -48.5 -3t-31.5 -7l-41 -18l-41 -21l-26 -20l-29 -19q-43 -31 -68.5 -72.5 t-25.5 -78.5z" />
<glyph unicode="9" d="M109 1028q0 180 106 295l49 47q29 23 54.5 39t56.5 31l55 28l57 25l103 25q61 12 85.5 15t55.5 3h19l57 -6l65 -17l60 -12l63 -26q96 -41 121 -58.5t83 -87t87 -153.5t29 -205q0 -57 -4 -87t-19.5 -99.5t-23.5 -95t-19.5 -62.5t-25 -75t-21.5 -52l-31 -64 q-20 -39 -35.5 -66.5t-35.5 -50.5l-41 -49l-41 -51l-25 -29l-26 -26l-72 -58l-74 -55q-55 -35 -123.5 -60.5t-97.5 -29.5t-113 -4h-12q-49 4 -113.5 26.5t-108.5 52.5t-76 65.5t-32 60.5q0 41 43 41q27 0 84.5 -39t128.5 -39q49 0 105.5 14.5t114 41t101.5 54t71.5 53t40 39 t49.5 58.5l78 102l55 113l22 47q-12 6 -20 6q-33 0 -127 -45q-78 -31 -248 -30q-82 0 -115.5 6t-93.5 32l-59 29q-47 20 -58 31q-8 2 -53 41l-67 59q-39 43 -63.5 115t-24.5 137zM299 948q0 -119 88 -182q37 -23 68.5 -31t91.5 -8l74 6q100 14 137 26.5t104.5 38t99 43 t74.5 52.5l45 37l23 51q8 20 12 44t4 44q0 49 -15 110.5t-32 82.5l-35 43l-39 41q-76 59 -153 59q-207 0 -377 -136.5t-170 -310.5v-10z" />
<glyph unicode=":" horiz-adv-x="446" d="M88 115q0 74 45.5 135t102.5 61q49 0 85.5 -53t36.5 -129q0 -82 -29.5 -118t-101.5 -36q-63 0 -101 38t-38 102zM88 821q0 78 45.5 137.5t102.5 59.5q51 0 86.5 -56.5t35.5 -142.5q0 -137 -131 -137q-61 0 -100 39t-39 100z" />
<glyph unicode=";" horiz-adv-x="454" d="M-18 -166q0 25 26 82l31 64l31 67l45 80q10 14 19 33.5t26.5 65.5t30 62.5t36.5 16.5l11 -2q25 -4 34 -20l29 -33l33 -35q31 -29 31 -51q0 -39 -62 -141l-70 -127q-88 -147 -159 -148q-35 0 -66 35q-27 35 -26 51zM94 823q1 82 60 152q41 43 88 43q72 0 104 -90 q20 -72 21 -111q0 -135 -131 -135q-66 0 -104 38t-38 103z" />
<glyph unicode="&#x3c;" horiz-adv-x="552" d="M57 483q0 16 31 58q41 47 55 88l29 73q27 63 64 115l36 57l43 89q8 20 40 42.5t48 22.5q27 0 59 -53t32 -96q0 -49 -12.5 -68.5t-64.5 -87.5t-79 -117q-33 -74 -46 -84t-17.5 -16t-6.5 -12l25 -33l31 -55l41 -50l43 -73l59 -101q29 -45 29 -96q0 -20 -7 -27l-28 -61 q-25 -45 -35 -45l-49 10q-37 8 -50.5 25.5t-30.5 58.5t-36.5 76t-58.5 100l-64 107l-26 45q-53 92 -54 108z" />
<glyph unicode="=" d="M162 602q0 74 31 74h1034q10 0 18 -25.5t10 -54.5l2 -21q0 -72 -30 -71h-1034q-8 0 -17.5 23.5t-11.5 56.5zM162 899q0 31 9 52.5t22 21.5h1034q8 0 16 -23.5t12 -58.5l2 -19q0 -72 -30 -71h-1034q-8 0 -16.5 23.5t-12.5 58.5z" />
<glyph unicode="&#x3e;" horiz-adv-x="552" d="M57 895l4 27l31 61q25 45 37 45l47 -10q37 -8 52.5 -27.5t41.5 -87.5q4 -16 82 -145l64 -107l24 -45q33 -51 43.5 -73.5t10.5 -36.5q0 -18 -34 -58.5t-50 -85.5l-29 -73q-14 -31 -27.5 -58.5t-29 -49t-28.5 -41t-15 -24.5l-43 -88q-4 -16 -39 -40.5t-52 -24.5 q-25 0 -56.5 51t-31.5 98q0 43 12.5 65.5t80.5 106.5q41 57 59 93t31.5 62t23.5 34t12.5 14t4.5 10l-21 33l-35 55l-39 50l-45 69l-57 105q-29 53 -29 96z" />
<glyph unicode="?" horiz-adv-x="1312" d="M12 1061q0 14 8 43l15 55q2 6 11 15.5t34 31.5l65 66q70 63 179.5 132t205 113t140.5 57t118.5 26.5t120.5 13.5q59 0 134 -23.5t166 -88t91 -212.5q0 -59 -40.5 -135t-92 -121t-172.5 -116q-43 -29 -71.5 -46.5t-34.5 -23.5l-107 -72l-32 -16l-29 -25l-72 -57l-69 -60 q-37 -35 -51.5 -47t-16.5 -16l-33 -41l-35 -41l-22 -45q-14 -35 -45 -35q-8 0 -20.5 8.5t-35 36t-22.5 70.5q0 31 19.5 78t58.5 102q10 23 19.5 34t42 48t71.5 69.5t70 55.5l133 96l22 19l111 75q37 23 97.5 78.5t105.5 108.5t45 108q0 72 -80 72l-109 10q-29 0 -69 -12 l-68 -29l-109 -41l-92 -59l-131 -70q-45 -27 -90 -64.5t-80 -63t-37 -25.5l-43 -35l-65 -68q-8 -8 -39 -10q-70 0 -70 76zM246 104q0 74 45 135.5t100 61.5q49 0 86 -51t37 -121q0 -92 -27.5 -128t-101.5 -36q-63 0 -101 38t-38 101z" />
<glyph unicode="@" horiz-adv-x="1552" d="M53 702q18 160 88 298.5t178.5 242t249 162.5t301.5 59q117 0 236 -39t211 -114.5t145.5 -187t40.5 -255.5q-12 -133 -66.5 -236.5t-138.5 -174t-191.5 -107.5t-223.5 -37q-49 0 -64.5 19.5t-18.5 43t-2 43t-18 19.5q-14 0 -36.5 -20.5t-56.5 -46t-78 -46t-101 -20.5 q-90 0 -136 64.5t-36 175.5q10 109 58 206t117 169.5t146.5 114.5t145.5 42q35 0 60.5 -9t44 -21.5t34 -21.5t31.5 -9q10 0 28.5 9t43 21.5t53 21.5t61.5 9t44 -12t11 -43q0 -16 -11 -74.5t-27 -118.5q-4 -16 -16.5 -64t-21 -101.5t-7 -94.5t23.5 -41q8 0 33.5 14.5 t56.5 50.5t57.5 97.5t38.5 153.5q8 68 -12 150.5t-78.5 154.5t-160 121t-252.5 49q-119 0 -229.5 -44t-197.5 -124t-143.5 -190.5t-64.5 -243.5q-10 -141 33 -252t123.5 -188.5t193.5 -118.5t244 -41q100 0 182 33.5t141.5 74.5t96 75t49.5 34q12 0 26.5 -9.5t25.5 -22.5 t18 -27.5t7 -24.5q0 -8 -47 -52t-128 -94.5t-189.5 -91.5t-233.5 -41q-158 0 -292 53.5t-229 150.5t-142 231.5t-29 295.5zM676 596q-2 -16 3 -36.5t28 -20.5q20 0 52 34.5t63.5 85t55 107.5t27.5 102q2 16 -3 33t-21 17q-18 0 -51 -28t-65 -74t-57.5 -103.5t-31.5 -116.5z " />
<glyph unicode="A" horiz-adv-x="1564" d="M-45 82q0 55 65.5 64.5t77 16.5t21.5 38l16 45l45 112l13 27l30 84l45 113l47 110l23 51l22 56l66 151l66 148l69 149q27 59 51.5 113.5t70.5 114t110 59.5l51 -4l69 -17l76 -8q53 -4 74 -63l14 -49l6 -11l21 -73l24 -72l31 -107l35 -104l33 -106l28 -107l37 -125 l41 -125q10 -27 21.5 -65.5t34.5 -112.5l8 -33l12 -37q12 -51 22.5 -67.5t34.5 -22.5l39 -6q25 -2 44.5 -15.5t25.5 -27.5t6 -47v-18l-2 -62q-2 -14 -43 -24l-49 -15l-82 -6l-78 -12q-68 -16 -100 -17q-39 0 -71 8.5t-40 20.5l-41 47q-33 43 -33 60q0 55 80 71q80 10 80 35 q0 18 -16 66l-23 69q-14 41 -42.5 55.5t-104.5 14.5l-27 -2l-112 -6l-107 -8q-20 0 -62 -11.5t-77 -21.5l-129 -37q-94 -25 -123 -47q-25 -25 -41 -56l-27 -59q0 -14 27 -22l35 -15q16 -4 33.5 -28.5t27.5 -46t10 -39.5q0 -43 -89 -62.5t-136 -19.5l-72 6q-37 6 -57 9 t-43 11l-31 8q-10 4 -16 12.5t-29 39.5q-16 37 -16 55zM489 555l31 -2q20 0 51 7t76 16.5t84 15.5t57 8l134 23l63 8l74 8l-49 238l-33 127l-39 118l-27 86l-10 37l-12 47l-25 29l-26 -41l-27 -43l-25 -51l-26 -47l-25 -52l-35 -67l-14 -29l-49 -94l-43 -98l-47 -97 q-16 -35 -33 -79.5t-25 -67.5z" />
<glyph unicode="B" horiz-adv-x="1472" d="M-4 1386l4 29q8 25 23.5 35t64.5 23l59 14l41 8l25 4l106 6l101 8h104l97 -4h94q78 0 105.5 -6t53.5 -8l54 -10l78 -19q74 -20 100.5 -30.5t86.5 -44t89 -57t64.5 -76t35.5 -105.5q0 -78 -75.5 -144.5t-120.5 -88.5l-101 -52l-8 -10q8 -12 13 -12l96 -39q37 -14 84 -50 t63.5 -49.5t49 -56.5t32.5 -147q0 -72 -26 -115l-15 -18q-27 -33 -49 -57.5t-81.5 -83t-154 -103.5t-170 -71.5t-110.5 -32.5l-127 -31l-129 -25l-51 -2l-56 -2l-67 -2l-150 4q-72 0 -113.5 15.5t-70.5 55.5t-35 57.5t-6 35.5q0 70 80 70q53 0 76.5 7t23.5 40q0 37 -7 72.5 t-7 72.5v74v125v67q0 156 2 257.5t8 142.5l10 114q0 51 -63 66q-43 6 -51 13t-44 55.5t-36 80.5zM406 270q0 -67 39 -67h1l37 4l103 6l102 14l100 23l101 24l84 37l86 39q72 31 116 76t44 90q0 39 -52.5 77t-132.5 52l-84 14l-84 15l-8 2l-78 -2l-121 -6h-8l-108 -11 q-68 -6 -95.5 -12t-32.5 -17.5t-7 -28.5t-2 -56l2 -111v-106zM412 950q0 -59 16 -59l84 10l86 10l82 17l41 6l41 10l63 12l15 5l49 14q88 25 126 47t70.5 69.5t32.5 86.5q0 55 -75.5 90t-196.5 35l-15 -3l-61 -6l-37 -2l-98 -4l-94 -16q-82 -16 -95.5 -24.5t-23.5 -43.5 l-6 -82v-12l-2 -96z" />
<glyph unicode="C" horiz-adv-x="1331" d="M59 530q0 76 18.5 173.5t41 162t31 87t43 98t114.5 187.5t146.5 177.5t130.5 102.5l63 28q53 27 75.5 33t63.5 6q49 0 90.5 -12t77 -32.5t40.5 -22.5t16 -7q12 0 16 13.5t4 60.5q0 57 43 57q25 0 63 -21.5t65.5 -50t27.5 -100.5v-14v-61v-74l-4 -74v-76l-6 -69v-66v-8 q0 -88 -68 -88q-57 0 -89 39t-32 119q0 43 -5 69.5t-7 38.5l-10 45q-20 57 -57.5 100.5t-69.5 43.5q-55 0 -161 -89t-163 -174t-96 -162t-76 -163t-59.5 -152.5t-26.5 -101.5l-10 -57l-15 -76q0 -109 19 -152q35 -102 242 -102q92 0 180 29l135 51q63 27 126.5 60.5 t108.5 70.5t65.5 51t29.5 14q23 0 50 -20.5t27 -65.5q0 -39 -22 -63q-8 -16 -66 -70l-75 -65q-125 -113 -237 -163t-232 -50q-61 0 -131 14t-97 31l-73 47q-51 33 -80 56.5t-107 114.5t-78 322z" />
<glyph unicode="D" horiz-adv-x="1630" d="M0 100q0 35 14.5 49.5t61.5 24.5l65 14q51 10 52 31l-7 47l-4 60l-2 63v86l4 150l2 90v43v14l-4 150v30l4 185v61q0 53 -9 58.5t-22.5 11.5t-43 14t-59 47t-29.5 80l6 31q10 39 23.5 48t64.5 9l82 8l77 17q47 10 209 24l88 4l89 -2h88q57 0 138 -14t148 -37l76 -29 l74 -30q86 -41 164 -107q55 -43 74.5 -67.5t66.5 -114.5l43 -84q41 -72 41 -184q0 -66 -18.5 -127.5t-56.5 -126t-73.5 -113.5t-111.5 -131t-158 -139.5t-186.5 -104.5t-234.5 -94t-260 -74.5t-251 -27.5l-37 -2h-32h-9q-35 0 -56 12t-56 57t-35 90zM416 236q0 -37 39 -37 q31 0 71 16l78 23q39 10 63.5 20t118.5 57l99 47q55 35 83.5 56.5t102.5 85.5l88 80q53 57 111.5 144t81 142.5t22.5 106.5q0 94 -47 162q-27 31 -72 60.5t-110.5 58t-108.5 43t-73 18.5l-82 8l-95 2q-31 0 -61.5 -4t-71.5 -12l-86 -21q-80 -16 -93 -21t-23.5 -25.5 t-10.5 -71.5v-25l-8 -160q0 -45 -6 -108.5t-6 -92.5v-253v-33v-162v-35l-2 -24z" />
<glyph unicode="E" horiz-adv-x="1339" d="M-31 1305q0 27 23.5 42t91.5 29l20 8l132 31l88 21l38 10l136 22l133 23l133 18l135 15l78 12l80 10l80 10q74 0 73 -139l-2 -82l2 -67l-4 -68l-2 -65q0 -59 -53 -60q-14 0 -25.5 4t-21.5 11l-41 26l-33 23q-6 6 -10 19t-10 46l-9 64l-10 53q-2 12 -18 12h-15l-45 -6 l-57 -10l-72 -17l-53 -14l-20 -4l-80 -14l-78 -23l-78 -20q-27 -6 -34 -21.5t-7 -58.5l-4 -72l-10 -115l-2 -100v-18v-69v-38l-4 -12q16 -6 22 -6l27 2q57 10 101 18t136 21l119 14q25 4 69 9t50 5q43 0 70.5 -33.5t27.5 -88.5q0 -29 -10 -38.5t-47 -13.5l-53 -6l-82 -10 q-16 -6 -33.5 -8t-30.5 -4l-18 -2l-78 -19l-49 -10l-35 -6l-65 -21l-50 -12l-10 -2q-49 -12 -58 -23.5t-9 -56.5l2 -72l4 -86q0 -47 2 -61t4 -32.5t24 -18.5q25 0 74 20l84 15l78 14l104 10l99 14l100 7l47 6l47 4q16 4 23 51l10 61l8 58l8 59q6 39 27 65.5t43 26.5 q18 0 29 -10l30 -24l31 -25q27 -20 27 -86l-2 -51q-2 -23 -3 -47.5t-1 -36.5v-25l2 -84q0 -25 -4.5 -41t-21.5 -40.5t-43 -35t-91 -10.5q-45 0 -94 -8t-90 -14l-52 -8l-51 -9l-63 -6l-58 -8l-104 -12l-98 -17q-51 -6 -91 -14t-85.5 -19.5t-68 -16.5t-44.5 -7h-57l-60 -4 q-29 0 -41 9t-31 44l-26 51q-14 33 -15 56q0 57 86 57q53 0 66.5 13.5t13.5 68.5v10l-4 137v189l-2 186v189v88l-4 94q0 55 -14 55l-76 4q-29 4 -73 50.5t-44 91.5z" />
<glyph unicode="F" horiz-adv-x="1116" d="M-16 1346q0 33 38.5 59.5t90.5 32.5l61 4l59 10q35 8 66 12t78 11l145 20l25 4l108 6l31 2l78 6l110 11l121 12q100 0 101 -96l-2 -56l2 -104l2 -98l4 -92q0 -20 -18.5 -35t-45.5 -15q-25 0 -45 15q-29 14 -38 30.5t-27 81.5l-25 88l-14 84q0 10 -37 11q-49 0 -82 -9 l-78 -22l-82 -14q-23 -4 -37 -8.5t-26 -8.5l-64 -20q-55 -18 -63 -26.5t-11 -50.5t-7.5 -107.5t-4.5 -145.5v-74v-61l2 -45q0 -41 13 -41l28 4l39 10l131 25l133 18l136 14q47 0 83.5 -38.5t36.5 -90.5q0 -18 -14 -26t-61 -15l-80 -14l-58 -8l-18 -4l-76 -23l-59 -14 l-60 -14l-63 -15l-43 -16l-29 -12l-16 -2q-14 -8 -14 -56v-63v-72l-2 -26q0 -25 3 -41.5t23 -18.5l64 -8q37 -4 61.5 -41t24.5 -84q0 -27 -32 -44t-128 -40l-41 -12q-14 -2 -18.5 -4t-6.5 -4l-67 -11l-109 -8q-47 0 -59 12l-37 37q-27 27 -34 40.5t-7 29.5q0 49 62.5 60.5 t77 25.5t14.5 47l-2 23l-2 112l-5 109l-4 110l-10 111v127l2 47l-2 78l-2 127l-4 112v11q-6 2 -21.5 8t-33 9t-29.5 13l-31 19q-12 12 -24.5 26.5t-28.5 41t-16 47.5z" />
<glyph unicode="G" horiz-adv-x="1443" d="M59 420v14v51l2 64l19 82l10 55l2 19l25 67l18 57q4 14 8 26.5t25 49.5l29 66l26 61l70 115q39 59 81 109.5t94 102.5t88 80.5t73 47.5l61 33q61 32 96 32h2q55 0 112.5 -36.5t78.5 -36.5q18 0 31 34l12 43q12 12 39 13q20 0 38.5 -6.5t54.5 -25.5t44 -33.5t8 -55.5 l-2 -23v-82l6 -83l-2 -66l-2 -68l-6 -77q0 -59 -16.5 -80t-57.5 -21q-127 0 -127 182l-4 60q0 25 -12 59.5t-36.5 69.5t-76.5 35q-55 0 -112 -64l-74 -78l-76 -77q-14 -14 -61 -88l-37 -62l-37 -59l-84 -154l-12 -37l-17 -33q-31 -76 -57.5 -188.5t-26.5 -177.5 q0 -162 82 -193l62 -14q61 -12 96 -12q78 0 198 36.5t194.5 83t119.5 99.5t45 92q0 33 -16.5 53.5t-44.5 20.5l-64 -8l-69 -11l-66 -14l-70 -12l-104 -25l-14 -4q-23 0 -33 14l-19 47l-16 48l-4 24q0 70 98 105l60 20l63 19l70 10l88 18l125 15l102 12l33 2l113 -6 q53 0 96 -53.5t43 -118.5q0 -37 -9.5 -45.5t-52.5 -8.5h-59l-59 -2l-4 -8q0 -16 20 -51t20 -121q0 -12 -26 -72l-19 -32q-10 -18 -24 -41t-48 -66t-88.5 -72.5t-124 -58.5t-112.5 -44t-108.5 -27.5t-133.5 -12.5q-41 0 -53 2t-74 17l-32 6l-27 4l-53 26q-6 4 -27.5 14.5 t-53.5 24t-78 61.5t-81 105l-33 64l-28 65q-16 43 -17 109z" />
<glyph unicode="H" horiz-adv-x="1431" d="M-16 1372q0 43 61 70l72 22l53 15l57 12l56 12l67 6l62 15h10q27 0 55.5 -16.5t54 -50.5t25.5 -77q0 -57 -50 -71.5t-66.5 -19.5t-27 -13t-10.5 -72v-76v-65v-8l-10 -74v-70v-69l6 -68v-39l-2 -16q0 -27 23 -27q18 0 43.5 7.5t46.5 13.5l100 16l103 14l90 17l92 12l92 10 q33 0 42 9.5t9 39.5l-4 54l-2 94l-2 90l2 94v35l-2 59l-2 89q-6 2 -20.5 7t-28.5 5q-33 0 -79 44t-46 97q0 16 7 24.5t18.5 17.5t38.5 24q14 12 26 16t35 8l39 6l69 23l72 10l74 8l31 2q102 0 118 -106l9 -70q2 -14 -45 -32q-47 -14 -66.5 -39t-19.5 -72v-37l-5 -119 l-2 -121l-2 -120v-60v-61l2 -37v-100v-91v-36l-2 -52v-77v-78l-4 -41q0 -29 6.5 -37t30.5 -8h39q31 0 58.5 -40t27.5 -79t-25 -49l-38 -15l-35 -14l-78 -22l-80 -21l-84 -6l-43 -6l-12 -2q-51 0 -88 65l-41 70q0 23 27.5 44t68.5 25t51 13.5t10 44.5l-2 39l-8 123v8l2 115 q0 30 -48 30h-3q-49 0 -148.5 -12t-183.5 -31.5t-151.5 -46t-83 -42t-15.5 -48.5l5 -61l4 -72v-21l-2 -47q0 -61 34 -61h39q16 -6 28.5 -12.5t31.5 -26.5q39 -33 39 -70q0 -27 -13.5 -43t-34 -26t-77.5 -31l-45 -16l-11 -4l-67 -7l-66 -10l-57 -10q-16 0 -51 16l-33 11 q-27 10 -47.5 43.5t-20.5 54.5q0 16 16.5 34.5t39.5 26.5l75 29q12 6 13 35l-6 65l-7 90l-4 91l-2 81l-2 43v123l-6 125v111l-4 110l-2 46l-4 65l-2 80q0 68 -8 78l-11 6l-51 12q-20 6 -36.5 16.5t-44 40t-27.5 70.5z" />
<glyph unicode="I" horiz-adv-x="583" d="M-16 1382q0 63 116 93l74 16q74 16 127 23.5t100 7.5q72 0 107 -22.5t55 -86.5l10 -27q8 -14 9.5 -19t1.5 -7q0 -27 -45 -39l-39 -8l-47 -8l-17 -7q-31 -18 -35 -45l-4 -118v-123l4 -119v-121v-119l2 -125l5 -73l2 -76l2 -80v-18q0 -45 8 -54q12 -4 25.5 -8t43.5 -8 q84 -23 84 -129q0 -31 -18 -44t-88 -32l-31 -8l-22 -6l-35 -4q-2 -2 -33 -11l-82 -14l-80 -12q-8 -2 -22.5 -4t-32.5 -2q-23 0 -29 6l-24 26l-27 29q-29 35 -29 74q0 29 12.5 41t41 23.5t40 15.5t42.5 20l26 15q8 6 8 18l-6 63l4 74q-2 18 -3 44t-9 81l-2 131l2 96v35 l-8 131v119l-6 125q0 43 -2 72.5t-2 34.5v12q0 16 -27 20l-39 6q-12 2 -60 43t-48 82z" />
<glyph unicode="J" horiz-adv-x="964" d="M0 401v33q0 90 11.5 114.5t54.5 24.5q20 0 34.5 -9t32.5 -36l35 -45l16 -71l15 -47v-41q20 -8 20 -62q0 -12 21 -53l16 -39q10 -16 26.5 -32.5t46 -38t64.5 -21.5q55 0 101.5 46t58.5 114l2 28l10 84l8 121l-6 152l-2 63l-4 96v39q0 14 -2 30.5t-2 22.5v70l-2 51l-6 107 l2 57q0 88 -10.5 95.5t-22.5 9.5t-43 2q-49 0 -67 14l-50 43l-26 18l-6 35v10l6 27q12 29 69 45l84 25l80 22l68 8l65 19l68 2l33 6l24 6q20 0 61.5 -43t41.5 -98q0 -63 -74 -82l-37 -8q-33 -6 -33 -39l2 -53l-2 -70l2 -72l2 -43l2 -43v-82v-84v-131v-133v-33q0 -98 -2 -126 q-10 -61 -12 -101l-6 -57l-2 -10l-16 -66l-19 -63q-27 -72 -94 -113q-104 -70 -215 -70q-39 0 -66 11l-39 14l-43 20l-36 29l-13 2q-10 0 -16 -3t-8 -9l-2 -25l-17 -24q-23 -31 -49 -31q-41 0 -71.5 24.5t-36.5 67.5l-9 57l-8 54v53l-6 78v80z" />
<glyph unicode="K" horiz-adv-x="1333" d="M-2 1413l2 19q6 29 20.5 37t73.5 16l74 10l55 4l58 10q33 8 75.5 12.5t81.5 4.5q33 0 44.5 -3t46 -34t34.5 -90q0 -39 -53 -58l-43 -12l-53 -16q-12 -4 -13 -33l7 -76q2 -8 0 -49t-2 -57v-115l-3 -98v-21q0 -16 3.5 -21t5.5 -7q16 0 110 94l99 96l96 98q43 45 75.5 76 t71.5 66l45 45q29 33 43 39l4 8q-4 8 -10 19.5t-22.5 30.5t-16.5 62q0 25 9.5 34t48.5 20.5t89 21.5t119.5 23.5t114.5 13.5q27 0 36 -9t17 -42l7 -37q0 -23 -29 -53l-51 -53l-43 -50l-27 -20q-12 -10 -37.5 -32.5t-57.5 -54.5l-52.5 -52.5t-42.5 -38.5l-97 -88l-47 -47 l-47 -48q-45 -37 -45 -53t35 -74l4 -4l78 -106l61 -78l17 -25l86 -102l84 -102l53 -56l49 -51l49 -55q12 -18 18.5 -50t6.5 -69q0 -47 -19 -57q-10 -10 -45 -17l-26 -2q-29 0 -54.5 15.5t-70.5 60.5l-84 86l-29 31l-53 59l-86 90l-64 74l-73 74l-66 76l-39 39 q-10 10 -21.5 21t-19.5 19q-18 0 -76 -69l-41 -43l-34 -45l-4 -37v-29l2 -51v-18l2 -66l-4 -86q0 -61 34 -61h41q20 0 55 -27t48.5 -48.5t13.5 -39.5q0 -59 -96 -82l-43 -8q-18 -6 -40 -10.5t-32 -6.5l-16 -2l-72 -6l-57 -6l-68 -8q-51 0 -90 39t-39 65q0 23 19.5 39.5 t52.5 23.5t48 11t23.5 11.5t8.5 31.5l-2 33l-2 31l-5 84l-6 172l-2 55v72l-2 43l-8 151l-2 152v131l-2 28v27q0 88 -6 119q-8 4 -23.5 9t-38.5 7q-41 0 -71.5 39t-30.5 86z" />
<glyph unicode="L" horiz-adv-x="1075" d="M0 1413q0 37 21.5 52.5t91.5 29.5l43 6l71 12h76l78 9l33 2q43 0 75.5 -6.5t60.5 -20.5t49.5 -60t21.5 -98q0 -43 -76 -49q-96 0 -111 -22q-14 -10 -14 -58l-8 -161l-11 -160q0 -61 -5 -220t-5 -180l2 -90l6 -80q0 -57 8.5 -69t45.5 -12l26 2l92 6h29l62 4l94 8h51 q31 0 41 12.5t10 51.5q0 12 3 37.5t9 68.5l13 102l14 103q16 86 57 86q51 0 101 -64q20 -33 20 -71l-4 -66l-6 -55l-6 -109l-4 -108l-2 -37l-9 -72v-16q0 -29 -11 -38t-56 -13l-76 -13l-119 -18l-118 -14l-117 -21l-115 -20l-78 -11l-75 -18l-25 -4q-39 0 -88 42t-70.5 69.5 t-21.5 50.5q0 49 59 71l29 15l12 12q2 10 4 24.5t2 45.5v34l-6 105l-4 104l4 158v160v159l-2 93v63l2 55l2 21q0 29 -11 37t-36 14l-39 14q-41 10 -65.5 43t-24.5 72z" />
<glyph unicode="M" horiz-adv-x="1845" d="M23 1401q0 51 86 67l67 13l100 14l103 6q92 0 137 -35.5t57.5 -67.5t30.5 -126l31 -131l10 -33l23 -102l34 -132l19 -51l10 -26l8 -27l15 -53q18 -61 30.5 -96t26.5 -66l20 -51q14 -41 31 -47q8 0 23.5 28.5t23.5 59.5l41 84l39 86l68 157l69 156q96 209 152 307l86 148 q29 51 54.5 63.5t105.5 12.5l20 -3l115 -2q23 0 52.5 -6t57.5 -16l33 -12q23 -18 37 -54t14 -80q0 -29 -17 -43t-58 -14q-61 0 -81 -21.5t-20 -88.5q0 -39 4 -56q-6 -61 -10 -129.5t-4 -156.5l-4 -185l-2 -47v-88q0 -29 -1 -54.5t-1 -45.5v-31q-6 -18 -8 -41t-2 -49 q0 -63 49 -64h49q16 0 60 -44t44 -74q0 -39 -61 -62l-53 -16l-68 -13l-82 -14q-23 -4 -56.5 -8t-60.5 -4q-41 0 -59 4t-45 16q-27 16 -44 44t-17 55l2 8q6 25 49 43l61 20q31 10 42 20.5t11 28.5v31v25q-4 16 -4 24l-2 105l-2 104v103v135l2 135v137v135l-8 2 q-14 0 -35.5 -33.5t-40.5 -84.5l-34 -60l-91 -186l-30 -62l-29 -59l-29 -70l-180 -376l-22 -54q-18 -35 -33 -43q-10 -10 -60 -16l-30 -2q-70 0 -115 67l-39 56q-12 23 -26.5 52.5t-22.5 49.5l-39 107l-43 106l-76 213l-37 103l-41 110l-4 -4q-12 -12 -12 -70v-38 q2 -8 -1 -49.5t-3 -61.5l-4 -113v-20v-88l-2 -131l-2 -88v-45v-56q0 -57 4 -73q0 -6 10 -12.5t27 -6.5q39 0 50 -4t49 -35t38 -106q0 -41 -19.5 -54.5t-110.5 -23.5t-175 -10q-104 0 -160.5 37.5t-56.5 105.5q0 35 58 41t72.5 22.5t14.5 65.5l-4 123l4 139v76v49v12v142 q0 18 2 64t2 54l4 117v119q8 43 9 86q0 45 -31 53l-35 6q-41 6 -72.5 50.5t-31.5 97.5z" />
<glyph unicode="N" horiz-adv-x="1503" d="M0 1403q0 80 170 80q63 0 82 8l55 8l51 -4h58q35 0 71.5 -36t53.5 -87l14 -55l29 -49l45 -97l45 -96l43 -96l45 -96l49 -95l45 -100l47 -94l53 -96l31 -58l33 -55q39 -61 65 -61q16 0 22.5 13t6.5 52l-2 47l2 94v37l2 62v239l8 133l6 134l13 129q2 8 -9.5 12t-29.5 4h-45 q-35 0 -61.5 47t-26.5 78q0 37 16.5 51t49 20t47 8.5t32.5 10.5l64 18q10 6 69 13l84 4q170 0 170 -158q0 -35 -80 -50t-92 -28.5t-12 -142.5q0 -76 4 -251t4 -187l2 -45l-2 -66v-117l-4 -36v-78v-115l6 -152q0 -41 -11 -63.5t-55 -48t-85 -25.5q-63 0 -90 22.5t-44.5 46 t-39.5 54.5l-101 146l-90 149l-72 127l-16 29l-57 94l-70 127l-41 74l-88 178q-6 14 -12 27.5t-13 21.5l-6 14l-37 62l-8 -9q-16 -14 -16 -92q0 -39 4 -71.5t4 -69.5q0 -47 -4 -82t-4 -55q0 -23 -2 -85.5t-2 -103.5v-139q0 -37 -2 -49l-6 -119q0 -53 6 -67.5t30 -14.5l39 -6 q31 0 57.5 -21.5t41 -55t14.5 -60.5q0 -49 -90 -70l-29 -6l-63 -14l-82 -6l-76 -2q-35 0 -74 10t-67.5 28.5t-28.5 73.5v13l4 53q0 8 16.5 16t67.5 21.5t51 56.5l-6 70l-2 96v92l2 508v55v23v45l-2 28l2 35l-4 43q-6 14 -42 24.5t-54.5 23t-27.5 25.5t-28.5 54t-19.5 68z " />
<glyph unicode="O" horiz-adv-x="1490" d="M59 649q0 348 211 610.5t492 262.5q106 0 219 -45t282 -187.5t169 -496.5q0 -68 -7.5 -115t-16.5 -106.5t-24.5 -104.5t-44.5 -100l-55 -97q-39 -70 -65 -94l-89 -72l-53 -45l-63 -30l-53 -21l-105 -31q-80 -16 -131 -16q-127 0 -230.5 27.5t-156.5 68.5t-67.5 53.5 t-56.5 57.5t-73.5 119.5t-41 101.5t-16.5 55.5t-15.5 94t-8.5 110.5zM326 561q0 -90 28.5 -177t73.5 -149.5t117.5 -97.5t148.5 -35q201 0 349.5 218.5t148.5 521.5q0 49 -7 103t-23.5 125t-41 116t-69.5 85t-99.5 59.5t-128.5 19.5t-114.5 -13.5t-94 -51.5t-87 -70.5 t-79 -100t-84 -217t-38.5 -297.5v-39z" />
<glyph unicode="P" horiz-adv-x="1300" d="M0 1380q0 39 13.5 54.5t58.5 27.5l63 15l51 14l11 2l61 8l64 10l61 13l106 2l103 4h10q55 0 138 -12.5t141 -26.5l32 -12l31 -11l60 -36l55 -31l26 -21q14 -12 31 -33.5t51 -68.5l41 -55q76 -102 76 -205q0 -88 -52 -168t-87 -111l-84 -63l-86 -66q-16 -12 -52 -30.5 t-97.5 -46t-145.5 -58.5t-123 -39l-145 -33q-14 -8 -15 -49v-26l2 -33l-2 -29l-4 -41q0 -33 37 -39l41 -4q25 -2 53.5 -37.5t37.5 -57t9 -42.5q0 -39 -69 -53l-68 -17q-43 -8 -68.5 -12t-70.5 -8l-72 -4l-53 -2q-39 0 -96.5 35.5t-57.5 107.5q0 63 76 64q53 4 68.5 14 t15.5 41l-2 117v139v141v142l6 141v41v33q-4 20 -4 28q0 12 -2 54.5t0 50.5q2 10 4 38.5t2 30.5q0 25 -6 35t-29 19l-71 26q-29 8 -51.5 49t-22.5 84zM406 692l2 -49q10 -16 36 -16q25 0 70 10q10 6 32.5 11t58.5 11.5t62.5 14.5t59.5 26l64 37l63 39q96 70 159.5 165 t63.5 171q0 82 -95 144.5t-216 62.5q-49 0 -160.5 -17.5t-141.5 -37t-34 -56.5l-14 -159l-4 -97l-2 -39l-2 -137z" />
<glyph unicode="Q" horiz-adv-x="1492" d="M57 698l2 56l13 77l16 107q18 78 45 139.5t73 139t64.5 100t56.5 59.5t52 51.5t47 38.5q57 49 140 82t149 33l28 -4l95 -37l108 -29q27 -6 80 -35.5t141 -93t138.5 -134t67 -109.5t42.5 -135l12 -64l5 -90l4 -55q0 -240 -113 -465.5t-264 -290.5q-18 -6 -19 -29 q0 -20 47 -73l48 -54q37 -43 65 -53l31 -14q29 -10 29 -35q0 -27 -35 -52.5t-70 -40t-63 -14.5q-31 0 -50.5 15.5t-89.5 95.5l-75 84l-5 4l-73 92l-19 8l-155 2q-29 0 -80 17.5t-144.5 56.5t-131.5 72t-99 126t-78.5 172t-26 153.5t-8.5 125.5zM299 575q0 -170 51 -260 t109.5 -139t101.5 -49l51 -6l39 -4q29 0 29 14q-2 6 -3 11.5t-11 19.5l-15 26q-27 43 -36 65.5t-9 41.5q0 59 78 59q96 0 160 -84l26 -34q16 -27 35 -27q18 0 56 37l49 53q12 12 29.5 44t41 79t42 102.5t39 149.5t20.5 168q0 96 -16.5 182t-26 109.5t-47 80t-54 78t-63.5 58 t-131 36.5q-53 0 -122 -24.5t-119 -62t-124 -150.5l-51 -82q-33 -59 -63.5 -140t-48 -160t-17.5 -192z" />
<glyph unicode="R" horiz-adv-x="1443" d="M-10 1368q0 29 14 42t31.5 19.5t34.5 12.5l67 26l60 29q20 4 55 4q23 0 96.5 19.5t101 23.5t103.5 11.5t118 10.5t60 3q96 0 218 -37t202 -90q63 -39 96 -72l72 -90l31 -43q12 -14 18 -45t6 -68q0 -129 -96 -221t-171 -146.5t-126 -74.5t-63.5 -28.5t-12.5 -20.5 q0 -33 88 -96l90 -82l91 -78l79 -68l82 -61q41 -23 58.5 -34t27 -20.5t9.5 -48.5q0 -78 -66 -86l-80 -12l-67 37l-58 41l-12 6l-109 82l-24 16l-84 64l-109 82l-108 82l-56 41l-51 47l-8 2l-53 -10q-16 -8 -30.5 -10.5t-29.5 -2.5l-20 2q-39 0 -49 -8t-10 -39l6 -71 q6 -37 6 -74q0 -20 -2 -31l-4 -59l2 -33q4 -12 15 -17.5t46 -5.5q23 -4 35 -12l20 -8q8 -6 18.5 -16.5t33 -38t22.5 -64.5q0 -45 -55 -61l-51 -15l-78 -22l-80 -8l-74 -6h-10l-66 8l-71 4q-20 0 -50 33.5t-30 89.5q0 31 62.5 45t78 25.5t15.5 41.5q0 35 -9.5 83t-9.5 110v45 v133v121l-8 438v55v13q0 33 -6 41t-37 8q-55 0 -95 40t-40 97zM391 797q0 -59 35 -60l72 13l71 18q35 8 115 40t107.5 48t57.5 35.5t96.5 66t103 79t73.5 82.5t37 116q0 39 -27.5 72.5t-52 43t-45 12.5t-53.5 3l-86 6l-25 -2l-61 -4l-80 -6l-76 -19l-75 -14l-21 -8l-37 -10 q-90 -33 -102 -55.5t-12 -98.5v-27l-3 -65l-2 -57l-2 -129q-8 -35 -8 -80z" />
<glyph unicode="S" horiz-adv-x="1271" d="M86 1061q0 166 77 275.5t109.5 144.5t94 83t150.5 85t155 37q35 0 95 -14.5t103 -32t62.5 -27.5t44.5 -43l14 45l13 37q14 30 51 30h2q53 0 88 -39l18 -28l8 -33l5 -70l4 -69v-12v-68v-74q2 -20 2 -34.5v-26.5v-21l-13 -80q-6 -43 -11 -59t-10 -22.5t-38 -6.5 q-43 0 -94 64q-25 37 -31 54.5t-6 62.5v10v28q0 14 -4 43l-10 56l-11 49q-2 12 -33.5 53t-119.5 41q-47 0 -97.5 -19.5t-116 -58.5t-122.5 -88t-114.5 -138t-57.5 -140q0 -39 20.5 -76t53 -65.5t69.5 -45.5l72 -39q70 -37 104 -49l107 -49l106 -51l84 -41q16 -2 67.5 -34 t65 -41t43 -31.5t60.5 -74.5t31 -98q0 -66 -72 -165t-152 -151t-186 -69l-49 -6l-43 -6l-12 -2l-84 4q-45 0 -61.5 2t-29.5 8l-84 27l-47 10l-45 17l-18 -19l-25 -80q-2 -14 -30 -14q-8 0 -21.5 4t-36.5 19l-39 24q-18 12 -24 74l-8 78l-3 28v52v102v70v32l-4 97q0 39 50 39 q10 0 19 -2.5t55 -25t46 -44.5v-31q0 -29 13.5 -69.5t17.5 -51t22.5 -47.5t53.5 -58.5t74 -25.5l59 -8l61 -6l56 6l51 8q27 2 57 17l58 22q68 27 89 43.5t21 42.5q0 33 -82 84l-86 55l-90 50l-86 57q-12 8 -39.5 23.5t-76 41t-125 75.5t-155.5 127t-79 243z" />
<glyph unicode="T" horiz-adv-x="1165" d="M0 1040v52l2 110v45l2 68v22q0 88 16.5 110.5t92.5 39.5l73 14l76 10l74 9l98 16l105 8l96 17l53 8l31 6l84 6l86 12q18 4 59 6.5t88 2.5q68 0 92.5 -25t24.5 -94l2 -60v-26v-56v-61l2 -47l2 -39l6 -68l2 -49q0 -67 -73 -67h-2q-63 0 -110.5 73.5t-47.5 188.5l-2 39 q0 23 -10.5 40t-20.5 17l-76 -14l-75 -19q-35 -4 -35 -176l-8 -123l-7 -127l-2 -84q-4 -18 -4 -35.5v-27.5v-27v-90q0 -41 2 -81t2 -62l2 -66l5 -78q0 -84 7 -110.5t64 -26.5q23 0 54.5 -14t66.5 -47t35 -88q0 -25 -15.5 -37t-58.5 -23l-59 -12l-60 -12l-61 -15l-60 -16 l-67 -2l-62 -8h-8q-47 0 -69.5 3t-40.5 13q-14 4 -45 35t-31 72q0 61 77 73.5t92 25.5t15 44l-6 53q-8 37 -8 215l-2 92v91v53v37l-2 88l-2 88l-2 117l-2 75l-2 43l2 80q0 33 -5.5 49.5t-41.5 16.5l-62 -13q-16 -8 -61 -8q-37 0 -58 -12q-34 -34 -34 -142v-6q0 -63 -7 -75 l-16 -62q-12 -51 -22.5 -61t-47.5 -10q-45 0 -66.5 20.5t-25.5 27.5t-6 11z" />
<glyph unicode="U" horiz-adv-x="1456" d="M-37 1335q0 59 150 86l135 25q61 10 100 15t66 5q76 0 120 -37.5t44 -107.5q0 -51 -48 -61l-110 -31q-10 -2 -14.5 -28.5t-4.5 -102.5l2 -33l-2 -39l-2 -113l-2 -151v-84l2 -121l4 -45l11 -98l14 -95q16 -104 77.5 -167.5t149.5 -63.5q111 0 177.5 36t113.5 122t66 215 l14 114l12 195v12l-2 88l2 91l2 94l-4 94l2 68q0 70 -43 75l-71 15q-31 4 -59.5 39.5t-28.5 83.5q0 20 22.5 32.5t52.5 20.5l70 22l10 2l84 23l45 10l25 6l74 6l69 13h19q53 0 93 -38t40 -89q0 -23 -16.5 -41.5t-28.5 -24.5l-62 -22l-61 -23q-10 -27 -10 -41l2 -29l4 -135 l6 -135v-24v-113l2 -135v-56v-16l-8 -76l-2 -73l-13 -74l-22 -103q-4 -29 -50 -120t-83 -117l-54 -35l-53 -39l-53 -18l-55 -17l-60 -6l-86 -12l-53 -2q-117 0 -186.5 39t-117.5 79t-72.5 69.5t-40 62t-23.5 53t-17 43.5l-16 92l-27 148l-8 55q-14 152 -14 246l-2 151l-2 66 l2 63l2 29q0 31 -7.5 39t-53.5 13t-74 30l-37 51q-27 39 -27 55z" />
<glyph unicode="V" horiz-adv-x="1452" d="M-31 1374q0 16 41 35l47 16l68 7l68 12l63 12l96 12l92 15l48 4q45 0 75.5 -37t30.5 -90q0 -41 -45 -66l-43 -20l-47 -21l-49 -16q-8 -2 -8 -20q0 -33 26 -95l27 -102l26 -107l23 -88l14 -63q33 -117 53.5 -176.5t42.5 -122.5l54 -146q4 -8 8 -11t8 -3q8 0 18.5 18.5 t14.5 49.5l24 67l15 33l14 37l72 164l67 166l45 102l27 64q57 141 74 163q80 131 80 150q0 12 -7.5 17t-34 15.5t-33.5 17.5t-26 38l-24 43q-25 39 -25 59q0 43 103 52q33 0 49 3t86.5 22.5t95.5 19.5q70 0 115 -37t45 -99q0 -82 -61.5 -90t-71 -16t-22.5 -42t-16 -40 t-18 -29l-28 -59l-66 -158l-63 -157l-64 -158l-63 -156l-64 -157l-24 -66l-15 -31l-12 -35l-31 -63l-20 -74l-27 -74l-24 -73q-14 -51 -54 -51q-20 0 -55 14l-61 22q-63 25 -80 54l-41 80l-49 131l-33 88l-39 110l-37 117l-41 119l-31 119l-32 104l-27 104l-27 107 q-10 78 -20 96.5t-47 18.5h-39q-25 0 -48.5 17t-35.5 46q-27 49 -27 88z" />
<glyph unicode="W" horiz-adv-x="2043" d="M-18 1421q0 39 53 49l57 11l27 4l74 18l102 17l102 8l33 2q53 0 72 -12l35 -41q24 -34 24 -58q0 -22 -6 -30l-14 -39l-62 -33l-65 -19q-10 -8 -11 -34l3 -25q4 -33 6 -50.5t2 -60.5l6 -110l6 -62l4 -49l12 -108l11 -107l8 -102l10 -105q0 -39 3 -64.5t9 -41.5l9 -33 l30 68l27 71l26 68l56 154l24 61q25 72 75 197t79 192l61 150q14 35 24.5 45t35.5 12l43 8q16 8 24.5 10t14.5 4l41 -14l47 -18l43 -37l8 -35l14 -33q2 -8 8.5 -44t6.5 -70q0 -41 6 -69t8 -48l16 -113l17 -74l12 -73l12 -74l27 -121l25 -121q12 -61 26 -93t19.5 -37t7.5 -7 q4 0 22.5 46t36.5 93l23 68l57 164l37 117l45 131l49 131l47 127l51 110l2 8q0 20 -18 21l-72 6q-35 0 -53 39l-33 66q-20 37 -20 61q0 18 35 25l34 4l50 12l51 12l55 10l57 9l60 10q4 2 26.5 2t36.5 2q49 0 67.5 -4t36 -23.5t36 -68.5t18.5 -70q0 -18 -20 -31l-52 -22 l-49 -23l-41 -10q-14 -6 -30.5 -53t-26.5 -125l-64 -174l-61 -176l-61 -176l-15 -37l-45 -140l-18 -49l-11 -57l-26 -57l-21 -60l-28 -76l-27 -73l-31 -78q-25 -31 -63 -31q-14 0 -57 13.5t-76 25.5t-39 19l-27 30l-30 29l-25 65l-27 72q-10 35 -22.5 85t-16.5 64.5t-10 44 t-12 60.5l-14 62l-25 157l-27 162l-10 64l-4 14l-20 78l-25 -33l-41 -86l-37 -74l-8 -16q-12 -27 -22.5 -50.5t-14.5 -37.5l-27 -64l-28 -65l-25 -68l-43 -115l-41 -112l-31 -121l-26 -68l-21 -71q-12 -39 -27.5 -60.5t-68.5 -21.5l-63 10l-27 8h-8l-31 23l-35 22 q-8 8 -16 56l-21 120l-12 133l-18 127l-17 134l-14 108q-2 27 -6 60.5t-4 50.5l-6 108l-13 82l-10 82l-10 84l-4 41v12q0 49 -13 54l-61 20q-8 2 -21.5 13.5t-48 49t-34.5 76.5z" />
<glyph unicode="X" horiz-adv-x="1503" d="M-18 129q0 23 45 37l45 16l69 8l68 13l37 47l92 131q18 29 35.5 55.5t25.5 34.5l62 86l61 88l64 84q6 14 -13 41l-71 111l-82 137l-84 137q-63 98 -70.5 117.5t-15.5 26t-33 6.5h-10l-51 -7q-31 0 -59.5 27t-41.5 68l-12 51q0 20 19.5 32.5t76.5 28.5l13 2l92 19l88 22 q72 14 182 15q72 0 91.5 -11.5t36.5 -55.5t17 -71q0 -53 -75.5 -65t-75.5 -31q0 -18 27 -51l20 -41l10 -12l17 -27l43 -63q43 -59 56 -96.5t29.5 -64t28.5 -26.5q25 0 51.5 42t55 76t63.5 73q53 53 77 76.5t33 34t9 28.5q0 12 -45 27q-31 6 -39 24l-18 37l-19 35v10 q0 18 11 31l20 26q27 14 121 27l84 14l157 21l105 8q115 0 115 -123q0 -53 -15.5 -84t-30 -36t-71.5 -11q-41 0 -84 -43l-92 -90l-90 -96l-74 -80l-16 -19l-89 -100q-57 -63 -77 -94l-7 -19q0 -18 33 -59l86 -127l92 -123l35 -47l60 -78q59 -86 80.5 -107.5t46.5 -21.5l47 4 l35 4q108 0 108 -140q0 -40 -54 -57.5t-79 -22.5t-47 -5l-98 -10l-84 -4h-88l-84 2q-31 8 -57.5 47t-26.5 61q0 45 60 54t60 28q-4 6 -10 16.5t-14 18.5l-27 37l-35 49l-30 47l-37 47l-43 64l-31 47l-10 16q-23 33 -33 45.5t-16 16.5l-6 -6l-64 -82l-25 -29l-40 -53l-43 -60 l-19 -24q-20 -25 -35.5 -48.5t-21.5 -31.5q6 -6 15 -12t51 -25.5t42 -107.5q0 -43 -29.5 -61.5t-123.5 -33.5l-80 -8q-27 -6 -47.5 -7t-30.5 -3l-53 -4q-221 0 -221 180z" />
<glyph unicode="Y" horiz-adv-x="1396" d="M-29 1499q0 18 30 32.5t108.5 29t136.5 14.5h22l70 -6l70 -4q25 0 49 -29q14 -25 24.5 -51.5t10.5 -48.5q0 -33 -20.5 -54.5t-57.5 -25.5q-41 -8 -41 -19l4 -16l22 -37l54 -86l71 -125l41 -67l35 -56l74 -119q4 -6 10 -10t10 -4q12 0 31.5 34t36.5 79l65 110l70 111 l74 111l12 53l-55 -2q-37 0 -64 57q-10 16 -14 32.5t-4 35.5q0 63 100 86l205 32q141 18 164 19q112 0 112 -123q0 -31 -13 -63.5t-27.5 -43t-51.5 -10.5h-8q-47 0 -61.5 -10t-42.5 -61l-47 -70q-29 -41 -48.5 -71.5t-29.5 -49.5l-27 -47l-31 -51l-69 -135l-27 -47 q-4 -4 -20.5 -38t-28.5 -61l-49 -98q-35 -80 -35 -180l2 -23v-90q-10 -45 -10 -76t39 -30l39 4h14q47 0 86 -43t39 -97l-2 -10q-6 -18 -33 -26l-39 -15l-92 -28l-94 -17l-101 -8l-79 -6h-19q-43 0 -59.5 8t-62.5 53t-46 72q0 61 84 70.5t94.5 21.5t10.5 66l-4 88v45v47l2 37 l-5 59l-45 103q-10 25 -17 39t-34 55l-61 96l-41 68l-41 69l-43 66l-55 102l-66 96l-59 99q-6 10 -50 10q-31 0 -56 19.5t-25 41.5l-7 62z" />
<glyph unicode="Z" horiz-adv-x="1236" d="M29 78v20q10 45 38.5 110.5t59.5 117.5l63 108l62 109q33 55 147 205l76 102l21 29l53 75l69 82l13 19l53 65l70 82l69 80q41 47 41 68l-12 10l-57 -6l-68 -15l-63 -12l-93 -20l-82 -15l-122 -12q-45 -4 -59.5 -22.5t-14.5 -71.5q0 -10 -1 -23.5t-7 -42.5l-9 -67l-6 -64 l-12 -61q-6 -51 -15.5 -65.5t-49.5 -14.5q-109 0 -109 145l4 99l2 22l10 98l6 78l5 39q6 51 22 76q14 31 52 45t139 35l86 20l133 29l24 6l107 21q94 20 162 20q82 0 119.5 -18.5t60 -34t50.5 -34.5t68 -67.5t40 -83.5q0 -61 -39 -104l-54 -55l-75 -92l-60 -74l-94 -107 l-57 -63l-35 -45l-84 -113l-103 -123q-33 -41 -70.5 -94t-111.5 -158.5t-93 -138.5t-19 -51q0 -35 32 -35q27 0 181 41l114 23l115 14l117 20l34 11q23 10 30 20t9 39l7 39l2 37l2 67l24 107l17 78q10 35 34.5 65.5t46.5 30.5l11 -2l47 -37q27 -18 35 -32.5t8 -39.5 q0 -68 -4 -126t-17 -123l-6 -39l-6 -74l-10 -76q-16 -72 -70 -100l-114 -21l-117 -22l-119 -17q-10 -2 -41 -7t-68.5 -15t-79.5 -20.5t-57 -12.5l-125 -27q-25 -4 -56.5 -10t-47.5 -6q-25 0 -55 19l-35 18l-41 59l-37 58l-4 4z" />
<glyph unicode="[" horiz-adv-x="854" d="M199 -346v1884q0 25 26 25h549q6 0 15.5 -5.5t9.5 -15.5v-133q0 -27 -27 -27h-364q-27 0 -27 -26v-1520q0 -27 27 -26h364q27 0 27 -27v-129q0 -25 -27 -25h-547q-27 0 -26 25z" />
<glyph unicode="\" horiz-adv-x="1193" d="M104 1522h232l754 -1557h-234z" />
<glyph unicode="]" horiz-adv-x="854" d="M55 -217q0 27 27 27h364q27 0 27 26v1520q0 27 -27 26h-364q-27 0 -27 27v129q0 25 27 25h547q27 0 26 -25v-1884q0 -25 -26 -25h-551q-6 0 -14.5 5.5t-8.5 15.5v133z" />
<glyph unicode="^" horiz-adv-x="466" d="M-31 1225q0 57 58 82l159 63q31 14 47 14t48 -14l159 -61q57 -25 58 -82q0 -41 -26 -66.5t-66 -25.5q-20 0 -33 6l-140 55l-141 -55q-12 -6 -33 -6q-39 0 -64.5 25.5t-25.5 64.5z" />
<glyph unicode="_" horiz-adv-x="1024" d="M-12 -154h1048v-102h-1048v102z" />
<glyph unicode="`" horiz-adv-x="444" d="M-35 1315q0 39 25.5 62.5t64.5 23.5q20 0 33 -6l223 -86q59 -27 60 -84q0 -39 -27 -63.5t-65 -24.5l-33 6l-221 86q-27 12 -43.5 34.5t-16.5 51.5z" />
<glyph unicode="a" horiz-adv-x="1083" d="M59 188q0 39 4.5 56.5t30.5 64.5l41 68q10 14 70.5 64.5t146.5 86.5l97 41q20 8 57 22.5t41 14.5l188 45q2 10 4 23.5t0 23.5l-4 47l-6 62q-8 57 -27.5 79.5t-64.5 22.5q-55 0 -133 -43t-166 -121l-82 -73q-47 -41 -100 -41q-61 0 -62 61q0 41 32 89t107 124l86 78 q117 92 261 92q76 0 122 -31l58 -38l59 -35q43 -27 78 -122t35 -192v-145l2 -104v-76q0 -23 -2 -31l-6 -65q0 -47 14 -48l86 -4q33 -4 52.5 -34.5t19.5 -51.5q0 -37 -35 -59q-72 -39 -127 -61.5t-84 -22.5q-84 0 -96.5 52t-26.5 52l-16 -2l-103 -45q-25 -12 -106 -28 q-98 -16 -150 -17q-86 0 -125 21l-30 18l-35 14q-45 16 -75 64.5t-30 103.5zM254 168q0 -25 94 -25q29 0 52.5 3.5t64.5 11.5l76 12l69 27q76 29 91.5 39t36 42.5t20.5 73.5q0 37 -12.5 57.5t-34.5 20.5q-14 0 -49 -13.5t-66 -25.5l-117 -51q-27 -10 -52.5 -23.5 t-61.5 -40.5l-64 -49q-27 -23 -37 -35t-10 -24z" />
<glyph unicode="b" horiz-adv-x="1218" d="M-33 1473q0 16 28 30.5t97 32.5l68 16l67 21l41 6q39 0 70 -43q51 -55 51 -98l-10 -58l-4 -61l-2 -62l-2 -79q0 -31 -3 -53.5t-3 -28.5l-5 -43q0 -45 25 -45l84 8h14h19q41 0 73.5 -8.5t75.5 -18.5l82 -16q78 -16 96.5 -22.5t85 -37t128 -84t88 -117t26.5 -126.5 q0 -90 -80 -213t-182 -187l-82 -51l-80 -49l-86 -37l-86 -33q-25 -8 -65.5 -15t-94.5 -13l-24 -4l-66 -9l-39 -4q-20 -4 -46.5 -4t-45.5 -2q-70 0 -95.5 15.5t-41.5 51.5t-16 72q0 53 79 72q59 18 60 57q0 16 -1 37t-8 61t-8.5 95t-1.5 94v55l5 99l-5 96v100l-2 78v27.5 t7 52.5l2 80l-7 70v37.5t7 37.5l4 52l-2 18q0 12 -15 23h-75q-41 0 -70 36.5t-29 90.5zM350 285q0 -49 6 -67.5t25 -18.5q23 0 35 4q4 4 54 11t126 38t117 58.5t67.5 50t57.5 49.5q41 43 63.5 68.5t35.5 46t28.5 62.5t15.5 58v8q0 70 -108.5 123t-217.5 53q-74 0 -152.5 -18 t-119.5 -47q-29 -14 -29 -35l-2 -121v-133v-129z" />
<glyph unicode="c" horiz-adv-x="1040" d="M59 412q0 129 44 244.5t113 202.5t111 122t85 57.5t96 39t78 16.5l59 -11q82 -23 115 -49q16 6 16 10l12 54q10 37 41 37t64 -22.5t43 -46.5t10 -79v-47l-10 -119l-4 -73l-2 -43q0 -100 -60 -101q-41 0 -63 23q-20 12 -31 39l-20 184q-2 6 -6.5 13t-20.5 27.5t-57 20.5 q-47 0 -110.5 -41t-117 -100t-85 -104t-56 -96.5t-47.5 -135.5t-23 -139q0 -59 23 -87t76 -42t117 -14l73 6q63 12 94 19t52 18l57 26l55 31l49 37q90 61 117 61q37 0 37 -82q0 -39 -16.5 -68.5t-59.5 -62.5l-39 -31q-53 -39 -71.5 -51t-72.5 -40.5t-105.5 -41t-116.5 -12.5 h-29q-12 0 -45 4l-61 10q-61 16 -89 32t-75 60t-60.5 62t-39 80.5t-35 104.5t-9.5 98z" />
<glyph unicode="d" horiz-adv-x="1183" d="M57 338q0 133 70 288.5t202 262t208.5 141.5t136.5 35q51 0 71.5 -18.5t28.5 -23.5t19 -9q4 4 9 19.5t5 39.5q0 27 -2 41q-6 16 -9 41t-3 59q0 14 4 35l6 82q0 43 -31 45l-67 6q-43 4 -77 38t-34 73q0 25 19.5 38t70.5 28q123 28 182 28h4q143 0 144 -139v-10l-4 -82 l-2 -158v-121v-84v-55l-2 -137v-82v-51l2 -129l-7 -131l7 -68v-66l-2 -32q0 -33 10 -43.5t49 -10.5h25l18 2q47 0 71.5 -30.5t24.5 -85.5q0 -35 -13 -46.5t-69 -23.5l-80 -20q-80 -16 -122 -17q-59 0 -76 33l-31 47l-43 -4l-72 -31l-75 -16l-80 -16h-17l-69 4l-90 16l-76 33 q-96 41 -127 64.5t-62 82.5q-45 78 -45 158zM236 256q0 -43 37.5 -68.5t50.5 -27.5q43 -16 135 -17q86 0 180 43q88 36 106 54l27 24q25 23 27 41l4 55v11v82l4 82v67q0 276 -100 277q-51 0 -132 -63.5t-140.5 -140.5t-116 -168t-68.5 -126l-8 -62z" />
<glyph unicode="e" horiz-adv-x="1046" d="M57 414q0 319 155 464.5t197 170t119.5 52t133.5 27.5q31 0 45 -4t45.5 -21.5t48 -28.5t55.5 -48l51 -45q68 -82 68 -201q0 -162 -13.5 -214t-115.5 -66l-29 -4l-49 -4l-117 -25l-88 -21l-143 -30l-92 -23q-68 -14 -85.5 -25.5t-17.5 -39.5q0 -186 140 -187l102 4 q43 8 109.5 28t101.5 38l96 53l53 27l52 26q10 6 26 7q31 0 50.5 -24t19.5 -60q0 -43 -21.5 -64.5t-56.5 -49.5t-79 -54.5t-155.5 -65.5t-187.5 -39q-170 0 -294 120t-124 327zM281 573l4 -12l20 8l86 15l8 2l101 20l108 23q131 31 142 43q22 15 22 100v8v78q0 45 -31 90 q-18 23 -39 23q-29 0 -118 -49l-62 -39l-57 -52q-16 -14 -39 -36.5t-45 -46.5l-25 -33l-39 -64q-37 -57 -36 -78z" />
<glyph unicode="f" horiz-adv-x="735" d="M-47 766q0 115 133 137.5t151.5 35.5t27.5 55t9 110q0 94 42 218t103.5 206t196.5 82q43 0 61.5 -4t76.5 -27l53 -20l47 -31l37 -25q37 -18 37 -59q0 -57 -49 -58q-20 0 -56 13l-43 16l-18 6l-41 4q-61 0 -89 -10t-58.5 -52t-49.5 -108l-28 -120l-17 -109q0 -39 31 -39 l63 8q6 4 23 4q84 0 118 -18t34 -68q0 -18 -13.5 -42.5t-27.5 -32.5l-78 -19l-76 -20q-59 -12 -73.5 -26.5t-14.5 -61.5v-35l-6 -115v-37l-2 -78l-2 -69v-45l-6 -103q0 -12 11 -19t54 -24.5t65.5 -53.5t22.5 -89q0 -12 -4 -20.5t-20 -12.5l-99 -14l-104 -19l-105 -8l-73 -4 q-41 0 -73 32t-32 73q0 25 40 53.5t63 30.5l34 8q14 10 15 63v29l-2 49v49l2 123v60v51l2 82q0 41 -19 51l-59 -8l-62 -11l-61 -12h-10q-31 0 -56.5 23.5t-25.5 54.5z" />
<glyph unicode="g" horiz-adv-x="1185" d="M57 283q0 33 3 68.5t20 82.5l37 107l47 106q33 63 88 136t158.5 165t261.5 92q72 0 115.5 -31.5t56.5 -31.5q4 4 6 9t9 42t67 37l47 -4l57 -2h8h62q45 0 81 -40t36 -89q0 -68 -89 -68q-55 0 -68 -13t-13 -63l-3 -94l-2 -84l2 -104l11 -297l2 -62l2 -118l-2 -127 q0 -135 -9.5 -211t-24.5 -124t-30 -67q-16 -33 -36.5 -47t-79.5 -41q-86 -33 -162 -33h-8l-70 2l-64 3l-63 12l-57 10q-27 4 -37 5t-19 5q-53 8 -140 40t-87 87q0 37 33 37h8l227 -45q18 -4 63.5 -8t78.5 -4q111 0 164 27.5t69 93.5q2 18 7 42.5t5 34.5q6 39 13.5 109 t7.5 80q0 86 -33 86q-12 0 -40 -10.5t-52.5 -22.5t-76.5 -21.5t-76.5 -11.5t-49.5 -2l-74 4q-106 12 -147 35q-37 16 -89 56t-101.5 95.5t-49.5 166.5zM250 197q0 -98 184 -99q37 0 66.5 4t77 16.5t68 20.5t105.5 56.5t85 85.5l-7 161v17l2 69l5 90v41q0 84 -34 145.5 t-81 61.5q-57 0 -152.5 -85t-179.5 -212t-111.5 -228t-27.5 -144z" />
<glyph unicode="h" horiz-adv-x="1261" d="M-36.5 1443q22.5 15 91.5 32l70 18q63 20 100 20q84 0 121 -47t37 -155q0 -80 -2 -150.5t-7 -105.5t-6 -45.5t-1 -36.5q0 -47 32 -47l21 2l110 24l74 6q143 0 231.5 -45t120 -66.5t62.5 -47t53.5 -74.5t30.5 -102l14 -111q8 -51 8 -90q0 -18 -2 -25l-2 -67 q0 -37 8.5 -49.5t38.5 -14.5l41 -8q29 0 60 -57q12 -18 12 -41q0 -45 -39 -66l-41 -12l-78 -6l-65 -10h-10l-60 -3h-65l-66 3q-49 0 -83 37.5t-34 60.5q0 39 68 59l63 21q43 12 43 45l-4 35l-6 125l-4 65l-4 61q-2 31 -9 64t-28.5 102.5t-124.5 69.5q-29 0 -53 -8l-107 -23 l-100 -39q-43 -14 -70.5 -31.5t-27.5 -66.5l2 -22l-2 -70q-6 -51 -8 -101.5t-2 -97.5q0 -162 20 -168l70 -14q23 -2 41 -31.5t18 -62.5q0 -39 -23.5 -60.5t-89.5 -35.5l-106 -23l-109 -4h-26q-63 0 -83 10t-49.5 41t-29.5 55q0 45 55 62l82 26q8 6 8 46l-2 51v86l6 444v66 l-2 65l2 68l-2 94v60.5t2 37.5l7 66q0 45 -23 45l-57 -4q-53 0 -97 47q-36 44 -36 76q0 33 22.5 48z" />
<glyph unicode="i" horiz-adv-x="522" d="M-29 889q0 43 64 67l45 17l72 20l59 17l57 8l60 -31q47 -29 47 -78v-8l-8 -151l-2 -150l-5 -147l-2 -154v-31v-16q0 -39 7.5 -45t49.5 -12.5t68.5 -48.5t26.5 -95q0 -23 -45 -42t-111 -19l-90 -8l-92 -7h-8q-61 0 -106.5 39t-45.5 95q0 43 66 55q59 14 72.5 25.5 t13.5 48.5l-6 100v143l-2 47v95l2 67q0 43 -6 72q-10 12 -33 12l-37 2q-16 0 -27.5 4t-21.5 9.5t-36 39t-26 60.5zM119 1311q0 88 32.5 137t92.5 49q55 0 99 -50t44 -112q0 -16 -6 -43.5t-14.5 -44t-35 -47.5t-57.5 -31q-12 0 -44.5 14.5t-65.5 32t-43 74.5z" />
<glyph unicode="j" horiz-adv-x="503" d="M-430 -281q0 31 65 31q18 0 37 -4t90.5 -25.5t153.5 -21.5q166 0 192.5 56.5t35 133t8.5 220.5l2 161l2 45l-9 111v111q2 12 3 34q0 16 -3 25v51v35q0 61 -8 71.5t-95 24t-87 101.5q0 47 63 65l70 23l55 20l13 2l71 12l60 9l43 2q70 0 109.5 -32t39.5 -89q0 -39 -61 -55 q-55 -20 -60 -27l-4 -66l-2 -63l4 -70l-2 -227l-2 -76l-4 -78v-110l-4 -107q-8 -76 -21.5 -162t-33 -151.5t-52 -103t-89 -56t-127.5 -18.5q-80 0 -170 37l-91 32l-88 35q-8 2 -27.5 15.5t-48 32t-28.5 46.5zM111 1356l2 24q10 88 33.5 121t76.5 33q37 0 72 -23 q65 -48 65 -114q0 -68 -32.5 -121t-75.5 -53q-61 0 -101 37.5t-40 95.5z" />
<glyph unicode="k" horiz-adv-x="1103" d="M-29 1427q0 16 7.5 31t18.5 22t62 19l54 12q61 14 114 15q147 0 148 -101q0 -25 -2 -56.5t-8 -61.5l-3 -160v-158l9 -153v-115v-47v-35q-4 -20 -4 -29v-10q0 -18 8 -18t37.5 22.5t47 44t36 40t49 43t43 37.5t12.5 24q0 16 -8 32q-16 23 -21 37l-6 31q0 27 47 47.5 t113 20.5h8l35 -3l39 9l74 6l67 4q59 0 86 -37t27 -121q0 -33 -66 -33l-65 -2q-57 0 -117 -59l-53 -47l-55 -43q-47 -35 -48 -64q0 -29 84 -106l45 -47l43 -47l95 -92l94 -89l41 -32l41 -23q12 -6 12 -33q0 -39 -35 -69q-33 -39 -78 -39l-18 2l-43 20q-16 10 -27.5 18.5 t-19.5 18.5l-43 41l-80 68q-18 14 -36.5 31.5t-41.5 42.5l-78 69l-77 72l-33 24l-33 13l-55 -43q-39 -35 -47 -56l-11 -65q-4 -10 -4 -25.5v-21.5q0 -31 39 -41l43 -10l31 -19l18 -29l17 -26l4 -19q0 -51 -86 -65l-64 -14l-69 -9l-74 -6l-70 6q-55 10 -67 21 q-23 10 -39.5 42t-16.5 66q0 27 52 39l55 15q31 6 39 16t8 39l-6 92q-2 10 -2 37v44t2 50l6 133v64v33l-6 100l-6 102l-4 56q-18 145 -19 206q0 23 11.5 64t11.5 96q0 47 -21 47l-65 -10h-11q-35 0 -63.5 30.5t-28.5 73.5z" />
<glyph unicode="l" horiz-adv-x="509" d="M-31 1399q0 47 87 86t194 39q53 0 88 -39t35 -103v-57q-6 -33 -8 -49l-3 -133v-133l-4 -131l-2 -125v-127l2 -131l-2 -97v-39l2 -61l-2 -55l4 -41q12 -10 59.5 -22.5t63 -35t17.5 -43.5l10 -43q0 -23 -51 -41t-129 -26l-78 -10l-111 -9q-59 0 -101 35t-42 86 q0 39 60.5 50.5t78 22.5t17.5 44v41l-2 84v461v125v41l-5 81l7 121l-7 64l-2 47v8v8l-28 2h-35q-43 0 -78 31t-35 74z" />
<glyph unicode="m" horiz-adv-x="1792" d="M-29 901q0 61 103.5 93t128.5 32q33 0 73.5 -23.5t53.5 -50.5l14 -47l113 27q31 8 80 8q84 0 153 -16q23 -2 49 -15q45 -14 73 -27.5t40 -25.5t27.5 -22.5t23.5 -16.5q8 4 19.5 10.5t21.5 12.5l37 26l63 27l56 20q61 27 166 27l53 -2q53 -4 84 -16.5t75 -43t67.5 -53 t46 -73t33.5 -105.5t11 -145l4 -135l-2 -82l-4 -45q0 -41 37 -45l33 -5q18 -6 40.5 -36.5t22.5 -51.5q0 -10 -6 -26.5t-16 -18.5l-105 -20l-45 -12q-45 -16 -168 -17q-53 0 -79.5 11.5t-46 39t-19.5 52.5t16.5 39t58.5 20t62 18l8 11l5 77l-2 31v109l-3 41l-4 67q0 61 -4 88 t-13 64t-11 50t-15 36q-14 37 -33.5 48t-62.5 11q-27 0 -43 -4t-49 -20l-51 -27q-49 -23 -98.5 -65.5t-62.5 -76.5t-13 -110l6 -115v-75l-6 -60q0 -18 53 -39q84 -27 84 -102q0 -61 -113 -61l-59 -5l-82 -8h-82q-61 0 -78 4q-20 12 -37 37q-25 29 -24 60q0 45 76 53 q51 0 63 22.5t12 122.5l-8 152q0 68 -4 100.5t-30.5 125.5t-119.5 93q-55 0 -113.5 -24.5t-76.5 -33.5t-37.5 -25.5t-28 -35t-8.5 -57.5v-20l-4 -111l-6 -108v-33l-4 -78l-4 -72q0 -53 41 -61l45 -6q10 -2 38.5 -40t28.5 -65q0 -23 -18 -30q-39 -25 -199 -39l-112 -11 q-158 0 -158 93q0 45 74 67q43 10 55 23.5t12 50.5l-4 45l2 86l2 88v8v35l-2 39l6 84l5 86v37v28q0 37 -7 54q0 18 -55 26t-87 26.5t-32 51.5z" />
<glyph unicode="n" horiz-adv-x="1196" d="M0 928q0 51 80 73l80 19q35 10 59.5 14t42.5 4q74 0 82 -12l18 -55q4 -6 17 -6q29 0 68.5 14t99.5 14h22l105 -6l59 -14l58 -15q18 -4 63 -32l64 -43q37 -25 69.5 -76t46 -110.5t18.5 -105.5t5 -104q0 -63 -8 -96l-9 -117q0 -29 10.5 -40t70 -30.5t59.5 -88.5 q0 -53 -59.5 -74t-262.5 -21q-51 0 -82 9q-29 12 -51.5 48t-22.5 77t68 41q53 0 63.5 8t10.5 51v29l6 71q2 8 -1 55.5t-3 77.5l-6 131q0 139 -41 194.5t-137 55.5q-39 0 -65 -6t-67 -20.5t-70.5 -29.5t-48 -31.5t-25.5 -37t-7 -65.5l-8 -123q-6 -23 -6 -127v-68v-16v-45 l-3 -78q0 -43 9 -49l55 -18q63 -23 63 -72q0 -78 -122 -100q-121 -16 -183 -17q-41 0 -68.5 7.5t-45 24.5t-33.5 54l-17 53q0 31 80 43q41 10 55.5 22.5t14.5 43.5q0 55 -12 117v155v154q0 25 -1 46.5t-1 41.5q0 23 2 31l2 26q0 18 -11.5 24.5t-55.5 13.5t-68.5 36t-24.5 70 z" />
<glyph unicode="o" horiz-adv-x="1167" d="M57 418q0 51 8.5 112.5t23.5 118t69.5 131t97.5 105t60.5 41t60.5 32.5l108 46l62 10l96 4l31 -2l69 -15l76 -14q117 -20 205 -158.5t88 -300.5q0 -94 -32.5 -194.5t-126 -233.5t-314.5 -133l-55 2l-62 2l-61 9q-74 12 -95.5 19t-39 15.5t-31.5 15.5t-27.5 14t-23.5 15 l-51 45q-47 43 -70 74t-44.5 88.5t-21.5 151.5zM266 422q0 -143 76.5 -236.5t187.5 -93.5q90 0 171 50.5t132.5 142.5t51.5 268q0 154 -70 250t-184 96q-68 0 -150 -58.5t-124 -123t-50 -84t-14 -51.5l-12 -47l-15 -93v-20z" />
<glyph unicode="p" horiz-adv-x="1198" d="M-47 936q0 29 9 37t46 26l49 23l54 16l53 25q20 8 52 19.5t40 11.5q35 0 65.5 -18.5t38.5 -45.5l17 -39q0 -4 24 -4q41 0 119 12l19 2q23 0 58.5 -6t95 -17t151.5 -50t137 -80l59 -57l50 -52q49 -63 49 -145q0 -160 -160 -314.5t-393 -220.5l-70 -20l-70 -19l-71 -12 q-8 0 -12.5 -13t-4.5 -34l4 -63q6 -25 7 -54l-4 -47l-3 -45q0 -78 60 -88l67 -14q37 -6 49.5 -37t18.5 -49.5t6 -24.5q0 -14 -45 -32.5t-172 -41t-194 -22.5q-35 0 -50.5 4t-55.5 27.5t-40 60.5q0 49 53.5 58.5t76 20.5t22.5 42l-2 41l-2 88v29l-2 49l-5 88l5 98l4 295 l-4 305l2 90l2 35q0 70 -31 70l-70 -2l-6 -2q-96 0 -96 96zM365 272q0 -37 10 -49t37 -12q18 0 39.5 3.5t58.5 21.5l100 43q23 8 64 34.5t90 63.5l78 65q112 116 112 194q0 36 -26.5 74t-61.5 54t-94 26.5t-113 10.5l-53 -4l-65 -11q-55 -8 -82 -13t-48.5 -16.5t-26.5 -26.5 t-5 -77l2 -47l-2 -65l-2 -62l-4 -127q-8 -35 -8 -80z" />
<glyph unicode="q" horiz-adv-x="1236" d="M57 332q0 29 7.5 68.5t42 147t157.5 246t240 183.5q37 10 64.5 19.5t68.5 17.5t68.5 12t35.5 4q47 0 87 -24.5t49 -14.5l47 47q4 4 24 4t33 -2l47 -4h12q47 0 75 -4t63.5 -12t62.5 -42t27 -77q0 -35 -15.5 -50t-54.5 -15q-61 -6 -72.5 -21.5t-11.5 -89.5v-35l-10 -117 l-4 -53l-8 -184l-5 -88l-2 -58v-28v-115v-147q0 -20 3 -78q1 -26 1 -43q0 -20 -2 -25l-2 -65q0 -61 6.5 -84t14.5 -27t46 -10t63.5 -54.5t25.5 -66.5q0 -16 -28.5 -31.5t-91 -33t-126.5 -25.5l-59 -4q-27 0 -52.5 12t-39.5 35q-27 27 -27 47l33 51q20 23 20 49l-18 115 l-8 115l-6 90l-2 33l2 37v16q0 31 -13 31l-217 -27h-67l-66 4l-72 21l-75 20q-29 8 -60.5 26.5t-121 93.5t-89.5 210zM285 274q0 -31 4 -47q20 -114 237 -114h4q61 0 99.5 8t113 45t88.5 70q10 10 11 69l-2 45v25l2 88l4 115l10 135l6 41q0 39 -28.5 61.5t-79.5 22.5 q-57 0 -122 -44t-151 -138.5t-141 -202t-55 -179.5z" />
<glyph unicode="r" horiz-adv-x="765" d="M-16 932q0 41 65 59l62 23q39 14 68.5 20t47.5 6q121 0 121 -100v-8v-43q0 -27 12 -27q16 0 44 43t81.5 76t100.5 33q82 0 149.5 -61.5t67.5 -127.5q0 -25 -6 -54.5t-29 -102.5l-14 -52q-27 -96 -82 -96q-45 0 -71 40t-26 106q0 59 15 108l20 96l2 13q0 23 -14 22 q-35 0 -89 -80t-83 -167t-37 -169l-10 -129l-8 -118q0 -47 39 -60l61 -20q68 -25 68 -76q0 -70 -101 -86l-51 -8l-88 -10l-72 -5l-59 -4l-55 -4q-27 0 -70 37t-43 80q0 49 68.5 58.5t81 17.5t12.5 39v41l-4 139l-2 139l-2 107v32l6 111q0 41 -39 41h-35q-25 0 -63.5 40 t-38.5 81z" />
<glyph unicode="s" horiz-adv-x="995" d="M-4 160q0 25 20.5 43t49.5 18l59 -8l76 -18l75 -27q10 -4 43 -10t94.5 -15.5t135.5 -9.5q43 0 71.5 10.5t28.5 26.5t-34.5 49t-83 58.5t-197 82t-210 119t-61.5 160.5q0 16 7.5 36.5t24 59.5t50 78t68.5 67.5t78 56.5t69.5 43t49.5 28q59 26 116 26h4q18 0 40 -5t51 -15 l94 -37q25 -16 32 -18.5t13 -4.5q4 4 8 11.5t10 40t47 32.5q16 0 32.5 -11t39.5 -38l25 -43q6 -23 6 -74v-22l-4 -96q0 -100 -31 -171t-74 -71t-63.5 35t-24.5 51t-4 43v18v21v78v12q0 59 -14.5 81.5t-50.5 22.5q-23 0 -38.5 -5t-69.5 -30.5t-96 -51t-61 -44.5l-57 -51 q-51 -45 -51 -67q0 -37 63 -64l39 -16l25 -10l63 -31l51 -21l52 -30l55 -21l113 -61q98 -55 134 -94t36 -93q0 -59 -66 -115.5t-102.5 -75t-71.5 -26.5t-78 -12t-92 -4h-27h-20q-12 4 -17 4l-71 16l-66 11l-57 16l-59 25l-58 20l-55 27q-47 25 -65.5 36t-18.5 54z" />
<glyph unicode="t" horiz-adv-x="770" d="M-45 801q0 55 135 73l82 11q8 0 14.5 4t8.5 6l8 10q6 12 6 117l2 119q0 76 4 100.5t20.5 48t57.5 23.5q31 0 60.5 -11.5t58 -22.5t37 -21.5t8.5 -34.5l-2 -66l-9 -96l-6 -78q0 -37 31 -37l57 10l72 9q41 0 59 8l9 2q4 -2 13 -9.5t26 -19.5l34 -35q20 -16 21 -45 q0 -59 -156 -100l-127 -31q-35 -6 -35 -73l-2 -64v-37l-2 -96l-2 -98l-2 -72q0 -68 21.5 -110t58.5 -42q25 0 45.5 12.5t55 37t77.5 58.5t64 34q27 0 47 -20.5t20 -47.5q0 -18 -13 -45t-46 -78l-4 -6l-78 -59q-47 -35 -85 -49.5t-81 -14.5q-111 0 -182 45q-49 37 -76 81 t-36 113.5t-13 139.5t-4 131l2 37l4 70q0 94 -37 94q-23 0 -51 -10l-37 -4q-55 0 -94 40.5t-39 98.5z" />
<glyph unicode="u" horiz-adv-x="1198" d="M0 819q0 66 154 107q20 8 71 14q39 10 68 10q96 0 96 -102l-8 -131q-2 -6 -3 -42t-1 -59v-53q0 -154 8 -215l16 -92q27 -94 142 -94q51 0 87 10t112.5 46t90 65.5t13.5 134.5l-2 31v108l-2 76l2 33l2 88q0 45 -35 45l-51 2q-16 0 -40 21.5t-38 47t-14 41.5q0 31 14 43.5 t74 32.5l73 29q45 18 76 18q29 -4 62.5 -17t52 -28.5t23 -44.5t4.5 -151q0 -61 -4.5 -218t-4.5 -163l-2 -64v-67l-2 -31q0 -43 37 -43l39 -4q37 0 62.5 -30t25.5 -75q0 -31 -18.5 -44t-92.5 -36l-81 -36q-53 -27 -76 -27l-8 2q-8 0 -36 25.5t-34 37.5l-8 17l-13 2 q-20 0 -57 -12q-23 -10 -71 -18.5t-85 -8.5q-61 0 -134.5 18.5t-127.5 47.5l-41 24l-43 25q-43 29 -63.5 85t-29.5 83.5t-11 48.5l-10 112l-6 95l2 22l2 55q0 47 -11 58l-51 28q-94 39 -94 117z" />
<glyph unicode="v" horiz-adv-x="1177" d="M-16 840q0 25 32.5 42t114.5 31q117 27 225 27q152 0 152 -111q0 -31 -34 -58.5t-77 -27.5q-31 0 -30 -12l6 -41l20 -86l56 -174q20 -66 37.5 -104.5t31.5 -57.5l25 -30l65 110l54 115l30 51l35 59l49 84l15 27q55 90 55 111q0 20 -25 24l-35 4q-18 2 -36.5 43t-18.5 62 q0 68 115 80l76 8l65 6l8 4h22.5t45.5 -6l65 -2q47 0 62.5 -13.5t15.5 -58.5t-22.5 -68.5t-79.5 -42t-72.5 -35t-50.5 -85.5l-35 -72l-12 -22l-43 -97l-66 -137l-65 -141l-66 -137l-49 -129q-16 -25 -45 -25h-37l-92 2q-10 8 -21.5 21.5t-30 43t-31.5 53t-32 68.5l-30 82 l-35 80q-10 23 -20.5 50.5t-26.5 78.5l-47 133l-37 111q-4 12 -13 20l-12 9l-55 8q-39 4 -67.5 41t-28.5 84z" />
<glyph unicode="w" horiz-adv-x="1742" d="M-18 920q0 29 29.5 43t119.5 26l70 12q41 6 93 8.5t58 2.5q160 0 160 -113q0 -27 -26.5 -55.5t-54.5 -35.5t-28 -17l5 -33l8 -41l37 -125l34 -123l37 -119q39 0 60 129q14 43 28.5 74t24.5 55l43 101l10 28q31 74 58.5 132.5t52 101.5t63.5 43q10 0 22.5 -5t57.5 -25.5 t61.5 -45.5t26.5 -82l12 -76l17 -78l31 -135l28 -106l6 -27q31 -127 50 -127q25 0 49 76l26 70l29 67l10 29l33 80l35 78q25 43 31 56t6 19q0 10 -19 27l-59 37q-35 23 -35 102q0 35 16.5 48.5t65.5 17.5l90 12l39 2l80 -2l43 -4q141 0 141 -90q0 -23 -11 -45.5t-29.5 -34.5 t-78.5 -35q-59 -27 -77.5 -47t-57.5 -131l-45 -119l-4 -12l-45 -135l-51 -135l-25 -86l-33 -89l-16 -45q-8 -47 -16 -57t-33 -10l-51 4l-56 10q-41 12 -75 96q-37 78 -88 254l-33 119l-29 101l-4 22l-22 98q-8 33 -19 33q-2 -4 -15.5 -27.5t-45.5 -97.5l-9 -18l-53 -131 l-51 -133q-4 -8 -21.5 -58.5t-29.5 -95.5t-21.5 -76t-13.5 -39q-24 -24 -78 -24h-4q-53 0 -90 20l-20 17q-20 20 -31 59l-29 113l-35 110l-32 113l-29 110l-27 113q-10 41 -20 68.5t-18.5 40t-41.5 20.5l-45 16q-33 6 -43 10.5t-23.5 13.5t-28.5 42t-18 43t-3 23z" />
<glyph unicode="x" horiz-adv-x="1134" d="M0 70q0 33 48 57.5t116 24.5q25 6 39 45l82 122l69 97l17 20l45 49q10 14 10 23q0 12 -13.5 32.5t-30.5 42t-35.5 52.5t-40 72t-45 72.5t-28.5 45.5l-10 21l-47 -2l-10 -2q-35 0 -60 20q-27 16 -45 44t-18 52q0 41 28.5 52.5t66.5 27t55 15.5l122 4l62 8l43 3 q43 0 57.5 -8.5t27.5 -41.5t13 -51q0 -27 -45 -42.5t-45 -31.5q0 -18 19.5 -56t33.5 -65l2 -6l29 -49l8 -12q10 -23 21.5 -37.5t19.5 -24.5q10 0 45 45t78 88t58.5 61.5t15.5 26.5q-4 2 -14.5 7.5t-40 13.5t-29.5 45q0 31 8 53l8 12q12 8 103 25l108 22l70 7l57 6 q102 0 102 -92q0 -63 -8 -72q-10 -16 -63 -27l-31 -2h-14q-10 0 -31 -22l-43 -41l-82 -86l-43 -49l-18 -17l-58 -67q-57 -51 -57 -72q0 -12 4 -17.5t21.5 -20.5t66.5 -91q10 -20 64 -86l63 -82q25 -31 47.5 -50.5t83.5 -19.5q113 0 113 -94l-4 -22q-14 -37 -54 -48.5 t-155 -11.5l-168 -2q-109 0 -109 86q0 33 11 49l24 17q8 4 12.5 9t6.5 11q0 16 -29 41l-47 66l-51 75l-7 9q-12 25 -19 32t-11 9q-10 -8 -21.5 -20.5t-29.5 -39.5l-48 -63q-8 -12 -20 -26.5t-26.5 -31t-14.5 -28.5q0 -23 23 -29l59 -16q14 -2 18 -16.5t4 -39.5 q0 -53 -34.5 -73.5t-126.5 -20.5h-35l-125 4q-76 0 -99.5 7.5t-46 36t-22.5 59.5z" />
<glyph unicode="y" horiz-adv-x="1261" d="M0 901q0 20 11.5 33.5t43.5 26.5l47 16l15 4l57 10l39 10q43 8 66 9q37 0 74.5 -34t37.5 -73l-6 -76l-6 -94v-94v-29q0 -270 57 -368q33 -49 129 -49q37 0 99.5 18t97.5 41l61 41l58 37q10 8 18 55l35 215l4 33q0 78 -39 131q-12 25 -31 37l-57 8q-39 0 -72.5 31.5 t-33.5 68.5q0 55 104 94t178 39q20 0 40 -8t65 -38.5t45 -77.5q0 -18 -2 -44t-9 -55l-2 -127l-2 -125l4 -125l-2 -161l-2 -101l-2 -61l-6 -158q0 -55 -4 -95t-13.5 -116t-54.5 -171t-311 -95h-39q-45 10 -96 22l-57 11q-123 23 -214.5 69.5t-91.5 85.5q0 18 25 32.5t59 14.5 q16 0 58.5 -13t102 -32.5t125 -34t110.5 -14.5q80 0 130 58.5t50 158.5l6 113l2 90q0 41 -20 41q-29 0 -90 -31q-18 -6 -67.5 -11t-76.5 -5q-61 0 -94 6t-100.5 33.5t-144.5 97.5t-103.5 122t-36.5 140l-6 70l-8 115l4 65l2 29q0 55 -19 59l-65 12q-27 2 -51.5 40t-24.5 73z " />
<glyph unicode="z" horiz-adv-x="1044" d="M33 92q0 55 23.5 95t78.5 103.5t96 107.5t68 73l82 84l111 111l18 18l88 90q27 25 27 37q0 10 -54 10h-22l-76 -2l-94 -12q-88 -18 -96 -43l-19 -66l-24 -67l-25 -64q-14 -33 -47 -32q-37 0 -61.5 30.5t-24.5 81.5l4 68l8 67l8 62q0 16 4.5 32.5t20.5 43t109 51.5l73 14 l78 21l105 10l104 12l104 6h60q74 0 102.5 -23.5t51 -75.5t22.5 -93q0 -47 -37 -78l-45 -37l-39 -41l-47 -43l-29 -33l-67 -73l-74 -74l-29 -29l-28 -28l-43 -56q-6 -8 -19.5 -21.5t-29 -27.5t-28.5 -27.5t-20 -21.5l-45 -55q-53 -45 -53 -56q0 -12 37 -12l31 4l98 25 l102 14q106 0 135 17.5t52 84.5l18 64l21 68l30 88q23 49 64 49q25 0 43 -21q45 -41 45 -94q0 -12 -2 -27.5t-10 -38.5l-11 -57q-29 -160 -48 -210t-46.5 -63.5t-89.5 -13.5l-65 -6l-134 -14l-137 -10l-133 -19q-61 -8 -104 -14t-52 -6q-49 0 -81.5 39t-32.5 104z" />
<glyph unicode="{" horiz-adv-x="806" d="M164 633v61q98 16 147 73.5t49 143.5q0 57 -8 99.5t-19 80t-19.5 78t-8.5 95.5q0 66 35 120t92 94t132 62.5t155 22.5v-45q-102 -20 -148.5 -71.5t-46.5 -117.5q0 -49 7.5 -86t16.5 -72.5t16 -77.5t7 -100q0 -49 -18 -99t-58 -94t-101.5 -80t-147.5 -54 q170 -45 248.5 -138.5t78.5 -193.5q0 -47 -8 -86t-17 -76t-16.5 -77t-7.5 -89q0 -86 51.5 -132t143.5 -64v-48h-35q-80 0 -149.5 27t-119.5 71t-80 102t-30 122q0 53 9.5 92t19.5 75t19 76t9 97q0 86 -50 139t-148 70z" />
<glyph unicode="|" horiz-adv-x="1193" d="M489 -371v1893h218v-1893h-218z" />
<glyph unicode="}" horiz-adv-x="806" d="M90 -193q104 20 149.5 71.5t45.5 117.5q0 29 -7.5 72t-16.5 89t-16 92t-7 83q0 80 34.5 137t86 97t107.5 62.5t97 33.5q-59 14 -117.5 41.5t-104.5 68.5t-74.5 96.5t-28.5 124.5q0 74 22.5 156t22.5 170q0 86 -49.5 133t-143.5 66v45h35q80 0 149.5 -27t119.5 -72 t80 -102t30 -121q0 -25 -8.5 -68t-18.5 -90t-19 -95t-9 -85q0 -86 49 -140t147 -71v-61q-98 -16 -147 -73.5t-49 -143.5q0 -33 8 -81t19 -98.5t19.5 -96.5t8.5 -75q0 -39 -24.5 -90t-75 -98t-129 -80t-185.5 -33v45z" />
<glyph unicode="~" horiz-adv-x="1366" d="M127 582q10 190 88 277t197 87q78 0 160.5 -27.5t160.5 -60.5t145.5 -60.5t116.5 -27.5q74 0 118 44t54 130h70q-8 -186 -90 -275t-199 -89q-78 0 -156.5 27.5t-154.5 60.5q-78 35 -147.5 61.5t-129.5 26.5q-66 0 -108.5 -43t-54.5 -131h-70z" />
<glyph unicode="&#xa1;" horiz-adv-x="544" d="M133 90l8 57v80l6 80l13 78l8 125l2 41l4 84q4 29 6 68.5t2 58.5l2 127v49l2 43l-2 94q-4 23 -7 43.5t-3 34.5q0 16 27.5 51t77.5 35q43 0 70.5 -29.5t27.5 -85.5l6 -47l6 -43q6 -55 7 -76.5t1 -111.5v-72l-4 -76l4 -53v-129l-8 -117v-120v-21v-45q0 -29 -3 -51.5t-8 -40 t-20.5 -57t-50.5 -70.5t-63 -31l-31 2h-27q-18 0 -30.5 19.5t-16.5 50.5zM141 1530q0 141 131 141q63 0 101.5 -38t38.5 -103q0 -74 -45 -134.5t-101 -60.5q-53 0 -89 56.5t-36 138.5z" />
<glyph unicode="&#xa2;" horiz-adv-x="1071" d="M74 412q0 205 74.5 319.5t117.5 168.5t72 81q63 51 156 88l4 141v99l2 14l22 25q6 10 23 10q12 0 29.5 -13.5t31.5 -27.5l4 -27q2 -8 -1 -42t-3 -52l-4 -109h21q29 0 53 -6t41.5 -17t35 -19.5t23.5 -10.5q12 0 17 10l10 54q10 37 43 37q27 0 59.5 -22.5t44 -46.5 t11.5 -79l-3 -47l-6 -119l-4 -73l-2 -43q0 -100 -63 -101l-33 6q-53 23 -57 56l-23 184q-4 25 -29.5 43t-56.5 18q-37 0 -78 -20l4 -178l2 -174v-183v-180q49 8 72 19l53 26q25 16 38 22.5t20 8.5l49 37q90 61 117 61q16 0 27 -23.5t11 -60.5q0 -61 -53 -108l-63 -52 l-64 -49q-57 -39 -112.5 -59.5t-104.5 -30.5l-2 -123v-26l8 -140l-2 -18l-61 -41l-51 43l-5 33q-2 10 0.5 53t2.5 57q6 49 6 150q-31 4 -54.5 7t-72.5 16.5t-81 31t-63.5 48t-48 47t-22.5 28.5q-8 8 -20.5 35t-27 61.5t-24.5 81.5t-10 101zM330 487l8 -127 q6 -76 20.5 -105.5t53.5 -53t88 -29.5v166l-2 170l-2 178l-2 180q-47 -29 -74 -58.5t-50.5 -77.5t-31.5 -94t-8 -97v-52z" />
<glyph unicode="&#xa3;" horiz-adv-x="1239" d="M16 565l39 60h121l115 -4q53 0 74 22l32 170l33 160l33 155l12 54q10 23 10 45q0 8 -7 14t-34 14l-32 11l-6 2q-66 20 -66 92q0 78 96 96l82 17l76 10h74l80 8l24 2q109 0 144.5 -27.5t35.5 -111.5q0 -49 -18.5 -68.5t-69.5 -23.5l-96 -13q-20 -4 -28.5 -16t-18.5 -53 l-43 -160l-23 -90l-22 -74q-18 -66 -33.5 -126t-15.5 -79q0 -43 94 -43l27 2l75 8q45 0 90 -1t88 -1l52 -41l4 -8q0 -41 -60 -53l-47 -4l-94 2h-63l-95 -2h-30l-33 4q-14 0 -27 -16l-22 -23l-21 -104l-12 -82l-2 -25q0 -35 10 -45t49 -10l49 2l50 4l94 4l92 8h51 q35 0 45 10.5t25 55.5l31 100q12 49 20 72.5t14 33t19.5 15.5t37 13.5t56.5 7.5t54.5 -21.5t21.5 -30.5q0 -14 -14.5 -41.5t-21.5 -52t-14.5 -67.5t-15.5 -67t-18 -54.5t-16.5 -54t-11.5 -62.5t-20.5 -57.5t-60.5 -18.5h-82l-116 -10l-123 -4h-115l-143 -2l-117 -4l-139 10 q-55 0 -78 4t-37 14.5t-24.5 32t-10.5 41.5q0 35 28.5 52.5t92.5 17.5q76 0 93.5 19.5t27.5 105.5q0 23 5 51.5t11 52.5l25 78l2 14q0 16 -13.5 22.5t-56.5 6.5l-69 -2l-146 4l-24 18z" />
<glyph unicode="&#xa5;" horiz-adv-x="1546" d="M45 1501q0 29 87 51.5t198 22.5h10l74 -6l71 -4q31 -6 55.5 -45t24.5 -84q0 -74 -48 -79t-56 -9.5t-17 -10.5l27 -53l53 -86l74 -125l41 -67l35 -56l71 -119q6 -6 12.5 -9t10.5 -5q12 0 31.5 32t38.5 81l63 110l70 111l71 111l15 53l-56 -2q-20 0 -50.5 33.5t-30.5 89.5 q0 45 33.5 64.5t142.5 35.5l129 20q39 4 89 11.5t75 7.5q115 0 114 -123q0 -29 -16 -61q-14 -37 -27.5 -46.5t-50.5 -9.5h-8q-45 0 -59.5 -9t-47.5 -62l-45 -70l-78 -121l-26 -47l-29 -51l-74 -135l-26 -47l-60 -95h238l166 2q39 0 65 -6l54 -51l-56 -92l-276 2h-25 q-49 0 -106.5 -1t-124.5 -1l-2 -78q78 0 142.5 3t119.5 7q31 0 86 2t78 2h63q27 -6 45 -8l50 -53l-29 -80l-39 -10q-14 -4 -240 16l-123 4l-153 -2q-45 -45 -45 -78q0 -41 28.5 -60t45.5 -19l38 4h11q49 0 88 -43t39 -97l-2 -10q-6 -16 -33 -26l-41 -15l-90 -28l-49 -11 l-48 -6l-96 -8l-82 -6h-20q-45 0 -56.5 8t-21.5 15.5t-49 45t-39 64.5q0 29 35 49.5t83 24.5t56 12t13 55t5 129l-247 -8l-172 -6h-56l-16 4l-41 29q-16 8 -16 33q0 39 59 73l240 -10l47 -2l186 4l-47 94h-111l-96 -2l-192 -10l-39 4l-29 25q-14 12 -14 45q0 41 49 65l39 8 q8 2 39 2q45 0 74.5 -3t60.5 -5h160l-21 66q-10 27 -17 40t-46 79l-21 32l-22 37l-45 66l-54 102l-63 96l-62 99q-4 10 -47 10q-76 0 -84 61l-6 62z" />
<glyph unicode="&#xa8;" horiz-adv-x="471" d="M-74 1257q0 49 66 99q29 18 53.5 27.5t46.5 9.5q45 0 51 -21l25 -72q14 -47 14 -59q0 -14 -10 -29.5t-41 -43t-94 -27.5q-45 0 -78 34.5t-33 81.5zM293 1257q0 49 65 99q29 18 53.5 27.5t49.5 9.5q45 0 49 -21l25 -72q12 -41 12 -59q0 -33 -40 -66.5t-104 -33.5 q-47 0 -78.5 33.5t-31.5 82.5z" />
<glyph unicode="&#xa9;" horiz-adv-x="1224" d="M78 578q0 127 42 236.5t114.5 189t170 126t207.5 46.5q111 0 207 -46.5t169 -126t115 -189t42 -236.5t-42 -237t-115 -189.5t-169 -125.5t-207 -46t-208 46t-169.5 125.5t-114.5 189.5t-42 237zM182 578q0 -109 33 -200t91.5 -157.5t137 -104.5t168.5 -38t168 38 t136.5 104.5t92 157.5t33.5 200q0 106 -33.5 198t-92 158.5t-136.5 104.5t-168 38t-168.5 -38t-137 -104.5t-91.5 -158.5t-33 -198zM305 575q0 92 28.5 161t76 115t109 69.5t126.5 23.5q53 0 95 -10t67 -21l-39 -122q-31 12 -63.5 17t-53.5 5q-92 0 -149.5 -62.5 t-57.5 -177.5t57.5 -177t149.5 -62q35 0 64.5 7t52.5 17l41 -114q-33 -16 -75 -25.5t-85 -9.5q-68 0 -129 22.5t-109.5 67.5t-77 114.5t-28.5 161.5z" />
<glyph unicode="&#xad;" horiz-adv-x="798" d="M59 645q0 39 43 39l88 6l50 4l141 6l22 2l115 9l49 2q82 0 108.5 -21.5t43.5 -52.5q23 -29 22 -53q0 -74 -102 -74h-8l-119 2h-10h-66h-49h-37l-84 -12q-41 -8 -76 -8q-51 0 -76.5 33.5t-40 66.5t-14.5 51z" />
<glyph unicode="&#xae;" horiz-adv-x="1224" d="M78 578q0 127 42 236.5t114.5 189t170 126t207.5 46.5q111 0 207 -46.5t169 -126t115 -189t42 -236.5t-42 -237t-115 -189.5t-169 -125.5t-207 -46t-208 46t-169.5 125.5t-114.5 189.5t-42 237zM182 578q0 -109 33 -200t91.5 -157.5t137 -104.5t168.5 -38t168 38 t136.5 104.5t92 157.5t33.5 200q0 106 -33.5 198t-92 158.5t-136.5 104.5t-168 38t-168.5 -38t-137 -104.5t-91.5 -158.5t-33 -198zM381 250v663h133q172 0 253 -56t81 -173q0 -137 -115 -192l156 -242h-141l-136 209q-16 -2 -33.5 -3t-35.5 -1h-39v-205h-123zM504 563h43 q104 0 143 30t39 89t-40 87t-142 28h-43v-234z" />
<glyph unicode="&#xaf;" horiz-adv-x="466" d="M-27 1225q0 37 25 61.5t59 24.5h351q37 0 61.5 -24.5t24.5 -61.5t-25 -61.5t-63 -24.5h-349q-35 0 -59.5 24.5t-24.5 61.5z" />
<glyph unicode="&#xb1;" horiz-adv-x="1124" d="M90 39v139h946v-139h-946zM90 539v139h404v250h139v-250h403v-139h-403v-250h-139v250h-404z" />
<glyph unicode="&#xb4;" horiz-adv-x="387" d="M104 1223q0 59 58 86l221 86l35 6q37 0 63.5 -24.5t26.5 -63.5q0 -63 -59 -84l-222 -86l-34 -6q-35 0 -62 24.5t-27 61.5z" />
<glyph unicode="&#xb5;" horiz-adv-x="1179" d="M150 -285l4 119l4 182l-2 207l-4 195v502h188v-607q0 -145 28.5 -194t102.5 -49q117 0 194.5 165.5t77.5 417.5v267h189v-672q0 -92 19.5 -135t58.5 -43q41 0 64.5 42t23.5 126v28h43l2 -18v-27q0 -113 -48 -176t-137 -63q-100 0 -154 88t-54 264q-47 -182 -126 -267 t-198 -85q-86 0 -150 53q-57 55 -81 158l-2 -58q0 -133 65.5 -290.5t65.5 -186.5q0 -41 -22.5 -63.5t-63.5 -22.5q-47 0 -67.5 35t-20.5 108z" />
<glyph unicode="&#xb7;" horiz-adv-x="444" d="M88 571q0 78 45.5 137.5t102.5 59.5q51 0 86.5 -54.5t35.5 -133.5q0 -78 -30.5 -113t-100.5 -35q-63 0 -101 38t-38 101z" />
<glyph unicode="&#xb8;" horiz-adv-x="270" d="M31 -336q0 35 14 64l80 161q49 -18 94 -18q37 0 90 18l-125 -282q-23 -43 -67 -43q-37 0 -61.5 28.5t-24.5 71.5z" />
<glyph unicode="&#xbf;" horiz-adv-x="1312" d="M16 291q0 35 9.5 66.5t38 80.5t59.5 82t86 72l108 67l68 43l43 27l107 68l30 20l27 25l74 57l69 59l66 62l35 43l32 39l23 47q16 31 43 31q20 0 47 -27q33 -39 33 -84q0 -68 -76 -184l-57 -72q-43 -49 -61.5 -65.5t-86.5 -65.5l-131 -98l-22 -17l-113 -75l-96 -80 q-55 -47 -86 -86t-47.5 -72t-16.5 -57q0 -66 80 -76l109 -6q39 0 69 12l68 27l108 41l93 59l129 72q43 20 99 68t75.5 62.5t38 26t38.5 31.5l66 66q6 2 20.5 6t16.5 4l8 2q61 0 61 -76q0 -23 -8 -45l-12 -55q-4 -6 -12 -16.5t-33 -28.5l-100 -95q-35 -35 -119 -87 t-140.5 -82.5t-104.5 -53t-81 -35t-75 -23.5t-108.5 -21.5t-107.5 -10.5q-51 0 -127.5 24.5t-166 87t-89.5 216.5zM799 1438v26q0 147 129 148q63 0 101 -38t38 -101q0 -76 -44 -136.5t-101 -60.5q-43 0 -61.5 19.5t-26 32.5t-15.5 34.5t-13 39t-7 36.5z" />
<glyph unicode="&#xc0;" horiz-adv-x="1564" d="M-45 82q0 55 65.5 64.5t77 16.5t21.5 38l16 45l45 112l13 27l30 84l45 113l47 110l23 51l22 56l66 151l66 148l69 149q27 59 51.5 113.5t70.5 114t110 59.5l51 -4l69 -17l76 -8q53 -4 74 -63l14 -49l6 -11l21 -73l24 -72l31 -107l35 -104l33 -106l28 -107l37 -125 l41 -125q10 -27 21.5 -65.5t34.5 -112.5l8 -33l12 -37q12 -51 22.5 -67.5t34.5 -22.5l39 -6q25 -2 44.5 -15.5t25.5 -27.5t6 -47v-18l-2 -62q-2 -14 -43 -24l-49 -15l-82 -6l-78 -12q-68 -16 -100 -17q-39 0 -71 8.5t-40 20.5l-41 47q-33 43 -33 60q0 55 80 71q80 10 80 35 q0 18 -16 66l-23 69q-14 41 -42.5 55.5t-104.5 14.5l-27 -2l-112 -6l-107 -8q-20 0 -62 -11.5t-77 -21.5l-129 -37q-94 -25 -123 -47q-25 -25 -41 -56l-27 -59q0 -14 27 -22l35 -15q16 -4 33.5 -28.5t27.5 -46t10 -39.5q0 -43 -89 -62.5t-136 -19.5l-72 6q-37 6 -57 9 t-43 11l-31 8q-10 4 -16 12.5t-29 39.5q-16 37 -16 55zM489 555l31 -2q20 0 51 7t76 16.5t84 15.5t57 8l134 23l63 8l74 8l-49 238l-33 127l-39 118l-27 86l-10 37l-12 47l-25 29l-26 -41l-27 -43l-25 -51l-26 -47l-25 -52l-35 -67l-14 -29l-49 -94l-43 -98l-47 -97 q-16 -35 -33 -79.5t-25 -67.5zM524 1890q0 39 25.5 62.5t64.5 23.5q20 0 33 -6l223 -86q59 -27 60 -84q0 -39 -27 -63.5t-65 -24.5l-33 6l-221 86q-27 12 -43.5 34.5t-16.5 51.5z" />
<glyph unicode="&#xc1;" horiz-adv-x="1564" d="M-45 82q0 55 65.5 64.5t77 16.5t21.5 38l16 45l45 112l13 27l30 84l45 113l47 110l23 51l22 56l66 151l66 148l69 149q27 59 51.5 113.5t70.5 114t110 59.5l51 -4l69 -17l76 -8q53 -4 74 -63l14 -49l6 -11l21 -73l24 -72l31 -107l35 -104l33 -106l28 -107l37 -125 l41 -125q10 -27 21.5 -65.5t34.5 -112.5l8 -33l12 -37q12 -51 22.5 -67.5t34.5 -22.5l39 -6q25 -2 44.5 -15.5t25.5 -27.5t6 -47v-18l-2 -62q-2 -14 -43 -24l-49 -15l-82 -6l-78 -12q-68 -16 -100 -17q-39 0 -71 8.5t-40 20.5l-41 47q-33 43 -33 60q0 55 80 71q80 10 80 35 q0 18 -16 66l-23 69q-14 41 -42.5 55.5t-104.5 14.5l-27 -2l-112 -6l-107 -8q-20 0 -62 -11.5t-77 -21.5l-129 -37q-94 -25 -123 -47q-25 -25 -41 -56l-27 -59q0 -14 27 -22l35 -15q16 -4 33.5 -28.5t27.5 -46t10 -39.5q0 -43 -89 -62.5t-136 -19.5l-72 6q-37 6 -57 9 t-43 11l-31 8q-10 4 -16 12.5t-29 39.5q-16 37 -16 55zM489 555l31 -2q20 0 51 7t76 16.5t84 15.5t57 8l134 23l63 8l74 8l-49 238l-33 127l-39 118l-27 86l-10 37l-12 47l-25 29l-26 -41l-27 -43l-25 -51l-26 -47l-25 -52l-35 -67l-14 -29l-49 -94l-43 -98l-47 -97 q-16 -35 -33 -79.5t-25 -67.5zM692 1798q0 59 58 86l221 86l35 6q37 0 63.5 -24.5t26.5 -63.5q0 -63 -59 -84l-222 -86l-34 -6q-35 0 -62 24.5t-27 61.5z" />
<glyph unicode="&#xc2;" horiz-adv-x="1564" d="M-45 82q0 55 65.5 64.5t77 16.5t21.5 38l16 45l45 112l13 27l30 84l45 113l47 110l23 51l22 56l66 151l66 148l69 149q27 59 51.5 113.5t70.5 114t110 59.5l51 -4l69 -17l76 -8q53 -4 74 -63l14 -49l6 -11l21 -73l24 -72l31 -107l35 -104l33 -106l28 -107l37 -125 l41 -125q10 -27 21.5 -65.5t34.5 -112.5l8 -33l12 -37q12 -51 22.5 -67.5t34.5 -22.5l39 -6q25 -2 44.5 -15.5t25.5 -27.5t6 -47v-18l-2 -62q-2 -14 -43 -24l-49 -15l-82 -6l-78 -12q-68 -16 -100 -17q-39 0 -71 8.5t-40 20.5l-41 47q-33 43 -33 60q0 55 80 71q80 10 80 35 q0 18 -16 66l-23 69q-14 41 -42.5 55.5t-104.5 14.5l-27 -2l-112 -6l-107 -8q-20 0 -62 -11.5t-77 -21.5l-129 -37q-94 -25 -123 -47q-25 -25 -41 -56l-27 -59q0 -14 27 -22l35 -15q16 -4 33.5 -28.5t27.5 -46t10 -39.5q0 -43 -89 -62.5t-136 -19.5l-72 6q-37 6 -57 9 t-43 11l-31 8q-10 4 -16 12.5t-29 39.5q-16 37 -16 55zM489 555l31 -2q20 0 51 7t76 16.5t84 15.5t57 8l134 23l63 8l74 8l-49 238l-33 127l-39 118l-27 86l-10 37l-12 47l-25 29l-26 -41l-27 -43l-25 -51l-26 -47l-25 -52l-35 -67l-14 -29l-49 -94l-43 -98l-47 -97 q-16 -35 -33 -79.5t-25 -67.5zM518 1800q0 57 58 82l159 63q31 14 47 14t48 -14l159 -61q57 -25 58 -82q0 -41 -26 -66.5t-66 -25.5q-20 0 -33 6l-140 55l-141 -55q-12 -6 -33 -6q-39 0 -64.5 25.5t-25.5 64.5z" />
<glyph unicode="&#xc3;" horiz-adv-x="1564" d="M-45 82q0 55 65.5 64.5t77 16.5t21.5 38l16 45l45 112l13 27l30 84l45 113l47 110l23 51l22 56l66 151l66 148l69 149q27 59 51.5 113.5t70.5 114t110 59.5l51 -4l69 -17l76 -8q53 -4 74 -63l14 -49l6 -11l21 -73l24 -72l31 -107l35 -104l33 -106l28 -107l37 -125 l41 -125q10 -27 21.5 -65.5t34.5 -112.5l8 -33l12 -37q12 -51 22.5 -67.5t34.5 -22.5l39 -6q25 -2 44.5 -15.5t25.5 -27.5t6 -47v-18l-2 -62q-2 -14 -43 -24l-49 -15l-82 -6l-78 -12q-68 -16 -100 -17q-39 0 -71 8.5t-40 20.5l-41 47q-33 43 -33 60q0 55 80 71q80 10 80 35 q0 18 -16 66l-23 69q-14 41 -42.5 55.5t-104.5 14.5l-27 -2l-112 -6l-107 -8q-20 0 -62 -11.5t-77 -21.5l-129 -37q-94 -25 -123 -47q-25 -25 -41 -56l-27 -59q0 -14 27 -22l35 -15q16 -4 33.5 -28.5t27.5 -46t10 -39.5q0 -43 -89 -62.5t-136 -19.5l-72 6q-37 6 -57 9 t-43 11l-31 8q-10 4 -16 12.5t-29 39.5q-16 37 -16 55zM489 555l31 -2q20 0 51 7t76 16.5t84 15.5t57 8l134 23l63 8l74 8l-49 238l-33 127l-39 118l-27 86l-10 37l-12 47l-25 29l-26 -41l-27 -43l-25 -51l-26 -47l-25 -52l-35 -67l-14 -29l-49 -94l-43 -98l-47 -97 q-16 -35 -33 -79.5t-25 -67.5zM520 1802q0 37 25 61.5t59 24.5h353q37 0 61.5 -24.5t24.5 -61.5t-24.5 -61.5t-63.5 -24.5h-351q-35 0 -59.5 24.5t-24.5 61.5z" />
<glyph unicode="&#xc4;" horiz-adv-x="1564" d="M-45 84q0 29 39 52.5t96 23.5q14 2 18.5 6t10.5 35l16 45l45 112l13 27l30 84l45 113l47 110l23 51l22 56l66 151l66 148l69 149l68 148q10 18 26.5 40.5t50 60.5t89.5 38l49 -4l69 -17l76 -8q53 -4 74 -63l14 -49l6 -11l21 -73l24 -72l31 -107l35 -104l33 -106l28 -107 l37 -125l41 -125q10 -27 21.5 -65.5t34.5 -112.5l8 -33l12 -37q12 -51 22.5 -67.5t34.5 -22.5l39 -6q25 -2 44.5 -15.5t25.5 -27.5t6 -47v-18l-2 -62q-2 -14 -43 -24l-49 -15l-82 -6l-78 -12q-68 -16 -100 -17q-39 0 -71 8.5t-40 20.5l-41 47q-33 43 -33 60q0 55 80 71 q80 10 80 35q0 18 -16 66l-23 69q-14 41 -42.5 55.5t-104.5 14.5l-27 -2l-112 -6l-107 -8q-20 0 -62 -11.5t-77 -21.5l-129 -37q-94 -25 -123 -47q-25 -25 -41 -56l-27 -59q0 -14 27 -22l35 -15q16 -4 33.5 -28.5t27.5 -46t10 -39.5q0 -43 -89 -62.5t-136 -19.5l-72 6 q-37 6 -57 9t-43 11q-92 20 -92 117zM489 555l33 -2l133 25q37 8 76 14t57 8l134 23l137 16l-23 117l-59 248l-39 118l-27 86l-10 37l-12 47l-25 29l-26 -41l-27 -43l-25 -51l-26 -47l-25 -52l-35 -67l-14 -29l-49 -94l-43 -98l-47 -97q-16 -35 -32.5 -79.5t-25.5 -67.5z M571 1716q0 49 60.5 92t105.5 43q43 0 51 -20l25 -74q12 -41 12 -57q0 -31 -40 -66t-103 -35q-47 0 -79 34t-32 83zM936 1716q0 49 62.5 92t105.5 43q45 0 49 -20l25 -74q14 -47 14 -57q0 -31 -41 -66t-104 -35q-47 0 -79 34t-32 83z" />
<glyph unicode="&#xc5;" horiz-adv-x="1564" d="M-45 84q0 29 39 52.5t96 23.5q14 2 18.5 6t10.5 35l16 45l45 112l13 27l30 84l45 113l47 110l23 51l22 56l66 151l66 148l69 149l66 142l39 61q63 84 127 84l51 -4l69 -17l76 -8q53 -4 74 -63l14 -49l6 -11l21 -73l24 -72l31 -107l35 -104l33 -106l28 -107l37 -125 l41 -125q10 -27 21.5 -65.5t34.5 -112.5l8 -33l12 -37q12 -51 22.5 -67.5t34.5 -22.5l39 -6q25 -2 44.5 -15.5t25.5 -27.5t6 -47v-18l-2 -62q-2 -14 -43 -24l-49 -15l-82 -6l-78 -12q-68 -16 -100 -17q-39 0 -71 8.5t-40 20.5l-41 47q-33 43 -33 60q0 55 80 71q80 10 80 35 q0 18 -16 66l-23 69q-14 41 -42.5 55.5t-104.5 14.5l-27 -2l-112 -6l-107 -8q-20 0 -62 -11.5t-77 -21.5l-129 -37q-94 -25 -123 -47q-25 -25 -41 -56l-27 -59q0 -14 27 -22l35 -15q16 -4 33.5 -28.5t27.5 -46t10 -39.5q0 -43 -89 -62.5t-136 -19.5l-72 6q-37 6 -57 9 t-43 11q-92 20 -92 117zM489 555l33 -2l133 25q37 8 76 14t57 8l134 23l137 16q-16 88 -25.5 133t-34 145.5t-61.5 204.5l-37 123q-6 35 -11 45t-26 31l-26 -41l-27 -43l-25 -51l-26 -47l-25 -52l-49 -96l-49 -94l-43 -98l-47 -97l-31 -71zM692 1757q0 68 54.5 114t136.5 46 q78 0 131 -45t53 -115q0 -68 -53 -113t-133 -45t-134.5 46.5t-54.5 111.5zM813 1757q0 -27 19.5 -46t46.5 -19q29 0 49 18.5t20 46.5q0 29 -19.5 48.5t-49.5 19.5q-27 0 -46.5 -19.5t-19.5 -48.5z" />
<glyph unicode="&#xc6;" horiz-adv-x="2379" d="M-45 82q0 55 65.5 64.5t77 16.5t21.5 38l16 45l45 112l13 27l30 84l45 113l47 110l23 51l22 56l66 151l66 148l69 149l66 142l39 61q63 84 127 84l51 -4l69 -17l76 -8q35 -4 45 -12t27.5 -52t38.5 -44l45 8l131 33l106 26l156 27l133 20l133 21l135 14l78 13l80 8l80 12 l6 2q68 0 68 -139v-10l-2 -74l2 -68l-4 -65l-2 -70q0 -57 -54 -57q-29 0 -45 14l-43 27q-16 8 -23 14t-13.5 13.5t-16.5 60.5l-8 63l-10 53q-2 12 -19 13h-14l-43 -8q-49 -6 -67.5 -10.5t-63.5 -16.5l-74 -16l-80 -15l-149 -28q-45 -8 -84 -15.5t-72 -11.5q-86 0 -107.5 -4 t-51 -18.5t-29.5 -59.5q0 -18 20 -72l33 -106l33 -111q16 -92 34.5 -120.5t59.5 -28.5q16 0 47 8t78 20.5t258 32.5l98 15l21 2q27 4 63.5 9t54.5 5q45 0 72 -33t27 -90q0 -29 -11.5 -40t-46.5 -11l-53 -4l-82 -13l-63 -12l-19 -2l-78 -18l-49 -11q-45 -8 -58 -11t-42 -15 q-31 -8 -58.5 -15.5t-52.5 -7.5q-96 0 -96 -12t24.5 -59t36 -80t17.5 -90.5t14 -79t23 -21.5q23 0 76 19l83 16l78 12l105 13l98 12l100 8l48 6l49 6q6 0 11 12.5t9 39.5l10 59l9 57l8 60q6 39 26.5 65.5t42.5 26.5q18 0 29 -12l31 -25l31 -22q27 -18 26 -89l-2 -49 q-2 -23 -3 -47t-1 -37v-24l2 -86q0 -41 -21.5 -73t-47 -42t-91.5 -10q-45 0 -94 -8.5t-90 -14.5l-49 -8l-53 -10l-64 -4l-57 -8l-105 -15q-68 -6 -98 -14l-174 -33q-12 -4 -60.5 -8t-72.5 -4q-70 0 -106 10t-80 45t-44 72q0 90 62.5 100t76 16.5t13.5 20.5q0 84 -51 174 q-27 20 -50.5 26.5t-72.5 6.5l-31 -2l-112 -6l-115 -11q-14 -2 -52 -11t-79 -19l-129 -37q-104 -29 -123 -47l-41 -56q-27 -41 -27 -53q0 -20 27 -28l35 -15q16 -4 33.5 -28.5t27.5 -46t10 -39.5q0 -43 -89 -62.5t-136 -19.5l-72 6q-37 6 -57 9t-43 11l-31 8q-10 4 -16 12.5 t-29 39.5q-16 37 -16 55zM489 555l31 -2q20 0 51 7t76 16.5t84 15.5t57 8l134 23l63 8l74 8l-49 238l-33 127l-39 118l-27 86l-10 37l-12 47l-25 29l-26 -41l-27 -43l-25 -51l-26 -47l-25 -52l-35 -67l-14 -29l-49 -94l-43 -98l-47 -97q-16 -35 -33 -79.5t-25 -67.5z" />
<glyph unicode="&#xc7;" horiz-adv-x="1331" d="M59 535q0 45 4.5 84.5t21.5 118.5t50 176.5t137.5 271.5t193.5 242.5t112.5 82t67.5 35t74 30.5t62 9q113 0 176 -49q35 -23 54 -23l10 9q4 14 6 35.5t2 27.5q0 57 41 57q29 0 64.5 -19t64.5 -50t29 -103v-14v-61v-74l-4 -74v-76l-6 -69v-66v-8q0 -88 -68 -88 q-63 0 -85 34t-29 58.5t-7 65.5l-4 59q-10 94 -53 166t-92 72q-20 0 -62.5 -20.5t-79.5 -51.5l-61 -57q-113 -113 -165 -201t-93 -178t-66.5 -157.5t-38 -107.5t-16.5 -69l-10 -57l-15 -76q0 -109 19 -152q35 -102 242 -102q102 0 231 47l84 33q63 27 126.5 60.5t108.5 70.5 t65.5 51t29.5 14q23 0 45 -14q35 -29 35 -72q0 -31 -17.5 -55.5t-73.5 -77.5l-108 -94q-207 -184 -436 -184q-61 0 -131 14t-97 31l-73 47q-51 33 -80 56.5t-107 114.5t-78 327zM430 -346q0 35 12 65l80 162q31 -10 51.5 -14t44.5 -4q35 0 91 18l-127 -284q-16 -41 -66 -41 q-39 0 -62.5 27.5t-23.5 70.5z" />
<glyph unicode="&#xc8;" horiz-adv-x="1339" d="M-31 1305q0 27 23.5 42t91.5 29l20 8l132 31l88 21l38 10l136 22l133 23l133 18l135 15l78 12l80 10l80 10q74 0 73 -139l-2 -82l2 -67l-4 -68l-2 -65q0 -59 -53 -60q-14 0 -25.5 4t-21.5 11l-41 26l-33 23q-6 6 -10 19t-10 46l-9 64l-10 53q-2 12 -18 12h-15l-45 -6 l-57 -10l-72 -17l-53 -14l-20 -4l-80 -14l-78 -23l-78 -20q-27 -6 -34 -21.5t-7 -58.5l-4 -72l-10 -115l-2 -100v-18v-69v-38l-4 -12q16 -6 22 -6l27 2q57 10 101 18t136 21l119 14q25 4 69 9t50 5q43 0 70.5 -33.5t27.5 -88.5q0 -29 -10 -38.5t-47 -13.5l-53 -6l-82 -10 q-16 -6 -33.5 -8t-30.5 -4l-18 -2l-78 -19l-49 -10l-35 -6l-65 -21l-50 -12l-10 -2q-49 -12 -58 -23.5t-9 -56.5l2 -72l4 -86q0 -47 2 -61t4 -32.5t24 -18.5q25 0 74 20l84 15l78 14l104 10l99 14l100 7l47 6l47 4q16 4 23 51l10 61l8 58l8 59q6 39 27 65.5t43 26.5 q18 0 29 -10l30 -24l31 -25q27 -20 27 -86l-2 -51q-2 -23 -3 -47.5t-1 -36.5v-25l2 -84q0 -25 -4.5 -41t-21.5 -40.5t-43 -35t-91 -10.5q-45 0 -94 -8t-90 -14l-52 -8l-51 -9l-63 -6l-58 -8l-104 -12l-98 -17q-51 -6 -91 -14t-85.5 -19.5t-68 -16.5t-44.5 -7h-57l-60 -4 q-29 0 -41 9t-31 44l-26 51q-14 33 -15 56q0 57 86 57q53 0 66.5 13.5t13.5 68.5v10l-4 137v189l-2 186v189v88l-4 94q0 55 -14 55l-76 4q-29 4 -73 50.5t-44 91.5zM411 1890q0 39 25.5 62.5t64.5 23.5q20 0 33 -6l223 -86q59 -27 60 -84q0 -39 -27 -63.5t-65 -24.5l-33 6 l-221 86q-27 12 -43.5 34.5t-16.5 51.5z" />
<glyph unicode="&#xc9;" horiz-adv-x="1339" d="M-31 1305q0 27 23.5 42t91.5 29l20 8l132 31l88 21l38 10l136 22l133 23l133 18l135 15l78 12l80 10l80 10q74 0 73 -139l-2 -82l2 -67l-4 -68l-2 -65q0 -59 -53 -60q-14 0 -25.5 4t-21.5 11l-41 26l-33 23q-6 6 -10 19t-10 46l-9 64l-10 53q-2 12 -18 12h-15l-45 -6 l-57 -10l-72 -17l-53 -14l-20 -4l-80 -14l-78 -23l-78 -20q-27 -6 -34 -21.5t-7 -58.5l-4 -72l-10 -115l-2 -100v-18v-69v-38l-4 -12q16 -6 22 -6l27 2q57 10 101 18t136 21l119 14q25 4 69 9t50 5q43 0 70.5 -33.5t27.5 -88.5q0 -29 -10 -38.5t-47 -13.5l-53 -6l-82 -10 q-16 -6 -33.5 -8t-30.5 -4l-18 -2l-78 -19l-49 -10l-35 -6l-65 -21l-50 -12l-10 -2q-49 -12 -58 -23.5t-9 -56.5l2 -72l4 -86q0 -47 2 -61t4 -32.5t24 -18.5q25 0 74 20l84 15l78 14l104 10l99 14l100 7l47 6l47 4q16 4 23 51l10 61l8 58l8 59q6 39 27 65.5t43 26.5 q18 0 29 -10l30 -24l31 -25q27 -20 27 -86l-2 -51q-2 -23 -3 -47.5t-1 -36.5v-25l2 -84q0 -25 -4.5 -41t-21.5 -40.5t-43 -35t-91 -10.5q-45 0 -94 -8t-90 -14l-52 -8l-51 -9l-63 -6l-58 -8l-104 -12l-98 -17q-51 -6 -91 -14t-85.5 -19.5t-68 -16.5t-44.5 -7h-57l-60 -4 q-29 0 -41 9t-31 44l-26 51q-14 33 -15 56q0 57 86 57q53 0 66.5 13.5t13.5 68.5v10l-4 137v189l-2 186v189v88l-4 94q0 55 -14 55l-76 4q-29 4 -73 50.5t-44 91.5zM579 1798q0 59 58 86l221 86l35 6q37 0 63.5 -24.5t26.5 -63.5q0 -63 -59 -84l-222 -86l-34 -6 q-35 0 -62 24.5t-27 61.5z" />
<glyph unicode="&#xca;" horiz-adv-x="1339" d="M-31 1305q0 27 23.5 42t91.5 29l20 8l132 31l88 21l38 10l136 22l133 23l133 18l135 15l78 12l80 10l80 10q74 0 73 -139l-2 -82l2 -67l-4 -68l-2 -65q0 -59 -53 -60q-14 0 -25.5 4t-21.5 11l-41 26l-33 23q-6 6 -10 19t-10 46l-9 64l-10 53q-2 12 -18 12h-15l-45 -6 l-57 -10l-72 -17l-53 -14l-20 -4l-80 -14l-78 -23l-78 -20q-27 -6 -34 -21.5t-7 -58.5l-4 -72l-10 -115l-2 -100v-18v-69v-38l-4 -12q16 -6 22 -6l27 2q57 10 101 18t136 21l119 14q25 4 69 9t50 5q43 0 70.5 -33.5t27.5 -88.5q0 -29 -10 -38.5t-47 -13.5l-53 -6l-82 -10 q-16 -6 -33.5 -8t-30.5 -4l-18 -2l-78 -19l-49 -10l-35 -6l-65 -21l-50 -12l-10 -2q-49 -12 -58 -23.5t-9 -56.5l2 -72l4 -86q0 -47 2 -61t4 -32.5t24 -18.5q25 0 74 20l84 15l78 14l104 10l99 14l100 7l47 6l47 4q16 4 23 51l10 61l8 58l8 59q6 39 27 65.5t43 26.5 q18 0 29 -10l30 -24l31 -25q27 -20 27 -86l-2 -51q-2 -23 -3 -47.5t-1 -36.5v-25l2 -84q0 -25 -4.5 -41t-21.5 -40.5t-43 -35t-91 -10.5q-45 0 -94 -8t-90 -14l-52 -8l-51 -9l-63 -6l-58 -8l-104 -12l-98 -17q-51 -6 -91 -14t-85.5 -19.5t-68 -16.5t-44.5 -7h-57l-60 -4 q-29 0 -41 9t-31 44l-26 51q-14 33 -15 56q0 57 86 57q53 0 66.5 13.5t13.5 68.5v10l-4 137v189l-2 186v189v88l-4 94q0 55 -14 55l-76 4q-29 4 -73 50.5t-44 91.5zM405 1800q0 57 58 82l159 63q31 14 47 14t48 -14l159 -61q57 -25 58 -82q0 -41 -26 -66.5t-66 -25.5 q-20 0 -33 6l-140 55l-141 -55q-12 -6 -33 -6q-39 0 -64.5 25.5t-25.5 64.5z" />
<glyph unicode="&#xcb;" horiz-adv-x="1339" d="M-31 1305q0 27 23.5 42t91.5 29l20 8l132 31l88 21l38 10l136 22l133 23l133 18l135 15l78 12l80 10l80 10q74 0 73 -139l-2 -82l2 -67l-4 -68l-2 -65q0 -59 -53 -60q-14 0 -25.5 4t-21.5 11l-41 26l-33 23q-6 6 -10 19t-10 46l-9 64l-10 53q-2 12 -18 12h-15l-45 -6 l-57 -10l-72 -17l-53 -14l-20 -4l-80 -14l-78 -23l-78 -20q-27 -6 -34 -21.5t-7 -58.5l-4 -72l-10 -115l-2 -100v-18v-69v-38l-4 -12q16 -6 22 -6l27 2q57 10 101 18t136 21l119 14q25 4 69 9t50 5q43 0 70.5 -33.5t27.5 -88.5q0 -29 -10 -38.5t-47 -13.5l-53 -6l-82 -10 q-16 -6 -33.5 -8t-30.5 -4l-18 -2l-78 -19l-49 -10l-35 -6l-65 -21l-50 -12l-10 -2q-49 -12 -58 -23.5t-9 -56.5l2 -72l4 -86q0 -47 2 -61t4 -32.5t24 -18.5q25 0 74 20l84 15l78 14l104 10l99 14l100 7l47 6l47 4q16 4 23 51l10 61l8 58l8 59q6 39 27 65.5t43 26.5 q18 0 29 -10l30 -24l31 -25q27 -20 27 -86l-2 -51q-2 -23 -3 -47.5t-1 -36.5v-25l2 -84q0 -25 -4.5 -41t-21.5 -40.5t-43 -35t-91 -10.5q-45 0 -94 -8t-90 -14l-52 -8l-51 -9l-63 -6l-58 -8l-104 -12l-98 -17q-51 -6 -91 -14t-85.5 -19.5t-68 -16.5t-44.5 -7h-57l-60 -4 q-29 0 -41 9t-31 44l-26 51q-14 33 -15 56q0 57 86 57q53 0 66.5 13.5t13.5 68.5v10l-4 137v189l-2 186v189v88l-4 94q0 55 -14 55l-76 4q-29 4 -73 50.5t-44 91.5zM360 1832q0 49 66 99q29 18 53.5 27.5t46.5 9.5q45 0 51 -21l25 -72q14 -47 14 -59q0 -14 -10 -29.5 t-41 -43t-94 -27.5q-45 0 -78 34.5t-33 81.5zM727 1832q0 49 65 99q29 18 53.5 27.5t49.5 9.5q45 0 49 -21l25 -72q12 -41 12 -59q0 -33 -40 -66.5t-104 -33.5q-47 0 -78.5 33.5t-31.5 82.5z" />
<glyph unicode="&#xcc;" horiz-adv-x="583" d="M-16 1382q0 63 116 93l74 16q74 16 127 23.5t100 7.5q72 0 107 -22.5t55 -86.5l10 -27q8 -14 9.5 -19t1.5 -7q0 -27 -45 -39l-39 -8l-47 -8l-17 -7q-31 -18 -35 -45l-4 -118v-123l4 -119v-121v-119l2 -125l5 -73l2 -76l2 -80v-18q0 -45 8 -54q12 -4 25.5 -8t43.5 -8 q84 -23 84 -129q0 -31 -18 -44t-88 -32l-31 -8l-22 -6l-35 -4q-2 -2 -33 -11l-82 -14l-80 -12q-8 -2 -22.5 -4t-32.5 -2q-23 0 -29 6l-24 26l-27 29q-29 35 -29 74q0 29 12.5 41t41 23.5t40 15.5t42.5 20l26 15q8 6 8 18l-6 63l4 74q-2 18 -3 44t-9 81l-2 131l2 96v35 l-8 131v119l-6 125q0 43 -2 72.5t-2 34.5v12q0 16 -27 20l-39 6q-12 2 -60 43t-48 82zM35 1890q0 39 25.5 62.5t64.5 23.5q20 0 33 -6l223 -86q59 -27 60 -84q0 -39 -27 -63.5t-65 -24.5l-33 6l-221 86q-27 12 -43.5 34.5t-16.5 51.5z" />
<glyph unicode="&#xcd;" horiz-adv-x="583" d="M-16 1382q0 63 116 93l74 16q74 16 127 23.5t100 7.5q72 0 107 -22.5t55 -86.5l10 -27q8 -14 9.5 -19t1.5 -7q0 -27 -45 -39l-39 -8l-47 -8l-17 -7q-31 -18 -35 -45l-4 -118v-123l4 -119v-121v-119l2 -125l5 -73l2 -76l2 -80v-18q0 -45 8 -54q12 -4 25.5 -8t43.5 -8 q84 -23 84 -129q0 -31 -18 -44t-88 -32l-31 -8l-22 -6l-35 -4q-2 -2 -33 -11l-82 -14l-80 -12q-8 -2 -22.5 -4t-32.5 -2q-23 0 -29 6l-24 26l-27 29q-29 35 -29 74q0 29 12.5 41t41 23.5t40 15.5t42.5 20l26 15q8 6 8 18l-6 63l4 74q-2 18 -3 44t-9 81l-2 131l2 96v35 l-8 131v119l-6 125q0 43 -2 72.5t-2 34.5v12q0 16 -27 20l-39 6q-12 2 -60 43t-48 82zM202 1798q0 59 58 86l221 86l35 6q37 0 63.5 -24.5t26.5 -63.5q0 -63 -59 -84l-222 -86l-34 -6q-35 0 -62 24.5t-27 61.5z" />
<glyph unicode="&#xce;" horiz-adv-x="583" d="M-16 1382q0 63 116 93l74 16q74 16 127 23.5t100 7.5q72 0 107 -22.5t55 -86.5l10 -27q8 -14 9.5 -19t1.5 -7q0 -27 -45 -39l-39 -8l-47 -8l-17 -7q-31 -18 -35 -45l-4 -118v-123l4 -119v-121v-119l2 -125l5 -73l2 -76l2 -80v-18q0 -45 8 -54q12 -4 25.5 -8t43.5 -8 q84 -23 84 -129q0 -31 -18 -44t-88 -32l-31 -8l-22 -6l-35 -4q-2 -2 -33 -11l-82 -14l-80 -12q-8 -2 -22.5 -4t-32.5 -2q-23 0 -29 6l-24 26l-27 29q-29 35 -29 74q0 29 12.5 41t41 23.5t40 15.5t42.5 20l26 15q8 6 8 18l-6 63l4 74q-2 18 -3 44t-9 81l-2 131l2 96v35 l-8 131v119l-6 125q0 43 -2 72.5t-2 34.5v12q0 16 -27 20l-39 6q-12 2 -60 43t-48 82zM26 1800q0 57 58 82l159 63q31 14 47 14t48 -14l159 -61q57 -25 58 -82q0 -41 -26 -66.5t-66 -25.5q-20 0 -33 6l-140 55l-141 -55q-12 -6 -33 -6q-39 0 -64.5 25.5t-25.5 64.5z" />
<glyph unicode="&#xcf;" horiz-adv-x="583" d="M-19 1832q0 49 66 99q29 18 53.5 27.5t46.5 9.5q45 0 51 -21l25 -72q14 -47 14 -59q0 -14 -10 -29.5t-41 -43t-94 -27.5q-45 0 -78 34.5t-33 81.5zM-16 1382q0 63 116 93l74 16q74 16 127 23.5t100 7.5q72 0 107 -22.5t55 -86.5l10 -27q8 -14 9.5 -19t1.5 -7 q0 -27 -45 -39l-39 -8l-47 -8l-17 -7q-31 -18 -35 -45l-4 -118v-123l4 -119v-121v-119l2 -125l5 -73l2 -76l2 -80v-18q0 -45 8 -54q12 -4 25.5 -8t43.5 -8q84 -23 84 -129q0 -31 -18 -44t-88 -32l-31 -8l-22 -6l-35 -4q-2 -2 -33 -11l-82 -14l-80 -12q-8 -2 -22.5 -4 t-32.5 -2q-23 0 -29 6l-24 26l-27 29q-29 35 -29 74q0 29 12.5 41t41 23.5t40 15.5t42.5 20l26 15q8 6 8 18l-6 63l4 74q-2 18 -3 44t-9 81l-2 131l2 96v35l-8 131v119l-6 125q0 43 -2 72.5t-2 34.5v12q0 16 -27 20l-39 6q-12 2 -60 43t-48 82zM348 1832q0 49 65 99 q29 18 53.5 27.5t49.5 9.5q45 0 49 -21l25 -72q12 -41 12 -59q0 -33 -40 -66.5t-104 -33.5q-47 0 -78.5 33.5t-31.5 82.5z" />
<glyph unicode="&#xd1;" horiz-adv-x="1503" d="M0 1403q0 80 170 80q63 0 82 8l55 8l51 -4h58q35 0 71.5 -36t53.5 -87l14 -55l29 -49l45 -97l45 -96l43 -96l45 -96l49 -95l45 -100l47 -94l53 -96l31 -58l33 -55q39 -61 65 -61q16 0 22.5 13t6.5 52l-2 47l2 94v37l2 62v239l8 133l6 134l13 129q2 8 -9.5 12t-29.5 4h-45 q-35 0 -61.5 47t-26.5 78q0 37 16.5 51t49 19.5t47 8.5t32.5 11l64 18q10 6 69 13l84 4q170 0 170 -158q0 -35 -80 -50t-92 -28.5t-12 -142.5q0 -76 4 -251t4 -187l2 -45l-2 -66v-117l-4 -36v-78v-115l6 -152q0 -41 -11 -63.5t-55 -48t-85 -25.5q-63 0 -90 22.5t-44.5 46 t-39.5 54.5l-101 146l-90 149l-72 127l-16 29l-57 94l-70 127l-41 74l-88 178q-6 14 -12 27.5t-13 21.5l-6 14l-37 62l-8 -9q-16 -14 -16 -92q0 -39 4 -71.5t4 -69.5q0 -47 -4 -82t-4 -55q0 -23 -2 -85.5t-2 -103.5v-139q0 -37 -2 -49l-6 -119q0 -53 6 -67.5t30 -14.5l39 -6 q31 0 57.5 -21.5t41 -55t14.5 -60.5q0 -49 -90 -70l-29 -6l-63 -14l-82 -6l-76 -2q-35 0 -74 10t-67.5 28.5t-28.5 73.5v13l4 53q0 8 16.5 16t67.5 21.5t51 56.5l-6 70l-2 96v92l2 508v55v23v45l-2 28l2 35l-4 43q-6 14 -42 24.5t-54.5 23t-27.5 25.5t-28.5 54t-19.5 68z M489 1802q0 37 25 61.5t59 24.5h353q37 0 61.5 -24.5t24.5 -61.5t-24.5 -61.5t-63.5 -24.5h-351q-35 0 -59.5 24.5t-24.5 61.5z" />
<glyph unicode="&#xd2;" horiz-adv-x="1490" d="M59 649q0 348 211 610.5t492 262.5q106 0 219 -45t282 -187.5t169 -496.5q0 -68 -7.5 -115t-16.5 -106.5t-24.5 -104.5t-44.5 -100l-55 -97q-39 -70 -65 -94l-89 -72l-53 -45l-63 -30l-53 -21l-105 -31q-80 -16 -131 -16q-127 0 -230.5 27.5t-156.5 68.5t-67.5 53.5 t-56.5 57.5t-73.5 119.5t-41 101.5t-16.5 55.5t-15.5 94t-8.5 110.5zM326 561q0 -90 28.5 -177t73.5 -149.5t117.5 -97.5t148.5 -35q201 0 349.5 218.5t148.5 521.5q0 49 -7 103t-23.5 125t-41 116t-69.5 85t-99.5 59.5t-128.5 19.5t-114.5 -13.5t-94 -51.5t-87 -70.5 t-79 -100t-84 -217t-38.5 -297.5v-39zM487 1890q0 39 25.5 62.5t64.5 23.5q20 0 33 -6l223 -86q59 -27 60 -84q0 -39 -27 -63.5t-65 -24.5l-33 6l-221 86q-27 12 -43.5 34.5t-16.5 51.5z" />
<glyph unicode="&#xd3;" horiz-adv-x="1490" d="M59 649q0 348 211 610.5t492 262.5q106 0 219 -45t282 -187.5t169 -496.5q0 -68 -7.5 -115t-16.5 -106.5t-24.5 -104.5t-44.5 -100l-55 -97q-39 -70 -65 -94l-89 -72l-53 -45l-63 -30l-53 -21l-105 -31q-80 -16 -131 -16q-127 0 -230.5 27.5t-156.5 68.5t-67.5 53.5 t-56.5 57.5t-73.5 119.5t-41 101.5t-16.5 55.5t-15.5 94t-8.5 110.5zM326 561q0 -90 28.5 -177t73.5 -149.5t117.5 -97.5t148.5 -35q201 0 349.5 218.5t148.5 521.5q0 49 -7 103t-23.5 125t-41 116t-69.5 85t-99.5 59.5t-128.5 19.5t-114.5 -13.5t-94 -51.5t-87 -70.5 t-79 -100t-84 -217t-38.5 -297.5v-39zM655 1798q0 59 58 86l221 86l35 6q37 0 63.5 -24.5t26.5 -63.5q0 -63 -59 -84l-222 -86l-34 -6q-35 0 -62 24.5t-27 61.5z" />
<glyph unicode="&#xd4;" horiz-adv-x="1490" d="M59 649q0 348 211 610.5t492 262.5q106 0 219 -45t282 -187.5t169 -496.5q0 -68 -7.5 -115t-16.5 -106.5t-24.5 -104.5t-44.5 -100l-55 -97q-39 -70 -65 -94l-89 -72l-53 -45l-63 -30l-53 -21l-105 -31q-80 -16 -131 -16q-127 0 -230.5 27.5t-156.5 68.5t-67.5 53.5 t-56.5 57.5t-73.5 119.5t-41 101.5t-16.5 55.5t-15.5 94t-8.5 110.5zM326 561q0 -90 28.5 -177t73.5 -149.5t117.5 -97.5t148.5 -35q201 0 349.5 218.5t148.5 521.5q0 49 -7 103t-23.5 125t-41 116t-69.5 85t-99.5 59.5t-128.5 19.5t-114.5 -13.5t-94 -51.5t-87 -70.5 t-79 -100t-84 -217t-38.5 -297.5v-39zM481 1800q0 57 58 82l159 63q31 14 47 14t48 -14l159 -61q57 -25 58 -82q0 -41 -26 -66.5t-66 -25.5q-20 0 -33 6l-140 55l-141 -55q-12 -6 -33 -6q-39 0 -64.5 25.5t-25.5 64.5z" />
<glyph unicode="&#xd5;" horiz-adv-x="1490" d="M59 649q0 348 211 610.5t492 262.5q106 0 219 -45t282 -187.5t169 -496.5q0 -68 -7.5 -115t-16.5 -106.5t-24.5 -104.5t-44.5 -100l-55 -97q-39 -70 -65 -94l-89 -72l-53 -45l-63 -30l-53 -21l-105 -31q-80 -16 -131 -16q-127 0 -230.5 27.5t-156.5 68.5t-67.5 53.5 t-56.5 57.5t-73.5 119.5t-41 101.5t-16.5 55.5t-15.5 94t-8.5 110.5zM326 561q0 -90 28.5 -177t73.5 -149.5t117.5 -97.5t148.5 -35q201 0 349.5 218.5t148.5 521.5q0 49 -7 103t-23.5 125t-41 116t-69.5 85t-99.5 59.5t-128.5 19.5t-114.5 -13.5t-94 -51.5t-87 -70.5 t-79 -100t-84 -217t-38.5 -297.5v-39zM483 1802q0 37 25 61.5t59 24.5h353q37 0 61.5 -24.5t24.5 -61.5t-24.5 -61.5t-63.5 -24.5h-351q-35 0 -59.5 24.5t-24.5 61.5z" />
<glyph unicode="&#xd6;" horiz-adv-x="1490" d="M59 649q0 348 211 610.5t492 262.5q106 0 219 -45t282 -187.5t169 -496.5q0 -74 -16.5 -175.5t-33 -151.5t-43.5 -99l-55 -97q-39 -70 -65 -94l-89 -72l-53 -45l-63 -30l-66 -27l-92 -25q-90 -16 -131 -16q-127 0 -230.5 27.5t-156.5 68.5t-67.5 53.5t-56.5 57.5 t-73.5 119.5t-41 101.5t-16.5 55.5t-15.5 94t-8.5 110.5zM326 561q0 -209 103 -334t265 -125q203 0 350.5 218.5t147.5 521.5q0 98 -26.5 209.5t-69.5 171t-112 93.5t-159 34q-33 0 -52 -2t-52 -9.5t-85 -41t-104.5 -83t-90.5 -119t-76.5 -204.5t-38.5 -289v-41zM483 1712 q0 51 60.5 93t105.5 42q39 0 51 -20l25 -74q12 -41 12 -57q0 -31 -41 -67t-102 -36q-47 0 -79 34t-32 85zM848 1712q0 49 62.5 92t105.5 43q45 0 49 -20l25 -74q12 -41 12 -57q0 -37 -35 -62q-47 -41 -109 -41q-45 0 -77.5 35t-32.5 84z" />
<glyph unicode="&#xd8;" horiz-adv-x="1495" d="M55 12q0 27 31 86.5t82 134.5l-10 25l-31 76l-39 104q-8 33 -16.5 99.5t-8.5 113.5q0 346 211 608.5t492 262.5q94 0 164.5 -22.5t150.5 -80.5l86 90q33 37 66 68t53 31q27 0 53.5 -27t26.5 -72q0 -43 -43 -90l-55 -61l-35 -45q207 -180 207 -520q0 -45 -4 -85 t-17.5 -116t-30 -125t-45.5 -100l-53 -97q-39 -70 -65 -94l-86 -72l-56 -45l-65 -30l-64 -27l-92 -25q-90 -16 -131 -16q-39 0 -71.5 2t-82 9.5t-113 31t-97 41.5t-62.5 39l-43 43l-22 -29l-29 -39q-18 -25 -27.5 -36t-9.5 -15q-18 -31 -28.5 -45t-26.5 -14l-29 26l-31 29z M330 612q0 -68 8 -157l88 102l78 109l24 32l58 74l78 102l81 103l27 37l51 73l35 50l80 100l55 74q-41 18 -62.5 24t-56.5 6q-123 0 -162.5 -15t-94 -53t-111.5 -94.5t-116.5 -225.5t-59.5 -341zM393 305q47 -104 99.5 -137t108.5 -49.5t99 -16.5q203 0 349.5 218.5 t146.5 519.5q0 111 -15.5 174t-27.5 96t-29 70l-65 -76l-31 -35l-106 -121l-95 -125l-94 -96l-80 -111l-96 -98l-90 -115l-51 -69z" />
<glyph unicode="&#xd9;" horiz-adv-x="1456" d="M-37 1335q0 59 150 86l135 25q61 10 100 15t66 5q76 0 120 -37.5t44 -107.5q0 -51 -48 -61l-110 -31q-10 -2 -14.5 -28.5t-4.5 -102.5l2 -33l-2 -39l-2 -113l-2 -151v-84l2 -121l4 -45l11 -98l14 -95q16 -104 77.5 -167.5t149.5 -63.5q111 0 177.5 36t113.5 122t66 215 l14 114l12 195v12l-2 88l2 91l2 94l-4 94l2 68q0 70 -43 75l-71 15q-31 4 -59.5 39.5t-28.5 83.5q0 20 22.5 32.5t52.5 20.5l70 22l10 2l84 23l45 10l25 6l74 6l69 13h19q53 0 93 -38t40 -89q0 -23 -16.5 -41.5t-28.5 -24.5l-62 -22l-61 -23q-10 -27 -10 -41l2 -29l4 -135 l6 -135v-24v-113l2 -135v-56v-16l-8 -76l-2 -73l-13 -74l-22 -103q-4 -29 -50 -120t-83 -117l-54 -35l-53 -39l-53 -18l-55 -17l-60 -6l-86 -12l-53 -2q-117 0 -186.5 39t-117.5 79t-72.5 69.5t-40 62t-23.5 53t-17 43.5l-16 92l-27 148l-8 55q-14 152 -14 246l-2 151l-2 66 l2 63l2 29q0 31 -7.5 39t-53.5 13t-74 30l-37 51q-27 39 -27 55zM471 1890q0 39 25.5 62.5t64.5 23.5q20 0 33 -6l223 -86q59 -27 60 -84q0 -39 -27 -63.5t-65 -24.5l-33 6l-221 86q-27 12 -43.5 34.5t-16.5 51.5z" />
<glyph unicode="&#xda;" horiz-adv-x="1456" d="M-37 1335q0 59 150 86l135 25q61 10 100 15t66 5q76 0 120 -37.5t44 -107.5q0 -51 -48 -61l-110 -31q-10 -2 -14.5 -28.5t-4.5 -102.5l2 -33l-2 -39l-2 -113l-2 -151v-84l2 -121l4 -45l11 -98l14 -95q16 -104 77.5 -167.5t149.5 -63.5q111 0 177.5 36t113.5 122t66 215 l14 114l12 195v12l-2 88l2 91l2 94l-4 94l2 68q0 70 -43 75l-71 15q-31 4 -59.5 39.5t-28.5 83.5q0 20 22.5 32.5t52.5 20.5l70 22l10 2l84 23l45 10l25 6l74 6l69 13h19q53 0 93 -38t40 -89q0 -23 -16.5 -41.5t-28.5 -24.5l-62 -22l-61 -23q-10 -27 -10 -41l2 -29l4 -135 l6 -135v-24v-113l2 -135v-56v-16l-8 -76l-2 -73l-13 -74l-22 -103q-4 -29 -50 -120t-83 -117l-54 -35l-53 -39l-53 -18l-55 -17l-60 -6l-86 -12l-53 -2q-117 0 -186.5 39t-117.5 79t-72.5 69.5t-40 62t-23.5 53t-17 43.5l-16 92l-27 148l-8 55q-14 152 -14 246l-2 151l-2 66 l2 63l2 29q0 31 -7.5 39t-53.5 13t-74 30l-37 51q-27 39 -27 55zM639 1798q0 59 58 86l221 86l35 6q37 0 63.5 -24.5t26.5 -63.5q0 -63 -59 -84l-222 -86l-34 -6q-35 0 -62 24.5t-27 61.5z" />
<glyph unicode="&#xdb;" horiz-adv-x="1456" d="M-37 1335q0 59 150 86l135 25q61 10 100 15t66 5q76 0 120 -37.5t44 -107.5q0 -51 -48 -61l-110 -31q-10 -2 -14.5 -28.5t-4.5 -102.5l2 -33l-2 -39l-2 -113l-2 -151v-84l2 -121l4 -45l11 -98l14 -95q16 -104 77.5 -167.5t149.5 -63.5q111 0 177.5 36t113.5 122t66 215 l14 114l12 195v12l-2 88l2 91l2 94l-4 94l2 68q0 70 -43 75l-71 15q-31 4 -59.5 39.5t-28.5 83.5q0 20 22.5 32.5t52.5 20.5l70 22l10 2l84 23l45 10l25 6l74 6l69 13h19q53 0 93 -38t40 -89q0 -23 -16.5 -41.5t-28.5 -24.5l-62 -22l-61 -23q-10 -27 -10 -41l2 -29l4 -135 l6 -135v-24v-113l2 -135v-56v-16l-8 -76l-2 -73l-13 -74l-22 -103q-4 -29 -50 -120t-83 -117l-54 -35l-53 -39l-53 -18l-55 -17l-60 -6l-86 -12l-53 -2q-117 0 -186.5 39t-117.5 79t-72.5 69.5t-40 62t-23.5 53t-17 43.5l-16 92l-27 148l-8 55q-14 152 -14 246l-2 151l-2 66 l2 63l2 29q0 31 -7.5 39t-53.5 13t-74 30l-37 51q-27 39 -27 55zM463 1800q0 57 58 82l159 63q31 14 47 14t48 -14l159 -61q57 -25 58 -82q0 -41 -26 -66.5t-66 -25.5q-20 0 -33 6l-140 55l-141 -55q-12 -6 -33 -6q-39 0 -64.5 25.5t-25.5 64.5z" />
<glyph unicode="&#xdc;" horiz-adv-x="1456" d="M-37 1337q0 63 88 75.5t119 18t78 15.5q123 20 164 20q80 0 123 -36.5t43 -106.5q0 -41 -17 -47l-141 -47q-10 -4 -14.5 -29.5t-4.5 -101.5l2 -33l-2 -39l-2 -113l-2 -151v-86v-76t6 -88l11 -98l14 -95q16 -104 77.5 -167.5t149.5 -63.5q111 0 177.5 36t113.5 122t66 215 l14 114l12 195v12l-2 88l2 91l2 94l-4 94l2 68q0 70 -43 75l-71 15q-31 4 -59.5 39.5t-28.5 83.5q0 20 22.5 32.5t52.5 20.5l80 24l84 23l70 16l74 6l69 13h19q53 0 93 -38t40 -89q0 -23 -16.5 -41.5t-28.5 -24.5l-62 -22l-61 -23q-10 -27 -10 -41l2 -29l2 -51l2 -84 q2 -20 4 -78.5t2 -80.5v-113l2 -135v-56v-16l-8 -76l-2 -73l-13 -74l-16 -82q-4 -23 -14.5 -51.5t-47 -102t-77.5 -104.5l-54 -35l-53 -39l-53 -18l-55 -17l-60 -6l-86 -12l-53 -2q-45 0 -65.5 3t-82 21.5t-130 72.5t-95 86t-43 65.5t-24.5 54t-17 43.5l-16 92l-27 148 l-8 55q-14 152 -14 246l-2 151l-2 66l2 63l2 29q0 31 -7.5 39t-53.5 13t-74 30l-37 51q-27 35 -27 57zM379 1714q0 49 60.5 92t105.5 43q43 0 51 -20l25 -74q12 -41 12 -57q0 -31 -41 -67t-103 -36q-45 0 -77.5 35t-32.5 84zM743 1714q0 49 62.5 92t105.5 43q45 0 50 -20 l24 -74q14 -47 14 -57q0 -31 -42 -67t-103 -36q-45 0 -78 35t-33 84z" />
<glyph unicode="&#xdd;" horiz-adv-x="1396" d="M-29 1499q0 18 30 32.5t108.5 29t136.5 14.5h22l70 -6l70 -4q25 0 49 -29q14 -25 24.5 -51.5t10.5 -48.5q0 -33 -20.5 -54.5t-57.5 -25.5q-41 -8 -41 -19l4 -16l22 -37l54 -86l71 -125l41 -67l35 -56l74 -119q4 -6 10 -10t10 -4q12 0 31.5 34t36.5 79l65 110l70 111 l74 111l12 53l-55 -2q-37 0 -64 57q-10 16 -14 32.5t-4 35.5q0 63 100 86l205 32q141 18 164 19q113 0 112 -125q0 -29 -13 -61.5t-27.5 -43t-51.5 -10.5h-8q-47 0 -61.5 -10t-42.5 -61l-47 -70q-29 -41 -48.5 -71.5t-29.5 -49.5l-27 -47l-31 -51l-69 -135l-27 -47 q-4 -4 -20.5 -38t-28.5 -61l-49 -98q-35 -80 -35 -180l2 -23v-90q-10 -45 -10 -76t39 -30l39 4h14q47 0 86 -43t39 -97l-2 -10q-6 -18 -33 -26l-39 -15l-92 -28l-94 -17l-101 -8l-79 -6h-19q-43 0 -59.5 8t-62.5 53t-46 72q0 61 84 70.5t94.5 21.5t10.5 66l-4 88v45v47l2 37 l-5 59l-45 103q-10 25 -17 39t-34 55l-61 96l-41 68l-41 69l-43 66l-55 102l-66 96l-59 99q-6 10 -50 10q-31 0 -56 19.5t-25 41.5l-7 62zM495 1792q0 59 58 86l221 86l35 6q37 0 63.5 -24.5t26.5 -63.5q0 -63 -59 -84l-222 -86l-34 -6q-35 0 -62 24.5t-27 61.5z" />
<glyph unicode="&#xdf;" horiz-adv-x="1128" d="M0 2q0 27 10 61q16 37 23 43l45 25l37 16q35 16 42 27.5t7 44.5q0 76 -19 168v217v166l2 49l9 213l8 187q6 66 35 139q29 61 71.5 110.5t74.5 64.5t83 15l68 -2h82l65 2q45 0 149.5 -59t104.5 -201q0 -82 -43 -166t-85 -104.5t-52 -27.5t-19 -15q0 -10 19 -19l84 -24 q14 -4 31.5 -11.5t44.5 -23.5q88 -45 131 -94q35 -33 49 -72t14 -96q0 -248 -174 -442.5t-397 -194.5q-78 0 -78 55q0 14 8 35l23 55q8 14 75 15q25 0 72 29.5t77 59t97.5 136t67.5 309.5q0 43 -18.5 99.5t-192.5 56.5l-47 -4l-105 -17q-90 -8 -102 -20q-6 -10 -6 -72v-76 v-135v-133v-135v-35l2 -100v-8q0 -61 -18.5 -86t-71.5 -35l-66 -15l-70 -10l-71 -4l-23 -2q-35 0 -44 7t-9 34zM377 989l4 -22l4 -6q301 63 301 374q0 119 -86 119q-94 0 -135 -68.5t-51.5 -97t-16.5 -61.5l-14 -127z" />
<glyph unicode="&#xe0;" horiz-adv-x="1083" d="M59 188q0 39 4.5 56.5t30.5 64.5l41 68q10 14 70.5 64.5t146.5 86.5l97 41q20 8 57 22.5t41 14.5l188 45q2 10 4 23.5t0 23.5l-4 47l-6 62q-8 57 -27.5 79.5t-64.5 22.5q-55 0 -133 -43t-166 -121l-82 -73q-47 -41 -100 -41q-61 0 -62 61q0 41 32 89t107 124l86 78 q117 92 261 92q76 0 122 -31l58 -38l59 -35q43 -27 78 -122t35 -192v-145l2 -104v-76q0 -23 -2 -31l-6 -65q0 -47 14 -48l86 -4q33 -4 52.5 -34.5t19.5 -51.5q0 -37 -35 -59q-72 -39 -127 -61.5t-84 -22.5q-84 0 -96.5 52t-26.5 52l-16 -2l-103 -45q-25 -12 -106 -28 q-98 -16 -150 -17q-86 0 -125 21l-30 18l-35 14q-45 16 -75 64.5t-30 103.5zM254 168q0 -25 94 -25q29 0 52.5 3.5t64.5 11.5l76 12l69 27q76 29 91.5 39t36 42.5t20.5 73.5q0 37 -12.5 57.5t-34.5 20.5q-14 0 -49 -13.5t-66 -25.5l-117 -51q-27 -10 -52.5 -23.5 t-61.5 -40.5l-64 -49q-27 -23 -37 -35t-10 -24zM284 1315q0 39 25.5 62.5t64.5 23.5q20 0 33 -6l223 -86q59 -27 60 -84q0 -39 -27 -63.5t-65 -24.5l-33 6l-221 86q-27 12 -43.5 34.5t-16.5 51.5z" />
<glyph unicode="&#xe1;" horiz-adv-x="1083" d="M59 188q0 39 4.5 56.5t30.5 64.5l41 68q10 14 70.5 64.5t146.5 86.5l97 41q20 8 57 22.5t41 14.5l188 45q2 10 4 23.5t0 23.5l-4 47l-6 62q-8 57 -27.5 79.5t-64.5 22.5q-55 0 -133 -43t-166 -121l-82 -73q-47 -41 -100 -41q-61 0 -62 61q0 41 32 89t107 124l86 78 q117 92 261 92q76 0 122 -31l58 -38l59 -35q43 -27 78 -122t35 -192v-145l2 -104v-76q0 -23 -2 -31l-6 -65q0 -47 14 -48l86 -4q33 -4 52.5 -34.5t19.5 -51.5q0 -37 -35 -59q-72 -39 -127 -61.5t-84 -22.5q-84 0 -96.5 52t-26.5 52l-16 -2l-103 -45q-25 -12 -106 -28 q-98 -16 -150 -17q-86 0 -125 21l-30 18l-35 14q-45 16 -75 64.5t-30 103.5zM254 168q0 -25 94 -25q29 0 52.5 3.5t64.5 11.5l76 12l69 27q76 29 91.5 39t36 42.5t20.5 73.5q0 37 -12.5 57.5t-34.5 20.5q-14 0 -49 -13.5t-66 -25.5l-117 -51q-27 -10 -52.5 -23.5 t-61.5 -40.5l-64 -49q-27 -23 -37 -35t-10 -24zM452 1223q0 59 58 86l221 86l35 6q37 0 63.5 -24.5t26.5 -63.5q0 -63 -59 -84l-222 -86l-34 -6q-35 0 -62 24.5t-27 61.5z" />
<glyph unicode="&#xe2;" horiz-adv-x="1083" d="M59 188q0 39 4.5 56.5t30.5 64.5l41 68q10 14 70.5 64.5t146.5 86.5l97 41q20 8 57 22.5t41 14.5l188 45q2 10 4 23.5t0 23.5l-4 47l-6 62q-8 57 -27.5 79.5t-64.5 22.5q-55 0 -133 -43t-166 -121l-82 -73q-47 -41 -100 -41q-61 0 -62 61q0 41 32 89t107 124l86 78 q117 92 261 92q76 0 122 -31l58 -38l59 -35q43 -27 78 -122t35 -192v-145l2 -104v-76q0 -23 -2 -31l-6 -65q0 -47 14 -48l86 -4q33 -4 52.5 -34.5t19.5 -51.5q0 -37 -35 -59q-72 -39 -127 -61.5t-84 -22.5q-84 0 -96.5 52t-26.5 52l-16 -2l-103 -45q-25 -12 -106 -28 q-98 -16 -150 -17q-86 0 -125 21l-30 18l-35 14q-45 16 -75 64.5t-30 103.5zM254 168q0 -25 94 -25q29 0 52.5 3.5t64.5 11.5l76 12l69 27q76 29 91.5 39t36 42.5t20.5 73.5q0 37 -12.5 57.5t-34.5 20.5q-14 0 -49 -13.5t-66 -25.5l-117 -51q-27 -10 -52.5 -23.5 t-61.5 -40.5l-64 -49q-27 -23 -37 -35t-10 -24zM276 1225q0 57 58 82l159 63q31 14 47 14t48 -14l159 -61q57 -25 58 -82q0 -41 -26 -66.5t-66 -25.5q-20 0 -33 6l-140 55l-141 -55q-12 -6 -33 -6q-39 0 -64.5 25.5t-25.5 64.5z" />
<glyph unicode="&#xe3;" horiz-adv-x="1083" d="M59 188q0 39 4.5 56.5t30.5 64.5l41 68q10 14 70.5 64.5t146.5 86.5l97 41q20 8 57 22.5t41 14.5l188 45q2 10 4 23.5t0 23.5l-4 47l-6 62q-8 57 -27.5 79.5t-64.5 22.5q-55 0 -133 -43t-166 -121l-82 -73q-47 -41 -100 -41q-61 0 -62 61q0 41 32 89t107 124l86 78 q117 92 261 92q76 0 122 -31l58 -38l59 -35q43 -27 78 -122t35 -192v-145l2 -104v-76q0 -23 -2 -31l-6 -65q0 -47 14 -48l86 -4q33 -4 52.5 -34.5t19.5 -51.5q0 -37 -35 -59q-72 -39 -127 -61.5t-84 -22.5q-84 0 -96.5 52t-26.5 52l-16 -2l-103 -45q-25 -12 -106 -28 q-98 -16 -150 -17q-86 0 -125 21l-30 18l-35 14q-45 16 -75 64.5t-30 103.5zM254 168q0 -25 94 -25q29 0 52.5 3.5t64.5 11.5l76 12l69 27q76 29 91.5 39t36 42.5t20.5 73.5q0 37 -12.5 57.5t-34.5 20.5q-14 0 -49 -13.5t-66 -25.5l-117 -51q-27 -10 -52.5 -23.5 t-61.5 -40.5l-64 -49q-27 -23 -37 -35t-10 -24zM280 1227q0 37 25 61.5t59 24.5h353q37 0 61.5 -24.5t24.5 -61.5t-24.5 -61.5t-63.5 -24.5h-351q-35 0 -59.5 24.5t-24.5 61.5z" />
<glyph unicode="&#xe4;" horiz-adv-x="1083" d="M59 186q0 41 4.5 58.5t30.5 64.5l41 68q27 33 84 77t81 54l108 45l41 16q84 37 98 37l188 45q2 10 4 23.5t0 23.5l-4 47l-6 62q0 16 -5 33.5t-15.5 43t-69.5 25.5q-125 0 -301 -164l-82 -73q-47 -41 -102 -41q-59 0 -60 61q0 41 32 89t107 124l86 78q117 92 261 92 q76 0 122 -31l58 -38l59 -35q43 -27 78 -122t35 -192v-145l2 -104v-76q0 -23 -2 -31l-6 -65q0 -47 14 -48l86 -4q33 -4 52.5 -34.5t19.5 -51.5q0 -37 -35 -59q-72 -39 -127 -61.5t-84 -22.5q-84 0 -96.5 52t-26.5 52l-16 -2l-103 -45q-25 -12 -106 -28q-98 -16 -150 -17 q-86 0 -125 21l-30 18l-35 14q-43 16 -74 63.5t-31 102.5zM250 1260q0 51 59.5 93t106.5 42q45 0 51 -21l25 -71l12 -58q0 -33 -40 -67.5t-104 -34.5q-45 0 -77.5 34.5t-32.5 82.5zM254 168q0 -25 84 -25l78 4l49 11l76 12l69 27q49 18 63.5 24t51.5 37t37 92 q0 33 -14.5 56.5t-36.5 23.5q-14 0 -54.5 -15.5t-60.5 -23.5l-117 -51q-18 -6 -63 -31l-51 -33l-11 -8q-100 -73 -100 -100zM616 1260q0 53 59.5 94t108.5 41q43 0 47 -21l25 -71q14 -38 14 -58q0 -33 -39.5 -67.5t-103.5 -34.5q-47 0 -79 33.5t-32 83.5z" />
<glyph unicode="&#xe5;" horiz-adv-x="1083" d="M59 188l4 54q16 47 62 116q23 41 90.5 92.5t136.5 77.5l97 41q20 8 57 22.5t41 14.5l188 45q2 10 4 23.5t0 23.5l-4 47l-6 62q-8 61 -25.5 80.5t-66.5 19.5q-59 0 -137 -42t-162 -120l-82 -73q-47 -41 -102 -41q-59 0 -60 61q0 41 32 89t107 124l86 78q117 92 261 92 q76 0 122 -31l58 -38l59 -35q43 -27 78 -122t35 -192v-145l2 -104v-76q0 -23 -2 -31l-6 -65q0 -47 14 -48l86 -4q33 -4 52.5 -34.5t19.5 -51.5q0 -37 -35 -59q-72 -39 -127 -61.5t-84 -22.5q-84 0 -96.5 52t-26.5 52l-16 -2l-103 -45q-25 -12 -106 -28q-98 -16 -150 -17 q-86 0 -125 21l-30 18l-35 14q-47 16 -76 63.5t-29 104.5zM254 168q0 -10 24.5 -18.5t61.5 -8.5l43 4l158 25l69 27l70 28q37 16 57.5 50t20.5 77q0 33 -13.5 54.5t-33.5 21.5q-25 0 -115 -37l-117 -51q-18 -6 -63 -31l-51 -33l-11 -8q-100 -73 -100 -100zM387 1303 q0 66 55.5 112.5t135.5 46.5q76 0 130 -47t54 -112q0 -68 -54.5 -114t-132.5 -46t-133 47t-55 113zM508 1303q0 -29 19.5 -48.5t45.5 -19.5q29 0 49.5 18.5t20.5 49.5q0 29 -20.5 47t-49.5 18q-25 0 -45 -18t-20 -47z" />
<glyph unicode="&#xe6;" horiz-adv-x="1671" d="M59 190q0 41 4.5 54.5t30.5 64.5l41 68l58 55q76 61 159 96l97 41q20 8 57 22.5t41 14.5l188 45q2 10 4 23.5t0 23.5l-4 47l-6 62q-8 61 -25.5 80.5t-66.5 19.5q-59 0 -137 -42t-162 -120l-82 -73q-47 -41 -102 -41q-59 0 -60 61q0 41 32 89t107 124l86 78 q53 43 122 67.5t134 24.5q68 0 121.5 -26.5t105.5 -78.5t75 -52q14 0 25 11t31.5 41.5t42 47t82 45.5t122 47t106.5 18q72 0 144 -59l51 -43l51 -45q68 -78 67 -201q0 -72 -4 -129t-13 -97t-112 -54l-28 -4l-49 -4l-117 -25l-90 -21l-27 -4l-115 -26q-47 0 -76.5 -8.5 t-37.5 -19.5t-8 -97q0 -82 25.5 -116t86.5 -34q55 0 135 20.5t134 49.5l96 53l53 27l51 26q10 6 27 7q31 0 50 -24t19 -60q0 -37 -24.5 -67t-97.5 -81q-66 -35 -126.5 -61.5t-97.5 -36.5l-125 -27q-113 -23 -147 -22q-51 0 -108.5 12t-79 23.5t-29.5 35.5q-20 43 -35 43 l-16 -2l-103 -45q-25 -12 -106 -28q-98 -16 -150 -17q-86 0 -125 21l-30 18l-35 14q-31 10 -59.5 45t-37 60t-8.5 65zM254 168q0 -10 25.5 -18.5t64.5 -8.5l39 4l82 13l76 12l69 27q33 12 53.5 20t57.5 37t37 98q0 33 -12.5 54.5t-32.5 21.5q-31 0 -117 -37l-117 -51 q-33 -12 -82 -44t-96 -69q-47 -41 -47 -59zM905 567l4 -6l107 23l6 2l102 20l109 23q80 18 115.5 29.5t42 45t6.5 123.5q0 143 -74 144q-16 0 -49 -17l-66 -32l-61 -39q-14 -10 -50 -42t-65 -65q-31 -29 -51 -61l-41 -64q-35 -55 -35 -84z" />
<glyph unicode="&#xe7;" horiz-adv-x="1040" d="M59 412q0 201 117 387l68 94q41 53 83 88t85 57.5t96 39t78 16.5q23 0 59 -11l62 -20q18 -12 33.5 -19.5t21.5 -9.5q10 0 14 10l12 54q10 37 41 37t64 -22.5t43 -46.5t10 -79v-47l-10 -119l-4 -73l-2 -43q0 -100 -60 -101l-34 6q-51 23 -60 56l-20 184q-2 6 -6.5 13 t-20.5 27.5t-57 20.5q-47 0 -112.5 -42t-117 -100t-83 -103t-56 -94.5t-47.5 -135.5t-23 -139q0 -90 41 -109.5t87.5 -27.5t87.5 -8l73 6q63 12 94 19t52 18l57 26l55 31l49 37q90 61 117 61q14 0 26.5 -25.5t12.5 -58.5q0 -61 -53 -108l-64 -52l-65 -49q-61 -41 -137 -67 q-70 -29 -164 -29q-72 0 -135.5 15.5t-89 29.5t-60.5 46t-52.5 49.5t-25.5 31.5t-19 40t-26.5 62.5t-25 78.5t-9.5 98zM319 -332q0 33 13 64l80 162q61 -18 96 -19q27 0 51.5 7t38.5 12l-127 -283q-18 -43 -65 -43q-37 0 -62 28.5t-25 71.5z" />
<glyph unicode="&#xe8;" horiz-adv-x="1046" d="M57 414q0 319 155 464.5t197 170t119.5 52t133.5 27.5q31 0 45 -4t45.5 -21.5t48 -28.5t55.5 -48l51 -45q68 -82 68 -201q0 -162 -13.5 -214t-115.5 -66l-29 -4l-49 -4l-117 -25l-88 -21l-143 -30l-92 -23q-68 -14 -85.5 -25.5t-17.5 -39.5q0 -186 140 -187l102 4 q43 8 109.5 28t101.5 38l96 53l53 27l52 26q10 6 26 7q31 0 50.5 -24t19.5 -60q0 -43 -21.5 -64.5t-56.5 -49.5t-79 -54.5t-155.5 -65.5t-187.5 -39q-170 0 -294 120t-124 327zM266 1315q0 39 25.5 62.5t64.5 23.5q20 0 33 -6l223 -86q59 -27 60 -84q0 -39 -27 -63.5 t-65 -24.5l-33 6l-221 86q-27 12 -43.5 34.5t-16.5 51.5zM281 573l4 -12l20 8l86 15l8 2l101 20l108 23q131 31 142 43q23 16 22 108v78q0 45 -31 90q-18 23 -39 23q-29 0 -118 -49l-62 -39l-57 -52q-16 -14 -39 -36.5t-45 -46.5l-25 -33l-39 -64q-37 -57 -36 -78z" />
<glyph unicode="&#xe9;" horiz-adv-x="1046" d="M57 414q0 319 155 464.5t197 170t119.5 52t133.5 27.5q31 0 45 -4t45.5 -21.5t48 -28.5t55.5 -48l51 -45q68 -82 68 -201q0 -162 -13.5 -214t-115.5 -66l-29 -4l-49 -4l-117 -25l-88 -21l-143 -30l-92 -23q-68 -14 -85.5 -25.5t-17.5 -39.5q0 -186 140 -187l102 4 q43 8 109.5 28t101.5 38l96 53l53 27l52 26q10 6 26 7q31 0 50.5 -24t19.5 -60q0 -43 -21.5 -64.5t-56.5 -49.5t-79 -54.5t-155.5 -65.5t-187.5 -39q-170 0 -294 120t-124 327zM281 573l4 -12l20 8l86 15l8 2l101 20l108 23q131 31 142 43q23 16 22 108v78q0 45 -31 90 q-18 23 -39 23q-29 0 -118 -49l-62 -39l-57 -52q-16 -14 -39 -36.5t-45 -46.5l-25 -33l-39 -64q-37 -57 -36 -78zM434 1223q0 59 58 86l221 86l35 6q37 0 63.5 -24.5t26.5 -63.5q0 -63 -59 -84l-222 -86l-34 -6q-35 0 -62 24.5t-27 61.5z" />
<glyph unicode="&#xea;" horiz-adv-x="1046" d="M57 414q0 319 155 464.5t197 170t119.5 52t133.5 27.5q31 0 45 -4t45.5 -21.5t48 -28.5t55.5 -48l51 -45q68 -82 68 -201q0 -162 -13.5 -214t-115.5 -66l-29 -4l-49 -4l-117 -25l-88 -21l-143 -30l-92 -23q-68 -14 -85.5 -25.5t-17.5 -39.5q0 -186 140 -187l102 4 q43 8 109.5 28t101.5 38l96 53l53 27l52 26q10 6 26 7q31 0 50.5 -24t19.5 -60q0 -43 -21.5 -64.5t-56.5 -49.5t-79 -54.5t-155.5 -65.5t-187.5 -39q-170 0 -294 120t-124 327zM258 1225q0 57 58 82l159 63q31 14 47 14t48 -14l159 -61q57 -25 58 -82q0 -41 -26 -66.5 t-66 -25.5q-20 0 -33 6l-140 55l-141 -55q-12 -6 -33 -6q-39 0 -64.5 25.5t-25.5 64.5zM281 573l4 -12l20 8l86 15l8 2l101 20l108 23q131 31 142 43q23 16 22 108v78q0 45 -31 90q-18 23 -39 23q-29 0 -118 -49l-62 -39l-57 -52q-16 -14 -39 -36.5t-45 -46.5l-25 -33 l-39 -64q-37 -57 -36 -78z" />
<glyph unicode="&#xeb;" horiz-adv-x="1046" d="M57 414q0 319 155 464.5t197 170t119.5 52t133.5 27.5q31 0 45 -4t45.5 -21.5t48 -28.5t55.5 -48l51 -45q68 -82 68 -201q0 -162 -13.5 -214t-115.5 -66l-29 -4l-49 -4l-117 -25l-88 -21l-143 -30l-92 -23q-68 -14 -85.5 -25.5t-17.5 -39.5q0 -186 140 -187l102 4 q43 8 109.5 28t101.5 38l96 53l53 27l52 26q10 6 26 7q31 0 50.5 -24t19.5 -60q0 -43 -21.5 -64.5t-56.5 -49.5t-79 -54.5t-155.5 -65.5t-187.5 -39q-170 0 -294 120t-124 327zM213 1257q0 49 66 99q29 18 53.5 27.5t46.5 9.5q45 0 51 -21l25 -72q14 -47 14 -59 q0 -14 -10 -29.5t-41 -43t-94 -27.5q-45 0 -78 34.5t-33 81.5zM281 573l4 -12l20 8l86 15l8 2l101 20l108 23q131 31 142 43q23 16 22 108v78q0 45 -31 90q-18 23 -39 23q-29 0 -118 -49l-62 -39l-57 -52q-16 -14 -39 -36.5t-45 -46.5l-25 -33l-39 -64q-37 -57 -36 -78z M580 1257q0 49 65 99q29 18 53.5 27.5t49.5 9.5q45 0 49 -21l25 -72q12 -41 12 -59q0 -33 -40 -66.5t-104 -33.5q-47 0 -78.5 33.5t-31.5 82.5z" />
<glyph unicode="&#xec;" horiz-adv-x="507" d="M-29 889q0 43 62 67l45 17l69 20l62 17l57 8l60 -31q47 -29 47 -78v-8l-8 -151l-3 -150l-4 -147l-2 -154v-31v-16q0 -39 8.5 -44t26 -9t41 -7.5t50 -45.5t26.5 -95q0 -27 -43 -41l-16 -2h-11l-86 -18l-88 -8l-94 -7h-8q-57 0 -104.5 39t-47.5 92q0 45 66 58 q59 14 72.5 25.5t13.5 48.5l-6 100v143v47l-2 95l2 67l-4 72q-12 12 -35 12l-37 2q-16 0 -27.5 4t-22 9.5t-35 40t-24.5 59.5zM-4 1315q0 39 25.5 62.5t64.5 23.5q20 0 33 -6l223 -86q59 -27 60 -84q0 -39 -27 -63.5t-65 -24.5l-33 6l-221 86q-27 12 -43.5 34.5t-16.5 51.5z " />
<glyph unicode="&#xed;" horiz-adv-x="507" d="M-29 889q0 43 62 67l45 17l69 20l62 17l57 8l60 -31q47 -29 47 -78v-8l-8 -151l-3 -150l-4 -147l-2 -154v-31v-16q0 -39 8.5 -44t26 -9t41 -7.5t50 -45.5t26.5 -95q0 -27 -43 -41l-16 -2h-11l-86 -18l-88 -8l-94 -7h-8q-57 0 -104.5 39t-47.5 92q0 45 66 58 q59 14 72.5 25.5t13.5 48.5l-6 100v143v47l-2 95l2 67l-4 72q-12 12 -35 12l-37 2q-16 0 -27.5 4t-22 9.5t-35 40t-24.5 59.5zM163 1223q0 59 58 86l221 86l35 6q37 0 63.5 -24.5t26.5 -63.5q0 -63 -59 -84l-222 -86l-34 -6q-35 0 -62 24.5t-27 61.5z" />
<glyph unicode="&#xee;" horiz-adv-x="507" d="M-29 889q0 43 62 67l45 17l69 20l62 17l57 8l60 -31q47 -29 47 -78v-8l-8 -151l-3 -150l-4 -147l-2 -154v-31v-16q0 -39 8.5 -44t26 -9t41 -7.5t50 -45.5t26.5 -95q0 -27 -43 -41l-16 -2h-11l-86 -18l-88 -8l-94 -7h-8q-57 0 -104.5 39t-47.5 92q0 45 66 58 q59 14 72.5 25.5t13.5 48.5l-6 100v143v47l-2 95l2 67l-4 72q-12 12 -35 12l-37 2q-16 0 -27.5 4t-22 9.5t-35 40t-24.5 59.5zM-11 1225q0 57 58 82l159 63q31 14 47 14t48 -14l159 -61q57 -25 58 -82q0 -41 -26 -66.5t-66 -25.5q-20 0 -33 6l-140 55l-141 -55 q-12 -6 -33 -6q-39 0 -64.5 25.5t-25.5 64.5z" />
<glyph unicode="&#xef;" horiz-adv-x="507" d="M-56 1257q0 49 66 99q29 18 53.5 27.5t46.5 9.5q45 0 51 -21l25 -72q14 -47 14 -59q0 -14 -10 -29.5t-41 -43t-94 -27.5q-45 0 -78 34.5t-33 81.5zM-29 889q0 43 62 67l45 17l69 20l62 17l57 8l60 -31q47 -29 47 -78v-8l-8 -151l-3 -150l-4 -147l-2 -154v-31v-16 q0 -39 8.5 -44t26 -9t41 -7.5t50 -45.5t26.5 -95q0 -27 -43 -41l-16 -2h-11l-86 -18l-88 -8l-94 -7h-8q-57 0 -104.5 39t-47.5 92q0 45 66 58q59 14 72.5 25.5t13.5 48.5l-6 100v143v47l-2 95l2 67l-4 72q-12 12 -35 12l-37 2q-16 0 -27.5 4t-22 9.5t-35 40t-24.5 59.5z M311 1257q0 49 65 99q29 18 53.5 27.5t49.5 9.5q45 0 49 -21l25 -72q12 -41 12 -59q0 -33 -40 -66.5t-104 -33.5q-47 0 -78.5 33.5t-31.5 82.5z" />
<glyph unicode="&#xf1;" horiz-adv-x="1196" d="M0 928q0 51 80 73l80 19q35 10 59.5 14t42.5 4q74 0 82 -12l18 -55q4 -6 17 -6q29 0 68.5 14t99.5 14h22l105 -6l59 -14l58 -15q18 -4 63 -32l64 -43q37 -25 69.5 -76t46 -110.5t18.5 -105.5t5 -104q0 -63 -8 -96l-9 -117q0 -29 10.5 -40t70 -30.5t59.5 -88.5 q0 -53 -59.5 -74t-262.5 -21q-51 0 -82 9q-29 12 -51.5 48t-22.5 77t68 41q53 0 63.5 8t10.5 51v29l6 71q2 8 -1 55.5t-3 77.5l-6 131q0 139 -41 194.5t-137 55.5q-39 0 -65 -6t-67 -20.5t-70.5 -29.5t-48 -31.5t-25.5 -37t-7 -65.5l-8 -123q-6 -23 -6 -127v-68v-16v-45 l-3 -78q0 -43 9 -49l55 -18q63 -23 63 -72q0 -78 -122 -100q-121 -16 -183 -17q-41 0 -68.5 7.5t-45 24.5t-33.5 54l-17 53q0 31 80 43q41 10 55.5 22.5t14.5 43.5q0 55 -12 117v155v154q0 25 -1 46.5t-1 41.5q0 23 2 31l2 26q0 18 -11.5 24.5t-55.5 13.5t-68.5 36t-24.5 70 zM335 1227q0 37 25 61.5t59 24.5h353q37 0 61.5 -24.5t24.5 -61.5t-24.5 -61.5t-63.5 -24.5h-351q-35 0 -59.5 24.5t-24.5 61.5z" />
<glyph unicode="&#xf2;" horiz-adv-x="1167" d="M57 418q0 51 8.5 112.5t23.5 118t69.5 131t97.5 105t60.5 41t60.5 32.5l108 46l62 10l96 4l31 -2l69 -15l76 -14q117 -20 205 -158.5t88 -300.5q0 -94 -32.5 -194.5t-126 -233.5t-314.5 -133l-55 2l-62 2l-61 9q-74 12 -95.5 19t-39 15.5t-31.5 15.5t-27.5 14t-23.5 15 l-51 45q-47 43 -70 74t-44.5 88.5t-21.5 151.5zM266 422q0 -143 76.5 -236.5t187.5 -93.5q90 0 171 50.5t132.5 142.5t51.5 268q0 154 -70 250t-184 96q-68 0 -150 -58.5t-124 -123t-50 -84t-14 -51.5l-12 -47l-15 -93v-20zM325 1315q0 39 25.5 62.5t64.5 23.5q20 0 33 -6 l223 -86q59 -27 60 -84q0 -39 -27 -63.5t-65 -24.5l-33 6l-221 86q-27 12 -43.5 34.5t-16.5 51.5z" />
<glyph unicode="&#xf3;" horiz-adv-x="1167" d="M57 418q0 51 8.5 112.5t23.5 118t69.5 131t97.5 105t60.5 41t60.5 32.5l108 46l62 10l96 4l31 -2l69 -15l76 -14q117 -20 205 -158.5t88 -300.5q0 -94 -32.5 -194.5t-126 -233.5t-314.5 -133l-55 2l-62 2l-61 9q-74 12 -95.5 19t-39 15.5t-31.5 15.5t-27.5 14t-23.5 15 l-51 45q-47 43 -70 74t-44.5 88.5t-21.5 151.5zM266 422q0 -143 76.5 -236.5t187.5 -93.5q90 0 171 50.5t132.5 142.5t51.5 268q0 154 -70 250t-184 96q-68 0 -150 -58.5t-124 -123t-50 -84t-14 -51.5l-12 -47l-15 -93v-20zM493 1223q0 59 58 86l221 86l35 6 q37 0 63.5 -24.5t26.5 -63.5q0 -63 -59 -84l-222 -86l-34 -6q-35 0 -62 24.5t-27 61.5z" />
<glyph unicode="&#xf4;" horiz-adv-x="1167" d="M57 418q0 51 8.5 112.5t23.5 118t69.5 131t97.5 105t60.5 41t60.5 32.5l108 46l62 10l96 4l31 -2l69 -15l76 -14q117 -20 205 -158.5t88 -300.5q0 -94 -32.5 -194.5t-126 -233.5t-314.5 -133l-55 2l-62 2l-61 9q-74 12 -95.5 19t-39 15.5t-31.5 15.5t-27.5 14t-23.5 15 l-51 45q-47 43 -70 74t-44.5 88.5t-21.5 151.5zM266 422q0 -143 76.5 -236.5t187.5 -93.5q90 0 171 50.5t132.5 142.5t51.5 268q0 154 -70 250t-184 96q-68 0 -150 -58.5t-124 -123t-50 -84t-14 -51.5l-12 -47l-15 -93v-20zM319 1225q0 57 58 82l159 63q31 14 47 14t48 -14 l159 -61q57 -25 58 -82q0 -41 -26 -66.5t-66 -25.5q-20 0 -33 6l-140 55l-141 -55q-12 -6 -33 -6q-39 0 -64.5 25.5t-25.5 64.5z" />
<glyph unicode="&#xf5;" horiz-adv-x="1167" d="M57 418q0 51 8.5 112.5t23.5 118t69.5 131t97.5 105t60.5 41t60.5 32.5l108 46l62 10l96 4l31 -2l69 -15l76 -14q117 -20 205 -158.5t88 -300.5q0 -94 -32.5 -194.5t-126 -233.5t-314.5 -133l-55 2l-62 2l-61 9q-74 12 -95.5 19t-39 15.5t-31.5 15.5t-27.5 14t-23.5 15 l-51 45q-47 43 -70 74t-44.5 88.5t-21.5 151.5zM266 422q0 -143 76.5 -236.5t187.5 -93.5q90 0 171 50.5t132.5 142.5t51.5 268q0 154 -70 250t-184 96q-68 0 -150 -58.5t-124 -123t-50 -84t-14 -51.5l-12 -47l-15 -93v-20zM321 1227q0 37 25 61.5t59 24.5h353 q37 0 61.5 -24.5t24.5 -61.5t-24.5 -61.5t-63.5 -24.5h-351q-35 0 -59.5 24.5t-24.5 61.5z" />
<glyph unicode="&#xf6;" horiz-adv-x="1167" d="M57 418q0 158 52.5 278.5t128 175t101.5 68.5t93 43l53 21q20 6 64.5 10t87.5 4l37 -2l69 -15l76 -14q117 -20 205 -158.5t88 -300.5q0 -94 -32.5 -194.5t-126 -233.5t-314.5 -133l-55 2l-62 2l-61 9q-74 12 -95.5 19t-39 15.5t-31.5 15.5t-27.5 14t-23.5 15l-51 45 q-47 43 -70 74t-44.5 88.5t-21.5 151.5zM266 422q0 -145 77 -238.5t192 -93.5q53 0 117.5 26.5t148.5 104.5t84 328q0 160 -70 255t-188 95q-53 0 -123 -43t-134.5 -123t-76.5 -151l-12 -47l-11 -56zM295 1255q0 47 63 99q29 18 53.5 27.5t49.5 9.5q45 0 51 -21l25 -72 q12 -41 12 -59q0 -31 -40 -65.5t-103 -34.5q-45 0 -78 34.5t-33 81.5zM659 1255q0 49 48.5 83t73 43.5t46.5 9.5q45 0 50 -21l24 -72q12 -41 12 -59q0 -33 -39.5 -66.5t-103.5 -33.5q-45 0 -78 34.5t-33 81.5z" />
<glyph unicode="&#xf7;" horiz-adv-x="1124" d="M88 414v139h948v-139h-948zM446 207q0 49 36 83t81 34q49 0 82 -33t33 -84q0 -49 -35 -82q-31 -35 -80 -35t-83 36t-34 81zM446 758q0 49 36 82.5t81 33.5q49 0 82 -34.5t33 -81.5q0 -49 -35 -82q-31 -35 -80 -35t-83 34t-34 83z" />
<glyph unicode="&#xf8;" horiz-adv-x="1177" d="M29 -37l4 70l37 41l41 41l47 47q-27 27 -42.5 48t-25.5 46q-12 37 -18 74t-6 84q0 139 30.5 232t87 157.5t99.5 96.5t74.5 46.5t78.5 34.5t58 23l90 12l34 2q53 0 62 -2l74 -15l71 -14q23 -4 41.5 -13t46.5 -34q53 51 88 83t82 71l82 2l-16 -70l-94 -88q-18 -16 -51 -70 l40 -59q76 -129 76 -281q0 -90 -34.5 -193.5t-127 -235.5t-311.5 -132l-55 2l-64 2l-61 9q-47 8 -83 16t-81 33l-53 30l-29 31q-43 -29 -66.5 -53.5t-64.5 -79.5zM250 465q0 -76 45 -160l125 133l125 135l119 125l118 123q-55 37 -129 37q-82 0 -131 -26.5t-107.5 -74.5 t-99.5 -104q-66 -78 -65 -188zM344 217q35 -72 88 -100q25 -10 54.5 -18.5t56.5 -8.5q70 0 141.5 37t119.5 98.5t68.5 138t20.5 185.5q0 88 -39 194l-119 -118l-291 -299z" />
<glyph unicode="&#xf9;" horiz-adv-x="1198" d="M0 819q0 66 154 107q20 8 71 14q39 10 68 10q96 0 96 -102l-8 -131q-2 -6 -3 -42t-1 -59v-53q0 -154 8 -215l16 -92q27 -94 142 -94q51 0 87 10t112.5 46t90 65.5t13.5 134.5l-2 31v108l-2 76l2 33l2 88q0 45 -35 45l-51 2q-16 0 -40 21.5t-38 47t-14 41.5q0 31 14 43.5 t74 32.5l73 29q45 18 76 18q29 -4 62.5 -17t52 -28.5t23 -44.5t4.5 -151q0 -61 -4.5 -218t-4.5 -163l-2 -64v-67l-2 -31q0 -43 37 -43l39 -4q37 0 62.5 -30t25.5 -75q0 -31 -18.5 -44t-92.5 -36l-81 -36q-53 -27 -76 -27l-8 2q-8 0 -36 25.5t-34 37.5l-8 17l-13 2 q-20 0 -57 -12q-23 -10 -71 -18.5t-85 -8.5q-61 0 -134.5 18.5t-127.5 47.5l-41 24l-43 25q-43 29 -63.5 85t-29.5 83.5t-11 48.5l-10 112l-6 95l2 22l2 55q0 47 -11 58l-51 28q-94 39 -94 117zM342 1315q0 39 25.5 62.5t64.5 23.5q20 0 33 -6l223 -86q59 -27 60 -84 q0 -39 -27 -63.5t-65 -24.5l-33 6l-221 86q-27 12 -43.5 34.5t-16.5 51.5z" />
<glyph unicode="&#xfa;" horiz-adv-x="1198" d="M0 819q0 66 154 107q20 8 71 14q39 10 68 10q96 0 96 -102l-8 -131q-2 -6 -3 -42t-1 -59v-53q0 -154 8 -215l16 -92q27 -94 142 -94q51 0 87 10t112.5 46t90 65.5t13.5 134.5l-2 31v108l-2 76l2 33l2 88q0 45 -35 45l-51 2q-16 0 -40 21.5t-38 47t-14 41.5q0 31 14 43.5 t74 32.5l73 29q45 18 76 18q29 -4 62.5 -17t52 -28.5t23 -44.5t4.5 -151q0 -61 -4.5 -218t-4.5 -163l-2 -64v-67l-2 -31q0 -43 37 -43l39 -4q37 0 62.5 -30t25.5 -75q0 -31 -18.5 -44t-92.5 -36l-81 -36q-53 -27 -76 -27l-8 2q-8 0 -36 25.5t-34 37.5l-8 17l-13 2 q-20 0 -57 -12q-23 -10 -71 -18.5t-85 -8.5q-61 0 -134.5 18.5t-127.5 47.5l-41 24l-43 25q-43 29 -63.5 85t-29.5 83.5t-11 48.5l-10 112l-6 95l2 22l2 55q0 47 -11 58l-51 28q-94 39 -94 117zM510 1223q0 59 58 86l221 86l35 6q37 0 63.5 -24.5t26.5 -63.5q0 -63 -59 -84 l-222 -86l-34 -6q-35 0 -62 24.5t-27 61.5z" />
<glyph unicode="&#xfb;" horiz-adv-x="1198" d="M0 819q0 66 154 107q20 8 71 14q39 10 68 10q96 0 96 -102l-8 -131q-2 -6 -3 -42t-1 -59v-53q0 -154 8 -215l16 -92q27 -94 142 -94q51 0 87 10t112.5 46t90 65.5t13.5 134.5l-2 31v108l-2 76l2 33l2 88q0 45 -35 45l-51 2q-16 0 -40 21.5t-38 47t-14 41.5q0 31 14 43.5 t74 32.5l73 29q45 18 76 18q29 -4 62.5 -17t52 -28.5t23 -44.5t4.5 -151q0 -61 -4.5 -218t-4.5 -163l-2 -64v-67l-2 -31q0 -43 37 -43l39 -4q37 0 62.5 -30t25.5 -75q0 -31 -18.5 -44t-92.5 -36l-81 -36q-53 -27 -76 -27l-8 2q-8 0 -36 25.5t-34 37.5l-8 17l-13 2 q-20 0 -57 -12q-23 -10 -71 -18.5t-85 -8.5q-61 0 -134.5 18.5t-127.5 47.5l-41 24l-43 25q-43 29 -63.5 85t-29.5 83.5t-11 48.5l-10 112l-6 95l2 22l2 55q0 47 -11 58l-51 28q-94 39 -94 117zM334 1225q0 57 58 82l159 63q31 14 47 14t48 -14l159 -61q57 -25 58 -82 q0 -41 -26 -66.5t-66 -25.5q-20 0 -33 6l-140 55l-141 -55q-12 -6 -33 -6q-39 0 -64.5 25.5t-25.5 64.5z" />
<glyph unicode="&#xfc;" horiz-adv-x="1198" d="M0 819q0 55 90 86l45 17l90 18q39 10 66 10q41 0 69.5 -26.5t28.5 -67.5l-8 -139q-2 -33 -4 -91.5t-2 -99.5q0 -55 3 -94t12 -116.5t41 -115.5t112 -38q45 0 89 12t114.5 47t85 64.5t14.5 132.5l-2 31v108v109l4 73q0 59 -37 60l-51 2q-23 0 -57.5 39t-34.5 71 q0 31 14 43.5t74 32.5l73 29q45 18 76 18q29 -4 62.5 -17t52 -28.5t23 -44.5t4.5 -151q0 -61 -4.5 -218t-4.5 -163l-2 -64v-67l-2 -31q0 -43 37 -43l39 -4q37 0 62.5 -30t25.5 -75q0 -31 -17.5 -43t-65.5 -28.5t-64.5 -22.5t-36 -17.5t-46 -21.5t-42.5 -10q-25 0 -49 35 l-33 47l-13 2l-57 -12q-68 -27 -158 -27q-59 0 -132.5 18.5t-127.5 47.5l-41 24l-43 25q-43 29 -63.5 85t-29.5 83.5t-11 48.5l-10 112l-6 95l2 22l2 55q0 47 -11 58l-51 28q-94 41 -94 117zM256 1260q0 51 59.5 93t106.5 42q45 0 51 -21l25 -71q14 -38 14 -58 q0 -16 -9 -31.5t-41 -43t-95 -27.5q-45 0 -78 34.5t-33 82.5zM623 1260q0 51 59 93t109 42q45 0 49 -21l24 -71l13 -58q0 -35 -40 -68.5t-104 -33.5q-45 0 -77.5 34.5t-32.5 82.5z" />
<glyph unicode="&#xfd;" horiz-adv-x="1261" d="M0 901q0 20 11.5 33.5t43.5 26.5l47 16l15 4l57 10l39 10q43 8 66 9q37 0 74.5 -34t37.5 -73l-6 -76l-6 -94v-94v-29q0 -270 57 -368q33 -49 129 -49q37 0 99.5 18t97.5 41l61 41l58 37q10 8 18 55l35 215l4 33q0 78 -39 131q-12 25 -31 37l-57 8q-39 0 -72.5 31.5 t-33.5 68.5q0 55 104 94t178 39q20 0 40 -8t65 -38.5t45 -77.5q0 -18 -2 -44t-9 -55l-2 -127l-2 -125l4 -125l-2 -161l-2 -101l-2 -61l-6 -158q0 -55 -4 -95t-13.5 -116t-54.5 -171t-311 -95h-39q-45 10 -96 22l-57 11q-123 23 -214.5 69.5t-91.5 85.5q0 18 25 32.5t59 14.5 q16 0 58.5 -13t102 -32.5t125 -34t110.5 -14.5q80 0 130 58.5t50 158.5l6 113l2 90q0 41 -20 41q-29 0 -90 -31q-18 -6 -67.5 -11t-76.5 -5q-61 0 -94 6t-100.5 33.5t-144.5 97.5t-103.5 122t-36.5 140l-6 70l-8 115l4 65l2 29q0 55 -19 59l-65 12q-27 2 -51.5 40t-24.5 73z M428 1223q0 59 58 86l221 86l35 6q37 0 63.5 -24.5t26.5 -63.5q0 -63 -59 -84l-222 -86l-34 -6q-35 0 -62 24.5t-27 61.5z" />
<glyph unicode="&#xff;" horiz-adv-x="1261" d="M0 901q0 20 11.5 33.5t43.5 26.5l47 16l15 4l57 10l39 10q43 8 66 9q37 0 74.5 -34t37.5 -73l-6 -76l-6 -94v-94v-29q0 -270 57 -368q33 -49 129 -49q37 0 99.5 18t97.5 41l61 41l58 37q10 8 18 55l35 215l4 33q0 78 -39 131q-12 25 -31 37l-57 8q-39 0 -72.5 31.5 t-33.5 68.5q0 55 104 94t178 39q20 0 40 -8t65 -38.5t45 -77.5q0 -18 -2 -44t-9 -55l-2 -127l-2 -125l4 -125l-2 -161l-2 -101l-2 -61l-6 -158q0 -55 -4 -95t-13.5 -116t-54.5 -171t-311 -95h-39q-45 10 -96 22l-57 11q-123 23 -214.5 69.5t-91.5 85.5q0 18 25 32.5t59 14.5 q16 0 58.5 -13t102 -32.5t125 -34t110.5 -14.5q80 0 130 58.5t50 158.5l6 113l2 90q0 41 -20 41q-29 0 -90 -31q-18 -6 -67.5 -11t-76.5 -5q-61 0 -94 6t-100.5 33.5t-144.5 97.5t-103.5 122t-36.5 140l-6 70l-8 115l4 65l2 29q0 55 -19 59l-65 12q-27 2 -51.5 40t-24.5 73z M321 1257q0 49 66 99q29 18 53.5 27.5t46.5 9.5q45 0 51 -21l25 -72q14 -47 14 -59q0 -14 -10 -29.5t-41 -43t-94 -27.5q-45 0 -78 34.5t-33 81.5zM688 1257q0 49 65 99q29 18 53.5 27.5t49.5 9.5q45 0 49 -21l25 -72q12 -41 12 -59q0 -33 -40 -66.5t-104 -33.5 q-47 0 -78.5 33.5t-31.5 82.5z" />
<glyph unicode="&#x152;" horiz-adv-x="2351" d="M59 649q0 348 211 610.5t492 262.5q76 0 162 -27t148.5 -63.5t101.5 -36.5q16 0 32.5 6t58.5 20.5t244 46.5l133 23l134 18l135 15l78 12l79 10l78 10q74 0 74 -139v-82v-67l-2 -68l-4 -65q0 -59 -53 -60q-23 0 -47 15l-39 26q-10 6 -20.5 13.5t-18.5 15.5t-15 59l-10 64 l-10 53q-2 12 -16 12h-17l-45 -6q-45 -8 -72.5 -13t-50 -12.5t-48.5 -13.5t-30 -6l-80 -14l-77 -23l-80 -20q-25 -6 -33 -21.5t-8 -58.5l-2 -72l-10 -115l-2 -118l-5 -49q0 -45 8.5 -59.5t34.5 -14.5q12 0 58.5 9t64.5 13l119 17l121 14q45 8 79 11t40 3q96 0 96 -122 q0 -29 -9 -38.5t-46 -13.5l-56 -6l-80 -10q-16 -6 -33.5 -8t-29.5 -4l-18 -2l-78 -19l-49 -10l-35 -6l-68 -21l-47 -12l-12 -2q-39 -10 -53.5 -19.5t-14.5 -62.5l4 -70l4 -86v-16q0 -96 29 -96q27 0 76 20l82 15l80 14l104 10l96 14l101 7l49 6l45 4q18 2 24 51l9 61l10 58 l8 59q6 41 25.5 66.5t44.5 25.5q14 0 28 -10l29 -24l31 -25q29 -20 28 -86l-4 -51q-2 -23 -3 -47.5t-1 -36.5v-25l2 -84q0 -25 -4 -41t-18 -35q-18 -31 -44 -41t-91 -10q-35 0 -62.5 -3t-124.5 -19l-47 -8l-53 -9l-66 -6l-57 -8l-102 -12l-99 -17q-43 -6 -78.5 -13 t-85 -18.5t-79 -17.5t-45.5 -8h-58l-59 -4q-51 0 -73.5 58.5t-55.5 58.5l-19.5 -6.5t-48.5 -20.5l-92 -25q-82 -16 -131 -16q-127 0 -230.5 27.5t-156.5 68.5t-67.5 53.5t-56.5 57.5t-73.5 119.5t-41 101.5t-16.5 55.5t-15.5 94t-8.5 110.5zM326 561q0 -90 28.5 -177 t73.5 -149.5t117.5 -97.5t148.5 -35q201 0 349.5 218.5t148.5 521.5q0 49 -7 103t-23.5 125t-41 116t-69.5 85t-99.5 59.5t-128.5 19.5t-114.5 -13.5t-94 -51.5t-87 -70.5t-79 -100t-84 -217t-38.5 -297.5v-39z" />
<glyph unicode="&#x153;" horiz-adv-x="1865" d="M57 418q0 51 8.5 112.5t23.5 118t69.5 131t97.5 105t60.5 41t60.5 32.5l108 46l62 10l96 4l31 -2l69 -15l76 -14q88 -14 132 -67.5t63 -53.5q16 0 40.5 22.5t69.5 78t107.5 88t132.5 53t115 20.5q70 0 147 -59l49 -43l49 -45q68 -78 68 -201q0 -72 -4 -129t-9 -85.5 t-30 -43t-86 -22.5l-29 -4l-49 -4l-117 -25l-88 -21l-143 -30l-92 -23q-68 -14 -85.5 -25.5t-17.5 -39.5q0 -186 140 -187l102 4q43 8 109.5 28t101.5 38l98 53l52 27l51 26l26 7q31 0 50.5 -24t19.5 -60q0 -37 -24.5 -67t-98.5 -81q-232 -125 -377 -125q-90 0 -169 30 t-103.5 65.5t-35.5 47t-23 11.5q-16 0 -41 -40t-107 -77t-168 -37l-61 2q-39 0 -68 3t-69.5 10.5t-76.5 17.5t-57.5 21.5t-44 22.5t-24.5 15l-51 45q-51 45 -72 74t-37 78q-27 68 -27 162zM266 422q0 -145 77 -238.5t192 -93.5q86 0 167.5 51.5t132 143.5t50.5 270 q0 154 -70 249t-184 95q-68 0 -150 -58.5t-124 -123t-50 -84t-14 -51.5l-12 -47l-15 -93v-20zM1098 569q23 2 47 4t63 11l11 2l98 20l108 23q111 25 132.5 34t26.5 41.5t5 122.5q0 66 -19.5 105t-51.5 39q-23 0 -115 -49l-64 -39l-57 -52l-51 -51t-59.5 -70.5t-49 -79.5 t-24.5 -61z" />
<glyph unicode="&#x178;" horiz-adv-x="1396" d="M-29 1499q0 18 30 32.5t108.5 29t136.5 14.5h22l70 -6l70 -4q25 0 49 -29q14 -25 24.5 -51.5t10.5 -48.5q0 -33 -20.5 -54.5t-57.5 -25.5q-41 -8 -41 -19l4 -16l22 -37l54 -86l71 -125l41 -67l35 -56l74 -119q4 -6 10 -10t10 -4q12 0 31.5 34t36.5 79l65 110l70 111 l74 111l12 53l-55 -2q-37 0 -64 57q-10 16 -14 32.5t-4 35.5q0 63 100 86l205 32q141 18 164 19q113 0 112 -125q0 -29 -13 -61.5t-27.5 -43t-51.5 -10.5h-8q-47 0 -61.5 -10t-42.5 -61l-47 -70q-29 -41 -48.5 -71.5t-29.5 -49.5l-27 -47l-31 -51l-69 -135l-27 -47 q-4 -4 -20.5 -38t-28.5 -61l-49 -98q-35 -80 -35 -180l2 -23v-90q-10 -45 -10 -76t39 -30l39 4h14q47 0 86 -43t39 -97l-2 -10q-6 -18 -33 -26l-39 -15l-92 -28l-94 -17l-101 -8l-79 -6h-19q-43 0 -59.5 8t-62.5 53t-46 72q0 61 84 70.5t94.5 21.5t10.5 66l-4 88v45v47l2 37 l-5 59l-45 103q-10 25 -17 39t-34 55l-61 96l-41 68l-41 69l-43 66l-55 102l-66 96l-59 99q-6 10 -50 10q-31 0 -56 19.5t-25 41.5l-7 62zM389 1832q0 49 66 99q29 18 53.5 27.5t46.5 9.5q45 0 51 -21l25 -72q14 -47 14 -59q0 -14 -10 -29.5t-41 -43t-94 -27.5 q-45 0 -78 34.5t-33 81.5zM756 1832q0 49 65 99q29 18 53.5 27.5t49.5 9.5q45 0 49 -21l25 -72q12 -41 12 -59q0 -33 -40 -66.5t-104 -33.5q-47 0 -78.5 33.5t-31.5 82.5z" />
<glyph unicode="&#x2c6;" horiz-adv-x="466" d="M-31 1225q0 57 58 82l159 63q31 14 47 14t48 -14l159 -61q57 -25 58 -82q0 -41 -26 -66.5t-66 -25.5q-20 0 -33 6l-140 55l-141 -55q-12 -6 -33 -6q-39 0 -64.5 25.5t-25.5 64.5z" />
<glyph unicode="&#x2dc;" horiz-adv-x="473" d="M-25 1227q0 37 25 61.5t59 24.5h353q37 0 61.5 -24.5t24.5 -61.5t-24.5 -61.5t-63.5 -24.5h-351q-35 0 -59.5 24.5t-24.5 61.5z" />
<glyph unicode="&#x2000;" horiz-adv-x="988" />
<glyph unicode="&#x2001;" horiz-adv-x="1976" />
<glyph unicode="&#x2002;" horiz-adv-x="988" />
<glyph unicode="&#x2003;" horiz-adv-x="1976" />
<glyph unicode="&#x2004;" horiz-adv-x="658" />
<glyph unicode="&#x2005;" horiz-adv-x="494" />
<glyph unicode="&#x2006;" horiz-adv-x="329" />
<glyph unicode="&#x2007;" horiz-adv-x="329" />
<glyph unicode="&#x2008;" horiz-adv-x="247" />
<glyph unicode="&#x2009;" horiz-adv-x="395" />
<glyph unicode="&#x200a;" horiz-adv-x="109" />
<glyph unicode="&#x2010;" horiz-adv-x="798" d="M59 645q0 39 43 39l88 6l50 4l141 6l22 2l115 9l49 2q82 0 108.5 -21.5t43.5 -52.5q23 -29 22 -53q0 -74 -102 -74h-8l-119 2h-10h-66h-49h-37l-84 -12q-41 -8 -76 -8q-51 0 -76.5 33.5t-40 66.5t-14.5 51z" />
<glyph unicode="&#x2011;" horiz-adv-x="798" d="M59 645q0 39 43 39l88 6l50 4l141 6l22 2l115 9l49 2q82 0 108.5 -21.5t43.5 -52.5q23 -29 22 -53q0 -74 -102 -74h-8l-119 2h-10h-66h-49h-37l-84 -12q-41 -8 -76 -8q-51 0 -76.5 33.5t-40 66.5t-14.5 51z" />
<glyph unicode="&#x2012;" horiz-adv-x="798" d="M59 645q0 39 43 39l88 6l50 4l141 6l22 2l115 9l49 2q82 0 108.5 -21.5t43.5 -52.5q23 -29 22 -53q0 -74 -102 -74h-8l-119 2h-10h-66h-49h-37l-84 -12q-41 -8 -76 -8q-51 0 -76.5 33.5t-40 66.5t-14.5 51z" />
<glyph unicode="&#x2013;" d="M160 737v13q0 74 33 73h1034q8 0 18 -25.5t12 -54.5l3 -16q0 -74 -33 -74h-1034q-33 0 -33 84z" />
<glyph unicode="&#x2014;" horiz-adv-x="1095" d="M59 645q0 39 43 39l88 6l50 4q12 0 236 8.5t337 8.5l66 2q61 0 109 -38t48 -89q0 -74 -100 -74h-10l-129 2h-361h-82q-27 -2 -51 -2q-25 -8 -37 -10l-71 -8q-57 0 -91 45q-45 55 -45 106z" />
<glyph unicode="&#x2018;" horiz-adv-x="495" d="M57 1092q0 33 62 143l71 127q84 147 160 147q33 0 61.5 -32.5t28.5 -55.5q0 -29 -26 -80l-31 -65l-29 -68l-47 -80q-20 -33 -41.5 -90t-33 -72.5t-37.5 -15.5l-9 2q-23 4 -34 23l-31 31l-35 34q-29 31 -29 52z" />
<glyph unicode="&#x2019;" horiz-adv-x="495" d="M57 1036q0 14 3 29.5t22 52.5l33 64l26 67l47 80q20 33 41 88.5t35.5 72.5t36.5 17l10 -2q18 -2 37 -20l27 -33l35 -35q29 -29 28 -51q0 -35 -61 -141l-72 -127q-84 -147 -160 -148q-31 0 -59.5 32t-28.5 54z" />
<glyph unicode="&#x201a;" horiz-adv-x="378" d="M-61 -158q0 29 26 80l31 68l29 65l47 80q8 16 19 39t18 45q25 63 38 79.5t37 16.5l9 -4q20 -2 29 -12t34 -41l35 -35q31 -31 31 -51q0 -33 -64 -143l-70 -127q-84 -147 -159 -148q-33 0 -61.5 33t-28.5 55z" />
<glyph unicode="&#x2022;" horiz-adv-x="444" d="M88 571q0 78 45.5 137.5t102.5 59.5q51 0 86.5 -54.5t35.5 -133.5q0 -78 -30.5 -113t-100.5 -35q-63 0 -101 38t-38 101z" />
<glyph unicode="&#x202f;" horiz-adv-x="395" />
<glyph unicode="&#x2039;" horiz-adv-x="552" d="M57 483q0 16 31 58q41 47 55 88l29 73q27 63 64 115l36 57l43 89q8 20 40 42.5t48 22.5q27 0 59 -53t32 -96q0 -49 -12.5 -68.5t-64.5 -87.5t-79 -117q-33 -74 -46 -84t-17.5 -16t-6.5 -12l25 -33l31 -55l41 -50l43 -73l59 -101q29 -45 29 -96q0 -20 -7 -27l-28 -61 q-25 -45 -35 -45l-49 10q-37 8 -50.5 25.5t-30.5 58.5t-36.5 76t-58.5 100l-64 107l-26 45q-53 92 -54 108z" />
<glyph unicode="&#x203a;" horiz-adv-x="552" d="M57 895l4 27l31 61q25 45 37 45l47 -10q37 -8 52.5 -27.5t41.5 -87.5q4 -16 82 -145l64 -107l24 -45q33 -51 43.5 -73.5t10.5 -36.5q0 -18 -34 -58.5t-50 -85.5l-29 -73q-14 -31 -27.5 -58.5t-29 -49t-28.5 -41t-15 -24.5l-43 -88q-4 -16 -39 -40.5t-52 -24.5 q-25 0 -56.5 51t-31.5 98q0 43 12.5 65.5t80.5 106.5q41 57 59 93t31.5 62t23.5 34t12.5 14t4.5 10l-21 33l-35 55l-39 50l-45 69l-57 105q-29 53 -29 96z" />
<glyph unicode="&#x205f;" horiz-adv-x="494" />
<glyph unicode="&#x2122;" horiz-adv-x="1511" d="M61 1012v143h574v-143h-201v-611h-168v611h-205zM682 401l31 758h61l264 -477l269 477h61l29 -758h-162l-10 357l-176 -336h-33l-168 336l-12 -357h-154z" />
<glyph unicode="&#xe000;" horiz-adv-x="1064" d="M0 0v1065h1065v-1065h-1065z" />
<glyph unicode="&#xfb01;" horiz-adv-x="1257" d="M-47 766q0 115 133 137.5t151.5 35.5t27.5 55t9 110q0 94 42 218t103.5 206t196.5 82q43 0 61.5 -4t76.5 -27l53 -20l47 -31l37 -25q37 -18 37 -59q0 -57 -49 -58q-20 0 -56 13l-43 16l-18 6l-41 4q-61 0 -89 -10t-58.5 -52t-49.5 -108l-28 -120l-17 -109q0 -39 31 -39 l63 8q6 4 23 4q84 0 118 -18t34 -68q0 -18 -13.5 -42.5t-27.5 -32.5l-78 -19l-76 -20q-59 -12 -73.5 -26.5t-14.5 -61.5v-35l-6 -115v-37l-2 -78l-2 -69v-45l-6 -103q0 -12 11 -19t54 -24.5t65.5 -53.5t22.5 -89q0 -12 -4 -20.5t-20 -12.5l-99 -14l-104 -19l-105 -8l-73 -4 q-41 0 -73 32t-32 73q0 25 40 53.5t63 30.5l34 8q14 10 15 63v29l-2 49v49l2 123v60v51l2 82q0 41 -19 51l-59 -8l-62 -11l-61 -12h-10q-31 0 -56.5 23.5t-25.5 54.5zM752 889q0 43 63 67l45 17l131 37l58 8l59 -31q47 -29 47 -78v-8l-8 -151v-297l-8 -154v-47q0 -39 7 -45 t49 -12.5t68.5 -48.5t26.5 -95q0 -23 -45 -42t-110 -19l-91 -8l-92 -7h-8q-61 0 -106 39t-45 95q0 43 65 55q59 14 72.5 25.5t13.5 48.5l-6 100v352q0 43 -6 72q-10 12 -33 12l-37 2q-16 0 -27.5 4t-21.5 9.5t-35.5 39t-25.5 60.5z" />
<glyph unicode="&#xfb02;" horiz-adv-x="1245" d="M-47 766q0 115 133 137.5t151.5 35.5t27.5 55t9 110q0 94 42 218t103.5 206t196.5 82q43 0 61.5 -4t76.5 -27l53 -20l70 -48q51 12 108 13q53 0 88 -39t35 -103v-57q-6 -33 -8 -49v-397l-8 -125v-510l4 -41q12 -10 59 -22.5t62.5 -35t17.5 -43.5l10 -43q0 -23 -51 -41 t-129 -26l-78 -10l-110 -9q-59 0 -101.5 35t-42.5 86q0 39 60.5 50.5t78 22.5t17.5 44v752l-6 81l6 121l-6 64v63l-31 2h-35q-43 0 -77.5 31t-34.5 74q0 14 6 26q-53 -2 -80 -10q-27 -10 -57.5 -52t-49.5 -108l-28 -120l-17 -109q0 -39 31 -39l63 8q6 4 23 4q84 0 118 -18 t34 -68q0 -18 -13.5 -42.5t-27.5 -32.5l-154 -37q-59 -14 -73.5 -28.5t-14.5 -61.5v-35l-12 -230v-217q-4 -12 7 -19t54 -24.5t65.5 -53.5t22.5 -89q0 -12 -4 -20.5t-20 -12.5l-308 -45h-73q-41 0 -73 32t-32 73q0 25 40 53.5t63 30.5l34 8q14 10 15 63v443q2 41 -17 51 l-192 -31q-31 0 -56.5 23.5t-25.5 54.5z" />
</font>
</defs>
</svg>
