<?xml version="1.0" standalone="no"?>
<!DOCTYPE svg PUBLIC "-//W3C//DTD SVG 1.1//EN" "http://www.w3.org/Graphics/SVG/1.1/DTD/svg11.dtd" >
<svg xmlns="http://www.w3.org/2000/svg">
<metadata></metadata>
<defs>
<font id="timestpcbolditalic" horiz-adv-x="1105" >
<font-face units-per-em="2048" ascent="1638" descent="-410" />
<missing-glyph horiz-adv-x="552" />
<glyph horiz-adv-x="2048" />
<glyph horiz-adv-x="2048" />
<glyph unicode="&#xd;" horiz-adv-x="552" />
<glyph unicode=" "  horiz-adv-x="552" />
<glyph unicode="&#x09;" horiz-adv-x="552" />
<glyph unicode="&#xa0;" horiz-adv-x="552" />
<glyph unicode="!" horiz-adv-x="737" d="M90 139q0 74 53.5 127t126.5 53q74 0 127.5 -53t53.5 -127t-53.5 -127t-127.5 -53t-127 53.5t-53 126.5zM342 412l111 833q33 240 190 240q57 0 96 -42.5t39 -105.5q0 -84 -243 -583q-86 -176 -142 -342h-51z" />
<glyph unicode="&#x22;" horiz-adv-x="681" d="M248 985q0 16 4 43l51 287q2 18 12 63q25 96 111 97q63 0 63 -58q0 -16 -6 -38.5t-20 -63.5l-103 -287q-27 -76 -73 -76q-37 0 -39 33zM553 985q0 16 4 43l51 287q2 18 13 63q25 96 108 97q66 0 66 -58q0 -18 -6.5 -37.5t-22.5 -64.5l-100 -287q-27 -76 -76 -76 q-35 0 -37 33z" />
<glyph unicode="#" horiz-adv-x="1228" d="M178 455v157h225l52 240h-277v158h311l95 442h94l-94 -442h301l94 442h94l-94 -442h188v-158h-221l-51 -240h272v-157h-307l-96 -455h-94l96 455h-301l-96 -455h-95l97 455h-193zM500 612h299l51 240h-299z" />
<glyph unicode="$" d="M31 68l123 329l49 -10q-6 -20 -13 -72q-8 -174 127 -258l185 596q-111 117 -160 197q-74 123 -74 250q0 178 127 278q115 90 289 90q20 0 66 -4l20 64h94l-24 -78q139 -28 223 -94l-113 -312h-39q12 61 13 89q0 147 -111 229l-149 -483q152 -145 206 -226 q100 -139 101 -280q0 -193 -138.5 -314.5t-355.5 -121.5q-33 0 -98 10l-37 -119h-94l41 137q-137 35 -258 103zM403 27q10 -2 31 -2q119 0 207 79.5t88 194.5q0 119 -158 281zM477 1167q0 -88 115 -217l137 447q-8 2 -24 2q-90 0 -159 -75t-69 -157z" />
<glyph unicode="%" horiz-adv-x="1658" d="M147 893q0 190 119 385q131 217 301 217q104 0 170 -94q60 -86 60 -201q0 -223 -134.5 -425t-285.5 -202q-109 0 -172 103q-57 92 -58 217zM256 -33l1038 1503h111l-1038 -1503h-111zM303 705q0 -72 64 -72q80 0 172 270q92 264 92 465q0 63 -53 64q-78 0 -181 -299 q-94 -279 -94 -428zM872 287q0 190 119 385q131 217 301 217q104 0 170 -94q60 -86 60 -201q0 -223 -134.5 -425t-285.5 -202q-109 0 -172 103q-57 92 -58 217zM1028 98q0 -72 64 -71q80 0 172 270q92 264 92 465q0 63 -53 63q-78 0 -181 -299q-94 -279 -94 -428z" />
<glyph unicode="&#x26;" horiz-adv-x="1556" d="M172 285q0 180 160 315q104 88 346 197q-10 78 -10 143q0 217 118 379q127 176 324 176q100 0 185 -70.5t85 -156.5q0 -160 -125 -275q-88 -80 -284 -168q57 -238 166 -428q102 119 102 236q0 51 -63 94l12 45h381l-6 -41q-29 -14 -60 -26q-23 -12 -41 -35 q-72 -82 -219 -279q-23 -37 -57 -74q125 -178 235 -178q29 0 73 24.5t52 24.5q33 1 33 -30q0 -39 -102 -115q-115 -84 -209 -84q-150 0 -301 172q-268 -172 -447 -172q-139 0 -243.5 97.5t-104.5 228.5zM485 389q0 -106 70 -188t166 -82q47 0 188 86q-154 219 -213 491 q-211 -123 -211 -307zM934 1133q0 -88 16 -193q193 127 193 293q0 61 -21 108q-27 57 -73 58q-74 0 -101 -92q-14 -53 -14 -174z" />
<glyph unicode="'" horiz-adv-x="491" d="M334 985q0 16 4 43l51 287q2 18 12 63q25 96 111 97q63 0 63 -58q0 -16 -6 -38.5t-20 -63.5l-103 -287q-27 -76 -73 -76q-37 0 -39 33z" />
<glyph unicode="(" horiz-adv-x="737" d="M117 455q0 328 211 647q231 348 594 467l26 -45q-246 -158 -418 -533q-178 -391 -178 -811q0 -233 92 -461l-45 -28q-127 145 -204.5 353t-77.5 411z" />
<glyph unicode=")" horiz-adv-x="737" d="M-174 -229q248 158 416 522q176 379 176 797q0 129 -25 229q-18 80 -76 221l45 29q127 -145 202 -352t75 -412q0 -315 -209 -617q-221 -317 -577 -462z" />
<glyph unicode="*" horiz-adv-x="1024" d="M217 1169q0 43 31 71t76 28q63 0 143 -84q49 -51 115 -74l12 -4v18q0 70 -35 133q-41 76 -41 123t30 81t73 34t72.5 -34t29.5 -81t-41 -123q-35 -63 -35 -133v-16l8 2q59 14 115 74q80 84 143 84q45 0 76 -28t31 -71q0 -76 -82 -102q-49 -14 -129 -2q-68 10 -137 -6 l-17 -4l19 -25q43 -57 106 -88q45 -20 62 -33q29 -16 45 -39q25 -33 24 -73q0 -55 -39 -84q-25 -18 -55 -19q-57 0 -96 54q-29 39 -39 122q-8 61 -51 127l-13 19l-12 -19q-43 -66 -51 -127q-10 -82 -39 -120q-41 -53 -98 -54q-31 0 -53 17q-39 27 -39 80q0 41 24.5 75.5 t106.5 73.5q63 31 106 88l19 25l-17 6q-74 18 -137 6q-82 -14 -129 0q-82 27 -82 102z" />
<glyph unicode="+" horiz-adv-x="1228" d="M141 377v209h369v377h209v-377h368v-209h-368v-377h-209v377h-369z" />
<glyph unicode="," horiz-adv-x="552" d="M-51 -324q217 111 211 207q-2 39 -43 80q-76 76 -74 154q2 74 52 127t124 53t123 -61.5t49 -141.5q0 -305 -414 -477z" />
<glyph unicode="-" horiz-adv-x="839" d="M76 379l78 225h632l-77 -225h-633z" />
<glyph unicode="." horiz-adv-x="552" d="M84 172q0 74 53 127t127 53t127 -53t53 -127t-53 -127t-127 -53t-127 53t-53 127z" />
<glyph unicode="/" horiz-adv-x="1003" d="M63 -31l824 1495h135l-823 -1495h-136z" />
<glyph unicode="0" d="M74 385q0 195 71 436q82 285 222 461q170 213 391 213q147 0 233 -147q72 -128 72 -308q0 -199 -84 -444q-90 -268 -231 -438q-166 -199 -355 -199q-152 0 -237 121q-82 115 -82 305zM285 223q0 -178 112 -178q156 0 310 477q139 428 139 711q0 70 -25 123q-29 61 -76 61 q-109 0 -225 -274q-92 -215 -170 -541q-66 -281 -65 -379z" />
<glyph unicode="1" d="M68 0l12 53q141 0 196 56q37 37 68 147l264 942q14 51 15 76q0 55 -80 55q-23 0 -66 -8l-96 -18l12 63q317 63 381 80q78 20 193 61l-355 -1265q-20 -74 -20 -95q0 -94 201 -94l-13 -53h-712z" />
<glyph unicode="2" d="M53 0l13 72q692 629 692 950q0 125 -64.5 192.5t-169.5 67.5q-176 0 -248 -139l-43 33q162 319 420 319q152 0 255.5 -115.5t103.5 -269.5q0 -285 -330 -586l-307 -280h166q190 0 311 162h88l-184 -406h-703z" />
<glyph unicode="3" d="M72 117q0 115 133 114q49 0 84 -22q27 -18 73 -72q55 -63 111 -63q78 0 125 92q43 82 43 188q0 182 -99.5 297t-260.5 125l45 72q135 0 256 84q135 94 135 231q0 72 -43 118t-109 46q-92 0 -168 -121l-55 35q129 254 377 254q125 0 209 -78.5t84 -195.5q0 -203 -305 -349 q188 -139 188 -370q0 -233 -169 -388t-419 -155q-94 0 -160 37q-76 43 -75 121z" />
<glyph unicode="4" d="M53 324l82 237l791 955h176l-287 -1012h184l-49 -180h-186l-92 -324h-269l86 324h-436zM213 504h326l153 569z" />
<glyph unicode="5" d="M84 119q0 109 123 108q63 0 141 -69q59 -53 137 -54q98 0 156 97q51 84 51 200q0 387 -448 459l295 594h561l-90 -258h-473l-56 -109q197 -29 323 -169t126 -336q0 -272 -201 -453q-186 -172 -436 -172q-80 0 -141 43q-68 47 -68 119z" />
<glyph unicode="6" d="M96 455q0 272 164 526q156 238 407 386.5t507 148.5l-15 -86q-213 -55 -385 -201q-143 -121 -246 -314q80 14 146 15q147 0 244 -109q90 -104 90 -254q0 -242 -152 -420q-158 -188 -389 -188q-174 0 -279 160q-92 141 -92 336zM332 221q0 -68 26 -115q31 -57 88 -57 q111 0 207 193q90 186 90 383q0 82 -38.5 141t-108.5 59q-63 0 -107 -20q-63 -104 -110 -282.5t-47 -301.5z" />
<glyph unicode="7" d="M184 1061q45 78 142 258q20 43 59 135h805l-858 -1495l-111 61l692 1188h-235q-147 0 -229 -24q-109 -31 -197 -123h-68z" />
<glyph unicode="8" d="M70 328q0 113 94 239q109 145 274 205q-119 174 -119 350q0 172 123 277q115 96 285 96q143 0 250.5 -84t107.5 -221q0 -262 -297 -381q158 -176 158 -381q0 -199 -139 -334t-348 -135q-178 0 -283.5 104.5t-105.5 264.5zM315 272q0 -229 162 -229q94 0 150 90 q51 82 51 193q0 201 -174 366q-94 -47 -146 -190q-43 -115 -43 -230zM596 1196q0 -195 123 -315q80 57 108 153q23 70 23 195q0 180 -119 180q-66 0 -104 -70q-31 -59 -31 -143z" />
<glyph unicode="9" d="M12 37q270 45 463 278q78 94 123 205q-37 -8 -82 -8q-145 2 -241.5 112.5t-96.5 262.5q0 211 131 397q145 211 359 211q170 0 279.5 -124.5t109.5 -317.5q0 -217 -103 -447q-117 -268 -329 -434q-250 -197 -594 -213zM440 803q0 -180 131 -180q49 0 80 16q72 131 119 322 q43 173 43 292q0 57 -29.5 105.5t-78.5 48.5q-98 0 -187 -231q-78 -209 -78 -373z" />
<glyph unicode=":" horiz-adv-x="552" d="M57 172q0 76 52.5 128t128.5 52t128 -52t52 -128t-52.5 -128t-127.5 -52q-76 0 -128.5 52t-52.5 128zM225 819q0 74 53.5 127t127.5 53t127 -53t53 -127t-53.5 -127t-126.5 -53q-74 0 -127.5 53t-53.5 127z" />
<glyph unicode=";" horiz-adv-x="552" d="M-41 -324q217 111 211 207q-2 39 -43 80q-76 76 -74 154q2 74 52.5 127t123.5 53q74 0 123 -61.5t49 -141.5q0 -305 -413 -477zM262 819q0 74 53.5 127t126.5 53q74 0 127.5 -53t53.5 -127t-53.5 -127t-127.5 -53t-127 53t-53 127z" />
<glyph unicode="&#x3c;" horiz-adv-x="1228" d="M131 397v168l963 406v-230l-664 -260l664 -260v-229z" />
<glyph unicode="=" horiz-adv-x="1228" d="M152 176v213h946v-213h-946zM152 571v211h946v-211h-946z" />
<glyph unicode="&#x3e;" horiz-adv-x="1228" d="M135 -8v229l664 260l-664 260v230l963 -406v-168z" />
<glyph unicode="?" horiz-adv-x="860" d="M162 139q0 76 52 128t128 52t128 -52t52 -128t-52 -128t-128 -52t-128 52t-52 128zM301 418q41 246 279 508q66 72 100 176q31 88 31 160q0 74 -29 127q-33 61 -92 61q-61 0 -62 -49q0 -16 39 -82q31 -51 31 -117q0 -61 -43 -107t-102 -46q-63 0 -104.5 52t-41.5 122 q0 109 99.5 206t226.5 97q139 0 240.5 -99.5t101.5 -238.5q0 -109 -78 -223q-84 -123 -235 -215q-221 -133 -295 -332h-66z" />
<glyph unicode="@" horiz-adv-x="1986" d="M70 330q0 426 333.5 743.5t784.5 317.5q330 0 527.5 -171t197.5 -452q0 -250 -168 -473q-184 -246 -442 -246q-170 0 -170 139q0 39 8 62q-154 -207 -310 -207q-117 0 -180 96q-57 84 -57 209q0 190 131 377q150 211 354 211q154 0 207 -115l25 70h250l-136 -572 q-12 -51 -12 -65q0 -53 70 -53q129 0 235 196q100 182 101 357q0 238 -164 385t-438 147q-393 0 -676 -281.5t-283 -668.5q0 -287 172 -455q182 -180 528 -180q281 0 512 100l29 -77q-188 -66 -280 -89q-156 -37 -314 -36q-391 0 -613 200.5t-222 530.5zM850 266 q0 -111 86 -110q96 0 198.5 199.5t102.5 373.5q0 123 -70 123q-94 0 -204 -195q-113 -203 -113 -391z" />
<glyph unicode="A" horiz-adv-x="1351" d="M-102 0l16 55q88 29 221 187l1049 1237h41l-107 -1000q-12 -115 -12 -221q0 -94 14 -125q23 -47 101 -78l-17 -55h-594l17 55q90 27 123 62q43 43 53 141l20 209h-372l-177 -213q-50 -61 -50 -102q0 -4 1 -9q14 -88 103 -88l-17 -55h-413zM539 573h295l38 406z" />
<glyph unicode="B" horiz-adv-x="1372" d="M43 0l16 55h27q104 0 156 189l260 944q20 74 20 119q0 92 -131 92h-45l16 55h703q195 0 293 -106q69 -79 69 -179q0 -258 -374 -385q111 -37 180 -129q72 -98 72 -221q0 -195 -160 -317q-152 -117 -375 -117h-727zM541 172q0 -88 94 -88q131 0 238.5 118.5t107.5 268.5 q0 111 -53 180q-61 78 -180 78q-27 0 -58 -8l-125 -438q-25 -86 -24 -111zM717 823q383 0 383 367q0 84 -37 125q-53 61 -193 61z" />
<glyph unicode="C" horiz-adv-x="1515" d="M143 592q0 377 320 647q301 256 667 256q182 0 312 -57q33 -14 74 -15q39 0 75 74h43q-20 -70 -55 -231q-23 -123 -29 -215h-45q0 170 -96 264q-86 86 -227 86q-254 0 -472 -269.5t-218 -582.5q0 -188 102 -318q113 -141 299 -141q238 0 491 270l50 -28 q-150 -182 -287 -269q-170 -104 -377 -104q-276 0 -455 188q-172 182 -172 445z" />
<glyph unicode="D" horiz-adv-x="1576" d="M-10 0l16 55h45q76 0 125 39q39 31 66 127l274 967q25 86 25 110q0 100 -135 101h-46l17 55h661q240 0 398.5 -166t158.5 -424q0 -346 -269 -605t-607 -259h-729zM551 172q0 -94 125 -94q211 0 393 239q188 252 188 574q0 485 -372 485l-310 -1093q-25 -86 -24 -111z" />
<glyph unicode="E" horiz-adv-x="1351" d="M4 0l16 55h46q86 0 133 166l274 967q25 86 25 110q0 45 -41 73t-95 28h-45l17 55h1134l-94 -328h-45q-16 121 -141 197q-74 45 -203 45h-143l-158 -557h141q154 0 320 205l37 -10q-49 -139 -84 -271q-20 -70 -58 -225h-53q10 29 10 61q0 72 -66.5 115t-150.5 43h-121 l-127 -446q-12 -43 -12 -107q0 -47 45 -74q36 -24 88 -24h4q203 0 449 166q76 51 145 121h52q-94 -197 -148 -365h-1151z" />
<glyph unicode="F" horiz-adv-x="1167" d="M4 0l16 55h46q94 0 141 166l274 967q25 86 25 110q0 45 -41 73t-94 28h-45l16 55h1055l-94 -328h-46q-16 121 -141 197q-74 45 -203 45h-63l-154 -534h43q90 0 158 36q76 41 162 148l37 -10q-49 -139 -84 -271q-27 -98 -49 -219h-54q10 29 11 62q0 76 -56.5 128 t-134.5 52h-53l-135 -477q-25 -86 -25 -111q0 -117 133 -117h51l-16 -55h-680z" />
<glyph unicode="G" horiz-adv-x="1576" d="M154 594q0 379 307 645q295 256 682 256q121 0 262 -49q47 -16 88 -16q66 0 115 59h45q-35 -106 -68 -246q-23 -98 -39 -201h-41q0 160 -92 263.5t-235 103.5q-240 0 -458 -277.5t-218 -596.5q0 -201 90 -332q98 -139 264 -140q141 0 182 152l84 313q8 31 8 72 q0 31 -45 53.5t-104 22.5l14 53h594l-6 -47q-47 -12 -88 -45t-76 -160l-116 -420q-215 -98 -486 -98q-274 0 -468.5 180t-194.5 455z" />
<glyph unicode="H" horiz-adv-x="1720" d="M-47 0l16 55h45q55 0 105 39q39 31 65 127l275 967q25 86 24 110q0 45 -33.5 73t-80.5 28h-45l16 55h686l-12 -55h-53q-57 0 -99 -31q-49 -37 -71 -115l-125 -446h536l109 381q25 86 24 110q0 45 -41 73t-94 28h-45l16 55h707l-12 -55h-54q-57 0 -98 -31 q-49 -37 -72 -115l-272 -970q-25 -88 -24 -111q0 -117 133 -117h51l-17 -55h-729l17 55h45q76 0 125 39q37 31 65 127l140 488h-539l-119 -426q-25 -88 -24 -111q0 -117 133 -117h51l-16 -55h-709z" />
<glyph unicode="I" horiz-adv-x="942" d="M-29 0l17 55h45q76 0 125 39q39 31 65 127l275 967q25 86 24 110q0 45 -41 73t-94 28h-45l16 55h707l-12 -55h-54q-57 0 -98 -31q-49 -37 -72 -115l-272 -970q-25 -88 -25 -111q0 -117 134 -117h51l-17 -55h-729z" />
<glyph unicode="J" horiz-adv-x="983" d="M-35 205q0 63 46 110t110 47q57 0 99 -39.5t42 -95.5q0 -43 -33.5 -73.5t-33.5 -51.5q0 -35 32 -34q55 0 88 112l289 1008q25 86 25 110q0 45 -41 73t-94 28h-62l17 55h673l-12 -55h-18q-43 0 -84 -31q-49 -37 -72 -115l-234 -825q-133 -469 -475 -469q-106 0 -184 71.5 t-78 174.5z" />
<glyph unicode="K" horiz-adv-x="1474" d="M-47 0l16 55h45q51 0 101 39q39 31 65 127l275 967q25 86 24 110q0 45 -41 73t-94 28h-35l17 55h661l-12 -55h-19q-57 0 -98 -31q-49 -37 -72 -115l-114 -405l393 313q121 96 121 172q0 66 -96 66l16 55h547l-13 -55q-55 0 -81 -8q-109 -35 -211 -119l-424 -348l233 -650 q25 -70 29 -79q18 -37 49 -68q37 -37 125 -72l-17 -55h-602l17 55q12 -4 24 -4q63 0 84 60q2 8 2 18q0 23 -12 61q-33 250 -201 603l-141 -510q-25 -88 -25 -111q0 -117 134 -117h30l-16 -55h-684z" />
<glyph unicode="L" horiz-adv-x="1310" d="M-12 0l16 55h45q76 0 125 39q39 31 66 127l274 967q25 86 25 110q0 45 -41 73t-95 28h-45l17 55h706l-12 -55h-53q-57 0 -98 -31q-49 -37 -72 -115l-273 -970q-14 -51 -14 -97q0 -112 143 -112h3q98 0 225 57q178 84 334 260h51l-152 -391h-1175z" />
<glyph unicode="M" horiz-adv-x="2088" d="M-51 0l16 55h25q76 0 119 35t71 131l336 1104q-74 74 -182 74h-25l17 55h514l161 -1022l750 1022h473l-18 -63h-54q-41 0 -86 -29q-35 -23 -51 -64q-4 -6 -24 -81l-273 -965q-20 -72 -20 -98q0 -41 33.5 -70t76.5 -29h72l-16 -55h-703l17 55h67q102 0 158 197l256 897 l-860 -1172h-54l-167 1221l-281 -915q-25 -80 -25 -111q0 -66 31 -91.5t103 -25.5h43l-17 -55h-483z" />
<glyph unicode="N" horiz-adv-x="1597" d="M4 0l16 55h25q106 0 154 166l321 1116q-61 61 -168 62h-24l16 55h463l475 -967l209 709q12 41 12 111q0 35 -21.5 62.5t-56.5 27.5h-53l10 57h428l-16 -55h-53q-92 0 -129 -135l-359 -1303h-69l-602 1256l-267 -934q-25 -86 -24 -111q0 -66 30.5 -91.5t102.5 -25.5h43 l-16 -55h-447z" />
<glyph unicode="O" horiz-adv-x="1617" d="M133 504q0 395 275 690q283 301 677 301q250 0 400 -152q139 -141 139 -356q0 -266 -151 -514q-143 -229 -372 -371.5t-458 -142.5q-236 0 -377 164q-133 152 -133 381zM459 360q0 -299 225 -299q223 0 416 342q186 335 186 693q0 123 -47 204q-59 104 -178 105 q-227 0 -420 -358q-182 -340 -182 -687z" />
<glyph unicode="P" horiz-adv-x="1290" d="M39 0l16 55h45q86 0 133 166l275 967q25 86 24 110q0 45 -40.5 73t-94.5 28h-45l17 55h706q147 0 256 -97.5t109 -236.5q0 -209 -189 -352q-172 -133 -385 -133q-111 0 -192 20l-107 -372q-25 -86 -24 -111q0 -117 133 -117h35l-17 -55h-655zM700 752q45 -18 68 -19 q143 0 242 123q94 116 94 270q0 240 -230 240z" />
<glyph unicode="Q" horiz-adv-x="1638" d="M135 494q0 395 281 694q289 307 684 307q244 0 375 -170q117 -150 116 -375q0 -365 -293 -674q-283 -299 -624 -325q-6 -12 -32 -38t-44 -36q94 16 176 17q94 0 197 -27q16 -4 172 -51q47 -14 112 -15q164 0 318 158l45 -51q-150 -152 -299.5 -222.5t-360.5 -86.5 q-12 -1 -25 -1q-79 0 -195 32q-110 31 -190 31q-17 0 -32 -1q-113 -10 -227 -45l-37 61q100 84 176 164q59 61 102 117q-190 31 -297 186q-98 143 -98 351zM676 43q221 0 405 348q179 334 179 696q0 115 -62 201q-72 102 -194 103q-223 0 -392 -349q-155 -320 -155 -671 q0 -328 219 -328z" />
<glyph unicode="R" horiz-adv-x="1413" d="M-51 0l16 55h45q86 0 133 166l275 967q25 86 24 110q0 100 -135 101h-45l17 55h706q178 0 282.5 -92.5t104.5 -235.5q0 -315 -405 -411l163 -490q29 -84 125 -143q29 -18 60 -29l-17 -53h-411l-234 692h-57l-119 -409q-25 -84 -24 -111q0 -117 133 -117h35l-17 -55h-655z M631 801q25 -10 71 -10q147 0 237.5 100t90.5 250q0 125 -55 175t-191 50z" />
<glyph unicode="S" horiz-adv-x="1269" d="M31 -25l149 545l51 -2q0 -193 82 -315q94 -145 273 -146q113 0 191.5 76t78.5 189q0 119 -127 243q-117 111 -235 221q-127 141 -127 304q0 176 143 292q135 113 324 113q109 0 237 -51q74 -29 135 -29q74 0 144 66l49 -2l-135 -490l-50 -8q0 174 -86 291t-231 117 q-98 0 -161.5 -64.5t-63.5 -157.5q0 -117 127 -235q117 -109 233 -215q127 -145 127 -322q0 -219 -162 -334q-139 -102 -358 -102q-84 0 -216 34t-194 34q-45 0 -147 -60z" />
<glyph unicode="T" horiz-adv-x="1269" d="M145 0l13 53q115 0 166 49q47 43 82 168l309 1094q-106 0 -250 -96q-119 -80 -189 -201h-51l123 387h1098l-113 -375h-61q0 127 -62 199q-76 88 -186 88l-311 -1120q-16 -59 -17 -80q0 -113 172 -113l-10 -53h-713z" />
<glyph unicode="U" horiz-adv-x="1556" d="M221 348q0 88 45 246l172 604q25 86 25 107q0 96 -164 96l12 53h705l-17 -57q-121 0 -172 -43q-43 -35 -71 -140l-193 -690q-33 -117 -33 -194q0 -111 68 -178q72 -74 195 -74q147 0 266 123q106 113 158 288l208 723q12 43 13 103q0 82 -185 82l13 57h471l-4 -61 q-94 0 -140.5 -41t-72.5 -135l-189 -656q-88 -309 -237 -452q-156 -150 -410 -150q-217 0 -340 105.5t-123 283.5z" />
<glyph unicode="V" horiz-adv-x="1413" d="M324 1401l12 53h575l-16 -57q-141 0 -154 -133l-65 -772l635 757q33 39 32 86q0 61 -114 62l12 57h404l-17 -61q-98 -29 -211 -168l-1036 -1264l-53 -2l102 1219q4 49 4 139q0 37 -36 60.5t-74 23.5z" />
<glyph unicode="W" horiz-adv-x="2109" d="M272 1399l13 55h600l-13 -53q-100 0 -130.5 -39t-41.5 -168l-61 -741l467 620l8 109q2 27 2 55q0 78 -27.5 115t-99.5 47l8 55h588l-12 -51q-137 0 -148 -199l-41 -741l555 756q53 72 54 114q0 68 -138 68l17 53h397l-14 -51q-92 -33 -154 -117l-983 -1327h-86l58 952 l-709 -952h-76l88 1143q6 80 6 123q0 152 -127 174z" />
<glyph unicode="X" horiz-adv-x="1474" d="M-72 0l13 53q131 20 331 217l400 392q-147 434 -183 522q-23 68 -32 88q-20 39 -58 69q-68 55 -151 58l18 55h641l-14 -51q-109 0 -109 -90q0 -49 35 -154q45 -133 88 -266l213 211q137 135 137 229q0 72 -108 72l16 49h475l-18 -47q-123 -41 -221 -139l-463 -459 l205 -602q25 -74 78 -113q37 -27 88 -39l-13 -55h-626l12 53q47 0 88 25q49 31 49 74q0 96 -94 362l-23 64l-241 -238q-141 -139 -142 -207q0 -78 125 -78l-12 -55h-504z" />
<glyph unicode="Y" horiz-adv-x="1536" d="M295 1405l14 49h703l-13 -51q-98 0 -137 -28.5t-39 -104.5q0 -49 25 -125l129 -402l340 412q61 74 61 162q0 66 -139 88l10 49h459l-12 -49q-39 -25 -140 -113q-45 -55 -151 -180l-430 -504l-94 -340q-23 -82 -23 -104q0 -102 166 -109l-12 -55h-711l21 55q111 0 170 56 q45 43 71 135l111 399l-137 471q-37 127 -82 189q-57 78 -160 100z" />
<glyph unicode="Z" horiz-adv-x="1372" d="M-31 0l1149 1374h-266q-166 0 -274 -55q-100 -51 -226 -215h-73q51 96 86 186q14 37 55 164h1153l-1151 -1376h158q221 0 350 78q225 135 323 235h45l-135 -391h-1194z" />
<glyph unicode="[" horiz-adv-x="778" d="M10 -379l504 1874h406l-21 -76h-156l-462 -1722h155l-20 -76h-406z" />
<glyph unicode="\" horiz-adv-x="757" d="M156 1495h118l406 -1536h-119z" />
<glyph unicode="]" horiz-adv-x="778" d="M-139 -379l20 76h156l463 1722h-156l21 76h405l-504 -1874h-405z" />
<glyph unicode="^" horiz-adv-x="1228" d="M186 762l334 692h189l333 -692h-233l-195 436l-194 -436h-234z" />
<glyph unicode="_" horiz-adv-x="1024" d="M0 -154h1024v-102h-1024v102z" />
<glyph unicode="`" horiz-adv-x="681" d="M90 1425h299l156 -307l-86 -2z" />
<glyph unicode="a" horiz-adv-x="1044" d="M47 244q0 98 70 272q82 201 194 332q139 162 289 162q92 0 148 -76l24 47h272l-192 -639q-25 -82 -25 -139q0 -61 45 -62q41 0 121 131h51q-88 -145 -141 -204q-98 -106 -207 -107q-78 0 -121 51q-38 44 -38 113q0 59 12 92q-170 -242 -297 -242q-94 0 -149.5 80 t-55.5 189zM334 291q0 -115 65 -115q72 0 181 213q114 226 114 414q0 125 -67 125q-88 0 -190.5 -223.5t-102.5 -413.5z" />
<glyph unicode="b" horiz-adv-x="1044" d="M29 82l313 1114q25 88 25 115q0 59 -105 78l17 51h47q195 0 366 61l-160 -579q80 92 195 92q117 0 188 -107q64 -98 64 -229q0 -293 -203 -510q-190 -205 -418 -205q-197 0 -329 119zM303 76q0 -18 20.5 -31.5t41.5 -13.5q129 0 235 229q100 215 100 432q0 162 -98 162 q-86 0 -119 -113l-172 -610q-8 -31 -8 -55z" />
<glyph unicode="c" horiz-adv-x="901" d="M61 307q0 264 209 490q203 215 418 215q88 0 154 -52q65 -50 65 -126t-51 -132q-49 -53 -119 -53q-45 0 -79.5 28t-34.5 68q0 39 26 80q23 35 46.5 46.5t23.5 31.5q0 29 -51 29q-125 0 -228 -207q-94 -190 -94 -375q0 -98 48 -157.5t128 -59.5q109 0 234 135h67 q-61 -123 -168 -205q-127 -98 -270 -98q-154 0 -242 107q-82 94 -82 235z" />
<glyph unicode="d" d="M70 246q0 270 194 518q188 240 379 240q88 0 152 -74l92 327q14 51 14 72q0 68 -96 68l18 57h58q161 0 329 39l-333 -1233q-18 -68 -19 -82q0 -43 39 -43q45 0 121 125h51q-131 -305 -338 -305q-68 0 -117 43t-49 104q0 57 8 93q-76 -106 -167 -179q-82 -61 -130 -61 q-98 0 -155 86q-51 78 -51 205zM348 285q0 -133 66 -133q74 0 198 243q127 252 127 424q0 106 -71 107q-113 0 -222 -258q-98 -229 -98 -383z" />
<glyph unicode="e" horiz-adv-x="860" d="M35 289q0 225 182 456q205 258 465 259q86 0 141.5 -52.5t55.5 -138.5q0 -135 -156 -268q-172 -147 -416 -170q0 -139 36 -193.5t122 -54.5q125 0 283 141h59q-225 -313 -483 -313q-289 0 -289 334zM322 461q145 23 229 164q70 112 70 227q0 70 -43 70q-59 0 -136 -142 q-70 -129 -120 -319z" />
<glyph unicode="f" horiz-adv-x="675" d="M-336 -264q0 45 35 76.5t82 31.5q37 0 65.5 -24.5t28.5 -61.5q0 -10 -4 -25.5t-4 -23.5q0 -16 31 -16q68 0 157 366l197 807h-117l37 154q82 12 111 47q14 16 63 102q121 207 209 291q127 117 299 117q72 0 131 -43t59 -111q0 -53 -35.5 -90t-86.5 -37q-43 0 -75 25 t-32 65q0 18 15.5 46t15.5 36q0 31 -31 31q-51 0 -139 -145q-70 -113 -127 -340h139l-45 -158h-133l-174 -704q-55 -227 -182 -377q-141 -166 -320 -166q-63 0 -113 33q-57 37 -57 94z" />
<glyph unicode="g" horiz-adv-x="1003" d="M-35 -147q0 66 74 132t174 85q-76 51 -76 155q0 109 146 193q-129 102 -129 239q0 162 145 273q137 102 319 102q90 0 191 -51l278 18l-28 -151l-141 -2q26 -75 26 -135q0 -160 -135 -265q-125 -98 -295 -98q-70 0 -137 25q-14 -20 -15 -33q0 -39 72 -61l225 -70 q199 -61 199 -258q0 -162 -156 -260q-139 -86 -329 -86q-158 0 -273 57q-135 70 -135 191zM176 -145q0 -72 68 -117q59 -41 143 -41q100 0 176 43q86 49 86 125q0 66 -69 86l-199 59q-29 8 -53 8q-63 -2 -107.5 -50t-44.5 -113zM418 526q0 -92 67 -92q96 0 156 154 q49 126 49 278q0 96 -74 97q-82 0 -143 -148q-55 -137 -55 -289z" />
<glyph unicode="h" d="M57 0l340 1235q10 37 11 57q0 78 -60 78h-20q-14 -2 -21 -2l19 62h49q160 0 362 61l-215 -782q150 172 199 217q88 78 162 78q66 0 107.5 -52.5t41.5 -122.5q0 -47 -14 -98l-133 -475q-18 -66 -19 -72q0 -33 27 -32q39 0 100 110h43q-51 -133 -139 -211q-79 -71 -160 -71 h-2q-164 0 -164 133q0 59 17 108l114 346q33 98 33 133q0 57 -43 58q-57 0 -138 -116t-116 -241l-112 -401h-269z" />
<glyph unicode="i" horiz-adv-x="634" d="M94 125q0 49 33 160l121 405q23 76 22 101q0 31 -26.5 53t-61.5 22h-30l14 52l41 2l385 57l-182 -643q-37 -131 -37 -164t33 -33t106 109h59q-90 -141 -133 -185q-81 -81 -185 -81h-3q-156 0 -156 145zM356 1335q0 72 51.5 122t120.5 50q72 0 122 -50t50 -122 q0 -70 -50 -121t-122 -51q-70 0 -121 51.5t-51 120.5z" />
<glyph unicode="j" horiz-adv-x="655" d="M-248 -248q0 43 36 73t83 30q41 0 76 -27t35 -59q0 -10 -6.5 -25.5t-6.5 -24.5q0 -25 21 -24q57 0 90 176q14 76 59 242l158 577q23 82 22 101q0 31 -26.5 53t-61.5 22h-30l14 52l41 2l385 57l-272 -1004q-45 -170 -148 -270q-113 -111 -268 -111q-201 0 -201 160z M426 1335q0 72 51 122t121 50q72 0 122 -50t50 -122q0 -70 -50 -121t-122 -51q-70 0 -121 51.5t-51 120.5z" />
<glyph unicode="k" horiz-adv-x="1085" d="M18 0l330 1202q20 74 21 88q0 68 -101 68l23 57q100 4 231 29q53 14 172 43l-276 -993l307 262q61 53 61 84q0 8 -2 16q-8 29 -45 35q-63 14 -69 16l12 54h424l-12 -54q-23 0 -64 -8q-29 -12 -86 -51l-217 -193l88 -405q14 -68 66 -68q37 0 114 88h45 q-53 -125 -143 -207.5t-164 -82.5q-139 0 -182 208l-55 269l-117 -103l-92 -356z" />
<glyph unicode="l" horiz-adv-x="614" d="M61 125q0 43 33 160l256 909q23 80 23 100q0 31 -27 53.5t-61 22.5h-31l14 51l41 2q209 11 383 58l-315 -1147q-37 -133 -37 -164q0 -33 33 -33t106 109h60q-90 -141 -133 -185q-81 -81 -186 -81h-3q-156 0 -156 145z" />
<glyph unicode="m" horiz-adv-x="1679" d="M66 0l208 743q10 37 11 58q0 76 -101 76l19 61h49q160 0 362 61l-88 -325q104 152 219 237q109 78 195 78q66 0 103.5 -43t37.5 -106q0 -10 -24 -158q215 297 413 297q61 0 102.5 -47t41.5 -111q0 -49 -17 -108l-114 -418q-18 -68 -19 -96q0 -33 21 -33q35 0 84 78h53 q-49 -125 -156 -205q-88 -63 -153 -64q-63 0 -100 39t-37 97q0 49 18 116l117 435q16 61 16 88q0 37 -37 36q-86 0 -200 -180q-109 -170 -160 -364l-64 -242h-270l162 588q33 119 33 133q0 57 -43 57q-63 0 -158 -135q-102 -147 -170 -364l-86 -279h-268z" />
<glyph unicode="n" horiz-adv-x="1126" d="M68 0l208 743q10 37 11 58q0 76 -101 76l19 61h49q147 0 397 76l-106 -307q109 158 186.5 222t161.5 64q68 0 109.5 -43t41.5 -106q0 -49 -22 -131l-115 -418q-27 -96 -26 -121q0 -29 20 -29t53 33q39 41 56 98h53q-51 -145 -154 -227q-82 -63 -149 -63q-68 0 -114 34.5 t-46 90.5q0 49 18 116l117 422q16 59 17 101q0 31 -33 30q-47 0 -131 -125q-98 -145 -162 -354l-90 -301h-268z" />
<glyph unicode="o" horiz-adv-x="1024" d="M37 279q0 266 180 491q197 244 467 244q129 0 220 -96t91 -246q0 -268 -204 -490q-197 -215 -420 -215q-147 0 -240.5 89t-93.5 223zM311 182q0 -43 28 -79.5t67 -36.5q102 0 214.5 241.5t112.5 448.5q0 151 -95 151h-1q-119 0 -229 -291q-96 -256 -97 -434z" />
<glyph unicode="p" horiz-adv-x="1003" d="M-250 -358l10 53q61 0 112.5 53t74.5 133l248 877q18 66 18 90q0 65 -104 65h-3l15 56h63q109 0 256 30q31 6 97 23l-31 -133q68 70 108 96q66 41 140 41q94 0 147 -86q47 -77 47 -186q0 -225 -149 -475q-176 -291 -408 -291q-41 0 -125 30l-41 -131q-16 -53 -16 -84 q0 -47 39 -77q37 -29 82 -29h6l-17 -55h-569zM301 111q0 -23 20.5 -38.5t45.5 -15.5q106 0 215 238q100 223 100 403q0 152 -104 152q-80 0 -117 -133l-144 -516q-16 -59 -16 -90z" />
<glyph unicode="q" horiz-adv-x="983" d="M68 274q0 266 176 508t356 242q102 0 145 -78l21 53h256l-299 -1099q-16 -59 -16 -86q0 -47 36.5 -79t87.5 -34l-14 -53h-581l12 55q147 18 198 197l95 321q-145 -219 -289 -219q-92 0 -138 76t-46 196zM332 297q0 -96 59 -96q84 0 195.5 231t111.5 383q0 43 -19.5 82 t-51.5 39q-88 0 -191.5 -225.5t-103.5 -413.5z" />
<glyph unicode="r" horiz-adv-x="819" d="M66 0l100 383q59 227 59 371q0 72 -47 137l15 49q156 0 286 55q-4 -76 -18 -252q-14 -121 -49 -264l133 299q106 238 227 238q47 0 79 -40t32 -89q0 -76 -35 -142q-42 -79 -111 -79h-2q-51 0 -64.5 36.5t-35.5 36.5q-37 0 -74 -82q-125 -270 -211 -577l-22 -80h-262z" />
<glyph unicode="s" horiz-adv-x="798" d="M12 -27q18 72 51 238q10 57 19 125h63q2 -98 52 -180q57 -94 147 -95q43 0 68.5 34t25.5 79q0 66 -65 168q-59 92 -121 186q-66 117 -66 224q0 115 84 186.5t211 71.5q66 0 164 -43q29 -12 45 -13q29 0 47 23l51 -10l-65 -334l-66 6q0 274 -153 274q-35 0 -57.5 -22.5 t-22.5 -52.5q0 -70 59.5 -155t116.5 -167q61 -106 62 -225q0 -133 -88.5 -232.5t-213.5 -99.5q-88 0 -149 29q-45 20 -68 20q-43 0 -73 -35h-58z" />
<glyph unicode="t" horiz-adv-x="675" d="M113 115q0 41 26 141l146 547h-148l35 135q127 27 240 98q129 84 194 201h68l-78 -272h143l-57 -162h-127l-143 -516q-16 -59 -17 -90q0 -53 35 -54q45 0 102 99h62q-164 -272 -340 -273q-59 0 -100 43t-41 103z" />
<glyph unicode="u" horiz-adv-x="1126" d="M92 123q0 47 25 127l139 457q16 53 16 92q0 72 -94 84l27 51h71q45 0 160 18q78 12 164 35l-197 -696q-18 -66 -18 -74q0 -43 45 -43q59 0 150.5 148.5t152.5 357.5l88 297h289l-225 -762q-12 -41 -13 -51q0 -27 37 -27q41 0 88 103h50q-127 -279 -312 -279 q-61 0 -104 44t-43 112q0 76 20 114q-80 -82 -159 -163q-117 -104 -209 -105q-63 0 -105.5 47t-42.5 113z" />
<glyph unicode="v" horiz-adv-x="880" d="M111 915l10 48l270 49q37 -84 53 -168q42 -215 42 -454q0 -39 -1 -79q199 203 199 332q0 51 -51 116.5t-51 104.5q0 59 36.5 104.5t94.5 47.5h5q56 0 92 -48q38 -50 38 -118q0 -166 -186 -438q-188 -279 -424 -445l-45 19q32 245 32 405v10q0 205 -10 291 q-25 201 -104 223z" />
<glyph unicode="w" horiz-adv-x="1372" d="M125 903l10 47l309 56q39 -88 48 -175q17 -172 17 -309q0 -27 -1 -53q96 139 391 602q16 -72 41 -237q33 -315 33 -551q217 211 217 368q0 61 -45 117q-53 66 -53 119q0 55 38.5 95t94.5 40q61 0 99 -48t38 -116q0 -193 -172 -430q-133 -184 -422 -461l-49 17 q-4 258 -31 612q-102 -131 -192 -272q-147 -229 -203 -357l-74 17q29 221 29 536q0 215 -23.5 288t-99.5 95z" />
<glyph unicode="x" horiz-adv-x="1085" d="M-10 94q0 55 38 96t91 41q47 0 98 -32q33 -20 64 -21q25 0 69 45q53 51 92 131l-43 283q-12 76 -43.5 144.5t-62.5 82.5q-37 16 -111 17l11 51q106 2 223 26q59 12 139 37q80 -139 94 -282q151 280 308 280h1q53 0 90 -30.5t37 -85.5t-34.5 -97.5t-85.5 -42.5 q-31 0 -77 16.5t-75 16.5q-45 0 -147 -145l49 -320q25 -155 115 -155h1q68 0 134 114l59 2q-43 -94 -133 -190q-115 -125 -213 -125q-143 0 -217 299q-195 -293 -328 -293q-143 0 -143 137z" />
<glyph unicode="y" horiz-adv-x="983" d="M-53 -160q39 43 98 43q43 0 100 -49q41 -35 74 -35q76 0 76 95q0 14 -4 137l-17 489q-10 309 -102 342q-45 16 -84 17l12 55q98 8 205 31q51 10 113 28q61 -90 84 -213q14 -76 28 -293q10 -178 10 -279q0 -26 -1 -46q145 170 225 321q65 121 65 181v2q0 43 -55 84 t-55 122q0 129 110 129q63 0 107.5 -52t44.5 -118q0 -223 -342 -669l-272 -357q-170 -223 -306 -223q-61 0 -109 46q-46 44 -46 103q0 64 41 109z" />
<glyph unicode="z" horiz-adv-x="880" d="M12 20l604 725h-182q-88 0 -135 -18q-57 -25 -100 -94h-60l99 350h692l-582 -680q141 -66 182 -231q43 -174 99 -174q31 0 30 32q0 16 -13 47t-11 54q12 141 117 141q55 0 88.5 -40t33.5 -105q0 -102 -64.5 -167t-158.5 -65q-152 0 -237 101q-119 139 -273 139 q-80 0 -129 -15z" />
<glyph unicode="{" horiz-adv-x="757" d="M82 -219q0 53 24 143l109 408q14 55 14 92q0 86 -108 131q90 33 129 68q55 51 84 155l98 367q47 174 133 237q98 72 334 72l-22 -82q-70 0 -123 -57q-45 -51 -66 -125l-90 -338q-39 -145 -93 -207.5t-167 -89.5q127 -33 127 -143q0 -55 -27 -154l-100 -379 q-10 -39 -10 -72q0 -109 100 -108l-22 -82q-180 0 -252 38t-72 126z" />
<glyph unicode="|" horiz-adv-x="491" d="M164 0v1434h164v-1434h-164z" />
<glyph unicode="}" horiz-adv-x="757" d="M-72 -383l23 82q137 0 186 180l103 379q39 145 93 207.5t167 89.5q-127 33 -127 143q0 55 26 154l90 338q10 37 11 70q0 113 -101 112l21 82q180 0 252.5 -39t72.5 -129q1 -53 -24 -141l-98 -367q-14 -53 -15 -90q0 -84 109 -133q-90 -31 -129 -66q-55 -51 -84 -157 l-111 -408q-47 -174 -131 -235q-98 -72 -334 -72z" />
<glyph unicode="~" horiz-adv-x="1228" d="M174 492q96 176 236 176q96 0 237 -76q115 -61 176 -62q74 0 162 142l72 -201q-123 -180 -234 -180q-66 0 -149 43q-70 35 -139 72q-63 29 -119 28q-106 0 -170 -147z" />
<glyph unicode="&#xa0;" />
<glyph unicode="&#xa1;" horiz-adv-x="737" d="M31 -315q0 74 65 209q88 178 174 356q102 209 162 362h47l-98 -716q-49 -360 -211 -361q-59 0 -99 45t-40 105zM375 881q0 80 50 131t130 51q74 0 127 -52t53 -126q0 -76 -52 -129.5t-130 -53.5q-74 0 -126 52.5t-52 126.5z" />
<glyph unicode="&#xa2;" d="M111 557q0 229 176 442q186 221 428 250l49 172h94l-49 -170q106 -10 185 -73.5t79 -137.5q0 -49 -32.5 -85.5t-82.5 -36.5q-102 0 -102 106q0 16 8 43t8 43q0 55 -84 72l-239 -824q23 -6 45 -6q55 0 139 41q96 45 156 115h69q-164 -279 -452 -301l-60 -203h-94l60 203 q-145 14 -226 117q-76 94 -75 233zM389 618q0 -131 80 -215l223 768q-127 -45 -221 -243q-82 -172 -82 -310z" />
<glyph unicode="&#xa3;" d="M-129 115q0 23 6 47q51 195 297 194q145 0 281 -135q35 49 53 115q8 33 8 61q0 84 -76 183h-286l24 94h191q-104 137 -105 299q0 59 17 119q41 158 188 266t307 108q100 0 174 -43q90 -49 90 -139q0 -23 -6 -49q-16 -63 -65 -102t-109 -39q-109 0 -108 86q0 16 6 34 q23 84 121 123q-29 35 -95 35q-96 0 -163.5 -68.5t-67.5 -164.5q0 -90 92 -230q125 -182 148 -235h262l-25 -94h-213q6 -68 -10 -131q-27 -100 -100 -193q-66 -84 -142 -129q37 -41 119 -41q102 0 236 139l38 -65q-162 -180 -323 -180q-117 0 -184 69q-141 -82 -334 -82 q-246 0 -246 148zM53 129q0 -66 105 -66q94 1 200 54q-98 90 -184 90q-102 0 -119 -60q-2 -10 -2 -18z" />
<glyph unicode="&#xa4;" horiz-adv-x="1175" d="M59 299l115 117q-88 131 -88 289q0 160 86 284l-113 113l136 135l110 -111q131 88 283 88q156 0 284 -92l115 115l133 -135l-114 -117q84 -125 84 -280q0 -152 -86 -287l116 -119l-133 -135l-119 119q-125 -86 -280 -86q-152 0 -279 84l-114 -117zM297 705 q0 -121 85 -208t206 -87q119 0 205 87t86 208q0 123 -85 208.5t-206 85.5t-206 -86t-85 -208z" />
<glyph unicode="&#xa5;" d="M86 0l20 78q106 0 153.5 26.5t70.5 108.5l67 252h-297l31 115h297l10 38l-18 136h-244l31 114h199l-41 326q-23 186 -121 186l18 72h531l-19 -72q-131 0 -147 -67q-6 -23 6 -109l57 -428l279 428q47 72 47 109q0 68 -123 67l20 72h392l-19 -72q-102 0 -203 -153 l-233 -359h184l-30 -114h-228l-90 -136l-10 -38h280l-30 -115h-281l-67 -252q-8 -31 -9 -53q0 -82 158 -82l-20 -78h-621z" />
<glyph unicode="&#xa6;" horiz-adv-x="454" d="M156 0v635h143v-635h-143zM156 819v635h143v-635h-143z" />
<glyph unicode="&#xa7;" horiz-adv-x="1085" d="M-29 -281q0 70 51.5 133.5t118.5 63.5q82 0 82 -88q0 -18 -6 -39q-16 -33 -45 -104q-8 -31 25.5 -50.5t78.5 -19.5q76 0 146 49t92 123q6 23 6 41q0 55 -86 137l-229 215q-104 96 -105 223q0 150 97 285q92 129 231 197q-80 78 -80 172q0 43 14 96q37 150 171.5 246 t302.5 96q115 0 198.5 -62.5t83.5 -148.5q0 -68 -53 -125t-119 -57q-39 0 -65.5 23.5t-26.5 58.5q0 29 26.5 79t26.5 72q0 31 -28.5 49.5t-67.5 18.5q-82 0 -157.5 -60.5t-75.5 -140.5q0 -51 40 -106q18 -25 87 -95l165 -170q113 -117 113 -229q0 -43 -12 -92 q-29 -109 -113 -213q-88 -113 -201 -166q72 -68 72 -190q0 -43 -10 -80q-39 -143 -177.5 -237.5t-291.5 -94.5q-115 0 -193 47q-86 53 -86 143zM311 567q0 -90 64 -151l237 -228q117 71 146 177q8 31 8 59q0 90 -74 168l-219 231q-162 -94 -162 -256z" />
<glyph unicode="&#xa8;" horiz-adv-x="681" d="M80 1198q0 39 28.5 66.5t67.5 27.5q37 0 63.5 -24.5t26.5 -61.5q0 -39 -27.5 -69.5t-64.5 -30.5q-35 0 -64.5 29.5t-29.5 62.5zM418 1192q0 41 25.5 70.5t66.5 29.5q37 0 64.5 -25.5t27.5 -62.5q0 -39 -28.5 -68.5t-69.5 -29.5q-33 0 -59.5 26.5t-26.5 59.5z" />
<glyph unicode="&#xa9;" d="M197 1038q0 188 134 322.5t322 134.5t322.5 -134.5t134.5 -322.5q0 -186 -134 -320t-323 -134q-188 0 -322 134t-134 320zM268 1038q0 -160 113 -272.5t272 -112.5q160 0 272.5 112.5t112.5 272.5t-112.5 272.5t-272.5 112.5t-272.5 -112.5t-112.5 -272.5zM397 1030 q0 111 72 189.5t180 78.5q61 0 115 -26q16 -8 33 -8q20 0 30 34h13v-165h-23q-25 119 -147 118q-74 0 -115 -65q-37 -57 -37 -144q0 -205 156 -204q86 0 155 73v-53q-68 -80 -184 -80q-106 0 -177 68.5t-71 183.5z" />
<glyph unicode="&#xaa;" horiz-adv-x="759" d="M172 991q0 106 100 271q121 197 267 196q51 0 94 -39l12 33h195l-129 -405q-14 -45 -15 -80q0 -29 21 -29q23 0 74 78h53q-25 -39 -51 -76q-92 -127 -191 -127q-113 0 -113 109q0 14 3 18q-100 -119 -179 -119q-66 0 -104 53q-37 47 -37 117zM375 1018q0 -59 35 -60 q41 0 110 123q72 133 72 244q0 68 -35 68q-53 0 -117.5 -131.5t-64.5 -243.5z" />
<glyph unicode="&#xab;" horiz-adv-x="1224" d="M88 471q236 186 555 492h113q-219 -289 -348 -490l143 -473h-102q-170 238 -361 471zM563 469q190 162 561 494l11 2q47 -8 102 -2q-127 -160 -371 -490l131 -473h-92q-96 180 -342 469z" />
<glyph unicode="&#xac;" horiz-adv-x="1228" d="M141 598v209h922v-524h-209v315h-713z" />
<glyph unicode="&#xad;" horiz-adv-x="839" d="M76 379l78 225h632l-77 -225h-633z" />
<glyph unicode="&#xae;" d="M209 1038q0 188 134 322.5t323 134.5q188 0 322 -134.5t134 -322.5q0 -186 -134 -320t-322 -134t-322.5 134t-134.5 320zM281 1038q0 -160 112.5 -272.5t272.5 -112.5t272.5 112.5t112.5 272.5t-113 272.5t-272 112.5q-160 0 -272.5 -112.5t-112.5 -272.5zM438 1276v24 h230q174 0 174 -133q0 -92 -101 -131l113 -180q12 -20 45 -20v-29h-117l-141 221h-41v-139q0 -33 13.5 -43t56.5 -10v-29h-230v29q66 0 66 53v321q0 66 -68 66zM600 1069h33q98 0 98 94q0 100 -104 101h-27v-195z" />
<glyph unicode="&#xaf;" horiz-adv-x="681" d="M45 1106l18 100h574l-19 -100h-573z" />
<glyph unicode="&#xb0;" horiz-adv-x="839" d="M270 1198q0 123 87 210t210 87t210 -87t87 -210t-87 -210t-210 -87t-210 87t-87 210zM393 1198q0 -72 51.5 -122t122.5 -50q72 0 123 50t51 122t-51 123t-123 51t-123 -51t-51 -123z" />
<glyph unicode="&#xb1;" horiz-adv-x="1228" d="M141 0v209h946v-209h-946zM141 520v209h369v234h209v-234h368v-209h-368v-233h-209v233h-369z" />
<glyph unicode="&#xb2;" horiz-adv-x="737" d="M102 582l13 59q430 365 430 549q0 141 -133 141q-104 0 -150 -86l-47 31q109 203 277 203q98 0 165.5 -71t67.5 -167q0 -170 -209 -350l-166 -143h70q113 0 188 96h80l-127 -262h-459z" />
<glyph unicode="&#xb3;" horiz-adv-x="737" d="M115 662q0 80 94 79q57 0 106 -61q39 -31 62 -31q45 0 72 51q23 43 22 101q0 102 -62.5 165.5t-172.5 69.5l45 64q84 0 155 45q82 51 82 129q0 84 -82 84q-53 0 -102 -76l-51 35q88 162 247 162q86 0 140.5 -49t54.5 -123q0 -119 -178 -205q104 -84 104 -215 q0 -141 -107.5 -235.5t-269.5 -94.5q-63 0 -108 27q-51 29 -51 78z" />
<glyph unicode="&#xb4;" horiz-adv-x="681" d="M90 1118l232 307h299l-445 -309z" />
<glyph unicode="&#xb6;" horiz-adv-x="1173" d="M225 958q0 57 17 117q102 375 553 375h551l-15 -53q-154 0 -186 -121l-404 -1507h-190l434 1620h-121l-434 -1620h-188l247 923q-125 0 -194.5 74t-69.5 192z" />
<glyph unicode="&#xb7;" horiz-adv-x="681" d="M160 559q0 74 53 127t127 53t128 -53t54 -127t-53 -127t-127 -53t-128 53t-54 127z" />
<glyph unicode="&#xb8;" horiz-adv-x="681" d="M133 -326l74 80q90 -37 149 -37q29 0 52.5 17.5t23.5 46.5q0 49 -51 49q-12 0 -119 -27l94 166h113l-35 -63q14 4 41 4q74 0 74 -88q0 -80 -63.5 -135.5t-145.5 -55.5q-86 0 -207 43z" />
<glyph unicode="&#xb9;" horiz-adv-x="737" d="M113 582l14 55q92 0 121 27q18 20 37 81l161 545q8 16 9 39q0 20 -37 21q-12 0 -37 -4l-76 -13l12 62q168 29 239.5 47t139.5 45l-223 -758q-14 -29 -14 -51q0 -41 127 -41l-13 -55h-460z" />
<glyph unicode="&#xba;" horiz-adv-x="747" d="M233 1030q0 162 119 299q129 150 310 150q88 0 149 -59.5t61 -153.5q0 -166 -133 -299t-280 -133q-98 0 -162 55t-64 141zM428 971q0 -23 15.5 -42.5t37.5 -19.5q59 0 132 141.5t73 264.5q0 84 -55 84q-72 0 -142 -170q-61 -154 -61 -258z" />
<glyph unicode="&#xbb;" horiz-adv-x="1226" d="M39 0l367 475l-142 488h101q20 -55 333 -467q-117 -80 -284 -234q-176 -160 -254 -262h-121zM514 0l352 498q-55 154 -153 465h102q234 -315 361 -465q-88 -49 -279 -232q-164 -154 -262 -266h-121z" />
<glyph unicode="&#xbc;" horiz-adv-x="1679" d="M125 582l14 55q92 0 121 27q18 20 37 81l162 545q8 16 8 39q0 20 -37 21q-12 0 -37 -4l-76 -13l13 62q168 29 239.5 47t139.5 45l-224 -758q-14 -29 -14 -51q0 -41 127 -41l-12 -55h-461zM287 -33l1013 1528h109l-1014 -1528h-108zM801 188l59 156l494 565h129l-178 -590 h114l-37 -131h-114l-58 -188h-190l53 188h-272zM942 319h166l80 273z" />
<glyph unicode="&#xbd;" horiz-adv-x="1679" d="M113 582l14 55q92 0 121 27q18 20 37 81l161 545q8 16 9 39q0 20 -37 21q-12 0 -37 -4l-76 -13l12 62q168 29 239.5 47t139.5 45l-223 -758q-14 -29 -14 -51q0 -41 127 -41l-13 -55h-460zM274 -33l1014 1528h109l-1014 -1528h-109zM901 0l12 59q430 365 430 549 q0 141 -133 142q-104 0 -149 -86l-47 30q109 203 276 203q98 0 166 -71t68 -167q0 -170 -209 -350l-166 -143h70q113 0 188 96h80l-127 -262h-459z" />
<glyph unicode="&#xbe;" horiz-adv-x="1679" d="M88 662q0 80 94 79q57 0 107 -61q39 -31 61 -31q45 0 72 51q23 43 22 101q0 102 -62.5 165.5t-172.5 69.5l45 64q84 0 156 45q82 51 82 129q0 84 -82 84q-53 0 -103 -76l-51 35q88 162 248 162q86 0 140 -49t54 -123q0 -119 -178 -205q104 -84 105 -215 q0 -141 -107.5 -235.5t-269.5 -94.5q-63 0 -109 27q-51 29 -51 78zM299 -33l1014 1528h108l-1013 -1528h-109zM813 188l59 156l494 565h129l-178 -590h115l-37 -131h-115l-57 -188h-191l53 188h-272zM954 319h166l80 273z" />
<glyph unicode="&#xbf;" horiz-adv-x="839" d="M76 -174q0 111 78 227q70 106 170 170q184 117 225 154q102 90 143 225h58l-412 -848q0 -63 29 -119q37 -70 94 -69q18 0 41.5 14t23.5 31q0 18 -33.5 88t-33.5 113q0 61 40 107t101 46t103 -46t42 -109q0 -129 -101 -223.5t-230 -94.5q-135 0 -236.5 99.5t-101.5 234.5z M535 883q0 76 52 128t130 52q76 0 129 -52t53 -128t-53 -129.5t-129 -53.5q-74 0 -128 54.5t-54 128.5z" />
<glyph unicode="&#xc0;" horiz-adv-x="1351" d="M-102 0l16 55q88 29 221 187l1049 1239l41 -2l-107 -1000q-12 -115 -12 -221q0 -94 14 -125q23 -47 101 -78l-17 -55h-594l17 55q90 27 123 62q43 43 53 141l20 209h-372l-177 -213q-55 -68 -49 -111q14 -88 103 -88l-17 -55h-413zM539 573h295l38 406zM854 1847h299 l156 -307l-86 -2z" />
<glyph unicode="&#xc1;" horiz-adv-x="1351" d="M-102 0l16 55q88 29 221 187l1049 1239l41 -2l-107 -1000q-12 -115 -12 -221q0 -94 14 -125q23 -47 101 -78l-17 -55h-594l17 55q90 27 123 62q43 43 53 141l20 209h-372l-177 -213q-55 -68 -49 -111q14 -88 103 -88l-17 -55h-413zM539 573h295l38 406zM1040 1544 l232 307h299l-445 -309z" />
<glyph unicode="&#xc2;" horiz-adv-x="1351" d="M-102 0l16 55q88 29 221 187l1049 1237h41l-107 -1000q-12 -115 -12 -221q0 -94 14 -125q23 -47 101 -78l-17 -55h-594l17 55q90 27 123 62q43 43 53 141l20 209h-372l-177 -213q-55 -68 -49 -111q14 -88 103 -88l-17 -55h-413zM539 573h295l38 406zM887 1493l260 295 h178l166 -289l-96 -24l-176 165l-258 -178z" />
<glyph unicode="&#xc3;" horiz-adv-x="1351" d="M-102 0l16 55q88 29 221 187l1049 1239l41 -2l-107 -1000q-12 -115 -12 -221q0 -94 14 -125q23 -47 101 -78l-17 -55h-594l17 55q90 27 123 62q43 43 53 141l20 209h-372l-177 -213q-55 -68 -49 -111q14 -88 103 -88l-17 -55h-413zM539 573h295l38 406zM809 1569 q90 274 246 274q59 0 147 -80t127 -80q82 0 127 144h51q-23 -100 -73 -178q-66 -100 -152 -101q-66 0 -154 81t-131 81q-104 0 -131 -141h-57z" />
<glyph unicode="&#xc4;" horiz-adv-x="1351" d="M-102 0l16 55q88 29 221 187l1049 1237h41l-107 -1000q-12 -115 -12 -221q0 -94 14 -125q23 -47 101 -78l-17 -55h-594l17 55q90 27 123 62q43 43 53 141l20 209h-372l-177 -213q-55 -68 -49 -111q14 -88 103 -88l-17 -55h-413zM539 573h295l38 406zM899 1606 q0 39 28.5 66.5t67.5 27.5q37 0 63.5 -24.5t26.5 -61.5q0 -39 -27.5 -70t-64.5 -31q-35 0 -64.5 30t-29.5 63zM1237 1599q0 41 25.5 71t66.5 30q37 0 64.5 -25.5t27.5 -62.5q0 -39 -28.5 -69t-69.5 -30q-33 0 -59.5 27t-26.5 59z" />
<glyph unicode="&#xc5;" horiz-adv-x="1351" d="M-102 0l16 55q88 29 221 187l1049 1237h41l-107 -1000q-12 -115 -12 -221q0 -94 14 -125q23 -47 101 -78l-17 -55h-594l17 55q90 27 123 62q43 43 53 141l20 209h-372l-177 -213q-55 -68 -49 -111q14 -88 103 -88l-17 -55h-413zM539 573h295l38 406zM1032 1688 q0 70 48 117.5t120 47.5q70 0 119 -50t49 -120t-49 -116.5t-119 -46.5t-119 49t-49 119zM1126 1673q0 -25 22.5 -44t47.5 -19q31 0 55.5 23.5t24.5 54.5t-21.5 53t-52.5 22q-35 0 -55.5 -27.5t-20.5 -62.5z" />
<glyph unicode="&#xc6;" horiz-adv-x="2007" d="M-59 0l14 49q135 37 238 170l804 1053q35 45 35 71q0 41 -123 62l15 49h1202l-88 -307h-47q-16 225 -351 225q2 0 -151 -6l-160 -555h64q147 0 230 45t165 170h49q-98 -289 -149 -516h-50q4 29 4 45q0 123 -102 156q-43 12 -209 12h-26q-43 -143 -86 -289 q-68 -227 -68 -270q0 -100 135 -101q143 0 273 74q23 12 192 135q100 74 174 74q-53 -115 -137 -346h-1176l15 51q102 0 137 19q47 25 74 114q53 182 82 287h-424q-66 -80 -131 -160q-102 -133 -103 -192q0 -61 156 -68l-15 -51h-462zM561 553h383l221 770z" />
<glyph unicode="&#xc7;" horiz-adv-x="1515" d="M143 592q0 377 320 647q301 256 667 256q182 0 312 -57q33 -14 74 -15q39 0 75 74h43q-20 -70 -55 -231q-23 -123 -29 -215h-45q0 170 -96 264q-86 86 -227 86q-254 0 -472 -269.5t-218 -582.5q0 -188 102 -318q113 -141 299 -141q238 0 491 270l50 -28 q-137 -170 -267 -256q-156 -102 -342 -115l-24 -45q14 4 41 4q74 0 73 -88q0 -80 -63.5 -135t-144.5 -55q-86 0 -207 43l73 79q90 -37 150 -36q29 0 52.5 17t23.5 46q0 49 -51 49q-12 0 -119 -26l84 147q-252 20 -411 202.5t-159 428.5z" />
<glyph unicode="&#xc8;" horiz-adv-x="1351" d="M4 0l16 55h46q86 0 133 166l274 967q25 86 25 110q0 45 -41 73t-95 28h-45l17 55h1134l-94 -328h-45q-16 121 -141 197q-74 45 -203 45h-143l-158 -557h141q154 0 320 205l37 -10q-49 -139 -84 -271q-20 -70 -58 -225h-53q10 29 10 61q0 72 -66.5 115t-150.5 43h-121 l-127 -446q-12 -43 -12 -107q0 -47 45 -74q37 -25 92 -24q203 0 449 166q76 51 145 121h52q-94 -197 -148 -365h-1151zM557 1841h299l156 -307l-86 -2z" />
<glyph unicode="&#xc9;" horiz-adv-x="1351" d="M4 0l16 55h46q86 0 133 166l274 967q25 86 25 110q0 45 -41 73t-95 28h-45l17 55h1134l-94 -328h-45q-16 121 -141 197q-74 45 -203 45h-143l-158 -557h141q154 0 320 205l37 -10q-49 -139 -84 -271q-20 -70 -58 -225h-53q10 29 10 61q0 72 -66.5 115t-150.5 43h-121 l-127 -446q-12 -43 -12 -107q0 -47 45 -74q37 -25 92 -24q203 0 449 166q76 51 145 121h52q-94 -197 -148 -365h-1151zM702 1532l232 307h299l-445 -309z" />
<glyph unicode="&#xca;" horiz-adv-x="1351" d="M4 0l16 55h46q86 0 133 166l274 967q25 86 25 110q0 45 -41 73t-95 28h-45l17 55h1134l-94 -328h-45q-16 121 -141 197q-74 45 -203 45h-143l-158 -557h141q154 0 320 205l37 -10q-49 -139 -84 -271q-20 -70 -58 -225h-53q10 29 10 61q0 72 -66.5 115t-150.5 43h-121 l-127 -446q-12 -43 -12 -107q0 -47 45 -74q37 -25 92 -24q203 0 449 166q76 51 145 121h52q-94 -197 -148 -365h-1151zM537 1538l260 295h178l166 -289l-97 -24l-176 166l-258 -179z" />
<glyph unicode="&#xcb;" horiz-adv-x="1351" d="M4 0l16 55h46q86 0 133 166l274 967q25 86 25 110q0 45 -41 73t-95 28h-45l17 55h1134l-94 -328h-45q-16 121 -141 197q-74 45 -203 45h-143l-158 -557h141q154 0 320 205l37 -10q-49 -139 -84 -271q-20 -70 -58 -225h-53q10 29 10 61q0 72 -66.5 115t-150.5 43h-121 l-127 -446q-12 -43 -12 -107q0 -47 45 -74q37 -25 92 -24q203 0 449 166q76 51 145 121h52q-94 -197 -148 -365h-1151zM645 1614q0 39 28.5 66.5t67.5 27.5q37 0 63.5 -24.5t26.5 -61.5q0 -39 -27.5 -69.5t-64.5 -30.5q-35 0 -64.5 29.5t-29.5 62.5zM983 1608 q0 41 25.5 70.5t66.5 29.5q37 0 64.5 -25.5t27.5 -62.5q0 -39 -28.5 -68.5t-69.5 -29.5q-33 0 -59.5 26.5t-26.5 59.5z" />
<glyph unicode="&#xcc;" horiz-adv-x="942" d="M-29 0l17 55h45q76 0 125 39q39 31 65 127l275 967q25 86 24 110q0 45 -41 73t-94 28h-45l16 55h707l-12 -55h-54q-57 0 -98 -31q-49 -37 -72 -115l-272 -970q-25 -88 -25 -111q0 -117 134 -117h51l-17 -55h-729zM360 1833h299l156 -307l-86 -2z" />
<glyph unicode="&#xcd;" horiz-adv-x="942" d="M-29 0l17 55h45q76 0 125 39q39 31 65 127l275 967q25 86 24 110q0 45 -41 73t-94 28h-45l16 55h707l-12 -55h-54q-57 0 -98 -31q-49 -37 -72 -115l-272 -970q-25 -88 -25 -111q0 -117 134 -117h51l-17 -55h-729zM645 1524l232 307h299l-445 -309z" />
<glyph unicode="&#xce;" horiz-adv-x="942" d="M-29 0l17 55h45q76 0 125 39q39 31 65 127l275 967q25 86 24 110q0 45 -41 73t-94 28h-45l16 55h707l-12 -55h-54q-57 0 -98 -31q-49 -37 -72 -115l-272 -970q-25 -88 -25 -111q0 -117 134 -117h51l-17 -55h-729zM424 1544l260 295h178l166 -289l-96 -24l-176 166 l-258 -179z" />
<glyph unicode="&#xcf;" horiz-adv-x="942" d="M-29 0l17 55h45q76 0 125 39q39 31 65 127l275 967q25 86 24 110q0 45 -41 73t-94 28h-45l16 55h707l-12 -55h-54q-57 0 -98 -31q-49 -37 -72 -115l-272 -970q-25 -88 -25 -111q0 -117 134 -117h51l-17 -55h-729zM459 1614q0 39 28.5 66.5t67.5 27.5q37 0 63.5 -24.5 t26.5 -61.5q0 -39 -27.5 -69.5t-64.5 -30.5q-35 0 -64.5 29.5t-29.5 62.5zM797 1608q0 41 25.5 70.5t66.5 29.5q37 0 64.5 -25.5t27.5 -62.5q0 -39 -28.5 -68.5t-69.5 -29.5q-33 0 -59.5 26.5t-26.5 59.5z" />
<glyph unicode="&#xd0;" horiz-adv-x="1576" d="M-10 0l16 55h45q76 0 125 39q39 31 66 127l149 524h-231l28 105h232l96 338q25 86 25 110q0 100 -135 101h-46l17 55h661q240 0 398.5 -166t158.5 -424q0 -346 -269 -605t-607 -259h-729zM551 172q0 -94 125 -94q211 0 393 239q188 252 188 574q0 485 -372 485l-150 -526 h221l-28 -105h-221l-132 -462q-25 -86 -24 -111z" />
<glyph unicode="&#xd1;" horiz-adv-x="1597" d="M4 0l16 55h25q106 0 154 166l321 1116q-61 61 -168 62h-24l16 55h463l475 -967l209 709q12 41 12 111q0 35 -21.5 62.5t-56.5 27.5h-53l10 57h428l-16 -55h-53q-92 0 -129 -135l-359 -1303h-69l-602 1256l-267 -934q-25 -86 -24 -111q0 -66 30.5 -91.5t102.5 -25.5h43 l-16 -55h-447zM705 1565q90 274 245 274q59 0 147.5 -80t127.5 -80q82 0 127 144h51q-23 -100 -74 -178q-66 -100 -151 -101q-66 0 -154 81t-131 81q-104 0 -131 -141h-57z" />
<glyph unicode="&#xd2;" horiz-adv-x="1617" d="M133 504q0 395 275 690q283 301 677 301q250 0 400 -152q139 -141 139 -356q0 -266 -151 -514q-143 -229 -372 -371.5t-458 -142.5q-236 0 -377 164q-133 152 -133 381zM459 360q0 -299 225 -299q223 0 416 342q186 335 186 693q0 123 -47 204q-59 104 -178 105 q-227 0 -420 -358q-182 -340 -182 -687zM764 1880h299l156 -307l-86 -2z" />
<glyph unicode="&#xd3;" horiz-adv-x="1617" d="M133 504q0 395 275 690q283 301 677 301q250 0 400 -152q139 -141 139 -356q0 -266 -151 -514q-143 -229 -372 -371.5t-458 -142.5q-236 0 -377 164q-133 152 -133 381zM459 360q0 -299 225 -299q223 0 416 342q186 335 186 693q0 123 -47 204q-59 104 -178 105 q-227 0 -420 -358q-182 -340 -182 -687zM987 1569l232 307h299l-445 -309z" />
<glyph unicode="&#xd4;" horiz-adv-x="1617" d="M133 504q0 395 275 690q283 301 677 301q250 0 400 -152q139 -141 139 -356q0 -266 -151 -514q-143 -229 -372 -371.5t-458 -142.5q-236 0 -377 164q-133 152 -133 381zM459 360q0 -299 225 -299q223 0 416 342q186 335 186 693q0 123 -47 204q-59 104 -178 105 q-227 0 -420 -358q-182 -340 -182 -687zM778 1567l260 295h179l165 -289l-96 -25l-176 166l-258 -178z" />
<glyph unicode="&#xd5;" horiz-adv-x="1617" d="M133 504q0 395 275 690q283 301 677 301q250 0 400 -152q139 -141 139 -356q0 -266 -151 -514q-143 -229 -372 -371.5t-458 -142.5q-236 0 -377 164q-133 152 -133 381zM459 360q0 -299 225 -299q223 0 416 342q186 335 186 693q0 123 -47 204q-59 104 -178 105 q-227 0 -420 -358q-182 -340 -182 -687zM809 1569q90 274 246 274q59 0 147 -80t127 -80q82 0 127 144h51q-23 -100 -73 -178q-66 -100 -152 -101q-66 0 -154 81t-131 81q-104 0 -131 -141h-57z" />
<glyph unicode="&#xd6;" horiz-adv-x="1617" d="M133 504q0 395 275 690q283 301 677 301q250 0 400 -152q139 -141 139 -356q0 -266 -151 -514q-143 -229 -372 -371.5t-458 -142.5q-236 0 -377 164q-133 152 -133 381zM459 360q0 -299 225 -299q223 0 416 342q186 335 186 693q0 123 -47 204q-59 104 -178 105 q-227 0 -420 -358q-182 -340 -182 -687zM807 1671q0 39 28.5 66.5t67.5 27.5q37 0 63.5 -24.5t26.5 -61.5q0 -39 -27.5 -69.5t-64.5 -30.5q-35 0 -64.5 29.5t-29.5 62.5zM1145 1665q0 41 25.5 70.5t66.5 29.5q37 0 64.5 -25.5t27.5 -62.5q0 -39 -28.5 -68.5t-69.5 -29.5 q-33 0 -59.5 26.5t-26.5 59.5z" />
<glyph unicode="&#xd7;" horiz-adv-x="1228" d="M141 805l150 149l323 -325l320 319l147 -147l-319 -320l325 -323l-149 -150l-324 326l-319 -320l-148 148l320 319z" />
<glyph unicode="&#xd8;" horiz-adv-x="1574" d="M88 12l145 152q-100 143 -100 340q0 395 275 690q283 301 677 301q190 0 328 -92l96 100l62 -61l-90 -94q143 -144 143 -361q0 -266 -151 -514q-143 -229 -372 -371.5t-458 -142.5q-211 0 -350 135l-139 -147zM459 401l805 844q-51 160 -203 160q-219 0 -408 -340 q-180 -319 -194 -664zM465 274q31 -213 219 -213q223 0 416 342q186 335 186 693q0 29 -2 43z" />
<glyph unicode="&#xd9;" horiz-adv-x="1556" d="M221 348q0 88 45 246l172 604q25 86 25 107q0 96 -164 96l12 53h705l-17 -57q-121 0 -172 -43q-43 -35 -71 -140l-193 -690q-33 -117 -33 -194q0 -111 68 -178q72 -74 195 -74q147 0 266 123q106 113 158 288l208 723q12 43 13 103q0 82 -185 82l13 57h471l-4 -61 q-94 0 -140.5 -41t-72.5 -135l-189 -656q-88 -309 -237 -452q-156 -150 -410 -150q-217 0 -340 105.5t-123 283.5zM717 1853h299l155 -307l-86 -2z" />
<glyph unicode="&#xda;" horiz-adv-x="1556" d="M221 348q0 88 45 246l172 604q25 86 25 107q0 96 -164 96l12 53h705l-17 -57q-121 0 -172 -43q-43 -35 -71 -140l-193 -690q-33 -117 -33 -194q0 -111 68 -178q72 -74 195 -74q147 0 266 123q106 113 158 288l208 723q12 43 13 103q0 82 -185 82l13 57h471l-4 -61 q-94 0 -140.5 -41t-72.5 -135l-189 -656q-88 -309 -237 -452q-156 -150 -410 -150q-217 0 -340 105.5t-123 283.5zM1016 1540l231 307h299l-444 -309z" />
<glyph unicode="&#xdb;" horiz-adv-x="1556" d="M221 348q0 88 45 246l172 604q25 86 25 107q0 96 -164 96l12 53h705l-17 -57q-121 0 -172 -43q-43 -35 -71 -140l-193 -690q-33 -117 -33 -194q0 -111 68 -178q72 -74 195 -74q147 0 266 123q106 113 158 288l208 723q12 43 13 103q0 82 -185 82l13 57h471l-4 -61 q-94 0 -140.5 -41t-72.5 -135l-189 -656q-88 -309 -237 -452q-156 -150 -410 -150q-217 0 -340 105.5t-123 283.5zM799 1561l260 294h178l166 -288l-96 -25l-177 166l-258 -178z" />
<glyph unicode="&#xdc;" horiz-adv-x="1556" d="M221 348q0 88 45 246l172 604q25 86 25 107q0 96 -164 96l12 53h705l-17 -57q-121 0 -172 -43q-43 -35 -71 -140l-193 -690q-33 -117 -33 -194q0 -111 68 -178q72 -74 195 -74q147 0 266 123q106 113 158 288l208 723q12 43 13 103q0 82 -185 82l13 57h471l-4 -61 q-94 0 -140.5 -41t-72.5 -135l-189 -656q-88 -309 -237 -452q-156 -150 -410 -150q-217 0 -340 105.5t-123 283.5zM829 1638q0 39 29 67t68 28q37 0 63.5 -24.5t26.5 -61.5q0 -39 -27.5 -70t-64.5 -31q-35 0 -65 30t-30 62zM1167 1632q0 41 26 71t67 30q37 0 64.5 -25.5 t27.5 -62.5q0 -39 -29 -69t-70 -30q-33 0 -59.5 26.5t-26.5 59.5z" />
<glyph unicode="&#xdd;" horiz-adv-x="1536" d="M295 1405l14 49h703l-13 -51q-98 0 -137 -28.5t-39 -104.5q0 -49 25 -125l129 -402l340 412q61 74 61 162q0 66 -139 88l10 49h459l-12 -49q-39 -25 -140 -113q-45 -55 -151 -180l-430 -504l-94 -340q-23 -82 -23 -104q0 -102 166 -109l-12 -55h-711l21 55q111 0 170 56 q45 43 71 135l111 399l-137 471q-37 127 -82 189q-57 78 -160 100zM881 1567q78 74 155 147q141 129 193 129q37 0 64.5 -28.5t27.5 -65.5q0 -74 -82 -102l-336 -121z" />
<glyph unicode="&#xde;" horiz-adv-x="1290" d="M39 0l16 55h45q90 0 133 166l252 967q25 94 25 110q0 45 -41 73t-94 28h-45l16 55h707l-13 -55h-53q-55 0 -98 -31q-33 -25 -41 -45q-10 -35 -21 -70l-24 -77l190 -2q147 -2 256 -98.5t109 -235.5q0 -209 -189 -353q-172 -133 -385 -133q-111 0 -192 21l-25 -92 q-25 -92 -24 -111q0 -117 133 -117h35l-17 -55h-655zM618 471q45 -18 68 -18q143 0 242 122q94 117 94 271q0 240 -229 239z" />
<glyph unicode="&#xdf;" horiz-adv-x="1292" d="M-328 -256q0 45 30 80t75 35q61 0 78 -41q6 -16 6 -84q0 -20 26 -21q49 0 121 174q41 98 72 199q76 264 225 795q182 635 619 635q162 0 280 -89q131 -97 131 -253q0 -182 -149 -271q-125 -74 -316 -63q139 -51 220 -156q84 -111 84 -256q0 -193 -140.5 -336t-333.5 -143 q-90 0 -157 45q-80 51 -80 137q0 57 36 99t93 42q41 0 71.5 -22.5t30.5 -61.5q0 -33 -26.5 -57.5t-53.5 -44.5l-8 -16q0 -45 60 -45q102 0 180 184q61 154 61 274q0 242 -190 334l31 107q141 12 239 100q106 96 107 233q0 72 -45 126.5t-115 54.5q-168 0 -305 -373 q-37 -96 -131 -469l-54 -209q-57 -225 -159 -410q-203 -367 -451 -366q-63 0 -112.5 36t-49.5 97z" />
<glyph unicode="&#xe0;" horiz-adv-x="1044" d="M47 244q0 98 70 272q82 201 194 332q139 162 289 162q92 0 148 -76l24 47h272l-192 -639q-25 -82 -25 -139q0 -61 45 -62q41 0 121 131h51q-88 -145 -141 -204q-98 -106 -207 -107q-78 0 -121 51q-39 45 -38 117q0 55 12 88q-170 -242 -297 -242q-94 0 -149.5 80 t-55.5 189zM334 291q0 -115 65 -115q72 0 181 213q114 226 114 414q0 125 -67 125q-88 0 -190.5 -223.5t-102.5 -413.5zM391 1415h299l156 -307l-86 -2z" />
<glyph unicode="&#xe1;" horiz-adv-x="1044" d="M47 244q0 98 70 272q82 201 194 332q139 162 289 162q92 0 148 -76l24 47h272l-192 -639q-25 -82 -25 -139q0 -61 45 -62q41 0 121 131h51q-88 -145 -141 -204q-98 -106 -207 -107q-78 0 -121 51q-39 45 -38 117q0 55 12 88q-170 -242 -297 -242q-94 0 -149.5 80 t-55.5 189zM334 291q0 -115 65 -115q72 0 181 213q114 226 114 414q0 125 -67 125q-88 0 -190.5 -223.5t-102.5 -413.5zM561 1094l232 307h299l-445 -309z" />
<glyph unicode="&#xe2;" horiz-adv-x="1044" d="M47 244q0 98 70 272q82 201 194 332q139 162 289 162q92 0 148 -76l24 47h272l-192 -639q-25 -82 -25 -139q0 -61 45 -62q41 0 121 131h51q-88 -145 -141 -204q-98 -106 -207 -107q-78 0 -121 51q-39 45 -38 117q0 55 12 88q-170 -242 -297 -242q-94 0 -149.5 80 t-55.5 189zM334 291q0 -115 65 -115q72 0 181 213q114 226 114 414q0 125 -67 125q-88 0 -190.5 -223.5t-102.5 -413.5zM438 1128l260 295h179l165 -288l-96 -25l-176 166l-258 -178z" />
<glyph unicode="&#xe3;" horiz-adv-x="1044" d="M47 244q0 98 70 272q82 201 194 332q139 162 289 162q92 0 148 -76l24 47h272l-192 -639q-25 -82 -25 -139q0 -61 45 -62q41 0 121 131h51q-88 -145 -141 -204q-98 -106 -207 -107q-78 0 -121 51q-39 45 -38 117q0 55 12 88q-170 -242 -297 -242q-94 0 -149.5 80 t-55.5 189zM334 291q0 -115 65 -115q72 0 181 213q114 226 114 414q0 125 -67 125q-88 0 -190.5 -223.5t-102.5 -413.5zM416 1124q90 274 246 275q59 0 147 -80t127 -80q82 0 127 143h51q-23 -100 -74 -178q-66 -100 -151 -100q-66 0 -154 81t-131 81q-104 0 -131 -142h-57z " />
<glyph unicode="&#xe4;" horiz-adv-x="1044" d="M47 244q0 98 70 272q82 201 194 332q139 162 289 162q92 0 148 -76l24 47h272l-192 -639q-25 -82 -25 -139q0 -61 45 -62q41 0 121 131h51q-88 -145 -141 -204q-98 -106 -207 -107q-78 0 -121 51q-39 45 -38 117q0 55 12 88q-170 -242 -297 -242q-94 0 -149.5 80 t-55.5 189zM334 291q0 -115 65 -115q72 0 181 213q114 226 114 414q0 125 -67 125q-88 0 -190.5 -223.5t-102.5 -413.5zM440 1198q0 39 29 66.5t68 27.5q37 0 63.5 -24.5t26.5 -61.5q0 -39 -28 -69.5t-64 -30.5q-35 0 -65 29.5t-30 62.5zM778 1192q0 41 25.5 70.5t66.5 29.5 q37 0 65 -25.5t28 -62.5q0 -39 -29 -68.5t-70 -29.5q-33 0 -59.5 26.5t-26.5 59.5z" />
<glyph unicode="&#xe5;" horiz-adv-x="1044" d="M47 244q0 98 70 272q82 201 194 332q139 162 289 162q92 0 148 -76l24 47h272l-192 -639q-25 -82 -25 -139q0 -61 45 -62q41 0 121 131h51q-88 -145 -141 -204q-98 -106 -207 -107q-78 0 -121 51q-39 45 -38 117q0 55 12 88q-170 -242 -297 -242q-94 0 -149.5 80 t-55.5 189zM334 291q0 -115 65 -115q72 0 181 213q114 226 114 414q0 125 -67 125q-88 0 -190.5 -223.5t-102.5 -413.5zM575 1266q0 70 48.5 118t119.5 48q70 0 119 -50t49 -120t-49 -117t-119 -47t-119 49t-49 119zM670 1251q0 -25 22.5 -44t46.5 -19q31 0 55.5 23.5 t24.5 54.5t-21.5 53t-52.5 22q-35 0 -55 -27.5t-20 -62.5z" />
<glyph unicode="&#xe6;" horiz-adv-x="1267" d="M29 186q0 215 178 316q113 63 371 100q53 143 53 238q0 96 -68 96q-49 0 -59 -74q-18 -125 -23 -137q-31 -74 -123 -74q-45 0 -79.5 32t-34.5 77q0 111 121 182q104 61 223 62q182 0 293 -142q92 133 202 133q80 0 132.5 -62.5t52.5 -144.5q0 -186 -160 -299 q-86 -59 -315 -77q-23 -74 -23 -138q0 -66 34 -108.5t97 -42.5q84 0 219 125h60q-209 -289 -437 -289q-209 0 -251 238q-172 -238 -316 -238q-74 0 -115 80q-33 66 -32 147zM289 209q0 -59 51 -59q70 0 143 165q39 113 80 226q-115 -14 -194.5 -114.5t-79.5 -217.5zM813 489 q115 4 180 107q56 86 56 211q0 80 -48 80q-63 0 -129 -191q-31 -104 -59 -207z" />
<glyph unicode="&#xe7;" horiz-adv-x="901" d="M61 307q0 264 209 490q203 215 418 215q88 0 154.5 -51.5t64.5 -131.5q-2 -74 -51 -127t-119 -53q-45 0 -79.5 28t-34.5 68q0 39 26 80q23 35 46.5 46.5t23.5 31.5q0 29 -51 29q-125 0 -228 -207q-94 -190 -94 -375q0 -98 48 -157.5t128 -59.5q109 0 234 135h67 q-55 -109 -149 -188q-109 -94 -236 -111l-28 -53q14 4 41 4q74 0 73 -88q0 -80 -63.5 -135t-145.5 -55q-86 0 -206 43l73 79q90 -37 150 -36q29 0 52.5 17t23.5 46q0 49 -52 49q-12 0 -118 -26l88 155q-127 20 -199 121q-66 92 -66 217z" />
<glyph unicode="&#xe8;" horiz-adv-x="860" d="M35 289q0 225 182 456q205 258 465 259q86 0 141.5 -52.5t55.5 -138.5q0 -135 -156 -268q-172 -147 -416 -170q0 -139 36 -193.5t122 -54.5q125 0 283 141h59q-225 -313 -483 -313q-289 0 -289 334zM276 1386h299l156 -307l-86 -2zM322 461q145 23 229 164q70 112 70 227 q0 70 -43 70q-59 0 -136 -142q-70 -129 -120 -319z" />
<glyph unicode="&#xe9;" horiz-adv-x="860" d="M35 289q0 225 182 456q205 258 465 259q86 0 141.5 -52.5t55.5 -138.5q0 -135 -156 -268q-172 -147 -416 -170q0 -139 36 -193.5t122 -54.5q125 0 283 141h59q-225 -313 -483 -313q-289 0 -289 334zM322 461q145 23 229 164q70 112 70 227q0 70 -43 70q-59 0 -136 -142 q-70 -129 -120 -319zM559 1085l232 308h299l-445 -310z" />
<glyph unicode="&#xea;" horiz-adv-x="860" d="M35 289q0 225 182 456q205 258 465 259q86 0 141.5 -52.5t55.5 -138.5q0 -135 -156 -268q-172 -147 -416 -170q0 -139 36 -193.5t122 -54.5q125 0 283 141h59q-225 -313 -483 -313q-289 0 -289 334zM322 461q145 23 229 164q70 112 70 227q0 70 -43 70q-59 0 -136 -142 q-70 -129 -120 -319zM352 1087l260 295h179l165 -288l-96 -25l-176 166l-258 -178z" />
<glyph unicode="&#xeb;" horiz-adv-x="860" d="M35 289q0 225 182 456q205 258 465 259q86 0 141.5 -52.5t55.5 -138.5q0 -135 -156 -268q-172 -147 -416 -170q0 -139 36 -193.5t122 -54.5q125 0 283 141h59q-225 -313 -483 -313q-289 0 -289 334zM322 461q145 23 229 164q70 112 70 227q0 70 -43 70q-59 0 -136 -142 q-70 -129 -120 -319zM430 1188q0 39 28.5 66.5t67.5 27.5q37 0 63.5 -24.5t26.5 -61.5q0 -39 -27.5 -69.5t-64.5 -30.5q-35 0 -64.5 29.5t-29.5 62.5zM768 1182q0 41 25.5 70.5t66.5 29.5q37 0 64.5 -25.5t27.5 -62.5q0 -39 -28.5 -68.5t-69.5 -29.5q-33 0 -59.5 26.5 t-26.5 59.5z" />
<glyph unicode="&#xec;" horiz-adv-x="634" d="M94 125q0 45 33 160l121 426q23 80 22 100q0 31 -26.5 53.5t-61.5 22.5h-30l14 51l41 2l385 57l-182 -663q-37 -135 -37 -164q0 -33 33 -33t106 109h59q-90 -141 -133 -185q-82 -82 -188 -81q-156 0 -156 145zM117 1413h299l155 -307l-86 -2z" />
<glyph unicode="&#xed;" horiz-adv-x="634" d="M94 125q0 49 33 160l121 405q23 76 22 101q0 31 -26.5 53t-61.5 22h-30l14 52l41 2l385 57l-182 -643q-37 -131 -37 -164t33 -33t106 109h59q-90 -141 -133 -185q-82 -82 -188 -81q-156 0 -156 145zM350 1085l232 308h299l-445 -310z" />
<glyph unicode="&#xee;" horiz-adv-x="634" d="M94 125q0 49 33 160l121 405q23 76 22 101q0 31 -26.5 53t-61.5 22h-30l14 52l41 2l385 57l-182 -643q-37 -131 -37 -164t33 -33t106 109h59q-90 -141 -133 -185q-82 -82 -188 -81q-156 0 -156 145zM127 1081l260 295h178l166 -289l-96 -24l-176 166l-258 -178z" />
<glyph unicode="&#xef;" horiz-adv-x="634" d="M94 125q0 49 33 160l121 405q23 76 22 101q0 31 -26.5 53t-61.5 22h-30l14 52l41 2l385 57l-182 -643q-37 -131 -37 -164t33 -33t106 109h59q-90 -141 -133 -185q-82 -82 -188 -81q-156 0 -156 145zM180 1184q0 39 29 66.5t67 27.5q37 0 64 -24.5t27 -61.5 q0 -39 -28 -69.5t-65 -30.5q-35 0 -64.5 29.5t-29.5 62.5zM518 1178q0 41 25.5 70.5t66.5 29.5q37 0 64.5 -25.5t27.5 -62.5q0 -39 -28.5 -68.5t-69.5 -29.5q-33 0 -59.5 26.5t-26.5 59.5z" />
<glyph unicode="&#xf0;" horiz-adv-x="1024" d="M37 279q0 266 180 491q197 244 467 244q55 0 76.5 -9.5t54.5 -43.5q-12 156 -51 245l-262 -119v95l217 100q-55 66 -133 66q-162 0 -295 -142l-62 62q68 76 166 137q113 68 197 68q172 0 266 -127l131 59v-94l-88 -39q94 -194 94 -600q0 -268 -204 -490 q-197 -215 -420 -215q-147 0 -240.5 89t-93.5 223zM311 182q0 -43 28 -79.5t67 -36.5q102 0 214.5 241.5t112.5 448.5q0 152 -96 151q-119 0 -229 -291q-96 -256 -97 -434z" />
<glyph unicode="&#xf1;" horiz-adv-x="1126" d="M68 0l208 743q10 37 11 58q0 76 -101 76l19 61h49q147 0 397 76l-106 -307q109 158 186.5 222t161.5 64q68 0 109.5 -43t41.5 -106q0 -49 -22 -131l-115 -418q-27 -96 -26 -121q0 -29 20 -29t53 33q39 41 56 98h53q-51 -145 -154 -227q-82 -63 -149 -63q-68 0 -114 34.5 t-46 90.5q0 49 18 116l117 422q16 59 17 101q0 31 -33 30q-47 0 -131 -125q-98 -145 -162 -354l-90 -301h-268zM305 1126q90 274 246 275q59 0 147 -80t127 -80q82 0 127 143h52q-23 -100 -74 -178q-66 -100 -152 -100q-66 0 -153.5 81t-130.5 81q-104 0 -132 -142h-57z" />
<glyph unicode="&#xf2;" horiz-adv-x="1024" d="M37 279q0 266 180 491q197 244 467 244q129 0 220 -96t91 -246q0 -268 -204 -490q-197 -215 -420 -215q-147 0 -240.5 89t-93.5 223zM311 182q0 -43 28 -79.5t67 -36.5q102 0 214.5 241.5t112.5 448.5q0 152 -96 151q-119 0 -229 -291q-96 -256 -97 -434zM324 1405h299 l155 -307l-86 -2z" />
<glyph unicode="&#xf3;" horiz-adv-x="1024" d="M37 279q0 266 180 491q197 244 467 244q129 0 220 -96t91 -246q0 -268 -204 -490q-197 -215 -420 -215q-147 0 -240.5 89t-93.5 223zM311 182q0 -43 28 -79.5t67 -36.5q102 0 214.5 241.5t112.5 448.5q0 152 -96 151q-119 0 -229 -291q-96 -256 -97 -434zM596 1085 l231 308h299l-444 -310z" />
<glyph unicode="&#xf4;" horiz-adv-x="1024" d="M37 279q0 266 180 491q197 244 467 244q129 0 220 -96t91 -246q0 -268 -204 -490q-197 -215 -420 -215q-147 0 -240.5 89t-93.5 223zM311 182q0 -43 28 -79.5t67 -36.5q102 0 214.5 241.5t112.5 448.5q0 152 -96 151q-119 0 -229 -291q-96 -256 -97 -434zM377 1116 l260 295h178l166 -289l-96 -24l-176 166l-258 -179z" />
<glyph unicode="&#xf5;" horiz-adv-x="1024" d="M37 279q0 266 180 491q197 244 467 244q129 0 220 -96t91 -246q0 -268 -204 -490q-197 -215 -420 -215q-147 0 -240.5 89t-93.5 223zM311 182q0 -43 28 -79.5t67 -36.5q102 0 214.5 241.5t112.5 448.5q0 152 -96 151q-119 0 -229 -291q-96 -256 -97 -434zM330 1112 q90 274 245 274q59 0 147.5 -79.5t127.5 -79.5q82 0 127 143h51q-23 -100 -74 -178q-66 -100 -151 -100q-66 0 -154 80.5t-131 80.5q-104 0 -131 -141h-57z" />
<glyph unicode="&#xf6;" horiz-adv-x="1024" d="M37 279q0 266 180 491q197 244 467 244q129 0 220 -96t91 -246q0 -268 -204 -490q-197 -215 -420 -215q-147 0 -240.5 89t-93.5 223zM311 182q0 -43 28 -79.5t67 -36.5q102 0 214.5 241.5t112.5 448.5q0 152 -96 151q-119 0 -229 -291q-96 -256 -97 -434zM420 1184 q0 39 28.5 66.5t67.5 27.5q37 0 63.5 -24.5t26.5 -61.5q0 -39 -27.5 -69.5t-64.5 -30.5q-35 0 -64.5 29.5t-29.5 62.5zM758 1178q0 41 25.5 70.5t66.5 29.5q37 0 64.5 -25.5t27.5 -62.5q0 -39 -28.5 -68.5t-69.5 -29.5q-33 0 -59.5 26.5t-26.5 59.5z" />
<glyph unicode="&#xf7;" horiz-adv-x="1228" d="M141 375v209h946v-209h-946zM469 74q0 59 43 102t102 43t102.5 -43t43.5 -102t-43 -102.5t-103 -43.5q-59 0 -102 43t-43 103zM469 885q0 59 43 102t102 43t102.5 -43t43.5 -102t-43 -102.5t-103 -43.5q-59 0 -102 43t-43 103z" />
<glyph unicode="&#xf8;" horiz-adv-x="1044" d="M-29 -4l113 117q-47 72 -47 166q0 266 180 491q197 244 467 244q111 0 195 -72l86 90l63 -61l-90 -97q57 -86 57 -202q0 -268 -204 -490q-197 -215 -420 -215q-129 0 -221 72l-105 -113zM311 182q0 -43 28 -79.5t67 -36.5q88 0 190 192q98 186 129 391l-414 -438v-29z M338 379l393 409q-8 119 -94 119q-90 0 -180 -178q-74 -147 -119 -350z" />
<glyph unicode="&#xf9;" horiz-adv-x="1126" d="M92 123q0 47 25 127l139 457q16 53 16 92q0 72 -94 84l27 51h71q45 0 160 18q78 12 164 35l-197 -696q-18 -66 -18 -74q0 -43 45 -43q59 0 150.5 148.5t152.5 357.5l88 301h289l-225 -766q-12 -41 -13 -51q0 -27 37 -27q41 0 88 103h50q-127 -279 -312 -279 q-61 0 -104 44t-43 112q0 76 20 114q-80 -82 -159 -163q-117 -104 -209 -105q-63 0 -105.5 47t-42.5 113zM350 1393h299l156 -308l-86 -2z" />
<glyph unicode="&#xfa;" horiz-adv-x="1126" d="M92 123q0 47 25 127l139 457q16 53 16 92q0 72 -94 84l27 51h71q45 0 160 18q78 12 164 35l-197 -696q-18 -66 -18 -74q0 -43 45 -43q59 0 150.5 148.5t152.5 357.5l88 297h289l-225 -762q-12 -41 -13 -51q0 -27 37 -27q41 0 88 103h50q-127 -279 -312 -279 q-61 0 -104 44t-43 112q0 76 20 114q-80 -82 -159 -163q-117 -104 -209 -105q-63 0 -105.5 47t-42.5 113zM596 1085l231 308h299l-444 -310z" />
<glyph unicode="&#xfb;" horiz-adv-x="1126" d="M92 123q0 47 25 127l139 457q16 53 16 92q0 72 -94 84l27 51h71q45 0 160 18q78 12 164 35l-197 -696q-18 -66 -18 -74q0 -43 45 -43q59 0 150.5 148.5t152.5 357.5l88 297h289l-225 -762q-12 -41 -13 -51q0 -27 37 -27q41 0 88 103h50q-127 -279 -312 -279 q-61 0 -104 44t-43 112q0 76 20 114q-80 -82 -159 -163q-117 -104 -209 -105q-63 0 -105.5 47t-42.5 113zM420 1135l260 295h178l166 -289l-96 -25l-176 166l-258 -178z" />
<glyph unicode="&#xfc;" horiz-adv-x="1126" d="M92 123q0 47 25 127l139 457q16 53 16 92q0 72 -94 84l27 51h71q45 0 160 18q78 12 164 35l-197 -696q-18 -66 -18 -74q0 -43 45 -43q59 0 150.5 148.5t152.5 357.5l88 297h289l-225 -762q-12 -41 -13 -51q0 -27 37 -27q41 0 88 103h50q-127 -279 -312 -279 q-61 0 -104 44t-43 112q0 76 20 114q-80 -82 -159 -163q-117 -104 -209 -105q-63 0 -105.5 47t-42.5 113zM469 1184q0 39 28.5 66.5t67.5 27.5q37 0 63.5 -24.5t26.5 -61.5q0 -39 -27.5 -69.5t-64.5 -30.5q-35 0 -64.5 29.5t-29.5 62.5zM807 1178q0 41 25.5 70.5t66.5 29.5 q37 0 64.5 -25.5t27.5 -62.5q0 -39 -28.5 -68.5t-69.5 -29.5q-33 0 -59.5 26.5t-26.5 59.5z" />
<glyph unicode="&#xfd;" horiz-adv-x="983" d="M-94 -264q2 61 41 104t98 43q43 0 100 -49q41 -35 74 -35q76 0 76 95q0 14 -4 137l-17 489q-10 309 -102 342q-45 16 -84 17l12 55q98 8 205 31q51 10 113 28q61 -90 84 -213q14 -76 28 -293q12 -223 9 -325q145 170 225 321q66 123 65 183q0 43 -55 84t-55 122 q0 129 110 129q63 0 107.5 -52t44.5 -118q0 -223 -342 -669l-272 -357q-170 -223 -306 -223q-61 0 -109 46t-46 108zM451 1116q78 74 155 148q141 129 193 129q37 0 64.5 -29t27.5 -66q0 -74 -82 -102l-336 -121z" />
<glyph unicode="&#xfe;" horiz-adv-x="1003" d="M-250 -358l10 53q61 0 112.5 53t74.5 133l364 1313q18 66 19 90q0 66 -107 66l15 55h63q109 0 256 31q31 6 96 22l-147 -569q68 70 108 96q66 41 140 41q94 0 147 -86q47 -77 47 -186q0 -225 -149 -475q-176 -291 -408 -291q-41 0 -125 30l-41 -131q-16 -53 -16 -84 q0 -47 39 -77.5t88 -28.5l-17 -55h-569zM301 111q0 -23 20.5 -38.5t45.5 -15.5q106 0 215 238q100 223 100 403q0 152 -104 152q-80 0 -117 -133l-144 -516q-16 -59 -16 -90z" />
<glyph unicode="&#xff;" horiz-adv-x="983" d="M-94 -264q2 61 41 104t98 43q43 0 100 -49q41 -35 74 -35q76 0 76 95q0 14 -4 137l-17 489q-10 309 -102 342q-45 16 -84 17l12 55q98 8 205 31q51 10 113 28q61 -90 84 -213q14 -76 28 -293q12 -223 9 -325q145 170 225 321q66 123 65 183q0 43 -55 84t-55 122 q0 129 110 129q63 0 107.5 -52t44.5 -118q0 -223 -342 -669l-272 -357q-170 -223 -306 -223q-61 0 -109 46t-46 108zM330 1184q0 39 28.5 66.5t67.5 27.5q37 0 63.5 -24.5t26.5 -61.5q0 -39 -27.5 -69.5t-64.5 -30.5q-35 0 -64.5 29.5t-29.5 62.5zM668 1178q0 41 25.5 70.5 t66.5 29.5q37 0 64.5 -25.5t27.5 -62.5q0 -39 -28.5 -68.5t-69.5 -29.5q-33 0 -59.5 26.5t-26.5 59.5z" />
<glyph unicode="&#x152;" horiz-adv-x="2172" d="M100 500q0 354 293 662t649 308q92 0 265 -8q182 -8 264 -8h674l-91 -309h-40q-49 152 -166 196q-76 29 -265 29h-71l-166 -573q25 -2 76 -2q137 0 222 44t157 156h51v2l2 2l-2 -2q-92 -291 -140 -489h-51l2 43q6 117 -116 154q-55 16 -220 18q-45 -139 -88 -281 q-61 -201 -61 -276q0 -53 57 -80q43 -20 103 -20q127 0 278 75q131 66 244 166q14 14 37 47h80q-45 -117 -127 -354l-899 -2q-72 0 -232 -10q-150 -8 -231 -8q-227 0 -357.5 145t-130.5 375zM426 393q0 -133 53 -223q63 -111 187 -111q262 0 397 482q47 156 96 313 q64 219 64 307q0 92 -56.5 156.5t-148.5 64.5q-168 0 -316 -190q-123 -160 -204 -410q-72 -225 -72 -389z" />
<glyph unicode="&#x153;" horiz-adv-x="1269" d="M39 279q0 219 174 462q184 262 393 263q82 0 147.5 -49.5t82.5 -127.5q137 172 251 172q76 0 125.5 -62t49.5 -140q0 -184 -150 -293q-127 -90 -321 -107q-23 -68 -23 -110q0 -63 39 -108.5t100 -45.5q72 0 152 59.5t94 59.5q4 0 29 -6q-201 -276 -430 -277 q-145 0 -215 103q-150 -115 -248 -115q-127 0 -193 100q-57 86 -57 222zM258 96q0 -72 53 -71q70 0 125 116q16 33 62 174q143 447 143 551q0 25 -16.5 45.5t-38.5 20.5q-96 0 -219 -383q-109 -336 -109 -453zM811 467q106 12 174 119q57 94 57 211q0 88 -57 88t-117 -189 q-35 -109 -51 -198z" />
<glyph unicode="&#x178;" horiz-adv-x="1536" d="M295 1405l14 49h703l-13 -51q-98 0 -137 -28.5t-39 -104.5q0 -49 25 -125l129 -402l340 412q61 74 61 162q0 66 -139 88l10 49h459l-12 -49q-39 -25 -140 -113q-45 -55 -151 -180l-430 -504l-94 -340q-23 -82 -23 -104q0 -102 166 -109l-12 -55h-711l21 55q111 0 170 56 q45 43 71 135l111 399l-137 471q-37 127 -82 189q-57 78 -160 100zM817 1622q0 39 28.5 66.5t67.5 27.5q37 0 64 -24.5t27 -61.5q0 -39 -28 -69.5t-65 -30.5q-35 0 -64.5 29.5t-29.5 62.5zM1155 1616q0 41 25.5 70.5t66.5 29.5q37 0 64.5 -25.5t27.5 -62.5 q0 -39 -28.5 -68.5t-69.5 -29.5q-33 0 -59.5 26.5t-26.5 59.5z" />
<glyph unicode="&#x2c6;" horiz-adv-x="681" d="M41 1128l260 295h178l166 -288l-96 -25l-176 166l-258 -178z" />
<glyph unicode="&#x2dc;" horiz-adv-x="681" d="M-8 1126q90 274 246 275q59 0 147 -80t127 -80q82 0 127 143h51q-23 -100 -74 -178q-66 -100 -151 -100q-66 0 -154 81t-131 81q-104 0 -131 -142h-57z" />
<glyph unicode="&#x2000;" horiz-adv-x="940" />
<glyph unicode="&#x2001;" horiz-adv-x="1880" />
<glyph unicode="&#x2002;" horiz-adv-x="940" />
<glyph unicode="&#x2003;" horiz-adv-x="1880" />
<glyph unicode="&#x2004;" horiz-adv-x="626" />
<glyph unicode="&#x2005;" horiz-adv-x="470" />
<glyph unicode="&#x2006;" horiz-adv-x="313" />
<glyph unicode="&#x2007;" horiz-adv-x="313" />
<glyph unicode="&#x2008;" horiz-adv-x="235" />
<glyph unicode="&#x2009;" horiz-adv-x="376" />
<glyph unicode="&#x200a;" horiz-adv-x="104" />
<glyph unicode="&#x2010;" horiz-adv-x="839" d="M76 379l78 225h632l-77 -225h-633z" />
<glyph unicode="&#x2011;" horiz-adv-x="839" d="M76 379l78 225h632l-77 -225h-633z" />
<glyph unicode="&#x2012;" horiz-adv-x="839" d="M76 379l78 225h632l-77 -225h-633z" />
<glyph unicode="&#x2013;" horiz-adv-x="1126" d="M57 399l78 185h909l-77 -185h-910z" />
<glyph unicode="&#x2014;" horiz-adv-x="2252" d="M57 399l78 185h2036l-78 -185h-2036z" />
<glyph unicode="&#x2018;" horiz-adv-x="552" d="M227 1038q0 131 102.5 263.5t266.5 209.5l41 -67q-195 -131 -195 -205q0 -39 43 -82q63 -63 64 -172q0 -63 -45 -109.5t-109 -46.5q-76 0 -123 66q-45 59 -45 143z" />
<glyph unicode="&#x2019;" horiz-adv-x="552" d="M186 881q195 131 195 204q0 39 -43 82q-63 63 -64 172q0 63 45.5 109.5t108.5 46.5q76 0 122 -62.5t46 -146.5q0 -131 -102.5 -263t-266.5 -210z" />
<glyph unicode="&#x201a;" horiz-adv-x="552" d="M-51 -324q217 111 211 207q-2 39 -43 80q-76 76 -74 154q2 74 52 127t124 53t123 -61.5t49 -141.5q0 -305 -414 -477z" />
<glyph unicode="&#x201c;" horiz-adv-x="1003" d="M227 1038q0 131 102.5 263.5t266.5 209.5l41 -67q-195 -131 -195 -205q0 -39 43 -82q63 -63 64 -172q0 -63 -45 -109.5t-109 -46.5q-76 0 -123 66q-45 59 -45 143zM688 1038q0 131 102.5 263.5t266.5 209.5l41 -67q-195 -131 -195 -205q0 -39 43 -82q63 -63 64 -172 q0 -63 -45 -109.5t-109 -46.5q-76 0 -123 66q-45 59 -45 143z" />
<glyph unicode="&#x201d;" horiz-adv-x="1064" d="M186 881q195 131 195 204q0 39 -43 82q-63 63 -64 172q0 63 45.5 109.5t108.5 46.5q76 0 122 -62.5t46 -146.5q0 -131 -102.5 -263t-266.5 -210zM647 881q195 131 195 204q0 39 -43 82q-63 63 -64 172q0 63 45 109.5t109 46.5q76 0 122 -62.5t46 -146.5 q0 -131 -102.5 -263t-266.5 -210z" />
<glyph unicode="&#x201e;" horiz-adv-x="983" d="M-31 -324q217 111 211 207q-2 39 -43 80q-76 76 -74 154q2 74 52.5 127t124.5 53t123 -61.5t49 -141.5q0 -305 -414 -477zM399 -324q217 111 211 207q-2 39 -43 80q-76 76 -73 154q2 74 52 127t124 53t123 -61.5t49 -141.5q0 -305 -414 -477z" />
<glyph unicode="&#x2022;" horiz-adv-x="1024" d="M160 705q0 145 103.5 248.5t248.5 103.5t248.5 -103.5t103.5 -248.5t-103.5 -249t-248.5 -104t-248.5 103.5t-103.5 249.5z" />
<glyph unicode="&#x2026;" horiz-adv-x="2048" d="M213 86q0 53 38 90t89 37t89 -37t38 -90t-37 -90t-88 -37q-53 0 -91 38t-38 89zM895 86q0 53 38 90t89 37t89 -37t38 -90t-37 -90t-88 -37q-53 0 -91 38t-38 89zM1577 86q0 53 38 90t89 37q53 0 91 -38t38 -89t-37 -89t-90 -38t-91 38t-38 89z" />
<glyph unicode="&#x202f;" horiz-adv-x="376" />
<glyph unicode="&#x2039;" horiz-adv-x="757" d="M88 471q236 186 555 492h113q-219 -289 -348 -490l143 -473h-102q-170 238 -361 471z" />
<glyph unicode="&#x203a;" horiz-adv-x="757" d="M39 0l367 475l-142 488h101q20 -55 333 -467q-117 -80 -284 -234q-176 -160 -254 -262h-121z" />
<glyph unicode="&#x205f;" horiz-adv-x="470" />
<glyph unicode="&#x2122;" horiz-adv-x="1269" d="M248 1331v123h434v-123h-29q0 84 -92 84h-45v-362q0 -63 64 -64v-28h-236v28q70 0 70 64v362h-47q-92 0 -93 -84h-26zM745 961v28q55 0 56 64v309q0 66 -53 65v27h159l158 -334l152 334h176v-27q-33 10 -56 -16q-8 -10 -8 -45v-313q0 -63 64 -64v-28h-246v28q70 0 70 64 v307l-185 -404l-196 410v-313q0 -63 67 -64v-28h-158z" />
<glyph unicode="&#xe000;" horiz-adv-x="993" d="M0 0v993h993v-993h-993z" />
</font>
</defs>
</svg>
