<?xml version="1.0" standalone="no"?>
<!DOCTYPE svg PUBLIC "-//W3C//DTD SVG 1.1//EN" "http://www.w3.org/Graphics/SVG/1.1/DTD/svg11.dtd" >
<svg xmlns="http://www.w3.org/2000/svg">
<metadata></metadata>
<defs>
<font id="timestpcbold" horiz-adv-x="1024" >
<font-face units-per-em="2048" ascent="1638" descent="-410" />
<missing-glyph horiz-adv-x="552" />
<glyph horiz-adv-x="2048" />
<glyph horiz-adv-x="2048" />
<glyph unicode="&#xd;" horiz-adv-x="552" />
<glyph unicode=" "  horiz-adv-x="552" />
<glyph unicode="&#x09;" horiz-adv-x="552" />
<glyph unicode="&#xa0;" horiz-adv-x="552" />
<glyph unicode="!" horiz-adv-x="532" d="M94 1274q0 203 172 203q176 0 176 -203q0 -72 -20 -168l-137 -641h-33l-137 641q-20 96 -21 168zM100 125q0 70 48.5 118t117.5 48q70 0 118 -48t48 -118t-48 -118t-118 -48t-118 48t-48 118z" />
<glyph unicode="&#x22;" horiz-adv-x="681" d="M104 1378q0 96 84 97q84 -1 84 -97q0 -18 -4 -63l-26 -287q-6 -76 -54 -76q-47 0 -53 76l-24 287q-6 72 -7 63zM410 1378q0 96 84 97q84 -1 84 -97q0 8 -7 -63l-24 -287q-6 -76 -53 -76t-54 76l-24 287q-6 72 -6 63z" />
<glyph unicode="#" horiz-adv-x="1208" d="M125 455v157h225l51 240h-276v158h311l94 442h95l-95 -442h301l95 442h94l-94 -442h188v-158h-221l-51 -240h272v-157h-307l-96 -455h-95l97 455h-301l-97 -455h-94l96 455h-192zM446 612h299l52 240h-299z" />
<glyph unicode="$" horiz-adv-x="1105" d="M100 1094q0 190 125 303q115 102 295 114v138h68v-138q199 -18 348 -127v-337h-43q0 162 -84 268t-221 119v-506q227 -96 311 -166q152 -127 152 -336q0 -197 -121 -320q-125 -131 -342 -133v-166h-68v168q-182 12 -375 129v412h52q0 -403 323 -459v559q-203 90 -287 168 q-133 123 -133 310zM281 1212q0 -92 69 -155q53 -50 170 -103v480q-240 -16 -239 -222zM588 49h35q90 0 172 74t82 172q0 100 -86 174q-61 53 -203 117v-537z" />
<glyph unicode="%" horiz-adv-x="1781" d="M100 1034q0 197 91.5 329t240.5 132q150 0 240 -132t90 -329q0 -195 -90 -325.5t-240 -130.5t-241 131t-91 325zM330 883q0 -240 100 -240t100 240v309q0 240 -100 240t-100 -240v-309zM453 0l768 1454h118l-768 -1454h-118zM1034 416q0 197 91.5 329t240.5 132 q150 0 240 -132t90 -329q0 -195 -90 -326t-240 -131t-241 131t-91 326zM1264 264q0 -240 100 -239q100 -1 100 239v309q0 240 -100 240t-100 -240v-309z" />
<glyph unicode="&#x26;" horiz-adv-x="1556" d="M98 319q0 147 90 271q102 139 304 215q-43 129 -43 239q0 174 114.5 300t280.5 126q117 0 207 -71.5t90 -179.5q0 -109 -92.5 -207.5t-247.5 -155.5q66 -139 125 -229q80 -123 178 -230q63 92 84 133q35 72 35 150q0 49 -26 87t-69 38v55h390v-53q-51 0 -109.5 -46 t-140.5 -231q-35 -78 -115 -192l86 -96q31 -35 83 -65t87 -30q43 0 88 33l23 -18q-131 -227 -295 -228q-125 0 -301 172q-227 -174 -441 -174q-160 0 -272.5 114t-112.5 273zM369 541q0 -129 106 -277q115 -154 236 -153q69 -1 151 65q-113 139 -190 264q-86 139 -156 293 q-147 -33 -147 -192zM672 1247q0 -135 98 -321q160 59 160 215q0 86 -49.5 165.5t-108.5 79.5q-100 0 -100 -139z" />
<glyph unicode="'" horiz-adv-x="491" d="M162 1378q0 96 84 97q84 -1 84 -97q0 -18 -4 -63l-27 -287q-6 -76 -53 -76t-53 76l-25 287q-6 72 -6 63z" />
<glyph unicode="(" horiz-adv-x="696" d="M68 543q0 330 160.5 600t414.5 352v-70q-307 -152 -307 -807q0 -778 323 -970v-68q-262 86 -426.5 357.5t-164.5 605.5z" />
<glyph unicode=")" horiz-adv-x="696" d="M37 -352q324 193 323 970q0 655 -307 807v70q254 -82 415 -352t161 -600q0 -334 -165 -605.5t-427 -357.5v68z" />
<glyph unicode="*" horiz-adv-x="942" d="M68 1169q0 43 30.5 71t75.5 28q63 0 143 -84q49 -51 115 -74l12 -4v18q0 70 -34 133q-41 76 -41 123t29.5 81t72.5 34t72.5 -34t29.5 -81t-41 -123q-35 -63 -34 -133v-16l8 2q59 14 115 74q80 84 143 84q45 0 75.5 -28t30.5 -71q0 -76 -82 -102q-49 -14 -129 -2 q-68 10 -137 -6l-16 -4l18 -25q43 -57 107 -88q45 -20 61 -33q29 -16 45 -39q25 -33 25 -73q0 -55 -39 -84q-25 -18 -55 -19q-57 0 -97 54q-29 39 -39 122q-8 61 -51 127l-12 19l-12 -19q-43 -66 -51 -127q-10 -82 -39 -120q-41 -53 -99 -54q-31 0 -53 17q-39 27 -39 80 q0 41 24.5 75.5t106.5 73.5q63 31 107 88l18 25l-16 6q-74 18 -137 6q-82 -14 -129 0q-82 27 -82 102z" />
<glyph unicode="+" horiz-adv-x="1228" d="M141 377v209h369v377h209v-377h368v-209h-368v-377h-209v377h-369z" />
<glyph unicode="," horiz-adv-x="552" d="M94 125q-2 74 53.5 126t128.5 52q96 0 156 -88q53 -79 53 -192q0 -129 -88 -252q-96 -139 -239 -166l-19 30q102 49 164 138q55 80 55 153q0 23 -18 68q-49 -39 -100 -39q-63 0 -103.5 50t-42.5 120z" />
<glyph unicode="-" horiz-adv-x="696" d="M61 389v205h574v-205h-574z" />
<glyph unicode="." horiz-adv-x="552" d="M111 125q0 70 48 118t117 48q70 0 118 -48t48 -118t-48 -118t-118 -48t-117.5 48t-47.5 118z" />
<glyph unicode="/" horiz-adv-x="757" d="M53 -41l508 1536h139l-507 -1536h-140z" />
<glyph unicode="0" horiz-adv-x="1105" d="M76 727q0 332 121 543q129 225 356 225t356 -225q121 -211 121 -543t-121 -543q-129 -225 -356 -225t-356 225q-121 211 -121 543zM395 434q0 -205 31 -295q35 -104 125 -104q156 0 156 399v592q0 399 -156 399q-90 0 -125 -104q-31 -90 -31 -295v-592z" />
<glyph unicode="1" horiz-adv-x="1105" d="M203 1204v66q170 31 329 98q84 35 228 117v-1243q0 -100 39 -142q43 -49 155 -49v-51h-747v51q115 0 176 53.5t61 137.5v909q0 94 -82 94q-59 0 -159 -41z" />
<glyph unicode="2" horiz-adv-x="1105" d="M80 0q293 317 444 596q123 231 123 381q0 127 -73.5 201.5t-188.5 74.5q-162 0 -258 -161h-31q33 182 149.5 292.5t289.5 110.5q170 0 288 -100q125 -109 125 -275q0 -324 -551 -862h408q90 0 141 66q23 27 33 65h35l-84 -389h-850z" />
<glyph unicode="3" horiz-adv-x="1105" d="M59 147q0 43 30 75t77 32q74 0 156 -82q115 -115 229 -115q88 0 150.5 73t62.5 167q0 160 -143 299q-133 129 -256 129v51q125 20 207.5 99t82.5 182q0 104 -64.5 169.5t-174.5 65.5q-162 0 -266 -147h-31q145 350 454 350q133 0 240 -74q125 -88 125 -235 q0 -182 -184 -299q260 -141 260 -389q0 -233 -195 -389q-186 -150 -434 -150q-123 0 -217 45q-109 53 -109 143z" />
<glyph unicode="4" horiz-adv-x="1105" d="M68 313v234l718 938h138v-938h106v-234h-106v-313h-328v313h-528zM170 547h426v553z" />
<glyph unicode="5" horiz-adv-x="1105" d="M90 709l254 745h676l-109 -283h-581l-51 -153q289 0 501 -135q242 -154 242 -406q0 -233 -193 -381q-178 -137 -426 -137q-115 0 -202 41q-102 49 -103 129q0 47 34 79t87 32q76 0 174 -80q104 -86 219 -86q96 0 163 71.5t67 167.5q0 170 -190.5 283t-448.5 113h-113z " />
<glyph unicode="6" horiz-adv-x="1105" d="M82 584q0 375 269.5 641t645.5 266h52v-37q-158 -25 -259.5 -80t-197.5 -170q-117 -141 -150 -321q82 59 215 59q172 -2 282 -131t110 -319q0 -215 -129 -371q-135 -162 -336 -162q-223 0 -367 197q-135 180 -135 428zM414 621q0 -580 196 -580q138 0 138 311 q0 176 -48 307q-57 158 -161 158q-53 0 -113 -39q-12 -74 -12 -157z" />
<glyph unicode="7" horiz-adv-x="1105" d="M59 1018q25 80 74 260l47 176h854l-485 -1493h-154l398 1208h-410q-102 0 -172 -35.5t-111 -115.5h-41z" />
<glyph unicode="8" horiz-adv-x="1105" d="M80 317q0 154 90 250q59 63 205 135q-127 94 -185 175q-80 109 -79 237q0 170 141 281q131 100 313 100q168 0 297 -94q137 -98 137 -244q0 -129 -77 -211q-51 -53 -181 -117q141 -100 205 -184q92 -119 92 -262q0 -182 -151 -307q-143 -117 -340 -117q-170 0 -309 92 q-158 104 -158 266zM352 338q0 -297 213 -297q88 0 145.5 68.5t57.5 162.5q0 106 -98 205q-51 51 -217 168q-100 -117 -101 -307zM397 1223q0 -100 80 -187q47 -53 182 -149q91 104 91 266q0 264 -179 264q-76 0 -125 -56t-49 -138z" />
<glyph unicode="9" horiz-adv-x="1105" d="M78 965q0 215 123 368q129 162 329 162q223 0 369 -195q133 -182 133 -430q0 -377 -262 -642t-637 -265h-51v55q274 43 440 232q115 131 150 321q-82 -59 -215 -59q-170 2 -274.5 131t-104.5 322zM375 1102q0 -180 43 -307q55 -158 157 -158q55 0 113 39q12 74 12 158 q0 594 -188 593q-137 0 -137 -325z" />
<glyph unicode=":" horiz-adv-x="552" d="M111 125q0 70 48 118t117 48q70 0 118 -48t48 -118t-48 -118t-118 -48t-117.5 48t-47.5 118zM111 842q0 70 48 118t117 48q70 0 118 -48t48 -118t-48 -118t-118 -48t-117.5 48t-47.5 118z" />
<glyph unicode=";" horiz-adv-x="552" d="M98 125q-2 74 53.5 126t129.5 52q96 0 155 -88q53 -79 53 -192q0 -129 -88 -252q-96 -139 -239 -166l-19 30q102 49 164 138q55 80 55 153q0 23 -18 68q-49 -39 -100 -39q-63 0 -103.5 50t-42.5 120zM102 842q0 70 48.5 118t117.5 48q70 0 118 -48t48 -118t-48 -118 t-118 -48t-118 48t-48 118z" />
<glyph unicode="&#x3c;" horiz-adv-x="1228" d="M131 397v168l963 406v-230l-664 -260l664 -260v-229z" />
<glyph unicode="=" horiz-adv-x="1228" d="M152 176v213h946v-213h-946zM152 571v211h946v-211h-946z" />
<glyph unicode="&#x3e;" horiz-adv-x="1228" d="M135 -8v229l664 260l-664 260v230l963 -406v-168z" />
<glyph unicode="?" horiz-adv-x="901" d="M80 1188q0 129 110 211q102 76 246 76q154 0 266.5 -102.5t112.5 -252.5q0 -100 -73.5 -212.5t-192.5 -188.5q-137 -86 -137 -258h-41v76q0 154 106 340q41 72 41 215q0 119 -41 208q-49 104 -135 105q-31 0 -57.5 -19.5t-26.5 -50.5q0 -33 32 -82t32 -98q0 -51 -35 -90 t-84 -39q-57 0 -90 49t-33 113zM236 125q0 70 48 118t117 48q70 0 118 -48t48 -118t-48 -118t-118 -48t-117.5 48t-47.5 118z" />
<glyph unicode="@" horiz-adv-x="1986" d="M70 330q0 426 333.5 743.5t784.5 317.5q330 0 527.5 -171t197.5 -452q0 -250 -168 -473q-184 -246 -442 -246q-170 0 -170 139q0 39 8 62q-154 -207 -310 -207q-117 0 -180 96q-57 84 -57 209q0 190 131 377q150 211 354 211q154 0 207 -115l25 70h250l-136 -572 q-12 -51 -12 -65q0 -53 70 -53q129 0 235 196q100 182 101 357q0 238 -164 385t-438 147q-393 0 -676 -281.5t-283 -668.5q0 -287 172 -455q182 -180 528 -180q281 0 512 100l29 -77q-188 -66 -280 -89q-156 -37 -314 -36q-391 0 -613 200.5t-222 530.5zM850 266 q0 -111 86 -110q96 0 198.5 199.5t102.5 373.5q0 123 -70 123q-94 0 -204 -195q-113 -203 -113 -391z" />
<glyph unicode="A" horiz-adv-x="1515" d="M37 0v51q76 0 117 35q49 45 110 195l500 1226l506 -1249q51 -127 100 -170q41 -37 119 -37v-51h-684v51q164 0 164 62q0 33 -41 137l-64 162h-461l-63 -160q-27 -68 -27 -102q0 -98 181 -99v-51h-457zM434 487h400l-197 502z" />
<glyph unicode="B" horiz-adv-x="1433" d="M61 0v51q195 0 195 191v970q0 92 -33 136q-43 55 -151 55v51h837q162 0 279 -96q119 -99 119 -243v-9q-2 -127 -85 -215t-210 -121q147 -41 237 -125q103 -96 103 -231q0 -184 -158 -303q-147 -111 -348 -111h-785zM584 266q0 -174 118 -174q123 0 204 90t81 217 q0 133 -90 218t-240 85h-73v-436zM584 805h71q258 0 299 289q0 162 -114 231q-72 43 -174 43h-82v-563z" />
<glyph unicode="C" horiz-adv-x="1474" d="M68 700q0 324 224 559.5t542 235.5q186 0 340 -78q47 -24 92 -24h4q57 0 90 100h35v-485h-45q-39 188 -159 286.5t-296 98.5q-217 0 -340 -211q-109 -184 -109 -445q0 -287 109 -473q123 -211 348 -211q227 0 459 254v-108q-199 -240 -541 -240q-319 0 -530 197 q-223 207 -223 544z" />
<glyph unicode="D" horiz-adv-x="1658" d="M68 0v51q207 0 206 191v970q0 190 -196 191v51h719q289 0 501 -154q275 -198 275 -583q0 -315 -217 -518q-209 -199 -516 -199h-772zM602 225q0 -139 98 -139h64q432 0 432 627q0 348 -143 516q-119 139 -328 139h-123v-1143z" />
<glyph unicode="E" horiz-adv-x="1433" d="M57 0v51q207 0 207 191v970q0 190 -196 191v51h1189l17 -391h-47q0 117 -106.5 217t-227.5 100h-301v-596h72q115 0 188 109q66 98 66 227h43q-8 -170 -9 -327q0 -258 9 -424h-48q0 117 -63 217q-71 116 -182 116h-2h-74v-436q0 -190 156 -190h116q170 0 299 105.5 t166 267.5h51q-70 -258 -75 -449h-1248z" />
<glyph unicode="F" horiz-adv-x="1310" d="M43 0v51q207 0 207 191v970q0 190 -197 191v51h1180l6 -391h-51q0 129 -84 219q-92 98 -225 98h-301v-596h71q117 0 196 88.5t79 208.5h43v-712h-47q0 115 -72 217q-79 116 -195 116h-2h-73v-460q0 -102 34 -142q39 -49 152 -49v-51h-721z" />
<glyph unicode="G" horiz-adv-x="1638" d="M86 702q0 332 223 562.5t568 230.5q168 0 340 -84q41 -20 71 -20q51 0 92 79h54v-485h-52q-31 162 -177 290t-290 128q-244 0 -356 -229q-90 -180 -90 -478q0 -635 428 -635q88 0 188 39v256q0 109 -34 154q-41 53 -144 53v51h695v-51q-96 0 -137.5 -45t-41.5 -162v-266 q-248 -131 -499 -131q-352 0 -582 182q-256 201 -256 561z" />
<glyph unicode="H" horiz-adv-x="1802" d="M59 0v51q207 0 207 191v970q0 190 -196 191v51h710v-51q-109 0 -151 -49q-35 -41 -35 -142v-421h614v421q0 190 -196 191v51h710v-51q-109 0 -151 -49q-35 -41 -35 -142v-970q0 -102 35 -142q39 -49 151 -49v-51h-721v51q207 0 207 191v458h-614v-458q0 -102 35 -142 q39 -49 151 -49v-51h-721z" />
<glyph unicode="I" horiz-adv-x="839" d="M49 0v51q207 0 207 191v970q0 190 -197 191v51h711v-51q-109 0 -152 -49q-34 -40 -34 -136v-6v-970q0 -102 34 -142q39 -49 152 -49v-51h-721z" />
<glyph unicode="J" horiz-adv-x="1187" d="M41 268q0 68 48 121t116 53q61 0 105 -41t44 -98q0 -61 -31.5 -102t-31.5 -68q0 -41 41 -64.5t92 -23.5q84 0 135 80q45 70 45 168v919q0 96 -35 136q-51 55 -198 55v51h770v-51q-117 0 -163 -46t-46 -145v-815q0 -209 -139 -329q-127 -109 -326 -109q-168 0 -289 78 q-137 88 -137 231z" />
<glyph unicode="K" horiz-adv-x="1515" d="M29 0v51q207 0 207 191v970q0 190 -197 191v51h688v-51q-164 0 -164 -191v-471l424 502q39 45 39 94q0 47 -55 62q-20 4 -92 4v51h518v-51q-100 0 -174 -47q-53 -35 -131 -129l-256 -309l458 -760q39 -66 88 -88q39 -18 107 -19v-51h-676v51q129 0 129 55q0 31 -51 113 l-281 445l-47 -50v-372q0 -190 170 -191v-51h-704z" />
<glyph unicode="L" horiz-adv-x="1372" d="M31 1403v51h800v-51q-139 0 -195 -46t-56 -145v-987q0 -153 159 -153h2h160q113 0 213 80q47 37 98 139q49 96 76 201h53q-23 -119 -32 -230q-8 -94 -15 -262h-1249v51q207 0 207 191v970q0 190 -221 191z" />
<glyph unicode="M" horiz-adv-x="2170" d="M86 1403v51h551l459 -983l432 983h563v-53q-10 -2 -88 -10q-47 -4 -73.5 -37t-26.5 -129v-983q0 -102 34 -142q39 -49 152 -49v-51h-721v51q207 0 207 191v1110l-610 -1393l-621 1376v-1093q0 -98 41 -142q45 -49 158 -49v-51h-447v51q166 0 166 191v970q0 100 -35 142 q-39 49 -141 49z" />
<glyph unicode="N" horiz-adv-x="1699" d="M88 0v51q90 0 138 54.5t48 136.5v970q0 100 -34 142q-39 49 -142 49v51h459l809 -909v698q0 94 -40 127t-159 33v51h443v-51q-90 0 -126 -38t-36 -122l-4 -1284l-1088 1225v-942q0 -190 211 -191v-51h-479z" />
<glyph unicode="O" horiz-adv-x="1699" d="M88 725q0 354 227 567q213 203 545 203t547 -203q225 -213 225 -567t-225 -565q-215 -201 -547 -201t-545 201q-227 211 -227 565zM455 725q0 -303 98 -485q109 -201 307 -201q199 0 307 201q99 182 99 485t-99 487q-109 203 -307 203q-199 0 -307 -203 q-98 -184 -98 -487z" />
<glyph unicode="P" horiz-adv-x="1392" d="M55 0v51q207 0 207 191v970q0 190 -196 191v51h731q260 0 404.5 -98t144.5 -291q0 -406 -619 -406q-88 0 -137 7v-424q0 -102 35 -142q39 -49 151 -49v-51h-721zM590 748h123q276 0 276 319q0 313 -260 313h-139v-632z" />
<glyph unicode="Q" horiz-adv-x="1679" d="M68 725q0 354 227 567q213 203 545 203t546 -203q226 -213 226 -567q0 -299 -164 -500q-156 -188 -414 -245q23 -127 178 -222q83 -52 234 -52q33 0 70 3l-9 -61q-94 -45 -266 -45q-201 0 -354.5 98t-220.5 274q-266 53 -428 244q-170 203 -170 506zM434 725 q0 -303 98 -485q109 -201 308 -201t307 201q98 182 98 485t-98 487q-109 203 -307 203q-199 0 -308 -203q-98 -184 -98 -487z" />
<glyph unicode="R" horiz-adv-x="1495" d="M66 1403v51h731q516 0 516 -393q0 -143 -79 -245.5t-218 -141.5l330 -568q33 -57 135 -57v-49h-432l-392 649h-67v-407q0 -100 43 -142q49 -49 172 -49v-51h-737v51q195 0 194 191v970q0 190 -196 191zM590 748h94q287 0 287 303q0 174 -111 262q-83 67 -193 67h-3h-74 v-632z" />
<glyph unicode="S" horiz-adv-x="1290" d="M82 1065q0 211 151 326q135 104 345 104q184 0 376 -90q31 -14 58 -14q51 0 57 98h47q-4 -160 -4 -203q0 -106 6 -254h-47q-94 379 -463 379q-119 0 -207 -51q-98 -59 -98 -158q0 -133 236 -225q418 -162 440 -176q235 -135 235 -379q0 -207 -178 -338 q-166 -125 -393 -125q-145 0 -260 53q-92 43 -137 43q-80 0 -113 -102h-49q8 260 8 313q-2 127 -8 228h47q57 -203 193 -322q143 -129 340 -129q121 0 208 61q96 68 97 175q0 160 -230 260q-213 88 -428 174q-229 127 -229 352z" />
<glyph unicode="T" horiz-adv-x="1392" d="M45 1087v367h1303v-367h-50q0 150 -104 234q-84 68 -197 68h-137v-1147q0 -102 35 -142q39 -49 152 -49v-51h-721v51q207 0 206 191v1147h-137q-113 0 -196 -68q-104 -84 -105 -234h-49z" />
<glyph unicode="U" horiz-adv-x="1679" d="M74 1403v51h696v-51q-96 0 -134 -46t-38 -145v-858q0 -141 104 -223q96 -76 238 -76q170 0 290 124t120 298v735q0 92 -31 136q-41 55 -148 55v51h445v-51q-109 0 -152 -49q-34 -40 -34 -136v-6v-735q0 -254 -166 -393q-150 -125 -387 -125q-268 0 -431 107 q-176 117 -176 325v821q0 190 -196 191z" />
<glyph unicode="V" horiz-adv-x="1495" d="M33 1386v52h690v-52q-160 0 -160 -86q0 -29 25 -86l307 -727l283 658q39 90 39 147q0 94 -170 94v52h436v-52q-68 0 -104 -34.5t-76 -130.5l-543 -1262l-516 1258q-43 104 -78 135q-40 34 -128 34h-5z" />
<glyph unicode="W" horiz-adv-x="2129" d="M45 1386v52h567v-52q-74 0 -96 -22q-16 -14 -16 -64q0 -23 24 -86l285 -745l240 522l-91 246q-8 27 -36 80q-52 69 -165 69h-3v52h671v-52q-88 0 -114 -28q-14 -14 -15 -55q0 -51 25 -121l240 -682l254 645q39 98 38 147q0 94 -133 94v52h387v-52q-82 0 -109.5 -27.5 t-70.5 -137.5l-500 -1262l-346 930l-417 -930l-469 1258q-43 115 -74 145q-24 24 -72 24h-4z" />
<glyph unicode="X" horiz-adv-x="1454" d="M20 0v51q154 0 279 166l317 422l-385 621q-49 78 -98 110.5t-110 32.5v51h710v-51q-76 0 -90 -2q-63 -10 -63 -49q0 -23 12 -43l235 -396l160 209q78 102 78 187q0 94 -158 94v51h494v-51q-82 0 -146 -47q-45 -33 -108 -119l-283 -385l416 -682q23 -39 71 -79t72 -40v-51 h-649v51q137 0 137 68q0 23 -12 43l-250 411l-186 -245q-98 -129 -98 -183q0 -94 165 -94v-51h-510z" />
<glyph unicode="Y" horiz-adv-x="1474" d="M33 1403v51h641v-51q-90 0 -104.5 -9.5t-14.5 -52.5q0 -39 25 -86l307 -579l262 493q47 88 47 148q0 86 -158 86v51h416v-51q-63 0 -100 -37q-25 -27 -80 -129l-344 -641v-354q0 -190 211 -191v-51h-746v51q207 0 207 191v303l-383 729q-68 129 -186 129z" />
<glyph unicode="Z" horiz-adv-x="1454" d="M43 0l860 1378h-395q-229 0 -318 -327h-47q39 285 39 403h1131l-856 -1376h385q219 0 364 135q131 121 156 295h53q-18 -80 -53 -258q-16 -100 -33 -250h-1286z" />
<glyph unicode="[" horiz-adv-x="614" d="M139 -379v1874h406v-76h-156v-1722h156v-76h-406z" />
<glyph unicode="\" horiz-adv-x="757" d="M53 1495h140l507 -1536h-139z" />
<glyph unicode="]" horiz-adv-x="614" d="M70 -303h155v1722h-155v76h405v-1874h-405v76z" />
<glyph unicode="^" horiz-adv-x="1228" d="M186 762l334 692h189l333 -692h-233l-195 436l-194 -436h-234z" />
<glyph unicode="_" d="M0 -154h1024v-102h-1024v102z" />
<glyph unicode="`" horiz-adv-x="681" d="M80 1407h291l188 -301h-113z" />
<glyph unicode="a" d="M66 168q0 225 514 440v154q0 174 -138 174q-139 0 -139 -84q0 -29 33 -61.5t33 -92.5q0 -49 -44 -78.5t-102 -29.5q-63 0 -107 38t-44 105q0 123 153 211q141 80 312 80q127 0 219 -66q102 -74 102 -190v-541q0 -114 65 -114h1q35 0 57 28l29 -18q-29 -68 -95 -113 q-72 -51 -151 -51q-152 0 -184 172q-201 -172 -314 -172q-84 0 -142 61.5t-58 147.5zM360 264q0 -112 105 -112h2q66 0 113 53v323q-106 -43 -163 -114.5t-57 -149.5z" />
<glyph unicode="b" horiz-adv-x="1085" d="M37 1399v55h399v-567q82 121 232 121q162 0 262 -150q88 -137 88 -323q0 -227 -115 -394q-125 -182 -325 -182q-123 0 -240 117l-178 -117v1346q0 94 -123 94zM436 788l2 -479q0 -135 17 -190q25 -86 94 -86q90 0 139 160q41 133 41 323q0 362 -154 363q-80 0 -139 -91z " />
<glyph unicode="c" horiz-adv-x="901" d="M49 467q0 225 123 383q133 174 354 174q127 0 228 -63q108 -69 108 -171q0 -55 -38 -96t-91 -41q-68 0 -108 64q-39 55 -39 131q0 41 -30 69.5t-67 28.5q-165 0 -165 -360q0 -194 77 -324q86 -141 228 -141q113 0 221 102l27 -30q-166 -233 -394 -234q-190 0 -315 152 q-119 145 -119 356z" />
<glyph unicode="d" horiz-adv-x="1085" d="M80 492q0 203 94 350q104 166 279 166q111 0 198 -109v383q0 70 1 70l1 -15q-2 29 -21.5 46.5t-60.5 17.5h-51v53h408v-1208q0 -102 20.5 -128t91.5 -26v-55h-11q-118 0 -374 -76v143q-98 -145 -219 -145q-172 0 -270 168q-86 147 -86 365zM375 598q0 -502 153 -502 q53 0 88 59.5t35 131.5v418q0 76 -39 136t-106 60q-84 0 -113 -102q-18 -63 -18 -201z" />
<glyph unicode="e" horiz-adv-x="942" d="M51 487q0 211 119 369q127 168 317 168q166 0 281 -137q109 -131 109 -307q0 -33 -5 -54h-540q0 -117 71 -241q86 -150 211 -150q119 0 220 164l40 -25q-47 -129 -147 -217q-115 -98 -254 -98q-188 0 -309 166q-113 154 -113 362zM322 598h294v107q0 100 -30 165 q-39 82 -115 82q-150 0 -149 -354z" />
<glyph unicode="f" horiz-adv-x="655" d="M37 0v55q119 0 135 62q6 29 6 86v678h-135v102h135v88q0 203 107 315q100 106 270 107q98 0 172 -41q84 -45 84 -123q0 -51 -37 -87t-90 -36q-47 0 -81 31t-38 78q0 12 5 29.5t5 27.5q0 51 -47 51q-66 0 -65 -141v-299h135v-102h-135v-684q0 -76 20 -105q27 -37 113 -37 v-55h-559z" />
<glyph unicode="g" horiz-adv-x="1044" d="M219 -39q-123 72 -123 174q0 59 43 131q49 80 125 113q-188 135 -188 305q0 147 125 248q119 92 278 92q104 0 168 -27.5t217 -27.5h148v-119h-166q76 -76 76 -199q0 -152 -131 -252q-123 -94 -289 -94q-86 0 -166 35q-25 -27 -25 -57q0 -57 54 -76q76 -29 329 -29 q315 0 316 -248q0 -321 -524 -321h-3q-415 0 -415 195q0 105 151 157zM244 -180q0 -135 291 -135q294 0 294 137q0 76 -124 94q-39 6 -183 6q-166 0 -217 -16q-61 -20 -61 -86zM371 682q0 -139 16 -201q29 -102 115 -102q151 0 151 293q0 280 -138 280h-1q-84 0 -117 -73 q-26 -59 -26 -187v-10z" />
<glyph unicode="h" horiz-adv-x="1187" d="M59 1399v55h400v-590q129 160 272 160q127 0 199 -92q66 -86 65 -211v-559q0 -49 31 -80t70 -31v-51h-469v51q90 20 90 111v592q0 143 -92 143q-98 0 -166 -133v-602q0 -86 82 -111v-51h-480v51q119 0 119 111v1130q0 49 -33 80q-32 28 -70 28q-9 0 -18 -1z" />
<glyph unicode="i" horiz-adv-x="614" d="M51 928v55h400v-821q0 -111 118 -111v-51h-516v51q119 0 119 111v659q0 49 -30.5 78t-90.5 29zM143 1331q0 68 48.5 116t115.5 48q68 0 116 -48t48 -116t-48 -116t-116 -48t-116 48.5t-48 115.5z" />
<glyph unicode="j" horiz-adv-x="614" d="M-102 -217q0 117 106 117q86 0 86 -97q0 -16 -6 -39.5t-6 -37.5q0 -53 53 -54q41 0 41 84v1065q0 49 -30.5 78t-90.5 29v55h400v-1022q0 -174 -86 -267t-230 -93q-100 0 -168.5 49t-68.5 133zM143 1331q0 68 48.5 116t115.5 48q68 0 116 -48t48 -116t-48 -116t-116 -48 t-116 48.5t-48 115.5z" />
<glyph unicode="k" horiz-adv-x="1187" d="M49 1399v55h400v-987l247 311q37 47 37 94q0 53 -98 54v57h407v-53q-137 0 -225 -117l-143 -190l307 -465q70 -106 143 -107v-51h-487v51q57 0 57 31q0 33 -14 55l-182 287l-49 -59v-203q0 -49 34.5 -80t77.5 -31v-51h-510v51q119 0 119 111v1130q0 49 -33 80 q-32 28 -70 28q-9 0 -18 -1z" />
<glyph unicode="l" horiz-adv-x="614" d="M49 1399v55h400v-1292q0 -49 34.5 -80t77.5 -31v-51h-510v51q119 0 119 111v1130q0 49 -33 80q-32 28 -70 28q-9 0 -18 -1z" />
<glyph unicode="m" horiz-adv-x="1679" d="M57 928v55h400v-111q127 152 268 152q94 0 147 -45q6 -4 93 -111q129 156 297 156q113 0 176 -68q68 -74 67 -208v-586q0 -111 103 -111v-51h-463v51q82 0 82 111v571q0 137 -101 137q-68 0 -145 -102v-606q0 -111 86 -111v-51h-471v51q106 0 106 111v571q0 137 -100 137 q-68 0 -145 -102v-606q0 -111 86 -111v-51h-471v51q106 0 106 111v659q0 49 -30.5 78t-90.5 29z" />
<glyph unicode="n" horiz-adv-x="1126" d="M41 928v55h399v-111q127 152 281 152q113 0 176 -68q68 -74 68 -208v-586q0 -111 102 -111v-51h-463v51q82 0 82 111v571q0 137 -100 137q-68 0 -146 -102v-606q0 -111 86 -111v-51h-471v51q106 0 107 111v659q0 49 -31 78t-90 29z" />
<glyph unicode="o" d="M49 477q0 225 125 376t338 151t338 -151t125 -376t-123 -371q-126 -153 -337 -153h-3q-213 0 -340 153q-123 145 -123 371zM332 477q0 -223 28 -317q39 -131 152 -131t152 131q28 94 28 317t-28 318q-39 131 -152 131t-152 -131q-28 -91 -28 -303v-15z" />
<glyph unicode="p" horiz-adv-x="1085" d="M55 928v55h400v-117q82 143 217 144q164 0 262 -166q86 -145 88 -348v-8q0 -202 -96 -355q-109 -174 -279 -174q-123 0 -192 98v-270q0 -111 143 -111v-51h-541v51q119 0 119 111v1034q0 49 -30.5 78t-90.5 29zM455 193q53 -121 145 -121q86 0 111 172q10 67 10 237 q0 391 -129 391q-61 0 -99 -62t-38 -140v-477z" />
<glyph unicode="q" horiz-adv-x="1064" d="M78 432q0 240 126 409t302 169q150 0 242 -115l184 137v-1245q0 -111 119 -111v-51h-521v51q123 0 123 111v299q-29 -41 -96 -82q-76 -45 -133 -45q-170 0 -262 141q-84 127 -84 332zM375 551q0 -463 133 -463q96 1 145 105v522q0 80 -35 143q-41 74 -102 74 q-74 0 -110 -127q-31 -104 -31 -254z" />
<glyph unicode="r" horiz-adv-x="798" d="M35 928v55h399v-170q115 197 223 197q57 0 91 -44.5t34 -103.5t-34.5 -101t-90.5 -42q-41 0 -76.5 32.5t-60.5 32.5q-39 0 -62.5 -47t-23.5 -102v-473q0 -47 45 -82q39 -29 80 -29v-51h-510v51q106 0 107 111v659q0 49 -31 78t-90 29z" />
<glyph unicode="s" horiz-adv-x="901" d="M90 717q0 125 97.5 216t230.5 91q86 0 174 -47q18 -10 49 -10q47 0 70 49h45q2 -106 18 -320h-43q-18 80 -104 156q-96 86 -201 86q-49 0 -88 -25.5t-39 -72.5q0 -80 137 -150q231 -119 258 -139q137 -102 137 -260q0 -139 -100 -235.5t-248 -96.5q-76 0 -154.5 39 t-103.5 39q-45 0 -63 -66h-49v348h34q29 -111 109 -184q86 -82 199 -82q66 0 111.5 31t45.5 86q0 80 -135 156q-242 137 -252 145q-135 102 -135 246z" />
<glyph unicode="t" horiz-adv-x="675" d="M49 881v53q244 172 369 401h39v-352h211v-102h-211v-654q0 -139 88 -139q27 0 52.5 25.5t49.5 52.5l33 -2q-82 -205 -274 -205q-98 0 -163 77t-65 181v664h-129z" />
<glyph unicode="u" horiz-adv-x="1064" d="M20 932v51h381v-729q0 -137 101 -137q70 0 145 114v590q0 111 -86 111v51h365v-821q0 -49 30.5 -78t90.5 -29v-55h-400v127q-139 -168 -280 -168q-113 0 -178.5 71.5t-65.5 209.5v581q0 111 -103 111z" />
<glyph unicode="v" horiz-adv-x="901" d="M23 932v51h473v-51q-76 0 -76 -53q0 -18 16 -68l127 -383l139 367q12 33 13 77q0 59 -82 60v51h256v-51q-59 0 -88 -74l-332 -878h-39l-309 868q-31 84 -98 84z" />
<glyph unicode="w" horiz-adv-x="1413" d="M37 932v51h452v-51q-33 0 -57 -18.5t-24 -45.5q0 -25 18 -77l125 -357l117 326l-39 121q-16 51 -82 51v51h473v-51q-72 0 -72 -66q0 -20 10 -55l113 -377l117 350q12 37 12 78q0 70 -72 70v51h254v-51q-80 0 -137 -168l-264 -784h-45l-234 669l-241 -669h-49l-297 868 q-29 84 -78 84z" />
<glyph unicode="x" horiz-adv-x="1126" d="M39 932v51h512v-51q-68 0 -68 -58q0 -23 23 -57l121 -188l147 180q29 35 29 76q0 47 -72 47v51h326v-51q-100 0 -162 -76l-229 -287l305 -458q39 -59 125 -60v-51h-533v51q78 0 78 41q0 27 -33 74l-127 182l-141 -174q-29 -35 -29 -76q0 -47 84 -47v-51h-350v51 q41 0 94.5 21.5t79.5 54.5l230 283l-306 462q-39 59 -104 60z" />
<glyph unicode="y" horiz-adv-x="1003" d="M18 932v51h502v-51q-84 0 -84 -43q0 -12 23 -72l174 -459l129 404q14 45 14 96q0 74 -100 74v51h313v-51q-61 0 -94 -37q-25 -27 -47 -96l-332 -1006q-66 -196 -244 -196h-2q-78 0 -129 46t-51 115q0 63 37 109.5t98 46.5q109 0 109 -135q0 -55 28 -55q25 0 53.5 33.5 t41.5 74.5l32 117l-366 923q-16 39 -35.5 49.5t-69.5 10.5z" />
<glyph unicode="z" horiz-adv-x="901" d="M10 0l512 918h-155q-98 0 -160 -52q-49 -41 -78 -161h-41v278h791l-500 -907q41 -6 84 -6q137 0 235 67q109 72 123 193h41l-43 -330h-809z" />
<glyph unicode="{" horiz-adv-x="757" d="M45 535q82 33 111 67q43 51 43 156v387q0 174 69 237q78 72 314 72v-82q-70 0 -105 -54t-35 -128v-359q0 -145 -37.5 -207.5t-142.5 -88.5q104 -27 142 -89.5t38 -207.5v-359q0 -180 140 -180v-82q-236 0 -314 72q-70 61 -69 235v387q0 106 -43 158q-29 35 -111 66z" />
<glyph unicode="|" horiz-adv-x="409" d="M133 0v1454h143v-1454h-143z" />
<glyph unicode="}" horiz-adv-x="757" d="M176 -301q139 0 139 180v359q0 145 38 207.5t143 89.5q-104 27 -142.5 89t-38.5 207v359q0 74 -34.5 128t-104.5 54v82q236 0 316 -72q68 -63 67 -237v-387q0 -104 43 -156q29 -34 111 -67q-82 -31 -111 -66q-43 -51 -43 -158v-387q0 -174 -67 -235q-80 -72 -316 -72v82z " />
<glyph unicode="~" horiz-adv-x="1228" d="M174 492q96 176 236 176q96 0 237 -76q115 -61 176 -62q74 0 162 142l72 -201q-123 -180 -234 -180q-66 0 -149 43q-70 35 -139 72q-63 29 -119 28q-106 0 -170 -147z" />
<glyph unicode="&#xa1;" horiz-adv-x="532" d="M94 -205q0 82 21 168l137 559h33l137 -559q20 -86 20 -168q0 -203 -176 -203q-172 0 -172 203zM100 838q0 70 48.5 118t117.5 48q70 0 118 -48t48 -118t-48 -118t-118 -48t-118 48t-48 118z" />
<glyph unicode="&#xa2;" horiz-adv-x="1105" d="M113 727q0 211 110 365q121 168 322 186v166h80v-164q158 -8 262 -72.5t104 -154.5q0 -53 -38 -94t-91 -41q-68 0 -108 63q-39 55 -39 133t-90 88v-811q35 -10 67 -10q184 0 291 119l27 -31q-59 -94 -160 -162q-109 -74 -225 -86v-180h-80v180q-186 16 -307 150 q-125 141 -125 356zM387 842q0 -291 158 -412v768q-84 -14 -121 -94t-37 -262z" />
<glyph unicode="&#xa3;" horiz-adv-x="1105" d="M23 162q0 195 243 194q147 0 316 -135q25 49 24 115q0 115 -133 244h-287v94h191q-201 193 -201 418q0 158 117 266t278 108q115 0 207 -53q113 -66 113 -178q0 -63 -38 -102t-97 -39q-55 0 -92 28q-43 33 -43 92q0 84 88 123q-41 35 -105 35q-80 0 -128 -49t-48 -129 t68 -174q39 -53 149.5 -167t155.5 -179h260v-94h-211q25 -68 24 -131q0 -100 -47 -193q-45 -84 -108 -129q47 -41 129 -41q104 0 199 139l57 -65q-115 -180 -277 -180q-117 0 -202 69q-115 -82 -312 -82q-117 0 -194 41q-96 51 -96 154zM205 147q0 -84 123 -84q96 1 186 54 q-121 90 -209 90q-100 0 -100 -60z" />
<glyph unicode="&#xa4;" horiz-adv-x="1175" d="M59 299l115 117q-88 131 -88 289q0 160 86 284l-113 113l136 135l110 -111q131 88 283 88q156 0 284 -92l115 115l133 -135l-114 -117q84 -125 84 -280q0 -152 -86 -287l116 -119l-133 -135l-119 119q-125 -86 -280 -86q-152 0 -279 84l-114 -117zM297 705 q0 -121 85 -208t206 -87q119 0 205 87t86 208q0 123 -85 208.5t-206 85.5t-206 -86t-85 -208z" />
<glyph unicode="&#xa5;" horiz-adv-x="1105" d="M33 1380v72h530v-72q-129 0 -129 -67q0 -23 35 -109l172 -428l164 428q20 53 20 86q0 90 -143 90v72h391v-72q-49 0 -96 -51q-41 -43 -64 -102l-137 -359h182v-114h-227l-51 -136v-38h278v-115h-278v-252q0 -80 45 -111q39 -25 139 -24v-78h-620v78q106 0 147 26.5 t41 108.5v252h-299v115h299v38l-55 136h-244v114h197l-127 326q-72 186 -170 186z" />
<glyph unicode="&#xa6;" horiz-adv-x="454" d="M133 0v635h143v-635h-143zM133 819v635h143v-635h-143z" />
<glyph unicode="&#xa7;" horiz-adv-x="1003" d="M76 524q0 106 53 201q57 102 160 160q-135 104 -137 268q-2 150 105.5 246t274.5 96q129 0 237 -78t108 -174q0 -57 -37 -99t-90 -42q-47 0 -83 31.5t-36 74.5q0 20 9 55t9 56q0 37 -35.5 60.5t-81.5 23.5q-72 0 -128 -48t-56 -118q0 -61 60 -127q27 -29 127 -109 l210 -170q94 -76 136 -139q51 -80 51 -182q0 -109 -55 -213q-59 -113 -156 -166q63 -49 100 -131q33 -72 33 -139q0 -143 -113.5 -237.5t-265.5 -94.5q-133 0 -229 61q-106 68 -107 183q0 55 35 99t88 44q47 0 80 -38t33 -89q0 -20 -10.5 -53t-10.5 -51q0 -31 39 -50.5 t84 -19.5q76 0 133.5 49t61.5 123q2 55 -39 102q-20 25 -90 76l-291 215q-176 131 -176 344zM246 643q0 -137 116 -227l297 -228q99 71 99 177q0 125 -125 227l-283 231q-104 -72 -104 -180z" />
<glyph unicode="&#xa8;" horiz-adv-x="681" d="M80 1159q0 35 25.5 63.5t60.5 28.5q41 0 69.5 -28.5t28.5 -67.5q0 -37 -24.5 -63.5t-61.5 -26.5q-35 0 -66.5 30.5t-31.5 63.5zM418 1157q0 37 26.5 66.5t63.5 29.5q39 0 66.5 -27.5t27.5 -66.5q0 -37 -26.5 -64.5t-63.5 -27.5q-35 0 -64.5 27.5t-29.5 62.5z" />
<glyph unicode="&#xa9;" horiz-adv-x="1105" d="M96 1038q0 188 134.5 322.5t322.5 134.5t322.5 -134.5t134.5 -322.5q0 -186 -134.5 -320t-322.5 -134t-322.5 134t-134.5 320zM168 1038q0 -160 112.5 -272.5t272.5 -112.5t272.5 112.5t112.5 272.5t-112.5 272.5t-272.5 112.5t-272.5 -112.5t-112.5 -272.5zM297 1030 q0 111 71.5 189.5t180.5 78.5q61 0 115 -26q16 -8 32 -8q20 0 31 34h12v-165h-22q-25 119 -148 118q-74 0 -114 -65q-37 -57 -37 -144q0 -205 155 -204q86 0 156 73v-53q-68 -80 -184 -80q-106 0 -177 68.5t-71 183.5z" />
<glyph unicode="&#xaa;" horiz-adv-x="747" d="M76 954q0 141 334 271v86q0 96 -82 96t-82 -41q0 -10 21.5 -34.5t21.5 -57.5q0 -35 -32 -54.5t-71 -19.5q-106 0 -106 94q0 78 104 133q94 49 205 50q86 0 148 -41q70 -45 69 -121v-324q0 -61 35 -61q23 0 35 20l33 -18q-51 -111 -172 -111q-96 0 -123 97 q-129 -96 -201 -97q-57 0 -97 40t-40 93zM283 1012q0 -59 61 -60q37 0 66 29v178q-127 -51 -127 -147z" />
<glyph unicode="&#xab;" horiz-adv-x="1103" d="M49 489q156 160 453 486h82q-96 -201 -121 -248q-76 -143 -148 -233q55 -72 138 -236q63 -127 125 -252h-84q-223 262 -445 483zM520 485q182 184 234 238q129 137 219 250l82 -4q-90 -184 -123 -246q-74 -139 -146 -231l11 -19q84 -158 254 -471h-88q-236 276 -443 483z " />
<glyph unicode="&#xac;" horiz-adv-x="1228" d="M141 598v209h922v-524h-209v315h-713z" />
<glyph unicode="&#xad;" horiz-adv-x="696" d="M61 389v205h574v-205h-574z" />
<glyph unicode="&#xae;" horiz-adv-x="1105" d="M96 1038q0 188 134.5 322.5t322.5 134.5t322.5 -134.5t134.5 -322.5q0 -186 -134.5 -320t-322.5 -134t-322.5 134t-134.5 320zM168 1038q0 -160 112.5 -272.5t272.5 -112.5t272.5 112.5t112.5 272.5t-112.5 272.5t-272.5 112.5t-272.5 -112.5t-112.5 -272.5zM326 1276v24 h229q174 0 174 -133q0 -92 -100 -131l112 -180q12 -20 45 -20v-29h-116l-142 221h-41v-139q0 -33 13.5 -43t56.5 -10v-29h-229v29q66 0 65 53v321q0 66 -67 66zM487 1069h33q98 0 98 94q0 100 -104 101h-27v-195z" />
<glyph unicode="&#xaf;" horiz-adv-x="681" d="M55 1106v100h572v-100h-572z" />
<glyph unicode="&#xb0;" horiz-adv-x="737" d="M72 1198q0 123 87 210t210 87t210 -87t87 -210t-87 -210t-210 -87t-210 87t-87 210zM195 1198q0 -72 51 -122t123 -50t123 50t51 122t-51.5 123t-122.5 51q-72 0 -123 -51t-51 -123z" />
<glyph unicode="&#xb1;" horiz-adv-x="1228" d="M141 0v209h946v-209h-946zM141 520v209h369v234h209v-234h368v-209h-368v-233h-209v233h-369z" />
<glyph unicode="&#xb2;" horiz-adv-x="778" d="M96 584q332 395 332 561q0 154 -137 153q-106 0 -168 -96h-19q25 121 102 200t187 79q106 0 187.5 -72t81.5 -174q0 -104 -82 -219q-76 -102 -256 -264h194q61 0 92 39q12 12 23 38h35l-47 -245h-525z" />
<glyph unicode="&#xb3;" horiz-adv-x="778" d="M76 672q0 27 19.5 53.5t49.5 26.5q49 0 101 -50q76 -72 133 -71q57 0 89 38t32 93q0 98 -76 172q-72 68 -150 67v48q156 25 156 170q0 49 -35 89t-88 40q-57 0 -83.5 -15.5t-65.5 -62.5h-43q92 211 295 211q104 0 170.5 -47.5t66.5 -139.5q0 -109 -121 -178 q170 -83 170 -233q0 -139 -123.5 -231.5t-285.5 -92.5q-80 0 -142 27q-70 33 -69 86z" />
<glyph unicode="&#xb4;" horiz-adv-x="681" d="M145 1087l189 302h291l-367 -302h-113z" />
<glyph unicode="&#xb6;" horiz-adv-x="1173" d="M84 1075q0 375 453 375h553v-53q-154 0 -154 -121v-1507h-191v1620h-120v-1620h-189v923q-156 0 -254 111.5t-98 271.5z" />
<glyph unicode="&#xb7;" horiz-adv-x="681" d="M174 535q0 70 48 117.5t118 47.5t119 -47.5t49 -117.5t-48 -118t-118 -48t-119 48t-49 118z" />
<glyph unicode="&#xb8;" horiz-adv-x="681" d="M145 -330l60 82q70 -31 139 -31q84 0 84 60q0 49 -51 49q2 0 -127 -25l67 164l107 -4l-25 -57q14 2 41 2q43 0 70 -33t27 -78q0 -74 -57.5 -121t-131.5 -47q-86 0 -203 39z" />
<glyph unicode="&#xb9;" horiz-adv-x="778" d="M162 1303v51q88 14 250 78q55 20 125 57v-760q0 -66 23.5 -90.5t92.5 -24.5v-30h-481v30q127 0 127 115v541q0 57 -53 57q-39 0 -84 -24z" />
<glyph unicode="&#xba;" horiz-adv-x="747" d="M66 1151q0 137 82.5 230.5t224.5 93.5q141 0 225 -92.5t84 -231.5t-84 -231.5t-225 -92.5t-224 93.5t-83 230.5zM264 1151q0 -133 19 -188q25 -74 90 -74q68 0 92 74q18 55 18 188q0 131 -18 186q-25 74 -92 74q-66 0 -90 -74q-18 -55 -19 -186z" />
<glyph unicode="&#xbb;" horiz-adv-x="1103" d="M45 979h86q230 -264 447 -485q-254 -256 -449 -492l-80 6q117 229 256 473q-61 86 -135 246q-92 195 -125 252zM524 10l146 271q33 72 114 202q-59 86 -135 246q-92 193 -125 252h84q289 -329 451 -481q-207 -215 -449 -494z" />
<glyph unicode="&#xbc;" horiz-adv-x="1802" d="M119 1303v51q88 14 250 78q55 20 125 57v-760q0 -66 23.5 -90.5t92.5 -24.5v-30h-481v30q127 0 127 115v541q0 57 -53 57q-39 0 -84 -24zM457 0l764 1456h108l-764 -1456h-108zM1022 176v172l444 543h97v-543h86v-172h-86v-176h-230v176h-311zM1118 348h215v258z" />
<glyph unicode="&#xbd;" horiz-adv-x="1802" d="M133 1303v51q88 14 250 78q55 20 125 57v-760q0 -66 23.5 -90.5t93.5 -24.5v-30h-482v30q127 0 127 115v541q0 57 -53 57q-39 0 -84 -24zM426 0l784 1456h109l-784 -1456h-109zM1059 0q332 395 332 561q0 154 -138 154q-106 0 -168 -97h-18q25 121 101.5 200t187.5 79 q106 0 187 -71.5t81 -174.5q0 -104 -82 -219q-76 -102 -256 -264h195q61 0 92 39q12 12 22 39h35l-47 -246h-524z" />
<glyph unicode="&#xbe;" horiz-adv-x="1802" d="M125 672q0 27 19.5 53.5t50.5 26.5q49 0 100 -50q76 -72 133 -71q57 0 89 38t32 93q0 98 -76 172q-72 68 -149 67v48q156 25 155 170q0 49 -34.5 89t-88.5 40q-57 0 -83.5 -15.5t-65.5 -62.5h-43q92 211 295 211q104 0 170.5 -47.5t66.5 -139.5q0 -109 -121 -178 q170 -83 170 -233q0 -139 -123.5 -231.5t-285.5 -92.5q-80 0 -141 27q-70 33 -70 86zM492 0l784 1456h108l-784 -1456h-108zM1087 176v172l445 543h96v-543h86v-172h-86v-176h-229v176h-312zM1184 348h215v258z" />
<glyph unicode="&#xbf;" horiz-adv-x="901" d="M80 -55q0 98 72.5 200.5t193.5 180.5q137 86 137 237h41v-55q0 -154 -106 -340q-41 -72 -41 -195q0 -119 43 -209q49 -104 133 -104q31 0 57.5 19.5t26.5 50.5q0 33 -32 82t-32 98q0 51 35 90t84 39q57 0 90 -49.5t33 -112.5q0 -129 -110 -211q-102 -76 -246 -76 q-154 0 -266.5 102.5t-112.5 252.5zM328 838q0 70 48 118t118 48t117.5 -48t47.5 -118t-48 -118t-117 -48q-70 0 -118 48t-48 118z" />
<glyph unicode="&#xc0;" horiz-adv-x="1515" d="M37 0v51q76 0 117 35q49 45 110 195l500 1226l506 -1249q51 -127 100 -170q41 -37 119 -37v-51h-684v51q164 0 164 62q0 33 -41 137l-64 162h-461l-63 -160q-27 -68 -27 -102q0 -98 181 -99v-51h-457zM434 487h400l-197 502zM516 1767q0 43 29.5 74t72.5 31q47 0 93 -49 l213 -234l-25 -33l-233 91q-82 31 -97 41q-53 31 -53 79z" />
<glyph unicode="&#xc1;" horiz-adv-x="1515" d="M37 0v51q76 0 117 35q49 45 110 195l500 1226l506 -1249q51 -127 100 -170q41 -37 119 -37v-51h-684v51q164 0 164 62q0 33 -41 137l-64 162h-461l-63 -160q-27 -68 -27 -102q0 -98 181 -99v-51h-457zM434 487h400l-197 502zM602 1559l189 301h290l-366 -301h-113z" />
<glyph unicode="&#xc2;" horiz-adv-x="1515" d="M37 0v51q76 0 117 35q49 45 110 195l500 1226l506 -1249q51 -127 100 -170q41 -37 119 -37v-51h-684v51q164 0 164 62q0 33 -41 137l-64 162h-461l-63 -160q-27 -68 -27 -102q0 -98 181 -99v-51h-457zM434 487h400l-197 502zM461 1540l213 266h172l213 -247l-68 -43 l-231 147l-225 -147z" />
<glyph unicode="&#xc3;" horiz-adv-x="1515" d="M37 0v51q76 0 117 35q49 45 110 195l500 1226l506 -1249q51 -127 100 -170q41 -37 119 -37v-51h-684v51q164 0 164 62q0 33 -41 137l-64 162h-461l-63 -160q-27 -68 -27 -102q0 -98 181 -99v-51h-457zM399 1577q47 276 205 276q41 0 142.5 -80.5t146.5 -80.5 q88 0 108 143h52q-4 -98 -45 -178q-51 -100 -138 -101q-45 0 -146 81t-155 81q-111 0 -110 -141h-60zM434 487h400l-197 502z" />
<glyph unicode="&#xc4;" horiz-adv-x="1515" d="M37 0v51q76 0 117 35q49 45 110 195l500 1226l506 -1249q51 -127 100 -170q41 -37 119 -37v-51h-684v51q164 0 164 62q0 33 -41 137l-64 162h-461l-63 -160q-27 -68 -27 -102q0 -98 181 -99v-51h-457zM434 487h400l-197 502zM498 1638q0 35 25.5 64t60.5 29 q41 0 69.5 -29t28.5 -68q0 -37 -24.5 -63.5t-61.5 -26.5q-35 0 -66.5 31t-31.5 63zM836 1636q0 37 26.5 67t63.5 30q39 0 66.5 -28t27.5 -67q0 -37 -26.5 -64.5t-63.5 -27.5q-35 0 -64.5 28t-29.5 62z" />
<glyph unicode="&#xc5;" horiz-adv-x="1515" d="M37 0v51q76 0 117 35q49 45 110 195l500 1226l506 -1249q51 -127 100 -170q41 -37 119 -37v-51h-684v51q164 0 164 62q0 33 -41 137l-64 162h-461l-63 -160q-27 -68 -27 -102q0 -98 181 -99v-51h-457zM434 487h400l-197 502zM567 1724q0 70 48.5 118t119.5 48 q70 0 119 -50t49 -120t-49 -117t-121 -47q-68 0 -117 50.5t-49 117.5zM659 1710q23 -63 72 -63q31 0 55.5 23t24.5 54t-21.5 53.5t-52.5 22.5q-35 0 -56.5 -27.5t-21.5 -62.5z" />
<glyph unicode="&#xc6;" horiz-adv-x="2129" d="M31 0v51q115 0 209 125q68 109 135 219l626 1010h-155v49h1153v-418h-45q0 160 -96.5 259.5t-255.5 99.5h-228v-627q23 -2 70 -2q117 0 180 113q49 88 55 217h41q-8 -356 -8 -537q0 -37 4 -98q4 -80 4 -101h-41q-18 172 -75 244q-68 88 -230 88v-493q0 -84 51 -115 q37 -23 123 -23q213 0 331 83t183 284h37l-51 -428h-1253v51q143 0 190 29q68 41 68 174v438h-420q-86 -139 -170 -280q-150 -252 -150 -301q0 -59 138 -60v-51h-420zM680 768h373v602z" />
<glyph unicode="&#xc7;" horiz-adv-x="1474" d="M68 700q0 324 224 559.5t542 235.5q186 0 340 -78q49 -25 96 -24q57 0 90 100h35v-485h-45q-39 188 -159 286.5t-296 98.5q-217 0 -340 -211q-109 -184 -109 -445q0 -287 109 -473q123 -211 348 -211q227 0 459 254v-108q-180 -219 -483 -238l-17 -53q14 2 41 2 q43 0 68.5 -33t25.5 -78q0 -74 -56 -121t-132 -47q-88 0 -201 39l60 82q70 -31 139 -31q82 0 82 60q0 49 -51 49q-2 0 -125 -25l57 156q-301 16 -496 211q-207 205 -206 528z" />
<glyph unicode="&#xc8;" horiz-adv-x="1433" d="M57 0v51q207 0 207 191v970q0 190 -196 191v51h1189l17 -391h-47q0 117 -106.5 217t-227.5 100h-301v-596h72q115 0 188 109q66 98 66 227h43q-8 -170 -9 -327q0 -258 9 -424h-48q0 117 -63 217q-72 117 -184 116h-74v-436q0 -190 156 -190h116q170 0 299 105.5 t166 267.5h51q-70 -258 -75 -449h-1248zM332 1747q0 43 29.5 73.5t72.5 30.5q47 0 92 -49l213 -233l-24 -33l-234 90q-82 31 -96 41q-53 31 -53 80z" />
<glyph unicode="&#xc9;" horiz-adv-x="1433" d="M57 0v51q207 0 207 191v970q0 190 -196 191v51h1189l17 -391h-47q0 117 -106.5 217t-227.5 100h-301v-596h72q115 0 188 109q66 98 66 227h43q-8 -170 -9 -327q0 -258 9 -424h-48q0 117 -63 217q-72 117 -184 116h-74v-436q0 -190 156 -190h116q170 0 299 105.5 t166 267.5h51q-70 -258 -75 -449h-1248zM516 1538l189 301h290l-366 -301h-113z" />
<glyph unicode="&#xca;" horiz-adv-x="1433" d="M57 0v51q207 0 207 191v970q0 190 -196 191v51h1189l17 -391h-47q0 117 -106.5 217t-227.5 100h-301v-596h72q115 0 188 109q66 98 66 227h43q-8 -170 -9 -327q0 -258 9 -424h-48q0 117 -63 217q-72 117 -184 116h-74v-436q0 -190 156 -190h116q170 0 299 105.5 t166 267.5h51q-70 -258 -75 -449h-1248zM324 1559l213 266h172l213 -248l-68 -43l-231 147l-226 -147z" />
<glyph unicode="&#xcb;" horiz-adv-x="1433" d="M57 0v51q207 0 207 191v970q0 190 -196 191v51h1189l17 -391h-47q0 117 -106.5 217t-227.5 100h-301v-596h72q115 0 188 109q66 98 66 227h43q-8 -170 -9 -327q0 -258 9 -424h-48q0 117 -63 217q-72 117 -184 116h-74v-436q0 -190 156 -190h116q170 0 299 105.5 t166 267.5h51q-70 -258 -75 -449h-1248zM381 1632q0 35 25.5 63.5t60.5 28.5q41 0 69.5 -28.5t28.5 -67.5q0 -37 -24.5 -63.5t-61.5 -26.5q-35 0 -66.5 30.5t-31.5 63.5zM719 1630q0 37 26.5 66.5t63.5 29.5q39 0 66.5 -27.5t27.5 -66.5q0 -37 -26.5 -64.5t-63.5 -27.5 q-35 0 -64.5 27.5t-29.5 62.5z" />
<glyph unicode="&#xcc;" horiz-adv-x="839" d="M49 0v51q207 0 207 191v970q0 190 -197 191v51h711v-51q-109 0 -152 -49q-35 -41 -34 -142v-970q0 -102 34 -142q39 -49 152 -49v-51h-721zM147 1747q0 43 30 73.5t73 30.5q47 0 92 -49l213 -233l-25 -33l-233 90q-82 31 -96 41q-53 31 -54 80z" />
<glyph unicode="&#xcd;" horiz-adv-x="839" d="M49 0v51q207 0 207 191v970q0 190 -197 191v51h711v-51q-109 0 -152 -49q-35 -41 -34 -142v-970q0 -102 34 -142q39 -49 152 -49v-51h-721zM315 1526l189 301h291l-367 -301h-113z" />
<glyph unicode="&#xce;" horiz-adv-x="839" d="M49 0v51q207 0 207 191v970q0 190 -197 191v51h711v-51q-109 0 -152 -49q-35 -41 -34 -142v-970q0 -102 34 -142q39 -49 152 -49v-51h-721zM121 1540l213 266h172l213 -247l-68 -43l-231 147l-225 -147z" />
<glyph unicode="&#xcf;" horiz-adv-x="839" d="M49 0v51q207 0 207 191v970q0 190 -197 191v51h711v-51q-109 0 -152 -49q-35 -41 -34 -142v-970q0 -102 34 -142q39 -49 152 -49v-51h-721zM158 1632q0 35 25.5 63.5t60.5 28.5q41 0 69.5 -27.5t28.5 -68.5q0 -35 -24.5 -62.5t-59.5 -27.5t-67.5 30.5t-32.5 63.5z M496 1630q0 37 26.5 66.5t63.5 29.5q39 0 67.5 -27.5t28.5 -66.5q0 -37 -26.5 -64.5t-63.5 -27.5t-66.5 27.5t-29.5 62.5z" />
<glyph unicode="&#xd0;" horiz-adv-x="1658" d="M68 0v51q207 0 206 191v508h-178v122h178v340q0 190 -196 191v51h719q289 0 501 -154q275 -198 275 -583q0 -315 -217 -518q-209 -199 -516 -199h-772zM602 225q0 -139 98 -139h64q432 0 432 627q0 348 -143 516q-119 139 -328 139h-123v-496h240v-122h-240v-525z" />
<glyph unicode="&#xd1;" horiz-adv-x="1699" d="M88 0v51q90 0 138 54.5t48 136.5v970q0 100 -34 142q-39 49 -142 49v51h459l809 -909v698q0 94 -40 127t-159 33v51h443v-51q-90 0 -126 -38t-36 -122l-4 -1284l-1088 1225v-942q0 -190 211 -191v-51h-479zM481 1536q47 276 205 276q41 0 142.5 -80.5t146.5 -80.5 q88 0 108 143h52q-4 -98 -45 -178q-51 -100 -138 -100q-45 0 -146 80.5t-155 80.5q-111 0 -110 -141h-60z" />
<glyph unicode="&#xd2;" horiz-adv-x="1720" d="M88 725q0 354 227 567q213 203 545 203t547 -203q225 -213 225 -567t-225 -565q-215 -201 -547 -201t-545 201q-227 211 -227 565zM455 725q0 -303 98 -485q109 -201 307 -201q199 0 307 201q99 182 99 485t-99 487q-109 203 -307 203q-199 0 -307 -203 q-98 -184 -98 -487zM598 1767q0 43 29.5 74t72.5 31q47 0 93 -49l213 -234l-25 -33l-233 91q-82 31 -97 41q-53 31 -53 79z" />
<glyph unicode="&#xd3;" horiz-adv-x="1720" d="M88 725q0 354 227 567q213 203 545 203t547 -203q225 -213 225 -567t-225 -565q-215 -201 -547 -201t-545 201q-227 211 -227 565zM455 725q0 -303 98 -485q109 -201 307 -201q199 0 307 201q99 182 99 485t-99 487q-109 203 -307 203q-199 0 -307 -203 q-98 -184 -98 -487zM717 1571l188 301h291l-367 -301h-112z" />
<glyph unicode="&#xd4;" horiz-adv-x="1720" d="M88 725q0 354 227 567q213 203 545 203t547 -203q225 -213 225 -567t-225 -565q-215 -201 -547 -201t-545 201q-227 211 -227 565zM455 725q0 -303 98 -485q109 -201 307 -201q199 0 307 201q99 182 99 485t-99 487q-109 203 -307 203q-199 0 -307 -203 q-98 -184 -98 -487zM561 1540l213 266h172l213 -247l-67 -43l-232 147l-225 -147z" />
<glyph unicode="&#xd5;" horiz-adv-x="1720" d="M88 725q0 354 227 567q213 203 545 203t547 -203q225 -213 225 -567t-225 -565q-215 -201 -547 -201t-545 201q-227 211 -227 565zM455 725q0 -303 98 -485q109 -201 307 -201q199 0 307 201q99 182 99 485t-99 487q-109 203 -307 203q-199 0 -307 -203 q-98 -184 -98 -487zM481 1577q47 276 205 276q41 0 142.5 -80.5t146.5 -80.5q88 0 108 143h52q-4 -98 -45 -178q-51 -100 -138 -101q-45 0 -146 81t-155 81q-111 0 -110 -141h-60z" />
<glyph unicode="&#xd6;" horiz-adv-x="1720" d="M88 725q0 354 227 567q213 203 545 203t547 -203q225 -213 225 -567t-225 -565q-215 -201 -547 -201t-545 201q-227 211 -227 565zM455 725q0 -303 98 -485q109 -201 307 -201q199 0 307 201q99 182 99 485t-99 487q-109 203 -307 203q-199 0 -307 -203 q-98 -184 -98 -487zM586 1632q0 35 25.5 63.5t60.5 28.5q41 0 69.5 -28.5t28.5 -67.5q0 -37 -24.5 -63.5t-61.5 -26.5q-35 0 -66.5 30.5t-31.5 63.5zM924 1630q0 37 26.5 66.5t63.5 29.5q39 0 66.5 -27.5t27.5 -66.5q0 -37 -26.5 -64.5t-63.5 -27.5q-35 0 -64.5 27.5 t-29.5 62.5z" />
<glyph unicode="&#xd7;" horiz-adv-x="1228" d="M141 805l150 149l323 -325l320 319l147 -147l-319 -320l325 -323l-149 -150l-324 326l-319 -320l-148 148l320 319z" />
<glyph unicode="&#xd8;" horiz-adv-x="1720" d="M88 725q0 354 227 567q213 203 545 203q295 0 508 -168l191 201l63 -64l-188 -198q198 -211 198 -541q0 -354 -225 -565q-215 -201 -547 -201q-299 0 -506 166l-190 -203l-66 66l189 198q-199 209 -199 539zM455 725q0 -178 37 -324l706 746q-106 268 -338 268 q-199 0 -307 -203q-98 -184 -98 -487zM524 303q104 -264 336 -264q199 0 307 201q99 182 99 485q0 180 -37 324z" />
<glyph unicode="&#xd9;" horiz-adv-x="1679" d="M74 1403v51h696v-51q-96 0 -134 -46t-38 -145v-858q0 -141 104 -223q96 -76 238 -76q170 0 290 124t120 298v735q0 92 -31 136q-41 55 -148 55v51h445v-51q-109 0 -152 -49q-35 -41 -34 -142v-735q0 -254 -166 -393q-150 -125 -387 -125q-268 0 -431 107 q-176 117 -176 325v821q0 190 -196 191zM618 1747q0 43 30 73.5t73 30.5q47 0 92 -49l213 -233l-25 -33l-233 90q-82 31 -96 41q-53 31 -54 80z" />
<glyph unicode="&#xda;" horiz-adv-x="1679" d="M74 1403v51h696v-51q-96 0 -134 -46t-38 -145v-858q0 -141 104 -223q96 -76 238 -76q170 0 290 124t120 298v735q0 92 -31 136q-41 55 -148 55v51h445v-51q-109 0 -152 -49q-35 -41 -34 -142v-735q0 -254 -166 -393q-150 -125 -387 -125q-268 0 -431 107 q-176 117 -176 325v821q0 190 -196 191zM760 1565l188 301h291l-367 -301h-112z" />
<glyph unicode="&#xdb;" horiz-adv-x="1679" d="M74 1403v51h696v-51q-96 0 -134 -46t-38 -145v-858q0 -141 104 -223q96 -76 238 -76q170 0 290 124t120 298v735q0 92 -31 136q-41 55 -148 55v51h445v-51q-109 0 -152 -49q-35 -41 -34 -142v-735q0 -254 -166 -393q-150 -125 -387 -125q-268 0 -431 107 q-176 117 -176 325v821q0 190 -196 191zM594 1561l213 266h172l213 -248l-68 -43l-231 147l-225 -147z" />
<glyph unicode="&#xdc;" horiz-adv-x="1679" d="M74 1403v51h696v-51q-96 0 -134 -46t-38 -145v-858q0 -141 104 -223q96 -76 238 -76q170 0 290 124t120 298v735q0 92 -31 136q-41 55 -148 55v51h445v-51q-109 0 -152 -49q-35 -41 -34 -142v-735q0 -254 -166 -393q-150 -125 -387 -125q-268 0 -431 107 q-176 117 -176 325v821q0 190 -196 191zM668 1632q0 35 25.5 63.5t60.5 28.5q41 0 69.5 -28.5t28.5 -67.5q0 -37 -24.5 -63.5t-61.5 -26.5q-35 0 -66.5 30.5t-31.5 63.5zM1006 1630q0 37 26.5 66.5t63.5 29.5q39 0 66.5 -27.5t27.5 -66.5q0 -37 -26.5 -64.5t-63.5 -27.5 q-35 0 -64.5 27.5t-29.5 62.5z" />
<glyph unicode="&#xdd;" horiz-adv-x="1474" d="M33 1403v51h641v-51q-90 0 -104.5 -9.5t-14.5 -52.5q0 -39 25 -86l307 -579l262 493q47 88 47 148q0 86 -158 86v51h416v-51q-63 0 -100 -37q-25 -27 -80 -129l-344 -641v-354q0 -190 211 -191v-51h-746v51q207 0 207 191v303l-383 729q-68 129 -186 129zM612 1552 l193 215q61 68 110 68q41 0 73 -31.5t32 -72.5q0 -47 -39 -74q-14 -8 -82 -35l-264 -102z" />
<glyph unicode="&#xde;" horiz-adv-x="1392" d="M55 0v51q207 0 207 191v948q0 100 -35 149q-47 63 -172 64v51h721v-51q-186 0 -186 -178v-78h207q260 0 404.5 -98t144.5 -291q0 -406 -619 -406q-88 0 -137 6v-116q0 -102 35 -142q39 -49 151 -49v-51h-721zM590 440h123q276 1 276 320q0 313 -260 313h-139v-633z" />
<glyph unicode="&#xdf;" horiz-adv-x="1300" d="M39 909v97h147v16q0 201 131.5 327t348.5 126q168 0 297 -89q137 -96 137 -237q0 -98 -52.5 -171t-144.5 -97q-113 -29 -112 -72q0 -41 155 -96q301 -104 301 -383q0 -145 -123 -251t-268 -106q-106 0 -164 54q-23 20 -37 20t-39 -47h-45v352h64q16 -147 59 -215 q49 -80 148 -80q66 0 121 50.5t55 115.5q0 96 -117 172q-106 59 -213 121q-117 76 -117 180q0 82 121 190.5t119 243.5q0 104 -45 179q-51 84 -137 84q-160 0 -160 -236v-1157h-422v63q139 0 139 140v706h-147z" />
<glyph unicode="&#xe0;" d="M66 168q0 225 514 440v154q0 174 -138 174q-139 0 -139 -84q0 -29 33 -61.5t33 -92.5q0 -49 -44 -78.5t-102 -29.5q-63 0 -107 38t-44 105q0 123 153 211q141 80 312 80q127 0 219 -66q102 -74 102 -190v-541q0 -115 66 -114q35 0 57 28l29 -18q-29 -68 -95 -113 q-72 -51 -151 -51q-152 0 -184 172q-201 -172 -314 -172q-84 0 -142 61.5t-58 147.5zM158 1386h291l188 -301h-113zM360 264q0 -113 107 -112q66 0 113 53v323q-106 -43 -163 -114.5t-57 -149.5z" />
<glyph unicode="&#xe1;" d="M66 168q0 225 514 440v154q0 174 -138 174q-139 0 -139 -84q0 -29 33 -61.5t33 -92.5q0 -49 -44 -78.5t-102 -29.5q-63 0 -107 38t-44 105q0 123 153 211q141 80 312 80q127 0 219 -66q102 -74 102 -190v-541q0 -115 66 -114q35 0 57 28l29 -18q-29 -68 -95 -113 q-72 -51 -151 -51q-152 0 -184 172q-201 -172 -314 -172q-84 0 -142 61.5t-58 147.5zM360 264q0 -113 107 -112q66 0 113 53v323q-106 -43 -163 -114.5t-57 -149.5zM373 1104l188 301h291l-367 -301h-112z" />
<glyph unicode="&#xe2;" d="M66 168q0 225 514 440v154q0 174 -138 174q-139 0 -139 -84q0 -29 33 -61.5t33 -92.5q0 -49 -44 -78.5t-102 -29.5q-63 0 -107 38t-44 105q0 123 153 211q141 80 312 80q127 0 219 -66q102 -74 102 -190v-541q0 -115 66 -114q35 0 57 28l29 -18q-29 -68 -95 -113 q-72 -51 -151 -51q-152 0 -184 172q-201 -172 -314 -172q-84 0 -142 61.5t-58 147.5zM213 1108l213 266h172l213 -248l-68 -43l-231 148l-225 -148zM360 264q0 -113 107 -112q66 0 113 53v323q-106 -43 -163 -114.5t-57 -149.5z" />
<glyph unicode="&#xe3;" d="M66 168q0 225 514 440v154q0 174 -138 174q-139 0 -139 -84q0 -29 33 -61.5t33 -92.5q0 -49 -44 -78.5t-102 -29.5q-63 0 -107 38t-44 105q0 123 153 211q141 80 312 80q127 0 219 -66q102 -74 102 -190v-541q0 -115 66 -114q35 0 57 28l29 -18q-29 -68 -95 -113 q-72 -51 -151 -51q-152 0 -184 172q-201 -172 -314 -172q-84 0 -142 61.5t-58 147.5zM147 1143q47 276 205 276q41 0 142.5 -81t146.5 -81q88 0 109 144h51q-4 -98 -45 -178q-51 -100 -138 -101q-45 0 -146 81t-155 81q-111 0 -110 -141h-60zM360 264q0 -113 107 -112 q66 0 113 53v323q-106 -43 -163 -114.5t-57 -149.5z" />
<glyph unicode="&#xe4;" d="M66 168q0 225 514 440v154q0 174 -138 174q-139 0 -139 -84q0 -29 33 -61.5t33 -92.5q0 -49 -44 -78.5t-102 -29.5q-63 0 -107 38t-44 105q0 123 153 211q141 80 312 80q127 0 219 -66q102 -74 102 -190v-541q0 -115 66 -114q35 0 57 28l29 -18q-29 -68 -95 -113 q-72 -51 -151 -51q-152 0 -184 172q-201 -172 -314 -172q-84 0 -142 61.5t-58 147.5zM256 1200q0 35 25.5 63.5t60.5 28.5q41 0 69.5 -28.5t28.5 -67.5q0 -37 -24.5 -63.5t-61.5 -26.5q-35 0 -66.5 30.5t-31.5 63.5zM360 264q0 -113 107 -112q66 0 113 53v323 q-106 -43 -163 -114.5t-57 -149.5zM594 1198q0 37 26.5 66.5t63.5 29.5q39 0 66.5 -27.5t27.5 -66.5q0 -37 -26.5 -64.5t-63.5 -27.5q-35 0 -64.5 27.5t-29.5 62.5z" />
<glyph unicode="&#xe5;" d="M66 168q0 225 514 440v154q0 174 -138 174q-139 0 -139 -84q0 -29 33 -61.5t33 -92.5q0 -49 -44 -78.5t-102 -29.5q-63 0 -107 38t-44 105q0 123 153 211q141 80 312 80q127 0 219 -66q102 -74 102 -190v-541q0 -115 66 -114q35 0 57 28l29 -18q-29 -68 -95 -113 q-72 -51 -151 -51q-152 0 -184 172q-201 -172 -314 -172q-84 0 -142 61.5t-58 147.5zM332 1284q0 70 48 118t120 48q70 0 119 -50t49 -120t-49.5 -117t-120.5 -47q-68 0 -117 50.5t-49 117.5zM360 264q0 -113 107 -112q66 0 113 53v323q-106 -43 -163 -114.5t-57 -149.5z M424 1270q23 -63 72 -64q31 0 55 23.5t24 54.5t-21.5 53.5t-51.5 22.5q-35 0 -56.5 -27.5t-21.5 -62.5z" />
<glyph unicode="&#xe6;" horiz-adv-x="1331" d="M51 160q0 143 187 278q53 37 303 172v138q0 182 -127 182q-43 0 -78 -21q-41 -23 -47 -61q0 -12 24.5 -63.5t24.5 -73.5q0 -53 -40 -86t-95 -33q-57 0 -94 37t-37 94q0 125 135 209q119 74 252 74q129 0 248 -95q88 92 192 93q176 0 283 -154q94 -136 100 -322h-481v-10 q0 -137 53 -244q68 -133 190 -133q125 0 207 140l21 -33v-2q0 -23 -27 -68q-133 -219 -340 -219q-94 0 -170 55q-53 39 -123 131q-53 -84 -143 -135t-190 -51q-98 0 -160 51q-68 53 -68 150zM338 246q0 -147 92 -148q54 1 111 62v372q-115 -55 -154 -108q-49 -61 -49 -178z M793 760q0 -27 2 -82v-82h225q0 14 2 43v41q0 86 -23 160q-31 104 -92 104q-115 0 -114 -184z" />
<glyph unicode="&#xe7;" horiz-adv-x="901" d="M49 467q0 225 123 383q133 174 354 174q127 0 228 -63q109 -70 108 -173q0 -53 -38 -94t-91 -41q-68 0 -108 64q-39 55 -39 131q0 41 -30 69.5t-67 28.5q-166 0 -165 -364q0 -190 77 -320q86 -141 228 -141q113 0 221 102l27 -30q-147 -205 -336 -230l-21 -49q14 2 41 2 q43 0 69.5 -33t26.5 -78q0 -74 -57 -120.5t-131 -46.5q-86 0 -203 38l60 82q70 -31 139 -30q84 0 84 59q0 49 -51 49q2 0 -127 -24l63 149q-172 20 -280 168q-104 141 -105 338z" />
<glyph unicode="&#xe8;" horiz-adv-x="942" d="M51 487q0 211 119 369q127 168 317 168q166 0 281 -137q109 -131 109 -307q0 -33 -5 -54h-540q0 -117 71 -241q86 -150 211 -150q119 0 220 164l40 -25q-47 -129 -147 -217q-115 -98 -254 -98q-188 0 -309 166q-113 154 -113 362zM158 1399h291l188 -301h-113zM322 598 h294v107q0 100 -30 165q-39 82 -115 82q-150 0 -149 -354z" />
<glyph unicode="&#xe9;" horiz-adv-x="942" d="M51 487q0 211 119 369q127 168 317 168q166 0 281 -137q109 -131 109 -307q0 -33 -5 -54h-540q0 -117 71 -241q86 -150 211 -150q119 0 220 164l40 -25q-47 -129 -147 -217q-115 -98 -254 -98q-188 0 -309 166q-113 154 -113 362zM322 598h294v107q0 100 -30 165 q-39 82 -115 82q-150 0 -149 -354zM377 1098l188 301h291l-367 -301h-112z" />
<glyph unicode="&#xea;" horiz-adv-x="942" d="M51 487q0 211 119 369q127 168 317 168q166 0 281 -137q109 -131 109 -307q0 -33 -5 -54h-540q0 -117 71 -241q86 -150 211 -150q119 0 220 164l40 -25q-47 -129 -147 -217q-115 -98 -254 -98q-188 0 -309 166q-113 154 -113 362zM172 1108l213 266h172l213 -248l-68 -43 l-231 148l-225 -148zM322 598h294v107q0 100 -30 165q-39 82 -115 82q-150 0 -149 -354z" />
<glyph unicode="&#xeb;" horiz-adv-x="942" d="M51 487q0 211 119 369q127 168 317 168q166 0 281 -137q109 -131 109 -307q0 -33 -5 -54h-540q0 -117 71 -241q86 -150 211 -150q119 0 220 164l40 -25q-47 -129 -147 -217q-115 -98 -254 -98q-188 0 -309 166q-113 154 -113 362zM215 1200q0 35 25.5 63.5t60.5 28.5 q41 0 69.5 -28.5t28.5 -67.5q0 -37 -24.5 -63.5t-61.5 -26.5q-35 0 -66.5 30.5t-31.5 63.5zM322 598h294v107q0 100 -30 165q-39 82 -115 82q-150 0 -149 -354zM553 1198q0 37 26.5 66.5t63.5 29.5q39 0 66.5 -27.5t27.5 -66.5q0 -37 -26.5 -64.5t-63.5 -27.5 q-35 0 -64.5 27.5t-29.5 62.5z" />
<glyph unicode="&#xec;" horiz-adv-x="614" d="M-14 1401h290l189 -301h-113zM51 928v55h400v-821q0 -111 118 -111v-51h-516v51q119 0 119 111v659q0 49 -30.5 78t-90.5 29z" />
<glyph unicode="&#xed;" horiz-adv-x="614" d="M51 928v55h400v-821q0 -111 118 -111v-51h-516v51q119 0 119 111v659q0 49 -30.5 78t-90.5 29zM145 1087l189 302h291l-367 -302h-113z" />
<glyph unicode="&#xee;" horiz-adv-x="614" d="M8 1108l213 266h172l213 -248l-67 -43l-232 148l-225 -148zM51 928v55h400v-821q0 -111 118 -111v-51h-516v51q119 0 119 111v659q0 49 -30.5 78t-90.5 29z" />
<glyph unicode="&#xef;" horiz-adv-x="614" d="M43 1200q0 35 25.5 63.5t60.5 28.5q41 0 69.5 -28.5t28.5 -67.5q0 -37 -24.5 -63.5t-61.5 -26.5q-35 0 -66.5 30.5t-31.5 63.5zM51 928v55h400v-821q0 -111 118 -111v-51h-516v51q119 0 119 111v659q0 49 -30.5 78t-90.5 29zM381 1198q0 37 26.5 66.5t63.5 29.5 q39 0 66.5 -27.5t27.5 -66.5q0 -37 -26.5 -64.5t-63.5 -27.5q-35 0 -64.5 27.5t-29.5 62.5z" />
<glyph unicode="&#xf0;" d="M49 477q0 225 125 376t338 151q76 0 110.5 -8.5t86.5 -43.5q0 150 -86 281l-248 -127l-49 90l229 117q-109 104 -211 104q-135 0 -229 -112l-60 92q57 63 160 102q90 33 166 33q186 0 334 -137l145 73l49 -90l-123 -63q189 -243 189 -653q0 -367 -101 -533 q-109 -176 -362 -176q-213 0 -340 153q-123 145 -123 371zM332 477q0 -223 28 -317q39 -131 152 -131t152 131q28 94 28 317t-28 318q-39 131 -152 131t-152 -131q-29 -94 -28 -318z" />
<glyph unicode="&#xf1;" horiz-adv-x="1126" d="M41 928v55h399v-111q127 152 281 152q113 0 176 -68q68 -74 68 -208v-586q0 -111 102 -111v-51h-463v51q82 0 82 111v571q0 137 -100 137q-68 0 -146 -102v-606q0 -111 86 -111v-51h-471v51q106 0 107 111v659q0 49 -31 78t-90 29zM147 1143q47 276 205 276 q41 0 142.5 -81t146.5 -81q88 0 109 144h51q-4 -98 -45 -178q-51 -100 -138 -101q-45 0 -146 81t-155 81q-111 0 -110 -141h-60z" />
<glyph unicode="&#xf2;" d="M49 477q0 225 125 376t338 151t338 -151t125 -376t-123 -371q-127 -154 -340 -153q-213 0 -340 153q-123 145 -123 371zM143 1401h291l189 -301h-113zM332 477q0 -223 28 -317q39 -131 152 -131t152 131q28 94 28 317t-28 318q-39 131 -152 131t-152 -131 q-29 -94 -28 -318z" />
<glyph unicode="&#xf3;" d="M49 477q0 225 125 376t338 151t338 -151t125 -376t-123 -371q-127 -154 -340 -153q-213 0 -340 153q-123 145 -123 371zM332 477q0 -223 28 -317q39 -131 152 -131t152 131q28 94 28 317t-28 318q-39 131 -152 131t-152 -131q-29 -94 -28 -318zM377 1087l188 302h291 l-367 -302h-112z" />
<glyph unicode="&#xf4;" d="M49 477q0 225 125 376t338 151t338 -151t125 -376t-123 -371q-127 -154 -340 -153q-213 0 -340 153q-123 145 -123 371zM213 1108l213 266h172l213 -248l-68 -43l-231 148l-225 -148zM332 477q0 -223 28 -317q39 -131 152 -131t152 131q28 94 28 317t-28 318 q-39 131 -152 131t-152 -131q-29 -94 -28 -318z" />
<glyph unicode="&#xf5;" d="M49 477q0 225 125 376t338 151t338 -151t125 -376t-123 -371q-127 -154 -340 -153q-213 0 -340 153q-123 145 -123 371zM147 1143q47 276 205 276q41 0 142.5 -81t146.5 -81q88 0 109 144h51q-4 -98 -45 -178q-51 -100 -138 -101q-45 0 -146 81t-155 81q-111 0 -110 -141 h-60zM332 477q0 -223 28 -317q39 -131 152 -131t152 131q28 94 28 317t-28 318q-39 131 -152 131t-152 -131q-29 -94 -28 -318z" />
<glyph unicode="&#xf6;" d="M49 477q0 225 125 376t338 151t338 -151t125 -376t-123 -371q-127 -154 -340 -153q-213 0 -340 153q-123 145 -123 371zM250 1200q0 35 25.5 63.5t60.5 28.5q41 0 69.5 -28.5t28.5 -67.5q0 -37 -24.5 -63.5t-61.5 -26.5q-35 0 -66.5 30.5t-31.5 63.5zM332 477 q0 -223 28 -317q39 -131 152 -131t152 131q28 94 28 317t-28 318q-39 131 -152 131t-152 -131q-29 -94 -28 -318zM588 1198q0 37 26.5 66.5t63.5 29.5q39 0 66.5 -27.5t27.5 -66.5q0 -37 -26.5 -64.5t-63.5 -27.5q-35 0 -64.5 27.5t-29.5 62.5z" />
<glyph unicode="&#xf7;" horiz-adv-x="1228" d="M141 375v209h946v-209h-946zM469 74q0 59 43 102t102 43t102.5 -43t43.5 -102t-43 -102.5t-103 -43.5q-59 0 -102 43t-43 103zM469 885q0 59 43 102t102 43t102.5 -43t43.5 -102t-43 -102.5t-103 -43.5q-59 0 -102 43t-43 103z" />
<glyph unicode="&#xf8;" d="M8 -43l148 168q-106 141 -107 352q0 225 125 376t338 151q184 0 311 -123l144 161l53 -49l-148 -168q102 -143 103 -348q0 -225 -123 -371q-127 -154 -340 -153q-184 0 -305 117l-144 -162zM332 477q0 -102 4 -149l344 391q-31 207 -168 207q-113 0 -152 -131 q-29 -94 -28 -318zM344 227q33 -199 168 -198q113 0 152 131q28 94 28 317q0 96 -2 141z" />
<glyph unicode="&#xf9;" horiz-adv-x="1064" d="M20 932v51h381v-729q0 -137 101 -137q70 0 145 114v590q0 111 -86 111v51h365v-821q0 -49 30.5 -78t90.5 -29v-55h-400v127q-139 -168 -280 -168q-113 0 -178.5 71.5t-65.5 209.5v581q0 111 -103 111zM139 1407h291l188 -301h-112z" />
<glyph unicode="&#xfa;" horiz-adv-x="1064" d="M20 932v51h381v-729q0 -137 101 -137q70 0 145 114v590q0 111 -86 111v51h365v-821q0 -49 30.5 -78t90.5 -29v-55h-400v127q-139 -168 -280 -168q-113 0 -178.5 71.5t-65.5 209.5v581q0 111 -103 111zM385 1087l188 302h291l-366 -302h-113z" />
<glyph unicode="&#xfb;" horiz-adv-x="1064" d="M20 932v51h381v-729q0 -137 101 -137q70 0 145 114v590q0 111 -86 111v51h365v-821q0 -49 30.5 -78t90.5 -29v-55h-400v127q-139 -168 -280 -168q-113 0 -178.5 71.5t-65.5 209.5v581q0 111 -103 111zM213 1108l213 266h172l213 -248l-68 -43l-231 148l-225 -148z" />
<glyph unicode="&#xfc;" horiz-adv-x="1064" d="M20 932v51h381v-729q0 -137 101 -137q70 0 145 114v590q0 111 -86 111v51h365v-821q0 -49 30.5 -78t90.5 -29v-55h-400v127q-139 -168 -280 -168q-113 0 -178.5 71.5t-65.5 209.5v581q0 111 -103 111zM215 1200q0 35 25.5 63.5t60.5 28.5q41 0 69.5 -28.5t28.5 -67.5 q0 -37 -24.5 -63.5t-61.5 -26.5q-35 0 -66.5 30.5t-31.5 63.5zM553 1198q0 37 26.5 66.5t63.5 29.5q39 0 66.5 -27.5t27.5 -66.5q0 -37 -26.5 -64.5t-63.5 -27.5q-35 0 -64.5 27.5t-29.5 62.5z" />
<glyph unicode="&#xfd;" horiz-adv-x="1003" d="M18 932v51h502v-51q-84 0 -84 -43q0 -12 23 -72l174 -459l129 404q14 45 14 96q0 74 -100 74v51h313v-51q-61 0 -94 -37q-25 -27 -47 -96l-332 -1006q-66 -197 -246 -196q-78 0 -129 46t-51 115q0 63 37 109.5t98 46.5q109 0 109 -135q0 -55 28 -55q25 0 53.5 33.5 t41.5 74.5l32 117l-366 923q-16 39 -35.5 49.5t-69.5 10.5zM387 1126l193 215q61 68 110 68q41 0 73 -31.5t32 -72.5q0 -47 -39 -74q-14 -8 -82 -35l-264 -102z" />
<glyph unicode="&#xfe;" horiz-adv-x="1085" d="M59 1399v55h400v-588q82 143 217 144q164 0 262 -166q86 -145 88 -348q2 -207 -96 -363q-109 -174 -279 -174q-123 0 -192 98v-270q0 -111 143 -111v-51h-541v51q119 0 119 111v1505q0 49 -30.5 78t-90.5 29zM459 193q53 -121 145 -121q86 0 111 172q10 67 10 237 q0 391 -129 391q-61 0 -99 -62t-38 -140v-477z" />
<glyph unicode="&#xff;" horiz-adv-x="1003" d="M18 932v51h502v-51q-84 0 -84 -43q0 -12 23 -72l174 -459l129 404q14 45 14 96q0 74 -100 74v51h313v-51q-61 0 -94 -37q-25 -27 -47 -96l-332 -1006q-66 -197 -246 -196q-78 0 -129 46t-51 115q0 63 37 109.5t98 46.5q109 0 109 -135q0 -55 28 -55q25 0 53.5 33.5 t41.5 74.5l32 117l-366 923q-16 39 -35.5 49.5t-69.5 10.5zM276 1159q0 35 26 63.5t60 28.5q41 0 70 -28.5t29 -67.5q0 -37 -24.5 -63.5t-61.5 -26.5q-35 0 -67 30.5t-32 63.5zM614 1157q0 37 27 66.5t64 29.5q39 0 66.5 -27.5t27.5 -66.5q0 -37 -27 -64.5t-63 -27.5 q-35 0 -65 27.5t-30 62.5z" />
<glyph unicode="&#x152;" horiz-adv-x="2088" d="M53 723q0 299 207 526.5t504 227.5q53 0 163.5 -11.5t166.5 -11.5h874v-227l4 227h10v-403h-40q-8 76 -53.5 154.5t-109 124.5t-167.5 56q-39 4 -182 5h-29v-613h24q221 0 256 336h39q-12 -193 -8 -743h-37q-20 164 -65 233q-66 98 -209 98v-460q0 -96 34.5 -137.5 t129.5 -41.5q360 0 471 367h37l-52 -430h-819q-70 -2 -225 -23q-145 -18 -225 -18q-299 0 -502 236q-197 225 -197 528zM426 688q0 -647 342 -647q182 0 252 164q49 115 49 336v94q-2 59 -2 82q0 315 -25 424q-59 264 -270 264q-346 0 -346 -717z" />
<glyph unicode="&#x153;" horiz-adv-x="1576" d="M51 479q0 213 127 365q133 160 340 160q164 0 326 -127q131 127 284 127q178 0 293 -140q107 -129 107 -311q0 -23 -2 -35h-565q16 -137 86 -250q86 -137 208 -137q76 0 138 51q37 31 94 113l39 -21q-53 -137 -160 -223q-117 -92 -256 -92q-162 0 -276 121 q-133 -121 -312 -121q-211 0 -344 158q-127 147 -127 362zM342 479q0 -197 14 -266q33 -176 156 -176q125 0 166 188q20 92 20 285q0 180 -18 260q-39 164 -160 164q-125 0 -162 -180q-16 -78 -16 -275zM961 586h301q4 57 4 84q0 96 -29 168q-41 96 -123 96 q-104 0 -137 -135q-16 -66 -16 -213z" />
<glyph unicode="&#x178;" horiz-adv-x="1474" d="M33 1403v51h641v-51q-90 0 -104.5 -9.5t-14.5 -52.5q0 -39 25 -86l307 -579l262 493q47 88 47 148q0 86 -158 86v51h416v-51q-63 0 -100 -37q-25 -27 -80 -129l-344 -641v-354q0 -190 211 -191v-51h-746v51q207 0 207 191v303l-383 729q-68 129 -186 129zM489 1632 q0 35 26 63.5t60 28.5q41 0 70 -27.5t29 -68.5q0 -35 -24.5 -62.5t-59.5 -27.5t-68 30.5t-33 63.5zM827 1630q0 37 27 66.5t64 29.5q39 0 67.5 -27.5t28.5 -66.5q0 -37 -26.5 -64.5t-63.5 -27.5t-67 27.5t-30 62.5z" />
<glyph unicode="&#x2c6;" horiz-adv-x="681" d="M43 1141l211 266h172l213 -248l-68 -43l-229 148l-227 -148z" />
<glyph unicode="&#x2dc;" horiz-adv-x="681" d="M14 1126q47 276 205 277q41 0 142.5 -81t146.5 -81q88 0 108 143h52q-4 -98 -45 -178q-51 -100 -138 -100q-45 0 -146 81t-155 81q-111 0 -110 -142h-60z" />
<glyph unicode="&#x2000;" horiz-adv-x="945" />
<glyph unicode="&#x2001;" horiz-adv-x="1890" />
<glyph unicode="&#x2002;" horiz-adv-x="945" />
<glyph unicode="&#x2003;" horiz-adv-x="1890" />
<glyph unicode="&#x2004;" horiz-adv-x="630" />
<glyph unicode="&#x2005;" horiz-adv-x="472" />
<glyph unicode="&#x2006;" horiz-adv-x="315" />
<glyph unicode="&#x2007;" horiz-adv-x="315" />
<glyph unicode="&#x2008;" horiz-adv-x="236" />
<glyph unicode="&#x2009;" horiz-adv-x="378" />
<glyph unicode="&#x200a;" horiz-adv-x="105" />
<glyph unicode="&#x2010;" horiz-adv-x="696" d="M61 389v205h574v-205h-574z" />
<glyph unicode="&#x2011;" horiz-adv-x="696" d="M61 389v205h574v-205h-574z" />
<glyph unicode="&#x2012;" horiz-adv-x="696" d="M61 389v205h574v-205h-574z" />
<glyph unicode="&#x2013;" horiz-adv-x="1105" d="M61 420v143h983v-143h-983z" />
<glyph unicode="&#x2014;" horiz-adv-x="2211" d="M61 420v143h2089v-143h-2089z" />
<glyph unicode="&#x2018;" horiz-adv-x="552" d="M90 1077q0 125 90 248q96 133 238 170l18 -31q-102 -49 -164 -137q-55 -80 -55 -153q0 -31 19 -68q49 39 100 39q63 0 103 -50t42 -120q2 -74 -53 -126t-129 -52q-96 0 -156 88q-53 80 -53 192z" />
<glyph unicode="&#x2019;" horiz-adv-x="552" d="M80 1317q-2 74 53 126t129 52q96 0 156 -88q53 -80 53 -193q0 -125 -90 -247q-96 -133 -238 -170l-18 30q102 49 164 138q55 80 55 153q0 43 -18 68q-49 -39 -101 -39q-63 0 -103 50t-42 120z" />
<glyph unicode="&#x201a;" horiz-adv-x="552" d="M94 125q-2 74 53.5 126t128.5 52q96 0 156 -88q53 -79 53 -192q0 -129 -88 -252q-96 -139 -239 -166l-19 30q102 49 164 138q55 80 55 153q0 23 -18 68q-49 -39 -100 -39q-63 0 -103.5 50t-42.5 120z" />
<glyph unicode="&#x201c;" d="M76 1077q0 125 90 248q96 133 237 170l19 -31q-102 -49 -164 -137q-55 -80 -55 -153q0 -43 18 -68q49 39 101 39q63 0 103 -50t42 -120q2 -74 -53.5 -126t-128.5 -52q-96 0 -156 88q-53 80 -53 192zM571 1077q0 125 91 248q96 133 237 170l19 -31q-102 -49 -164 -137 q-55 -80 -56 -153q0 -43 19 -68q49 39 100 39q63 0 103.5 -50t42.5 -120q2 -74 -53.5 -126t-129.5 -52q-96 0 -155 88q-53 80 -54 192z" />
<glyph unicode="&#x201d;" d="M68 1317q-2 74 53 126t129 52q96 0 156 -88q53 -80 53 -193q0 -125 -90 -247q-96 -133 -238 -170l-18 30q102 49 163 138q55 80 56 153q0 43 -19 68q-49 -39 -100 -39q-63 0 -103 50t-42 120zM563 1317q-2 74 53.5 126t128.5 52q96 0 156 -88q53 -80 53 -193 q0 -125 -90 -247q-96 -133 -237 -170l-19 30q102 49 164 138q55 80 55 153q0 43 -18 68q-49 -39 -100 -39q-63 0 -103.5 50t-42.5 120z" />
<glyph unicode="&#x201e;" d="M94 125q-2 74 53.5 126t128.5 52q96 0 156 -88q53 -79 53 -192q0 -129 -88 -252q-96 -139 -239 -166l-19 30q102 49 164 138q55 80 55 153q0 23 -18 68q-49 -39 -100 -39q-63 0 -103.5 50t-42.5 120zM565 125q-2 74 53.5 126t129.5 52q96 0 155 -88q53 -79 53 -192 q0 -129 -88 -252q-96 -139 -239 -166l-19 30q102 49 164 138q55 80 55 153q0 23 -18 68q-49 -39 -100 -39q-63 0 -103.5 50t-42.5 120z" />
<glyph unicode="&#x2022;" d="M160 705q0 145 103.5 248.5t248.5 103.5t248.5 -103.5t103.5 -248.5t-103.5 -249t-248.5 -104t-248.5 103.5t-103.5 249.5z" />
<glyph unicode="&#x2026;" horiz-adv-x="2048" d="M213 86q0 53 38 90t89 37t89 -37t38 -90t-37 -90t-88 -37q-53 0 -91 38t-38 89zM895 86q0 53 38 90t89 37t89 -37t38 -90t-37 -90t-88 -37q-53 0 -91 38t-38 89zM1577 86q0 53 38 90t89 37q53 0 91 -38t38 -89t-37 -89t-90 -38t-91 38t-38 89z" />
<glyph unicode="&#x202f;" horiz-adv-x="378" />
<glyph unicode="&#x2039;" horiz-adv-x="655" d="M59 489q156 160 453 486h84q-113 -227 -123 -248q-76 -143 -147 -233q55 -72 137 -236q63 -127 125 -252h-84q-223 262 -445 483z" />
<glyph unicode="&#x203a;" horiz-adv-x="655" d="M61 979h86q230 -264 447 -485q-254 -256 -449 -492l-79 6q117 229 256 473q-61 86 -136 246q-92 195 -125 252z" />
<glyph unicode="&#x205f;" horiz-adv-x="472" />
<glyph unicode="&#x2122;" horiz-adv-x="1269" d="M47 1331v123h434v-123h-28q0 84 -93 84h-45v-362q0 -63 64 -64v-28h-236v28q70 0 70 64v362h-47q-92 0 -92 -84h-27zM545 961v28q55 0 55 64v309q0 66 -53 65v27h160l157 -334l152 334h176v-27q-33 10 -55 -16q-8 -10 -9 -45v-313q0 -63 64 -64v-28h-246v28q70 0 70 64 v307l-185 -404l-196 410v-313q0 -63 67 -64v-28h-157z" />
<glyph unicode="&#xe000;" horiz-adv-x="983" d="M0 0v983h983v-983h-983z" />
</font>
</defs>
</svg>
