<?xml version="1.0" standalone="no"?>
<!DOCTYPE svg PUBLIC "-//W3C//DTD SVG 1.1//EN" "http://www.w3.org/Graphics/SVG/1.1/DTD/svg11.dtd" >
<svg xmlns="http://www.w3.org/2000/svg">
<metadata></metadata>
<defs>
<font id="timestpcitalic" horiz-adv-x="1105" >
<font-face units-per-em="2048" ascent="1638" descent="-410" />
<missing-glyph horiz-adv-x="552" />
<glyph horiz-adv-x="2048" />
<glyph horiz-adv-x="2048" />
<glyph unicode="&#xd;" horiz-adv-x="552" />
<glyph unicode=" "  horiz-adv-x="552" />
<glyph unicode="&#x09;" horiz-adv-x="552" />
<glyph unicode="&#xa0;" horiz-adv-x="552" />
<glyph unicode="!" horiz-adv-x="552" d="M90 68q0 47 33 78.5t78 31.5q47 0 78.5 -31.5t31.5 -78.5q0 -45 -32.5 -77t-77.5 -32t-78 32t-33 77zM256 360l47 234q86 432 113 643q33 274 143 274q35 0 58.5 -34.5t23.5 -75.5q0 -92 -78 -258q-119 -256 -203 -568l-57 -215h-47z" />
<glyph unicode="&#x22;" horiz-adv-x="747" d="M348 911l33 406q2 27 8 80q8 39 40 68.5t69 29.5q66 0 65 -76q1 -24 -26 -102l-140 -406h-49zM653 911l33 406q2 27 8 80q8 39 40 68.5t69 29.5q66 0 65 -76q1 -24 -26 -102l-140 -406h-49z" />
<glyph unicode="#" horiz-adv-x="1146" d="M156 455v157h225l51 240h-276v158h311l94 442h94l-94 -442h301l94 442h95l-95 -442h189v-158h-221l-52 -240h273v-157h-307l-97 -455h-94l96 455h-301l-96 -455h-94l96 455h-192zM477 612h299l51 240h-299z" />
<glyph unicode="$" d="M96 86q53 178 72 320l47 -15q-12 -51 -12 -94q0 -199 176 -258l192 696q-125 98 -178 172q-82 111 -82 250q0 156 114 262.5t273 106.5q47 0 90 -6l27 92h72q-14 -53 -31 -107q113 -33 219 -131q-12 -41 -35 -129q-10 -47 -24 -143h-53q4 25 4 65q0 197 -131 258 l-150 -536q150 -123 201 -189q96 -125 96 -280q0 -219 -166 -348q-152 -119 -375 -119h-14l-33 -117h-71l34 125q-133 25 -262 125zM446 23q41 -4 62 -5q137 0 234.5 97.5t97.5 234.5q0 174 -209 338q-49 -178 -185 -665zM473 1204q0 -133 154 -268q39 139 141 510 q-37 4 -59 4q-106 0 -171 -70.5t-65 -175.5z" />
<glyph unicode="%" horiz-adv-x="1699" d="M233 893q0 135 51.5 271t133.5 225q100 106 217 106q127 0 188 -98q51 -80 51 -211q0 -178 -76.5 -344t-195.5 -236q-63 -37 -135 -37q-233 0 -234 324zM369 776q0 -156 100 -155q61 0 96 53q55 86 109 274q59 205 59 352q0 145 -92 146q-43 0 -76 -29q-72 -59 -135 -291 q-61 -213 -61 -350zM444 -10l885 1507l51 -31l-884 -1507zM975 283q0 135 51 271t133 224q100 106 217 107q127 0 189 -99q51 -80 51 -211q0 -178 -77 -343.5t-196 -235.5q-63 -37 -135 -37q-233 0 -233 324zM1110 166q0 -156 100 -156q61 0 97 53q55 86 108 275 q60 205 60 352q0 145 -93 146q-43 0 -75 -29q-72 -59 -136 -291q-61 -213 -61 -350z" />
<glyph unicode="&#x26;" horiz-adv-x="1536" d="M84 319q0 225 176 373q106 88 375 201q-4 74 -4 104q0 203 86 351q100 166 270 165q90 0 160 -65.5t70 -155.5q0 -141 -117 -241q-82 -70 -271 -152q47 -317 150 -553q147 205 147 311q0 49 -65 91l10 45h381l-14 -56q-35 -8 -107 -37q-61 -35 -123 -137 q-104 -174 -196 -284q119 -225 258 -226q78 0 149 84l39 -24q-90 -152 -280 -152q-172 0 -304 174q-201 -176 -415 -176q-160 0 -264 92q-111 98 -111 268zM297 399q0 -131 76 -219q80 -94 215 -94q119 0 248 104q-156 246 -195 627q-164 -78 -242 -160q-102 -109 -102 -258 zM807 1147q0 -74 12 -172q256 129 256 311q0 55 -29.5 100.5t-76.5 45.5q-86 0 -129 -95q-33 -76 -33 -190z" />
<glyph unicode="'" horiz-adv-x="430" d="M348 911l33 406q2 27 8 80q8 39 39 68.5t68 29.5q68 0 67 -76q1 -24 -26 -102l-140 -406h-49z" />
<glyph unicode="(" horiz-adv-x="634" d="M133 244q0 369 156 688q168 344 493 584l27 -41q-256 -246 -406 -586q-164 -375 -163 -791q0 -244 92 -520l-49 -22q-150 319 -150 688z" />
<glyph unicode=")" horiz-adv-x="634" d="M-106 -393q569 602 569 1386q0 231 -88 502l55 21q141 -359 141 -664q0 -406 -194 -772q-180 -340 -457 -518z" />
<glyph unicode="*" horiz-adv-x="942" d="M246 881q0 63 63 102q59 27 105 31q70 6 127 39l14 8l-12 6q-53 35 -127 41q-55 4 -105 33q-63 37 -63 96q0 20 10 41q25 41 80 41q35 0 68 -16q47 -37 77 -78q41 -55 99 -88l14 -9v15q0 66 -29 131q-25 55 -24 104q0 47 25.5 82t66.5 35t67.5 -35t26.5 -82 q0 -49 -24 -104q-29 -66 -29 -131v-13l12 7q55 37 98 91t77 72.5t69 18.5q55 0 80 -41q10 -18 10 -41q0 -59 -66 -94q-39 -31 -102 -35q-70 -4 -127 -41l-12 -6l14 -8q55 -33 127 -41q53 -6 102 -29q66 -41 66 -100q0 -23 -12 -41q-25 -41 -76 -41q-35 0 -68 20 q-51 31 -84 70q-43 66 -96 92l-12 6v-14q0 -66 29 -131q25 -55 24 -105q0 -47 -26.5 -81.5t-67.5 -34.5t-66.5 34.5t-25.5 81.5q0 49 24 105q29 66 29 131v18l-14 -6q-63 -37 -97 -94q-29 -41 -84 -72q-33 -18 -69 -18q-86 0 -86 78z" />
<glyph unicode="+" horiz-adv-x="1187" d="M47 479v117h490v477h116v-477h494v-117h-494v-479h-116v479h-490z" />
<glyph unicode="," horiz-adv-x="552" d="M41 -246q156 92 156 183q0 29 -45 69q-35 31 -35 82q0 41 28.5 70.5t69.5 29.5q49 0 79 -41t30 -94q0 -104 -93 -207q-72 -82 -165 -127z" />
<glyph unicode="-" horiz-adv-x="614" d="M82 438l27 150h479l-27 -150h-479z" />
<glyph unicode="." horiz-adv-x="552" d="M92 68q0 47 33 78.5t78 31.5q47 0 78.5 -31.5t31.5 -78.5q0 -45 -31.5 -77t-78.5 -32t-79 32t-32 77z" />
<glyph unicode="/" horiz-adv-x="839" d="M55 -4l754 1499l90 -53l-754 -1499z" />
<glyph unicode="0" d="M139 481q0 367 183 680q190 332 446 332q154 0 244 -162q82 -147 82 -364q0 -309 -160 -629q-190 -379 -461 -379q-160 0 -250 147q-84 139 -84 375zM311 324q0 -305 168 -306q170 0 314 396q135 364 135 708q0 309 -174 310q-172 0 -312 -379q-131 -356 -131 -729z" />
<glyph unicode="1" d="M106 0l13 55h41q109 0 157 70q16 23 39 108l258 971q10 39 11 68q0 94 -93 94q-45 0 -96 -20l13 57l417 94l-323 -1243q-16 -63 -17 -98q0 -39 24.5 -68t61.5 -29h74l-16 -59h-564z" />
<glyph unicode="2" d="M31 0q481 467 658 693.5t177 375.5q0 111 -61 184q-68 78 -184 78q-160 0 -252 -139h-33q100 307 379 307q141 0 239.5 -99.5t98.5 -238.5q0 -236 -365 -594l-426 -417h346q109 0 160 32q68 43 102 109h33l-115 -291h-757z" />
<glyph unicode="3" d="M72 92q0 41 34.5 69.5t79.5 28.5q63 0 144 -61q72 -55 153 -55q102 0 164 119q53 102 53 239q0 162 -84 258q-96 106 -280 107l10 51q172 18 309 98q172 102 172 260q0 78 -51 133.5t-127 55.5q-119 0 -203 -121h-32q33 92 124 161.5t201 69.5q115 0 197 -73.5t82 -188.5 q0 -256 -336 -362q197 -137 197 -357q0 -236 -166 -397.5t-414 -161.5q-88 0 -152 31q-76 35 -75 96z" />
<glyph unicode="4" d="M84 410l49 141l873 967h73l-268 -975h186l-36 -133h-187l-112 -410h-173l113 410h-518zM240 543h399l172 628z" />
<glyph unicode="5" d="M123 109q0 37 28.5 63.5t67.5 26.5q63 0 127 -58q53 -47 127 -47q135 0 227 137q84 125 84 289q0 205 -127 320q-119 106 -307 106l207 529h492l-56 -164h-428l-73 -193q188 0 313 -151q119 -145 119 -342q0 -252 -181.5 -450t-402.5 -198q-84 0 -145 31q-72 35 -72 101z " />
<glyph unicode="6" d="M158 479q0 258 157 504q139 221 365 371q219 145 418 159l16 -30q-203 -61 -387 -234q-145 -137 -235 -317q115 53 217 53q147 0 235 -106.5t88 -282.5q0 -231 -156.5 -416.5t-355.5 -185.5q-168 0 -270 149q-92 137 -92 336zM307 344q0 -121 49 -201q55 -90 152 -90 q147 0 244 176q86 158 86 357q0 147 -57.5 234t-162.5 87q-102 0 -196 -98q-115 -240 -115 -465z" />
<glyph unicode="7" d="M252 0l711 1282h-439q-154 0 -229 -143h-37l160 317h741l-827 -1497z" />
<glyph unicode="8" d="M111 313q0 279 415 473q-172 195 -172 353q0 154 106.5 256t272.5 102q147 0 248.5 -86t101.5 -221q0 -141 -98 -234q-70 -68 -231 -135q211 -231 211 -409q0 -188 -138.5 -318.5t-330.5 -130.5q-162 0 -269 90q-117 96 -116 260zM258 291q0 -129 71.5 -196.5 t184.5 -67.5q121 0 205 89t84 212q0 113 -74 225q-43 63 -162 188q-143 -70 -215 -157q-94 -117 -94 -293zM512 1217q0 -86 61 -181q39 -59 140 -170q113 53 166 117q65 82 65 209q0 109 -58.5 180.5t-152.5 71.5q-96 0 -158.5 -66.5t-62.5 -160.5z" />
<glyph unicode="9" d="M115 -12l10 37q240 84 412 254q123 123 200 276q-80 -53 -198 -53q-154 0 -248 127q-86 117 -86 280q0 199 145 389q162 209 379 209q166 0 266 -161q90 -145 90 -338q0 -244 -157 -488q-145 -227 -373.5 -377.5t-439.5 -154.5zM403 895q0 -303 199 -303q111 0 197 74 q137 261 137 497q0 111 -49 189q-55 90 -150 90q-154 0 -250 -180q-84 -160 -84 -367z" />
<glyph unicode=":" horiz-adv-x="552" d="M72 68q0 47 32.5 78.5t77.5 31.5q47 0 79 -31.5t32 -78.5q0 -45 -32 -77t-79 -32t-78.5 32t-31.5 77zM283 899q0 47 32.5 79t77.5 32q47 0 79 -32t32 -79q0 -45 -33 -76.5t-78 -31.5t-77.5 31.5t-32.5 76.5z" />
<glyph unicode=";" horiz-adv-x="552" d="M20 -246q156 92 156 183q0 29 -45 69q-35 31 -35 82q0 41 29 70.5t70 29.5q49 0 78.5 -41t29.5 -94q0 -104 -92 -207q-72 -82 -166 -127zM307 899q0 47 33 79t78 32q47 0 78.5 -32t31.5 -79q0 -45 -32.5 -76.5t-77.5 -31.5t-78 31.5t-33 76.5z" />
<glyph unicode="&#x3c;" horiz-adv-x="1269" d="M117 567v99l1036 479v-127l-856 -402l856 -399v-129z" />
<glyph unicode="=" horiz-adv-x="1187" d="M43 334v117h1102v-117h-1102zM43 631v117h1102v-117h-1102z" />
<glyph unicode="&#x3e;" horiz-adv-x="1269" d="M117 88v129l856 399l-856 402v127l1036 -479v-99z" />
<glyph unicode="?" horiz-adv-x="778" d="M174 68q0 47 33 78.5t78 31.5q47 0 78.5 -31.5t31.5 -78.5q0 -45 -32.5 -77t-77.5 -32t-78 32t-33 77zM317 1251q0 106 91 179q86 66 200 65q139 0 234.5 -90t95.5 -221q0 -145 -90 -254q-57 -70 -189 -154q-139 -88 -202 -188q-51 -80 -86 -230h-47q10 211 274 504 q168 186 168 385q0 82 -41 135q-47 59 -127 60q-47 0 -94 -27q-53 -31 -53 -69q0 -18 18 -57.5t18 -63.5q0 -90 -90 -90q-80 0 -80 116z" />
<glyph unicode="@" horiz-adv-x="1945" d="M135 389q0 428 280.5 711.5t719.5 283.5q338 0 561 -184q229 -190 229 -487q0 -266 -201 -469q-193 -195 -426 -195q-51 0 -94 35t-47 86q-4 39 12 72q-119 -193 -284 -193q-102 0 -158 88q-47 74 -47 185q0 195 125 383q143 219 346 219q133 0 170 -109l27 72h155 l-166 -629q-14 -55 -14 -76q0 -55 70 -55q150 0 301 182q160 188 161 398q2 258 -204 434q-201 170 -473 170q-387 0 -643 -258t-256 -650q0 -356 215 -561q209 -197 557 -196q338 0 594 151l32 -57q-311 -170 -628 -170q-449 0 -689 231q-225 215 -225 588zM848 283 q0 -143 94 -144q137 0 244 256q84 207 84 342q0 109 -82 109q-123 0 -234 -195q-106 -186 -106 -368z" />
<glyph unicode="A" horiz-adv-x="1351" d="M-86 0l16 51q94 0 176 74q31 29 101 121l926 1245l-60 -1225q-2 -43 -2 -63q0 -145 117 -146h59l-14 -57h-586l15 51h61q72 0 117 51q27 31 32 134l15 239h-430l-183 -244q-47 -63 -47 -116q0 -59 68 -60h41l-12 -55h-410zM508 547h383l33 567z" />
<glyph unicode="B" horiz-adv-x="1392" d="M6 -2l14 51q39 4 81 8t71 27q43 35 68 127l258 960q18 70 18 119q0 111 -151 111l20 53h492q209 0 333 -74q142 -81 142 -243q0 -125 -118 -234.5t-257 -136.5q106 -33 177 -123t71 -205q0 -207 -178 -327q-160 -111 -396 -111zM432 98q0 -32 79 -32h5q190 0 326 96 q153 107 153 287q0 150 -88 225q-77 65 -207 65h-4h-104l-146 -534q-14 -53 -14 -107zM608 801h94q180 0 304 86q133 94 133 250q0 249 -295 249h-2q-43 0 -82 -8z" />
<glyph unicode="C" horiz-adv-x="1515" d="M174 565q0 246 150 471q139 205 359 332t431 127q135 0 295 -65q37 -14 78 -15q25 0 52.5 23.5t37.5 56.5h43q-39 -100 -80 -248q-25 -86 -45 -209l-45 -4q8 29 8 74q0 164 -96 250q-86 76 -221 76q-268 0 -502 -275q-238 -281 -238 -612q0 -221 134.5 -360.5 t338.5 -139.5q272 0 447 256h51q-98 -162 -248 -252q-156 -92 -338 -92q-260 0 -432 164q-180 170 -180 442z" />
<glyph unicode="D" horiz-adv-x="1576" d="M0 0l14 53q109 0 138 27q57 53 81 145l263 969q14 53 14 96q0 111 -162 111l21 53h532q274 0 447 -172q165 -168 165 -422q0 -348 -262 -604t-604 -256h-647zM434 158q0 -98 129 -99q309 0 520 244q205 235 205 559q0 254 -118.5 387t-321.5 133q-18 0 -92 -8l-307 -1138 q-14 -53 -15 -78z" />
<glyph unicode="E" horiz-adv-x="1433" d="M8 0l15 53q113 0 170 47q47 39 69 125l262 969q14 53 15 96q0 111 -162 111l20 53h1098l-84 -313h-45q6 31 6 65q0 199 -295 199h-282l-164 -604h96q238 0 313 92q55 66 70 117h35l-139 -506h-37q14 51 14 94q0 143 -176 143h-193l-137 -505q-14 -53 -14 -78 q0 -90 141 -90q291 0 404 53q66 31 221 194q41 43 69 84h43q-27 -61 -86 -202q-37 -94 -69 -197h-1178z" />
<glyph unicode="F" horiz-adv-x="1331" d="M27 0l14 61q115 0 170 41q45 35 70 123l262 965q14 53 14 96q0 111 -162 111l21 57h1079l-84 -317h-45q6 31 6 65q0 190 -299 191h-264l-156 -588h97q223 0 299 92q55 66 73 131h49l-143 -520h-45q14 51 14 94q0 143 -168 143h-192l-141 -509q-14 -51 -15 -78 q0 -45 47 -70q39 -20 95 -20h77l-12 -68h-661z" />
<glyph unicode="G" horiz-adv-x="1556" d="M154 578q0 326 264 612q281 305 641 305q139 0 276 -61q45 -20 76 -21q45 0 88 82h45l-102 -440h-51q8 41 8 63q0 156 -101 238q-87 69 -221 69h-4q-309 0 -500 -286q-174 -258 -174 -607q0 -246 101 -374q98 -125 280 -125h6q123 0 203 57l92 354q18 72 19 138 q0 49 -30 79.5t-73 30.5h-55l10 51h582l-10 -47q-90 0 -146 -45q-41 -33 -63 -121l-123 -462q-250 -109 -428 -109q-276 0 -449 184q-162 174 -161 435z" />
<glyph unicode="H" horiz-adv-x="1699" d="M20 0l15 53q106 0 158 47q41 37 65 125l262 969q14 53 15 96q0 111 -162 111l20 53h586l-18 -55q-106 0 -158 -51q-37 -41 -66 -144l-108 -395h635l104 385q14 53 14 96q0 111 -161 111l20 53h586l-19 -55q-104 0 -157 -56q-39 -41 -66 -139l-264 -968q-14 -53 -14 -78 q0 -47 28.5 -76t71.5 -29h53l-12 -53h-580l15 53q106 0 157 47q41 37 66 125l135 502h-635l-133 -491q-14 -53 -14 -78q0 -47 28.5 -76t71.5 -29h53l-12 -53h-580z" />
<glyph unicode="I" horiz-adv-x="798" d="M0 0l14 53q106 0 158 47q41 37 66 125l262 969q14 53 14 96q0 111 -162 111l21 53h585l-18 -55q-106 0 -158 -51q-37 -41 -65 -144l-264 -968q-14 -53 -15 -78q0 -47 29 -76t72 -29h53l-12 -53h-580z" />
<glyph unicode="J" horiz-adv-x="1003" d="M4 143q0 61 42 108.5t101 47.5q41 0 70 -27.5t29 -66.5q0 -27 -31 -64t-31 -59q0 -59 76 -59q131 0 193 221l252 907q20 74 20 139q0 111 -162 111l21 53h585l-18 -55q-106 0 -158 -51q-37 -41 -65 -144l-223 -807q-53 -190 -162 -307q-125 -131 -289 -131q-98 0 -170 47 q-80 51 -80 137z" />
<glyph unicode="K" horiz-adv-x="1474" d="M0 0l14 53q106 0 158 47q41 37 66 125l262 969q14 53 14 96q0 111 -162 111l21 53h610l-18 -55q-117 0 -174 -51q-47 -43 -74 -144l-109 -411l596 454q76 57 76 103q0 51 -74 51l21 53h424l-19 -55q-121 0 -295 -135l-544 -424l342 -584q119 -203 270 -203h25l-13 -53 h-586l15 53h37q78 0 78 70q0 43 -25 84l-334 561l-149 -532q-14 -51 -15 -78q0 -47 29 -76t72 -29h53l-12 -53h-580z" />
<glyph unicode="L" horiz-adv-x="1413" d="M39 0l14 53q106 0 158 47q41 37 65 125l263 969q14 53 14 96q0 111 -162 111l21 53h622l-18 -55q-129 0 -187 -51q-45 -41 -73 -144l-264 -968q-14 -53 -15 -78q0 -78 113 -78h270q193 0 332 121q82 72 139 207h45q-74 -188 -143 -408h-1194z" />
<glyph unicode="M" horiz-adv-x="2007" d="M14 0l15 53q113 0 136 7.5t66 52.5q27 27 60 137l321 1063q-59 88 -200 88l20 53h383l131 -1163l838 1165h389l-12 -57h-70q-88 0 -133 -35t-70 -127l-260 -963q-23 -84 -22 -129q0 -92 147 -92l-14 -53h-637l14 53h90q141 0 195 180l285 977l-902 -1249l-135 1229 l-289 -926q-23 -72 -22 -119q0 -92 106 -92h54l-13 -53h-471z" />
<glyph unicode="N" horiz-adv-x="1556" d="M23 0l14 53q109 0 154 47t88 203l274 1006q-37 55 -74 71q-45 20 -162 21l21 53h383l444 -1077l219 792q16 59 17 123q0 82 -90 105q-25 6 -64 6l15 51h469l-13 -49q-127 0 -184 -47q-39 -33 -70 -144l-350 -1247l-510 1237l-250 -917q-27 -98 -26 -137q0 -96 94 -97h72 l-13 -53h-458z" />
<glyph unicode="O" horiz-adv-x="1576" d="M143 475q0 391 287 705.5t633 314.5q221 0 366.5 -159t145.5 -380q0 -379 -287 -688t-639 -309q-219 0 -364 154q-141 147 -142 362zM373 416q0 -147 71 -258q80 -121 207 -121q256 0 479 340q213 328 213 678q0 139 -82.5 246.5t-205.5 107.5q-252 0 -473 -342 q-209 -326 -209 -651z" />
<glyph unicode="P" horiz-adv-x="1269" d="M12 0l15 53q115 0 170 45q45 37 69 127l262 969q14 53 15 96q0 111 -162 111l20 53h623q150 0 247 -96.5t97 -237.5q0 -184 -180 -313q-164 -117 -348 -117q-123 0 -226 33l-133 -487q-14 -53 -14 -78q0 -68 57 -86q31 -10 119 -11l-29 -61h-602zM635 799q66 -31 135 -31 q158 0 273.5 110.5t115.5 262.5q0 111 -57 176q-63 72 -180 72h-131z" />
<glyph unicode="Q" horiz-adv-x="1597" d="M137 467q0 391 288 709.5t632 318.5q221 0 366.5 -158t145.5 -379q0 -375 -282.5 -687t-629.5 -320l-176 -135q74 12 127 12q84 0 307 -61q135 -37 246 -37q160 0 336 168l33 -17q-102 -141 -260 -219q-145 -72 -297 -72q-119 0 -279 54q-172 57 -278 57q-57 0 -152 -45 l-33 45l332 256q-188 27 -307 172t-119 338zM438 150q80 -121 207 -121q256 0 479 346q213 332 213 682q0 139 -83 245.5t-205 106.5q-252 0 -474 -346q-208 -326 -208 -652q0 -150 71 -261z" />
<glyph unicode="R" horiz-adv-x="1515" d="M-35 0l15 53q133 0 190 41q45 35 72 131l266 969q14 51 14 96q0 111 -162 111l21 53h577q182 0 296 -94t114 -236q0 -147 -131 -266q-115 -102 -279 -143l238 -504q37 -80 102 -119q58 -35 119 -35l-14 -57h-320l-338 698q-102 4 -155 13l-133 -475q-14 -51 -15 -78 q0 -53 29 -74q35 -27 145 -27l-14 -57h-637zM612 780q41 -18 101 -18q190 0 305 104q108 102 108 258q0 252 -270 252q-29 0 -82 -4z" />
<glyph unicode="S" horiz-adv-x="1208" d="M43 -23q23 86 70 281q23 106 43 254l43 2v-59q-2 -37 -2 -62q0 -158 116 -262q109 -98 260 -98q125 0 216.5 85t91.5 206q0 117 -121 241l-268 277q-80 82 -107 127q-41 72 -41 158q0 161 139 268q131 100 314 100q123 0 280 -76q61 -30 102 -30h3q53 0 84 92h49 q-20 -63 -62 -211q-31 -127 -43 -260h-49q2 51 2 80q0 135 -104.5 227t-245.5 92q-106 0 -182 -57q-84 -61 -84 -158q0 -98 137 -238l254 -258q145 -147 145 -315q0 -190 -145 -309q-137 -115 -332 -115q-209 0 -315 78q-51 37 -94 37q-39 0 -68 -28t-33 -69h-53z" />
<glyph unicode="T" horiz-adv-x="1413" d="M242 1092q41 117 69 237q8 35 27 125h1276q-23 -63 -72 -209q-20 -70 -41 -147h-39q12 63 13 102q0 106 -49.5 141t-211.5 35h-153l-322 -1140q-14 -51 -14 -78q0 -47 28.5 -76t71.5 -29h88l-12 -53h-655l14 53q131 0 193 47q47 37 71 125l328 1151h-156q-168 0 -241 -41 q-102 -59 -168 -243h-45z" />
<glyph unicode="U" horiz-adv-x="1597" d="M260 377q0 96 35 225l160 592q14 53 14 96q0 111 -162 111l21 53h594l-19 -55q-121 0 -162 -33q-33 -25 -57 -113l-199 -718q-20 -74 -20 -160q0 -150 96 -230q83 -71 219 -71h4q330 0 455 438l180 637q20 72 21 143q0 111 -158 111l14 51h420l-12 -49q-152 0 -205 -191 l-203 -718q-68 -238 -204 -379q-154 -158 -369 -158q-193 0 -324 111q-139 117 -139 307z" />
<glyph unicode="V" horiz-adv-x="1454" d="M344 1401l21 53h548l-18 -55q-115 0 -144.5 -28t-33.5 -118l-51 -915l675 889q61 80 62 110q0 66 -121 66l14 51h340l-2 -47q-90 -29 -190 -160l-987 -1288l47 1264q1 13 1 25q0 76 -22 106q-33 47 -139 47z" />
<glyph unicode="W" horiz-adv-x="2129" d="M348 1401l4 53h547l-18 -49q-90 0 -129 -34t-43 -118l-45 -866l565 776l-17 119q-16 119 -172 119l4 53h580l-18 -49q-104 0 -136 -31t-36 -121l-48 -878l596 848q37 53 37 114q0 66 -121 66l15 51h401l-6 -43q-133 -23 -231 -164l-906 -1288l46 1071l-771 -1071l50 1167 q1 19 1 37q0 237 -149 238z" />
<glyph unicode="X" horiz-adv-x="1495" d="M-16 0l12 49q96 0 168 47q45 31 143 137l430 474l-151 575q-14 53 -66.5 86t-105.5 33l4 53h536l-18 -49q-139 0 -139 -90q0 -20 10 -62l94 -385l356 381q49 53 50 101q0 53 -142 53l15 51h460l-10 -47q-133 0 -274 -152l-434 -469l131 -491q39 -150 107 -194 q65 -42 142 -42h7l-13 -59h-565l4 47q139 0 139 82q0 33 -16 96l-102 393l-400 -438q-55 -61 -55 -94q0 -35 82 -35l-8 -51h-391z" />
<glyph unicode="Y" horiz-adv-x="1454" d="M293 1407l2 47h608l-18 -49q-139 0 -140 -90q0 -31 11 -62l153 -469l361 465q47 61 47 111q0 43 -139 43l14 51h461l-6 -43q-98 0 -168 -45q-51 -33 -111 -111l-446 -583l-119 -436q-14 -53 -15 -78q0 -47 29 -76t72 -29h65l-12 -53h-620l14 53q205 0 252 172l133 484 l-143 421q-57 170 -129 230q-55 47 -156 47z" />
<glyph unicode="Z" horiz-adv-x="1474" d="M86 0l1133 1378h-508q-188 0 -256 -49q-76 -55 -131 -203h-56q41 104 66 181q29 88 45 147h1167l-1153 -1382h459q219 0 309 59q115 76 195 242h51q-43 -115 -129 -373h-1192z" />
<glyph unicode="[" horiz-adv-x="614" d="M-76 -451l510 1905h426l-29 -92h-253l-457 -1720h260l-31 -93h-426z" />
<glyph unicode="\" horiz-adv-x="839" d="M221 1442l90 53l432 -1499l-90 -53z" />
<glyph unicode="]" horiz-adv-x="614" d="M-219 -451l31 93h254l456 1720h-260l29 92h426l-510 -1905h-426z" />
<glyph unicode="^" horiz-adv-x="1239" d="M143 645l400 809h188l399 -809h-153l-342 686l-342 -686h-150z" />
<glyph unicode="_" horiz-adv-x="1024" d="M0 -154h1024v-102h-1024v102z" />
<glyph unicode="`" horiz-adv-x="681" d="M193 1425h196l100 -295h-28z" />
<glyph unicode="a" d="M68 211q0 276 213 549q207 264 399 264q139 0 182 -131l31 115l156 16l-175 -651q-55 -207 -55 -254q0 -37 33 -37q74 0 149 143h54q-41 -94 -117 -168q-94 -94 -197 -94q-90 0 -90 98q0 72 41 220q-94 -135 -198 -222q-121 -100 -220 -100q-98 0 -155 82q-51 72 -51 170 zM233 252q0 -61 25 -102q33 -53 92 -54q170 0 326 264q141 238 141 422q0 72 -29 123q-33 61 -92 62q-143 0 -303 -245t-160 -470z" />
<glyph unicode="b" horiz-adv-x="1064" d="M72 94l338 1239q14 53 14 78q0 68 -72 68q-41 0 -73 -13l12 50l338 61l-207 -772q55 84 139 143q106 76 215 76q115 0 185 -94q61 -84 61 -207q0 -272 -205 -518t-428 -246q-96 0 -170 35q-61 29 -147 100zM221 82q106 -70 189 -70q180 0 315 228q123 208 123 452 q0 94 -35 160q-39 78 -115 78q-106 0 -217 -139q-100 -129 -147 -299z" />
<glyph unicode="c" horiz-adv-x="880" d="M90 293q0 272 207 506q199 225 410 225q88 0 137 -50t49 -128q0 -55 -25 -96q-29 -47 -73 -48q-74 0 -74 82q0 37 18.5 55.5t36.5 34.5q10 14 10 37q0 31 -28.5 48.5t-63.5 17.5q-143 0 -281.5 -210t-138.5 -433q0 -123 45 -197q49 -80 142 -80q86 0 176 64 q72 51 106 110h48q-41 -90 -150 -174q-127 -98 -254 -98q-129 0 -213 95.5t-84 238.5z" />
<glyph unicode="d" d="M80 258q0 270 219 522q209 244 414 244q119 0 182 -102l119 426q18 66 18 79q0 61 -78 62q-37 0 -82 -8l11 45l344 49l-389 -1419q-8 -31 -9 -56q0 -39 27 -39q18 0 57 37q47 43 86 109h43q-29 -72 -110 -152q-98 -96 -176 -96q-100 0 -101 117q0 39 27 127l47 155 q-260 -399 -448 -399q-94 0 -147.5 86t-53.5 213zM244 268q0 -74 29.5 -126t76.5 -52q68 0 187.5 120t205.5 277q99 181 99 326q0 160 -119 160q-139 0 -309 -250t-170 -455z" />
<glyph unicode="e" horiz-adv-x="942" d="M61 295q0 270 220 504q211 225 438 225q219 0 219 -168q0 -176 -219 -301q-205 -119 -447 -119q-14 -37 -14 -119q0 -106 53 -172q58 -75 167 -75h3q47 0 117 30q82 37 143 99h45q-57 -82 -159 -150q-133 -90 -258 -90q-133 0 -220.5 94t-87.5 242zM281 487 q199 0 346 108.5t147 272.5q0 104 -100 105q-127 0 -246 -166q-96 -137 -147 -320z" />
<glyph unicode="f" horiz-adv-x="614" d="M-295 -287q0 33 25.5 56.5t60.5 23.5q70 0 70 -55q0 -14 -13.5 -33.5t-13.5 -38.5q0 -27 41 -26q80 0 160 122q68 106 95.5 234.5t80.5 374.5l127 559h-180l16 53q23 0 75 13.5t70 27.5q43 37 97 164q61 152 166 260q127 131 266 131q66 0 119 -33t53 -90 q0 -39 -26.5 -68.5t-63.5 -29.5q-27 0 -47.5 20.5t-20.5 46.5q0 29 21 52q8 10 8 22q0 29 -53 29q-98 0 -166 -94q-90 -125 -164 -451h139l-12 -53h-148l-135 -617q-61 -285 -184 -483q-143 -233 -311 -233q-61 0 -106.5 32.5t-45.5 83.5z" />
<glyph unicode="g" horiz-adv-x="1024" d="M-41 -180q0 47 51 119q66 90 189 165q-31 23 -31 76q0 94 190 205q-82 29 -133 92q-57 68 -57 154q0 160 149 282q137 111 279 111q102 0 168.5 -41t124.5 -41h184l-24 -115h-164q16 -33 16 -92q0 -156 -135 -270q-127 -109 -272 -109q-10 0 -26.5 2t-25.5 2 q-41 0 -79.5 -31.5t-38.5 -56.5q0 -43 51 -61l252 -88q180 -63 180 -221q0 -135 -139 -228q-129 -84 -295 -84q-137 0 -254 45q-160 63 -160 185zM86 -150q0 -102 86 -157q80 -53 207 -53q119 0 203 47q96 53 96 149q0 100 -117 141l-299 103q-70 -29 -119 -84 q-57 -68 -57 -146zM346 586q0 -182 143 -183q88 0 166 131.5t78 270.5q0 170 -131 170q-102 0 -182 -135q-74 -125 -74 -254z" />
<glyph unicode="h" horiz-adv-x="1126" d="M51 0l375 1362q11 41 11 59q0 5 -1 9q-14 45 -69 59q-12 3 -23 3q-22 0 -43 -11l16 47l318 47l-287 -1049q301 498 522 498q53 0 91 -43t38 -100q0 -53 -26 -150l-152 -549q-12 -45 -12 -71q0 -43 27 -43q20 0 71 49q45 45 78 90h45q-59 -98 -137 -170q-88 -78 -160 -78 q-39 0 -67.5 28.5t-28.5 67.5q0 33 31 146l147 542q14 53 14 84q0 29 -17 51.5t-42 22.5q-100 0 -272 -235q-180 -244 -246 -488l-47 -178h-154z" />
<glyph unicode="i" horiz-adv-x="634" d="M127 80q0 20 25 110l165 609q10 37 11 63q0 72 -68 72q-31 0 -78 -10l13 47l342 53l-234 -838q-8 -29 -8 -59q0 -55 31 -55q55 0 153 145h49q-164 -258 -305 -258q-47 0 -71.5 37t-24.5 84zM414 1356q0 43 29.5 72.5t72.5 29.5t72.5 -29.5t29.5 -72.5t-29.5 -73 t-72.5 -30t-72.5 30t-29.5 73z" />
<glyph unicode="j" horiz-adv-x="593" d="M-297 -301q0 72 70 72q71 0 71 -60q0 -12 -9 -27.5t-9 -25.5q0 -20 35 -20q152 0 229 313l207 831q10 41 10 68q0 72 -63 72q-16 0 -90 -17l8 51l340 68l-219 -948q-47 -203 -154 -336q-121 -150 -279 -150q-147 0 -147 109zM379 1356q0 41 30.5 71.5t71.5 30.5t72 -30.5 t31 -71.5t-31 -72t-72 -31t-71.5 31t-30.5 72z" />
<glyph unicode="k" d="M57 0l344 1362q10 41 11 55q0 63 -74 64q-31 0 -76 -8l10 47l330 53l-270 -1077q174 117 348 266q111 96 111 133q0 27 -56 35l10 51h392l-15 -49q-96 -10 -165.5 -38t-157.5 -101l-217 -181l172 -434q47 -117 100 -117q18 0 64 33q55 43 108 113h39q-145 -248 -295 -248 q-94 0 -170 199l-137 364l-158 -119l-108 -403h-140z" />
<glyph unicode="l" horiz-adv-x="573" d="M100 176l330 1217q10 37 10 57q0 43 -43 43q-31 0 -88 -10l8 47l316 47l-377 -1387q-14 -53 -14 -88q0 -43 28 -43q49 0 144 134h45q-133 -233 -281 -234q-45 0 -72 41q-22 32 -22 72q0 43 16 104z" />
<glyph unicode="m" horiz-adv-x="1822" d="M86 0l213 774q12 45 12 68q0 35 -24.5 59.5t-57.5 24.5q-35 0 -63 -8l14 49l350 51l-153 -518q201 289 287 381q135 143 258 143q129 0 129 -150q0 -55 -25 -155l-59 -242q170 258 239 340q176 207 330 207q61 0 94 -53q29 -45 29 -113q0 -51 -17 -108l-151 -533 q-14 -51 -14 -82q0 -47 26 -47q55 0 154 131h49q-49 -80 -129 -160q-104 -102 -172 -102q-92 0 -92 117q0 45 24 135l138 506q16 59 16 100q0 74 -53 74q-111 0 -310.5 -265.5t-257.5 -484.5l-36 -139h-150l190 700q14 53 15 113q0 82 -62 82q-123 0 -321 -293 q-207 -303 -268 -602h-152z" />
<glyph unicode="n" horiz-adv-x="1167" d="M86 0l209 778q16 61 16 80q0 27 -24.5 45.5t-55.5 18.5q-39 0 -75 -15l10 51l346 64l-129 -487q322 489 518 489q49 0 84 -40t35 -110q0 -57 -29 -161l-131 -477q-18 -68 -18 -105q0 -45 35 -45q45 0 137 137h43q-33 -76 -115 -160q-100 -104 -180 -104q-90 0 -90 115 q0 14 16 78l158 604q10 39 10 78q0 65 -46 65h-1q-80 0 -291 -262q-154 -190 -225 -432l-62 -205h-145z" />
<glyph unicode="o" horiz-adv-x="1064" d="M78 305q0 274 203 500q199 219 428 219q141 0 225 -106q76 -99 76 -242q0 -268 -217 -502q-201 -215 -381 -215q-145 0 -242 107q-92 100 -92 239zM254 229q0 -86 37 -141q47 -68 135 -68q211 0 330 306q84 219 84 407q0 98 -37 162q-45 76 -135 76q-160 0 -289 -246 q-125 -236 -125 -496z" />
<glyph unicode="p" horiz-adv-x="1064" d="M-135 -371l12 54q66 0 98 28q43 35 72 144l227 856q18 70 19 102q0 86 -60 86q-43 0 -71 -16l10 55q41 4 121 18q102 18 211 52l-66 -248q170 264 365 264q98 0 153.5 -81t55.5 -206q0 -276 -203 -532q-195 -246 -385 -246q-90 0 -178 61l-47 -167q-8 -31 -9 -60 q0 -110 157 -110h3l-12 -54h-473zM266 86q66 -72 152 -72q193 0 321 293q99 225 99 395q0 84 -29 142q-36 67 -100 67h-2q-92 0 -186.5 -123.5t-137.5 -277.5z" />
<glyph unicode="q" horiz-adv-x="1024" d="M74 260q0 227 184 488q199 276 410 276q119 0 178 -133l31 100q49 10 149 37l-293 -1149q-18 -72 -18 -100q0 -90 106 -105l-14 -49h-477l14 49q106 0 160 43q37 31 76 174l116 437q-223 -369 -424 -369q-106 0 -157 98q-41 78 -41 203zM287 137q35 -41 84 -41 q125 0 278.5 243.5t153.5 442.5q0 184 -127 185q-125 0 -273 -236q-151 -242 -151 -474q0 -79 35 -120z" />
<glyph unicode="r" horiz-adv-x="778" d="M100 0l179 793q10 47 10 61q0 61 -51 61q-55 0 -78 -16l10 49l307 70l-115 -508q82 205 183 344q121 170 217 170q27 0 44 -27.5t17 -58.5q0 -57 -24 -111q-33 -67 -83 -67h-1q-39 0 -51 53q-8 33 -31 33q-57 0 -209 -320q-98 -205 -143 -374l-41 -152h-140z" />
<glyph unicode="s" horiz-adv-x="798" d="M2 -18l64 333h28q0 -141 57.5 -221t165.5 -80q80 0 130.5 49.5t50.5 133.5q0 80 -70 178q-63 86 -129 174q-70 106 -70 211q0 102 76 183t182 81q82 0 160 -47q25 -14 41 -14q31 0 62 51h34l-65 -332h-25q-2 127 -51 207q-55 86 -145 86q-53 0 -90 -39t-37 -96 q0 -84 134 -262.5t134 -294.5q0 -147 -89 -235.5t-218 -88.5q-98 0 -185 43q-41 20 -55 21q-39 0 -55 -41h-35z" />
<glyph unicode="t" horiz-adv-x="655" d="M166 291l174 633h-154l4 39q98 27 193.5 101.5t163.5 201.5h39l-76 -283h152l-13 -59h-153l-199 -723q-14 -51 -14 -88q0 -55 43 -56q23 0 71 37q59 45 105 115h51q-137 -250 -320 -250q-108 0 -108 125q0 57 41 207z" />
<glyph unicode="u" horiz-adv-x="1146" d="M119 764q29 82 108 164q96 96 191 96q35 0 59.5 -27.5t24.5 -74.5q0 -39 -15 -95l-157 -612q-8 -33 -8 -57q0 -68 61 -68q82 0 295 299q106 147 158 301l106 314h145l-210 -773q-14 -53 -15 -92q0 -61 39 -61q45 0 143 147h46q-174 -266 -299 -266q-84 0 -84 115 q0 68 38 213l58 215l-137 -207q-223 -336 -387 -336q-115 0 -115 143q0 68 41 226l121 465q10 39 10 61q0 47 -35 47q-51 0 -137 -137h-45z" />
<glyph unicode="v" horiz-adv-x="901" d="M94 913l12 52q137 6 256 53q39 -72 76 -326q31 -211 31 -483q123 145 208 307t85 258q0 51 -41 78q-47 31 -47 84q0 88 90 88q53 0 81.5 -41t28.5 -96q0 -106 -106 -318q-94 -186 -197 -313l-243 -307l-17 327q-16 317 -61 512q-31 129 -115 130q-12 0 -41 -5z" />
<glyph unicode="w" horiz-adv-x="1433" d="M119 971q109 6 217 49q53 -66 74 -254q39 -358 39 -483l446 821l84 -909q129 145 262 374q84 145 84 217q0 51 -48 87q-44 33 -44 74v7q6 70 84 70q98 0 98 -123q0 -104 -74 -250q-59 -117 -200 -323q-174 -256 -291 -361l-76 803l-459 -821l-18 444q-12 309 -59 469 q-18 66 -72 66q-23 0 -41 -6z" />
<glyph unicode="x" horiz-adv-x="1146" d="M-12 55q0 35 26.5 57.5t63.5 22.5q39 0 74 -41q20 -25 41 -24q27 0 94 73q61 68 116 148l140 205q-78 274 -128 354t-134 80q-41 0 -80 -10v47q160 20 239 53q115 -47 211 -352l148 188q131 168 252 168q37 0 65.5 -25.5t28.5 -62.5q0 -33 -22.5 -56.5t-55.5 -23.5 q-23 0 -51.5 14.5t-48.5 14.5q-35 0 -82 -27t-72 -59l-145 -185q55 -201 147 -489q14 -35 49 -35q74 0 137 133h46q-29 -76 -99 -162q-86 -102 -151 -102q-66 0 -86 43q-51 106 -150 434q-39 -55 -141 -209q-72 -106 -166 -188t-154 -82q-45 0 -78.5 28.5t-33.5 69.5z" />
<glyph unicode="y" horiz-adv-x="1024" d="M-53 -330q0 45 31.5 79t76.5 34t64 -53q6 -18 24 -19q20 0 70 43q66 55 125 144l-23 565q-12 299 -51 391q-29 68 -104 68q-37 0 -78 -13v52q55 2 119 14q98 18 174 47q74 -88 86 -344l26 -584q174 223 289 422q111 188 111 252q0 27 -45 43q-74 29 -74 107 q0 43 25.5 74.5t66.5 31.5q53 0 84 -53q27 -46 27 -109q0 -139 -205 -463q-184 -295 -412 -549q-236 -266 -321 -266q-86 0 -86 86z" />
<glyph unicode="z" horiz-adv-x="962" d="M14 0l768 829h-354q-76 0 -119 -25.5t-86 -101.5h-45q61 127 90 281h715l-764 -842h334q94 0 135 23q53 27 105 121h45q-74 -158 -107 -285h-717z" />
<glyph unicode="{" horiz-adv-x="614" d="M106 -217q0 53 27 149l96 361q33 123 25 168q-12 70 -82 98q82 27 133 98q33 45 66 168l96 361q49 182 141 252q76 57 211 57h23q-57 -29 -90 -61q-57 -57 -93 -185l-104 -385q-55 -203 -119.5 -242.5t-132.5 -62.5q53 -23 98 -63q20 -18 21 -72q0 -68 -29 -170 l-104 -385q-33 -121 -6 -184q12 -29 57 -62h-23q-131 0 -178 58q-33 39 -33 102z" />
<glyph unicode="|" horiz-adv-x="409" d="M164 0v1454h82v-1454h-82z" />
<glyph unicode="}" horiz-adv-x="614" d="M-164 -377q57 29 90 62q57 57 92 184l105 385q55 203 119.5 243t132.5 62q-53 23 -99 64q-20 18 -20 71q0 68 29 170l104 385q33 121 6 185q-12 29 -57 61h22q131 0 179 -57q33 -39 32 -103q1 -53 -26 -149l-96 -361q-33 -123 -25 -168q12 -70 82 -98q-82 -27 -133 -98 q-33 -45 -66 -168l-98 -361q-51 -184 -139 -251q-76 -57 -211 -58h-23z" />
<glyph unicode="~" horiz-adv-x="1187" d="M123 666v32q0 125 86 205t203 80q98 0 246.5 -62.5t236.5 -62.5q131 0 164 131h33v-24q0 -113 -84 -203t-199 -90q-139 0 -282.5 67.5t-213.5 67.5q-57 0 -109 -45t-52 -96h-29z" />
<glyph unicode="&#xa0;" />
<glyph unicode="&#xa1;" horiz-adv-x="532" d="M-20 -408q0 88 79 258q127 270 213 578l60 211h47l-53 -229q-45 -197 -82 -420q-20 -123 -39 -246q-25 -127 -43 -174q-37 -82 -107 -82q-76 0 -75 104zM330 946q0 45 32.5 77t77.5 32t78 -32t33 -77t-32 -77.5t-79 -32.5q-45 0 -77.5 32.5t-32.5 77.5z" />
<glyph unicode="&#xa2;" d="M195 553q0 262 174 471t409 240l45 166h62l-45 -162h4q207 0 207 -178q0 -53 -25 -94.5t-70 -41.5q-78 0 -77 80q0 43 43 80q20 16 20 39q0 66 -115 72q-125 -461 -252 -924q14 -2 41 -2q76 0 152 43q88 47 141 133h43q-47 -102 -153 -178q-117 -84 -248 -94 q-14 -51 -53 -195h-62l53 197q-133 10 -210 94q-84 92 -84 254zM371 590q0 -242 147 -281l248 914q-143 -23 -269 -221.5t-126 -411.5z" />
<glyph unicode="&#xa3;" d="M23 104q0 76 61 125.5t147 49.5q41 0 88 -11q8 35 17 82q25 164 61 361h-256l37 90h240q31 133 49 192q156 502 459 502q86 0 147 -43q68 -49 68 -125q0 -39 -22.5 -70.5t-59.5 -31.5q-43 0 -74 39q-25 33 -31 82q-10 94 -77 94q-143 0 -230 -410q-20 -98 -53 -229h287 l-37 -90h-273q-72 -276 -161 -469q86 -41 174 -84q100 -47 186 -47q115 0 168 86l31 -25q-43 -84 -117 -143q-90 -70 -188 -70q-86 0 -177 55q-49 29 -145 109q-96 -150 -201 -150q-119 0 -118 131zM57 98q0 -82 84 -82q85 0 146 152q-66 51 -113 51q-43 0 -80 -36t-37 -85z " />
<glyph unicode="&#xa4;" horiz-adv-x="1138" d="M53 274l119 119q-106 139 -106 312q0 178 108 315l-121 119l88 86l117 -121q137 109 311 108q172 0 310 -108l114 119l84 -84l-114 -119q109 -137 108 -315q0 -176 -108 -314l114 -117l-84 -84l-114 117q-137 -109 -310 -108q-174 0 -311 108l-117 -119zM184 705 q0 -160 113 -275t272 -115q158 0 271.5 115t113.5 275q0 162 -113.5 276.5t-271.5 114.5q-160 0 -272.5 -115t-112.5 -276z" />
<glyph unicode="&#xa5;" horiz-adv-x="1146" d="M150 0l10 41q217 0 264 176l102 381l-12 55h-338l27 92h293l-39 175h-209l24 92h166l-45 223q-66 178 -121 178l11 41h485l-10 -41h-41q-102 0 -123 -76q-4 -12 14 -114l37 -211h211l125 186q29 39 57 78q37 55 37 84q0 53 -82 53h-32l10 41h381l-11 -41 q-57 0 -115.5 -58.5t-115.5 -119.5l-152 -223h207l-24 -92h-244l-115 -175h314l-27 -92h-350l-23 -32l-108 -404q-8 -31 -8 -55q0 -121 178 -121l-10 -41h-598zM662 920l28 -158l105 158h-133z" />
<glyph unicode="&#xa6;" horiz-adv-x="409" d="M164 0v635h82v-635h-82zM164 817v635h82v-635h-82z" />
<glyph unicode="&#xa7;" horiz-adv-x="942" d="M14 -236q0 27 9 56q12 43 45.5 74.5t74.5 31.5q61 0 62 -63q0 -12 -4 -25q-16 -27 -43 -92q-4 -12 -4 -25q0 -78 92 -77q84 0 162.5 76.5t78.5 160.5q0 78 -92 180q-84 90 -170 183q-92 117 -92 229q0 43 12 86q57 213 320 352q-55 96 -55 193q0 47 12 92 q33 123 143.5 211t233.5 88q92 0 153.5 -50t61.5 -132q0 -24 -8 -53q-31 -115 -121 -115q-31 0 -51.5 28.5t-12.5 65.5q4 14 37 59q27 37 27 70q0 76 -94 76q-70 0 -138.5 -56.5t-87.5 -121.5q-6 -25 -6 -49q0 -84 88 -189q80 -94 162 -188q88 -117 88 -232q0 -43 -12 -90 q-57 -215 -310 -352q4 -37 27 -111q20 -63 21 -102q0 -35 -11 -72q-33 -123 -148.5 -209t-234.5 -86q-90 0 -152.5 49.5t-62.5 128.5zM270 582q0 -109 84 -189l195 -182q160 76 199 223q8 33 8 68q0 100 -66 168l-194 196q-96 -37 -158 -108q-68 -82 -68 -176z" />
<glyph unicode="&#xa8;" horiz-adv-x="681" d="M166 1233q0 37 26.5 63.5t63.5 26.5t63.5 -26.5t26.5 -63.5t-26.5 -63.5t-63.5 -26.5t-63.5 26.5t-26.5 63.5zM502 1233q0 37 26.5 63.5t63.5 26.5t63.5 -26.5t26.5 -63.5t-26.5 -63.5t-63.5 -26.5t-63.5 26.5t-26.5 63.5z" />
<glyph unicode="&#xa9;" d="M246 1038q0 188 134 322.5t322 134.5t322.5 -134.5t134.5 -322.5q0 -186 -134 -320t-323 -134q-188 0 -322 134t-134 320zM317 1038q0 -160 113 -272.5t272 -112.5q160 0 272.5 112.5t112.5 272.5t-112.5 272.5t-272.5 112.5t-272.5 -112.5t-112.5 -272.5zM446 1030 q0 111 72 189.5t180 78.5q61 0 115 -26q16 -8 33 -8q20 0 31 34h12v-165h-23q-25 119 -147 118q-74 0 -115 -65q-37 -57 -37 -144q0 -205 156 -204q86 0 156 73v-53q-68 -80 -185 -80q-106 0 -177 68.5t-71 183.5z" />
<glyph unicode="&#xaa;" horiz-adv-x="800" d="M246 981q0 168 138 332t267 164q80 0 117 -64l16 53l119 13l-117 -404q-35 -121 -34 -149q0 -14 12 -15q43 0 92 86h53q-84 -174 -217 -174q-68 0 -67 68q0 25 16 94q-137 -164 -252 -164q-68 0 -108 53q-35 45 -35 107zM371 1006q0 -86 67 -86q106 0 205 155 q90 139 90 248q0 102 -69 102q-88 0 -190.5 -143t-102.5 -276z" />
<glyph unicode="&#xab;" horiz-adv-x="1064" d="M133 492q154 158 498 520h45l-367 -512l129 -520h-43q-141 322 -262 512zM555 492q137 147 498 520h45l-367 -512l129 -520h-43q-141 322 -262 512z" />
<glyph unicode="&#xac;" horiz-adv-x="1239" d="M113 748v143h1003v-533h-133v390h-870z" />
<glyph unicode="&#xad;" horiz-adv-x="614" d="M82 438l27 150h479l-27 -150h-479z" />
<glyph unicode="&#xae;" d="M246 1038q0 188 134 322.5t322 134.5t322.5 -134.5t134.5 -322.5q0 -186 -134 -320t-323 -134q-188 0 -322 134t-134 320zM317 1038q0 -160 113 -272.5t272 -112.5q160 0 272.5 112.5t112.5 272.5t-112.5 272.5t-272.5 112.5t-272.5 -112.5t-112.5 -272.5zM475 1276v24 h230q174 0 174 -133q0 -92 -101 -131l113 -180q12 -20 45 -20v-29h-117l-141 221h-41v-139q0 -33 13.5 -43t56.5 -10v-29h-230v29q66 0 66 53v321q0 66 -68 66zM637 1069h33q98 0 98 94q0 100 -104 101h-27v-195z" />
<glyph unicode="&#xaf;" horiz-adv-x="681" d="M262 1208l19 66h430l-19 -66h-430z" />
<glyph unicode="&#xb0;" horiz-adv-x="675" d="M268 1237q0 106 76 182t182 76t182 -76t76 -182t-75.5 -181t-182.5 -75q-106 0 -182 74.5t-76 181.5zM379 1237q0 -61 44 -105.5t105 -44.5t105.5 44.5t44.5 105.5t-44 105t-106 44q-61 0 -105 -44t-44 -105z" />
<glyph unicode="&#xb1;" horiz-adv-x="1187" d="M47 0v117h1100v-117h-1100zM47 571v117h490v385h116v-385h494v-117h-494v-387h-116v387h-490z" />
<glyph unicode="&#xb2;" horiz-adv-x="737" d="M152 598l321 297q195 180 195 352q0 61 -36 103.5t-93 42.5q-90 0 -177 -88h-28q88 190 248 190q90 0 153.5 -62.5t63.5 -144.5q0 -115 -111 -252q-98 -121 -354 -338h221q53 0 96 31q23 16 35 43h29l-76 -174h-487z" />
<glyph unicode="&#xb3;" horiz-adv-x="737" d="M178 657q0 25 19.5 43.5t44.5 18.5q31 0 90 -38t88 -38q63 0 100 52.5t37 135.5q0 240 -219 240l8 35q92 0 186 53q111 63 111 160q0 47 -30.5 75.5t-73.5 28.5q-76 0 -119 -63h-33q20 53 84 94t137 41q76 0 124 -43t48 -117q0 -162 -229 -223q63 -20 103 -81.5 t40 -135.5q0 -137 -115.5 -229.5t-261.5 -92.5q-55 0 -94 23q-45 25 -45 61z" />
<glyph unicode="&#xb4;" horiz-adv-x="681" d="M469 1118l100 295h197l-266 -295h-31z" />
<glyph unicode="&#xb6;" horiz-adv-x="1228" d="M258 885q0 76 25 168q51 190 159 284q133 117 379 117h508l-20 -72q-92 0 -139.5 -32.5t-69.5 -116.5l-402 -1497h-114l440 1646h-129l-440 -1646h-115l235 878q-317 0 -317 271z" />
<glyph unicode="&#xb7;" horiz-adv-x="681" d="M213 569q0 53 38 90t89 37q53 0 91 -38t38 -89t-37 -89t-90 -38t-91 38t-38 89z" />
<glyph unicode="&#xb8;" horiz-adv-x="681" d="M-98 -397l22 35q25 -8 72 -9q68 0 133.5 38t65.5 89q0 88 -170 88l172 140l139 12l-94 -76q94 -53 94 -137q0 -88 -96 -143q-86 -49 -199 -50q-84 0 -139 13z" />
<glyph unicode="&#xb9;" horiz-adv-x="737" d="M236 586l10 43h26q76 0 107 108l164 566q12 43 12 59q0 51 -41 51q-31 0 -63 -8l6 29q164 22 262 61l-217 -774q-10 -37 -10 -53q0 -39 53 -39h47l-12 -43h-344z" />
<glyph unicode="&#xba;" horiz-adv-x="774" d="M260 1036q0 168 135 307q131 133 283 134q96 0 153 -68q52 -61 52 -149q0 -164 -144 -308q-133 -131 -254 -131q-98 0 -161.5 63.5t-63.5 151.5zM391 991q0 -117 103 -117q131 0 206 179q56 128 56 241q0 133 -105 133q-98 0 -179 -141t-81 -295z" />
<glyph unicode="&#xbb;" horiz-adv-x="1064" d="M20 -20l367 512l-129 520h43q141 -322 262 -512q-137 -145 -497 -520h-46zM442 -20l367 512l-129 520h43q141 -322 262 -512q-154 -156 -498 -520h-45z" />
<glyph unicode="&#xbc;" horiz-adv-x="1679" d="M279 582l10 43h22q78 0 107 108l155 570q10 37 11 53q0 47 -54 47q-4 0 -47 -6l6 26l256 62l-204 -768q-10 -39 -11 -53q0 -39 54 -39h47l-13 -43h-339zM469 -2l885 1489l55 -27l-885 -1489zM893 229l10 74l547 619h47l-147 -596h100l-29 -97h-96l-57 -229h-117l55 229 h-313zM1008 326h223l90 364z" />
<glyph unicode="&#xbd;" horiz-adv-x="1679" d="M188 582l11 43h22q78 0 107 108l155 570q10 37 11 53q0 47 -54 47q-4 0 -47 -6l6 26l256 62l-204 -768q-10 -39 -11 -53q0 -39 54 -39h47l-13 -43h-340zM379 -2l885 1489l55 -27l-885 -1489zM954 0l312 305q190 186 190 336q0 59 -40 102t-97 43q-82 0 -168 -88h-29 q25 78 93.5 134.5t154.5 56.5q90 0 153.5 -62.5t63.5 -144.5q0 -104 -102.5 -235.5t-341.5 -340.5h209q96 0 129 72h28l-75 -178h-480z" />
<glyph unicode="&#xbe;" horiz-adv-x="1679" d="M199 655q0 51 65 52q37 0 86 -37t84 -37q61 0 101 61q33 55 32 129q0 227 -209 228v32q113 14 191 62q96 59 96 153q0 45 -29.5 75t-70.5 30q-80 0 -115 -64h-31q12 49 72.5 95.5t134.5 46.5t127 -48t53 -120q0 -162 -219 -221q135 -74 135 -218q0 -135 -113.5 -227 t-246.5 -92q-55 0 -96 27q-47 31 -47 73zM436 -2l885 1489l55 -27l-884 -1489zM911 229l11 74l546 619h48l-148 -596h100l-28 -97h-97l-57 -229h-117l56 229h-314zM1026 326h223l90 364z" />
<glyph unicode="&#xbf;" horiz-adv-x="757" d="M-31 -203q0 143 99 254q59 68 196 156t207 205q57 96 84 247h47q-6 -123 -100 -290q-78 -137 -175.5 -247t-136.5 -177q-51 -94 -51 -203q0 -80 47 -139q51 -66 131 -66q51 0 103.5 28.5t52.5 67.5q0 18 -19.5 55.5t-19.5 61.5q0 37 25.5 63.5t68.5 26.5q78 1 78 -108 q0 -106 -88 -175t-203 -69q-141 0 -243.5 89t-102.5 220zM530 946q0 45 33 77t78 32t78 -32t33 -77t-32 -77.5t-79 -32.5q-45 0 -78 32.5t-33 77.5z" />
<glyph unicode="&#xc0;" horiz-adv-x="1351" d="M-86 0l16 51q94 0 176 74q31 29 101 121l926 1245l-60 -1225q-2 -43 -2 -63q0 -145 117 -146h59l-14 -57h-586l15 51h61q72 0 117 51q27 31 32 134l15 239h-430l-183 -244q-47 -63 -47 -116q0 -59 68 -60h41l-12 -55h-410zM508 547h383l33 567zM905 1815h197l100 -295 h-28z" />
<glyph unicode="&#xc1;" horiz-adv-x="1351" d="M-86 0l16 51q94 0 176 74q31 29 101 121l926 1245l-60 -1225q-2 -43 -2 -63q0 -145 117 -146h59l-14 -57h-586l15 51h61q72 0 117 51q27 31 32 134l15 239h-430l-183 -244q-47 -63 -47 -116q0 -59 68 -60h41l-12 -55h-410zM508 547h383l33 567zM1073 1526l98 295h197 l-266 -295h-29z" />
<glyph unicode="&#xc2;" horiz-adv-x="1351" d="M-86 0l16 51q94 0 176 74q31 29 101 121l926 1245l-60 -1225q-2 -43 -2 -63q0 -145 117 -146h59l-14 -57h-586l15 51h61q72 0 117 51q27 31 32 134l15 239h-430l-183 -244q-47 -63 -47 -116q0 -59 68 -60h41l-12 -55h-410zM508 547h383l33 567zM840 1477l250 288h145 l78 -276h-17l-147 184l-287 -196h-22z" />
<glyph unicode="&#xc3;" horiz-adv-x="1351" d="M-86 0l16 51q94 0 176 74q31 29 101 121l926 1245l-60 -1225q-2 -43 -2 -63q0 -145 117 -146h59l-14 -57h-586l15 51h61q72 0 117 51q27 31 32 134l15 239h-430l-183 -244q-47 -63 -47 -116q0 -59 68 -60h41l-12 -55h-410zM508 547h383l33 567zM750 1559q16 219 168 219 q61 0 162.5 -63.5t136.5 -63.5q70 0 92 121h22q-20 -215 -184 -216q-63 0 -149.5 58.5t-125.5 58.5q-72 0 -100 -114h-22z" />
<glyph unicode="&#xc4;" horiz-adv-x="1351" d="M-86 0l16 51q94 0 176 74q31 29 101 121l926 1245l-60 -1225q-2 -43 -2 -63q0 -145 117 -146h59l-14 -57h-586l15 51h61q72 0 117 51q27 31 32 134l15 239h-430l-183 -244q-47 -63 -47 -116q0 -59 68 -60h41l-12 -55h-410zM508 547h383l33 567zM860 1638q0 37 26.5 64 t63.5 27t63.5 -27t26.5 -64t-26.5 -63.5t-63.5 -26.5t-63.5 27t-26.5 63zM1196 1638q0 37 26.5 64t63.5 27t63.5 -27t26.5 -64t-26.5 -63.5t-63.5 -26.5t-63.5 27t-26.5 63z" />
<glyph unicode="&#xc5;" horiz-adv-x="1351" d="M-86 0l16 51q94 0 176 74q31 29 101 121l926 1245l-60 -1225q-2 -43 -2 -63q0 -145 117 -146h59l-14 -57h-586l15 51h61q72 0 117 51q27 31 32 134l15 239h-430l-183 -244q-47 -63 -47 -116q0 -59 68 -60h41l-12 -55h-410zM508 547h383l33 567zM969 1683q0 66 46 111 t109 45q66 0 111 -45t45 -111q0 -63 -46 -108t-110 -45q-63 0 -109 45t-46 108zM1014 1683q0 -45 32.5 -76.5t77.5 -31.5t78 31.5t33 76.5q0 47 -32 79t-79 32q-45 0 -77.5 -31.5t-32.5 -79.5z" />
<glyph unicode="&#xc6;" horiz-adv-x="2048" d="M-141 0l16 51q66 0 119 37t135 133l887 1051q45 53 45 78q0 53 -121 53l21 51h1163l-92 -340h-37q8 31 8 68q0 209 -244 209h-338l-168 -580h125q299 0 396 221h45q-131 -293 -164 -540h-49q18 66 18 124q0 131 -182 132h-207l-145 -506q-14 -49 -15 -90q0 -59 76 -74 q27 -6 121 -6q244 0 379 57q178 74 274 272h47q-31 -72 -92 -223q-23 -59 -61 -178h-1194l14 51h39q90 0 132 40t75 157l76 278h-486l-229 -274q-66 -78 -66 -135q0 -61 64 -62h69l-12 -55h-442zM547 608h438l236 807z" />
<glyph unicode="&#xc7;" horiz-adv-x="1495" d="M162 559q0 246 151 471q141 207 363.5 336t433.5 129q160 0 320 -65q37 -14 77 -15q25 0 52.5 23.5t37.5 56.5h43q-39 -100 -79 -248q-25 -86 -45 -209l-54 -4q8 33 8 74q0 168 -98 254q-84 72 -221 72q-281 0 -521.5 -281t-240.5 -614q0 -217 141 -359 q133 -133 324 -133q145 0 281 74q127 70 198 176h51q-90 -145 -241.5 -234.5t-325.5 -101.5l-33 -39q94 -53 95 -137q0 -88 -97 -143q-86 -49 -198 -50q-84 0 -140 13l23 35q25 -8 72 -9q68 0 133 38t65 89q0 88 -170 88l123 117q-231 25 -377 180q-152 164 -151 416z" />
<glyph unicode="&#xc8;" horiz-adv-x="1433" d="M8 0l15 53q113 0 170 47q47 39 69 125l262 969q14 53 15 96q0 111 -162 111l20 53h1098l-84 -313h-45q6 31 6 65q0 199 -295 199h-282l-164 -604h96q238 0 313 92q55 66 70 117h35l-139 -506h-37q14 51 14 94q0 143 -176 143h-193l-137 -505q-14 -53 -14 -78 q0 -90 141 -90q291 0 404 53q66 31 221 194q41 43 69 84h43q-27 -61 -86 -202q-37 -94 -69 -197h-1178zM686 1796h197l100 -295h-29z" />
<glyph unicode="&#xc9;" horiz-adv-x="1433" d="M8 0l15 53q113 0 170 47q47 39 69 125l262 969q14 53 15 96q0 111 -162 111l20 53h1098l-84 -313h-45q6 31 6 65q0 199 -295 199h-282l-164 -604h96q238 0 313 92q55 66 70 117h35l-139 -506h-37q14 51 14 94q0 143 -176 143h-193l-137 -505q-14 -53 -14 -78 q0 -90 141 -90q291 0 404 53q66 31 221 194q41 43 69 84h43q-27 -61 -86 -202q-37 -94 -69 -197h-1178zM813 1501l98 295h197l-266 -295h-29z" />
<glyph unicode="&#xca;" horiz-adv-x="1433" d="M8 0l15 53q113 0 170 47q47 39 69 125l262 969q14 53 15 96q0 111 -162 111l20 53h1098l-84 -313h-45q6 31 6 65q0 199 -295 199h-282l-164 -604h96q238 0 313 92q55 66 70 117h35l-139 -506h-37q14 51 14 94q0 143 -176 143h-193l-137 -505q-14 -53 -14 -78 q0 -90 141 -90q291 0 404 53q66 31 221 194q41 43 69 84h43q-27 -61 -86 -202q-37 -94 -69 -197h-1178zM645 1511l250 289h145l78 -276h-16l-148 184l-286 -197h-23z" />
<glyph unicode="&#xcb;" horiz-adv-x="1433" d="M8 0l15 53q113 0 170 47q47 39 69 125l262 969q14 53 15 96q0 111 -162 111l20 53h1098l-84 -313h-45q6 31 6 65q0 199 -295 199h-282l-164 -604h96q238 0 313 92q55 66 70 117h35l-139 -506h-37q14 51 14 94q0 143 -176 143h-193l-137 -505q-14 -53 -14 -78 q0 -90 141 -90q291 0 404 53q66 31 221 194q41 43 69 84h43q-27 -61 -86 -202q-37 -94 -69 -197h-1178zM705 1616q0 37 26.5 63.5t63.5 26.5t63.5 -26.5t26.5 -63.5t-27 -63.5t-63 -26.5q-37 0 -63.5 26.5t-26.5 63.5zM1040 1616q0 37 27 63.5t63 26.5q37 0 64 -26.5 t27 -63.5t-27 -63.5t-64 -26.5t-63.5 26.5t-26.5 63.5z" />
<glyph unicode="&#xcc;" horiz-adv-x="798" d="M0 0l14 53q106 0 158 47q41 37 66 125l262 969q14 53 14 96q0 111 -162 111l21 53h585l-18 -55q-106 0 -158 -51q-37 -41 -65 -144l-264 -968q-14 -53 -15 -78q0 -47 29 -76t72 -29h53l-12 -53h-580zM463 1796h196l101 -295h-29z" />
<glyph unicode="&#xcd;" horiz-adv-x="798" d="M0 0l14 53q106 0 158 47q41 37 66 125l262 969q14 53 14 96q0 111 -162 111l21 53h585l-18 -55q-106 0 -158 -51q-37 -41 -65 -144l-264 -968q-14 -53 -15 -78q0 -47 29 -76t72 -29h53l-12 -53h-580zM637 1501l98 295h197l-266 -295h-29z" />
<glyph unicode="&#xce;" horiz-adv-x="798" d="M0 0l14 53q106 0 158 47q41 37 66 125l262 969q14 53 14 96q0 111 -162 111l21 53h585l-18 -55q-106 0 -158 -51q-37 -41 -65 -144l-264 -968q-14 -53 -15 -78q0 -47 29 -76t72 -29h53l-12 -53h-580zM428 1495l250 287h145l78 -275h-16l-148 185l-286 -197h-23z" />
<glyph unicode="&#xcf;" horiz-adv-x="798" d="M0 0l14 53q106 0 158 47q41 37 66 125l262 969q14 53 14 96q0 111 -162 111l21 53h585l-18 -55q-106 0 -158 -51q-37 -41 -65 -144l-264 -968q-14 -53 -15 -78q0 -47 29 -76t72 -29h53l-12 -53h-580zM420 1616q0 37 26.5 63.5t63.5 26.5t63.5 -26.5t26.5 -63.5 t-26.5 -63.5t-63.5 -26.5t-63.5 26.5t-26.5 63.5zM756 1616q0 37 26.5 63.5t63.5 26.5t63.5 -26.5t26.5 -63.5t-26.5 -63.5t-63.5 -26.5t-63.5 26.5t-26.5 63.5z" />
<glyph unicode="&#xd0;" horiz-adv-x="1576" d="M0 0l14 53q109 0 138 27q57 53 81 145l146 539h-203l31 100h199l90 330q14 53 14 96q0 111 -162 111l21 53h532q274 0 447 -172q165 -168 165 -422q0 -348 -262 -604t-604 -256h-647zM434 158q0 -98 129 -99q309 0 520 244q205 235 205 559q0 254 -118.5 387t-321.5 133 q-18 0 -92 -8l-138 -510h250l-30 -100h-246l-143 -528q-14 -53 -15 -78z" />
<glyph unicode="&#xd1;" horiz-adv-x="1556" d="M23 0l14 53q109 0 154 47t88 203l274 1006q-37 55 -74 71q-45 20 -162 21l21 53h383l444 -1077l219 792q16 59 17 123q0 82 -90 105q-25 6 -64 6l15 51h469l-13 -49q-127 0 -184 -47q-39 -33 -70 -144l-350 -1247l-510 1237l-250 -917q-27 -98 -26 -137q0 -96 94 -97h72 l-13 -53h-458zM750 1559q16 219 168 219q61 0 162.5 -63.5t136.5 -63.5q70 0 92 121h22q-20 -215 -184 -216q-63 0 -149.5 58.5t-125.5 58.5q-72 0 -100 -114h-22z" />
<glyph unicode="&#xd2;" horiz-adv-x="1576" d="M143 475q0 391 287 705.5t633 314.5q221 0 366.5 -159t145.5 -380q0 -379 -287 -688t-639 -309q-219 0 -364 154q-141 147 -142 362zM373 416q0 -147 71 -258q80 -121 207 -121q256 0 479 340q213 328 213 678q0 139 -82.5 246.5t-205.5 107.5q-252 0 -473 -342 q-209 -326 -209 -651zM887 1829h196l101 -295h-29z" />
<glyph unicode="&#xd3;" horiz-adv-x="1576" d="M143 475q0 391 287 705.5t633 314.5q221 0 366.5 -159t145.5 -380q0 -379 -287 -688t-639 -309q-219 0 -364 154q-141 147 -142 362zM373 416q0 -147 71 -258q80 -121 207 -121q256 0 479 340q213 328 213 678q0 139 -82.5 246.5t-205.5 107.5q-252 0 -473 -342 q-209 -326 -209 -651zM997 1546l99 295h196l-266 -295h-29z" />
<glyph unicode="&#xd4;" horiz-adv-x="1576" d="M143 475q0 391 287 705.5t633 314.5q221 0 366.5 -159t145.5 -380q0 -379 -287 -688t-639 -309q-219 0 -364 154q-141 147 -142 362zM373 416q0 -147 71 -258q80 -121 207 -121q256 0 479 340q213 328 213 678q0 139 -82.5 246.5t-205.5 107.5q-252 0 -473 -342 q-209 -326 -209 -651zM823 1528l250 287h146l77 -275h-16l-147 184l-287 -196h-23z" />
<glyph unicode="&#xd5;" horiz-adv-x="1576" d="M143 475q0 391 287 705.5t633 314.5q221 0 366.5 -159t145.5 -380q0 -379 -287 -688t-639 -309q-219 0 -364 154q-141 147 -142 362zM373 416q0 -147 71 -258q80 -121 207 -121q256 0 479 340q213 328 213 678q0 139 -82.5 246.5t-205.5 107.5q-252 0 -473 -342 q-209 -326 -209 -651zM750 1559q16 219 168 219q61 0 162.5 -63.5t136.5 -63.5q70 0 92 121h22q-20 -215 -184 -216q-63 0 -149.5 58.5t-125.5 58.5q-72 0 -100 -114h-22z" />
<glyph unicode="&#xd6;" horiz-adv-x="1576" d="M143 475q0 391 287 705.5t633 314.5q221 0 366.5 -159t145.5 -380q0 -379 -287 -688t-639 -309q-219 0 -364 154q-141 147 -142 362zM373 416q0 -147 71 -258q80 -121 207 -121q256 0 479 340q213 328 213 678q0 139 -82.5 246.5t-205.5 107.5q-252 0 -473 -342 q-209 -326 -209 -651zM823 1638q0 37 27 64t63 27q37 0 64 -27t27 -64t-27 -63.5t-64 -26.5t-63.5 27t-26.5 63zM1159 1638q0 37 26.5 64t63.5 27t63.5 -27t26.5 -64t-26.5 -63.5t-63.5 -26.5t-63.5 27t-26.5 63z" />
<glyph unicode="&#xd7;" horiz-adv-x="1187" d="M55 997l82 84l457 -467l457 467l82 -84l-457 -465l454 -464l-81 -82l-455 463l-455 -463l-82 82l455 462z" />
<glyph unicode="&#xd8;" horiz-adv-x="1556" d="M123 -55l153 164q-135 145 -135 366q0 385 295 702.5t641 317.5q223 0 363 -135l141 149l39 -34l-145 -154q123 -147 122 -367q0 -217 -135 -450.5t-348 -382.5q-229 -162 -467 -162q-197 0 -334 115l-151 -164zM371 416q0 -90 26 -176l934 1001q-78 176 -248 176 q-281 0 -505 -356q-207 -326 -207 -645zM420 188q78 -152 225 -151q207 0 385 182q154 158 250 410q90 231 90 428q0 68 -18 129z" />
<glyph unicode="&#xd9;" horiz-adv-x="1597" d="M260 377q0 96 35 225l160 592q14 53 14 96q0 111 -162 111l21 53h594l-19 -55q-121 0 -162 -33q-33 -25 -57 -113l-199 -718q-20 -74 -20 -160q0 -150 96 -230q84 -72 223 -71q330 0 455 438l180 637q20 72 21 143q0 111 -158 111l14 51h420l-12 -49q-152 0 -205 -191 l-203 -718q-68 -238 -204 -379q-154 -158 -369 -158q-193 0 -324 111q-139 117 -139 307zM860 1810h197l100 -294h-29z" />
<glyph unicode="&#xda;" horiz-adv-x="1597" d="M260 377q0 96 35 225l160 592q14 53 14 96q0 111 -162 111l21 53h594l-19 -55q-121 0 -162 -33q-33 -25 -57 -113l-199 -718q-20 -74 -20 -160q0 -150 96 -230q84 -72 223 -71q330 0 455 438l180 637q20 72 21 143q0 111 -158 111l14 51h420l-12 -49q-152 0 -205 -191 l-203 -718q-68 -238 -204 -379q-154 -158 -369 -158q-193 0 -324 111q-139 117 -139 307zM1026 1501l98 295h197l-266 -295h-29z" />
<glyph unicode="&#xdb;" horiz-adv-x="1597" d="M260 377q0 96 35 225l160 592q14 53 14 96q0 111 -162 111l21 53h594l-19 -55q-121 0 -162 -33q-33 -25 -57 -113l-199 -718q-20 -74 -20 -160q0 -150 96 -230q84 -72 223 -71q330 0 455 438l180 637q20 72 21 143q0 111 -158 111l14 51h420l-12 -49q-152 0 -205 -191 l-203 -718q-68 -238 -204 -379q-154 -158 -369 -158q-193 0 -324 111q-139 117 -139 307zM823 1528l250 287h146l77 -275h-16l-147 184l-287 -196h-23z" />
<glyph unicode="&#xdc;" horiz-adv-x="1597" d="M260 377q0 96 35 225l160 592q14 53 14 96q0 111 -162 111l21 53h594l-19 -55q-121 0 -162 -33q-33 -25 -57 -113l-199 -718q-20 -74 -20 -160q0 -150 96 -230q84 -72 223 -71q330 0 455 438l180 637q20 72 21 143q0 111 -158 111l14 51h420l-12 -49q-152 0 -205 -191 l-203 -718q-68 -238 -204 -379q-154 -158 -369 -158q-193 0 -324 111q-139 117 -139 307zM836 1616q0 37 26.5 63.5t63.5 26.5t63.5 -26.5t26.5 -63.5t-26.5 -63.5t-63.5 -26.5t-63.5 26.5t-26.5 63.5zM1171 1616q0 37 27 63.5t64 26.5t63.5 -26.5t26.5 -63.5t-27 -63.5 t-63 -26.5q-37 0 -64 26.5t-27 63.5z" />
<glyph unicode="&#xdd;" horiz-adv-x="1454" d="M293 1407l2 47h608l-18 -49q-139 0 -140 -90q0 -31 11 -62l153 -469l361 465q47 61 47 111q0 43 -139 43l14 51h461l-6 -43q-98 0 -168 -45q-51 -33 -111 -111l-446 -583l-119 -436q-14 -53 -15 -78q0 -47 29 -76t72 -29h65l-12 -53h-620l14 53q205 0 252 172l133 484 l-143 421q-57 170 -129 230q-55 47 -156 47zM901 1526l100 295h197l-266 -295h-31z" />
<glyph unicode="&#xde;" horiz-adv-x="1269" d="M12 0l15 53q115 0 168 45q43 37 65 127l242 969q12 49 12 96q0 111 -162 111l21 53h585l-18 -55q-106 0 -154 -51q-37 -39 -59 -144l-20 -90l223 -2q147 -2 225 -51q119 -80 119 -283q0 -184 -180 -313q-164 -117 -349 -117q-123 0 -225 33l-20 -74q-33 -119 -33 -149 q0 -68 57 -86q31 -10 119 -11l-29 -61h-602zM541 457q66 -31 135 -31q158 0 273.5 110.5t115.5 262.5q0 111 -57 176q-63 72 -181 72h-131z" />
<glyph unicode="&#xdf;" horiz-adv-x="1085" d="M-348 -360q0 80 74 79q51 0 51 -59q0 -10 -4 -23.5t-4 -21.5q0 -23 34 -23q186 0 291 506l131 641q76 367 178 547q143 250 383 250q117 0 196 -86t79 -211q0 -303 -299 -365q281 -162 280 -454q0 -180 -121.5 -320.5t-285.5 -140.5q-86 0 -150 41q-70 47 -69 121 q0 37 21.5 63.5t56.5 26.5q59 0 59 -72q0 -16 -8 -40.5t-8 -37.5q0 -57 75 -57q102 0 183 146q78 139 77 301q0 268 -278 413l4 37q135 0 223 107q82 100 82 239q0 94 -39 160q-45 76 -125 76q-188 0 -303 -504l-141 -621q-98 -434 -217 -618q-125 -195 -322 -195 q-43 0 -73.5 27t-30.5 68z" />
<glyph unicode="&#xe0;" d="M68 211q0 276 213 549q207 264 399 264q139 0 182 -131l31 115l156 16l-175 -651q-55 -207 -55 -254q0 -37 33 -37q74 0 149 143h54q-41 -94 -117 -168q-94 -94 -197 -94q-90 0 -90 98q0 72 41 220q-94 -135 -198 -222q-121 -100 -220 -100q-98 0 -155 82q-51 72 -51 170 zM233 252q0 -61 25 -102q33 -53 92 -54q170 0 326 264q141 238 141 422q0 72 -29 123q-33 61 -92 62q-143 0 -303 -245t-160 -470zM578 1413h196l100 -295h-28z" />
<glyph unicode="&#xe1;" d="M68 211q0 276 213 549q207 264 399 264q139 0 182 -131l31 115l156 16l-175 -651q-55 -207 -55 -254q0 -37 33 -37q74 0 149 143h54q-41 -94 -117 -168q-94 -94 -197 -94q-90 0 -90 98q0 72 41 220q-94 -135 -198 -222q-121 -100 -220 -100q-98 0 -155 82q-51 72 -51 170 zM233 252q0 -61 25 -102q33 -53 92 -54q170 0 326 264q141 238 141 422q0 72 -29 123q-33 61 -92 62q-143 0 -303 -245t-160 -470zM682 1118l98 295h197l-266 -295h-29z" />
<glyph unicode="&#xe2;" d="M68 211q0 276 213 549q207 264 399 264q139 0 182 -131l31 115l156 16l-175 -651q-55 -207 -55 -254q0 -37 33 -37q74 0 149 143h54q-41 -94 -117 -168q-94 -94 -197 -94q-90 0 -90 98q0 72 41 220q-94 -135 -198 -222q-121 -100 -220 -100q-98 0 -155 82q-51 72 -51 170 zM233 252q0 -61 25 -102q33 -53 92 -54q170 0 326 264q141 238 141 422q0 72 -29 123q-33 61 -92 62q-143 0 -303 -245t-160 -470zM483 1124l250 289h146l77 -274h-16l-147 182l-287 -197h-23z" />
<glyph unicode="&#xe3;" d="M68 211q0 276 213 549q207 264 399 264q139 0 182 -131l31 115l156 16l-175 -651q-55 -207 -55 -254q0 -37 33 -37q74 0 149 143h54q-41 -94 -117 -168q-94 -94 -197 -94q-90 0 -90 98q0 72 41 220q-94 -135 -198 -222q-121 -100 -220 -100q-98 0 -155 82q-51 72 -51 170 zM233 252q0 -61 25 -102q33 -53 92 -54q170 0 326 264q141 238 141 422q0 72 -29 123q-33 61 -92 62q-143 0 -303 -245t-160 -470zM487 1155q16 219 168 219q61 0 163 -63.5t136 -63.5q70 0 93 121h22q-20 -215 -184 -215q-63 0 -149.5 58.5t-125.5 58.5q-72 0 -100 -115 h-23z" />
<glyph unicode="&#xe4;" d="M68 211q0 276 213 549q207 264 399 264q139 0 182 -131l31 115l156 16l-175 -651q-55 -207 -55 -254q0 -37 33 -37q74 0 149 143h54q-41 -94 -117 -168q-94 -94 -197 -94q-90 0 -90 98q0 72 41 220q-94 -135 -198 -222q-121 -100 -220 -100q-98 0 -155 82q-51 72 -51 170 zM233 252q0 -61 25 -102q33 -53 92 -54q170 0 326 264q141 238 141 422q0 72 -29 123q-33 61 -92 62q-143 0 -303 -245t-160 -470zM514 1233q0 37 26.5 63.5t63.5 26.5t63.5 -26.5t26.5 -63.5t-26.5 -63.5t-63.5 -26.5t-63.5 26.5t-26.5 63.5zM850 1233q0 37 26.5 63.5 t63.5 26.5t63.5 -26.5t26.5 -63.5t-26.5 -63.5t-63.5 -26.5t-63.5 26.5t-26.5 63.5z" />
<glyph unicode="&#xe5;" d="M68 211q0 276 213 549q207 264 399 264q139 0 182 -131l31 115l156 16l-175 -651q-55 -207 -55 -254q0 -37 33 -37q74 0 149 143h54q-41 -94 -117 -168q-94 -94 -197 -94q-90 0 -90 98q0 72 41 220q-94 -135 -198 -222q-121 -100 -220 -100q-98 0 -155 82q-51 72 -51 170 zM233 252q0 -61 25 -102q33 -53 92 -54q170 0 326 264q141 238 141 422q0 72 -29 123q-33 61 -92 62q-143 0 -303 -245t-160 -470zM580 1260q0 66 46 110.5t109 44.5q66 0 111 -44.5t45 -110.5q0 -63 -46 -108.5t-110 -45.5q-63 0 -109 45t-46 109zM625 1260q0 -45 32.5 -77 t77.5 -32t78 32t33 77q0 47 -32 78.5t-79 31.5q-45 0 -77.5 -31.5t-32.5 -78.5z" />
<glyph unicode="&#xe6;" horiz-adv-x="1249" d="M57 203q0 238 210 529.5t395 291.5q131 0 143 -145l33 110l129 12l-39 -145q119 168 246 168q59 0 98 -45t39 -115q0 -131 -129 -248q-135 -121 -365 -186q-20 -88 -20 -154q0 -215 141 -215q39 0 90 43q59 49 94 132h47q-43 -98 -127 -179q-100 -98 -202 -98 q-209 0 -209 268q0 70 10 115q-84 -145 -190 -252q-131 -131 -238 -131q-78 0 -121 78q-35 66 -35 166zM227 201q0 -47 22.5 -84t61.5 -37q127 0 289 276t162 475q0 135 -90 136q-150 0 -303 -305q-141 -279 -142 -461zM834 485q143 53 243 164q107 119 107 244q0 76 -70 76 q-61 0 -135 -107q-92 -135 -145 -377z" />
<glyph unicode="&#xe7;" horiz-adv-x="860" d="M63 -395l23 35q25 -8 72 -9q70 0 125 31q63 35 63 86q0 98 -160 98l142 115q-115 14 -186.5 106.5t-71.5 225.5q0 266 211 502q203 229 411 229q193 0 193 -174q0 -55 -23 -96q-29 -45 -74 -45q-74 0 -73 79q0 43 43 74q25 18 24 56q0 59 -108 59q-143 0 -283.5 -216 t-140.5 -435q0 -121 51 -195t148 -74q172 0 284 174h47q-31 -70 -114 -141q-94 -84 -197 -115l-72 -57q92 -53 92 -141t-92 -139q-82 -45 -194 -46q-84 0 -140 13z" />
<glyph unicode="&#xe8;" horiz-adv-x="942" d="M61 295q0 270 220 504q211 225 438 225q219 0 219 -168q0 -176 -219 -301q-205 -119 -447 -119q-14 -37 -14 -119q0 -106 53 -172q59 -76 170 -75q47 0 117 30q82 37 143 99h45q-57 -82 -159 -150q-133 -90 -258 -90q-133 0 -220.5 94t-87.5 242zM281 487 q199 0 346 108.5t147 272.5q0 104 -100 105q-127 0 -246 -166q-96 -137 -147 -320zM516 1413h197l100 -295h-29z" />
<glyph unicode="&#xe9;" horiz-adv-x="942" d="M61 295q0 270 220 504q211 225 438 225q219 0 219 -168q0 -176 -219 -301q-205 -119 -447 -119q-14 -37 -14 -119q0 -106 53 -172q59 -76 170 -75q47 0 117 30q82 37 143 99h45q-57 -82 -159 -150q-133 -90 -258 -90q-133 0 -220.5 94t-87.5 242zM281 487 q199 0 346 108.5t147 272.5q0 104 -100 105q-127 0 -246 -166q-96 -137 -147 -320zM682 1118l98 295h197l-266 -295h-29z" />
<glyph unicode="&#xea;" horiz-adv-x="942" d="M61 295q0 270 220 504q211 225 438 225q219 0 219 -168q0 -176 -219 -301q-205 -119 -447 -119q-14 -37 -14 -119q0 -106 53 -172q59 -76 170 -75q47 0 117 30q82 37 143 99h45q-57 -82 -159 -150q-133 -90 -258 -90q-133 0 -220.5 94t-87.5 242zM281 487 q199 0 346 108.5t147 272.5q0 104 -100 105q-127 0 -246 -166q-96 -137 -147 -320zM436 1083l250 289h145l78 -276h-16l-148 184l-286 -197h-23z" />
<glyph unicode="&#xeb;" horiz-adv-x="942" d="M61 295q0 270 220 504q211 225 438 225q219 0 219 -168q0 -176 -219 -301q-205 -119 -447 -119q-14 -37 -14 -119q0 -106 53 -172q59 -76 170 -75q47 0 117 30q82 37 143 99h45q-57 -82 -159 -150q-133 -90 -258 -90q-133 0 -220.5 94t-87.5 242zM281 487 q199 0 346 108.5t147 272.5q0 104 -100 105q-127 0 -246 -166q-96 -137 -147 -320zM514 1233q0 37 26.5 63.5t63.5 26.5t63.5 -26.5t26.5 -63.5t-26.5 -63.5t-63.5 -26.5t-63.5 26.5t-26.5 63.5zM850 1233q0 37 26.5 63.5t63.5 26.5t63.5 -26.5t26.5 -63.5t-26.5 -63.5 t-63.5 -26.5t-63.5 26.5t-26.5 63.5z" />
<glyph unicode="&#xec;" horiz-adv-x="634" d="M127 80q0 20 25 110l165 609q10 37 11 63q0 72 -68 72q-31 0 -78 -10l13 47l342 53l-234 -838q-8 -29 -8 -59q0 -55 31 -55q55 0 153 145h49q-164 -258 -305 -258q-47 0 -71.5 37t-24.5 84zM229 1413h197l100 -295h-28z" />
<glyph unicode="&#xed;" horiz-adv-x="634" d="M127 80q0 20 25 110l165 609q10 37 11 63q0 72 -68 72q-31 0 -78 -10l13 47l342 53l-234 -838q-8 -29 -8 -59q0 -55 31 -55q55 0 153 145h49q-164 -258 -305 -258q-47 0 -71.5 37t-24.5 84zM410 1118l98 295h197l-267 -295h-28z" />
<glyph unicode="&#xee;" horiz-adv-x="634" d="M127 80q0 20 25 110l165 609q10 37 11 63q0 72 -68 72q-31 0 -78 -10l13 47l342 53l-234 -838q-8 -29 -8 -59q0 -55 31 -55q55 0 153 145h49q-164 -258 -305 -258q-47 0 -71.5 37t-24.5 84zM162 1090l250 288h145l78 -276h-17l-147 184l-287 -196h-22z" />
<glyph unicode="&#xef;" horiz-adv-x="634" d="M127 80q0 20 25 110l165 609q10 37 11 63q0 72 -68 72q-31 0 -78 -10l13 47l342 53l-234 -838q-8 -29 -8 -59q0 -55 31 -55q55 0 153 145h49q-164 -258 -305 -258q-47 0 -71.5 37t-24.5 84zM193 1233q0 37 26.5 63.5t63.5 26.5t63.5 -26.5t26.5 -63.5t-27 -63.5 t-63 -26.5q-37 0 -63.5 26.5t-26.5 63.5zM528 1233q0 37 27 63.5t63 26.5q37 0 64 -26.5t27 -63.5t-27 -63.5t-64 -26.5t-63.5 26.5t-26.5 63.5z" />
<glyph unicode="&#xf0;" horiz-adv-x="1064" d="M78 305q0 274 203 500q199 219 428 219q72 0 139 -39q-20 162 -64 252l-258 -131l-37 68l254 129q-70 86 -194 86q-86 0 -187 -31l-40 63q156 49 245 49q164 0 275 -116l116 59l37 -67l-104 -54q123 -188 123 -501q0 -58 -4 -115q-23 -260 -230 -494q-195 -223 -368 -223 q-145 0 -242 107q-92 100 -92 239zM254 229q0 -86 37 -141q47 -68 135 -68q211 0 330 306q84 219 84 407q0 98 -37 162q-45 76 -135 76q-160 0 -289 -246q-125 -236 -125 -496z" />
<glyph unicode="&#xf1;" horiz-adv-x="1167" d="M86 0l209 778q16 61 16 80q0 27 -24.5 45.5t-55.5 18.5q-39 0 -75 -15l10 51l346 64l-129 -487q322 489 518 489q49 0 84 -40t35 -110q0 -57 -29 -161l-131 -477q-18 -68 -18 -105q0 -45 35 -45q45 0 137 137h43q-33 -76 -115 -160q-100 -104 -180 -104q-90 0 -90 115 q0 14 16 78l158 604q10 39 10 78q0 66 -47 65q-80 0 -291 -262q-154 -190 -225 -432l-62 -205h-145zM426 1155q16 219 168 219q61 0 162.5 -63.5t136.5 -63.5q70 0 92 121h23q-20 -215 -185 -215q-63 0 -149 58.5t-125 58.5q-72 0 -100 -115h-23z" />
<glyph unicode="&#xf2;" horiz-adv-x="1064" d="M78 305q0 274 203 500q199 219 428 219q141 0 225 -106q76 -99 76 -242q0 -268 -217 -502q-201 -215 -381 -215q-145 0 -242 107q-92 100 -92 239zM254 229q0 -86 37 -141q47 -68 135 -68q211 0 330 306q84 219 84 407q0 98 -37 162q-45 76 -135 76q-160 0 -289 -246 q-125 -236 -125 -496zM516 1413h197l100 -295h-29z" />
<glyph unicode="&#xf3;" horiz-adv-x="1064" d="M78 305q0 274 203 500q199 219 428 219q141 0 225 -106q76 -99 76 -242q0 -268 -217 -502q-201 -215 -381 -215q-145 0 -242 107q-92 100 -92 239zM254 229q0 -86 37 -141q47 -68 135 -68q211 0 330 306q84 219 84 407q0 98 -37 162q-45 76 -135 76q-160 0 -289 -246 q-125 -236 -125 -496zM682 1118l98 295h197l-266 -295h-29z" />
<glyph unicode="&#xf4;" horiz-adv-x="1064" d="M78 305q0 274 203 500q199 219 428 219q141 0 225 -106q76 -99 76 -242q0 -268 -217 -502q-201 -215 -381 -215q-145 0 -242 107q-92 100 -92 239zM254 229q0 -86 37 -141q47 -68 135 -68q211 0 330 306q84 219 84 407q0 98 -37 162q-45 76 -135 76q-160 0 -289 -246 q-125 -236 -125 -496zM467 1083l250 289h145l78 -276h-16l-148 184l-287 -197h-22z" />
<glyph unicode="&#xf5;" horiz-adv-x="1064" d="M78 305q0 274 203 500q199 219 428 219q141 0 225 -106q76 -99 76 -242q0 -268 -217 -502q-201 -215 -381 -215q-145 0 -242 107q-92 100 -92 239zM254 229q0 -86 37 -141q47 -68 135 -68q211 0 330 306q84 219 84 407q0 98 -37 162q-45 76 -135 76q-160 0 -289 -246 q-125 -236 -125 -496zM426 1135q16 219 168 219q61 0 162.5 -63.5t136.5 -63.5q70 0 92 121h23q-20 -215 -185 -215q-63 0 -149 58t-125 58q-72 0 -100 -114h-23z" />
<glyph unicode="&#xf6;" horiz-adv-x="1064" d="M78 305q0 274 203 500q199 219 428 219q141 0 225 -106q76 -99 76 -242q0 -268 -217 -502q-201 -215 -381 -215q-145 0 -242 107q-92 100 -92 239zM254 229q0 -86 37 -141q47 -68 135 -68q211 0 330 306q84 219 84 407q0 98 -37 162q-45 76 -135 76q-160 0 -289 -246 q-125 -236 -125 -496zM453 1233q0 37 26.5 63.5t63.5 26.5t63.5 -26.5t26.5 -63.5t-26.5 -63.5t-63.5 -26.5t-63.5 26.5t-26.5 63.5zM788 1233q0 37 27 63.5t64 26.5t63.5 -26.5t26.5 -63.5t-27 -63.5t-63 -26.5q-37 0 -64 26.5t-27 63.5z" />
<glyph unicode="&#xf7;" horiz-adv-x="1187" d="M47 479v117h1100v-117h-1100zM504 295q0 37 26.5 63.5t63.5 26.5t63.5 -26.5t26.5 -63.5t-26.5 -63.5t-63.5 -26.5t-63.5 26.5t-26.5 63.5zM504 782q0 37 26.5 63.5t63.5 26.5t63.5 -26.5t26.5 -63.5t-26.5 -63.5t-63.5 -26.5t-63.5 26.5t-26.5 63.5z" />
<glyph unicode="&#xf8;" horiz-adv-x="1044" d="M76 309q0 272 211 498q203 217 434 217q102 0 178 -59l98 122l35 -32l-100 -123q92 -98 92 -260q0 -223 -190 -461q-199 -252 -418 -252q-135 0 -219 68l-80 -101l-35 33l80 100q-86 94 -86 250zM254 229q0 -37 2 -55l569 700q-41 92 -145 93q-168 0 -299 -244 q-127 -233 -127 -494zM270 117q37 -98 168 -99q197 0 320 293q96 227 96 420q0 45 -10 92z" />
<glyph unicode="&#xf9;" horiz-adv-x="1146" d="M119 764q29 82 108 164q96 96 191 96q35 0 59.5 -27.5t24.5 -74.5q0 -39 -15 -95l-157 -612q-8 -33 -8 -57q0 -68 61 -68q82 0 295 299q106 147 158 301l106 314h145l-210 -773q-14 -53 -15 -92q0 -61 39 -61q45 0 143 147h46q-174 -266 -299 -266q-84 0 -84 115 q0 68 38 213l58 215l-137 -207q-223 -336 -387 -336q-115 0 -115 143q0 68 41 226l121 465q10 39 10 61q0 47 -35 47q-51 0 -137 -137h-45zM516 1413h197l100 -295h-29z" />
<glyph unicode="&#xfa;" horiz-adv-x="1146" d="M119 764q29 82 108 164q96 96 191 96q35 0 59.5 -27.5t24.5 -74.5q0 -39 -15 -95l-157 -612q-8 -33 -8 -57q0 -68 61 -68q82 0 295 299q106 147 158 301l106 314h145l-210 -773q-14 -53 -15 -92q0 -61 39 -61q45 0 143 147h46q-174 -266 -299 -266q-84 0 -84 115 q0 68 38 213l58 215l-137 -207q-223 -336 -387 -336q-115 0 -115 143q0 68 41 226l121 465q10 39 10 61q0 47 -35 47q-51 0 -137 -137h-45zM682 1118l98 295h197l-266 -295h-29z" />
<glyph unicode="&#xfb;" horiz-adv-x="1146" d="M119 764q29 82 108 164q96 96 191 96q35 0 59.5 -27.5t24.5 -74.5q0 -39 -15 -95l-157 -612q-8 -33 -8 -57q0 -68 61 -68q82 0 295 299q106 147 158 301l106 314h145l-210 -773q-14 -53 -15 -92q0 -61 39 -61q45 0 143 147h46q-174 -266 -299 -266q-84 0 -84 115 q0 68 38 213l58 215l-137 -207q-223 -336 -387 -336q-115 0 -115 143q0 68 41 226l121 465q10 39 10 61q0 47 -35 47q-51 0 -137 -137h-45zM483 1124l250 289h146l77 -274h-16l-147 182l-287 -197h-23z" />
<glyph unicode="&#xfc;" horiz-adv-x="1146" d="M119 764q29 82 108 164q96 96 191 96q35 0 59.5 -27.5t24.5 -74.5q0 -39 -15 -95l-157 -612q-8 -33 -8 -57q0 -68 61 -68q82 0 295 299q106 147 158 301l106 314h145l-210 -773q-14 -53 -15 -92q0 -61 39 -61q45 0 143 147h46q-174 -266 -299 -266q-84 0 -84 115 q0 68 38 213l58 215l-137 -207q-223 -336 -387 -336q-115 0 -115 143q0 68 41 226l121 465q10 39 10 61q0 47 -35 47q-51 0 -137 -137h-45zM473 1233q0 37 26.5 63.5t63.5 26.5t63.5 -26.5t26.5 -63.5t-26.5 -63.5t-63.5 -26.5t-63.5 26.5t-26.5 63.5zM809 1233 q0 37 26.5 63.5t63.5 26.5t63.5 -26.5t26.5 -63.5t-26.5 -63.5t-63.5 -26.5t-63.5 26.5t-26.5 63.5z" />
<glyph unicode="&#xfd;" horiz-adv-x="1024" d="M-53 -330q0 45 31.5 79t76.5 34t64 -53q6 -18 24 -19q20 0 70 43q66 55 125 144l-23 565q-12 299 -51 391q-29 68 -104 68q-37 0 -78 -13v52q55 2 119 14q98 18 174 47q74 -88 86 -344l26 -584q174 223 289 422q111 188 111 252q0 27 -45 43q-74 29 -74 107 q0 43 25.5 74.5t66.5 31.5q53 0 84 -53q27 -46 27 -109q0 -139 -205 -463q-184 -295 -412 -549q-236 -266 -321 -266q-86 0 -86 86zM469 1118l100 295h197l-266 -295h-31z" />
<glyph unicode="&#xfe;" horiz-adv-x="1064" d="M-135 -371l12 54q66 0 98 28q43 35 72 144l350 1316q18 70 19 103q0 86 -60 86q-43 0 -71 -17l10 56q41 4 121 18q102 18 211 51l-189 -708q170 264 365 264q98 0 153.5 -81t55.5 -206q0 -276 -203 -532q-195 -246 -385 -246q-90 0 -178 61l-47 -167q-8 -31 -9 -60 q0 -111 160 -110l-12 -54h-473zM266 86q66 -72 152 -72q193 0 321 293q99 225 99 395q0 84 -29 142q-37 68 -102 67q-92 0 -186.5 -123.5t-137.5 -277.5z" />
<glyph unicode="&#xff;" horiz-adv-x="1024" d="M-53 -330q0 45 31.5 79t76.5 34t64 -53q6 -18 24 -19q20 0 70 43q66 55 125 144l-23 565q-12 299 -51 391q-29 68 -104 68q-37 0 -78 -13v52q55 2 119 14q98 18 174 47q74 -88 86 -344l26 -584q174 223 289 422q111 188 111 252q0 27 -45 43q-74 29 -74 107 q0 43 25.5 74.5t66.5 31.5q53 0 84 -53q27 -46 27 -109q0 -139 -205 -463q-184 -295 -412 -549q-236 -266 -321 -266q-86 0 -86 86zM334 1233q0 37 26.5 63.5t63.5 26.5t63.5 -26.5t26.5 -63.5t-26.5 -63.5t-63.5 -26.5t-63.5 26.5t-26.5 63.5zM670 1233q0 37 26.5 63.5 t63.5 26.5t63.5 -26.5t26.5 -63.5t-26.5 -63.5t-63.5 -26.5t-63.5 26.5t-26.5 63.5z" />
<glyph unicode="&#x152;" horiz-adv-x="2252" d="M141 504q0 211 119 430q123 231 328 373q227 160 493 159q47 0 157 -6t142 -6h955l-86 -330h-45q4 20 4 58q0 209 -322 209h-256l-170 -580h178q92 0 136 10q66 18 112.5 72.5t63.5 110.5h43l-144 -500h-41q14 51 15 94q0 143 -176 143h-207l-146 -505q-16 -57 -16 -91 q0 -47 45 -65.5t160 -18.5q223 0 364 66q160 76 279 262h47q-31 -66 -94 -211q-35 -92 -64 -178h-1052q-53 0 -139.5 -5t-123.5 -5q-270 0 -419 149q-139 139 -140 365zM383 428q0 -186 94 -281q82 -82 223 -81q293 0 443 421q168 473 168 676q0 117 -76 178q-63 51 -162 52 q-313 0 -516 -340q-174 -293 -174 -625z" />
<glyph unicode="&#x153;" horiz-adv-x="1269" d="M84 287q0 242 193.5 489.5t377.5 247.5q139 0 199 -182q141 182 311 182q154 0 154 -150q0 -129 -123 -241q-143 -129 -389 -172q-51 -152 -51 -252q0 -143 127 -143q45 0 125 49q90 55 141 131h53q-78 -104 -178 -183q-135 -104 -246 -104q-135 0 -182 145 q-123 -145 -258 -145q-123 0 -193 102q-61 92 -61 226zM254 199q0 -184 119 -185q131 0 258 338q108 295 108 477q0 139 -110 140q-131 0 -256 -271q-119 -260 -119 -499zM817 506q170 20 285 156q100 116 100 231q0 76 -76 76q-152 0 -309 -463z" />
<glyph unicode="&#x178;" horiz-adv-x="1454" d="M293 1407l2 47h608l-18 -49q-139 0 -140 -90q0 -31 11 -62l153 -469l361 465q47 61 47 111q0 43 -139 43l14 51h461l-6 -43q-98 0 -168 -45q-51 -33 -111 -111l-446 -583l-119 -436q-14 -53 -15 -78q0 -47 29 -76t72 -29h65l-12 -53h-620l14 53q205 0 252 172l133 484 l-143 421q-57 170 -129 230q-55 47 -156 47zM770 1616q0 37 26.5 63.5t63.5 26.5t63.5 -26.5t26.5 -63.5t-26.5 -63.5t-63.5 -26.5t-63.5 26.5t-26.5 63.5zM1106 1616q0 37 26.5 63.5t63.5 26.5t63.5 -26.5t26.5 -63.5t-26.5 -63.5t-63.5 -26.5t-63.5 26.5t-26.5 63.5z" />
<glyph unicode="&#x2c6;" horiz-adv-x="681" d="M92 1098l250 286h145l78 -274h-16l-148 184l-286 -196h-23z" />
<glyph unicode="&#x2dc;" horiz-adv-x="681" d="M111 1145q16 219 168 219q61 0 162.5 -63.5t136.5 -63.5q70 0 92 121h20q-16 -215 -182 -215q-63 0 -149.5 58.5t-127.5 58.5q-74 0 -98 -115h-22z" />
<glyph unicode="&#x2000;" horiz-adv-x="920" />
<glyph unicode="&#x2001;" horiz-adv-x="1841" />
<glyph unicode="&#x2002;" horiz-adv-x="920" />
<glyph unicode="&#x2003;" horiz-adv-x="1841" />
<glyph unicode="&#x2004;" horiz-adv-x="613" />
<glyph unicode="&#x2005;" horiz-adv-x="460" />
<glyph unicode="&#x2006;" horiz-adv-x="306" />
<glyph unicode="&#x2007;" horiz-adv-x="306" />
<glyph unicode="&#x2008;" horiz-adv-x="230" />
<glyph unicode="&#x2009;" horiz-adv-x="368" />
<glyph unicode="&#x200a;" horiz-adv-x="102" />
<glyph unicode="&#x2010;" horiz-adv-x="614" d="M82 438l27 150h479l-27 -150h-479z" />
<glyph unicode="&#x2011;" horiz-adv-x="614" d="M82 438l27 150h479l-27 -150h-479z" />
<glyph unicode="&#x2012;" horiz-adv-x="614" d="M82 438l27 150h479l-27 -150h-479z" />
<glyph unicode="&#x2013;" d="M63 438l27 150h971l-27 -150h-971z" />
<glyph unicode="&#x2014;" horiz-adv-x="2211" d="M82 438l27 150h2076l-26 -150h-2077z" />
<glyph unicode="&#x2018;" horiz-adv-x="552" d="M350 1190q0 104 105 203q86 78 188 116l29 -41q-80 -37 -127 -86t-47 -82q0 -29 24 -63q33 -47 33 -84q0 -41 -28.5 -70.5t-69.5 -29.5q-47 0 -78 45q-29 39 -29 92z" />
<glyph unicode="&#x2019;" horiz-adv-x="552" d="M270 1079q80 37 131 88q43 47 43 80q0 29 -24 64q-33 47 -33 84q0 41 28.5 70.5t69.5 29.5q47 0 77 -42t30 -95q0 -104 -105 -203q-86 -78 -188 -117z" />
<glyph unicode="&#x201a;" horiz-adv-x="552" d="M41 -246q156 92 156 183q0 29 -45 69q-35 31 -35 82q0 41 28.5 70.5t69.5 29.5q49 0 79 -41t30 -94q0 -104 -93 -207q-72 -82 -165 -127z" />
<glyph unicode="&#x201c;" horiz-adv-x="942" d="M309 1176q0 104 105 202q86 78 188 117l29 -41q-80 -37 -127 -86t-47 -82q0 -29 24 -63q33 -47 33 -84q0 -41 -28.5 -71t-69.5 -30q-47 0 -78 45q-29 39 -29 93zM705 1176q0 104 104 202q86 78 188 117l29 -41q-80 -37 -127 -86t-47 -82q0 -29 25 -63q33 -47 32 -84 q0 -41 -28.5 -71t-69.5 -30q-47 0 -78 45q-29 39 -28 93z" />
<glyph unicode="&#x201d;" horiz-adv-x="901" d="M289 1079q80 37 131 88q43 47 43 80q0 29 -25 64q-33 47 -32 84q0 41 28.5 70.5t69.5 29.5q47 0 76.5 -42t29.5 -95q0 -104 -104 -203q-86 -78 -189 -117zM684 1079q80 37 131 88q43 47 43 80q0 29 -24 64q-33 47 -33 84q0 41 28.5 70.5t69.5 29.5q47 0 77 -42t30 -95 q0 -104 -105 -203q-86 -78 -188 -117z" />
<glyph unicode="&#x201e;" horiz-adv-x="833" d="M41 -246q156 92 156 183q0 29 -45 69q-35 31 -35 82q0 41 28.5 70.5t69.5 29.5q49 0 79 -41t30 -94q0 -104 -93 -207q-72 -82 -165 -127zM338 -246q156 92 156 183q0 29 -45 69q-35 31 -35 82q0 41 28.5 70.5t69.5 29.5q49 0 79 -41t30 -94q0 -104 -93 -207 q-72 -82 -166 -127z" />
<glyph unicode="&#x2022;" horiz-adv-x="716" d="M104 674q0 104 75 179t179 75t179 -75t75 -179t-74.5 -179t-179.5 -75q-104 0 -179 74.5t-75 179.5z" />
<glyph unicode="&#x2026;" horiz-adv-x="2048" d="M260 63q0 35 23.5 57.5t56.5 22.5q78 0 80 -80q0 -35 -22.5 -57t-55.5 -22q-35 0 -58.5 23.5t-23.5 55.5zM942 63q0 33 23.5 56.5t58.5 23.5t57.5 -22.5t22.5 -57.5q0 -33 -23.5 -56t-58.5 -23q-33 0 -56.5 23.5t-23.5 55.5zM942 63q0 -33 23.5 -56t58.5 -23 q33 0 55.5 22t22.5 57q-2 80 -80 80q-33 0 -56.5 -22.5t-23.5 -57.5zM1624 63q0 35 23.5 57.5t56.5 22.5q35 0 58.5 -23.5t23.5 -56.5t-22.5 -56t-57.5 -23t-58.5 23.5t-23.5 55.5z" />
<glyph unicode="&#x202f;" horiz-adv-x="368" />
<glyph unicode="&#x2039;" horiz-adv-x="655" d="M139 492q154 158 498 520h45l-367 -512l129 -520h-43q-141 322 -262 512z" />
<glyph unicode="&#x203a;" horiz-adv-x="655" d="M23 -20l366 512l-129 520h43q141 -322 262 -512q-137 -145 -497 -520h-45z" />
<glyph unicode="&#x205f;" horiz-adv-x="460" />
<glyph unicode="&#x2122;" horiz-adv-x="1249" d="M287 1331v123h434v-123h-29q0 84 -92 84h-45v-362q0 -63 63 -64v-28h-235v28q70 0 70 64v362h-47q-92 0 -93 -84h-26zM784 961v28q55 0 56 64v309q0 66 -54 65v27h160l158 -334l151 334h177v-27q-33 10 -56 -16q-8 -10 -8 -45v-313q0 -63 64 -64v-28h-246v28q70 0 69 64 v307l-184 -404l-197 410v-313q0 -63 68 -64v-28h-158z" />
<glyph unicode="&#xe000;" horiz-adv-x="1024" d="M0 0v1024h1024v-1024h-1024z" />
</font>
</defs>
</svg>
