<?xml version="1.0" standalone="no"?>
<!DOCTYPE svg PUBLIC "-//W3C//DTD SVG 1.1//EN" "http://www.w3.org/Graphics/SVG/1.1/DTD/svg11.dtd" >
<svg xmlns="http://www.w3.org/2000/svg">
<metadata></metadata>
<defs>
<font id="sunflowerregular" horiz-adv-x="1454" >
<font-face units-per-em="2048" ascent="1638" descent="-410" />
<missing-glyph horiz-adv-x="382" />
<glyph horiz-adv-x="2048" />
<glyph horiz-adv-x="2048" />
<glyph unicode="&#xd;" horiz-adv-x="382" />
<glyph unicode=" "  horiz-adv-x="382" />
<glyph unicode="&#x09;" horiz-adv-x="382" />
<glyph unicode="&#xa0;" horiz-adv-x="382" />
<glyph unicode="!" horiz-adv-x="483" d="M147 119q0 33 17.5 67.5t54.5 59.5q35 18 74 18q37 0 74 -16q78 -43 77 -127q0 -37 -16 -70t-56 -57.5t-79 -24.5q-33 0 -66.5 19.5t-56.5 54.5t-23 76zM150 1432q0 63 33.5 111t86.5 48h29q63 0 105 -34.5t42 -100.5l-26 -797q0 -96 -14.5 -156.5t-45 -78.5t-63.5 -18 q-27 0 -57.5 15t-44 75.5t-13.5 154.5z" />
<glyph unicode="&#x22;" horiz-adv-x="765" d="M174 1538q0 78 31 115q31 45 98 45q35 0 57.5 -11.5t42.5 -44.5q25 -33 25 -102q0 -35 -5 -71.5t-26 -131.5l-63 -368h-64l-63 354q-16 70 -24.5 128t-8.5 87zM510 1536q0 78 31 117q29 45 96 45q35 0 57.5 -11.5t45 -45t22.5 -99.5q0 -43 -12.5 -109.5t-16.5 -95.5 l-63 -368h-64l-63 354q-14 68 -23.5 117t-9.5 96z" />
<glyph unicode="#" horiz-adv-x="1396" d="M84 532l53 177h260l74 225h-242l47 176h259l145 385h201l-131 -385h215l137 385h203l-129 -385h254l-58 -176h-260l-80 -225h250l-53 -172h-260l-138 -392h-202l133 387h-215l-141 -387h-205l135 387h-252zM604 709h219l82 225h-215z" />
<glyph unicode="$" horiz-adv-x="1236" d="M123 403q0 80 33.5 142.5t91 97.5t91.5 38t52 3q47 0 94 -19.5t76 -52t41 -68.5t12 -65q0 -23 -8 -47t-21.5 -47t-34 -36t-38.5 -13q-16 0 -23 10q12 10 13 33l-4 22q-10 27 -47 21q-23 -6 -31 -43q-6 -12 -6 -29q0 -37 29.5 -88t90 -79.5t119.5 -28.5v594 q-33 12 -69.5 25t-114.5 53t-136.5 89.5t-91 132t-32.5 152.5q0 94 62.5 203.5t167 162t216.5 52.5l31 86h107l-21 -86q37 -8 77 -15.5t106.5 -35t122 -93t55.5 -147.5q0 -76 -24 -131t-80 -89t-105 -34q-68 0 -152 53v-139l76 -35q129 -49 184 -81.5t111.5 -99t78 -138.5 t21.5 -150q0 -51 -8 -97t-45 -147.5t-141.5 -176t-280.5 -117.5v-86h-113v73q-231 33 -328.5 102.5t-150.5 171t-53 197.5zM467 1268q0 -63 57.5 -127t141.5 -105l-21 391q-35 0 -58.5 -9t-31.5 -11q-45 -20 -66.5 -56t-21.5 -83zM768 1387.5q2 -23.5 10 -41.5 q31 -53 62 -54q20 0 34.5 12.5t16.5 27t-2 22.5q-8 27 -38 42t-83 31q-2 -16 0 -39.5zM770 170q27 0 65.5 27.5t61.5 66.5t32 83t9 77q0 84 -37 150.5t-131 121.5v-526z" />
<glyph unicode="%" horiz-adv-x="1710" d="M102 1251q10 113 57.5 235t153.5 177q54 31 103 37q12 2 41 2q61 0 120.5 -22.5t116 -87t87 -175t30.5 -233.5q0 -121 -25.5 -214t-81 -163t-116 -90.5t-84 -24.5t-53.5 -4q-106 0 -200.5 75t-121.5 201t-27 287zM258 -2l1120 1683h226l-1117 -1683h-229zM283 1325 q0 -84 8 -143.5t38.5 -81t49.5 -21.5q12 0 18 6q37 16 37 58q0 45 -45 76q4 10 13.5 12t15.5 4q20 -4 43.5 -12.5t51.5 -42t28 -78.5q0 -27 -10.5 -54.5t-40 -51t-58.5 -28.5t-37 -5q-45 0 -104 67q-6 -2 -3 -11.5t9 -21.5l16 -36q27 -43 63 -63.5t79 -20.5q37 0 72.5 18 t64.5 88t29 160q0 119 -20.5 235.5t-68 148.5t-79.5 32q-29 0 -68 -19.5t-66.5 -83t-35.5 -131.5zM1042 543q14 115 61.5 235.5t126.5 163.5t124 49q12 2 41 2q63 0 122.5 -22.5t116 -86t87 -175t30.5 -236.5q0 -66 -6 -115t-24.5 -119.5t-76 -140t-128 -95.5t-125.5 -26 q-109 0 -201 75t-120 207t-28 284zM1225 539q8 -121 41.5 -144.5t52.5 -23.5q12 0 18 6q39 16 39 57q0 45 -47 76q2 8 10.5 10t16.5 4q20 0 44.5 -9t52.5 -45t28 -81q0 -25 -11.5 -53.5t-37 -50t-50 -25.5t-45.5 -4q-31 0 -53 14.5t-53 51.5q-6 -2 -2 -11.5t10 -21.5l16 -37 q12 -20 26.5 -36.5t42.5 -32t71 -15.5q37 0 71.5 18.5t65.5 91t31 156.5q0 119 -20.5 235.5t-92.5 161.5q-25 18 -57 19q-27 0 -67 -19.5t-67.5 -83t-33.5 -131.5v-77z" />
<glyph unicode="&#x26;" horiz-adv-x="1540" d="M111 371q0 154 73.5 245t223.5 240v18q-98 113 -152.5 244t-54.5 258q0 115 47 201q100 -4 224 -8t239 -4q178 0 325.5 10t218.5 18q18 -43 19 -88q0 -88 -56.5 -180t-158.5 -213l-185 -203q12 -8 30 -17t36 -9q90 109 205 186.5t213 77.5q25 0 58.5 -6t80.5 -48 t67.5 -93.5t20.5 -108.5q0 -47 -9 -79t-36 -64.5t-62.5 -50t-74.5 -17.5q-16 0 -48 5t-57.5 26.5t-36 46t-10.5 53.5q0 33 17 55l12 11q4 0 10 -9.5t13 -9.5q6 0 20 10.5t16 24.5q6 55 -59 43q-23 -6 -45 -37q-14 -14 -30.5 -46t-33.5 -65l-26 -55q236 -121 336 -237.5 t110 -231.5q0 -74 -24.5 -139.5t-89.5 -114.5q-78 -63 -187 -63q-49 0 -100 19.5t-96 65.5t-54.5 91t-9.5 61q0 37 13.5 73t50 73t106.5 37q10 0 39 -7.5t53.5 -25t30.5 -35.5t6 -35q0 -12 -6 -26.5t-23 -18.5q-10 -2 -16 8.5t-16 10.5q-12 0 -17 -21q-6 -27 14.5 -33 t39.5 -6q14 0 44.5 14.5t30.5 71.5q0 66 -67.5 104t-175.5 78l-66 29l-14 -39q-90 -227 -151.5 -334.5t-162 -137.5t-170.5 -30q-78 0 -155.5 21.5t-149 77t-114.5 149.5t-43 189zM469 356q0 -49 23.5 -77.5t50 -38t53.5 -2.5q76 14 101.5 86.5t56.5 179.5l14 49l27 57 l-142 82q-61 -72 -100 -125t-55 -90q-10 -23 -19.5 -52.5t-9.5 -68.5zM504 1311q31 -86 63.5 -131.5t114.5 -108.5q53 41 116.5 99.5t106.5 140.5h-401z" />
<glyph unicode="'" horiz-adv-x="419" d="M111 1468q0 68 49 110t102 42q27 0 65 -14.5t66.5 -51t31.5 -65.5t3 -45q0 -86 -75.5 -181t-188.5 -171l-41 47q61 49 92 79.5t49 79.5q-68 20 -102.5 49t-42.5 70t-8 51z" />
<glyph unicode="(" horiz-adv-x="606" d="M207 428v737q0 131 38 232.5t133 157t171 55.5q53 0 127 -27q-92 -27 -120 -89t-28 -167v-1079q0 -125 21.5 -189.5t126.5 -95.5q-61 -16 -119 -16q-59 0 -106.5 15t-121 71.5t-98 157t-24.5 237.5z" />
<glyph unicode=")" horiz-adv-x="606" d="M61 -37q100 29 123 97.5t23 187.5v1079q0 109 -25.5 168t-120.5 88q12 4 53.5 15.5t75.5 11.5q68 0 146 -43q115 -66 153.5 -170.5t38.5 -231.5v-737q0 -143 -23.5 -239.5t-116.5 -169t-210 -72.5q-55 0 -117 16z" />
<glyph unicode="*" horiz-adv-x="589" d="M111 1391q12 14 32.5 44.5t32.5 45.5q53 -33 73.5 -41t82.5 -19q-47 37 -76 53.5t-63 26.5q27 49 43 117q14 -8 55 -14.5t65 -6.5q-2 -16 -3 -33.5t-1 -43.5q0 -12 7.5 -35t15.5 -37q4 27 10 53v27v37q-6 23 -8 34q33 4 59.5 8.5t52.5 12.5l54 -100l-74 -39 q-14 -10 -32.5 -30.5t-20.5 -31.5q37 10 55 19.5t82 54.5q10 -18 31.5 -45t40.5 -49l-62 -86h-8q-47 27 -66.5 34t-74.5 19q4 -12 27.5 -29.5t37.5 -21.5l72 -33q-10 -16 -23.5 -42t-21.5 -60q-14 4 -33.5 4h-30.5h-29.5t-19.5 -2q4 37 4 53q0 20 -4 46t-16 62 q-8 -23 -14.5 -43t-6.5 -32q0 -20 3 -47t3 -37q-27 -2 -51 -4t-69 -13q-4 27 -13.5 53.5t-19.5 53.5q16 6 28.5 12t34.5 25q20 12 38 29.5t18 25.5q-49 -16 -83 -37.5t-52 -34.5q-43 63 -82 97z" />
<glyph unicode="+" horiz-adv-x="1347" d="M174 426v303h430v424h305v-424h430v-299h-430v-430h-305v426h-430z" />
<glyph unicode="," horiz-adv-x="419" d="M106 156q0 37 13.5 66.5t50.5 58t90 28.5q31 0 69 -17.5t65.5 -56t27.5 -90.5q0 -92 -73.5 -192t-192.5 -176l-37 53q51 41 74.5 65.5t60.5 90.5q-68 23 -102.5 52.5t-40 63t-5.5 54.5z" />
<glyph unicode="-" horiz-adv-x="720" d="M104 485q4 29 8.5 66t4.5 72q0 37 -4.5 74.5t-8.5 70.5q41 -2 147.5 -6t172.5 -4q109 0 192.5 3t126.5 7q-4 -31 -8 -67.5t-4 -71.5t4 -73t8 -71q-68 4 -150.5 8.5t-160.5 4.5q-80 0 -167 -4.5t-161 -8.5z" />
<glyph unicode="." horiz-adv-x="419" d="M125 123q-4 57 23 100.5t90 63.5q16 6 38 6q53 0 92.5 -30t52.5 -62.5t13 -77.5q-4 -37 -23.5 -68.5t-60.5 -54.5q-37 -16 -76 -16t-89 28.5t-60 110.5z" />
<glyph unicode="/" horiz-adv-x="1302" d="M188 -66l836 1684h229l-835 -1684h-230z" />
<glyph unicode="0" horiz-adv-x="1239" d="M90 870q18 186 97 389t184.5 261.5t151.5 73t87 22.5q41 4 68 4q104 0 203.5 -38t193.5 -143.5t145.5 -290.5t51.5 -390q0 -201 -41 -354.5t-136.5 -271.5t-214 -158t-208.5 -40q-88 0 -170 28t-204 124t-165 307t-43 477zM395 948q0 -117 17.5 -208t60.5 -121.5 t80 -30.5q18 0 54 18.5t36 83.5q4 53 -18.5 79t-55.5 48q4 14 19.5 20.5t25.5 6.5q23 0 68 -16.5t92 -73t47 -133.5q0 -37 -18.5 -88.5t-61.5 -85t-90 -44t-69 -10.5q-49 0 -87 25.5t-89 87.5q-8 -2 -2 -25.5t12 -31.5q4 -14 11 -30t31.5 -58t82 -77.5t131.5 -35.5 q68 0 127 31.5t107 150.5t48 264q0 193 -34.5 388.5t-112.5 246.5t-135 51q-43 0 -111.5 -32.5t-117 -145t-48.5 -211.5v-43z" />
<glyph unicode="1" horiz-adv-x="1239" d="M240 1282q137 43 188 92t90 197q84 -10 118 -13.5t75 -3.5q47 0 139 15q12 -2 12 -47q-2 -74 -6 -264.5t-4 -309.5q0 -207 2 -372.5t8 -321.5q0 -156 49.5 -190.5t42.5 -59.5q-2 -4 -17 -4t-32 2q-55 4 -106 5t-103 3q-51 0 -104 -3t-107 -5q-53 0 -53 2q-2 16 46 61.5 t48 188.5q4 121 6.5 266.5t2.5 276.5q0 145 -2.5 243.5t-6.5 151.5q-57 -43 -123 -43q-31 0 -70.5 12.5t-62 46t-30.5 74.5z" />
<glyph unicode="2" horiz-adv-x="1239" d="M121 -2q35 31 49 63.5t14 126.5q0 178 62.5 280.5t242 187.5t282.5 182.5t103 226.5q0 51 -23.5 113.5t-70.5 99.5q-23 20 -60.5 32.5t-72.5 12.5q-27 0 -40 -4t-34.5 -11.5t-50 -34t-36 -54t-7.5 -45.5q0 -33 23.5 -60t60.5 -27q31 0 35 27q12 57 -53 49q-6 10 -6 19 q0 16 17 41.5t41 31t40 5.5q57 0 102 -41q47 -47 47 -134q0 -25 -18 -108.5t-116.5 -118.5t-153.5 -35q-53 0 -106.5 17.5t-101.5 57.5t-75 114.5t-27 152.5q0 18 11.5 96t67 154t163 123t223.5 47q207 0 341 -93t182.5 -209t48.5 -247q0 -162 -74 -246.5t-289 -214.5 l-96 -57q-82 -49 -152.5 -112.5t-70.5 -129.5q0 -57 39 -75.5t71 -18.5q55 0 123.5 20.5t138.5 55.5q-63 0 -82.5 9t-33 28.5t-17.5 34t-4 32.5q0 31 14.5 66t44 61.5t60.5 32.5q35 4 57.5 -9t22.5 -44q0 -18 -21 -18q-10 0 -23 4t-22 -4q-4 -4 -4 -21q0 -14 15.5 -21.5 t38.5 -7.5q31 0 57 21q41 25 55 56.5t21 96.5q16 18 47 11q18 -6 30.5 -12.5t25.5 -20.5t20.5 -39t7.5 -59q0 -45 -13.5 -128t-13.5 -141q0 -88 43 -188q-72 2 -264.5 10t-300.5 8q-152 0 -292 -5t-263 -13z" />
<glyph unicode="3" horiz-adv-x="1239" d="M137 406q0 72 24.5 140t77 116.5t116 72t130.5 23.5q33 0 76 -10.5t83 -43t52.5 -73.5t14.5 -51.5t2 -30.5q0 -55 -33 -100q-53 -57 -109 -58q-20 2 -35.5 10.5t-22.5 23.5t-7 21q0 20 35 56q18 29 18 47q0 10 -11 29.5t-54 19.5q-51 6 -81 -38t-30 -91q0 -39 14 -70 q20 -53 62.5 -82.5t83.5 -38t55 -8.5q59 0 126 26t108.5 70t61 101t19.5 115q0 33 -9 75.5t-47 88t-84 62.5t-61.5 20t-41.5 3h-66q-25 4 -24 25q0 8 4 12t52 28t102.5 87.5t64.5 171.5q0 55 -16.5 99t-57.5 79q-43 31 -98 31q-39 0 -66 -14q-78 -29 -94 -95 q-10 -41 8.5 -56t30.5 -20t27 1q29 10 31.5 33.5t11.5 31.5q39 8 54 -29.5t15 -103.5q-6 -51 -35.5 -98t-81 -73t-102.5 -26q-45 0 -100.5 31t-85 89.5t-29.5 127.5q0 92 39 176t112.5 136.5t136 72t128.5 19.5q45 0 93 -10.5t129 -44t148.5 -105.5t80 -141.5t12.5 -98.5 q0 -63 -24 -117t-87 -128q139 -90 192.5 -191.5t53.5 -245.5q0 -129 -52.5 -248.5t-189.5 -209.5t-317 -90q-125 0 -236.5 47t-191.5 147t-101 211q-4 37 -4 64z" />
<glyph unicode="4" horiz-adv-x="1239" d="M96 655q-10 23 29 80.5t78 113.5t125 206.5t114.5 206t53.5 104.5q66 115 97.5 158t72.5 52t55 9q78 0 127 -49q33 -27 49 -63.5t16 -77.5q0 -20 -8 -95t-140 -196t-181 -164l-121 -98q37 -33 80 -48.5t90 -15.5q43 0 73.5 7.5t81.5 25.5q57 16 115 62.5t64 73t6 42.5 q0 18 -10.5 31.5t-23.5 16.5t-24 5q-2 16 3.5 27.5t33 29t58.5 17.5q51 0 101 -20.5t100.5 -79t50.5 -150.5q0 -23 -15.5 -93.5t-87.5 -102t-102.5 -38.5t-64.5 -10.5t-70.5 -7.5t-45 -11t-10.5 -23.5t-2 -75.5v-88v-160q0 -156 49.5 -191.5t42.5 -60.5q-2 -4 -17 -4t-32 2 q-59 4 -114.5 5t-108.5 3q-49 0 -98 -3t-99 -5q-53 0 -53 2q-2 16 46 61.5t48 190.5v141v88q0 106 -14 121t-56 17t-116 2h-39h-100q-57 0 -77 5t-30 25z" />
<glyph unicode="5" horiz-adv-x="1239" d="M152 371v28q0 78 31.5 155t81.5 115t95.5 50t90.5 12q70 0 167 -37t113.5 -109.5t16.5 -86.5q0 -37 -13.5 -76t-46.5 -71t-80 -21q-41 10 -52 32.5t-11 59.5q25 0 33 6t12 27q2 12 -4 28.5t-18.5 19.5t-28.5 3q-12 0 -24.5 -9.5t-20 -34t-7.5 -54.5q0 -94 59.5 -129 t115.5 -35q57 0 113 30.5t86 94t30 141.5q0 84 -37 170t-93 128t-114.5 56.5t-120.5 14.5q-139 0 -270 -56l-6 -2q-14 8 -14 25q2 23 2 33q8 78 14 171t6 179q0 113 -7 214t-11 148l8 11l452 -48q53 -6 105.5 -10t101.5 -4q80 0 137.5 13.5t100.5 48.5q16 -4 31 -56l12 -57 q2 -12 2 -37q0 -55 -21.5 -103.5t-73 -82t-126.5 -33.5q-86 0 -176.5 33.5t-196.5 87.5l-43 20q8 -66 9 -82t1 -59q0 -72 -20 -174q39 6 92 12t86 6q70 0 132 -19.5t167.5 -93t156 -223t50.5 -299.5q0 -141 -65.5 -249.5t-167 -167t-172 -75t-152.5 -16.5 q-147 0 -332.5 97.5t-185.5 339.5z" />
<glyph unicode="6" horiz-adv-x="1239" d="M127 715q0 51 4 103t24.5 185.5t105.5 312.5t226.5 241.5t239.5 62.5q137 0 225 -61.5t126 -128t38 -132.5q0 -51 -26.5 -100t-82 -78.5t-114.5 -29.5q-49 0 -94 22.5t-58.5 52t-13.5 47.5t10 43q20 -2 41 -2q10 4 22.5 10.5t18.5 22.5q10 37 -18.5 78t-106.5 41 q-90 0 -138 -96.5t-68.5 -221t-20.5 -260.5q0 -150 21.5 -269.5t80 -216.5t179.5 -97q57 0 105 22.5t72.5 62.5t31 68.5t6.5 69.5q0 63 -16.5 97t-37 54.5t-47.5 20.5q-45 0 -57 -20.5t-12 -34.5q0 -27 32 -47q12 -6 33 0q0 -33 -26.5 -62t-71.5 -29q-72 0 -127 72 q-41 59 -41 144q0 31 4 56t25.5 80.5t82 100.5t144.5 62q33 4 53 4q66 0 126 -22.5t116.5 -84t85 -155t28.5 -197.5q0 -88 -30.5 -198.5t-121.5 -207t-206 -131.5t-199 -35q-98 0 -193 33t-189.5 114t-142.5 260t-48 374z" />
<glyph unicode="7" horiz-adv-x="1239" d="M168 1583q-2 18 25 19q106 0 417.5 -2.5t378.5 -2.5q63 0 117.5 7.5t87.5 11.5q25 0 32 -21.5t7 -48.5q0 -47 -14.5 -106.5t-39 -115.5t-63.5 -112.5t-135 -169.5l-166 -190q-90 -104 -163.5 -237.5t-73.5 -237.5q0 -33 9 -65.5t34.5 -62.5t51 -38t40.5 -8q18 0 35.5 9 t24.5 24.5t1 31.5q-8 20 -35 21q-12 0 -28 -6q-8 6 -15.5 20t-7.5 21q-6 27 -2 47q4 27 12.5 46t45 64t128.5 45q12 0 65.5 -10t96.5 -50t55.5 -93.5t12.5 -81.5q0 -57 -23.5 -117.5t-80 -117t-147.5 -88t-185 -31.5q-78 0 -236 46t-191.5 196.5t-33.5 207.5q0 145 86 281.5 t274 314.5l170 160q66 63 93.5 105t54.5 114q-70 -49 -116 -69.5t-99 -20.5q-57 0 -128 24.5t-132 24.5q-66 0 -110 -34t-44 -99h-61q-4 51 -6.5 111.5t-2.5 115.5z" />
<glyph unicode="8" horiz-adv-x="1239" d="M129 473q0 55 8 102.5t37 100.5t74 91t141 85q-102 63 -143 134t-41 175q0 100 51 199.5t156.5 161t273.5 61.5q158 0 263.5 -57.5t153.5 -140t48 -187.5q0 -111 -32.5 -176.5t-145.5 -161.5q104 -35 163.5 -92t80 -133t20.5 -137q0 -98 -30.5 -197.5t-100.5 -182.5 t-197 -133.5t-247 -50.5q-25 2 -37 3h-21q-131 14 -240.5 78.5t-172 183t-62.5 274.5zM457 539q0 -31 15 -54.5t49 -41t65 -17.5q57 0 82 33q6 12 6 24q0 27 -31 62q4 2 14.5 2h16.5h26q37 -14 60.5 -40t23.5 -75q0 -12 -6 -45t-33.5 -65.5t-68.5 -49.5q-35 -10 -58 -10 q-51 0 -118 47q-2 -10 11.5 -31.5t25.5 -29.5l61 -39q35 -14 80 -14q10 0 22.5 2t78 12t102.5 101t37 171q0 119 -52 195q-41 53 -91 71.5t-116 18.5q-53 0 -100 -33t-74.5 -88t-27.5 -106zM514 1190q0 -39 10 -74q12 -45 40 -77.5t58.5 -42t51.5 -9.5q59 0 95 32t51.5 74 t15.5 85v24q-4 16 -7.5 47t-25 70t-58 55.5t-67.5 16.5q-47 0 -87 -25t-58.5 -73t-18.5 -103z" />
<glyph unicode="9" horiz-adv-x="1239" d="M123 1077q0 127 48 237.5t139 176t178 89.5t180 24q109 0 229.5 -47.5t204.5 -169t111.5 -262t27.5 -283.5q0 -225 -59.5 -428t-166 -305.5t-192.5 -138.5t-178 -36q-51 0 -133 19.5t-159 88.5t-107.5 156t-30.5 156q0 51 11.5 91t45 84t88 66.5t103.5 22.5 q51 0 94 -25.5t65.5 -70.5t22.5 -82q0 -25 -13.5 -47t-33.5 -26q-21 -6 -41 4v28q0 14 -22 23q-16 6 -35 -9.5t-19 -50.5q0 -18 8.5 -36.5t16.5 -28.5q51 -47 112 -47h19q59 0 108.5 46t87 119.5t58 191.5t20.5 247q0 123 -17 218t-74.5 185.5t-164.5 90.5q-51 0 -95 -24 t-77.5 -76t-33.5 -122q0 -33 22.5 -81t85.5 -54q25 0 48.5 9.5t43 33t19.5 56.5q0 39 -31 67q6 25 41 25q27 0 55.5 -23.5t40.5 -56.5t12 -76v-31q0 -147 -114.5 -207.5t-196.5 -60.5q-90 0 -176 48t-131 130t-45 172z" />
<glyph unicode=":" horiz-adv-x="419" d="M121 123q-4 57 22.5 100.5t89.5 63.5q16 6 39 6q53 0 92 -30t52.5 -62.5t13.5 -77.5q-4 -39 -24.5 -69.5t-57.5 -50t-76 -19.5q-25 0 -37 2t-58 28.5t-56 108.5zM121 963q-4 57 22.5 100t89.5 63q16 6 39 7q53 0 92 -30t52.5 -62.5t13.5 -77.5q-4 -37 -24.5 -69 t-57.5 -51.5t-76 -19.5q-25 0 -37 2t-59 31t-55 107z" />
<glyph unicode=";" horiz-adv-x="419" d="M119 156q0 37 13 66.5t51 58t91 28.5q29 0 67 -17.5t65.5 -56t27.5 -90.5q0 -90 -73.5 -191t-190.5 -177l-39 53q51 41 74.5 65.5t60.5 90.5q-68 23 -102.5 52.5t-39.5 63t-5 54.5zM125 981q-4 57 23 100.5t90 61.5q16 6 38 6q23 0 50.5 -9.5t54.5 -29.5t40 -53t13 -76 q-4 -37 -23.5 -68.5t-57.5 -52t-79 -20.5q-35 0 -87 29.5t-62 111.5z" />
<glyph unicode="&#x3c;" horiz-adv-x="1058" d="M137 469v227l922 342v-243l-594 -211l594 -211v-246z" />
<glyph unicode="=" horiz-adv-x="1349" d="M113 246v254h1259v-254h-1259zM113 662v258h1259v-258h-1259z" />
<glyph unicode="&#x3e;" horiz-adv-x="1058" d="M145 127v246l594 211l-594 211v243l922 -342v-227z" />
<glyph unicode="?" horiz-adv-x="980" d="M127 1264q0 45 23.5 116.5t99.5 135t160 85t161 21.5q88 0 170 -24.5t138.5 -80t82 -127t25.5 -153.5q0 -55 -17.5 -133t-72.5 -158t-182 -141q-59 -27 -119 -53q-68 -37 -74 -67t-6 -44q0 -41 27 -61q20 -20 59 -21q39 4 43 31q6 27 -11.5 40t-27.5 19q0 14 18.5 35 t34.5 25q25 10 58 10h18q33 -4 64.5 -26.5t47 -53.5t15.5 -66q0 -55 -33.5 -106t-117.5 -83t-156 -32q-80 0 -167 33t-128 98.5t-41 137.5q0 57 24.5 115.5t62.5 96t139.5 93t157.5 104.5t56 154q0 74 -21.5 115.5t-53 65.5t-66.5 24q-20 0 -54 -10.5t-42 -61.5 q0 -41 15.5 -52.5t31.5 -11.5q10 0 39 13q20 -12 30.5 -27.5t15.5 -35t5 -36.5q0 -27 -15.5 -62.5t-55 -64t-78.5 -35t-56 -6.5q-45 0 -88 19.5t-91 76t-48 169.5zM453 123q-4 55 23.5 100.5t88.5 63.5q18 6 41 6q51 0 90 -30t52.5 -62.5t13.5 -77.5q-4 -37 -23.5 -70 t-58.5 -51t-76 -18q-25 0 -37 2t-58 28.5t-56 108.5z" />
<glyph unicode="@" horiz-adv-x="1429" d="M104 535q0 186 63.5 346.5t197 256t259.5 131.5t259 36q170 0 300 -56.5t210 -163t91 -191.5t11 -110q0 -117 -41 -231.5t-131 -183.5q-92 -78 -209 -78q-41 0 -102.5 23.5t-79.5 125.5q-49 -80 -110.5 -114.5t-135.5 -34.5q-59 0 -115.5 27.5t-92.5 87t-36 149.5 q0 113 48.5 207t133.5 158.5t175 72.5q59 0 108 -13t82 -56l25 -50l28 93h207l-102 -346q-12 -47 -23.5 -94.5t-11.5 -71.5q0 -29 14.5 -44.5t47.5 -15.5q16 0 48.5 8.5t75.5 57.5t77 131t34 186q0 68 -17.5 130.5t-76 144.5t-197.5 125t-268 43q-150 0 -278 -78 t-214 -232.5t-86 -328.5q0 -160 68 -285t185.5 -190.5t256.5 -77.5q158 0 280 30.5t263 114.5l45 -63q-274 -176 -567 -177q-186 0 -350 83t-256.5 218.5t-92.5 299.5zM662 496q0 -37 7 -57.5t30.5 -34t48.5 -13.5t67.5 21.5t94 154.5t51.5 203q0 37 -5.5 62.5t-28 42 t-59.5 16.5h-16q-10 -4 -48 -19.5t-90 -159.5t-52 -216z" />
<glyph unicode="A" d="M76 8q0 24 64 56q70 34 128 200l293 807q18 57 30.5 111.5t12.5 93.5q0 41 -16.5 61.5t-52.5 12.5q-25 -4 -31 -27t-6 -27q0 -18 13 -29.5t36 -17.5q-4 -25 -6 -49q-10 -41 -44 -55.5t-51 -14.5q-31 0 -71.5 28t-64 82t-23.5 103q0 72 30.5 135.5t117.5 124t229 60.5 q76 0 159.5 -32t128.5 -114.5t86 -238.5l222 -850q6 -29 17 -67.5t26 -65.5q38 -85 94 -85q5 0 10 1q53 6 53 68q0 45 -28 83q-2 6 1 11.5t11 3.5q27 -4 43 -12.5t39.5 -36t29 -60t5.5 -55.5q0 -51 -19.5 -101.5t-59.5 -90t-104.5 -64.5t-126.5 -25q-37 0 -87 15.5 t-82.5 56.5t-80 135t-119 129t-119.5 41t-69 6q-45 0 -86 -13t-68.5 -51t-43 -72t-15.5 -56q1 -41 57 -69q51 -25 51 -46q0 -2 -1 -4q-2 -4 -18.5 -4t-32.5 2q-14 0 -88 4t-119 4l-203 -8h-40t-11 6zM647 571q0 -29 12.5 -40t43 -15t63.5 -4l53 2q20 6 29.5 9t19.5 20l-4 32 l-96 340l-63 -149q-29 -70 -43.5 -113t-14.5 -82z" />
<glyph unicode="B" horiz-adv-x="1292" d="M76 12q84 59 105.5 102.5t21.5 157.5l30 998q0 121 -19 158.5t-110 103.5q2 10 25 10q27 -4 94.5 -9t159.5 -5q72 2 147.5 6t152.5 16.5t114 16.5t67 4q80 0 136.5 -29t111.5 -104.5t55 -182.5q0 -74 -30.5 -144.5t-81.5 -108t-160 -97.5h55q106 0 173 -23.5t114 -94 t63.5 -148.5t16.5 -164q0 -145 -51.5 -260t-137.5 -188.5t-154.5 -83t-88.5 -9.5q-59 0 -118.5 26t-96.5 69t-51.5 91t-14.5 93q0 37 12.5 69.5t46 66.5t63.5 40t41 6h17q18 0 37 -11t29 -27.5t10 -34.5q-53 -25 -68.5 -35.5t-15.5 -44.5q-4 -33 18.5 -44.5t34.5 -11.5 q20 0 49 20.5t42.5 74t13.5 116.5q0 133 -49 223.5t-125 129.5q-37 16 -96 16q-51 0 -86 -18q-37 -27 -44.5 -69t-7.5 -167v-281v-88q0 -49 6.5 -66.5t34.5 -62.5v-10l-10 -2q-66 6 -113 10t-90 4q-88 0 -146 -4t-108 -10q-23 0 -24 10zM543 1028.5q0 -34.5 2 -57.5t8 -33 t45 -10q49 0 95 16.5t78 52t51.5 98t19.5 113.5q0 29 -17.5 89.5t-77 76t-88.5 15.5q-16 0 -46.5 -4.5t-43 -19.5t-17.5 -54t-7 -117t-2 -86v-79.5z" />
<glyph unicode="C" horiz-adv-x="1740" d="M137 809q0 106 40 254.5t169 291t308.5 203t328.5 60.5q139 0 271 -42t257 -139.5t193 -249t68 -300.5q0 -121 -44.5 -213.5t-144.5 -153.5q-106 -61 -219 -61q-131 0 -227 78q-47 35 -78 103.5t-31 133.5q0 35 20.5 100.5t85 82t91.5 16.5q55 0 86.5 -26.5t40 -52.5 t8.5 -38q0 -31 -10 -47q-31 6 -47.5 -8.5t-16.5 -38.5q0 -39 27 -53q10 -8 33 -9q12 0 30.5 4.5t37 36t24.5 65.5t6 64q0 100 -51.5 219t-124 189t-157.5 101.5t-171 31.5q-49 0 -184 -36t-188.5 -205t-53.5 -304q0 -162 43 -314.5t118 -243.5t154.5 -130t159.5 -39h29 q76 8 119 44t43 91q0 29 -9 54q-10 33 15 32q4 0 39 -10t83 -20.5t81 -10.5q49 0 103 15.5t159 52.5q12 2 14 -2q4 -6 2 -13t-6 -14l-27 -39q-47 -88 -92 -174q-39 -61 -127 -108t-174 -66.5t-157.5 -29t-122.5 -9.5q-172 0 -333 63.5t-275.5 196t-165 294t-50.5 323.5z" />
<glyph unicode="D" horiz-adv-x="1658" d="M133 236q0 66 24.5 136t62.5 107t83 54.5t90 17.5q37 0 107.5 -19.5t146.5 -139.5t135.5 -158.5t126.5 -38.5q33 0 65 8t104.5 39.5t134 155.5t72.5 210t11 142q0 166 -47 326.5t-123.5 224t-141 83t-138.5 19.5q-43 0 -67.5 -4t-95.5 -28.5t-136.5 -88t-80.5 -132.5 t-15 -99q0 -53 29.5 -81t66.5 -28q8 0 45 11.5t47 46t10 61.5q0 23 -9 43t-27.5 30.5t-37.5 18.5q10 27 18.5 36t28 17t48.5 8q16 0 33.5 -3t35 -10t47 -32.5t50.5 -70.5q18 -33 26 -69t8 -77q0 -78 -38.5 -150.5t-101 -117.5t-148.5 -55q-31 -6 -62 -6q-70 0 -139.5 28.5 t-122.5 82.5t-72.5 117.5t-19.5 135.5q0 47 8 99.5t12 78.5l19 117q4 35 9 75t5 62q0 37 -9 63.5t-28.5 47t-19.5 33.5q0 27 28 22q127 -14 213 -14q63 0 116.5 6t106 13t130.5 13.5t125 6.5q195 0 345 -64.5t265 -206t161 -285t46 -292.5q0 -154 -62.5 -335t-209 -313 t-275.5 -156t-178 -24q-106 0 -210 33t-148 86t-78 125q-35 82 -72 94q-31 12 -54.5 -10t-17.5 -53q4 -12 16.5 -24.5t28.5 -12.5t30 9.5t30 19.5q2 -16 5 -30.5t3 -37.5q0 -37 -11.5 -63.5t-51.5 -60.5t-95 -34q-27 0 -68.5 15.5t-82.5 67t-52.5 99.5t-11.5 79z" />
<glyph unicode="E" horiz-adv-x="1206" d="M131 7q0 17 46 57q50 44 50 190q4 113 6.5 249t2.5 261t-2.5 265t-6.5 257q0 160 -51 194q-46 30 -46 53q0 3 1 5q2 6 53 2q25 0 103 -4t100 -4q102 0 186 7t151 15.5t112 13.5t67 5q63 0 103.5 -16.5t69 -63.5t28.5 -102q0 -66 -40 -127.5t-111.5 -96t-145.5 -34.5 q-25 0 -37 2l-55 12q-23 10 -35 17t-12 22q84 51 84 117q0 29 -13.5 54t-32 36.5t-31.5 15.5t-42 4q-31 0 -44.5 -3t-21.5 -11q-12 -80 -14 -144.5t-4 -109.5v-123q55 -61 111.5 -88t117.5 -27q20 0 44 3t69 14.5t81 36t81 90.5q12 -49 15 -72t3 -61q0 -63 -17.5 -116.5 t-79 -119.5t-165.5 -66q-14 0 -54 6.5t-82 34t-66.5 50t-35.5 38.5q-14 16 -20 19q-4 -6 -5 -12v-199q6 -109 25 -223.5t69 -144t87 -29.5q39 0 84 27.5t45 88.5q0 49 -43 80q-20 10 -33 10q-23 0 -67 -22q20 68 57 104.5t91 56t112 19.5q84 0 142.5 -37t84 -86t29.5 -88 t4 -59q0 -53 -20.5 -106.5t-67.5 -97.5t-123 -64.5t-162 -20.5q-39 0 -81 4t-91 12.5t-135 20.5t-166 12q-41 0 -93 -3t-110 -5q-53 0 -53 5z" />
<glyph unicode="F" horiz-adv-x="1038" d="M113 8q0 24 45 54q49 34 49 192q4 113 6 249t2 261t-2 265t-6 257q0 160 -49 193.5t-45 58.5q2 4 18 3t35 -1q23 0 101.5 -4t101.5 -4h53h43q154 0 227.5 11t116.5 18.5t82 7.5q53 0 94 -16.5t70.5 -60.5t29.5 -101q0 -66 -40.5 -127.5t-112.5 -96t-144 -34.5 q-25 0 -48 3t-43.5 11t-35 17.5t-14.5 21.5q86 51 86 117q0 29 -13 54t-42 44q-14 4 -34.5 8t-29.5 4q-31 0 -44 -3t-21 -11q-10 -66 -15.5 -126.5t-5.5 -90.5v-37q0 -125 73 -179.5t173 -54.5q45 0 93 12.5t84 37t81 90.5q12 -47 15.5 -73t3.5 -65q0 -61 -17.5 -114.5 t-78 -118t-164.5 -64.5q-12 0 -52.5 5.5t-82.5 33t-62.5 46t-40.5 44.5q-16 16 -23 19q-4 -6 -6 -12l6 -498q0 -156 50 -190q45 -31 46 -55q0 -3 -1 -5q-3 -3 -14 -3h-7q-16 1 -29 1q-25 0 -93 3t-113 5l-203 -8q-53 0 -53 6z" />
<glyph unicode="G" horiz-adv-x="1732" d="M139 743q0 178 61.5 359.5t180.5 294t251 168t265 55.5q84 0 146.5 -17.5t96.5 -30.5t70.5 -38t89 -66t70.5 -43q5 -1 11 -1q24 0 51 28q12 18 12 37q0 18 -9 35t-32 37q20 16 45 21t47 5q37 0 58.5 -5t60.5 -33.5t39 -86.5v-18q-4 -23 -12.5 -55.5t-8.5 -53.5 q0 -33 15 -90q-119 -100 -215 -100q-47 0 -94.5 17.5t-112.5 56.5l-37 24q-80 49 -143.5 87t-129.5 38q-57 0 -149 -41t-150.5 -133t-73 -169t-16.5 -97.5t-2 -61.5q0 -156 52.5 -310.5t134.5 -232t149.5 -105.5t140.5 -28q51 0 132 23t162 103.5t103.5 150.5t31 113t8.5 75 q0 72 -30 108t-69 36t-48 -20.5t-9 -37.5q0 -12 8 -26q23 -27 64 -27q16 0 26 2q0 -66 -23.5 -105.5t-80.5 -70.5q-37 -16 -72 -16q-53 0 -108.5 34.5t-84 98t-28.5 127.5q0 76 42 161t102.5 121.5t109.5 49t98 12.5q109 0 273 -81t164 -314q2 -10 2 -22.5v-25.5 q0 -139 -66 -279t-201 -241.5t-274 -151.5t-272 -50q-152 0 -323 63t-308 232t-164 298t-27 213z" />
<glyph unicode="H" horiz-adv-x="1384" d="M115 8q0 24 45 54q49 34 49 192q4 113 6 249t2 261t-2 265t-6 257q0 160 -49 193.5t-45 58.5q2 3 12 3h7q16 -1 34 -1l203 -8q41 0 94 2t113 6q49 0 49 -2q1 -3 1 -5q0 -23 -46 -53q-50 -34 -50 -194q0 -37 9 -76q10 -74 38.5 -125t69.5 -70.5t67.5 -23.5t55.5 -4 q57 0 107.5 23.5t80 77t35.5 97.5t9.5 62.5t1.5 36.5q0 160 -49.5 193.5t-45.5 58.5q2 6 52 2l202 -8q43 0 96.5 2t112.5 6q49 0 51 -2q4 -16 -46 -61t-50 -191l-6 -510l6 -522q-1 -156 51 -190q45 -30 46 -54q0 -3 -1 -6q-2 -4 -18 -3t-33 1q-14 0 -88 4t-121 4l-202 -8 q-25 -2 -37.5 -2t-14.5 4q-4 18 45.5 56t49.5 159v174v37q0 100 -19.5 190.5t-81.5 131.5q-27 14 -62.5 21t-82.5 7q-84 0 -127 -24q-61 -41 -81 -136.5t-20 -195.5v-27v-172q0 -131 50 -163q45 -28 46 -51q0 -3 -1 -5q-4 -4 -20.5 -3t-28.5 1q-25 0 -93.5 3t-113.5 5 l-203 -8q-53 0 -53 6z" />
<glyph unicode="I" horiz-adv-x="602" d="M109 7q0 17 45 57q49 44 49 190q4 113 6 249t2 261t-2 265t-6 257q-1 158 -51 192q-44 30 -44 54q0 3 1 6q2 3 12 3h6q16 -1 35 -1l203 -8q41 0 94 2t112 6q49 0 50 -2q1 -3 1 -5q0 -23 -46 -53q-50 -34 -50 -194l-6 -510l6 -522q0 -156 50 -190q45 -31 46 -55 q0 -3 -1 -5q-3 -3 -14 -3h-7q-16 1 -29 1q-25 0 -93 3t-113 5l-203 -8q-53 0 -53 5z" />
<glyph unicode="J" horiz-adv-x="1052" d="M133 365q0 80 22.5 150.5t81 108.5t113.5 38q45 0 91 -22t77 -66t35 -77.5t4 -50.5q0 -37 -33 -108q-8 23 -25.5 31t-39.5 8q-20 0 -49 -12.5t-35 -75.5q0 -25 2 -48.5t24 -54.5q37 -41 84 -41q12 0 35 2.5t59.5 26t56 98t19.5 172.5l7 469l-7 453q0 119 -26 168 q-31 39 -60 78q0 7 15 7h4q20 -1 33 -1q33 0 114.5 -5t87.5 -5q43 0 101.5 2t107.5 8h41t10 -2q0 -29 -43 -61.5t-43 -188.5l-6 -373l6 -465q0 -182 -32.5 -312t-157.5 -206t-250 -76q-100 0 -205.5 56.5t-162 153t-56.5 221.5z" />
<glyph unicode="K" horiz-adv-x="1421" d="M84 6l2 14q92 57 119.5 123t27.5 189q4 121 6.5 266t2.5 279q0 96 -2 202.5t-7 194.5q0 115 -20 186.5t-109 126.5q-2 10 -2 15l9 6q66 -10 128 -16.5t113 -6.5q100 0 277 31q12 0 14 -8q2 -4 0 -8.5t-43 -35t-63.5 -119.5t-22.5 -247v-94q102 221 223 352t240 147.5 t143 16.5q72 0 136.5 -25.5t110.5 -82t64.5 -123t18.5 -134.5q0 -92 -33 -181t-93 -148.5t-122.5 -70.5t-81.5 -11q-45 0 -87 18.5t-84 65.5t-42 125q0 33 9.5 57.5t20.5 45t26 28.5q33 -37 57 -54.5t53 -17.5q14 0 33.5 4t43.5 22.5t32 44t8 44.5q0 41 -29 71 q-20 27 -51 39.5t-63 12.5h-25q-74 -10 -131 -66.5t-101.5 -161t-44.5 -157.5t50.5 -133t95.5 -148l328 -483q41 -63 95 -101.5t136 -76.5q6 -10 6 -17q0 -6 -14 -8q-117 18 -277 18t-295 -18q-10 4 -10 8q2 10 2 12t2 5l37 22q18 16 19 37q0 20 -24 63t-40 74l-340 524 v-313v-86q0 -131 20.5 -195.5t104.5 -125.5q6 -10 4 -17q-2 -6 -14 -6q-152 23 -277 23q-104 0 -262 -25q-8 4 -8 8z" />
<glyph unicode="L" horiz-adv-x="1200" d="M109 7q0 17 45 57q49 44 49 190q4 113 6 249t2 261t-2 265t-6 257q-1 158 -51 192q-44 30 -44 54q0 3 1 6q2 3 12 3h6q16 -1 35 -1l203 -8q43 0 100 2t123 6h40t9 -2q1 -3 1 -6q0 -22 -44 -52q-49 -34 -49 -194q-4 -113 -6 -249t-2 -261q4 -78 6 -172t2 -178 q0 -102 15 -144t45 -70t56.5 -38t57.5 -10q39 0 77 14.5t78 38.5q66 45 101 130t35 173q0 37 -9.5 83t-54.5 56q-29 4 -51 -20q-16 -23 -16 -59q0 -27 9 -75t9 -54q0 -70 -45 -95.5t-76 -25.5q-41 0 -81 27.5t-53 67.5t-11 60q6 47 37 47q8 0 8 -12q0 -23 17.5 -40t41.5 -17 q18 0 28.5 17.5t6.5 35.5l-22 70q-35 84 -49.5 134t-14.5 101q0 66 47 160t111.5 103.5t85.5 9.5q49 0 97 -17.5t92 -61.5t64.5 -111.5t20.5 -145.5q0 -51 -4 -90t-11 -86t-18.5 -141.5t-11.5 -188.5q0 -156 50 -190.5t46 -59.5q-2 -3 -16 -3h-7q-22 1 -30 1q-70 2 -242 6 t-274 4q-137 0 -266 -3t-256 -5q-53 0 -53 5z" />
<glyph unicode="M" horiz-adv-x="1835" d="M102 1300v29q0 59 22.5 112.5t75 96.5t107.5 62.5t117 19.5q61 0 144 -23.5t140.5 -79t133.5 -260.5l172 -475l192 494q18 49 29.5 95t11.5 69q0 43 -27.5 62.5t-21.5 37.5q2 4 18.5 3t34.5 -1q35 -4 110 -8t118 -4q61 0 123.5 4t103.5 8q25 2 38 2t13 -4q1 -3 1 -6 q0 -22 -52 -46q-59 -26 -59 -138q0 -14 2 -33t2 -29l100 -887q27 -285 85 -330.5t54 -68.5q-2 -4 -24 -4q-20 0 -38 4t-74 6t-132 2l-203 -8q-25 -2 -37 -2t-14 4q-4 23 47 66t51 127q0 23 -6 57l-88 643l-368 -924l-375 926q-23 -160 -45.5 -343t-29.5 -251.5t-7 -84v-23.5 q0 -104 50 -137q45 -29 45 -53q0 -3 -1 -5q-2 -4 -18.5 -3t-32.5 1q-12 0 -57.5 4t-92.5 4l-200 -8q-53 0 -54 2q-4 23 38 43.5t73 195.5t58.5 362.5t44 319.5t26.5 207q8 25 8 113q0 51 -7 61.5t-22.5 16.5t-31.5 2q-29 -10 -35 -39q-6 -23 12 -45q8 -14 21.5 -20.5 t25.5 -10.5q4 -12 4 -20q0 -12 -6 -37q-6 -8 -18 -19.5t-36 -22.5t-54 -11q-41 0 -70 20q-55 27 -85 78t-30 104z" />
<glyph unicode="N" horiz-adv-x="1353" d="M125 8q0 24 45 54q49 34 49 192q4 119 7 291t3 239q0 154 -2 275t-8 231q0 160 -49 191.5t-45 56.5q2 4 18.5 3t34.5 -1l240 -8q43 0 123 4t96 4q25 2 38 2t13 -4q6 -20 -26.5 -44t-32.5 -71q0 -31 9 -65.5t34 -93.5l383 -705v96q0 90 7 216t7 180q0 49 17.5 120.5 t17.5 88.5q0 27 -13.5 44t-41.5 17q-33 0 -40.5 -21.5t-7.5 -31.5q0 -14 13.5 -34t48.5 -20q8 0 6 -18t-16.5 -37.5t-41 -37t-59.5 -17.5q-39 0 -83 26.5t-75.5 74.5t-31.5 132q0 63 28.5 126t90 103t106.5 47t66 7q59 0 118.5 -23.5t96.5 -68.5t50 -93.5t13 -107.5 q0 -31 -4 -68.5t-10 -80.5l-29 -965q0 -135 51 -159.5t47 -49.5q-2 -4 -17 -3t-38 1q-37 2 -93 5t-116 3q-41 0 -107.5 -2t-111.5 -6q-49 0 -51 2q-6 23 25.5 43.5t31.5 54.5q0 25 -13 67t-44 99q-37 78 -70.5 145.5t-103.5 198.5l-215 385l-6 -354l6 -389q0 -156 51 -190 q46 -31 46 -55q0 -3 -1 -5q-2 -4 -18.5 -4t-32.5 2q-12 2 -71.5 5t-94.5 3q-37 0 -79 -3t-85 -5q-53 0 -53 6z" />
<glyph unicode="O" horiz-adv-x="1775" d="M129 834q0 66 10.5 178t113.5 269t231 218.5t206 83t162 33.5q27 2 47.5 3t34.5 1q176 0 361.5 -72.5t304 -213t169 -281t50.5 -283.5q0 -61 -10.5 -124.5t-49.5 -197t-198.5 -279.5t-310 -191.5t-269.5 -45.5q-152 0 -292 44t-281.5 168t-210 309.5t-68.5 380.5z M496 872q0 -70 5 -111.5t30.5 -156.5t110.5 -235.5t189.5 -158.5t176.5 -38q131 0 241 80q92 74 144.5 196.5t52.5 231.5q0 18 -4 51l-31 -90q-45 -102 -123 -160.5t-143.5 -72t-95.5 -13.5q-57 0 -112.5 21.5t-104 71t-74 127t-25.5 149.5q0 33 11.5 87t64.5 122.5 t118.5 92.5t106.5 24q61 0 100.5 -28t53.5 -60.5t14 -73.5q0 -25 -5 -41.5t-23 -46.5q-15 -25 -45 -24q-6 0 -13 1q-19 26 -35 53q-18 18 -53 19q-47 0 -64.5 -34t-17.5 -58q0 -27 17.5 -57.5t52.5 -49t74 -18.5q70 0 125 24.5t91.5 72.5t50 97t13.5 109q0 43 -6 74.5 t-35 107.5t-103.5 137.5t-157.5 80t-138 18.5q-82 0 -159 -30t-144.5 -98.5t-99 -172t-31.5 -220.5z" />
<glyph unicode="P" horiz-adv-x="1290" d="M119 8q0 24 45 54q49 34 49 192q2 66 6 237t4 273q0 156 -2 280.5t-8 241.5q0 160 -49 193.5t-45 58.5q2 4 18.5 3t34.5 -1q23 0 101.5 -4t101.5 -4q98 0 156.5 3t173.5 17q53 6 108 12.5t102 6.5q94 0 165 -30t126.5 -98.5t77 -144t21.5 -157.5q0 -113 -58.5 -278 t-181.5 -190.5t-152 -25.5q-72 0 -138 24.5t-122.5 86t-56.5 155.5q0 23 2 37.5t14.5 57.5t52.5 82.5t76.5 49t48 9.5h17.5q16 0 33.5 -4t27 -10.5t17.5 -24.5q-39 -8 -53.5 -14t-24.5 -27q-10 -27 6 -47.5t61 -20.5q53 0 84 54q23 33 23 106q0 66 -18 107q-45 119 -118 138 t-118 19q-41 0 -75 -9t-62.5 -33.5t-43 -85t-14.5 -171.5l-2 -329l7 -543q0 -156 50 -190q45 -31 45 -55q0 -3 -1 -5q-2 -4 -17.5 -4t-31.5 2q-14 0 -88 4t-119 4l-203 -8q-53 0 -53 6z" />
<glyph unicode="Q" horiz-adv-x="1726" d="M129 772q0 154 41 293t143.5 272t297 206t376.5 73q53 0 175 -15.5t293 -128t237.5 -267t66.5 -308.5q0 -96 -21.5 -182t-62.5 -142.5t-71.5 -93.5t-106.5 -49q-8 -2 -24 -2q-53 0 -81 36t-28 97q0 43 14 86q29 115 29 221q0 137 -47 250t-157.5 202t-250.5 89 q-68 0 -154.5 -30.5t-161.5 -113.5t-101.5 -179.5t-26.5 -211.5q0 -166 42 -318.5t125 -243.5t147.5 -126.5t115.5 -35.5q23 0 40 5t44 15q14 -10 31.5 -25.5t17.5 -40.5q0 -49 -31.5 -94t-109.5 -58t-174 -13q-158 0 -342.5 158.5t-234.5 342t-50 332.5zM702 504 q0 35 11.5 83t47.5 92t95 69.5t115 25.5q78 0 155.5 -45t111.5 -119.5t71 -216.5l10 -39q18 -76 58 -164t98 -106q20 -4 28 -4q23 0 36 11t19.5 24.5t4.5 27.5q-21 47 -66 47q-8 14 -1 37t23.5 48.5t47 41t65.5 15.5q43 0 84 -19q88 -49 95.5 -106t7.5 -84 q0 -57 -21.5 -113.5t-63.5 -97.5t-101.5 -61.5t-119.5 -20.5q-16 0 -83.5 12.5t-134 82t-136.5 202.5l-22 51q-49 106 -83 156.5t-104 62.5q-20 4 -35.5 0t-29 -20.5t-21.5 -42t-45 -31.5q-10 -2 -27.5 4t-41 34t-36 73t-12.5 90z" />
<glyph unicode="R" horiz-adv-x="1284" d="M113 8q0 24 45 54q49 34 49 192q4 113 6 249t2 261t-2 265t-6 257q0 160 -49 193.5t-45 58.5q2 4 18 3t35 -1q23 0 101.5 -4t101.5 -4q98 0 156 3t173 17q53 6 108.5 12.5t102.5 6.5q94 0 165 -30t126 -98.5t76.5 -144t21.5 -157.5q0 -113 -58 -278t-181 -190.5 t-152 -25.5q-72 0 -138.5 24.5t-108.5 69.5t-56 87t-14 92q0 41 14 86t54 84.5t78 49t63 9.5q18 0 38.5 -5t27.5 -11.5t14 -22.5q-39 -8 -53.5 -14t-24.5 -27q-10 -27 6 -47.5t61 -20.5q53 0 84 54q23 33 23 106q0 66 -19 107q-41 119 -168 149q-25 8 -69 8q-39 0 -73 -9 t-60.5 -33.5t-43 -88t-16.5 -168.5l-2 -329l6 -543q0 -156 50 -190q45 -31 46 -55q0 -3 -1 -5q-4 -4 -20.5 -3t-29.5 1q-25 0 -93 3t-113 5l-203 -8q-53 0 -53 6zM551 557q0 27 9 60.5t44 46t43 12.5q63 0 116.5 -45t103 -102.5t96.5 -112.5q31 -33 97 -101.5t86.5 -78 t31.5 -9.5q29 0 28 33q0 23 -22 62q59 -6 96 -22.5t57.5 -59.5t20.5 -78q0 -49 -31 -102.5t-98.5 -89.5t-132.5 -36q-92 0 -178.5 38t-162 132.5t-140 228.5t-64.5 224z" />
<glyph unicode="S" horiz-adv-x="1269" d="M131 367q0 113 51 190.5t121 112.5t139 35q80 0 165 -33t124 -94.5t39 -145.5q0 -43 -10 -63q-12 -39 -35 -54.5t-45.5 -27t-32.5 -13.5q0 43 -11 59.5t-30.5 22.5t-30.5 6q-29 0 -56 -23.5t-27 -64.5q0 -12 5 -30.5t31.5 -42t57 -33.5t63.5 -10q100 0 180 80 q51 45 77 106.5t26 122.5q0 39 -18.5 108.5t-106.5 133t-234.5 112.5t-231.5 116t-100.5 152t-15.5 121q0 82 33 155t106.5 134.5t169 91t193.5 29.5t193.5 -32t151.5 -90t67.5 -118.5t11.5 -79.5q0 -55 -20.5 -109t-63.5 -91q-66 -49 -145 -49q-43 0 -115 27.5t-90 133.5 v25q0 16 6 57q14 -8 31.5 -15t31.5 -7q18 0 34 10t26 29.5t6 40.5q-4 23 -21.5 40t-42 25t-47.5 8q-37 0 -66.5 -11t-74.5 -55t-45 -114q0 -20 12.5 -68.5t104.5 -113t246.5 -123.5t243.5 -127t110.5 -173t21.5 -161q0 -100 -36.5 -194.5t-120.5 -181.5t-217.5 -128 t-268.5 -41q-68 0 -129 11q-119 25 -215 87t-136 155.5t-40 179.5z" />
<glyph unicode="T" horiz-adv-x="1488" d="M80 1571q2 0 127 -8.5t289 -14.5t338 -6q358 0 509.5 10.5t210.5 18.5q-29 -25 -46 -94.5t-17 -137.5q0 -16 2 -32.5t5 -42t8 -78.5t5 -72q0 -61 -16 -106t-57 -80q-27 -27 -63 -39t-72 -12q-23 0 -87.5 18t-94 92t-29.5 117q0 98 96 194q8 -51 55 -59q31 -7 57 17 q19 18 19 44q0 8 -2 17q-10 33 -40 46t-44 13q-27 0 -62.5 -14t-95 -57t-82 -142.5t-22.5 -220.5l6 -688q0 -156 51 -190q46 -31 46 -55q0 -3 -1 -5q-2 -4 -18.5 -4t-32.5 2q-14 0 -88 4t-119 4l-203 -8q-25 -2 -37 -2t-14 4q-4 25 44 58.5t48 191.5l6 688 q0 121 -22.5 220.5t-97 156.5t-142.5 57q-16 0 -43.5 -12t-38.5 -47q-2 -9 -2 -18q-1 -25 17 -43q19 -19 47 -18q7 0 14 1q45 8 53 59q96 -96 97 -198q0 -43 -29 -115t-95.5 -90t-86.5 -18q-74 0 -124 42t-67.5 89t-17.5 106q0 37 2 57.5t10 82t8 83.5q0 74 -15 140.5 t-46 93.5z" />
<glyph unicode="U" horiz-adv-x="1345" d="M119 1538q2 4 18.5 3t34.5 -1l203 -8q41 0 94 2t113 6h40t9 -2q1 -3 1 -5q0 -23 -45 -53q-50 -34 -50 -194l-7 -510v-155q0 -207 35 -291t96.5 -117t124.5 -33t117 27q92 53 118 155.5t26 227.5v512v96q0 45 -3.5 71.5t-23 38t-31.5 11.5t-33.5 -11.5t-21.5 -41.5 q0 -25 14.5 -41.5t44.5 -16.5q20 0 21 -26l-4 -23q-6 -23 -29 -43t-44.5 -26.5t-41.5 -6.5q-63 0 -116.5 47.5t-75 105.5t-21.5 118q0 31 9 78t54.5 99t105.5 70.5t110 18.5q57 0 106 -15.5t117.5 -65.5t97.5 -188.5t29 -330.5l-17 -766q0 -158 52 -192q46 -30 46 -53 q0 -3 -1 -5q-10 -2 -24.5 -3t-27.5 1q-29 2 -54 5t-62 3q-47 0 -82 -4t-94 -20q-8 0 -13 2l-2 8q0 14 -2 22q-10 12 -20 13q-8 0 -45 -15l-62 -28q-31 -14 -62.5 -25.5t-69.5 -20t-97 -8.5q-92 0 -220 51.5t-182.5 192.5t-54.5 340v80l2 166l-6 522q0 160 -49 193.5 t-45 58.5z" />
<glyph unicode="V" horiz-adv-x="1173" d="M57 1538q2 4 17.5 3t34.5 -1l202 -8q45 0 119 4t88 4h41t10 -2q6 -18 -25.5 -48t-31.5 -85q0 -45 20 -121l218 -743l172 524q18 53 34.5 104.5t16.5 73.5q0 20 -15.5 41t-44.5 16q-33 -10 -43 -31.5t-10 -33.5q0 -23 15.5 -41t39.5 -33q-12 -35 -43 -61q-25 -12 -61 -13 q-37 0 -71.5 27t-52 60.5t-24 68.5t-6.5 70q0 76 31 133t94.5 91t137.5 34q70 0 135 -24.5t102 -77t48.5 -90.5t11.5 -85q0 -57 -11.5 -102t-44.5 -144.5t-77 -235.5t-104.5 -328.5t-68.5 -227.5q-18 -80 -18 -121q0 -57 31.5 -82.5t25.5 -48.5q-2 -4 -17 -4t-32 2 q-14 0 -88 4t-119 4l-202 -8q-53 0 -54 2q-4 25 28 50.5t32 80.5q0 41 -19 121l-289 1032q-43 152 -91 190q-43 34 -43 55q0 3 1 5z" />
<glyph unicode="W" horiz-adv-x="1755" d="M59 1538q2 4 17.5 3t34.5 -1l202 -8q45 0 119 4t88 4h41t10 -2q1 -2 1 -5q0 -17 -36 -45q-42 -32 -42 -116q0 -53 35.5 -224t57 -261t55.5 -188.5t87 -184.5q57 137 91 281.5t34 283.5q0 113 -34 235t-87 160q-48 35 -48 59q0 3 1 5q2 4 18.5 3t34.5 -1l201 -8 q45 0 119 4t88 4h41t10 -2q1 -2 1 -5q0 -19 -40 -49q-45 -34 -45 -108q0 -35 15.5 -102.5t38 -154.5t82 -298t96.5 -307q61 221 106 351t66 186q12 43 35.5 102t23.5 64q4 29 -12.5 45t-42.5 16q-49 0 -62 -47q-4 -18 2 -37.5t21 -46.5q6 -16 -13.5 -26.5t-54.5 -10.5 q-33 0 -71.5 19.5t-62.5 55.5t-30 69.5t-6 50.5q0 47 15.5 94t55.5 91t99.5 61.5t132.5 17.5q63 0 130 -32t102 -89t35 -127q0 -59 -24 -135t-30 -101q-20 -55 -64 -177t-85 -243.5t-62.5 -195.5t-35 -133.5t-23.5 -104.5t-10 -88q0 -68 33.5 -93t27.5 -46q-2 -4 -17.5 -4 t-31.5 2q-14 0 -88 4t-121 4l-201 -8q-53 0 -53 6q0 22 38 48q42 28 42 102q0 36 -12 102q-14 102 -62 266l-26 92q-6 20 -13 21q-10 0 -22 -38t-33.5 -104.5t-34.5 -119.5l-26 -121q-6 -27 -11.5 -64.5t-5.5 -68.5q0 -61 29 -78.5t22 -40.5q-2 -4 -17 -4t-32 2 q-14 0 -87.5 4t-121.5 4l-202 -8q-25 -2 -37 -2t-15 4q-4 23 36 50.5t40 95.5q0 27 -2 43t-12 63l-272 1032q-41 160 -91 194q-44 30 -44 51q0 3 1 5z" />
<glyph unicode="X" horiz-adv-x="1533" d="M123 1104q0 96 25.5 188t78 154.5t124 93.5t149.5 31q29 0 95.5 -13.5t131 -69.5t102.5 -167l35 -111l60 101q37 57 52 91t15 54t-28.5 41t-24.5 41q2 4 17.5 3t33.5 -1l221 -8q61 0 126 3t100 5h41t10 -2q-2 -12 -67.5 -66.5t-131.5 -156.5l-248 -387q45 25 90.5 40 t88.5 15q51 0 101 -34t50 -105q-6 -33 -18 -45q-14 -27 -41 -27q-59 61 -117 62q-27 0 -68 -17.5t-69.5 -63.5t-34.5 -90.5t-6 -66.5q0 -61 20.5 -117.5t63.5 -93.5q51 -39 106 -39q27 0 55.5 11.5t45 27.5t26.5 43t10 57q0 57 -27.5 80t-46 30t-34.5 7q-20 0 -34.5 -5 t-24.5 -7q-8 6 -9 16q0 12 5.5 25.5t15.5 24t24 18.5q37 14 68 14q33 0 63.5 -10t89 -50t96.5 -143.5t38 -205.5q-8 -92 -59.5 -181.5t-131.5 -125t-157 -35.5q-53 0 -104.5 14t-119 63t-112.5 186.5t-45 372.5q-27 -47 -75 -141t-86 -173t-51.5 -117t-13.5 -58 q0 -23 17.5 -40t11.5 -40q-2 -4 -18.5 -4t-32.5 2q-14 0 -86 4t-117 4l-201 -8q-53 0 -53 5q-1 27 59 55q64 30 142 155l315 596q-37 -4 -53 -4q-37 0 -66.5 13.5t-54.5 49.5q-25 29 -24 68q0 45 30 88q4 -12 10.5 -25.5t27 -31t63.5 -17.5q47 0 69.5 40t22.5 71 q0 37 -23.5 80t-55.5 68.5t-77 25.5q-9 1 -18 1q-32 0 -60 -12q-34 -14 -60 -46.5t-34 -70.5t-8 -73q0 -68 26.5 -143.5t118.5 -157.5q12 -12 -4 -30.5t-37.5 -26.5t-48.5 -8q-18 0 -57 6t-94.5 68.5t-87 150.5t-31.5 207z" />
<glyph unicode="Y" horiz-adv-x="1183" d="M45 1538q2 6 51 2l203 -8q43 0 87 2t95 6h40t9 -2q6 -20 -15 -38.5t-21 -55.5q0 -31 6 -61.5t28 -98.5l37 -96l178 -412l142 254q31 53 61.5 109.5t30.5 89.5q0 8 -8 33.5t-43 29.5q-41 0 -57.5 -23.5t-4.5 -47.5q14 -27 23.5 -34t21.5 -16q16 -18 -13.5 -43.5 t-61.5 -25.5h-10q-74 0 -136 88q-33 51 -33 119q0 63 31 123q41 70 104.5 103.5t141.5 33.5q74 0 147.5 -37t112.5 -105.5t39 -140.5q0 -76 -38 -159t-75 -154l-203 -381q-27 -51 -41 -146.5t-14 -191.5q0 -156 49 -190q44 -31 44 -54q0 -3 -1 -6q-2 -4 -17 -4t-32 2 q-14 0 -88 4t-119 4l-202 -8q-54 0 -54 5q0 16 46 57q51 45 51 192q0 96 -11.5 161.5t-48.5 162.5l-276 714q-66 174 -114 196q-43 19 -43 42q0 3 1 6z" />
<glyph unicode="Z" horiz-adv-x="1245" d="M102 4q-4 18 54.5 78.5t119.5 183.5l312 742q35 86 49 140t14 89q0 39 -15 67.5t-43 50t-44.5 25.5t-32.5 4q-61 0 -103 -40q-38 -37 -38 -70v-6q0 -18 13 -34.5t27.5 -23t30.5 -6.5q33 0 60 27q23 -12 18 -51q-14 -86 -55 -132.5t-102 -64.5q-27 -10 -50 -10 q-51 0 -86 35q-37 31 -52 82t-15 110q0 25 1 40t7 51t8 69t2 63q0 76 -19.5 101.5t-12.5 42.5q2 2 20 2h33q115 -12 281.5 -22.5t283.5 -10.5l418 4q25 2 38 2t13 -4q1 -2 1 -5q0 -25 -56 -51q-62 -28 -125 -196l-279 -635q-76 -176 -76 -289q0 -57 21 -92q23 -29 55.5 -38 t79.5 -9q72 0 128 26.5t97 90.5q29 53 29 104q0 37 -16 66q-14 37 -45 35q-16 0 -26.5 -13.5t-12.5 -33.5q0 -37 -11.5 -68t-41 -48t-54.5 -17q-23 0 -49.5 18t-37.5 40.5t-11 49.5q0 12 4 26.5t10 28.5q10 -18 24.5 -38.5t37.5 -20.5q39 0 39 53q0 14 -3.5 36t-7.5 42.5 t-4 42.5q0 35 23.5 98.5t75 75.5t71.5 12q72 0 115 -47q39 -35 54.5 -82t15.5 -104q0 -35 -4.5 -66.5t-12.5 -80.5l-33 -187q-14 -70 -14 -115q0 -63 32 -89.5t23 -53.5q-2 -4 -18 -4t-33 2q-123 12 -549 12q-178 0 -278.5 -4t-220.5 -8q-25 -2 -37.5 -2t-14.5 4z" />
<glyph unicode="[" horiz-adv-x="669" d="M229 -377v1948h506v-107h-233v-1726h233v-115h-506z" />
<glyph unicode="\" horiz-adv-x="1302" d="M209 1577h227l809 -1622h-229z" />
<glyph unicode="]" horiz-adv-x="669" d="M59 -262h232v1726h-232v107h506v-1948h-506v115z" />
<glyph unicode="^" horiz-adv-x="673" d="M47 1690l168 200q57 66 87.5 94.5t100.5 28.5q47 0 78 -16.5t109 -106.5l170 -200h-191l-166 106l-163 -106h-193z" />
<glyph unicode="_" horiz-adv-x="1118" d="M-47 -270h1255v-150h-1255v150z" />
<glyph unicode="`" horiz-adv-x="520" d="M84 1923q0 45 34 67.5t60 22.5q78 0 182 -121l168 -202h-192l-184 125q-68 45 -68 108z" />
<glyph unicode="a" d="M76 8q0 24 64 56q70 34 128 200l293 807q18 57 30.5 111.5t12.5 93.5q0 41 -16.5 61.5t-52.5 12.5q-25 -4 -31 -27t-6 -27q0 -18 13 -29.5t36 -17.5q-4 -25 -6 -49q-10 -41 -44 -55.5t-51 -14.5q-31 0 -71.5 28t-64 82t-23.5 103q0 72 30.5 135.5t117.5 124t229 60.5 q76 0 159.5 -32t128.5 -114.5t86 -238.5l222 -850q6 -29 17 -67.5t26 -65.5q38 -85 94 -85q5 0 10 1q53 6 53 68q0 45 -28 83q-2 6 1 11.5t11 3.5q27 -4 43 -12.5t39.5 -36t29 -60t5.5 -55.5q0 -51 -19.5 -101.5t-59.5 -90t-104.5 -64.5t-126.5 -25q-37 0 -87 15.5 t-82.5 56.5t-80 135t-119 129t-119.5 41t-69 6q-45 0 -86 -13t-68.5 -51t-43 -72t-15.5 -56q1 -41 57 -69q51 -25 51 -46q0 -2 -1 -4q-2 -4 -18.5 -4t-32.5 2q-14 0 -88 4t-119 4l-203 -8h-40t-11 6zM647 571q0 -29 12.5 -40t43 -15t63.5 -4l53 2q20 6 29.5 9t19.5 20l-4 32 l-96 340l-63 -149q-29 -70 -43.5 -113t-14.5 -82z" />
<glyph unicode="b" horiz-adv-x="1292" d="M76 12q84 59 105.5 102.5t21.5 157.5l30 998q0 121 -19 158.5t-110 103.5q2 10 25 10q27 -4 94.5 -9t159.5 -5q72 2 147.5 6t152.5 16.5t114 16.5t67 4q80 0 136.5 -29t111.5 -104.5t55 -182.5q0 -74 -30.5 -144.5t-81.5 -108t-160 -97.5h55q106 0 173 -23.5t114 -94 t63.5 -148.5t16.5 -164q0 -145 -51.5 -260t-137.5 -188.5t-154.5 -83t-88.5 -9.5q-59 0 -118.5 26t-96.5 69t-51.5 91t-14.5 93q0 37 12.5 69.5t46 66.5t63.5 40t41 6h17q18 0 37 -11t29 -27.5t10 -34.5q-53 -25 -68.5 -35.5t-15.5 -44.5q-4 -33 18.5 -44.5t34.5 -11.5 q20 0 49 20.5t42.5 74t13.5 116.5q0 133 -49 223.5t-125 129.5q-37 16 -96 16q-51 0 -86 -18q-37 -27 -44.5 -69t-7.5 -167v-281v-88q0 -49 6.5 -66.5t34.5 -62.5v-10l-10 -2q-66 6 -113 10t-90 4q-88 0 -146 -4t-108 -10q-23 0 -24 10zM543 1028.5q0 -34.5 2 -57.5t8 -33 t45 -10q49 0 95 16.5t78 52t51.5 98t19.5 113.5q0 29 -17.5 89.5t-77 76t-88.5 15.5q-16 0 -46.5 -4.5t-43 -19.5t-17.5 -54t-7 -117t-2 -86v-79.5z" />
<glyph unicode="c" horiz-adv-x="1740" d="M137 809q0 106 40 254.5t169 291t308.5 203t328.5 60.5q139 0 271 -42t257 -139.5t193 -249t68 -300.5q0 -121 -44.5 -213.5t-144.5 -153.5q-106 -61 -219 -61q-131 0 -227 78q-47 35 -78 103.5t-31 133.5q0 35 20.5 100.5t85 82t91.5 16.5q55 0 86.5 -26.5t40 -52.5 t8.5 -38q0 -31 -10 -47q-31 6 -47.5 -8.5t-16.5 -38.5q0 -39 27 -53q10 -8 33 -9q12 0 30.5 4.5t37 36t24.5 65.5t6 64q0 100 -51.5 219t-124 189t-157.5 101.5t-171 31.5q-49 0 -184 -36t-188.5 -205t-53.5 -304q0 -162 43 -314.5t118 -243.5t154.5 -130t159.5 -39h29 q76 8 119 44t43 91q0 29 -9 54q-10 33 15 32q4 0 39 -10t83 -20.5t81 -10.5q49 0 103 15.5t159 52.5q12 2 14 -2q4 -6 2 -13t-6 -14l-27 -39q-47 -88 -92 -174q-39 -61 -127 -108t-174 -66.5t-157.5 -29t-122.5 -9.5q-172 0 -333 63.5t-275.5 196t-165 294t-50.5 323.5z" />
<glyph unicode="d" horiz-adv-x="1658" d="M133 236q0 66 24.5 136t62.5 107t83 54.5t90 17.5q37 0 107.5 -19.5t146.5 -139.5t135.5 -158.5t126.5 -38.5q33 0 65 8t104.5 39.5t134 155.5t72.5 210t11 142q0 166 -47 326.5t-123.5 224t-141 83t-138.5 19.5q-43 0 -67.5 -4t-95.5 -28.5t-136.5 -88t-80.5 -132.5 t-15 -99q0 -53 29.5 -81t66.5 -28q8 0 45 11.5t47 46t10 61.5q0 23 -9 43t-27.5 30.5t-37.5 18.5q10 27 18.5 36t28 17t48.5 8q16 0 33.5 -3t35 -10t47 -32.5t50.5 -70.5q18 -33 26 -69t8 -77q0 -78 -38.5 -150.5t-101 -117.5t-148.5 -55q-31 -6 -62 -6q-70 0 -139.5 28.5 t-122.5 82.5t-72.5 117.5t-19.5 135.5q0 47 8 99.5t12 78.5l19 117q4 35 9 75t5 62q0 37 -9 63.5t-28.5 47t-19.5 33.5q0 27 28 22q127 -14 213 -14q63 0 116.5 6t106 13t130.5 13.5t125 6.5q195 0 345 -64.5t265 -206t161 -285t46 -292.5q0 -154 -62.5 -335t-209 -313 t-275.5 -156t-178 -24q-106 0 -210 33t-148 86t-78 125q-35 82 -72 94q-31 12 -54.5 -10t-17.5 -53q4 -12 16.5 -24.5t28.5 -12.5t30 9.5t30 19.5q2 -16 5 -30.5t3 -37.5q0 -37 -11.5 -63.5t-51.5 -60.5t-95 -34q-27 0 -68.5 15.5t-82.5 67t-52.5 99.5t-11.5 79z" />
<glyph unicode="e" horiz-adv-x="1206" d="M131 7q0 17 46 57q50 44 50 190q4 113 6.5 249t2.5 261t-2.5 265t-6.5 257q0 160 -51 194q-46 30 -46 53q0 3 1 5q2 6 53 2q25 0 103 -4t100 -4q102 0 186 7t151 15.5t112 13.5t67 5q63 0 103.5 -16.5t69 -63.5t28.5 -102q0 -66 -40 -127.5t-111.5 -96t-145.5 -34.5 q-25 0 -37 2l-55 12q-23 10 -35 17t-12 22q84 51 84 117q0 29 -13.5 54t-32 36.5t-31.5 15.5t-42 4q-31 0 -44.5 -3t-21.5 -11q-12 -80 -14 -144.5t-4 -109.5v-123q55 -61 111.5 -88t117.5 -27q20 0 44 3t69 14.5t81 36t81 90.5q12 -49 15 -72t3 -61q0 -63 -17.5 -116.5 t-79 -119.5t-165.5 -66q-14 0 -54 6.5t-82 34t-66.5 50t-35.5 38.5q-14 16 -20 19q-4 -6 -5 -12v-199q6 -109 25 -223.5t69 -144t87 -29.5q39 0 84 27.5t45 88.5q0 49 -43 80q-20 10 -33 10q-23 0 -67 -22q20 68 57 104.5t91 56t112 19.5q84 0 142.5 -37t84 -86t29.5 -88 t4 -59q0 -53 -20.5 -106.5t-67.5 -97.5t-123 -64.5t-162 -20.5q-39 0 -81 4t-91 12.5t-135 20.5t-166 12q-41 0 -93 -3t-110 -5q-53 0 -53 5z" />
<glyph unicode="f" horiz-adv-x="1038" d="M113 8q0 24 45 54q49 34 49 192q4 113 6 249t2 261t-2 265t-6 257q0 160 -49 193.5t-45 58.5q2 4 18 3t35 -1q23 0 101.5 -4t101.5 -4h53h43q154 0 227.5 11t116.5 18.5t82 7.5q53 0 94 -16.5t70.5 -60.5t29.5 -101q0 -66 -40.5 -127.5t-112.5 -96t-144 -34.5 q-25 0 -48 3t-43.5 11t-35 17.5t-14.5 21.5q86 51 86 117q0 29 -13 54t-42 44q-14 4 -34.5 8t-29.5 4q-31 0 -44 -3t-21 -11q-10 -66 -15.5 -126.5t-5.5 -90.5v-37q0 -125 73 -179.5t173 -54.5q45 0 93 12.5t84 37t81 90.5q12 -47 15.5 -73t3.5 -65q0 -61 -17.5 -114.5 t-78 -118t-164.5 -64.5q-12 0 -52.5 5.5t-82.5 33t-62.5 46t-40.5 44.5q-16 16 -23 19q-4 -6 -6 -12l6 -498q0 -156 50 -190q46 -31 46 -55q0 -2 -1 -5q-3 -3 -14 -3h-7q-16 1 -29 1q-25 0 -93 3t-113 5l-203 -8q-53 0 -53 6z" />
<glyph unicode="g" horiz-adv-x="1732" d="M139 743q0 178 61.5 359.5t180.5 294t251 168t265 55.5q84 0 146.5 -17.5t96.5 -30.5t70.5 -38t89 -66t70.5 -43q5 -1 11 -1q24 0 51 28q12 18 12 37q0 18 -9 35t-32 37q20 16 45 21t47 5q37 0 58.5 -5t60.5 -33.5t39 -86.5v-18q-4 -23 -12.5 -55.5t-8.5 -53.5 q0 -33 15 -90q-119 -100 -215 -100q-47 0 -94.5 17.5t-112.5 56.5l-37 24q-80 49 -143.5 87t-129.5 38q-57 0 -149 -41t-150.5 -133t-73 -169t-16.5 -97.5t-2 -61.5q0 -156 52.5 -310.5t134.5 -232t149.5 -105.5t140.5 -28q51 0 132 23t162 103.5t103.5 150.5t31 113t8.5 75 q0 72 -30 108t-69 36t-48 -20.5t-9 -37.5q0 -12 8 -26q23 -27 64 -27q16 0 26 2q0 -66 -23.5 -105.5t-80.5 -70.5q-37 -16 -72 -16q-53 0 -108.5 34.5t-84 98t-28.5 127.5q0 76 42 161t102.5 121.5t109.5 49t98 12.5q109 0 273 -81t164 -314q2 -10 2 -22.5v-25.5 q0 -139 -66 -279t-201 -241.5t-274 -151.5t-272 -50q-152 0 -323 63t-308 232t-164 298t-27 213z" />
<glyph unicode="h" horiz-adv-x="1384" d="M115 8q0 24 45 54q49 34 49 192q4 113 6 249t2 261t-2 265t-6 257q0 160 -49 193.5t-45 58.5q2 3 12 3h7q16 -1 34 -1l203 -8q41 0 94 2t113 6q49 0 49 -2q1 -3 1 -5q0 -23 -46 -53q-50 -34 -50 -194q0 -37 9 -76q10 -74 38.5 -125t69.5 -70.5t67.5 -23.5t55.5 -4 q57 0 107.5 23.5t80 77t35.5 97.5t9.5 62.5t1.5 36.5q0 160 -49.5 193.5t-45.5 58.5q2 6 52 2l202 -8q43 0 96.5 2t112.5 6q49 0 51 -2q4 -16 -46 -61t-50 -191l-6 -510l6 -522q-1 -156 51 -190q45 -30 46 -54q0 -3 -1 -6q-2 -4 -18 -3t-33 1q-14 0 -88 4t-121 4l-202 -8 q-25 -2 -37.5 -2t-14.5 4q-4 18 45.5 56t49.5 159v174v37q0 100 -19.5 190.5t-81.5 131.5q-27 14 -62.5 21t-82.5 7q-84 0 -127 -24q-61 -41 -81 -136.5t-20 -195.5v-27v-172q0 -131 50 -163q45 -28 46 -51q0 -3 -1 -5q-4 -4 -20.5 -3t-28.5 1q-25 0 -93.5 3t-113.5 5 l-203 -8q-53 0 -53 6z" />
<glyph unicode="i" horiz-adv-x="602" d="M109 7q0 17 45 57q49 44 49 190q4 113 6 249t2 261t-2 265t-6 257q-1 158 -51 192q-44 30 -44 54q0 3 1 6q2 3 12 3h6q16 -1 35 -1l203 -8q41 0 94 2t112 6q49 0 50 -2q1 -3 1 -5q0 -23 -46 -53q-50 -34 -50 -194l-6 -510l6 -522q0 -156 50 -190q45 -31 46 -55 q0 -3 -1 -5q-3 -3 -14 -3h-7q-16 1 -29 1q-25 0 -93 3t-113 5l-203 -8q-53 0 -53 5z" />
<glyph unicode="j" horiz-adv-x="1052" d="M133 365q0 80 22.5 150.5t81 108.5t113.5 38q45 0 91 -22t77 -66t35 -77.5t4 -50.5q0 -37 -33 -108q-8 23 -25.5 31t-39.5 8q-20 0 -49 -12.5t-35 -75.5q0 -25 2 -48.5t24 -54.5q37 -41 84 -41q12 0 35 2.5t59.5 26t56 98t19.5 172.5l7 469l-7 453q0 119 -26 168 q-31 39 -60 78q0 7 15 7h4q20 -1 33 -1q33 0 114.5 -5t87.5 -5q43 0 101.5 2t107.5 8h41t10 -2q0 -29 -43 -61.5t-43 -188.5l-6 -373l6 -465q0 -182 -32.5 -312t-157.5 -206t-250 -76q-100 0 -205.5 56.5t-162 153t-56.5 221.5z" />
<glyph unicode="k" horiz-adv-x="1421" d="M84 6l2 14q92 57 119.5 123t27.5 189q4 121 6.5 266t2.5 279q0 96 -2 202.5t-7 194.5q0 115 -20 186.5t-109 126.5q-2 10 -2 15l9 6q66 -10 128 -16.5t113 -6.5q100 0 277 31q12 0 14 -8q2 -4 0 -8.5t-43 -35t-63.5 -119.5t-22.5 -247v-94q102 221 223 352t240 147.5 t143 16.5q72 0 136.5 -25.5t110.5 -82t64.5 -123t18.5 -134.5q0 -92 -33 -181t-93 -148.5t-122.5 -70.5t-81.5 -11q-45 0 -87 18.5t-84 65.5t-42 125q0 33 9.5 57.5t20.5 45t26 28.5q33 -37 57 -54.5t53 -17.5q14 0 33.5 4t43.5 22.5t32 44t8 44.5q0 41 -29 71 q-20 27 -51 39.5t-63 12.5h-25q-74 -10 -131 -66.5t-101.5 -161t-44.5 -157.5t50.5 -133t95.5 -148l328 -483q41 -63 95 -101.5t136 -76.5q6 -10 6 -17q0 -6 -14 -8q-117 18 -277 18t-295 -18q-10 4 -10 8q2 10 2 12t2 5l37 22q18 16 19 37q0 20 -24 63t-40 74l-340 524 v-313v-86q0 -131 20.5 -195.5t104.5 -125.5q6 -10 4 -17q-2 -6 -14 -6q-152 23 -277 23q-104 0 -262 -25q-8 4 -8 8z" />
<glyph unicode="l" horiz-adv-x="1200" d="M109 7q0 17 45 57q49 44 49 190q4 113 6 249t2 261t-2 265t-6 257q-1 158 -51 192q-44 30 -44 54q0 3 1 6q2 3 12 3h6q16 -1 35 -1l203 -8q43 0 100 2t123 6h40t9 -2q1 -3 1 -6q0 -22 -44 -52q-49 -34 -49 -194q-4 -113 -6 -249t-2 -261q4 -78 6 -172t2 -178 q0 -102 15 -144t45 -70t56.5 -38t57.5 -10q39 0 77 14.5t78 38.5q66 45 101 130t35 173q0 37 -9.5 83t-54.5 56q-29 4 -51 -20q-16 -23 -16 -59q0 -27 9 -75t9 -54q0 -70 -45 -95.5t-76 -25.5q-41 0 -81 27.5t-53 67.5t-11 60q6 47 37 47q8 0 8 -12q0 -23 17.5 -40t41.5 -17 q18 0 28.5 17.5t6.5 35.5l-22 70q-35 84 -49.5 134t-14.5 101q0 66 47 160t111.5 103.5t85.5 9.5q49 0 97 -17.5t92 -61.5t64.5 -111.5t20.5 -145.5q0 -51 -4 -90t-11 -86t-18.5 -141.5t-11.5 -188.5q0 -156 50 -190.5t46 -59.5q-2 -3 -16 -3h-7q-22 1 -30 1q-70 2 -242 6 t-274 4q-137 0 -266 -3t-256 -5q-53 0 -53 5z" />
<glyph unicode="m" horiz-adv-x="1835" d="M102 1300v29q0 59 22.5 112.5t75 96.5t107.5 62.5t117 19.5q61 0 144 -23.5t140.5 -79t133.5 -260.5l172 -475l192 494q18 49 29.5 95t11.5 69q0 43 -27.5 62.5t-21.5 37.5q2 4 18.5 3t34.5 -1q35 -4 110 -8t118 -4q61 0 123.5 4t103.5 8q25 2 38 2t13 -4q1 -3 1 -6 q0 -22 -52 -46q-59 -26 -59 -138q0 -14 2 -33t2 -29l100 -887q27 -285 85 -330.5t54 -68.5q-2 -4 -24 -4q-20 0 -38 4t-74 6t-132 2l-203 -8q-25 -2 -37 -2t-14 4q-4 23 47 66t51 127q0 23 -6 57l-88 643l-368 -924l-375 926q-23 -160 -45.5 -343t-29.5 -251.5t-7 -84v-23.5 q0 -104 50 -137q45 -29 45 -53q0 -3 -1 -5q-2 -4 -18.5 -3t-32.5 1q-12 0 -57.5 4t-92.5 4l-200 -8q-53 0 -54 2q-4 23 38 43.5t73 195.5t58.5 362.5t44 319.5t26.5 207q8 25 8 113q0 51 -7 61.5t-22.5 16.5t-31.5 2q-29 -10 -35 -39q-6 -23 12 -45q8 -14 21.5 -20.5 t25.5 -10.5q4 -12 4 -20q0 -12 -6 -37q-6 -8 -18 -19.5t-36 -22.5t-54 -11q-41 0 -70 20q-55 27 -85 78t-30 104z" />
<glyph unicode="n" horiz-adv-x="1353" d="M125 8q0 24 45 54q49 34 49 192q4 119 7 291t3 239q0 154 -2 275t-8 231q0 160 -49 191.5t-45 56.5q2 4 18.5 3t34.5 -1l240 -8q43 0 123 4t96 4q25 2 38 2t13 -4q6 -20 -26.5 -44t-32.5 -71q0 -31 9 -65.5t34 -93.5l383 -705v96q0 90 7 216t7 180q0 49 17.5 120.5 t17.5 88.5q0 27 -13.5 44t-41.5 17q-33 0 -40.5 -21.5t-7.5 -31.5q0 -14 13.5 -34t48.5 -20q8 0 6 -18t-16.5 -37.5t-41 -37t-59.5 -17.5q-39 0 -83 26.5t-75.5 74.5t-31.5 132q0 63 28.5 126t90 103t106.5 47t66 7q59 0 118.5 -23.5t96.5 -68.5t50 -93.5t13 -107.5 q0 -31 -4 -68.5t-10 -80.5l-29 -965q0 -135 51 -159.5t47 -49.5q-2 -4 -17 -3t-38 1q-37 2 -93 5t-116 3q-41 0 -107.5 -2t-111.5 -6q-49 0 -51 2q-6 23 25.5 43.5t31.5 54.5q0 25 -13 67t-44 99q-37 78 -70.5 145.5t-103.5 198.5l-215 385l-6 -354l6 -389q0 -156 51 -190 q46 -31 46 -55q0 -3 -1 -5q-2 -4 -18.5 -4t-32.5 2q-12 2 -71.5 5t-94.5 3q-37 0 -79 -3t-85 -5q-53 0 -53 6z" />
<glyph unicode="o" horiz-adv-x="1775" d="M129 834q0 66 10.5 178t113.5 269t231 218.5t206 83t162 33.5q27 2 47.5 3t34.5 1q176 0 361.5 -72.5t304 -213t169 -281t50.5 -283.5q0 -61 -10.5 -124.5t-49.5 -197t-198.5 -279.5t-310 -191.5t-269.5 -45.5q-152 0 -292 44t-281.5 168t-210 309.5t-68.5 380.5z M496 872q0 -70 5 -111.5t30.5 -156.5t110.5 -235.5t189.5 -158.5t176.5 -38q131 0 241 80q92 74 144.5 196.5t52.5 231.5q0 18 -4 51l-31 -90q-45 -102 -123 -160.5t-143.5 -72t-95.5 -13.5q-57 0 -112.5 21.5t-104 71t-74 127t-25.5 149.5q0 33 11.5 87t64.5 122.5 t118.5 92.5t106.5 24q61 0 100.5 -28t53.5 -60.5t14 -73.5q0 -25 -5 -41.5t-23 -46.5q-15 -25 -45 -24q-6 0 -13 1q-19 26 -35 53q-18 18 -53 19q-47 0 -64.5 -34t-17.5 -58q0 -27 17.5 -57.5t52.5 -49t74 -18.5q70 0 125 24.5t91.5 72.5t50 97t13.5 109q0 43 -6 74.5 t-35 107.5t-103.5 137.5t-157.5 80t-138 18.5q-82 0 -159 -30t-144.5 -98.5t-99 -172t-31.5 -220.5z" />
<glyph unicode="p" horiz-adv-x="1290" d="M119 8q0 24 45 54q49 34 49 192q2 66 6 237t4 273q0 156 -2 280.5t-8 241.5q0 160 -49 193.5t-45 58.5q2 4 18.5 3t34.5 -1q23 0 101.5 -4t101.5 -4q98 0 156.5 3t173.5 17q53 6 108 12.5t102 6.5q94 0 165 -30t126.5 -98.5t77 -144t21.5 -157.5q0 -113 -58.5 -278 t-181.5 -190.5t-152 -25.5q-72 0 -138 24.5t-122.5 86t-56.5 155.5q0 23 2 37.5t14.5 57.5t52.5 82.5t76.5 49t48 9.5h17.5q16 0 33.5 -4t27 -10.5t17.5 -24.5q-39 -8 -53.5 -14t-24.5 -27q-10 -27 6 -47.5t61 -20.5q53 0 84 54q23 33 23 106q0 66 -18 107q-45 119 -118 138 t-118 19q-41 0 -75 -9t-62.5 -33.5t-43 -85t-14.5 -171.5l-2 -329l7 -543q0 -156 50 -190q45 -31 45 -55q0 -2 -1 -5q-2 -4 -17.5 -4t-31.5 2q-14 0 -88 4t-119 4l-203 -8q-53 0 -53 6z" />
<glyph unicode="q" horiz-adv-x="1726" d="M129 772q0 154 41 293t143.5 272t297 206t376.5 73q53 0 175 -15.5t293 -128t237.5 -267t66.5 -308.5q0 -96 -21.5 -182t-62.5 -142.5t-71.5 -93.5t-106.5 -49q-8 -2 -24 -2q-53 0 -81 36t-28 97q0 43 14 86q29 115 29 221q0 137 -47 250t-157.5 202t-250.5 89 q-68 0 -154.5 -30.5t-161.5 -113.5t-101.5 -179.5t-26.5 -211.5q0 -166 42 -318.5t125 -243.5t147.5 -126.5t115.5 -35.5q23 0 40 5t44 15q14 -10 31.5 -25.5t17.5 -40.5q0 -49 -31.5 -94t-109.5 -58t-174 -13q-158 0 -342.5 158.5t-234.5 342t-50 332.5zM702 504 q0 35 11.5 83t47.5 92t95 69.5t115 25.5q78 0 155.5 -45t111.5 -119.5t71 -216.5l10 -39q18 -76 58 -164t98 -106q20 -4 28 -4q23 0 36 11t19.5 24.5t4.5 27.5q-21 47 -66 47q-8 14 -1 37t23.5 48.5t47 41t65.5 15.5q43 0 84 -19q88 -49 95.5 -106t7.5 -84 q0 -57 -21.5 -113.5t-63.5 -97.5t-101.5 -61.5t-119.5 -20.5q-16 0 -83.5 12.5t-134 82t-136.5 202.5l-22 51q-49 106 -83 156.5t-104 62.5q-20 4 -35.5 0t-29 -20.5t-21.5 -42t-45 -31.5q-10 -2 -27.5 4t-41 34t-36 73t-12.5 90z" />
<glyph unicode="r" horiz-adv-x="1284" d="M113 8q0 24 45 54q49 34 49 192q4 113 6 249t2 261t-2 265t-6 257q0 160 -49 193.5t-45 58.5q2 4 18 3t35 -1q23 0 101.5 -4t101.5 -4q98 0 156 3t173 17q53 6 108.5 12.5t102.5 6.5q94 0 165 -30t126 -98.5t76.5 -144t21.5 -157.5q0 -113 -58 -278t-181 -190.5 t-152 -25.5q-72 0 -138.5 24.5t-108.5 69.5t-56 87t-14 92q0 41 14 86t54 84.5t78 49t63 9.5q18 0 38.5 -5t27.5 -11.5t14 -22.5q-39 -8 -53.5 -14t-24.5 -27q-10 -27 6 -47.5t61 -20.5q53 0 84 54q23 33 23 106q0 66 -19 107q-41 119 -168 149q-25 8 -69 8q-39 0 -73 -9 t-60.5 -33.5t-43 -88t-16.5 -168.5l-2 -329l6 -543q0 -156 50 -190q45 -31 46 -55q0 -3 -1 -5q-4 -4 -20.5 -3t-29.5 1q-25 0 -93 3t-113 5l-203 -8q-53 0 -53 6zM551 557q0 27 9 60.5t44 46t43 12.5q63 0 116.5 -45t103 -102.5t96.5 -112.5q31 -33 97 -101.5t86.5 -78 t31.5 -9.5q29 0 28 33q0 23 -22 62q59 -6 96 -22.5t57.5 -59.5t20.5 -78q0 -49 -31 -102.5t-98.5 -89.5t-132.5 -36q-92 0 -178.5 38t-162 132.5t-140 228.5t-64.5 224z" />
<glyph unicode="s" horiz-adv-x="1269" d="M131 367q0 113 51 190.5t121 112.5t139 35q80 0 165 -33t124 -94.5t39 -145.5q0 -43 -10 -63q-12 -39 -35 -54.5t-45.5 -27t-32.5 -13.5q0 43 -11 59.5t-30.5 22.5t-30.5 6q-29 0 -56 -23.5t-27 -64.5q0 -12 5 -30.5t31.5 -42t57 -33.5t63.5 -10q100 0 180 80 q51 45 77 106.5t26 122.5q0 39 -18.5 108.5t-106.5 133t-234.5 112.5t-231.5 116t-100.5 152t-15.5 121q0 82 33 155t106.5 134.5t169 91t193.5 29.5t193.5 -32t151.5 -90t67.5 -118.5t11.5 -79.5q0 -55 -20.5 -109t-63.5 -91q-66 -49 -145 -49q-43 0 -115 27.5t-90 133.5 v25q0 16 6 57q14 -8 31.5 -15t31.5 -7q18 0 34 10t26 29.5t6 40.5q-4 23 -21.5 40t-42 25t-47.5 8q-37 0 -66.5 -11t-74.5 -55t-45 -114q0 -20 12.5 -68.5t104.5 -113t246.5 -123.5t243.5 -127t110.5 -173t21.5 -161q0 -100 -36.5 -194.5t-120.5 -181.5t-217.5 -128 t-268.5 -41q-68 0 -129 11q-119 25 -215 87t-136 155.5t-40 179.5z" />
<glyph unicode="t" horiz-adv-x="1488" d="M80 1571q2 0 127 -8.5t289 -14.5t338 -6q358 0 509.5 10.5t210.5 18.5q-29 -25 -46 -94.5t-17 -137.5q0 -16 2 -32.5t5 -42t8 -78.5t5 -72q0 -61 -16 -106t-57 -80q-27 -27 -63 -39t-72 -12q-23 0 -87.5 18t-94 92t-29.5 117q0 98 96 194q8 -51 55 -59q31 -7 57 17 q19 18 19 44q0 8 -2 17q-10 33 -40 46t-44 13q-27 0 -62.5 -14t-95 -57t-82 -142.5t-22.5 -220.5l6 -688q0 -156 51 -190q46 -31 46 -55q0 -3 -1 -5q-2 -4 -18.5 -4t-32.5 2q-14 0 -88 4t-119 4l-203 -8q-25 -2 -37 -2t-14 4q-4 25 44 58.5t48 191.5l6 688 q0 121 -22.5 220.5t-97 156.5t-142.5 57q-16 0 -43.5 -12t-38.5 -47q-2 -9 -2 -18q-1 -25 17 -43q19 -19 47 -18q7 0 14 1q45 8 53 59q96 -96 97 -198q0 -43 -29 -115t-95.5 -90t-86.5 -18q-74 0 -124 42t-67.5 89t-17.5 106q0 37 2 57.5t10 82t8 83.5q0 74 -15 140.5 t-46 93.5z" />
<glyph unicode="u" horiz-adv-x="1345" d="M119 1538q2 4 18.5 3t34.5 -1l203 -8q41 0 94 2t113 6h40t9 -2q1 -3 1 -5q0 -23 -45 -53q-50 -34 -50 -194l-7 -510v-155q0 -207 35 -291t96.5 -117t124.5 -33t117 27q92 53 118 155.5t26 227.5v512v96q0 45 -3.5 71.5t-23 38t-31.5 11.5t-33.5 -11.5t-21.5 -41.5 q0 -25 14.5 -41.5t44.5 -16.5q20 0 21 -26l-4 -23q-6 -23 -29 -43t-44.5 -26.5t-41.5 -6.5q-63 0 -116.5 47.5t-75 105.5t-21.5 118q0 31 9 78t54.5 99t105.5 70.5t110 18.5q57 0 106 -15.5t117.5 -65.5t97.5 -188.5t29 -330.5l-17 -766q0 -158 52 -192q46 -30 46 -53 q0 -3 -1 -5q-10 -2 -24.5 -3t-27.5 1q-29 2 -54 5t-62 3q-47 0 -82 -4t-94 -20q-8 0 -13 2l-2 8q0 14 -2 22q-10 12 -20 13q-8 0 -45 -15l-62 -28q-31 -14 -62.5 -25.5t-69.5 -20t-97 -8.5q-92 0 -220 51.5t-182.5 192.5t-54.5 340v80l2 166l-6 522q0 160 -49 193.5 t-45 58.5z" />
<glyph unicode="v" horiz-adv-x="1173" d="M57 1538q2 4 17.5 3t34.5 -1l202 -8q45 0 119 4t88 4h41t10 -2q6 -18 -25.5 -48t-31.5 -85q0 -45 20 -121l218 -743l172 524q18 53 34.5 104.5t16.5 73.5q0 20 -15.5 41t-44.5 16q-33 -10 -43 -31.5t-10 -33.5q0 -23 15.5 -41t39.5 -33q-12 -35 -43 -61q-25 -12 -61 -13 q-37 0 -71.5 27t-52 60.5t-24 68.5t-6.5 70q0 76 31 133t94.5 91t137.5 34q70 0 135 -24.5t102 -77t48.5 -90.5t11.5 -85q0 -57 -11.5 -102t-44.5 -144.5t-77 -235.5t-104.5 -328.5t-68.5 -227.5q-18 -80 -18 -121q0 -57 31.5 -82.5t25.5 -48.5q-2 -4 -17 -4t-32 2 q-14 0 -88 4t-119 4l-202 -8q-53 0 -54 2q-4 25 28 50.5t32 80.5q0 41 -19 121l-289 1032q-43 152 -91 190q-43 34 -43 55q0 3 1 5z" />
<glyph unicode="w" horiz-adv-x="1755" d="M59 1538q2 4 17.5 3t34.5 -1l202 -8q45 0 119 4t88 4h41t10 -2q1 -2 1 -5q0 -17 -36 -45q-42 -32 -42 -116q0 -53 35.5 -224t57 -261t55.5 -188.5t87 -184.5q57 137 91 281.5t34 283.5q0 113 -34 235t-87 160q-48 35 -48 59q0 3 1 5q2 4 18.5 3t34.5 -1l201 -8 q45 0 119 4t88 4h41t10 -2q1 -2 1 -5q0 -19 -40 -49q-45 -34 -45 -108q0 -35 15.5 -102.5t38 -154.5t82 -298t96.5 -307q61 221 106 351t66 186q12 43 35.5 102t23.5 64q4 29 -12.5 45t-42.5 16q-49 0 -62 -47q-4 -18 2 -37.5t21 -46.5q6 -16 -13.5 -26.5t-54.5 -10.5 q-33 0 -71.5 19.5t-62.5 55.5t-30 69.5t-6 50.5q0 47 15.5 94t55.5 91t99.5 61.5t132.5 17.5q63 0 130 -32t102 -89t35 -127q0 -59 -24 -135t-30 -101q-20 -55 -64 -177t-85 -243.5t-62.5 -195.5t-35 -133.5t-23.5 -104.5t-10 -88q0 -68 33.5 -93t27.5 -46q-2 -4 -17.5 -4 t-31.5 2q-14 0 -88 4t-121 4l-201 -8q-53 0 -53 6q0 22 38 48q42 28 42 102q0 36 -12 102q-14 102 -62 266l-26 92q-6 20 -13 21q-10 0 -22 -38t-33.5 -104.5t-34.5 -119.5l-26 -121q-6 -27 -11.5 -64.5t-5.5 -68.5q0 -61 29 -78.5t22 -40.5q-2 -4 -17 -4t-32 2 q-14 0 -87.5 4t-121.5 4l-202 -8q-25 -2 -37 -2t-15 4q-4 23 36 50.5t40 95.5q0 27 -2 43t-12 63l-272 1032q-41 160 -91 194q-44 30 -44 51q0 3 1 5z" />
<glyph unicode="x" horiz-adv-x="1533" d="M123 1104q0 96 25.5 188t78 154.5t124 93.5t149.5 31q29 0 95.5 -13.5t131 -69.5t102.5 -167l35 -111l60 101q37 57 52 91t15 54t-28.5 41t-24.5 41q2 4 17.5 3t33.5 -1l221 -8q61 0 126 3t100 5h41t10 -2q-2 -12 -67.5 -66.5t-131.5 -156.5l-248 -387q45 25 90.5 40 t88.5 15q51 0 101 -34t50 -105q-6 -33 -18 -45q-14 -27 -41 -27q-59 61 -117 62q-27 0 -68 -17.5t-69.5 -63.5t-34.5 -90.5t-6 -66.5q0 -61 20.5 -117.5t63.5 -93.5q51 -39 106 -39q27 0 55.5 11.5t45 27.5t26.5 43t10 57q0 57 -27.5 80t-46 30t-34.5 7q-20 0 -34.5 -5 t-24.5 -7q-8 6 -9 16q0 12 5.5 25.5t15.5 24t24 18.5q37 14 68 14q33 0 63.5 -10t89 -50t96.5 -143.5t38 -205.5q-8 -92 -59.5 -181.5t-131.5 -125t-157 -35.5q-53 0 -104.5 14t-119 63t-112.5 186.5t-45 372.5q-27 -47 -75 -141t-86 -173t-51.5 -117t-13.5 -58 q0 -23 17.5 -40t11.5 -40q-2 -4 -18.5 -4t-32.5 2q-14 0 -86 4t-117 4l-201 -8q-53 0 -53 5q-1 27 59 55q64 30 142 155l315 596q-37 -4 -53 -4q-37 0 -66.5 13.5t-54.5 49.5q-25 29 -24 68q0 45 30 88q4 -12 10.5 -25.5t27 -31t63.5 -17.5q47 0 69.5 40t22.5 71 q0 37 -23.5 80t-55.5 68.5t-77 25.5q-9 1 -18 1q-32 0 -60 -12q-34 -14 -60 -46.5t-34 -70.5t-8 -73q0 -68 26.5 -143.5t118.5 -157.5q12 -12 -4 -30.5t-37.5 -26.5t-48.5 -8q-18 0 -57 6t-94.5 68.5t-87 150.5t-31.5 207z" />
<glyph unicode="y" horiz-adv-x="1183" d="M45 1538q2 6 51 2l203 -8q43 0 87 2t95 6h40t9 -2q6 -20 -15 -38.5t-21 -55.5q0 -31 6 -61.5t28 -98.5l37 -96l178 -412l142 254q31 53 61.5 109.5t30.5 89.5q0 8 -8 33.5t-43 29.5q-41 0 -57.5 -23.5t-4.5 -47.5q14 -27 23.5 -34t21.5 -16q16 -18 -13.5 -43.5 t-61.5 -25.5h-10q-74 0 -136 88q-33 51 -33 119q0 63 31 123q41 70 104.5 103.5t141.5 33.5q74 0 147.5 -37t112.5 -105.5t39 -140.5q0 -76 -38 -159t-75 -154l-203 -381q-27 -51 -41 -146.5t-14 -191.5q0 -156 49 -190q44 -31 44 -54q0 -3 -1 -6q-2 -4 -17 -4t-32 2 q-14 0 -88 4t-119 4l-202 -8q-54 0 -54 5q0 16 46 57q51 45 51 192q0 96 -11.5 161.5t-48.5 162.5l-276 714q-66 174 -114 196q-43 19 -43 42q0 3 1 6z" />
<glyph unicode="z" horiz-adv-x="1245" d="M102 4q-4 18 54.5 78.5t119.5 183.5l312 742q35 86 49 140t14 89q0 39 -15 67.5t-43 50t-44.5 25.5t-32.5 4q-61 0 -103 -40q-38 -37 -38 -70v-6q0 -18 13 -34.5t27.5 -23t30.5 -6.5q33 0 60 27q23 -12 18 -51q-14 -86 -55 -132.5t-102 -64.5q-27 -10 -50 -10 q-51 0 -86 35q-37 31 -52 82t-15 110q0 25 1 40t7 51t8 69t2 63q0 76 -19.5 101.5t-12.5 42.5q2 2 20 2h33q115 -12 281.5 -22.5t283.5 -10.5l418 4q25 2 38 2t13 -4q1 -2 1 -5q0 -25 -56 -51q-62 -28 -125 -196l-279 -635q-76 -176 -76 -289q0 -57 21 -92q23 -29 55.5 -38 t79.5 -9q72 0 128 26.5t97 90.5q29 53 29 104q0 37 -16 66q-14 37 -45 35q-16 0 -26.5 -13.5t-12.5 -33.5q0 -37 -11.5 -68t-41 -48t-54.5 -17q-23 0 -49.5 18t-37.5 40.5t-11 49.5q0 12 4 26.5t10 28.5q10 -18 24.5 -38.5t37.5 -20.5q39 0 39 53q0 14 -3.5 36t-7.5 42.5 t-4 42.5q0 35 23.5 98.5t75 75.5t71.5 12q72 0 115 -47q39 -35 54.5 -82t15.5 -104q0 -35 -4.5 -66.5t-12.5 -80.5l-33 -187q-14 -70 -14 -115q0 -63 32 -89.5t23 -53.5q-2 -4 -18 -4t-33 2q-123 12 -549 12q-178 0 -278.5 -4t-220.5 -8q-25 -2 -37.5 -2t-14.5 4z" />
<glyph unicode="{" horiz-adv-x="1054" d="M104 604v125q223 35 299 110.5t76 295.5v114q0 156 28 250t133 154.5t204.5 82t220.5 21.5v-110q-72 -8 -148.5 -36t-125 -76t-62.5 -89t-14 -100v-41t2 -43v-125v-47q0 -100 -25.5 -176t-96.5 -128.5t-147.5 -74t-207.5 -45.5q270 -43 372.5 -129t102.5 -344v-109v-66 q0 -100 20.5 -150t119.5 -117.5t212 -67.5v-105q-131 0 -269.5 35t-211 110.5t-90 138t-17.5 161.5v57v123v71q0 84 -23.5 145.5t-101.5 112.5q-49 29 -99 41.5t-151 30.5z" />
<glyph unicode="|" horiz-adv-x="563" d="M264 -172v1946h168v-1946h-168z" />
<glyph unicode="}" horiz-adv-x="1054" d="M113 -317q61 0 111 16t123 66.5t94.5 100.5t21.5 144v74v109q0 256 103.5 343t373.5 130q-121 23 -203 44t-158.5 76.5t-97 138.5t-20.5 212v125v45t2 45q0 57 -13.5 95t-62.5 87t-125 76.5t-147 36.5v110q127 0 220 -20.5t183 -73.5q125 -70 153.5 -165t28.5 -249v-114 q0 -217 75 -294t300 -112v-125q-63 -12 -127 -22q-70 -16 -134 -57.5t-89 -105t-25 -143.5v-73v-123v-49q0 -100 -17 -166t-89 -140.5t-214 -110.5t-267 -36v105z" />
<glyph unicode="~" horiz-adv-x="710" d="M106 1722q0 74 54.5 132.5t134.5 58.5q68 0 169 -70.5t146 -70.5q25 0 49.5 22.5t24.5 48.5q0 27 -7 48.5t-24 41.5q-10 12 0.5 28.5t28.5 16.5t35 -16q45 -35 45 -127q0 -76 -32 -132t-109 -56q-68 0 -203 59t-174 59q-55 0 -56 -49q0 -8 5 -24q6 -23 -6.5 -39.5 t-32.5 -16.5q-29 0 -41 41q-6 23 -7 45z" />
<glyph unicode="&#xa2;" horiz-adv-x="1198" d="M137 872q0 72 29 174.5t120 204t178 131t115.5 35.5t57.5 10q0 123 -8 136.5t-88 60.5q-6 12 -4 14q4 4 16 2q37 -4 80 -6t82 -2q35 0 72.5 2t70.5 6q12 2 14 -2q2 -2 -2 -14q-43 -25 -86 -47q-14 -18 -14 -135v-10q172 0 311 -117q35 -31 70 -113t35 -166 q0 -86 -31 -142t-110.5 -97t-194.5 -41q-53 0 -96 13t-84 59t-41 128v33q6 16 18 57t57.5 52.5t63.5 11.5q35 0 61.5 -21.5t31.5 -36t5 -21.5v-13q0 -12 -6 -23q-18 2 -33.5 -2t-15.5 -32q0 -27 16 -33q12 -10 35 -10q20 0 58 14t57 63q12 25 12 60q0 37 -16.5 72.5 t-57.5 76.5q-92 82 -217 82q-39 0 -92 -13t-104 -65.5t-69.5 -108t-25 -102.5t-6.5 -86q0 -117 29 -220t82 -167.5t106.5 -90t108.5 -25.5h25q29 0 56.5 16t41.5 47q0 6 5 22.5t5 24.5v49q47 -16 85 -26.5t65 -10.5q29 0 71.5 11.5t108.5 36.5l6 -19l-18 -29 q-39 -59 -76 -116q-25 -31 -103.5 -74t-131 -58.5t-97.5 -15.5v-10q0 -143 12.5 -169t87.5 -71q4 -12 2 -14q-2 -4 -14 -2q-33 4 -70.5 6t-72.5 2q-39 0 -82 -2t-80 -6q-12 -2 -16 2q-2 2 4 14q72 43 84 71t12 169v10q-94 8 -187.5 54.5t-169 130.5t-109.5 196.5t-34 224.5z " />
<glyph unicode="&#xa3;" horiz-adv-x="1130" d="M131 147q0 39 8 64q33 55 72 84t84 38t72 9q31 0 67.5 -9t52.5 -14q-14 111 -34.5 191t-55.5 160h-221v157h191q-25 63 -36.5 115.5t-11.5 93.5q0 29 7 60q20 199 130.5 315.5t236.5 137t147 20.5q72 0 133 -23.5t103 -75t59.5 -111t17.5 -118.5q0 -78 -27.5 -156.5 t-83 -134t-139.5 -69.5q-23 -6 -47 -7q-41 0 -77 15.5t-71.5 61.5t-35.5 116q0 23 8 47.5t18.5 39.5t20.5 26q55 -63 112 -64q70 0 84 66q6 18 7 37q0 31 -22.5 58.5t-47.5 38.5t-55 11q-16 0 -69.5 -7t-91.5 -76.5t-38 -156.5q0 -23 17.5 -94.5t46.5 -165.5h262v-157h-238 q0 -137 -8 -209t-41 -193q49 -14 107.5 -28.5t111.5 -14.5q117 0 158 37t65 115h43q0 -131 -36.5 -236.5t-86 -138.5t-84 -42t-73.5 -9q-74 0 -115 19.5t-80 53t-88 82.5q-27 -45 -51 -88q-31 -33 -83 -51t-114 -18q-59 0 -101 27.5t-60.5 75.5t-18.5 95zM195 127 q0 -45 30.5 -81t89.5 -36q41 0 75 19.5t56.5 61.5t30.5 87q-27 29 -67.5 46.5t-87.5 17.5q-43 -1 -68 -17q-59 -37 -59 -98z" />
<glyph unicode="&#xa8;" horiz-adv-x="675" d="M100 1808q-6 47 18 84.5t77 53.5q16 6 32 6q45 0 80 -25.5t47.5 -55.5t7.5 -63q0 -68 -71 -106q-37 -14 -66 -14q-31 0 -75 25.5t-50 94.5zM494 1812q0 49 20.5 84.5t73.5 49.5q16 6 33 6q45 0 78.5 -25.5t45 -54.5t11.5 -64q0 -29 -19.5 -59.5t-52.5 -46.5 q-37 -14 -66 -14q-31 0 -77.5 26.5t-46.5 97.5z" />
<glyph unicode="&#xa9;" horiz-adv-x="1515" d="M-8 758q0 203 102.5 380t280.5 279.5t383 102.5q207 0 384 -102.5t279.5 -279.5t102.5 -380q0 -205 -102.5 -383t-280.5 -280.5t-383 -102.5t-383 102.5t-280.5 280.5t-102.5 383zM150 758q0 -160 80.5 -300.5t223 -221t304.5 -80.5t304 80.5t223 220t81 297.5 q0 254 -177 431t-429 177q-164 0 -306.5 -81t-223 -221t-80.5 -302zM360 770q0 197 119 318.5t305 121.5q150 0 245 -74.5t126 -217.5h-174q-18 74 -69.5 113.5t-125.5 39.5q-111 0 -183.5 -81t-72.5 -218q0 -141 77 -229t184 -88q74 0 127 44.5t63 116.5h174 q-16 -131 -116.5 -216t-247.5 -85q-188 0 -309.5 126t-121.5 329z" />
<glyph unicode="&#xad;" horiz-adv-x="720" d="M104 485q4 29 8.5 66t4.5 72q0 37 -4.5 74.5t-8.5 70.5q41 -2 147.5 -6t172.5 -4q109 0 192.5 3t126.5 7q-4 -31 -8 -67.5t-4 -71.5t4 -73t8 -71q-68 4 -150.5 8.5t-160.5 4.5q-80 0 -167 -4.5t-161 -8.5z" />
<glyph unicode="&#xae;" horiz-adv-x="1515" d="M-8 756q0 205 102.5 382t280.5 279.5t383 102.5q207 0 384 -102.5t279.5 -279.5t102.5 -382t-102.5 -382t-279.5 -279.5t-384 -102.5q-205 0 -383 102.5t-280.5 279.5t-102.5 382zM150 758q0 -162 80.5 -301.5t223 -220t304.5 -80.5t304 80.5t223 219t81 298.5 q0 254 -177 431t-429 177t-431 -177t-179 -427zM440 334v840h371q119 0 173 -27t88 -82t34 -135q0 -68 -20.5 -110t-77.5 -83q47 -27 63 -59.5t21 -114.5q8 -156 14 -181.5t35 -47.5h-209q-14 35 -18.5 57.5t-6.5 77.5q-2 113 -11 138.5t-31.5 38.5t-90.5 13h-149v-325h-185 zM625 813h153q90 0 119 23.5t29 76.5t-29 76t-117 23h-155v-199z" />
<glyph unicode="&#xb1;" horiz-adv-x="1124" d="M90 39v139h946v-139h-946zM90 539v139h404v250h139v-250h403v-139h-403v-250h-139v250h-404z" />
<glyph unicode="&#xb4;" horiz-adv-x="520" d="M70 1731l170 204q102 121 182 121q27 0 49 -18q43 -29 43 -74q0 -59 -70 -109l-184 -124h-190z" />
<glyph unicode="&#xb5;" horiz-adv-x="1179" d="M150 -285l4 119l4 182l-2 207l-4 195v502h188v-607q0 -145 28.5 -194t102.5 -49q117 0 194.5 165.5t77.5 417.5v267h189v-672q0 -92 19.5 -135t58.5 -43q41 0 64.5 42t23.5 126v28h43l2 -18v-27q0 -113 -48 -176t-137 -63q-100 0 -154 88t-54 264q-47 -182 -126 -267 t-198 -85q-86 0 -150 53q-57 55 -81 158l-2 -58q0 -133 65.5 -290.5t65.5 -186.5q0 -41 -22.5 -63.5t-63.5 -22.5q-47 0 -67.5 35t-20.5 108z" />
<glyph unicode="&#xc0;" d="M76 4q-6 27 63.5 60.5t128.5 199.5l293 807q18 57 30.5 111.5t12.5 93.5q0 41 -16.5 61.5t-52.5 12.5q-25 -4 -31 -27t-6 -27q0 -18 13 -29.5t36 -17.5q-4 -25 -6 -49q-10 -41 -44 -55.5t-51 -14.5q-31 0 -71.5 28t-64 82t-23.5 103q0 72 30.5 135.5t117.5 124t229 60.5 q76 0 159.5 -32t128.5 -114.5t86 -238.5l222 -850q6 -29 17 -67.5t26 -65.5q41 -92 104 -84q53 6 53 68q0 45 -28 83q-2 6 1 11.5t11 3.5q27 -4 43 -12.5t39.5 -36t29 -60t5.5 -55.5q0 -51 -19.5 -101.5t-59.5 -90t-104.5 -64.5t-126.5 -25q-37 0 -87 15.5t-82.5 56.5 t-80 135t-119 129t-119.5 41t-69 6q-45 0 -86 -13t-68.5 -51t-43 -72t-15.5 -56q0 -41 56.5 -68.5t50.5 -50.5q-2 -4 -18.5 -4t-32.5 2q-14 0 -88 4t-119 4l-203 -8h-40t-11 2zM367 1964q0 45 32.5 68.5t61.5 23.5q78 0 180 -121l170 -204h-193l-184 124q-68 49 -67 109z M647 571q0 -29 12.5 -40t43 -15t63.5 -4l53 2q20 6 29.5 9t19.5 20l-4 32l-96 340l-63 -149q-29 -70 -43.5 -113t-14.5 -82z" />
<glyph unicode="&#xc1;" d="M76 4q-6 27 63.5 60.5t128.5 199.5l293 807q18 57 30.5 111.5t12.5 93.5q0 41 -16.5 61.5t-52.5 12.5q-25 -4 -31 -27t-6 -27q0 -18 13 -29.5t36 -17.5q-4 -25 -6 -49q-10 -41 -44 -55.5t-51 -14.5q-31 0 -71.5 28t-64 82t-23.5 103q0 72 30.5 135.5t117.5 124t229 60.5 q76 0 159.5 -32t128.5 -114.5t86 -238.5l222 -850q6 -29 17 -67.5t26 -65.5q41 -92 104 -84q53 6 53 68q0 45 -28 83q-2 6 1 11.5t11 3.5q27 -4 43 -12.5t39.5 -36t29 -60t5.5 -55.5q0 -51 -19.5 -101.5t-59.5 -90t-104.5 -64.5t-126.5 -25q-37 0 -87 15.5t-82.5 56.5 t-80 135t-119 129t-119.5 41t-69 6q-45 0 -86 -13t-68.5 -51t-43 -72t-15.5 -56q0 -41 56.5 -68.5t50.5 -50.5q-2 -4 -18.5 -4t-32.5 2q-14 0 -88 4t-119 4l-203 -8h-40t-11 2zM586 1731l170 204q102 121 182 121q27 0 59.5 -23.5t32.5 -68.5q0 -61 -69 -109l-185 -124h-190 zM647 571q0 -29 12.5 -40t43 -15t63.5 -4l53 2q20 6 29.5 9t19.5 20l-4 32l-96 340l-63 -149q-29 -70 -43.5 -113t-14.5 -82z" />
<glyph unicode="&#xc2;" d="M76 4q-6 27 63.5 60.5t128.5 199.5l293 807q18 57 30.5 111.5t12.5 93.5q0 41 -16.5 61.5t-52.5 12.5q-25 -4 -31 -27t-6 -27q0 -18 13 -29.5t36 -17.5q-4 -25 -6 -49q-10 -41 -44 -55.5t-51 -14.5q-31 0 -71.5 28t-64 82t-23.5 103q0 72 30.5 135.5t117.5 124t229 60.5 q76 0 159.5 -32t128.5 -114.5t86 -238.5l222 -850q6 -29 17 -67.5t26 -65.5q41 -92 104 -84q53 6 53 68q0 45 -28 83q-2 6 1 11.5t11 3.5q27 -4 43 -12.5t39.5 -36t29 -60t5.5 -55.5q0 -51 -19.5 -101.5t-59.5 -90t-104.5 -64.5t-126.5 -25q-37 0 -87 15.5t-82.5 56.5 t-80 135t-119 129t-119.5 41t-69 6q-45 0 -86 -13t-68.5 -51t-43 -72t-15.5 -56q0 -41 56.5 -68.5t50.5 -50.5q-2 -4 -18.5 -4t-32.5 2q-14 0 -88 4t-119 4l-203 -8h-40t-11 2zM352 1731l168 202q51 57 85 89t104 32q57 0 91 -25.5t97 -95.5l170 -202h-193l-165 108 l-164 -108h-193zM647 571q0 -29 12.5 -40t43 -15t63.5 -4l53 2q20 6 29.5 9t19.5 20l-4 32l-96 340l-63 -149q-29 -70 -43.5 -113t-14.5 -82z" />
<glyph unicode="&#xc3;" d="M76 4q-6 27 63.5 60.5t128.5 199.5l293 807q18 57 30.5 111.5t12.5 93.5q0 41 -16.5 61.5t-52.5 12.5q-25 -4 -31 -27t-6 -27q0 -18 13 -29.5t36 -17.5q-4 -25 -6 -49q-10 -41 -44 -55.5t-51 -14.5q-31 0 -71.5 28t-64 82t-23.5 103q0 72 30.5 135.5t117.5 124t229 60.5 q76 0 159.5 -32t128.5 -114.5t86 -238.5l222 -850q6 -29 17 -67.5t26 -65.5q41 -92 104 -84q53 6 53 68q0 45 -28 83q-2 6 1 11.5t11 3.5q27 -4 43 -12.5t39.5 -36t29 -60t5.5 -55.5q0 -51 -19.5 -101.5t-59.5 -90t-104.5 -64.5t-126.5 -25q-37 0 -87 15.5t-82.5 56.5 t-80 135t-119 129t-119.5 41t-69 6q-45 0 -86 -13t-68.5 -51t-43 -72t-15.5 -56q0 -41 56.5 -68.5t50.5 -50.5q-2 -4 -18.5 -4t-32.5 2q-14 0 -88 4t-119 4l-203 -8h-40t-11 2zM397 1810q0 76 53.5 131.5t135.5 55.5q66 0 168 -71t147 -71q27 0 49.5 23t22.5 49 q0 25 -8.5 48.5t-20.5 39.5q-8 14 1 30.5t28 16.5q18 0 36.5 -16t32 -49t13.5 -78q0 -74 -34 -131t-110 -57q-68 0 -204 58t-175 58q-53 0 -53 -47q0 -6 4 -26q4 -23 -8 -37.5t-31 -14.5q-31 0 -41 39q-6 25 -6 49zM647 571q0 -29 12.5 -40t43 -15t63.5 -4l53 2q20 6 29.5 9 t19.5 20l-4 32l-96 340l-63 -149q-29 -70 -43.5 -113t-14.5 -82z" />
<glyph unicode="&#xc4;" d="M76 4q-6 27 63.5 60.5t128.5 199.5l293 807q18 57 30.5 111.5t12.5 93.5q0 41 -16.5 61.5t-52.5 12.5q-25 -4 -31 -27t-6 -27q0 -18 13 -29.5t36 -17.5q-4 -25 -6 -49q-10 -41 -44 -55.5t-51 -14.5q-31 0 -71.5 28t-64 82t-23.5 103q0 72 30.5 135.5t117.5 124t229 60.5 q76 0 159.5 -32t128.5 -114.5t86 -238.5l222 -850q6 -29 17 -67.5t26 -65.5q41 -92 104 -84q53 6 53 68q0 45 -28 83q-2 6 1 11.5t11 3.5q27 -4 43 -12.5t39.5 -36t29 -60t5.5 -55.5q0 -51 -19.5 -101.5t-59.5 -90t-104.5 -64.5t-126.5 -25q-37 0 -87 15.5t-82.5 56.5 t-80 135t-119 129t-119.5 41t-69 6q-45 0 -86 -13t-68.5 -51t-43 -72t-15.5 -56q0 -41 56.5 -68.5t50.5 -50.5q-2 -4 -18.5 -4t-32.5 2q-14 0 -88 4t-119 4l-203 -8h-40t-11 2zM373 1853q0 49 20.5 84.5t71.5 49.5q16 6 35 6q49 0 86 -31q27 -18 39 -48t8 -65q0 -66 -49 -92 t-86 -26q-29 0 -58.5 16t-48 43t-18.5 63zM647 571q0 -29 12.5 -40t43 -15t63.5 -4l53 2q20 6 29.5 9t19.5 20l-4 32l-96 340l-63 -149q-29 -70 -43.5 -113t-14.5 -82zM764 1853q0 47 22.5 83.5t73.5 50.5q16 6 35 6q45 0 82 -31q55 -39 49 -113q0 -68 -49 -93t-84 -25 q-31 0 -80 27.5t-49 94.5z" />
<glyph unicode="&#xc5;" d="M76 4q-6 27 63.5 60.5t128.5 199.5l293 807q18 57 30.5 111.5t12.5 93.5q0 41 -16.5 61.5t-52.5 12.5q-25 -4 -31 -27t-6 -27q0 -18 13 -29.5t36 -17.5q-4 -25 -6 -49q-10 -41 -44 -55.5t-51 -14.5q-31 0 -71.5 28t-64 82t-23.5 103q0 72 30.5 135.5t117.5 124t229 60.5 q76 0 159.5 -32t128.5 -114.5t86 -238.5l222 -850q6 -29 17 -67.5t26 -65.5q41 -92 104 -84q53 6 53 68q0 45 -28 83q-2 6 1 11.5t11 3.5q27 -4 43 -12.5t39.5 -36t29 -60t5.5 -55.5q0 -51 -19.5 -101.5t-59.5 -90t-104.5 -64.5t-126.5 -25q-37 0 -87 15.5t-82.5 56.5 t-80 135t-119 129t-119.5 41t-69 6q-45 0 -86 -13t-68.5 -51t-43 -72t-15.5 -56q0 -41 56.5 -68.5t50.5 -50.5q-2 -4 -18.5 -4t-32.5 2q-14 0 -88 4t-119 4l-203 -8h-40t-11 2zM483 1933q0 45 22.5 96.5t61.5 80t78 36.5q25 6 49 6q37 0 73 -13t87 -58t51 -142 q0 -20 -5 -50.5t-34.5 -71.5t-79 -63.5t-98.5 -22.5q-55 0 -100 28q-53 29 -79 74t-26 100zM580 1931q6 -63 47 -84.5t65 -21.5q10 0 26.5 4t26.5 8q63 39 64 94q6 61 -45 101q-29 27 -70 26q-16 0 -28 -6q-43 -12 -64.5 -46t-21.5 -75zM647 571q0 -29 12.5 -40t43 -15 t63.5 -4l53 2q20 6 29.5 9t19.5 20l-4 32l-96 340l-63 -149q-29 -70 -43.5 -113t-14.5 -82z" />
<glyph unicode="&#xc6;" horiz-adv-x="1896" d="M57 4q0 27 75 60.5t165 199.5l432 807q31 51 57.5 125t26.5 107q0 18 -6 30q-18 25 -53 17q-27 -6 -37 -28t-10 -34q0 -16 10 -24.5t28 -14.5q-12 -43 -22 -66.5t-46 -38t-54 -14.5q-33 0 -63 25t-45 63.5t-15 84.5q0 10 2 22t7 49t48 102.5t142.5 126t238.5 60.5 q72 0 121 -20.5t79 -47t48 -61.5q72 0 134 6t129 15.5t104.5 13.5t62.5 4q63 0 103 -16.5t67 -63.5q31 -47 31 -102q0 -61 -41 -125t-112 -98.5t-144 -34.5q-25 0 -48.5 3t-50 13t-34 16t-7.5 21q82 51 82 117q0 31 -11 54t-30.5 35.5t-33 16.5t-41.5 4h-33q-25 -4 -35 -14 q-12 -92 -14 -150.5t-2 -103.5v-123q55 -61 112.5 -88t116.5 -27q20 0 44 3t69 14.5t80.5 36t80.5 90.5q16 -66 17 -133q0 -59 -17.5 -114.5t-58.5 -103.5q-80 -84 -182 -84q-12 0 -54.5 5.5t-81 32t-60 45t-41 41t-23.5 24.5q-4 -6 -7 -12v-199q2 -63 17.5 -197.5t72 -167 t91.5 -32.5q39 0 85 27.5t46 88.5q0 27 -9.5 45.5t-30 31.5t-36.5 13q-20 0 -66 -22q18 66 55.5 103.5t91.5 57t114 19.5q84 0 170 -55t86 -184v-31q0 -57 -18.5 -108.5t-65.5 -92.5q-49 -47 -125 -67.5t-162 -20.5q-39 0 -81 4t-91 12.5t-135 20.5t-168 12q-41 0 -92.5 -3 t-108.5 -5q-53 0 -53 2q-4 25 45 57.5t49 190.5q-33 25 -76 39t-77.5 19t-55.5 5q-45 0 -87 -14t-76 -50t-58.5 -74t-24.5 -68q0 -33 47.5 -57.5t38.5 -47.5q-2 -4 -20.5 -3t-32.5 1q-12 0 -86 4t-119 4l-205 -8h-24t-25 2zM729 557q0 -20 8 -28.5t36 -12.5t63 -4l55 2 q10 4 24.5 6t28.5 4l2 240l-2 205l-125 -203q-45 -78 -67.5 -128t-22.5 -81z" />
<glyph unicode="&#xc7;" horiz-adv-x="1740" d="M137 809q0 106 40 254.5t169 291t308.5 203t328.5 60.5q139 0 271 -42t257 -139.5t193 -249t68 -300.5q0 -121 -44.5 -213t-147.5 -153.5t-216 -61.5q-131 0 -227 78q-47 35 -78 103.5t-31 133.5q0 35 20.5 100.5t85 82t91.5 16.5q55 0 86.5 -26.5t40 -52.5t8.5 -38 q0 -31 -10 -47q-31 6 -47.5 -8.5t-16.5 -38.5q0 -39 27 -53q10 -8 33 -9q12 0 30.5 4.5t37 36t24.5 65.5t6 64q0 100 -51.5 219t-124 189t-157.5 101.5t-171 31.5q-49 0 -184 -36t-188.5 -205t-53.5 -304q0 -162 43 -314.5t118 -243.5t154.5 -130t159.5 -39h29q76 8 119 44 t43 91q0 29 -9 54q-10 33 15 32q4 0 39 -10t83 -20.5t81 -10.5q49 0 103 15.5t159 52.5q12 2 14 -2q4 -6 2 -13t-6 -14l-27 -39q-47 -88 -92 -174q-39 -61 -127 -108t-174 -66.5t-182 -31.5l-107 -7l-28 -71q25 6 49 6q31 0 62.5 -10.5t82.5 -47t77 -110.5t26 -152 q0 -70 -32 -124t-96.5 -92t-150.5 -38q-76 0 -167 49.5t-91 170.5q0 45 14.5 85t49 67.5t86.5 27.5q35 0 65 -10q66 -31 74 -66t8 -45q0 -37 -25 -66q-23 -16 -45 -16q-31 8 -30 49q16 -4 22 15q4 25 -14 24q-18 -2 -28.5 -9t-10.5 -36q0 -51 32.5 -68.5t57.5 -17.5 t50.5 14.5t42 40t22.5 76.5q0 45 -18.5 88t-58.5 72t-104 29q-70 0 -137 -29q-20 4 -12 24q41 93 82 185q-129 23 -251 87t-220 177t-148.5 274.5t-50.5 323.5z" />
<glyph unicode="&#xc8;" horiz-adv-x="1206" d="M131 4q-4 16 46 60.5t50 189.5q4 113 6.5 249t2.5 261t-2.5 265t-6.5 257q0 160 -51 193.5t-45 58.5q2 6 53 2q25 0 103 -4t100 -4q102 0 186 7t151 15.5t112 13.5t67 5q63 0 103.5 -16.5t69 -63.5t28.5 -102q0 -66 -40 -127.5t-111.5 -96t-145.5 -34.5q-25 0 -37 2 l-55 12q-23 10 -35 17t-12 22q84 51 84 117q0 29 -13.5 54t-32 36.5t-31.5 15.5t-42 4q-31 0 -44.5 -3t-21.5 -11q-12 -80 -14 -144.5t-4 -109.5v-123q55 -61 111.5 -88t117.5 -27q20 0 44 3t69 14.5t81 36t81 90.5q12 -49 15 -72t3 -61q0 -63 -17.5 -116.5t-79 -119.5 t-165.5 -66q-14 0 -54 6.5t-82 34t-66.5 50t-35.5 38.5q-14 16 -20 19q-4 -6 -6 -12v-199q6 -109 25.5 -223.5t69.5 -144t87 -29.5q39 0 84 27.5t45 88.5q0 49 -43 80q-20 10 -33 10q-23 0 -67 -22q20 68 57 104.5t91 56t112 19.5q84 0 142.5 -37t84 -86t29.5 -88t4 -59 q0 -53 -20.5 -106.5t-67.5 -97.5t-123 -64.5t-162 -20.5q-39 0 -81 4t-91 12.5t-135 20.5t-166 12q-41 0 -93 -3t-110 -5q-53 0 -53 2zM303 1923q0 45 34 67.5t60 22.5q81 0 183 -121l170 -202h-193l-184 125q-70 45 -70 108z" />
<glyph unicode="&#xc9;" horiz-adv-x="1206" d="M131 4q-4 16 46 60.5t50 189.5q4 113 6.5 249t2.5 261t-2.5 265t-6.5 257q0 160 -51 193.5t-45 58.5q2 6 53 2q25 0 103 -4t100 -4q102 0 186 7t151 15.5t112 13.5t67 5q63 0 103.5 -16.5t69 -63.5t28.5 -102q0 -66 -40 -127.5t-111.5 -96t-145.5 -34.5q-25 0 -37 2 l-55 12q-23 10 -35 17t-12 22q84 51 84 117q0 29 -13.5 54t-32 36.5t-31.5 15.5t-42 4q-31 0 -44.5 -3t-21.5 -11q-12 -80 -14 -144.5t-4 -109.5v-123q55 -61 111.5 -88t117.5 -27q20 0 44 3t69 14.5t81 36t81 90.5q12 -49 15 -72t3 -61q0 -63 -17.5 -116.5t-79 -119.5 t-165.5 -66q-14 0 -54 6.5t-82 34t-66.5 50t-35.5 38.5q-14 16 -20 19q-4 -6 -6 -12v-199q6 -109 25.5 -223.5t69.5 -144t87 -29.5q39 0 84 27.5t45 88.5q0 49 -43 80q-20 10 -33 10q-23 0 -67 -22q20 68 57 104.5t91 56t112 19.5q84 0 142.5 -37t84 -86t29.5 -88t4 -59 q0 -53 -20.5 -106.5t-67.5 -97.5t-123 -64.5t-162 -20.5q-39 0 -81 4t-91 12.5t-135 20.5t-166 12q-41 0 -93 -3t-110 -5q-53 0 -53 2zM467 1690l170 202q104 121 184 121q25 0 58.5 -22.5t33.5 -67.5q0 -63 -69 -108l-185 -125h-192z" />
<glyph unicode="&#xca;" horiz-adv-x="1206" d="M131 4q-4 16 46 60.5t50 189.5q4 113 6.5 249t2.5 261t-2.5 265t-6.5 257q0 160 -51 193.5t-45 58.5q2 6 53 2q25 0 103 -4t100 -4q102 0 186 7t151 15.5t112 13.5t67 5q63 0 103.5 -16.5t69 -63.5t28.5 -102q0 -66 -40 -127.5t-111.5 -96t-145.5 -34.5q-25 0 -37 2 l-55 12q-23 10 -35 17t-12 22q84 51 84 117q0 29 -13.5 54t-32 36.5t-31.5 15.5t-42 4q-31 0 -44.5 -3t-21.5 -11q-12 -80 -14 -144.5t-4 -109.5v-123q55 -61 111.5 -88t117.5 -27q20 0 44 3t69 14.5t81 36t81 90.5q12 -49 15 -72t3 -61q0 -63 -17.5 -116.5t-79 -119.5 t-165.5 -66q-14 0 -54 6.5t-82 34t-66.5 50t-35.5 38.5q-14 16 -20 19q-4 -6 -6 -12v-199q6 -109 25.5 -223.5t69.5 -144t87 -29.5q39 0 84 27.5t45 88.5q0 49 -43 80q-20 10 -33 10q-23 0 -67 -22q20 68 57 104.5t91 56t112 19.5q84 0 142.5 -37t84 -86t29.5 -88t4 -59 q0 -53 -20.5 -106.5t-67.5 -97.5t-123 -64.5t-162 -20.5q-39 0 -81 4t-91 12.5t-135 20.5t-166 12q-41 0 -93 -3t-110 -5q-53 0 -53 2zM266 1690l170 200q59 66 90 94.5t99 28.5q47 0 78.5 -17.5t109.5 -105.5l170 -200h-195l-163 106l-166 -106h-193z" />
<glyph unicode="&#xcb;" horiz-adv-x="1206" d="M131 4q-4 16 46 60.5t50 189.5q4 113 6.5 249t2.5 261t-2.5 265t-6.5 257q0 160 -51 193.5t-45 58.5q2 6 53 2q25 0 103 -4t100 -4q102 0 186 7t151 15.5t112 13.5t67 5q63 0 103.5 -16.5t69 -63.5t28.5 -102q0 -66 -40 -127.5t-111.5 -96t-145.5 -34.5q-25 0 -37 2 l-55 12q-23 10 -35 17t-12 22q84 51 84 117q0 29 -13.5 54t-32 36.5t-31.5 15.5t-42 4q-31 0 -44.5 -3t-21.5 -11q-12 -80 -14 -144.5t-4 -109.5v-123q55 -61 111.5 -88t117.5 -27q20 0 44 3t69 14.5t81 36t81 90.5q12 -49 15 -72t3 -61q0 -63 -17.5 -116.5t-79 -119.5 t-165.5 -66q-14 0 -54 6.5t-82 34t-66.5 50t-35.5 38.5q-14 16 -20 19q-4 -6 -6 -12v-199q6 -109 25.5 -223.5t69.5 -144t87 -29.5q39 0 84 27.5t45 88.5q0 49 -43 80q-20 10 -33 10q-23 0 -67 -22q20 68 57 104.5t91 56t112 19.5q84 0 142.5 -37t84 -86t29.5 -88t4 -59 q0 -53 -20.5 -106.5t-67.5 -97.5t-123 -64.5t-162 -20.5q-39 0 -81 4t-91 12.5t-135 20.5t-166 12q-41 0 -93 -3t-110 -5q-53 0 -53 2zM289 1767q-6 45 17.5 84.5t76.5 53.5q16 6 33 6q45 0 93 -37t42 -107q0 -66 -72 -108q-37 -14 -65 -14q-31 0 -75 26.5t-50 95.5z M682 1772q0 47 21.5 83t70.5 50q16 6 35 6q45 0 86 -31q53 -45 47 -113q0 -70 -70 -108q-37 -14 -65 -14q-31 0 -58.5 17t-47 44t-19.5 66z" />
<glyph unicode="&#xcc;" horiz-adv-x="602" d="M27 1880q0 43 32.5 67.5t61.5 24.5q78 0 182 -123l168 -202h-192l-183 125q-70 47 -69 108zM109 4q-4 16 45 60.5t49 189.5q4 113 6 249t2 261t-2 265t-6 257q0 158 -50.5 192.5t-43.5 59.5q2 4 18 3t35 -1l203 -8q41 0 94 2t112 6q49 0 50 -2q6 -25 -44.5 -58.5 t-50.5 -193.5l-6 -510l6 -522q0 -156 50.5 -190.5t44.5 -59.5q-4 -4 -20.5 -3t-29.5 1q-25 0 -93 3t-113 5l-203 -8q-53 0 -53 2z" />
<glyph unicode="&#xcd;" horiz-adv-x="602" d="M109 4q-4 16 45 60.5t49 189.5q4 113 6 249t2 261t-2 265t-6 257q0 158 -50.5 192.5t-43.5 59.5q2 4 18 3t35 -1l203 -8q41 0 94 2t112 6q49 0 50 -2q6 -25 -44.5 -58.5t-50.5 -193.5l-6 -510l6 -522q0 -156 50.5 -190.5t44.5 -59.5q-4 -4 -20.5 -3t-29.5 1q-25 0 -93 3 t-113 5l-203 -8q-53 0 -53 2zM283 1647l170 202q106 123 184 123q27 0 60.5 -24.5t33.5 -67.5q0 -59 -72 -108l-182 -125h-194z" />
<glyph unicode="&#xce;" horiz-adv-x="602" d="M23 1647l170 200q59 72 95 97.5t93 25.5q59 0 92 -23.5t96 -99.5l170 -200h-192l-166 110l-166 -110h-192zM109 4q-4 16 45 60.5t49 189.5q4 113 6 249t2 261t-2 265t-6 257q0 158 -50.5 192.5t-43.5 59.5q2 4 18 3t35 -1l203 -8q41 0 94 2t112 6q49 0 50 -2 q6 -25 -44.5 -58.5t-50.5 -193.5l-6 -510l6 -522q0 -156 50.5 -190.5t44.5 -59.5q-4 -4 -20.5 -3t-29.5 1q-25 0 -93 3t-113 5l-203 -8q-53 0 -53 2z" />
<glyph unicode="&#xcf;" horiz-adv-x="602" d="M35 1767q-6 45 17.5 84.5t74.5 53.5q16 6 33 6q47 0 88 -31q53 -47 47 -113q0 -66 -70 -108q-37 -14 -65 -14q-33 0 -76 27.5t-49 94.5zM109 4q-4 16 45 60.5t49 189.5q4 113 6 249t2 261t-2 265t-6 257q0 158 -50.5 192.5t-43.5 59.5q2 4 18 3t35 -1l203 -8q41 0 94 2 t112 6q49 0 50 -2q6 -25 -44.5 -58.5t-50.5 -193.5l-6 -510l6 -522q0 -156 50.5 -190.5t44.5 -59.5q-4 -4 -20.5 -3t-29.5 1q-25 0 -93 3t-113 5l-203 -8q-53 0 -53 2zM426 1767q0 51 21.5 87.5t72.5 50.5q16 6 33 6q45 0 93 -37t42 -107q0 -66 -72 -108q-33 -14 -63 -14 q-33 0 -77 26.5t-50 95.5z" />
<glyph unicode="&#xd1;" horiz-adv-x="1353" d="M125 4q-4 25 45 58.5t49 191.5q4 119 7 291t3 239q0 154 -2 275t-8 231q0 160 -49 191.5t-45 56.5q2 4 18.5 3t34.5 -1l240 -8q43 0 123 4t96 4q25 2 38 2t13 -4q6 -20 -26.5 -44t-32.5 -71q0 -31 9 -65.5t34 -93.5l383 -705v96q0 90 7 216t7 180q0 49 17.5 120.5 t17.5 88.5q0 27 -13.5 44t-41.5 17q-33 0 -40.5 -21.5t-7.5 -31.5q0 -14 13.5 -34t48.5 -20q8 0 6 -18t-16.5 -37.5t-41 -37t-59.5 -17.5q-39 0 -83 26.5t-75.5 74.5t-31.5 132q0 63 28.5 126t90 103t106.5 47t66 7q59 0 118.5 -23.5t96.5 -68.5t50 -93.5t13 -107.5 q0 -31 -4 -68.5t-10 -80.5l-29 -965q0 -135 51 -159.5t47 -49.5q-2 -4 -17 -3t-38 1q-37 2 -93 5t-116 3q-41 0 -107.5 -2t-111.5 -6q-49 0 -51 2q-6 23 25.5 43.5t31.5 54.5q0 25 -13 67t-44 99q-37 78 -70.5 145.5t-103.5 198.5l-215 385l-6 -354l6 -389q0 -156 51 -190.5 t45 -59.5q-2 -4 -18.5 -4t-32.5 2q-12 2 -71.5 5t-94.5 3q-37 0 -79 -3t-85 -5q-53 0 -53 2zM397 1767q0 76 53.5 131.5t135.5 55.5q63 0 165.5 -69.5t149.5 -69.5q29 0 50.5 21.5t21.5 49.5q0 27 -7.5 47.5t-21.5 38.5q-10 16 -1 31.5t30 15.5q18 0 36.5 -16t32 -49 t13.5 -76q0 -74 -34 -131t-110 -57q-68 0 -204 58t-175 58q-53 0 -53 -49q0 -8 4 -24q6 -23 -6 -38.5t-33 -15.5q-29 0 -41 39q-6 25 -6 49z" />
<glyph unicode="&#xd2;" horiz-adv-x="1775" d="M129 834q0 66 10.5 178t113.5 269t231 218.5t206 83t162 33.5q27 2 47.5 3t34.5 1q176 0 361.5 -72.5t304 -213t169 -281t50.5 -283.5q0 -61 -10.5 -124.5t-49.5 -197t-198.5 -279.5t-310 -191.5t-269.5 -45.5q-152 0 -292 44t-281.5 168t-210 309.5t-68.5 380.5z M496 872q0 -70 5 -111.5t30.5 -156.5t110.5 -235.5t189.5 -158.5t176.5 -38q131 0 241 80q92 74 144.5 196.5t52.5 231.5q0 18 -4 51l-31 -90q-45 -102 -123 -160.5t-143.5 -72t-95.5 -13.5q-57 0 -112.5 21.5t-104 71t-74 127t-25.5 149.5q0 33 11.5 87t64.5 122.5 t118.5 92.5t106.5 24q61 0 100.5 -28t53.5 -60.5t14 -73.5q0 -25 -5 -41.5t-23.5 -46t-57.5 -23.5q-19 26 -35 53q-18 18 -53 19q-47 0 -64.5 -34t-17.5 -58q0 -27 17.5 -57.5t52.5 -49t74 -18.5q70 0 125 24.5t91.5 72.5t50 97t13.5 109q0 43 -6 74.5t-35 107.5 t-103.5 137.5t-157.5 80t-138 18.5q-82 0 -159 -30t-144.5 -98.5t-99 -172t-31.5 -220.5zM627 1923q0 45 34.5 67.5t61.5 22.5q78 0 180 -121l170 -202h-192l-185 125q-70 45 -69 108z" />
<glyph unicode="&#xd3;" horiz-adv-x="1775" d="M129 834q0 66 10.5 178t113.5 269t231 218.5t206 83t162 33.5q27 2 47.5 3t34.5 1q176 0 361.5 -72.5t304 -213t169 -281t50.5 -283.5q0 -61 -10.5 -124.5t-49.5 -197t-198.5 -279.5t-310 -191.5t-269.5 -45.5q-152 0 -292 44t-281.5 168t-210 309.5t-68.5 380.5z M496 872q0 -70 5 -111.5t30.5 -156.5t110.5 -235.5t189.5 -158.5t176.5 -38q131 0 241 80q92 74 144.5 196.5t52.5 231.5q0 18 -4 51l-31 -90q-45 -102 -123 -160.5t-143.5 -72t-95.5 -13.5q-57 0 -112.5 21.5t-104 71t-74 127t-25.5 149.5q0 33 11.5 87t64.5 122.5 t118.5 92.5t106.5 24q61 0 100.5 -28t53.5 -60.5t14 -73.5q0 -25 -5 -41.5t-23.5 -46t-57.5 -23.5q-19 26 -35 53q-18 18 -53 19q-47 0 -64.5 -34t-17.5 -58q0 -27 17.5 -57.5t52.5 -49t74 -18.5q70 0 125 24.5t91.5 72.5t50 97t13.5 109q0 43 -6 74.5t-35 107.5 t-103.5 137.5t-157.5 80t-138 18.5q-82 0 -159 -30t-144.5 -98.5t-99 -172t-31.5 -220.5zM823 1690l170 202q102 121 183 121q25 0 58.5 -22.5t33.5 -67.5q0 -63 -68 -108l-184 -125h-193z" />
<glyph unicode="&#xd4;" horiz-adv-x="1775" d="M129 834q0 66 10.5 178t113.5 269t231 218.5t206 83t162 33.5q27 2 47.5 3t34.5 1q176 0 361.5 -72.5t304 -213t169 -281t50.5 -283.5q0 -61 -10.5 -124.5t-49.5 -197t-198.5 -279.5t-310 -191.5t-269.5 -45.5q-152 0 -292 44t-281.5 168t-210 309.5t-68.5 380.5z M496 872q0 -70 5 -111.5t30.5 -156.5t110.5 -235.5t189.5 -158.5t176.5 -38q131 0 241 80q92 74 144.5 196.5t52.5 231.5q0 18 -4 51l-31 -90q-45 -102 -123 -160.5t-143.5 -72t-95.5 -13.5q-57 0 -112.5 21.5t-104 71t-74 127t-25.5 149.5q0 33 11.5 87t64.5 122.5 t118.5 92.5t106.5 24q61 0 100.5 -28t53.5 -60.5t14 -73.5q0 -25 -5 -41.5t-23.5 -46t-57.5 -23.5q-19 26 -35 53q-18 18 -53 19q-47 0 -64.5 -34t-17.5 -58q0 -27 17.5 -57.5t52.5 -49t74 -18.5q70 0 125 24.5t91.5 72.5t50 97t13.5 109q0 43 -6 74.5t-35 107.5 t-103.5 137.5t-157.5 80t-138 18.5q-82 0 -159 -30t-144.5 -98.5t-99 -172t-31.5 -220.5zM563 1690l170 200q57 66 87 94.5t102 28.5q66 0 96.5 -28.5t89.5 -94.5l168 -200h-191l-163 106l-166 -106h-193z" />
<glyph unicode="&#xd5;" horiz-adv-x="1775" d="M129 834q0 66 10.5 178t113.5 269t231 218.5t206 83t162 33.5q27 2 47.5 3t34.5 1q176 0 361.5 -72.5t304 -213t169 -281t50.5 -283.5q0 -61 -10.5 -124.5t-49.5 -197t-198.5 -279.5t-310 -191.5t-269.5 -45.5q-152 0 -292 44t-281.5 168t-210 309.5t-68.5 380.5z M496 872q0 -70 5 -111.5t30.5 -156.5t110.5 -235.5t189.5 -158.5t176.5 -38q131 0 241 80q92 74 144.5 196.5t52.5 231.5q0 18 -4 51l-31 -90q-45 -102 -123 -160.5t-143.5 -72t-95.5 -13.5q-57 0 -112.5 21.5t-104 71t-74 127t-25.5 149.5q0 33 11.5 87t64.5 122.5 t118.5 92.5t106.5 24q61 0 100.5 -28t53.5 -60.5t14 -73.5q0 -25 -5 -41.5t-23.5 -46t-57.5 -23.5q-19 26 -35 53q-18 18 -53 19q-47 0 -64.5 -34t-17.5 -58q0 -27 17.5 -57.5t52.5 -49t74 -18.5q70 0 125 24.5t91.5 72.5t50 97t13.5 109q0 43 -6 74.5t-35 107.5 t-103.5 137.5t-157.5 80t-138 18.5q-82 0 -159 -30t-144.5 -98.5t-99 -172t-31.5 -220.5zM647 1763q0 74 54.5 132.5t134.5 58.5q59 0 172.5 -69.5t142.5 -69.5t51.5 20t22.5 51q0 27 -7.5 47.5t-21.5 38.5q-10 16 -1 31.5t30 15.5q18 0 35.5 -16t31 -49t13.5 -76 q0 -74 -34 -131t-110 -57q-66 0 -202 58t-177 58q-51 0 -51 -49q0 -8 4 -24q6 -23 -6 -38.5t-33 -15.5q-31 0 -43 39q-6 23 -6 45z" />
<glyph unicode="&#xd6;" horiz-adv-x="1775" d="M129 834q0 66 10.5 178t113.5 269t231 218.5t206 83t162 33.5q27 2 47.5 3t34.5 1q176 0 361.5 -72.5t304 -213t169 -281t50.5 -283.5q0 -61 -10.5 -124.5t-49.5 -197t-198.5 -279.5t-310 -191.5t-269.5 -45.5q-152 0 -292 44t-281.5 168t-210 309.5t-68.5 380.5z M496 872q0 -70 5 -111.5t30.5 -156.5t110.5 -235.5t189.5 -158.5t176.5 -38q131 0 241 80q92 74 144.5 196.5t52.5 231.5q0 18 -4 51l-31 -90q-45 -102 -123 -160.5t-143.5 -72t-95.5 -13.5q-57 0 -112.5 21.5t-104 71t-74 127t-25.5 149.5q0 33 11.5 87t64.5 122.5 t118.5 92.5t106.5 24q61 0 100.5 -28t53.5 -60.5t14 -73.5q0 -25 -5 -41.5t-23.5 -46t-57.5 -23.5q-19 26 -35 53q-18 18 -53 19q-47 0 -64.5 -34t-17.5 -58q0 -27 17.5 -57.5t52.5 -49t74 -18.5q70 0 125 24.5t91.5 72.5t50 97t13.5 109q0 43 -6 74.5t-35 107.5 t-103.5 137.5t-157.5 80t-138 18.5q-82 0 -159 -30t-144.5 -98.5t-99 -172t-31.5 -220.5zM582 1812q0 49 20.5 84.5t73.5 49.5q16 6 33 6q45 0 92 -36t41 -108q0 -29 -19.5 -59.5t-52.5 -45.5t-61 -15q-31 0 -59.5 16t-48 45t-19.5 63zM973 1812q0 47 22.5 83.5t73.5 50.5 q12 6 31 6q47 0 95 -37t42 -107q0 -68 -74 -106q-33 -14 -63 -14q-31 0 -57.5 15t-48 46t-21.5 63z" />
<glyph unicode="&#xd8;" horiz-adv-x="1775" d="M129 836q0 63 10.5 175.5t113.5 269.5t231 218.5t206 83t129 28.5t68.5 8t44.5 1q123 0 259 -38t255 -118l127 154h225l-217 -266l37 -39q100 -119 150.5 -259.5t50.5 -283.5q0 -61 -10.5 -124.5t-49.5 -197t-198.5 -279.5t-312 -190.5t-269.5 -44.5q-123 0 -243 31 t-220 94l-98 -125h-230l195 238q-141 145 -197.5 316t-56.5 348zM496 872q0 -70 5 -111.5t24.5 -132t72.5 -192.5l158 187q-23 80 -23 145q0 33 11.5 85t64.5 120.5t118.5 92.5t108.5 24q49 0 84 -19l148 180q-43 53 -99.5 84t-120 44.5t-118.5 13.5q-82 0 -159 -30 t-144.5 -98.5t-99 -172t-31.5 -220.5zM711 293q37 -33 72.5 -55.5t94 -44t130.5 -21.5q131 0 241 80q92 74 144.5 196.5t52.5 231.5q0 18 -4 51l-31 -90q-45 -102 -123 -160.5t-142.5 -72t-94.5 -13.5q-51 0 -103.5 17.5t-95.5 52.5zM1030 684q31 -12 60 -12q70 0 125 24.5 t90.5 71.5t50 101.5t14.5 101.5q0 25 -4 53t-10 57l-162 -198l-10 -27q-18 -31 -43 -37z" />
<glyph unicode="&#xd9;" horiz-adv-x="1345" d="M119 1538q2 4 18.5 3t34.5 -1l203 -8q41 0 94 2t113 6h40t9 -2q6 -25 -44 -58.5t-50 -193.5l-7 -510v-155q0 -207 35 -291t96.5 -117t124.5 -33t117 27q92 53 118 155.5t26 227.5v512v96q0 45 -3.5 71.5t-23 38t-31.5 11.5t-33.5 -11.5t-21.5 -41.5q0 -25 14.5 -41.5 t44.5 -16.5q20 0 21 -26l-4 -23q-6 -23 -29 -43t-44.5 -26.5t-41.5 -6.5q-63 0 -116.5 47.5t-75 105.5t-21.5 118q0 31 9 78t54.5 99t105.5 70.5t110 18.5q57 0 106 -15.5t117.5 -65.5t97.5 -188.5t29 -330.5l-17 -766q0 -158 51.5 -191.5t45.5 -58.5q-10 -2 -24.5 -3 t-27.5 1q-29 2 -54 5t-62 3q-47 0 -82 -4t-94 -20q-8 0 -13 2l-2 8q0 14 -2 22q-10 12 -20 13q-8 0 -45 -15l-62 -28q-31 -14 -62.5 -25.5t-69.5 -20t-97 -8.5q-92 0 -220 51.5t-182.5 192.5t-54.5 340v80l2 166l-6 522q0 160 -49 193.5t-45 58.5zM446 1923q0 45 34 67.5 t61 22.5q78 0 180 -121l170 -202h-193l-184 125q-68 45 -68 108z" />
<glyph unicode="&#xda;" horiz-adv-x="1345" d="M119 1538q2 4 18.5 3t34.5 -1l203 -8q41 0 94 2t113 6h40t9 -2q6 -25 -44 -58.5t-50 -193.5l-7 -510v-155q0 -207 35 -291t96.5 -117t124.5 -33t117 27q92 53 118 155.5t26 227.5v512v96q0 45 -3.5 71.5t-23 38t-31.5 11.5t-33.5 -11.5t-21.5 -41.5q0 -25 14.5 -41.5 t44.5 -16.5q20 0 21 -26l-4 -23q-6 -23 -29 -43t-44.5 -26.5t-41.5 -6.5q-63 0 -116.5 47.5t-75 105.5t-21.5 118q0 31 9 78t54.5 99t105.5 70.5t110 18.5q57 0 106 -15.5t117.5 -65.5t97.5 -188.5t29 -330.5l-17 -766q0 -158 51.5 -191.5t45.5 -58.5q-10 -2 -24.5 -3 t-27.5 1q-29 2 -54 5t-62 3q-47 0 -82 -4t-94 -20q-8 0 -13 2l-2 8q0 14 -2 22q-10 12 -20 13q-8 0 -45 -15l-62 -28q-31 -14 -62.5 -25.5t-69.5 -20t-97 -8.5q-92 0 -220 51.5t-182.5 192.5t-54.5 340v80l2 166l-6 522q0 160 -49 193.5t-45 58.5zM682 1690l168 202 q102 121 184 121q25 0 58.5 -22.5t33.5 -67.5q0 -63 -67 -108l-185 -125h-192z" />
<glyph unicode="&#xdb;" horiz-adv-x="1345" d="M119 1538q2 4 18.5 3t34.5 -1l203 -8q41 0 94 2t113 6h40t9 -2q6 -25 -44 -58.5t-50 -193.5l-7 -510v-155q0 -207 35 -291t96.5 -117t124.5 -33t117 27q92 53 118 155.5t26 227.5v512v96q0 45 -3.5 71.5t-23 38t-31.5 11.5t-33.5 -11.5t-21.5 -41.5q0 -25 14.5 -41.5 t44.5 -16.5q20 0 21 -26l-4 -23q-6 -23 -29 -43t-44.5 -26.5t-41.5 -6.5q-63 0 -116.5 47.5t-75 105.5t-21.5 118q0 31 9 78t54.5 99t105.5 70.5t110 18.5q57 0 106 -15.5t117.5 -65.5t97.5 -188.5t29 -330.5l-17 -766q0 -158 51.5 -191.5t45.5 -58.5q-10 -2 -24.5 -3 t-27.5 1q-29 2 -54 5t-62 3q-47 0 -82 -4t-94 -20q-8 0 -13 2l-2 8q0 14 -2 22q-10 12 -20 13q-8 0 -45 -15l-62 -28q-31 -14 -62.5 -25.5t-69.5 -20t-97 -8.5q-92 0 -220 51.5t-182.5 192.5t-54.5 340v80l2 166l-6 522q0 160 -49 193.5t-45 58.5zM379 1690l170 200 q57 66 86.5 94.5t101.5 28.5q68 0 119 -47q43 -47 70 -76l168 -200h-193l-164 106l-166 -106h-192z" />
<glyph unicode="&#xdc;" horiz-adv-x="1345" d="M119 1538q2 4 18.5 3t34.5 -1l203 -8q41 0 94 2t113 6h40t9 -2q6 -25 -44 -58.5t-50 -193.5l-7 -510v-155q0 -207 35 -291t96.5 -117t124.5 -33t117 27q92 53 118 155.5t26 227.5v512v96q0 45 -3.5 71.5t-23 38t-31.5 11.5t-33.5 -11.5t-21.5 -41.5q0 -25 14.5 -41.5 t44.5 -16.5q20 0 21 -26l-4 -23q-6 -23 -29 -43t-44.5 -26.5t-41.5 -6.5q-63 0 -116.5 47.5t-75 105.5t-21.5 118q0 31 9 78t54.5 99t105.5 70.5t110 18.5q57 0 106 -15.5t117.5 -65.5t97.5 -188.5t29 -330.5l-17 -766q0 -158 51.5 -191.5t45.5 -58.5q-10 -2 -24.5 -3 t-27.5 1q-29 2 -54 5t-62 3q-47 0 -82 -4t-94 -20q-8 0 -13 2l-2 8q0 14 -2 22q-10 12 -20 13q-8 0 -45 -15l-62 -28q-31 -14 -62.5 -25.5t-69.5 -20t-97 -8.5q-92 0 -220 51.5t-182.5 192.5t-54.5 340v80l2 166l-6 522q0 160 -49 193.5t-45 58.5zM416 1808q-6 49 15.5 85.5 t76.5 52.5q16 6 33 6q45 0 79.5 -25.5t47 -55.5t8.5 -63q0 -68 -72 -106q-33 -14 -63 -14q-33 0 -76 24.5t-49 95.5zM807 1812q0 49 20.5 84.5t73.5 49.5q16 6 33 6q45 0 80 -25.5t47 -55.5t8 -63q0 -68 -72 -106q-37 -14 -65 -14q-31 0 -78 26.5t-47 97.5z" />
<glyph unicode="&#xdd;" horiz-adv-x="1183" d="M45 1538q2 6 51 2l203 -8q43 0 87 2t95 6h40t9 -2q6 -20 -15 -38.5t-21 -55.5q0 -31 6 -61.5t28 -98.5l37 -96l178 -412l142 254q31 53 61.5 109.5t30.5 89.5q0 8 -8 33.5t-43 29.5q-41 0 -57.5 -23.5t-4.5 -47.5q14 -27 23.5 -34t21.5 -16q16 -18 -13.5 -43.5 t-61.5 -25.5q-80 -6 -146 88q-33 51 -33 119q0 63 31 123q41 70 104.5 103.5t141.5 33.5q74 0 147.5 -37t112.5 -105.5t39 -140.5q0 -76 -38 -159t-75 -154l-203 -381q-27 -51 -41 -146.5t-14 -191.5q0 -156 49 -190.5t43 -59.5q-2 -4 -17 -4t-32 2q-14 0 -88 4t-119 4 l-202 -8q-53 0 -54 2q-4 16 46.5 60.5t50.5 191.5q0 96 -11.5 161.5t-48.5 162.5l-276 714q-66 174 -114 195.5t-42 48.5zM369 1780l170 204q102 121 182 121q27 0 49 -18q43 -29 43 -74q0 -59 -70 -109l-184 -124h-190z" />
<glyph unicode="&#xe0;" d="M76 4q-6 27 63.5 60.5t128.5 199.5l293 807q18 57 30.5 111.5t12.5 93.5q0 41 -16.5 61.5t-52.5 12.5q-25 -4 -31 -27t-6 -27q0 -18 13 -29.5t36 -17.5q-4 -25 -6 -49q-10 -41 -44 -55.5t-51 -14.5q-31 0 -71.5 28t-64 82t-23.5 103q0 72 30.5 135.5t117.5 124t229 60.5 q76 0 159.5 -32t128.5 -114.5t86 -238.5l222 -850q6 -29 17 -67.5t26 -65.5q41 -92 104 -84q53 6 53 68q0 45 -28 83q-2 6 1 11.5t11 3.5q27 -4 43 -12.5t39.5 -36t29 -60t5.5 -55.5q0 -51 -19.5 -101.5t-59.5 -90t-104.5 -64.5t-126.5 -25q-37 0 -87 15.5t-82.5 56.5 t-80 135t-119 129t-119.5 41t-69 6q-45 0 -86 -13t-68.5 -51t-43 -72t-15.5 -56q0 -41 56.5 -68.5t50.5 -50.5q-2 -4 -18.5 -4t-32.5 2q-14 0 -88 4t-119 4l-203 -8h-40t-11 2zM367 1964q0 45 32.5 68.5t61.5 23.5q78 0 180 -121l170 -204h-193l-184 124q-68 49 -67 109z M647 571q0 -29 12.5 -40t43 -15t63.5 -4l53 2q20 6 29.5 9t19.5 20l-4 32l-96 340l-63 -149q-29 -70 -43.5 -113t-14.5 -82z" />
<glyph unicode="&#xe1;" d="M76 4q-6 27 63.5 60.5t128.5 199.5l293 807q18 57 30.5 111.5t12.5 93.5q0 41 -16.5 61.5t-52.5 12.5q-25 -4 -31 -27t-6 -27q0 -18 13 -29.5t36 -17.5q-4 -25 -6 -49q-10 -41 -44 -55.5t-51 -14.5q-31 0 -71.5 28t-64 82t-23.5 103q0 72 30.5 135.5t117.5 124t229 60.5 q76 0 159.5 -32t128.5 -114.5t86 -238.5l222 -850q6 -29 17 -67.5t26 -65.5q41 -92 104 -84q53 6 53 68q0 45 -28 83q-2 6 1 11.5t11 3.5q27 -4 43 -12.5t39.5 -36t29 -60t5.5 -55.5q0 -51 -19.5 -101.5t-59.5 -90t-104.5 -64.5t-126.5 -25q-37 0 -87 15.5t-82.5 56.5 t-80 135t-119 129t-119.5 41t-69 6q-45 0 -86 -13t-68.5 -51t-43 -72t-15.5 -56q0 -41 56.5 -68.5t50.5 -50.5q-2 -4 -18.5 -4t-32.5 2q-14 0 -88 4t-119 4l-203 -8h-40t-11 2zM586 1731l170 204q102 121 182 121q27 0 59.5 -23.5t32.5 -68.5q0 -61 -69 -109l-185 -124h-190 zM647 571q0 -29 12.5 -40t43 -15t63.5 -4l53 2q20 6 29.5 9t19.5 20l-4 32l-96 340l-63 -149q-29 -70 -43.5 -113t-14.5 -82z" />
<glyph unicode="&#xe2;" d="M76 4q-6 27 63.5 60.5t128.5 199.5l293 807q18 57 30.5 111.5t12.5 93.5q0 41 -16.5 61.5t-52.5 12.5q-25 -4 -31 -27t-6 -27q0 -18 13 -29.5t36 -17.5q-4 -25 -6 -49q-10 -41 -44 -55.5t-51 -14.5q-31 0 -71.5 28t-64 82t-23.5 103q0 72 30.5 135.5t117.5 124t229 60.5 q76 0 159.5 -32t128.5 -114.5t86 -238.5l222 -850q6 -29 17 -67.5t26 -65.5q41 -92 104 -84q53 6 53 68q0 45 -28 83q-2 6 1 11.5t11 3.5q27 -4 43 -12.5t39.5 -36t29 -60t5.5 -55.5q0 -51 -19.5 -101.5t-59.5 -90t-104.5 -64.5t-126.5 -25q-37 0 -87 15.5t-82.5 56.5 t-80 135t-119 129t-119.5 41t-69 6q-45 0 -86 -13t-68.5 -51t-43 -72t-15.5 -56q0 -41 56.5 -68.5t50.5 -50.5q-2 -4 -18.5 -4t-32.5 2q-14 0 -88 4t-119 4l-203 -8h-40t-11 2zM352 1731l168 202q51 57 85 89t104 32q57 0 91 -25.5t97 -95.5l170 -202h-193l-165 108 l-164 -108h-193zM647 571q0 -29 12.5 -40t43 -15t63.5 -4l53 2q20 6 29.5 9t19.5 20l-4 32l-96 340l-63 -149q-29 -70 -43.5 -113t-14.5 -82z" />
<glyph unicode="&#xe3;" d="M76 4q-6 27 63.5 60.5t128.5 199.5l293 807q18 57 30.5 111.5t12.5 93.5q0 41 -16.5 61.5t-52.5 12.5q-25 -4 -31 -27t-6 -27q0 -18 13 -29.5t36 -17.5q-4 -25 -6 -49q-10 -41 -44 -55.5t-51 -14.5q-31 0 -71.5 28t-64 82t-23.5 103q0 72 30.5 135.5t117.5 124t229 60.5 q76 0 159.5 -32t128.5 -114.5t86 -238.5l222 -850q6 -29 17 -67.5t26 -65.5q41 -92 104 -84q53 6 53 68q0 45 -28 83q-2 6 1 11.5t11 3.5q27 -4 43 -12.5t39.5 -36t29 -60t5.5 -55.5q0 -51 -19.5 -101.5t-59.5 -90t-104.5 -64.5t-126.5 -25q-37 0 -87 15.5t-82.5 56.5 t-80 135t-119 129t-119.5 41t-69 6q-45 0 -86 -13t-68.5 -51t-43 -72t-15.5 -56q0 -41 56.5 -68.5t50.5 -50.5q-2 -4 -18.5 -4t-32.5 2q-14 0 -88 4t-119 4l-203 -8h-40t-11 2zM397 1810q0 76 53.5 131.5t135.5 55.5q66 0 168 -71t147 -71q27 0 49.5 23t22.5 49 q0 25 -8.5 48.5t-20.5 39.5q-8 14 1 30.5t28 16.5q18 0 36.5 -16t32 -49t13.5 -78q0 -74 -34 -131t-110 -57q-68 0 -204 58t-175 58q-53 0 -53 -47q0 -6 4 -26q4 -23 -8 -37.5t-31 -14.5q-31 0 -41 39q-6 25 -6 49zM647 571q0 -29 12.5 -40t43 -15t63.5 -4l53 2q20 6 29.5 9 t19.5 20l-4 32l-96 340l-63 -149q-29 -70 -43.5 -113t-14.5 -82z" />
<glyph unicode="&#xe4;" d="M76 4q-6 27 63.5 60.5t128.5 199.5l293 807q18 57 30.5 111.5t12.5 93.5q0 41 -16.5 61.5t-52.5 12.5q-25 -4 -31 -27t-6 -27q0 -18 13 -29.5t36 -17.5q-4 -25 -6 -49q-10 -41 -44 -55.5t-51 -14.5q-31 0 -71.5 28t-64 82t-23.5 103q0 72 30.5 135.5t117.5 124t229 60.5 q76 0 159.5 -32t128.5 -114.5t86 -238.5l222 -850q6 -29 17 -67.5t26 -65.5q41 -92 104 -84q53 6 53 68q0 45 -28 83q-2 6 1 11.5t11 3.5q27 -4 43 -12.5t39.5 -36t29 -60t5.5 -55.5q0 -51 -19.5 -101.5t-59.5 -90t-104.5 -64.5t-126.5 -25q-37 0 -87 15.5t-82.5 56.5 t-80 135t-119 129t-119.5 41t-69 6q-45 0 -86 -13t-68.5 -51t-43 -72t-15.5 -56q0 -41 56.5 -68.5t50.5 -50.5q-2 -4 -18.5 -4t-32.5 2q-14 0 -88 4t-119 4l-203 -8h-40t-11 2zM373 1853q0 49 20.5 84.5t71.5 49.5q16 6 35 6q49 0 86 -31q27 -18 39 -48t8 -65q0 -66 -49 -92 t-86 -26q-29 0 -58.5 16t-48 43t-18.5 63zM647 571q0 -29 12.5 -40t43 -15t63.5 -4l53 2q20 6 29.5 9t19.5 20l-4 32l-96 340l-63 -149q-29 -70 -43.5 -113t-14.5 -82zM764 1853q0 47 22.5 83.5t73.5 50.5q16 6 35 6q45 0 82 -31q55 -39 49 -113q0 -68 -49 -93t-84 -25 q-31 0 -80 27.5t-49 94.5z" />
<glyph unicode="&#xe5;" d="M76 4q-6 27 63.5 60.5t128.5 199.5l293 807q18 57 30.5 111.5t12.5 93.5q0 41 -16.5 61.5t-52.5 12.5q-25 -4 -31 -27t-6 -27q0 -18 13 -29.5t36 -17.5q-4 -25 -6 -49q-10 -41 -44 -55.5t-51 -14.5q-31 0 -71.5 28t-64 82t-23.5 103q0 72 30.5 135.5t117.5 124t229 60.5 q76 0 159.5 -32t128.5 -114.5t86 -238.5l222 -850q6 -29 17 -67.5t26 -65.5q41 -92 104 -84q53 6 53 68q0 45 -28 83q-2 6 1 11.5t11 3.5q27 -4 43 -12.5t39.5 -36t29 -60t5.5 -55.5q0 -51 -19.5 -101.5t-59.5 -90t-104.5 -64.5t-126.5 -25q-37 0 -87 15.5t-82.5 56.5 t-80 135t-119 129t-119.5 41t-69 6q-45 0 -86 -13t-68.5 -51t-43 -72t-15.5 -56q0 -41 56.5 -68.5t50.5 -50.5q-2 -4 -18.5 -4t-32.5 2q-14 0 -88 4t-119 4l-203 -8h-40t-11 2zM483 1933q0 45 22.5 96.5t61.5 80t78 36.5q25 6 49 6q37 0 73 -13t87 -58t51 -142 q0 -20 -5 -50.5t-34.5 -71.5t-79 -63.5t-98.5 -22.5q-55 0 -100 28q-53 29 -79 74t-26 100zM580 1931q6 -63 47 -84.5t65 -21.5q10 0 26.5 4t26.5 8q63 39 64 94q6 61 -45 101q-29 27 -70 26q-16 0 -28 -6q-43 -12 -64.5 -46t-21.5 -75zM647 571q0 -29 12.5 -40t43 -15 t63.5 -4l53 2q20 6 29.5 9t19.5 20l-4 32l-96 340l-63 -149q-29 -70 -43.5 -113t-14.5 -82z" />
<glyph unicode="&#xe6;" horiz-adv-x="1896" d="M57 4q0 27 75 60.5t165 199.5l432 807q31 51 57.5 125t26.5 107q0 18 -6 30q-18 25 -53 17q-27 -6 -37 -28t-10 -34q0 -16 10 -24.5t28 -14.5q-12 -43 -22 -66.5t-46 -38t-54 -14.5q-33 0 -63 25t-45 63.5t-15 84.5q0 10 2 22t7 49t48 102.5t142.5 126t238.5 60.5 q72 0 121 -20.5t79 -47t48 -61.5q72 0 134 6t129 15.5t104.5 13.5t62.5 4q63 0 103 -16.5t67 -63.5q31 -47 31 -102q0 -61 -41 -125t-112 -98.5t-144 -34.5q-25 0 -48.5 3t-50 13t-34 16t-7.5 21q82 51 82 117q0 31 -11 54t-30.5 35.5t-33 16.5t-41.5 4h-33q-25 -4 -35 -14 q-12 -92 -14 -150.5t-2 -103.5v-123q55 -61 112.5 -88t116.5 -27q20 0 44 3t69 14.5t80.5 36t80.5 90.5q16 -66 17 -133q0 -59 -17.5 -114.5t-58.5 -103.5q-80 -84 -182 -84q-12 0 -54.5 5.5t-81 32t-60 45t-41 41t-23.5 24.5q-4 -6 -7 -12v-199q2 -63 17.5 -197.5t72 -167 t91.5 -32.5q39 0 85 27.5t46 88.5q0 27 -9.5 45.5t-30 31.5t-36.5 13q-20 0 -66 -22q18 66 55.5 103.5t91.5 57t114 19.5q84 0 170 -55t86 -184v-31q0 -57 -18.5 -108.5t-65.5 -92.5q-49 -47 -125 -67.5t-162 -20.5q-39 0 -81 4t-91 12.5t-135 20.5t-168 12q-41 0 -92.5 -3 t-108.5 -5q-53 0 -53 2q-4 25 45 57.5t49 190.5q-33 25 -76 39t-77.5 19t-55.5 5q-45 0 -87 -14t-76 -50t-58.5 -74t-24.5 -68q0 -33 47.5 -57.5t38.5 -47.5q-2 -4 -20.5 -3t-32.5 1q-12 0 -86 4t-119 4l-205 -8h-24t-25 2zM729 557q0 -20 8 -28.5t36 -12.5t63 -4l55 2 q10 4 24.5 6t28.5 4l2 240l-2 205l-125 -203q-45 -78 -67.5 -128t-22.5 -81z" />
<glyph unicode="&#xe7;" horiz-adv-x="1740" d="M137 809q0 106 40 254.5t169 291t308.5 203t328.5 60.5q139 0 271 -42t257 -139.5t193 -249t68 -300.5q0 -121 -44.5 -213t-147.5 -153.5t-216 -61.5q-131 0 -227 78q-47 35 -78 103.5t-31 133.5q0 35 20.5 100.5t85 82t91.5 16.5q55 0 86.5 -26.5t40 -52.5t8.5 -38 q0 -31 -10 -47q-31 6 -47.5 -8.5t-16.5 -38.5q0 -39 27 -53q10 -8 33 -9q12 0 30.5 4.5t37 36t24.5 65.5t6 64q0 100 -51.5 219t-124 189t-157.5 101.5t-171 31.5q-49 0 -184 -36t-188.5 -205t-53.5 -304q0 -162 43 -314.5t118 -243.5t154.5 -130t159.5 -39h29q76 8 119 44 t43 91q0 29 -9 54q-10 33 15 32q4 0 39 -10t83 -20.5t81 -10.5q49 0 103 15.5t159 52.5q12 2 14 -2q4 -6 2 -13t-6 -14l-27 -39q-47 -88 -92 -174q-39 -61 -127 -108t-174 -66.5t-182 -31.5l-107 -7l-28 -71q25 6 49 6q31 0 62.5 -10.5t82.5 -47t77 -110.5t26 -152 q0 -70 -32 -124t-96.5 -92t-150.5 -38q-76 0 -167 49.5t-91 170.5q0 45 14.5 85t49 67.5t86.5 27.5q35 0 65 -10q66 -31 74 -66t8 -45q0 -37 -25 -66q-23 -16 -45 -16q-31 8 -30 49q16 -4 22 15q4 25 -14 24q-18 -2 -28.5 -9t-10.5 -36q0 -51 32.5 -68.5t57.5 -17.5 t50.5 14.5t42 40t22.5 76.5q0 45 -18.5 88t-58.5 72t-104 29q-70 0 -137 -29q-20 4 -12 24q41 93 82 185q-129 23 -251 87t-220 177t-148.5 274.5t-50.5 323.5z" />
<glyph unicode="&#xe8;" horiz-adv-x="1206" d="M131 4q-4 16 46 60.5t50 189.5q4 113 6.5 249t2.5 261t-2.5 265t-6.5 257q0 160 -51 193.5t-45 58.5q2 6 53 2q25 0 103 -4t100 -4q102 0 186 7t151 15.5t112 13.5t67 5q63 0 103.5 -16.5t69 -63.5t28.5 -102q0 -66 -40 -127.5t-111.5 -96t-145.5 -34.5q-25 0 -37 2 l-55 12q-23 10 -35 17t-12 22q84 51 84 117q0 29 -13.5 54t-32 36.5t-31.5 15.5t-42 4q-31 0 -44.5 -3t-21.5 -11q-12 -80 -14 -144.5t-4 -109.5v-123q55 -61 111.5 -88t117.5 -27q20 0 44 3t69 14.5t81 36t81 90.5q12 -49 15 -72t3 -61q0 -63 -17.5 -116.5t-79 -119.5 t-165.5 -66q-14 0 -54 6.5t-82 34t-66.5 50t-35.5 38.5q-14 16 -20 19q-4 -6 -6 -12v-199q6 -109 25.5 -223.5t69.5 -144t87 -29.5q39 0 84 27.5t45 88.5q0 49 -43 80q-20 10 -33 10q-23 0 -67 -22q20 68 57 104.5t91 56t112 19.5q84 0 142.5 -37t84 -86t29.5 -88t4 -59 q0 -53 -20.5 -106.5t-67.5 -97.5t-123 -64.5t-162 -20.5q-39 0 -81 4t-91 12.5t-135 20.5t-166 12q-41 0 -93 -3t-110 -5q-53 0 -53 2zM303 1923q0 45 34 67.5t60 22.5q81 0 183 -121l170 -202h-193l-184 125q-70 45 -70 108z" />
<glyph unicode="&#xe9;" horiz-adv-x="1206" d="M131 4q-4 16 46 60.5t50 189.5q4 113 6.5 249t2.5 261t-2.5 265t-6.5 257q0 160 -51 193.5t-45 58.5q2 6 53 2q25 0 103 -4t100 -4q102 0 186 7t151 15.5t112 13.5t67 5q63 0 103.5 -16.5t69 -63.5t28.5 -102q0 -66 -40 -127.5t-111.5 -96t-145.5 -34.5q-25 0 -37 2 l-55 12q-23 10 -35 17t-12 22q84 51 84 117q0 29 -13.5 54t-32 36.5t-31.5 15.5t-42 4q-31 0 -44.5 -3t-21.5 -11q-12 -80 -14 -144.5t-4 -109.5v-123q55 -61 111.5 -88t117.5 -27q20 0 44 3t69 14.5t81 36t81 90.5q12 -49 15 -72t3 -61q0 -63 -17.5 -116.5t-79 -119.5 t-165.5 -66q-14 0 -54 6.5t-82 34t-66.5 50t-35.5 38.5q-14 16 -20 19q-4 -6 -6 -12v-199q6 -109 25.5 -223.5t69.5 -144t87 -29.5q39 0 84 27.5t45 88.5q0 49 -43 80q-20 10 -33 10q-23 0 -67 -22q20 68 57 104.5t91 56t112 19.5q84 0 142.5 -37t84 -86t29.5 -88t4 -59 q0 -53 -20.5 -106.5t-67.5 -97.5t-123 -64.5t-162 -20.5q-39 0 -81 4t-91 12.5t-135 20.5t-166 12q-41 0 -93 -3t-110 -5q-53 0 -53 2zM467 1690l170 202q104 121 184 121q25 0 58.5 -22.5t33.5 -67.5q0 -63 -69 -108l-185 -125h-192z" />
<glyph unicode="&#xea;" horiz-adv-x="1206" d="M131 4q-4 16 46 60.5t50 189.5q4 113 6.5 249t2.5 261t-2.5 265t-6.5 257q0 160 -51 193.5t-45 58.5q2 6 53 2q25 0 103 -4t100 -4q102 0 186 7t151 15.5t112 13.5t67 5q63 0 103.5 -16.5t69 -63.5t28.5 -102q0 -66 -40 -127.5t-111.5 -96t-145.5 -34.5q-25 0 -37 2 l-55 12q-23 10 -35 17t-12 22q84 51 84 117q0 29 -13.5 54t-32 36.5t-31.5 15.5t-42 4q-31 0 -44.5 -3t-21.5 -11q-12 -80 -14 -144.5t-4 -109.5v-123q55 -61 111.5 -88t117.5 -27q20 0 44 3t69 14.5t81 36t81 90.5q12 -49 15 -72t3 -61q0 -63 -17.5 -116.5t-79 -119.5 t-165.5 -66q-14 0 -54 6.5t-82 34t-66.5 50t-35.5 38.5q-14 16 -20 19q-4 -6 -6 -12v-199q6 -109 25.5 -223.5t69.5 -144t87 -29.5q39 0 84 27.5t45 88.5q0 49 -43 80q-20 10 -33 10q-23 0 -67 -22q20 68 57 104.5t91 56t112 19.5q84 0 142.5 -37t84 -86t29.5 -88t4 -59 q0 -53 -20.5 -106.5t-67.5 -97.5t-123 -64.5t-162 -20.5q-39 0 -81 4t-91 12.5t-135 20.5t-166 12q-41 0 -93 -3t-110 -5q-53 0 -53 2zM266 1690l170 200q59 66 90 94.5t99 28.5q47 0 78.5 -17.5t109.5 -105.5l170 -200h-195l-163 106l-166 -106h-193z" />
<glyph unicode="&#xeb;" horiz-adv-x="1206" d="M131 4q-4 16 46 60.5t50 189.5q4 113 6.5 249t2.5 261t-2.5 265t-6.5 257q0 160 -51 193.5t-45 58.5q2 6 53 2q25 0 103 -4t100 -4q102 0 186 7t151 15.5t112 13.5t67 5q63 0 103.5 -16.5t69 -63.5t28.5 -102q0 -66 -40 -127.5t-111.5 -96t-145.5 -34.5q-25 0 -37 2 l-55 12q-23 10 -35 17t-12 22q84 51 84 117q0 29 -13.5 54t-32 36.5t-31.5 15.5t-42 4q-31 0 -44.5 -3t-21.5 -11q-12 -80 -14 -144.5t-4 -109.5v-123q55 -61 111.5 -88t117.5 -27q20 0 44 3t69 14.5t81 36t81 90.5q12 -49 15 -72t3 -61q0 -63 -17.5 -116.5t-79 -119.5 t-165.5 -66q-14 0 -54 6.5t-82 34t-66.5 50t-35.5 38.5q-14 16 -20 19q-4 -6 -6 -12v-199q6 -109 25.5 -223.5t69.5 -144t87 -29.5q39 0 84 27.5t45 88.5q0 49 -43 80q-20 10 -33 10q-23 0 -67 -22q20 68 57 104.5t91 56t112 19.5q84 0 142.5 -37t84 -86t29.5 -88t4 -59 q0 -53 -20.5 -106.5t-67.5 -97.5t-123 -64.5t-162 -20.5q-39 0 -81 4t-91 12.5t-135 20.5t-166 12q-41 0 -93 -3t-110 -5q-53 0 -53 2zM289 1767q-6 45 17.5 84.5t76.5 53.5q16 6 33 6q45 0 93 -37t42 -107q0 -66 -72 -108q-37 -14 -65 -14q-31 0 -75 26.5t-50 95.5z M682 1772q0 47 21.5 83t70.5 50q16 6 35 6q45 0 86 -31q53 -45 47 -113q0 -70 -70 -108q-37 -14 -65 -14q-31 0 -58.5 17t-47 44t-19.5 66z" />
<glyph unicode="&#xec;" horiz-adv-x="602" d="M27 1880q0 43 32.5 67.5t61.5 24.5q78 0 182 -123l168 -202h-192l-183 125q-70 47 -69 108zM109 4q-4 16 45 60.5t49 189.5q4 113 6 249t2 261t-2 265t-6 257q0 158 -50.5 192.5t-43.5 59.5q2 4 18 3t35 -1l203 -8q41 0 94 2t112 6q49 0 50 -2q6 -25 -44.5 -58.5 t-50.5 -193.5l-6 -510l6 -522q0 -156 50.5 -190.5t44.5 -59.5q-4 -4 -20.5 -3t-29.5 1q-25 0 -93 3t-113 5l-203 -8q-53 0 -53 2z" />
<glyph unicode="&#xed;" horiz-adv-x="602" d="M109 4q-4 16 45 60.5t49 189.5q4 113 6 249t2 261t-2 265t-6 257q0 158 -50.5 192.5t-43.5 59.5q2 4 18 3t35 -1l203 -8q41 0 94 2t112 6q49 0 50 -2q6 -25 -44.5 -58.5t-50.5 -193.5l-6 -510l6 -522q0 -156 50.5 -190.5t44.5 -59.5q-4 -4 -20.5 -3t-29.5 1q-25 0 -93 3 t-113 5l-203 -8q-53 0 -53 2zM283 1647l170 202q106 123 184 123q27 0 60.5 -24.5t33.5 -67.5q0 -59 -72 -108l-182 -125h-194z" />
<glyph unicode="&#xee;" horiz-adv-x="602" d="M23 1647l170 200q59 72 95 97.5t93 25.5q59 0 92 -23.5t96 -99.5l170 -200h-192l-166 110l-166 -110h-192zM109 4q-4 16 45 60.5t49 189.5q4 113 6 249t2 261t-2 265t-6 257q0 158 -50.5 192.5t-43.5 59.5q2 4 18 3t35 -1l203 -8q41 0 94 2t112 6q49 0 50 -2 q6 -25 -44.5 -58.5t-50.5 -193.5l-6 -510l6 -522q0 -156 50.5 -190.5t44.5 -59.5q-4 -4 -20.5 -3t-29.5 1q-25 0 -93 3t-113 5l-203 -8q-53 0 -53 2z" />
<glyph unicode="&#xef;" horiz-adv-x="602" d="M35 1767q-6 45 17.5 84.5t74.5 53.5q16 6 33 6q47 0 88 -31q53 -47 47 -113q0 -66 -70 -108q-37 -14 -65 -14q-33 0 -76 27.5t-49 94.5zM109 4q-4 16 45 60.5t49 189.5q4 113 6 249t2 261t-2 265t-6 257q0 158 -50.5 192.5t-43.5 59.5q2 4 18 3t35 -1l203 -8q41 0 94 2 t112 6q49 0 50 -2q6 -25 -44.5 -58.5t-50.5 -193.5l-6 -510l6 -522q0 -156 50.5 -190.5t44.5 -59.5q-4 -4 -20.5 -3t-29.5 1q-25 0 -93 3t-113 5l-203 -8q-53 0 -53 2zM426 1767q0 51 21.5 87.5t72.5 50.5q16 6 33 6q45 0 93 -37t42 -107q0 -66 -72 -108q-33 -14 -63 -14 q-33 0 -77 26.5t-50 95.5z" />
<glyph unicode="&#xf1;" horiz-adv-x="1353" d="M125 4q-4 25 45 58.5t49 191.5q4 119 7 291t3 239q0 154 -2 275t-8 231q0 160 -49 191.5t-45 56.5q2 4 18.5 3t34.5 -1l240 -8q43 0 123 4t96 4q25 2 38 2t13 -4q6 -20 -26.5 -44t-32.5 -71q0 -31 9 -65.5t34 -93.5l383 -705v96q0 90 7 216t7 180q0 49 17.5 120.5 t17.5 88.5q0 27 -13.5 44t-41.5 17q-33 0 -40.5 -21.5t-7.5 -31.5q0 -14 13.5 -34t48.5 -20q8 0 6 -18t-16.5 -37.5t-41 -37t-59.5 -17.5q-39 0 -83 26.5t-75.5 74.5t-31.5 132q0 63 28.5 126t90 103t106.5 47t66 7q59 0 118.5 -23.5t96.5 -68.5t50 -93.5t13 -107.5 q0 -31 -4 -68.5t-10 -80.5l-29 -965q0 -135 51 -159.5t47 -49.5q-2 -4 -17 -3t-38 1q-37 2 -93 5t-116 3q-41 0 -107.5 -2t-111.5 -6q-49 0 -51 2q-6 23 25.5 43.5t31.5 54.5q0 25 -13 67t-44 99q-37 78 -70.5 145.5t-103.5 198.5l-215 385l-6 -354l6 -389q0 -156 51 -190.5 t45 -59.5q-2 -4 -18.5 -4t-32.5 2q-12 2 -71.5 5t-94.5 3q-37 0 -79 -3t-85 -5q-53 0 -53 2zM397 1767q0 76 53.5 131.5t135.5 55.5q63 0 165.5 -69.5t149.5 -69.5q29 0 50.5 21.5t21.5 49.5q0 27 -7.5 47.5t-21.5 38.5q-10 16 -1 31.5t30 15.5q18 0 36.5 -16t32 -49 t13.5 -76q0 -74 -34 -131t-110 -57q-68 0 -204 58t-175 58q-53 0 -53 -49q0 -8 4 -24q6 -23 -6 -38.5t-33 -15.5q-29 0 -41 39q-6 25 -6 49z" />
<glyph unicode="&#xf2;" horiz-adv-x="1775" d="M129 834q0 66 10.5 178t113.5 269t231 218.5t206 83t162 33.5q27 2 47.5 3t34.5 1q176 0 361.5 -72.5t304 -213t169 -281t50.5 -283.5q0 -61 -10.5 -124.5t-49.5 -197t-198.5 -279.5t-310 -191.5t-269.5 -45.5q-152 0 -292 44t-281.5 168t-210 309.5t-68.5 380.5z M496 872q0 -70 5 -111.5t30.5 -156.5t110.5 -235.5t189.5 -158.5t176.5 -38q131 0 241 80q92 74 144.5 196.5t52.5 231.5q0 18 -4 51l-31 -90q-45 -102 -123 -160.5t-143.5 -72t-95.5 -13.5q-57 0 -112.5 21.5t-104 71t-74 127t-25.5 149.5q0 33 11.5 87t64.5 122.5 t118.5 92.5t106.5 24q61 0 100.5 -28t53.5 -60.5t14 -73.5q0 -25 -5 -41.5t-23.5 -46t-57.5 -23.5q-19 26 -35 53q-18 18 -53 19q-47 0 -64.5 -34t-17.5 -58q0 -27 17.5 -57.5t52.5 -49t74 -18.5q70 0 125 24.5t91.5 72.5t50 97t13.5 109q0 43 -6 74.5t-35 107.5 t-103.5 137.5t-157.5 80t-138 18.5q-82 0 -159 -30t-144.5 -98.5t-99 -172t-31.5 -220.5zM627 1923q0 45 34.5 67.5t61.5 22.5q78 0 180 -121l170 -202h-192l-185 125q-70 45 -69 108z" />
<glyph unicode="&#xf3;" horiz-adv-x="1775" d="M129 834q0 66 10.5 178t113.5 269t231 218.5t206 83t162 33.5q27 2 47.5 3t34.5 1q176 0 361.5 -72.5t304 -213t169 -281t50.5 -283.5q0 -61 -10.5 -124.5t-49.5 -197t-198.5 -279.5t-310 -191.5t-269.5 -45.5q-152 0 -292 44t-281.5 168t-210 309.5t-68.5 380.5z M496 872q0 -70 5 -111.5t30.5 -156.5t110.5 -235.5t189.5 -158.5t176.5 -38q131 0 241 80q92 74 144.5 196.5t52.5 231.5q0 18 -4 51l-31 -90q-45 -102 -123 -160.5t-143.5 -72t-95.5 -13.5q-57 0 -112.5 21.5t-104 71t-74 127t-25.5 149.5q0 33 11.5 87t64.5 122.5 t118.5 92.5t106.5 24q61 0 100.5 -28t53.5 -60.5t14 -73.5q0 -25 -5 -41.5t-23.5 -46t-57.5 -23.5q-19 26 -35 53q-18 18 -53 19q-47 0 -64.5 -34t-17.5 -58q0 -27 17.5 -57.5t52.5 -49t74 -18.5q70 0 125 24.5t91.5 72.5t50 97t13.5 109q0 43 -6 74.5t-35 107.5 t-103.5 137.5t-157.5 80t-138 18.5q-82 0 -159 -30t-144.5 -98.5t-99 -172t-31.5 -220.5zM823 1690l170 202q102 121 183 121q25 0 58.5 -22.5t33.5 -67.5q0 -63 -68 -108l-184 -125h-193z" />
<glyph unicode="&#xf4;" horiz-adv-x="1775" d="M129 834q0 66 10.5 178t113.5 269t231 218.5t206 83t162 33.5q27 2 47.5 3t34.5 1q176 0 361.5 -72.5t304 -213t169 -281t50.5 -283.5q0 -61 -10.5 -124.5t-49.5 -197t-198.5 -279.5t-310 -191.5t-269.5 -45.5q-152 0 -292 44t-281.5 168t-210 309.5t-68.5 380.5z M496 872q0 -70 5 -111.5t30.5 -156.5t110.5 -235.5t189.5 -158.5t176.5 -38q131 0 241 80q92 74 144.5 196.5t52.5 231.5q0 18 -4 51l-31 -90q-45 -102 -123 -160.5t-143.5 -72t-95.5 -13.5q-57 0 -112.5 21.5t-104 71t-74 127t-25.5 149.5q0 33 11.5 87t64.5 122.5 t118.5 92.5t106.5 24q61 0 100.5 -28t53.5 -60.5t14 -73.5q0 -25 -5 -41.5t-23.5 -46t-57.5 -23.5q-19 26 -35 53q-18 18 -53 19q-47 0 -64.5 -34t-17.5 -58q0 -27 17.5 -57.5t52.5 -49t74 -18.5q70 0 125 24.5t91.5 72.5t50 97t13.5 109q0 43 -6 74.5t-35 107.5 t-103.5 137.5t-157.5 80t-138 18.5q-82 0 -159 -30t-144.5 -98.5t-99 -172t-31.5 -220.5zM563 1690l170 200q57 66 87 94.5t102 28.5q66 0 96.5 -28.5t89.5 -94.5l168 -200h-191l-163 106l-166 -106h-193z" />
<glyph unicode="&#xf5;" horiz-adv-x="1775" d="M129 834q0 66 10.5 178t113.5 269t231 218.5t206 83t162 33.5q27 2 47.5 3t34.5 1q176 0 361.5 -72.5t304 -213t169 -281t50.5 -283.5q0 -61 -10.5 -124.5t-49.5 -197t-198.5 -279.5t-310 -191.5t-269.5 -45.5q-152 0 -292 44t-281.5 168t-210 309.5t-68.5 380.5z M496 872q0 -70 5 -111.5t30.5 -156.5t110.5 -235.5t189.5 -158.5t176.5 -38q131 0 241 80q92 74 144.5 196.5t52.5 231.5q0 18 -4 51l-31 -90q-45 -102 -123 -160.5t-143.5 -72t-95.5 -13.5q-57 0 -112.5 21.5t-104 71t-74 127t-25.5 149.5q0 33 11.5 87t64.5 122.5 t118.5 92.5t106.5 24q61 0 100.5 -28t53.5 -60.5t14 -73.5q0 -25 -5 -41.5t-23.5 -46t-57.5 -23.5q-19 26 -35 53q-18 18 -53 19q-47 0 -64.5 -34t-17.5 -58q0 -27 17.5 -57.5t52.5 -49t74 -18.5q70 0 125 24.5t91.5 72.5t50 97t13.5 109q0 43 -6 74.5t-35 107.5 t-103.5 137.5t-157.5 80t-138 18.5q-82 0 -159 -30t-144.5 -98.5t-99 -172t-31.5 -220.5zM647 1763q0 74 54.5 132.5t134.5 58.5q59 0 172.5 -69.5t142.5 -69.5t51.5 20t22.5 51q0 27 -7.5 47.5t-21.5 38.5q-10 16 -1 31.5t30 15.5q18 0 35.5 -16t31 -49t13.5 -76 q0 -74 -34 -131t-110 -57q-66 0 -202 58t-177 58q-51 0 -51 -49q0 -8 4 -24q6 -23 -6 -38.5t-33 -15.5q-31 0 -43 39q-6 23 -6 45z" />
<glyph unicode="&#xf6;" horiz-adv-x="1775" d="M129 834q0 66 10.5 178t113.5 269t231 218.5t206 83t162 33.5q27 2 47.5 3t34.5 1q176 0 361.5 -72.5t304 -213t169 -281t50.5 -283.5q0 -61 -10.5 -124.5t-49.5 -197t-198.5 -279.5t-310 -191.5t-269.5 -45.5q-152 0 -292 44t-281.5 168t-210 309.5t-68.5 380.5z M496 872q0 -70 5 -111.5t30.5 -156.5t110.5 -235.5t189.5 -158.5t176.5 -38q131 0 241 80q92 74 144.5 196.5t52.5 231.5q0 18 -4 51l-31 -90q-45 -102 -123 -160.5t-143.5 -72t-95.5 -13.5q-57 0 -112.5 21.5t-104 71t-74 127t-25.5 149.5q0 33 11.5 87t64.5 122.5 t118.5 92.5t106.5 24q61 0 100.5 -28t53.5 -60.5t14 -73.5q0 -25 -5 -41.5t-23.5 -46t-57.5 -23.5q-19 26 -35 53q-18 18 -53 19q-47 0 -64.5 -34t-17.5 -58q0 -27 17.5 -57.5t52.5 -49t74 -18.5q70 0 125 24.5t91.5 72.5t50 97t13.5 109q0 43 -6 74.5t-35 107.5 t-103.5 137.5t-157.5 80t-138 18.5q-82 0 -159 -30t-144.5 -98.5t-99 -172t-31.5 -220.5zM582 1812q0 49 20.5 84.5t73.5 49.5q16 6 33 6q45 0 92 -36t41 -108q0 -29 -19.5 -59.5t-52.5 -45.5t-61 -15q-31 0 -59.5 16t-48 45t-19.5 63zM973 1812q0 47 22.5 83.5t73.5 50.5 q12 6 31 6q47 0 95 -37t42 -107q0 -68 -74 -106q-33 -14 -63 -14q-31 0 -57.5 15t-48 46t-21.5 63z" />
<glyph unicode="&#xf7;" horiz-adv-x="1124" d="M88 414v139h948v-139h-948zM446 207q0 49 36 83t81 34q49 0 82 -33t33 -84q0 -49 -35 -82q-31 -35 -80 -35t-83 36t-34 81zM446 758q0 49 36 82.5t81 33.5q49 0 82 -34.5t33 -81.5q0 -49 -35 -82q-31 -35 -80 -35t-83 34t-34 83z" />
<glyph unicode="&#xf8;" horiz-adv-x="1775" d="M129 836q0 63 10.5 175.5t113.5 269.5t231 218.5t206 83t129 28.5t68.5 8t44.5 1q123 0 259 -38t255 -118l127 154h225l-217 -266l37 -39q100 -119 150.5 -259.5t50.5 -283.5q0 -61 -10.5 -124.5t-49.5 -197t-198.5 -279.5t-312 -190.5t-269.5 -44.5q-123 0 -243 31 t-220 94l-98 -125h-230l195 238q-141 145 -197.5 316t-56.5 348zM496 872q0 -70 5 -111.5t24.5 -132t72.5 -192.5l158 187q-23 80 -23 145q0 33 11.5 85t64.5 120.5t118.5 92.5t108.5 24q49 0 84 -19l148 180q-43 53 -99.5 84t-120 44.5t-118.5 13.5q-82 0 -159 -30 t-144.5 -98.5t-99 -172t-31.5 -220.5zM711 293q37 -33 72.5 -55.5t94 -44t130.5 -21.5q131 0 241 80q92 74 144.5 196.5t52.5 231.5q0 18 -4 51l-31 -90q-45 -102 -123 -160.5t-142.5 -72t-94.5 -13.5q-51 0 -103.5 17.5t-95.5 52.5zM1030 684q31 -12 60 -12q70 0 125 24.5 t90.5 71.5t50 101.5t14.5 101.5q0 25 -4 53t-10 57l-162 -198l-10 -27q-18 -31 -43 -37z" />
<glyph unicode="&#xf9;" horiz-adv-x="1345" d="M119 1538q2 4 18.5 3t34.5 -1l203 -8q41 0 94 2t113 6h40t9 -2q6 -25 -44 -58.5t-50 -193.5l-7 -510v-155q0 -207 35 -291t96.5 -117t124.5 -33t117 27q92 53 118 155.5t26 227.5v512v96q0 45 -3.5 71.5t-23 38t-31.5 11.5t-33.5 -11.5t-21.5 -41.5q0 -25 14.5 -41.5 t44.5 -16.5q20 0 21 -26l-4 -23q-6 -23 -29 -43t-44.5 -26.5t-41.5 -6.5q-63 0 -116.5 47.5t-75 105.5t-21.5 118q0 31 9 78t54.5 99t105.5 70.5t110 18.5q57 0 106 -15.5t117.5 -65.5t97.5 -188.5t29 -330.5l-17 -766q0 -158 51.5 -191.5t45.5 -58.5q-10 -2 -24.5 -3 t-27.5 1q-29 2 -54 5t-62 3q-47 0 -82 -4t-94 -20q-8 0 -13 2l-2 8q0 14 -2 22q-10 12 -20 13q-8 0 -45 -15l-62 -28q-31 -14 -62.5 -25.5t-69.5 -20t-97 -8.5q-92 0 -220 51.5t-182.5 192.5t-54.5 340v80l2 166l-6 522q0 160 -49 193.5t-45 58.5zM446 1923q0 45 34 67.5 t61 22.5q78 0 180 -121l170 -202h-193l-184 125q-68 45 -68 108z" />
<glyph unicode="&#xfa;" horiz-adv-x="1345" d="M119 1538q2 4 18.5 3t34.5 -1l203 -8q41 0 94 2t113 6h40t9 -2q6 -25 -44 -58.5t-50 -193.5l-7 -510v-155q0 -207 35 -291t96.5 -117t124.5 -33t117 27q92 53 118 155.5t26 227.5v512v96q0 45 -3.5 71.5t-23 38t-31.5 11.5t-33.5 -11.5t-21.5 -41.5q0 -25 14.5 -41.5 t44.5 -16.5q20 0 21 -26l-4 -23q-6 -23 -29 -43t-44.5 -26.5t-41.5 -6.5q-63 0 -116.5 47.5t-75 105.5t-21.5 118q0 31 9 78t54.5 99t105.5 70.5t110 18.5q57 0 106 -15.5t117.5 -65.5t97.5 -188.5t29 -330.5l-17 -766q0 -158 51.5 -191.5t45.5 -58.5q-10 -2 -24.5 -3 t-27.5 1q-29 2 -54 5t-62 3q-47 0 -82 -4t-94 -20q-8 0 -13 2l-2 8q0 14 -2 22q-10 12 -20 13q-8 0 -45 -15l-62 -28q-31 -14 -62.5 -25.5t-69.5 -20t-97 -8.5q-92 0 -220 51.5t-182.5 192.5t-54.5 340v80l2 166l-6 522q0 160 -49 193.5t-45 58.5zM682 1690l168 202 q102 121 184 121q25 0 58.5 -22.5t33.5 -67.5q0 -63 -67 -108l-185 -125h-192z" />
<glyph unicode="&#xfb;" horiz-adv-x="1345" d="M119 1538q2 4 18.5 3t34.5 -1l203 -8q41 0 94 2t113 6h40t9 -2q6 -25 -44 -58.5t-50 -193.5l-7 -510v-155q0 -207 35 -291t96.5 -117t124.5 -33t117 27q92 53 118 155.5t26 227.5v512v96q0 45 -3.5 71.5t-23 38t-31.5 11.5t-33.5 -11.5t-21.5 -41.5q0 -25 14.5 -41.5 t44.5 -16.5q20 0 21 -26l-4 -23q-6 -23 -29 -43t-44.5 -26.5t-41.5 -6.5q-63 0 -116.5 47.5t-75 105.5t-21.5 118q0 31 9 78t54.5 99t105.5 70.5t110 18.5q57 0 106 -15.5t117.5 -65.5t97.5 -188.5t29 -330.5l-17 -766q0 -158 51.5 -191.5t45.5 -58.5q-10 -2 -24.5 -3 t-27.5 1q-29 2 -54 5t-62 3q-47 0 -82 -4t-94 -20q-8 0 -13 2l-2 8q0 14 -2 22q-10 12 -20 13q-8 0 -45 -15l-62 -28q-31 -14 -62.5 -25.5t-69.5 -20t-97 -8.5q-92 0 -220 51.5t-182.5 192.5t-54.5 340v80l2 166l-6 522q0 160 -49 193.5t-45 58.5zM379 1690l170 200 q57 66 86.5 94.5t101.5 28.5q68 0 119 -47q43 -47 70 -76l168 -200h-193l-164 106l-166 -106h-192z" />
<glyph unicode="&#xfc;" horiz-adv-x="1345" d="M119 1538q2 4 18.5 3t34.5 -1l203 -8q41 0 94 2t113 6h40t9 -2q6 -25 -44 -58.5t-50 -193.5l-7 -510v-155q0 -207 35 -291t96.5 -117t124.5 -33t117 27q92 53 118 155.5t26 227.5v512v96q0 45 -3.5 71.5t-23 38t-31.5 11.5t-33.5 -11.5t-21.5 -41.5q0 -25 14.5 -41.5 t44.5 -16.5q20 0 21 -26l-4 -23q-6 -23 -29 -43t-44.5 -26.5t-41.5 -6.5q-63 0 -116.5 47.5t-75 105.5t-21.5 118q0 31 9 78t54.5 99t105.5 70.5t110 18.5q57 0 106 -15.5t117.5 -65.5t97.5 -188.5t29 -330.5l-17 -766q0 -158 51.5 -191.5t45.5 -58.5q-10 -2 -24.5 -3 t-27.5 1q-29 2 -54 5t-62 3q-47 0 -82 -4t-94 -20q-8 0 -13 2l-2 8q0 14 -2 22q-10 12 -20 13q-8 0 -45 -15l-62 -28q-31 -14 -62.5 -25.5t-69.5 -20t-97 -8.5q-92 0 -220 51.5t-182.5 192.5t-54.5 340v80l2 166l-6 522q0 160 -49 193.5t-45 58.5zM416 1808q-6 49 15.5 85.5 t76.5 52.5q16 6 33 6q45 0 79.5 -25.5t47 -55.5t8.5 -63q0 -68 -72 -106q-33 -14 -63 -14q-33 0 -76 24.5t-49 95.5zM807 1812q0 49 20.5 84.5t73.5 49.5q16 6 33 6q45 0 80 -25.5t47 -55.5t8 -63q0 -68 -72 -106q-37 -14 -65 -14q-31 0 -78 26.5t-47 97.5z" />
<glyph unicode="&#xfd;" horiz-adv-x="1183" d="M45 1538q2 6 51 2l203 -8q43 0 87 2t95 6h40t9 -2q6 -20 -15 -38.5t-21 -55.5q0 -31 6 -61.5t28 -98.5l37 -96l178 -412l142 254q31 53 61.5 109.5t30.5 89.5q0 8 -8 33.5t-43 29.5q-41 0 -57.5 -23.5t-4.5 -47.5q14 -27 23.5 -34t21.5 -16q16 -18 -13.5 -43.5 t-61.5 -25.5q-80 -6 -146 88q-33 51 -33 119q0 63 31 123q41 70 104.5 103.5t141.5 33.5q74 0 147.5 -37t112.5 -105.5t39 -140.5q0 -76 -38 -159t-75 -154l-203 -381q-27 -51 -41 -146.5t-14 -191.5q0 -156 49 -190.5t43 -59.5q-2 -4 -17 -4t-32 2q-14 0 -88 4t-119 4 l-202 -8q-53 0 -54 2q-4 16 46.5 60.5t50.5 191.5q0 96 -11.5 161.5t-48.5 162.5l-276 714q-66 174 -114 195.5t-42 48.5zM369 1731l170 204q102 121 182 121q27 0 49 -18q43 -29 43 -74q0 -59 -70 -109l-184 -124h-190z" />
<glyph unicode="&#xff;" horiz-adv-x="1183" d="M45 1538q2 6 51 2l203 -8q43 0 87 2t95 6h40t9 -2q6 -20 -15 -38.5t-21 -55.5q0 -31 6 -61.5t28 -98.5l37 -96l178 -412l142 254q31 53 61.5 109.5t30.5 89.5q0 8 -8 33.5t-43 29.5q-41 0 -57.5 -23.5t-4.5 -47.5q14 -27 23.5 -34t21.5 -16q16 -18 -13.5 -43.5 t-61.5 -25.5q-80 -6 -146 88q-33 51 -33 119q0 63 31 123q41 70 104.5 103.5t141.5 33.5q74 0 147.5 -37t112.5 -105.5t39 -140.5q0 -76 -38 -159t-75 -154l-203 -381q-27 -51 -41 -146.5t-14 -191.5q0 -156 49 -190.5t43 -59.5q-2 -4 -17 -4t-32 2q-14 0 -88 4t-119 4 l-202 -8q-53 0 -54 2q-4 16 46.5 60.5t50.5 191.5q0 96 -11.5 161.5t-48.5 162.5l-276 714q-66 174 -114 195.5t-42 48.5zM289 1767q-6 45 17.5 84.5t76.5 53.5q16 6 33 6q45 0 93 -37t42 -107q0 -66 -72 -108q-37 -14 -65 -14q-31 0 -75 26.5t-50 95.5zM682 1772 q0 47 21.5 83t70.5 50q16 6 35 6q45 0 86 -31q53 -45 47 -113q0 -70 -70 -108q-37 -14 -65 -14q-31 0 -58.5 17t-47 44t-19.5 66z" />
<glyph unicode="&#x152;" horiz-adv-x="2320" d="M129 834q0 66 10.5 178t113.5 269t231 218.5t206 83t140.5 30.5t107.5 9q86 0 177.5 -19.5t187.5 -60.5l30 -2q25 0 102.5 -4t100.5 -4q90 0 165 5t156.5 15.5t127 15.5t67.5 5q63 0 103 -16.5t70 -63.5t30 -102q0 -61 -41 -125t-112.5 -98.5t-143.5 -34.5q-25 0 -37 2 l-57 12q-23 10 -35 17t-12 22q84 51 84 117q0 29 -13.5 54t-32 36.5t-32 15.5t-41.5 4q-31 0 -44.5 -3t-21.5 -11q-12 -80 -14 -144.5t-4 -109.5v-123q55 -61 112.5 -88t118.5 -27q20 0 44 4t68 14.5t80 35t81 90.5q12 -49 15 -72t3 -61q0 -63 -17.5 -116.5t-78 -119.5 t-164.5 -66q-14 0 -55 6.5t-91.5 38t-79 66.5t-34.5 37q-4 -6 -6 -12v-199q2 -63 17 -197.5t71.5 -167t93.5 -32.5q39 0 84 27.5t45 88.5q0 27 -9 45.5t-29.5 31.5t-35.5 13q-20 0 -69 -22q20 68 57 104.5t93 56t112 19.5q84 0 171 -56t87 -188v-24q0 -53 -20.5 -106.5 t-67.5 -98.5t-123 -65.5t-162 -20.5q-39 0 -81 4t-91 12.5t-135 20.5t-166 12q-41 0 -93 -3t-110 -5l-41 -2q-25 -12 -54.5 -23.5t-83.5 -28t-173 -16.5q-152 0 -292 44t-281.5 168t-210 309.5t-68.5 380.5zM496 872q0 -70 5 -111.5t30.5 -156.5t110.5 -235.5t189.5 -158.5 t176.5 -38q131 0 206.5 56.5t108 98.5t57.5 91l2 168q-47 -76 -118.5 -122t-128 -57.5t-86.5 -11.5q-57 0 -112.5 21.5t-104 71t-74 127t-25.5 149.5q0 33 11.5 87t64.5 122.5t118.5 92.5t106.5 24q61 0 100.5 -28t53.5 -60.5t14 -73.5q0 -25 -5 -41.5t-23.5 -46 t-57.5 -23.5q-18 27 -35 53q-18 18 -53 19q-47 0 -64.5 -34t-17.5 -58q0 -27 17.5 -57.5t52.5 -49t74 -18.5q70 0 125 24.5t91.5 72.5t50 97t13.5 109q0 43 -6 74.5t-35 107.5t-103.5 137.5t-157.5 80t-138 18.5q-82 0 -159 -30t-144.5 -98.5t-99 -172t-31.5 -220.5z" />
<glyph unicode="&#x153;" horiz-adv-x="2320" d="M129 834q0 66 10.5 178t113.5 269t231 218.5t206 83t140.5 30.5t107.5 9q86 0 177.5 -19.5t187.5 -60.5l30 -2q25 0 102.5 -4t100.5 -4q90 0 165 5t156.5 15.5t127 15.5t67.5 5q63 0 103 -16.5t70 -63.5t30 -102q0 -61 -41 -125t-112.5 -98.5t-143.5 -34.5q-25 0 -37 2 l-57 12q-23 10 -35 17t-12 22q84 51 84 117q0 29 -13.5 54t-32 36.5t-32 15.5t-41.5 4q-31 0 -44.5 -3t-21.5 -11q-12 -80 -14 -144.5t-4 -109.5v-123q55 -61 112.5 -88t118.5 -27q20 0 44 4t68 14.5t80 35t81 90.5q12 -49 15 -72t3 -61q0 -63 -17.5 -116.5t-78 -119.5 t-164.5 -66q-14 0 -55 6.5t-91.5 38t-79 66.5t-34.5 37q-4 -6 -6 -12v-199q2 -63 17 -197.5t71.5 -167t93.5 -32.5q39 0 84 27.5t45 88.5q0 27 -9 45.5t-29.5 31.5t-35.5 13q-20 0 -69 -22q20 68 57 104.5t93 56t112 19.5q84 0 171 -56t87 -188v-24q0 -53 -20.5 -106.5 t-67.5 -98.5t-123 -65.5t-162 -20.5q-39 0 -81 4t-91 12.5t-135 20.5t-166 12q-41 0 -93 -3t-110 -5l-41 -2q-25 -12 -54.5 -23.5t-83.5 -28t-173 -16.5q-152 0 -292 44t-281.5 168t-210 309.5t-68.5 380.5zM496 872q0 -70 5 -111.5t30.5 -156.5t110.5 -235.5t189.5 -158.5 t176.5 -38q131 0 206.5 56.5t108 98.5t57.5 91l2 168q-47 -76 -118.5 -122t-128 -57.5t-86.5 -11.5q-57 0 -112.5 21.5t-104 71t-74 127t-25.5 149.5q0 33 11.5 87t64.5 122.5t118.5 92.5t106.5 24q61 0 100.5 -28t53.5 -60.5t14 -73.5q0 -25 -5 -41.5t-23.5 -46 t-57.5 -23.5q-18 27 -35 53q-18 18 -53 19q-47 0 -64.5 -34t-17.5 -58q0 -27 17.5 -57.5t52.5 -49t74 -18.5q70 0 125 24.5t91.5 72.5t50 97t13.5 109q0 43 -6 74.5t-35 107.5t-103.5 137.5t-157.5 80t-138 18.5q-82 0 -159 -30t-144.5 -98.5t-99 -172t-31.5 -220.5z" />
<glyph unicode="&#x178;" horiz-adv-x="1183" d="M45 1538q2 6 51 2l203 -8q43 0 87 2t95 6h40t9 -2q6 -20 -15 -38.5t-21 -55.5q0 -31 6 -61.5t28 -98.5l37 -96l178 -412l142 254q31 53 61.5 109.5t30.5 89.5q0 8 -8 33.5t-43 29.5q-41 0 -57.5 -23.5t-4.5 -47.5q14 -27 23.5 -34t21.5 -16q16 -18 -13.5 -43.5 t-61.5 -25.5q-80 -6 -146 88q-33 51 -33 119q0 63 31 123q41 70 104.5 103.5t141.5 33.5q74 0 147.5 -37t112.5 -105.5t39 -140.5q0 -76 -38 -159t-75 -154l-203 -381q-27 -51 -41 -146.5t-14 -191.5q0 -156 49 -190.5t43 -59.5q-2 -4 -17 -4t-32 2q-14 0 -88 4t-119 4 l-202 -8q-53 0 -54 2q-4 16 46.5 60.5t50.5 191.5q0 96 -11.5 161.5t-48.5 162.5l-276 714q-66 174 -114 195.5t-42 48.5zM586 1647l170 202q100 123 182 123q27 0 59.5 -23.5t32.5 -66.5q0 -63 -69 -110l-185 -125h-190z" />
<glyph unicode="&#x2000;" horiz-adv-x="1076" />
<glyph unicode="&#x2001;" horiz-adv-x="2152" />
<glyph unicode="&#x2002;" horiz-adv-x="1076" />
<glyph unicode="&#x2003;" horiz-adv-x="2152" />
<glyph unicode="&#x2004;" horiz-adv-x="717" />
<glyph unicode="&#x2005;" horiz-adv-x="538" />
<glyph unicode="&#x2006;" horiz-adv-x="358" />
<glyph unicode="&#x2007;" horiz-adv-x="358" />
<glyph unicode="&#x2008;" horiz-adv-x="269" />
<glyph unicode="&#x2009;" horiz-adv-x="430" />
<glyph unicode="&#x200a;" horiz-adv-x="119" />
<glyph unicode="&#x2010;" horiz-adv-x="720" d="M104 485q4 29 8.5 66t4.5 72q0 37 -4.5 74.5t-8.5 70.5q41 -2 147.5 -6t172.5 -4q109 0 192.5 3t126.5 7q-4 -31 -8 -67.5t-4 -71.5t4 -73t8 -71q-68 4 -150.5 8.5t-160.5 4.5q-80 0 -167 -4.5t-161 -8.5z" />
<glyph unicode="&#x2011;" horiz-adv-x="720" d="M104 485q4 29 8.5 66t4.5 72q0 37 -4.5 74.5t-8.5 70.5q41 -2 147.5 -6t172.5 -4q109 0 192.5 3t126.5 7q-4 -31 -8 -67.5t-4 -71.5t4 -73t8 -71q-68 4 -150.5 8.5t-160.5 4.5q-80 0 -167 -4.5t-161 -8.5z" />
<glyph unicode="&#x2012;" horiz-adv-x="720" d="M104 485q4 29 8.5 66t4.5 72q0 37 -4.5 74.5t-8.5 70.5q41 -2 147.5 -6t172.5 -4q109 0 192.5 3t126.5 7q-4 -31 -8 -67.5t-4 -71.5t4 -73t8 -71q-68 4 -150.5 8.5t-160.5 4.5q-80 0 -167 -4.5t-161 -8.5z" />
<glyph unicode="&#x2013;" horiz-adv-x="1353" d="M104 485q4 29 8.5 66t4.5 72q0 37 -4.5 74.5t-8.5 70.5l662 -10l635 10q-4 -31 -8 -67.5t-4 -71.5t4 -73t8 -71l-627 13z" />
<glyph unicode="&#x2014;" horiz-adv-x="1835" d="M104 485q4 29 8.5 66t4.5 72q0 37 -4.5 74.5t-8.5 70.5l914 -10l883 10q-4 -31 -8.5 -67.5t-4.5 -71.5t4 -73t9 -71l-875 13z" />
<glyph unicode="&#x2018;" horiz-adv-x="419" d="M109 1270q0 88 73.5 181t192.5 171l41 -47q-59 -47 -92 -80t-54 -80q70 -20 105 -49t43 -71t8 -56q0 -63 -55 -111q-45 -35 -103 -34q-27 0 -85 23.5t-66 79.5t-8 73z" />
<glyph unicode="&#x2019;" horiz-adv-x="419" d="M117 1468q0 68 49 110t102 42q27 0 56 -12q45 -14 73.5 -52t32.5 -67t4 -45q0 -86 -75.5 -181t-188.5 -171l-41 47q61 49 92 79.5t49 79.5q-68 20 -102.5 49t-42.5 70t-8 51z" />
<glyph unicode="&#x201c;" horiz-adv-x="851" d="M160 1270q0 90 71.5 182t192.5 170l39 -47q-63 -55 -92 -84t-49 -76q68 -20 102.5 -49t42.5 -71t8 -54q0 -66 -53 -113q-45 -35 -105 -34q-27 0 -59.5 13t-61 52t-32.5 66.5t-4 44.5zM516 1270q0 86 75.5 181t188.5 171l41 -47q-51 -41 -87 -77t-54 -83q68 -20 102.5 -49 t43 -71t8.5 -52q0 -31 -13.5 -60.5t-48.5 -59t-96 -29.5q-27 0 -85.5 23.5t-66.5 79.5t-8 73z" />
<glyph unicode="&#x201d;" horiz-adv-x="851" d="M147 1468q0 68 49.5 110t104.5 42q27 0 55 -12q45 -14 73 -51t32 -67t4 -46q0 -90 -71.5 -182t-192.5 -170l-39 47q63 53 92 81.5t49 77.5q-68 20 -103.5 49t-44 70t-8.5 51zM506 1468q0 68 49 110t102 42q27 0 64 -14.5t65.5 -51t32.5 -65.5t4 -45q0 -86 -75.5 -181 t-188.5 -171l-41 47q51 41 87 76.5t54 82.5q-68 20 -102.5 49t-42.5 70t-8 51z" />
<glyph unicode="&#x2022;" horiz-adv-x="501" d="M150 608q-6 63 27.5 117.5t105.5 77.5q18 8 49 8q66 0 111.5 -37t62 -77t16.5 -89q-4 -45 -28.5 -84t-69.5 -62.5t-90 -23.5q-47 0 -107.5 34t-76.5 136z" />
<glyph unicode="&#x2026;" horiz-adv-x="1259" d="M125 123q-4 57 23 100.5t90 63.5q16 6 38 6q53 0 92.5 -30t52.5 -62.5t13 -77.5q-4 -37 -23.5 -68.5t-60.5 -54.5q-37 -16 -76 -16t-89 28.5t-60 110.5zM545 123q-4 57 22.5 100.5t89.5 63.5q16 6 39 6q53 0 92 -30t52.5 -62.5t13.5 -77.5q-4 -37 -23.5 -68.5 t-60.5 -54.5q-37 -16 -76 -16t-89 28.5t-60 110.5zM965 123q-4 57 22.5 100.5t89.5 63.5q16 6 39 6q53 0 92 -30t52.5 -62.5t13.5 -77.5q-4 -37 -23.5 -68.5t-60.5 -54.5q-37 -16 -76 -16t-89 28.5t-60 110.5z" />
<glyph unicode="&#x202f;" horiz-adv-x="430" />
<glyph unicode="&#x205f;" horiz-adv-x="538" />
<glyph unicode="&#x2122;" horiz-adv-x="2048" d="M100 1323v147h709v-147h-262v-692h-182v692h-265zM924 631v839h268l217 -538l231 538h265v-839h-176v692l-275 -692h-88l-266 692v-692h-176z" />
<glyph unicode="&#xe000;" horiz-adv-x="1566" d="M0 0v1567h1567v-1567h-1567z" />
<glyph unicode="&#xfb01;" horiz-adv-x="1640" d="M113 4q-4 25 45 58.5t49 191.5q4 113 6 249t2 261t-2 265t-6 257q0 160 -49 193.5t-45 58.5q2 4 18 3t35 -1q23 0 101.5 -4t101.5 -4h53h43q154 0 227.5 11t116.5 18.5t82 7.5q53 0 94 -16.5t70.5 -60.5t29.5 -101q0 -66 -40.5 -127.5t-112.5 -96t-144 -34.5q-25 0 -48 3 t-43.5 11t-35 17.5t-14.5 21.5q86 51 86 117q0 29 -13 54t-42 44q-14 4 -34.5 8t-29.5 4q-31 0 -44 -3t-21 -11q-10 -66 -15.5 -126.5t-5.5 -90.5v-37q0 -125 73 -179.5t173 -54.5q45 0 93 12.5t84 37t81 90.5q12 -47 15.5 -73t3.5 -65q0 -61 -17.5 -114.5t-78 -118 t-164.5 -64.5q-12 0 -52.5 5.5t-82.5 33t-62.5 46t-40.5 44.5q-16 16 -23 19q-4 -6 -6 -12l6 -498q0 -156 50.5 -190.5t44.5 -59.5q-4 -4 -20.5 -3t-29.5 1q-25 0 -93 3t-113 5l-203 -8q-53 0 -53 2zM1147 4q-4 16 45 60.5t49 189.5q4 113 6 249t2 261t-2 265t-6 257 q0 158 -50.5 192.5t-43.5 59.5q2 4 18 3t35 -1l203 -8q41 0 94 2t112 6q49 0 50 -2q6 -25 -44.5 -58.5t-50.5 -193.5l-6 -510l6 -522q0 -156 50.5 -190.5t44.5 -59.5q-4 -4 -20.5 -3t-29.5 1q-25 0 -93 3t-113 5l-203 -8q-53 0 -53 2z" />
<glyph unicode="&#xfb02;" horiz-adv-x="2238" d="M113 4q-4 25 45 58.5t49 191.5q4 113 6 249t2 261t-2 265t-6 257q0 160 -49 193.5t-45 58.5q2 4 18 3t35 -1q23 0 101.5 -4t101.5 -4h53h43q154 0 227.5 11t116.5 18.5t82 7.5q53 0 94 -16.5t70.5 -60.5t29.5 -101q0 -66 -40.5 -127.5t-112.5 -96t-144 -34.5q-25 0 -48 3 t-43.5 11t-35 17.5t-14.5 21.5q86 51 86 117q0 29 -13 54t-42 44q-14 4 -34.5 8t-29.5 4q-31 0 -44 -3t-21 -11q-10 -66 -15.5 -126.5t-5.5 -90.5v-37q0 -125 73 -179.5t173 -54.5q45 0 93 12.5t84 37t81 90.5q12 -47 15.5 -73t3.5 -65q0 -61 -17.5 -114.5t-78 -118 t-164.5 -64.5q-12 0 -52.5 5.5t-82.5 33t-62.5 46t-40.5 44.5q-16 16 -23 19q-4 -6 -6 -12l6 -498q0 -156 50.5 -190.5t44.5 -59.5q-4 -4 -20.5 -3t-29.5 1q-25 0 -93 3t-113 5l-203 -8q-53 0 -53 2zM1147 4q-4 16 45 60.5t49 189.5q4 113 6 249t2 261t-2 265t-6 257 q0 158 -50.5 192.5t-43.5 59.5q2 4 18 3t35 -1l203 -8q43 0 100 2t123 6h40t9 -2q6 -25 -43 -58.5t-49 -193.5q-4 -113 -6 -249t-2 -261q4 -78 6 -172t2 -178q0 -102 15 -144t45 -70t56.5 -38t57.5 -10q39 0 77 14.5t78 38.5q66 45 101 130t35 173q0 37 -9.5 83t-54.5 56 q-29 4 -51 -20q-16 -23 -16 -59q0 -27 9 -75t9 -54q0 -70 -45 -95.5t-76 -25.5q-41 0 -81 27.5t-53 67.5t-11 60q6 47 37 47q8 0 8 -12q0 -23 17.5 -40t41.5 -17q18 0 28.5 17.5t6.5 35.5l-22 70q-35 84 -49.5 134t-14.5 101q0 66 47 160t111.5 103.5t85.5 9.5 q49 0 97 -17.5t92 -61.5t64.5 -111.5t20.5 -145.5q0 -51 -4 -90t-11 -86t-18.5 -141.5t-11.5 -188.5q0 -156 50 -190.5t46 -59.5q-2 -4 -23.5 -3t-29.5 1q-70 2 -242 6t-274 4q-137 0 -266 -3t-256 -5q-53 0 -53 2z" />
</font>
</defs>
</svg>
