<?xml version="1.0" standalone="no"?>
<!DOCTYPE svg PUBLIC "-//W3C//DTD SVG 1.1//EN" "http://www.w3.org/Graphics/SVG/1.1/DTD/svg11.dtd" >
<svg xmlns="http://www.w3.org/2000/svg">
<metadata></metadata>
<defs>
<font id="checkpointregular" horiz-adv-x="1677" >
<font-face units-per-em="2048" ascent="1638" descent="-410" />
<missing-glyph horiz-adv-x="354" />
<glyph horiz-adv-x="2048" />
<glyph horiz-adv-x="2048" />
<glyph unicode="&#xd;" horiz-adv-x="354" />
<glyph unicode=" "  horiz-adv-x="354" />
<glyph unicode="&#x09;" horiz-adv-x="354" />
<glyph unicode="&#xa0;" horiz-adv-x="354" />
<glyph unicode="!" horiz-adv-x="892" d="M63 1501l13 101q70 -10 171 -15.5t222 -5.5q186 0 265 6.5t122 14.5l14 -103l-139 -18q-29 -113 -41 -361t-12 -614l141 -21l-14 -98q-37 10 -112 14.5t-232 4.5q-205 0 -260.5 -5.5t-77.5 -13.5l-14 98l141 21q0 281 -12.5 523.5t-34.5 451.5zM127 145q0 98 83 157.5 t251 59.5q143 0 230 -67.5t87 -163.5q0 -98 -86 -156.5t-250 -58.5q-152 0 -233.5 65.5t-81.5 163.5z" />
<glyph unicode="&#x22;" horiz-adv-x="675" d="M61 1526q0 70 32 109.5t97 39.5q57 0 90 -46t33 -99q0 -35 -10 -94.5t-20 -120.5l-62 -365h-63l-66 353q-16 90 -23.5 135t-7.5 88zM393 1528q0 68 33 107.5t96 39.5q55 0 99 -53q27 -39 26 -92q0 -39 -12 -102.5t-21 -112.5l-61 -365h-61l-66 353q-6 39 -19.5 114.5 t-13.5 110.5z" />
<glyph unicode="#" horiz-adv-x="1640" d="M63 365l72 204h299l96 267h-297l72 206h297l160 453h246l-160 -453h256l160 453h243l-159 -453h301l-74 -206h-301l-96 -267h301l-72 -204h-301l-162 -453h-244l162 453h-258l-162 -453h-241l161 453h-299zM678 569h256l96 267h-256z" />
<glyph unicode="$" horiz-adv-x="669" d="M63 670q59 -12 89 -13q39 0 53 31q12 23 -45.5 129.5t-57.5 143.5q0 160 164 206l-12 205q14 -2 51 -4t88 -2q76 0 97.5 1t35.5 5q-12 -51 -14 -96t-4 -80h65q4 0 24.5 -95t41.5 -194q-31 2 -59.5 3t-34.5 1q-45 0 -45 -43q0 -14 4 -26.5t24.5 -47t36 -63.5t20.5 -57.5 t5 -52.5q0 -49 -38 -112t-106 -95q-6 -49 -6 -84q0 -45 17 -109q-20 2 -56 3t-71 1h-80t-53 -4q4 18 8 58t4 73v21.5v5.5q-49 6 -72.5 12t-68.5 31z" />
<glyph unicode="%" horiz-adv-x="1802" d="M63 1065q0 166 120 285.5t288 119.5q170 0 291 -118.5t121 -286.5q0 -172 -121 -293t-291 -121q-172 0 -290 120t-118 294zM213 -29l25 101l157 18q82 113 129 182.5t145.5 216t146.5 220t191.5 293t217.5 344.5l-135 20l36 98q100 -14 250 -14q72 0 151.5 4t155.5 10 l-32 -100l-164 -18q-100 -133 -203.5 -284t-169 -250t-200 -311t-162 -255t-95.5 -156l142 -18l-31 -101q-43 6 -109.5 8.5t-74.5 2.5q-74 0 -205 -5.5t-166 -5.5zM319 1069q0 -66 43.5 -111t108.5 -45q63 0 108.5 45.5t45.5 110.5q0 66 -44 108t-110 42q-61 0 -106.5 -43.5 t-45.5 -106.5zM997 387q0 168 120 286t290 118q168 0 288 -118t120 -286q0 -172 -119 -293t-289 -121q-172 0 -291 119t-119 295zM1255 391q0 -66 43 -110.5t109 -44.5q61 0 107.5 46t46.5 109t-45.5 106.5t-108.5 43.5q-66 0 -109 -43.5t-43 -106.5z" />
<glyph unicode="&#x26;" horiz-adv-x="1845" d="M63 485q0 170 58.5 295t195.5 226q-35 43 -50 110.5t-15 132.5q0 84 30.5 170t135 148.5t241.5 77.5q23 0 49.5 2t39.5 2q94 0 215 -33q6 39 10 51.5t10 22.5h104q-14 -41 -21 -99.5t-7 -150.5q0 -145 6 -198.5t16 -84.5l-100 -6q-6 37 -25.5 68.5t-53.5 42t-64 10.5 q-23 0 -45.5 -8.5t-46 -30t-23.5 -66.5q0 -29 10 -52t21 -28q49 0 95 -9t99 -38l-24 -92q47 -68 126.5 -138.5t104.5 -66.5q16 2 41 44t25 57l-107 88l57 84q51 -37 131 -85t177.5 -95.5t182.5 -83t150 -60.5l-45 -90l-157 45l-107 -213q63 -55 119.5 -98t83.5 -64l102 56 q14 -18 29.5 -41t24.5 -41q-137 -74 -245 -162t-157 -145.5t-76 -90.5l-77 64l49 70q-61 78 -156 151q-37 -43 -127 -92t-173 -69.5t-202 -20.5t-234.5 30.5t-212.5 106.5t-142.5 186.5t-45.5 210.5zM547 539q6 -41 28.5 -68t56.5 -43t68 -16q43 0 82 19.5t66 45.5l-240 193 q-29 -23 -47 -59.5t-14 -71.5z" />
<glyph unicode="'" horiz-adv-x="825" d="M63 1364q0 156 101.5 271.5t251.5 115.5q154 0 270.5 -102.5t116.5 -249.5q0 -92 -20.5 -168t-77 -146.5t-151.5 -124t-214 -67.5l-41 70q63 10 94 25.5t78 53.5q-29 -8 -78 -8q-51 0 -96 12.5t-101.5 52.5t-94.5 110.5t-38 154.5z" />
<glyph unicode="(" horiz-adv-x="845" d="M61 838q0 311 133.5 591.5t426.5 493.5l202 -194q-137 -141 -225 -394.5t-88 -543.5q0 -258 73.5 -497t237.5 -441l-188 -164q-236 133 -404 456.5t-168 692.5z" />
<glyph unicode=")" horiz-adv-x="845" d="M63 1729l201 194q291 -211 426 -492.5t135 -592.5q0 -367 -169 -691.5t-404 -457.5l-186 164q160 199 235.5 441.5t75.5 498.5q0 287 -88 541.5t-226 394.5z" />
<glyph unicode="*" horiz-adv-x="905" d="M63 1294q0 27 19.5 89.5t118.5 62.5q18 0 61 -11.5t69.5 -58.5t48 -70.5t60.5 -50.5q-10 39 -22 69t-38 55.5t-41 47t-15 60.5q0 63 43 104t106 41t105.5 -35.5t42.5 -95.5q0 -33 -13.5 -64.5t-39 -60t-38 -54.5t-26.5 -67q43 27 65.5 49.5t35.5 49t36 50t50.5 34 t49.5 10.5q45 0 82 -28.5t48.5 -64.5t11.5 -67q0 -92 -55.5 -113.5t-82.5 -21.5q-43 0 -82.5 18.5t-66.5 21.5t-72 3q31 -25 59.5 -42.5t63.5 -23.5q37 -6 63.5 -17t51 -44t24.5 -76q0 -74 -54 -113.5t-103 -39.5q-61 0 -105 51q-33 45 -32 104q0 16 2 25v29q0 31 -5.5 56 t-15.5 52q-25 -59 -24 -115v-22q4 -29 4 -43q0 -43 -30 -91t-106 -48q-51 0 -103 38.5t-52 108.5q0 41 29.5 86t89 57.5t87 27.5t54.5 38q-10 2 -35 2q-57 0 -101 -22.5t-93 -22.5q-10 0 -43 8t-60 47t-27 88z" />
<glyph unicode="+" horiz-adv-x="1431" d="M63 481v353h506v505h359v-505h504v-353h-504v-499h-359v499h-506z" />
<glyph unicode="," horiz-adv-x="825" d="M63 287q0 158 101.5 273.5t251.5 115.5q154 0 270.5 -102.5t116.5 -249.5q0 -90 -21.5 -167t-76 -147.5t-150.5 -124t-215 -67.5l-41 71q63 8 93 22.5t79 53.5q-29 -8 -78 -8q-53 0 -97 12.5t-100.5 54.5t-94.5 111.5t-38 151.5z" />
<glyph unicode="-" horiz-adv-x="720" d="M63 1024h521l-4 33h63l51 -455h-520l4 -31h-65z" />
<glyph unicode="." horiz-adv-x="796" d="M63 332q0 145 108 244.5t257 99.5q145 0 243.5 -108.5t98.5 -258.5q0 -145 -107.5 -244.5t-254.5 -99.5q-145 0 -245 107.5t-100 259.5z" />
<glyph unicode="/" horiz-adv-x="1513" d="M63 -152l35 101l158 20q76 133 160 302t196.5 400.5t223 459t147.5 306.5t78 177l-141 20l61 103q139 -27 258 -27q109 0 279 27l-37 -105l-158 -18q-53 -92 -104.5 -192.5t-136.5 -275.5t-151.5 -313.5t-160.5 -330t-153.5 -318.5t-96.5 -215l139 -20l-63 -101 q-121 14 -248 15q-135 0 -285 -15z" />
<glyph unicode="0" d="M53 786q0 340 239.5 580t579.5 240t580 -238t240 -582q0 -338 -240 -577.5t-580 -239.5t-579.5 237.5t-239.5 579.5zM567 797q0 -129 88 -217t217 -88t217.5 88t88.5 217q0 127 -89.5 216t-216.5 89q-129 0 -217 -88t-88 -217z" />
<glyph unicode="1" horiz-adv-x="1685" d="M469 1280v113q16 0 145 26.5t284 73.5t263 113q-33 -166 -50 -460t-17 -571q0 -314 16 -466l154 -35l-23 -92q-98 16 -174 24t-174 8q-166 0 -395 -32l-25 92l156 35v192v145v113v92v76v66v55v49v45v43v37v31v30v25v25q0 35 -1 71.5t-1 75.5v23z" />
<glyph unicode="2" horiz-adv-x="1685" d="M94 1237l51 86l101 -33q137 176 287.5 246t338.5 70q135 0 255 -55.5t181.5 -173t61.5 -242.5q0 -121 -42 -249t-109 -265l-105 -203h195l30 119l101 -19q-2 -23 -5 -101.5t-3 -234.5q0 -152 2 -218t6 -103l-99 -11l-22 132q-61 8 -183 12t-315 4q-287 0 -371.5 -5 t-119.5 -13l413 686q49 84 84 172t35 168q0 45 -14 78.5t-47 54t-78 20.5q-43 0 -85 -24.5t-71 -73.5l60 -103l-66 -73q-125 145 -223 217t-244 135z" />
<glyph unicode="3" horiz-adv-x="1685" d="M248 84q145 154 211.5 257t122.5 267l92 -28l-43 -134q18 -35 65 -59.5t103 -24.5q66 0 118 38t66 89.5t14 71.5q0 86 -70.5 144.5t-176.5 58.5q-68 0 -136 -27q39 78 83 185.5t65 244.5q-63 0 -133 -1t-142 -11l-18 -86q-29 6 -55.5 11t-36.5 12q10 53 20.5 130.5 t10.5 178.5q0 131 -23 256l94 31l27 -91q55 -8 141 -11t285 -3q242 0 326.5 4t134.5 10q-72 -139 -148 -301.5t-100 -279.5q121 -35 220 -157t99 -288q0 -180 -72.5 -325.5t-225 -219t-330.5 -73.5q-121 0 -235 31.5t-195 91.5l-93 -72z" />
<glyph unicode="4" horiz-adv-x="1685" d="M121 639q127 119 337 313.5t491.5 466t408.5 418.5q-18 -186 -32.5 -432t-21 -384t-8.5 -224h117l29 141l110 -10q-14 -66 -25 -147t-11 -156q0 -72 9 -140.5t29 -144.5l-94 -33l-51 109h-113q0 -102 5.5 -177t11.5 -130l157 -35l-26 -92q-98 16 -174 24t-172 8 q-164 0 -396 -32l-24 92l143 32q8 57 17.5 141.5t9.5 168.5h-590zM702 797h150v147z" />
<glyph unicode="5" horiz-adv-x="1685" d="M295 -63q51 166 67.5 314t16.5 269v30v11h96q0 -131 61.5 -161.5t94.5 -39t67 -8.5q37 0 69 9.5t82 47t50 140.5v22q0 74 -70.5 137.5t-218.5 63.5q-53 0 -102 -6t-117 -25q47 193 87 397.5t54.5 302t24.5 161.5h696l31 100l107 -29q-12 -61 -19.5 -118.5t-7.5 -116.5 q0 -68 13.5 -141.5t43.5 -166.5l-100 -38l-55 104h-332l-19 -104q168 -39 284 -120t156 -205t40 -224q0 -117 -35 -223.5t-119 -199.5t-208 -135t-259 -42q-98 0 -168.5 13t-109.5 24.5t-70 23.5l-47 -94z" />
<glyph unicode="6" horiz-adv-x="1685" d="M229 717q0 250 77 436t214 310t279.5 148.5t216.5 24.5q174 0 336 -55l41 51l80 -43q-55 -100 -110.5 -225t-72.5 -252l-114 12l4 86q-18 6 -53 12.5t-80 6.5q-72 0 -127.5 -18.5t-97.5 -59.5t-61.5 -95.5t-19.5 -111.5q80 63 244 64q113 0 215.5 -36t172 -108.5 t104 -167t34.5 -190.5q0 -39 -6 -83t-31.5 -148.5t-148.5 -208t-233.5 -118t-167.5 -14.5q-66 0 -193 27t-239.5 116t-167 192.5t-75 217t-20.5 230.5zM729 471q0 -57 36 -101.5t93 -52.5q8 -2 25 -2q57 0 103 38t54 96q8 66 -29.5 115.5t-101.5 60.5q-66 8 -118 -29 t-57 -73t-5 -52z" />
<glyph unicode="7" horiz-adv-x="1685" d="M186 254l33 100l115 -43q4 0 93 145.5t178 312.5t151 333h-373l-61 -117l-74 47q86 268 86 508q0 66 -6 137l98 25l37 -113q18 -2 107 -7t360 -5q268 0 350 2t164 10l59 -69q-172 -260 -327.5 -597t-232.5 -543t-122 -331l90 -90l-86 -86q-102 111 -246.5 197t-263 135 t-129.5 49z" />
<glyph unicode="8" horiz-adv-x="1685" d="M252 453q0 141 60.5 270t191.5 174q-74 39 -125 125t-51 223q0 236 157.5 336t378.5 100q248 0 405.5 -105.5t157.5 -326.5q0 -129 -55 -219t-145 -135q131 -39 204.5 -150.5t73.5 -252.5q0 -143 -74.5 -268.5t-173 -176.5t-190.5 -71.5t-199 -20.5q-98 0 -186 19.5 t-187.5 69.5t-171 164t-71.5 245zM735 524q0 -59 36 -105t93 -46q59 0 106.5 36.5t47.5 94.5q0 61 -37 105t-94 44q-63 0 -107.5 -35.5t-44.5 -93.5zM754 1194q-4 -53 27.5 -93t82.5 -40t92 30.5t41 79.5q0 53 -31.5 93.5t-78.5 40.5q-55 0 -94 -30t-39 -81z" />
<glyph unicode="9" horiz-adv-x="1685" d="M219 1077q0 78 31 205t153.5 230.5t230 116.5t123 14.5t54.5 1.5q66 0 189.5 -26t236.5 -116t166 -193.5t74.5 -219t21.5 -232.5q0 -246 -76.5 -435.5t-215 -316t-269.5 -142t-176 -15.5q-84 0 -161 16.5t-128 26.5l-33 -64l-84 49q45 90 92.5 215t67.5 308l113 -13 l-15 -110q43 -6 84 -6q113 0 188 58t101 204q-80 -59 -237 -60q-115 0 -218.5 36t-175 110t-104.5 165t-33 193zM688 1106q0 -57 37 -100t70.5 -48.5t50.5 -5.5q57 0 101 38t52 95q8 66 -27.5 122.5t-90.5 56.5q-78 0 -130.5 -35t-57.5 -71t-5 -52z" />
<glyph unicode=":" horiz-adv-x="796" d="M63 332q0 145 108 244.5t257 99.5q145 0 243.5 -108.5t98.5 -258.5q0 -145 -107.5 -244.5t-254.5 -99.5q-145 0 -245 107.5t-100 259.5zM63 1126q0 145 108 244.5t257 99.5q145 0 243.5 -108.5t98.5 -257.5q0 -145 -106.5 -244.5t-255.5 -99.5q-145 0 -245 107t-100 259z " />
<glyph unicode=";" horiz-adv-x="825" d="M63 291q0 158 101.5 273.5t251.5 115.5q154 0 270.5 -102.5t116.5 -249.5q0 -90 -21.5 -167t-76 -147.5t-150.5 -124t-215 -67.5l-41 72q61 10 95 26.5t77 50.5q-12 -4 -34.5 -7t-45.5 -3q-51 0 -95 12.5t-100.5 54.5t-94.5 111.5t-38 151.5zM63 1104q0 147 99.5 256.5 t245.5 109.5q147 0 254.5 -99t107.5 -245q0 -150 -98.5 -258t-243.5 -108q-150 0 -257.5 99t-107.5 245z" />
<glyph unicode="&#x3c;" horiz-adv-x="1095" d="M63 545v250l1022 379v-273l-657 -231l657 -236v-272z" />
<glyph unicode="=" horiz-adv-x="1691" d="M63 193v352h1637v-352h-1637zM63 774v352h1637v-352h-1637z" />
<glyph unicode="&#x3e;" horiz-adv-x="1095" d="M63 162v272l656 236l-656 231v273l1022 -379v-250z" />
<glyph unicode="?" horiz-adv-x="1337" d="M63 1303l48 88l102 -33q139 176 288.5 245.5t338.5 69.5q133 0 252.5 -55t179 -169t59.5 -245q0 -115 -40 -218t-114.5 -163.5t-111.5 -119t-37 -128.5q0 -35 8 -65l154 -35l-25 -90q-182 29 -352 29q-88 0 -170 -6.5t-178 -22.5l-25 90l156 35q-6 35 -6 72 q0 84 25.5 162t78.5 139q43 53 86 107t43 110q0 20 -11 53t-45 53.5t-77 20.5q-45 0 -86 -23.5t-69 -77.5l57 -100l-66 -76q-127 147 -224 219t-239 134zM481 145q0 96 85 156.5t251 60.5q145 0 230.5 -66.5t85.5 -164.5q0 -96 -85 -155.5t-249 -59.5q-152 0 -235 65.5 t-83 163.5z" />
<glyph unicode="@" horiz-adv-x="2027" d="M66 487q0 264 90 493.5t280.5 366t372.5 186.5t369 50q246 0 428 -79t294.5 -230.5t130 -267t17.5 -164.5q0 -160 -61.5 -328t-152.5 -240.5t-173 -103.5t-158 -31q-55 0 -108 19q-66 27 -101 71.5t-49 122.5q-74 -113 -161 -163t-191 -50q-82 0 -164 41t-121 103.5 t-51 117t-12 109.5q0 84 17.5 159.5t71.5 180t175 198t246 93.5q10 2 32 2q63 0 131 -25.5t107 -77.5l39 -67l37 131h293l-142 -496q-29 -100 -40 -148t-11 -85q0 -41 21.5 -63.5t68.5 -22.5q20 0 68.5 11t109 81t92 151.5t48 158.5t16.5 149q0 92 -25.5 182t-108.5 205.5 t-279.5 176t-383.5 60.5q-211 0 -395 -110.5t-278.5 -279.5t-123 -283.5t-28.5 -231.5q0 -111 22.5 -210t99.5 -241.5t249 -241.5t358 -99q223 0 400.5 44t373.5 162l62 -88q-195 -125 -397.5 -189.5t-407.5 -64.5q-266 0 -493.5 114t-365.5 312.5t-138 429.5zM858 432 q0 -47 11.5 -78.5t43 -51t66.5 -19.5q39 0 68 18q94 45 161.5 228.5t73.5 242.5t6 80q0 39 -11 68.5t-34.5 47t-44 22.5t-47.5 5q-12 0 -24.5 -2t-18.5 -2q-100 -41 -175 -252t-75 -307z" />
<glyph unicode="A" horiz-adv-x="1880" d="M41 88l29 80l61 -14q4 0 154.5 247.5t335 595t372.5 777.5q182 -424 370.5 -779.5t327 -581t142.5 -225.5l74 9l16 -82q-14 0 -131 -43t-252 -118t-217 -171l-61 63l57 72q-18 76 -30.5 112t-49.5 99h-537q-43 -90 -59 -186l62 -66l-48 -74q-143 131 -309 190.5 t-307 94.5zM852 528h227l-108 269z" />
<glyph unicode="B" horiz-adv-x="1470" d="M63 84l140 18q0 49 10 318.5t10 447.5q0 190 -10 393t-10 220l-140 20l13 101q51 -10 148.5 -15.5t236.5 -5.5q70 0 107.5 3t145 23.5t212.5 20.5q137 0 238.5 -48t169 -161.5t67.5 -240.5q0 -106 -34 -163t-76 -100t-81 -65q94 -53 166 -149.5t83 -170t11 -118.5 q0 -88 -24.5 -161t-92 -145.5t-170 -112.5t-241.5 -40q-82 0 -205 18.5t-163.5 23.5t-112.5 5q-207 0 -277.5 -5t-107.5 -13zM711 596l4 -213q111 0 163 17.5t52 93.5q0 57 -38 84.5t-104 27.5q-33 0 -77 -10zM711 999q111 0 166 17.5t55 91.5q0 57 -44 89t-108 32 q-33 0 -67 -12z" />
<glyph unicode="C" horiz-adv-x="1554" d="M41 842q0 336 264 560t623 224q119 0 219 -34.5t194 -104.5l52 94l82 -45q-86 -184 -121 -288.5t-64 -276.5h-90l6 102q-35 45 -102.5 80t-109.5 39t-66 4q-145 0 -256 -100.5t-118 -180t-7 -104.5q0 -150 101.5 -265.5t246.5 -115.5q111 0 181.5 32t107.5 64l-31 107 l84 55q68 -182 135.5 -283.5t220.5 -259.5l-67 -63l-96 80q-72 -68 -234 -137.5t-369 -69.5q-336 0 -561 265t-225 622z" />
<glyph unicode="D" horiz-adv-x="1685" d="M63 84l140 18q0 49 10 318.5t10 447.5q0 190 -10 393t-10 220l-140 20l13 101q51 -10 149.5 -15.5t235.5 -5.5q61 0 171.5 8t178.5 8q20 0 45 2.5t37 2.5q334 0 568.5 -211t234.5 -529q0 -350 -223.5 -614t-548.5 -264q-84 0 -248 8t-215 8q-207 0 -277.5 -5t-107.5 -13z M713 504q188 0 293.5 81t105.5 242q0 166 -109.5 240t-289.5 74v-259v-221.5v-156.5z" />
<glyph unicode="E" horiz-adv-x="1263" d="M63 84l140 18q0 49 10 318.5t10 447.5q0 190 -10 393t-10 220l-140 20l13 101q51 -10 148.5 -15.5t236.5 -5.5q162 0 396.5 10.5t277.5 10.5l10 104l98 4q-2 -57 -3 -138t-1 -140q0 -172 15.5 -228.5t25.5 -77.5l-90 -26l-41 92q-76 10 -188 10q-70 0 -123 -4t-125 -18 l-2 -176h209l8 100h82q0 -10 -2 -47t-2 -74q0 -106 10 -195.5t43 -183.5l-84 -31l-21 56h-243l2 -183q164 0 226 7.5t165 29.5l20 142l101 -15q-10 -59 -19.5 -146t-9.5 -231q0 -182 10.5 -257.5t18.5 -106.5l-101 -14l-18 127q-102 12 -299 15t-287 3h-59q-207 0 -277.5 -5 t-107.5 -13z" />
<glyph unicode="F" horiz-adv-x="1269" d="M63 84l140 18q0 49 10 318.5t10 447.5q0 190 -10 393t-10 220l-140 20l13 101q51 -10 148.5 -15.5t236.5 -5.5q98 0 385.5 10.5t320.5 10.5l4 92l93 6q-8 -100 -9 -197q0 -100 10.5 -177t37.5 -220l-84 -21l-25 89q-70 12 -147.5 17t-169.5 5q-57 0 -96.5 -1t-67.5 -3 l-2 -221h225l18 73l86 -18q-8 -61 -12 -111.5t-4 -103.5q0 -139 51 -334l-92 -22l-33 104h-237q0 -14 9 -185t9 -272l139 -18l-14 -102q-61 10 -149.5 14t-245.5 4q-207 0 -277.5 -5t-107.5 -13z" />
<glyph unicode="G" horiz-adv-x="1554" d="M63 793v53q4 23 20.5 187.5t256.5 379.5t559 215h53q23 -4 75 -9t139 -35t132 -54l45 98l87 -39q-53 -115 -73 -226.5t-20 -217.5q0 -47 2 -76t7 -47h-99l-12 100q-39 20 -78 43q-49 20 -84 24.5t-50 5.5t-26 1q-164 0 -285.5 -103.5t-136 -200.5t-14.5 -130 q0 -88 33 -168t75 -114t85 -47t80 -13q39 0 71.5 9t44.5 20q2 27 3 46t1 33q0 90 -20 166l-84 15l12 96q63 -14 150.5 -27.5t206.5 -13.5q111 0 186.5 16.5t130.5 32.5l25 -94l-109 -25q-14 -68 -21.5 -153.5t-7.5 -173.5q0 -78 2 -131.5t7 -90.5q-104 -86 -242.5 -139 t-292.5 -53h-49q-23 4 -188.5 20.5t-381 258t-215.5 561.5z" />
<glyph unicode="H" horiz-adv-x="1775" d="M63 84l140 18q0 49 10 318.5t10 447.5q0 190 -10 393t-10 220l-140 20l13 101q51 -10 148.5 -15.5t236.5 -5.5q170 0 254 4t141 17l14 -103l-139 -18q0 -72 -10 -218.5t-10 -232.5h430q0 133 -9.5 286.5t-9.5 164.5l-141 20l14 101q51 -10 148.5 -15.5t236.5 -5.5 q170 0 254 4t142 17l12 -103l-139 -18q0 -55 -10.5 -258t-10.5 -355q0 -229 6 -404t15 -362l139 -18l-12 -102q-61 10 -149.5 14t-246.5 4q-207 0 -277.5 -5t-107.5 -13l-14 102l141 18q0 57 8.5 223.5t8.5 249.5h-426q0 -131 5 -235t13 -238l139 -18l-14 -102 q-61 10 -149.5 14t-245.5 4q-207 0 -277.5 -5t-107.5 -13z" />
<glyph unicode="I" horiz-adv-x="892" d="M63 84l140 18q0 49 10 318.5t10 447.5q0 190 -10 393t-10 220l-140 20l13 101q51 -10 148.5 -15.5t236.5 -5.5q170 0 254 4.5t141 16.5l14 -103l-139 -18q0 -55 -10 -258t-10 -355q0 -229 6 -404t14 -362l139 -18l-14 -102q-61 10 -149.5 14t-245.5 4q-207 0 -277.5 -5 t-107.5 -13z" />
<glyph unicode="J" horiz-adv-x="1052" d="M39 -100q20 90 30.5 172t10.5 157q0 121 -29 334l94 27q10 -53 25.5 -86t40.5 -44t49 -11q41 0 71.5 22.5t45 94t14.5 302.5q0 186 -10 390t-10 223l-140 20l13 101q51 -10 148 -15.5t237 -5.5q168 0 252 4t143 17l14 -103l-141 -18q0 -96 -10 -308t-10 -305v-98t2 -96 q0 -350 -71 -486.5t-212 -195.5q-90 -39 -217 -39q-113 0 -223 29l-31 -105z" />
<glyph unicode="K" horiz-adv-x="1699" d="M63 84l140 18q0 49 10 318.5t10 447.5q0 190 -10 393t-10 220l-140 20l13 101q51 -10 148.5 -15.5t236.5 -5.5q170 0 254 4t141 17l14 -103l-139 -18q-6 -66 -12 -167.5t-6 -183.5v-43v-18q4 0 89 78t186.5 194.5t176.5 247.5l-59 78l76 72q109 -160 265.5 -286 t317.5 -198l-49 -94l-121 60q-133 -109 -198.5 -174.5t-179.5 -192.5q102 -156 196 -273.5t199 -224.5l88 35l33 -86q-12 0 -119 -46t-235 -129t-242 -214l-62 59l58 72q-90 172 -188.5 323.5t-164 238.5t-69.5 87q0 -131 2 -277.5t18 -316.5l139 -18l-14 -102 q-61 10 -149.5 14t-245.5 4q-207 0 -277.5 -5t-107.5 -13z" />
<glyph unicode="L" horiz-adv-x="1210" d="M63 84l140 18q0 49 10 318.5t10 447.5q0 190 -10 393t-10 220l-140 20l13 101q51 -10 148.5 -15.5t236.5 -5.5q170 0 254 4t141 17l14 -103l-139 -18q0 -68 -10 -275t-10 -338l2 -366q10 0 24.5 -1t38.5 -1q72 0 156 10t164 37l34 137l105 -14q-27 -127 -39 -217.5 t-12 -206.5q0 -156 33 -355h-99l-31 89q-94 0 -316 10t-310 10q-207 0 -277.5 -5t-107.5 -13z" />
<glyph unicode="M" horiz-adv-x="2318" d="M25 180l18 68l78 -4q162 291 266.5 504t169 381.5t207.5 584.5q49 -104 155.5 -288.5t205 -344t100.5 -159.5q47 76 128 208t190.5 315t160.5 275q119 -422 198.5 -665.5t161.5 -443t181 -410.5l127 8l8 -84q-39 0 -138.5 -14.5t-259 -63.5t-319.5 -141l-39 69l82 50 q-27 92 -62.5 202.5t-93.5 231.5q-92 -111 -172 -220.5t-125 -174t-71 -105.5q-23 41 -57.5 105.5t-108.5 188.5t-152 245q-68 -129 -108.5 -224.5t-73.5 -230.5l76 -66l-56 -65q-37 29 -107.5 68.5t-219 99t-224 77t-126.5 23.5z" />
<glyph unicode="N" horiz-adv-x="1916" d="M63 84l140 18q0 49 10 318.5t10 447.5q0 229 -3 449.5t-5 349.5q74 -63 218.5 -183t367.5 -286t485 -328v72q0 195 -3 293t-17 246l-140 20l13 101q61 -8 159.5 -12.5t237.5 -4.5q176 0 250 3t135 14l14 -101l-143 -20q0 -27 -9 -287t-9 -477q0 -203 5 -515.5t5 -332.5 q-240 182 -447 324.5t-376.5 252t-249.5 162.5q2 -109 4 -235.5t16 -270.5l139 -18l-14 -102q-61 10 -149.5 14t-245.5 4q-207 0 -277.5 -5t-107.5 -13z" />
<glyph unicode="O" d="M59 762q0 340 235.5 579.5t575.5 239.5q338 0 578 -237.5t240 -577.5q0 -336 -238 -573.5t-576 -237.5q-340 0 -577.5 235.5t-237.5 571.5zM573 762q0 -119 86 -205t209 -86q121 0 207 84t86 207t-85 210t-208 87t-209 -86t-86 -211z" />
<glyph unicode="P" horiz-adv-x="1515" d="M63 84l140 18q0 49 10 318.5t10 447.5q0 190 -10 393t-10 220l-140 20l13 101q51 -10 149.5 -15.5t235.5 -5.5q53 0 179 8t187 13h41q166 0 328 -48.5t223.5 -158t80 -192.5t18.5 -161q0 -158 -75 -302t-240 -213.5t-367 -69.5h-123q2 -55 4 -130t14 -225l139 -18 l-14 -102q-61 10 -149.5 14t-245.5 4q-207 0 -277.5 -5t-107.5 -13zM711 907h41q109 0 181.5 25.5t72.5 109.5q0 80 -52.5 102.5t-177.5 22.5h-63z" />
<glyph unicode="Q" d="M59 762q0 340 235.5 579.5t575.5 239.5q338 0 578 -237.5t240 -577.5q0 -131 -38 -247t-112 -220l80 -109l92 33l31 -92q-137 -45 -248 -123t-225 -211l-70 56l47 63l-61 100q-150 -61 -310 -61q-340 0 -577.5 235.5t-237.5 571.5zM573 762q0 -119 86 -205t209 -86 q121 0 207 84t86 207t-85 210t-208 87t-209 -86t-86 -211z" />
<glyph unicode="R" horiz-adv-x="1591" d="M63 84l140 18q0 49 10 318.5t10 447.5q0 190 -10 393t-10 220l-140 20l13 101q51 -10 148.5 -15.5t236.5 -5.5q92 0 223 10.5t172 10.5q289 0 405.5 -52.5t185.5 -144.5t91.5 -177t22.5 -175q0 -59 -16.5 -142.5t-86 -166t-158.5 -123.5q72 -84 130.5 -137.5 t136.5 -108.5l69 35l41 -82q-131 -66 -256 -190t-247 -298l-84 62l57 102q-57 104 -158.5 234.5t-187.5 227.5t-90 97q8 -92 14 -209t6 -252l139 -18l-14 -102q-61 10 -149.5 14t-245.5 4q-207 0 -277.5 -5t-107.5 -13zM711 827h30q90 0 159 33t69 139q0 104 -66.5 127 t-189.5 23z" />
<glyph unicode="S" horiz-adv-x="1417" d="M63 608l91 31l49 -156q23 -10 59 -10q33 0 58.5 8t50 29.5t33 85t8.5 147.5v39q0 211 20.5 363.5t102 266.5t216 165t293.5 51q129 0 238 -31l14 113l101 -10q-10 -74 -14.5 -156t-4.5 -151q0 -154 12.5 -253.5t24.5 -168.5l-102 -13l-25 142q-55 30 -138 30h-5 q-68 0 -121 -36.5t-66.5 -101t-13.5 -212.5v-69v-76q0 -170 -28.5 -286t-130 -213t-231.5 -125.5t-298 -28.5h-74l-8 -103h-90q12 78 18.5 166t6.5 152q0 121 -10.5 210t-35.5 201z" />
<glyph unicode="T" horiz-adv-x="1294" d="M45 1026q14 111 19.5 227.5t5.5 444.5h82l10 -94q168 -8 327.5 -15t227.5 -8q117 0 240.5 6t236.5 17l10 94h82q0 -170 2 -342t23 -330h-86l-19 90q-51 6 -125 9.5t-131 7.5l-2 -265q0 -231 6.5 -405t14.5 -361l139 -18l-12 -102q-61 10 -149.5 14t-246.5 4 q-207 0 -277.5 -5t-109.5 -13l-12 102l139 18q0 47 10.5 316.5t10.5 449.5v269q-74 -2 -161 -6.5t-150 -14.5l-19 -90h-86z" />
<glyph unicode="U" horiz-adv-x="1835" d="M63 1501l13 101q51 -10 148.5 -15.5t236.5 -5.5q170 0 254 4t141 17l14 -101l-139 -20q-12 -86 -16 -184.5t-4 -194.5v-189q0 -340 89 -383t111.5 -49t49.5 -6q43 0 103 26.5t99 124t39 287.5v144q0 156 -3 231.5t-17 192.5l-140 20l13 101q51 -10 148 -15.5t237 -5.5 q170 0 254 4t141 17l14 -101l-139 -20q0 -129 16.5 -374t16.5 -257q0 -260 -98.5 -477t-188.5 -269.5t-109.5 -62.5t-39.5 -18q-90 -35 -183.5 -52.5t-183.5 -17.5q-240 0 -416 110.5t-265 318.5t-89 468q0 76 16.5 295t16.5 336z" />
<glyph unicode="V" horiz-adv-x="2050" d="M37 1403q436 76 782 274l45 -86l-100 -65q16 -53 76.5 -186.5t133.5 -288t111 -234.5l306 735l-80 50l55 92q45 -31 123 -79t248 -129t348 -132l-31 -97l-110 41q-55 -88 -150.5 -240.5t-307.5 -506.5t-411 -707q-240 432 -424 737.5t-328.5 525.5t-146.5 220l-125 -22z " />
<glyph unicode="W" horiz-adv-x="2269" d="M27 1419q20 0 131.5 24.5t275.5 82t305 141.5l47 -86l-96 -63q10 -88 54 -239t98 -263q102 188 178 341.5t110 228.5t54 120q16 -45 54 -137t95.5 -222t153.5 -327q88 150 138 272.5t81 214.5l-94 88l61 78q113 -100 252 -174t264 -123t135 -49l-24 -86l-84 27 q-57 -88 -146.5 -266.5t-220.5 -480.5t-272 -671q-74 180 -157 346t-162.5 308.5t-81.5 142.5q-35 -57 -100.5 -169.5t-156 -276.5t-169.5 -328q-137 365 -280.5 713t-213.5 503.5t-111 249.5q-25 -4 -58.5 -7t-47.5 -5z" />
<glyph unicode="X" horiz-adv-x="1923" d="M66 70l131 16q4 0 94 93t200.5 244.5t225.5 373.5q-45 43 -132 129t-186.5 176t-187.5 155l-98 -32l-29 86q164 66 305 163t250 191l86 82l59 -66l-71 -79q31 -61 85 -143.5t181 -205.5q45 70 75.5 131.5t41.5 96.5l-99 20l4 101q88 -12 216.5 -25.5t287.5 -13.5 q111 0 185.5 5t173.5 19l12 -98l-152 -19q-82 -104 -172 -228t-152.5 -212t-96.5 -139q49 -59 118.5 -140t202.5 -224.5t203 -200.5l135 28l33 -80q-203 -59 -356.5 -143t-270.5 -172l-86 -74l-59 58l96 106q-104 164 -174 261.5t-101 138.5l-213 -367l150 -12l-10 -88 q-143 16 -251 24t-194 8q-125 0 -253 -13t-201 -21z" />
<glyph unicode="Y" horiz-adv-x="1851" d="M27 1247q6 0 140 80t280.5 183.5t220.5 189.5l65 -66l-82 -94q94 -166 186.5 -282.5t168.5 -200.5q129 162 207.5 278.5t136.5 204.5l-58 92l80 60q88 -141 204 -253t212 -179.5t104 -67.5l-49 -84l-86 45q-170 -178 -312 -356.5t-270 -362.5t-339 -516l65 -90l-72 -61 q-135 129 -281.5 215t-250.5 128t-115 42l39 86l96 -35q4 0 66.5 62.5t161 178t186.5 244.5q-147 160 -268 278.5t-285 256.5l-112 -62z" />
<glyph unicode="Z" horiz-adv-x="1277" d="M23 -18q129 215 259 491.5t191.5 430t99.5 251.5h-387l-28 -102l-95 12q16 76 31 180.5t15 263.5v25v102q-6 47 -9 68l101 12l16 -114h1129q-143 -287 -258 -548t-156 -367.5t-66 -172.5h267l28 125h109q-16 -106 -24.5 -195.5t-8.5 -191.5q0 -174 31 -358l-101 -21 l-30 109h-185.5h-379h-549.5z" />
<glyph unicode="[" horiz-adv-x="600" d="M63 -328v1942h504v-105h-233v-1724h233v-113h-504z" />
<glyph unicode="\" horiz-adv-x="1513" d="M63 1737q61 -10 141.5 -18.5t135.5 -8.5q121 0 256 27l63 -103l-139 -20q43 -102 87 -196.5t130 -270.5t173 -355.5t169 -349.5t129 -262t115 -211l158 -20l37 -101q-156 14 -293 15q-123 0 -244 -15l-61 101l141 20q-53 127 -95 217t-125 257t-199 404.5t-220.5 448.5 t-165.5 318l-158 18z" />
<glyph unicode="]" horiz-adv-x="600" d="M63 -215h232v1724h-232v105h504v-1942h-504v113z" />
<glyph unicode="^" horiz-adv-x="1001" d="M63 1845l9 43l55 -10q86 70 188.5 154t214.5 186q166 -150 259.5 -224.5t132.5 -105.5l51 23l10 -45q-117 -35 -192.5 -76t-131.5 -76l-22 37l37 23l-137 155q-43 -37 -88.5 -79t-55.5 -64l43 -25l-18 -43q-154 90 -355 127z" />
<glyph unicode="_" horiz-adv-x="1193" d="M47 -289h1274v-145h-1274v145z" />
<glyph unicode="`" horiz-adv-x="708" d="M63 2093q121 35 195 75t129 77l23 -39l-37 -23q66 -109 117 -181.5t131 -135.5l49 18l8 -43q-55 -14 -120.5 -49t-123.5 -78l-18 43l43 25q-61 72 -135 135.5t-199 153.5l-51 -23z" />
<glyph unicode="a" horiz-adv-x="1880" d="M41 88l29 80l61 -14q4 0 154.5 247.5t335 595t372.5 777.5q182 -424 370.5 -779.5t327 -581t142.5 -225.5l74 9l16 -82q-14 0 -131 -43t-252 -118t-217 -171l-61 63l57 72q-18 76 -30.5 112t-49.5 99h-537q-43 -90 -59 -186l62 -66l-48 -74q-143 131 -309 190.5 t-307 94.5zM852 528h227l-108 269z" />
<glyph unicode="b" horiz-adv-x="1470" d="M63 84l140 18q0 49 10 318.5t10 447.5q0 190 -10 393t-10 220l-140 20l13 101q51 -10 148.5 -15.5t236.5 -5.5q70 0 107.5 3t145 23.5t212.5 20.5q137 0 238.5 -48t169 -161.5t67.5 -240.5q0 -106 -34 -163t-76 -100t-81 -65q94 -53 166 -149.5t83 -170t11 -118.5 q0 -88 -24.5 -161t-92 -145.5t-170 -112.5t-241.5 -40q-82 0 -205 18.5t-163.5 23.5t-112.5 5q-207 0 -277.5 -5t-107.5 -13zM711 596l4 -213q111 0 163 17.5t52 93.5q0 57 -38 84.5t-104 27.5q-33 0 -77 -10zM711 999q111 0 166 17.5t55 91.5q0 57 -44 89t-108 32 q-33 0 -67 -12z" />
<glyph unicode="c" horiz-adv-x="1554" d="M41 842q0 336 264 560t623 224q119 0 219 -34.5t194 -104.5l52 94l82 -45q-86 -184 -121 -288.5t-64 -276.5h-90l6 102q-35 45 -102.5 80t-109.5 39t-66 4q-145 0 -256 -100.5t-118 -180t-7 -104.5q0 -150 101.5 -265.5t246.5 -115.5q111 0 181.5 32t107.5 64l-31 107 l84 55q68 -182 135.5 -283.5t220.5 -259.5l-67 -63l-96 80q-72 -68 -234 -137.5t-369 -69.5q-336 0 -561 265t-225 622z" />
<glyph unicode="d" horiz-adv-x="1685" d="M63 84l140 18q0 49 10 318.5t10 447.5q0 190 -10 393t-10 220l-140 20l13 101q51 -10 149.5 -15.5t235.5 -5.5q61 0 171.5 8t178.5 8q20 0 45 2.5t37 2.5q334 0 568.5 -211t234.5 -529q0 -350 -223.5 -614t-548.5 -264q-84 0 -248 8t-215 8q-207 0 -277.5 -5t-107.5 -13z M713 504q188 0 293.5 81t105.5 242q0 166 -109.5 240t-289.5 74v-259v-221.5v-156.5z" />
<glyph unicode="e" horiz-adv-x="1263" d="M63 84l140 18q0 49 10 318.5t10 447.5q0 190 -10 393t-10 220l-140 20l13 101q51 -10 148.5 -15.5t236.5 -5.5q162 0 396.5 10.5t277.5 10.5l10 104l98 4q-2 -57 -3 -138t-1 -140q0 -172 15.5 -228.5t25.5 -77.5l-90 -26l-41 92q-76 10 -188 10q-70 0 -123 -4t-125 -18 l-2 -176h209l8 100h82q0 -10 -2 -47t-2 -74q0 -106 10 -195.5t43 -183.5l-84 -31l-21 56h-243l2 -183q164 0 226 7.5t165 29.5l20 142l101 -15q-10 -59 -19.5 -146t-9.5 -231q0 -182 10.5 -257.5t18.5 -106.5l-101 -14l-18 127q-102 12 -299 15t-287 3h-59q-207 0 -277.5 -5 t-107.5 -13z" />
<glyph unicode="f" horiz-adv-x="1269" d="M63 84l140 18q0 49 10 318.5t10 447.5q0 190 -10 393t-10 220l-140 20l13 101q51 -10 148.5 -15.5t236.5 -5.5q98 0 385.5 10.5t320.5 10.5l4 92l93 6q-8 -100 -9 -197q0 -100 10.5 -177t37.5 -220l-84 -21l-25 89q-70 12 -147.5 17t-169.5 5q-57 0 -96.5 -1t-67.5 -3 l-2 -221h225l18 73l86 -18q-8 -61 -12 -111.5t-4 -103.5q0 -139 51 -334l-92 -22l-33 104h-237q0 -14 9 -185t9 -272l139 -18l-14 -102q-61 10 -149.5 14t-245.5 4q-207 0 -277.5 -5t-107.5 -13z" />
<glyph unicode="g" horiz-adv-x="1554" d="M63 793v53q4 23 20.5 187.5t256.5 379.5t559 215h53q23 -4 75 -9t139 -35t132 -54l45 98l87 -39q-53 -115 -73 -226.5t-20 -217.5q0 -47 2 -76t7 -47h-99l-12 100q-39 20 -78 43q-49 20 -84 24.5t-50 5.5t-26 1q-164 0 -285.5 -103.5t-136 -200.5t-14.5 -130 q0 -88 33 -168t75 -114t85 -47t80 -13q39 0 71.5 9t44.5 20q2 27 3 46t1 33q0 90 -20 166l-84 15l12 96q63 -14 150.5 -27.5t206.5 -13.5q111 0 186.5 16.5t130.5 32.5l25 -94l-109 -25q-14 -68 -21.5 -153.5t-7.5 -173.5q0 -78 2 -131.5t7 -90.5q-104 -86 -242.5 -139 t-292.5 -53h-49q-23 4 -188.5 20.5t-381 258t-215.5 561.5z" />
<glyph unicode="h" horiz-adv-x="1775" d="M63 84l140 18q0 49 10 318.5t10 447.5q0 190 -10 393t-10 220l-140 20l13 101q51 -10 148.5 -15.5t236.5 -5.5q170 0 254 4t141 17l14 -103l-139 -18q0 -72 -10 -218.5t-10 -232.5h430q0 133 -9.5 286.5t-9.5 164.5l-141 20l14 101q51 -10 148.5 -15.5t236.5 -5.5 q170 0 254 4t142 17l12 -103l-139 -18q0 -55 -10.5 -258t-10.5 -355q0 -229 6 -404t15 -362l139 -18l-12 -102q-61 10 -149.5 14t-246.5 4q-207 0 -277.5 -5t-107.5 -13l-14 102l141 18q0 57 8.5 223.5t8.5 249.5h-426q0 -131 5 -235t13 -238l139 -18l-14 -102 q-61 10 -149.5 14t-245.5 4q-207 0 -277.5 -5t-107.5 -13z" />
<glyph unicode="i" horiz-adv-x="892" d="M63 84l140 18q0 49 10 318.5t10 447.5q0 190 -10 393t-10 220l-140 20l13 101q51 -10 148.5 -15.5t236.5 -5.5q170 0 254 4.5t141 16.5l14 -103l-139 -18q0 -55 -10 -258t-10 -355q0 -229 6 -404t14 -362l139 -18l-14 -102q-61 10 -149.5 14t-245.5 4q-207 0 -277.5 -5 t-107.5 -13z" />
<glyph unicode="j" horiz-adv-x="1052" d="M39 -100q20 90 30.5 172t10.5 157q0 121 -29 334l94 27q10 -53 25.5 -86t40.5 -44t49 -11q41 0 71.5 22.5t45 94t14.5 302.5q0 186 -10 390t-10 223l-140 20l13 101q51 -10 148 -15.5t237 -5.5q168 0 252 4t143 17l14 -103l-141 -18q0 -96 -10 -308t-10 -305v-98t2 -96 q0 -350 -71 -486.5t-212 -195.5q-90 -39 -217 -39q-113 0 -223 29l-31 -105z" />
<glyph unicode="k" horiz-adv-x="1699" d="M63 84l140 18q0 49 10 318.5t10 447.5q0 190 -10 393t-10 220l-140 20l13 101q51 -10 148.5 -15.5t236.5 -5.5q170 0 254 4t141 17l14 -103l-139 -18q-6 -66 -12 -167.5t-6 -183.5v-43v-18q4 0 89 78t186.5 194.5t176.5 247.5l-59 78l76 72q109 -160 265.5 -286 t317.5 -198l-49 -94l-121 60q-133 -109 -198.5 -174.5t-179.5 -192.5q102 -156 196 -273.5t199 -224.5l88 35l33 -86q-12 0 -119 -46t-235 -129t-242 -214l-62 59l58 72q-90 172 -188.5 323.5t-164 238.5t-69.5 87q0 -131 2 -277.5t18 -316.5l139 -18l-14 -102 q-61 10 -149.5 14t-245.5 4q-207 0 -277.5 -5t-107.5 -13z" />
<glyph unicode="l" horiz-adv-x="1210" d="M63 84l140 18q0 49 10 318.5t10 447.5q0 190 -10 393t-10 220l-140 20l13 101q51 -10 148.5 -15.5t236.5 -5.5q170 0 254 4t141 17l14 -103l-139 -18q0 -68 -10 -275t-10 -338l2 -366q10 0 24.5 -1t38.5 -1q72 0 156 10t164 37l34 137l105 -14q-27 -127 -39 -217.5 t-12 -206.5q0 -156 33 -355h-99l-31 89q-94 0 -316 10t-310 10q-207 0 -277.5 -5t-107.5 -13z" />
<glyph unicode="m" horiz-adv-x="2318" d="M25 180l18 68l78 -4q162 291 266.5 504t169 381.5t207.5 584.5q49 -104 155.5 -288.5t205 -344t100.5 -159.5q47 76 128 208t190.5 315t160.5 275q119 -422 198.5 -665.5t161.5 -443t181 -410.5l127 8l8 -84q-39 0 -138.5 -14.5t-259 -63.5t-319.5 -141l-39 69l82 50 q-27 92 -62.5 202.5t-93.5 231.5q-92 -111 -172 -220.5t-125 -174t-71 -105.5q-23 41 -57.5 105.5t-108.5 188.5t-152 245q-68 -129 -108.5 -224.5t-73.5 -230.5l76 -66l-56 -65q-37 29 -107.5 68.5t-219 99t-224 77t-126.5 23.5z" />
<glyph unicode="n" horiz-adv-x="1916" d="M63 84l140 18q0 49 10 318.5t10 447.5q0 229 -3 449.5t-5 349.5q74 -63 218.5 -183t367.5 -286t485 -328v72q0 195 -3 293t-17 246l-140 20l13 101q61 -8 159.5 -12.5t237.5 -4.5q176 0 250 3t135 14l14 -101l-143 -20q0 -27 -9 -287t-9 -477q0 -203 5 -515.5t5 -332.5 q-240 182 -447 324.5t-376.5 252t-249.5 162.5q2 -109 4 -235.5t16 -270.5l139 -18l-14 -102q-61 10 -149.5 14t-245.5 4q-207 0 -277.5 -5t-107.5 -13z" />
<glyph unicode="o" d="M59 762q0 340 235.5 579.5t575.5 239.5q338 0 578 -237.5t240 -577.5q0 -336 -238 -573.5t-576 -237.5q-340 0 -577.5 235.5t-237.5 571.5zM573 762q0 -119 86 -205t209 -86q121 0 207 84t86 207t-85 210t-208 87t-209 -86t-86 -211z" />
<glyph unicode="p" horiz-adv-x="1515" d="M63 84l140 18q0 49 10 318.5t10 447.5q0 190 -10 393t-10 220l-140 20l13 101q51 -10 149.5 -15.5t235.5 -5.5q53 0 179 8t187 13h41q166 0 328 -48.5t223.5 -158t80 -192.5t18.5 -161q0 -158 -75 -302t-240 -213.5t-367 -69.5h-123q2 -55 4 -130t14 -225l139 -18 l-14 -102q-61 10 -149.5 14t-245.5 4q-207 0 -277.5 -5t-107.5 -13zM711 907h41q109 0 181.5 25.5t72.5 109.5q0 80 -52.5 102.5t-177.5 22.5h-63z" />
<glyph unicode="q" d="M59 762q0 340 235.5 579.5t575.5 239.5q338 0 578 -237.5t240 -577.5q0 -131 -38 -247t-112 -220l80 -109l92 33l31 -92q-137 -45 -248 -123t-225 -211l-70 56l47 63l-61 100q-150 -61 -310 -61q-340 0 -577.5 235.5t-237.5 571.5zM573 762q0 -119 86 -205t209 -86 q121 0 207 84t86 207t-85 210t-208 87t-209 -86t-86 -211z" />
<glyph unicode="r" horiz-adv-x="1591" d="M63 84l140 18q0 49 10 318.5t10 447.5q0 190 -10 393t-10 220l-140 20l13 101q51 -10 148.5 -15.5t236.5 -5.5q92 0 223 10.5t172 10.5q289 0 405.5 -52.5t185.5 -144.5t91.5 -177t22.5 -175q0 -59 -16.5 -142.5t-86 -166t-158.5 -123.5q72 -84 130.5 -137.5 t136.5 -108.5l69 35l41 -82q-131 -66 -256 -190t-247 -298l-84 62l57 102q-57 104 -158.5 234.5t-187.5 227.5t-90 97q8 -92 14 -209t6 -252l139 -18l-14 -102q-61 10 -149.5 14t-245.5 4q-207 0 -277.5 -5t-107.5 -13zM711 827h30q90 0 159 33t69 139q0 104 -66.5 127 t-189.5 23z" />
<glyph unicode="s" horiz-adv-x="1417" d="M63 608l91 31l49 -156q23 -10 59 -10q33 0 58.5 8t50 29.5t33 85t8.5 147.5v39q0 211 20.5 363.5t102 266.5t216 165t293.5 51q129 0 238 -31l14 113l101 -10q-10 -74 -14.5 -156t-4.5 -151q0 -154 12.5 -253.5t24.5 -168.5l-102 -13l-25 142q-55 30 -138 30h-5 q-68 0 -121 -36.5t-66.5 -101t-13.5 -212.5v-69v-76q0 -170 -28.5 -286t-130 -213t-231.5 -125.5t-298 -28.5h-74l-8 -103h-90q12 78 18.5 166t6.5 152q0 121 -10.5 210t-35.5 201z" />
<glyph unicode="t" horiz-adv-x="1294" d="M45 1026q14 111 19.5 227.5t5.5 444.5h82l10 -94q168 -8 327.5 -15t227.5 -8q117 0 240.5 6t236.5 17l10 94h82q0 -170 2 -342t23 -330h-86l-19 90q-51 6 -125 9.5t-131 7.5l-2 -265q0 -231 6.5 -405t14.5 -361l139 -18l-12 -102q-61 10 -149.5 14t-246.5 4 q-207 0 -277.5 -5t-109.5 -13l-12 102l139 18q0 47 10.5 316.5t10.5 449.5v269q-74 -2 -161 -6.5t-150 -14.5l-19 -90h-86z" />
<glyph unicode="u" horiz-adv-x="1835" d="M63 1501l13 101q51 -10 148.5 -15.5t236.5 -5.5q170 0 254 4t141 17l14 -101l-139 -20q-12 -86 -16 -184.5t-4 -194.5v-189q0 -340 89 -383t111.5 -49t49.5 -6q43 0 103 26.5t99 124t39 287.5v144q0 156 -3 231.5t-17 192.5l-140 20l13 101q51 -10 148 -15.5t237 -5.5 q170 0 254 4t141 17l14 -101l-139 -20q0 -129 16.5 -374t16.5 -257q0 -260 -98.5 -477t-188.5 -269.5t-109.5 -62.5t-39.5 -18q-90 -35 -183.5 -52.5t-183.5 -17.5q-240 0 -416 110.5t-265 318.5t-89 468q0 76 16.5 295t16.5 336z" />
<glyph unicode="v" horiz-adv-x="2050" d="M37 1403q436 76 782 274l45 -86l-100 -65q16 -53 76.5 -186.5t133.5 -288t111 -234.5l306 735l-80 50l55 92q45 -31 123 -79t248 -129t348 -132l-31 -97l-110 41q-55 -88 -150.5 -240.5t-307.5 -506.5t-411 -707q-240 432 -424 737.5t-328.5 525.5t-146.5 220l-125 -22z " />
<glyph unicode="w" horiz-adv-x="2269" d="M27 1419q20 0 131.5 24.5t275.5 82t305 141.5l47 -86l-96 -63q10 -88 54 -239t98 -263q102 188 178 341.5t110 228.5t54 120q16 -45 54 -137t95.5 -222t153.5 -327q88 150 138 272.5t81 214.5l-94 88l61 78q113 -100 252 -174t264 -123t135 -49l-24 -86l-84 27 q-57 -88 -146.5 -266.5t-220.5 -480.5t-272 -671q-74 180 -157 346t-162.5 308.5t-81.5 142.5q-35 -57 -100.5 -169.5t-156 -276.5t-169.5 -328q-137 365 -280.5 713t-213.5 503.5t-111 249.5q-25 -4 -58.5 -7t-47.5 -5z" />
<glyph unicode="x" horiz-adv-x="1923" d="M66 70l131 16q4 0 94 93t200.5 244.5t225.5 373.5q-45 43 -132 129t-186.5 176t-187.5 155l-98 -32l-29 86q164 66 305 163t250 191l86 82l59 -66l-71 -79q31 -61 85 -143.5t181 -205.5q45 70 75.5 131.5t41.5 96.5l-99 20l4 101q88 -12 216.5 -25.5t287.5 -13.5 q111 0 185.5 5t173.5 19l12 -98l-152 -19q-82 -104 -172 -228t-152.5 -212t-96.5 -139q49 -59 118.5 -140t202.5 -224.5t203 -200.5l135 28l33 -80q-203 -59 -356.5 -143t-270.5 -172l-86 -74l-59 58l96 106q-104 164 -174 261.5t-101 138.5l-213 -367l150 -12l-10 -88 q-143 16 -251 24t-194 8q-125 0 -253 -13t-201 -21z" />
<glyph unicode="y" horiz-adv-x="1851" d="M27 1247q6 0 140 80t280.5 183.5t220.5 189.5l65 -66l-82 -94q94 -166 186.5 -282.5t168.5 -200.5q129 162 207.5 278.5t136.5 204.5l-58 92l80 60q88 -141 204 -253t212 -179.5t104 -67.5l-49 -84l-86 45q-170 -178 -312 -356.5t-270 -362.5t-339 -516l65 -90l-72 -61 q-135 129 -281.5 215t-250.5 128t-115 42l39 86l96 -35q4 0 66.5 62.5t161 178t186.5 244.5q-147 160 -268 278.5t-285 256.5l-112 -62z" />
<glyph unicode="z" horiz-adv-x="1277" d="M23 -18q129 215 259 491.5t191.5 430t99.5 251.5h-387l-28 -102l-95 12q16 76 31 180.5t15 263.5v25v102q-6 47 -9 68l101 12l16 -114h1129q-143 -287 -258 -548t-156 -367.5t-66 -172.5h267l28 125h109q-16 -106 -24.5 -195.5t-8.5 -191.5q0 -174 31 -358l-101 -21 l-30 109h-185.5h-379h-549.5z" />
<glyph unicode="{" horiz-adv-x="1040" d="M63 553v123q53 10 125 25.5t140.5 65.5t90 126t21.5 174v135q0 145 14.5 214t87 143.5t229.5 112.5t253 38v-106q-111 -12 -198 -57.5t-116.5 -109t-29.5 -157.5v-59v-117q0 -260 -101.5 -349t-373.5 -139q109 -12 193.5 -34.5t160.5 -80t98.5 -151.5t22.5 -203v-108 q0 -199 68.5 -287t275.5 -112v-105q-125 0 -206 15.5t-195.5 74t-150.5 152.5t-36 264v147q0 195 -85 268.5t-288 96.5z" />
<glyph unicode="|" horiz-adv-x="272" d="M63 -373v1944h164v-1944h-164z" />
<glyph unicode="}" horiz-adv-x="1040" d="M63 -360q205 23 275 112.5t70 286.5v108q0 115 20.5 205t95 146.5t166.5 81t193 36.5q-272 49 -373.5 138.5t-101.5 349.5v117v49q0 100 -29 164.5t-116 110.5t-200 59v106q100 0 252 -36t225.5 -110.5t89 -151.5t15.5 -210v-135q0 -102 19.5 -175t76 -113t108.5 -59.5 t175 -43.5v-123q-203 -23 -289 -96.5t-86 -268.5v-147q0 -172 -34.5 -264t-146.5 -150.5t-199 -75t-206 -16.5v105z" />
<glyph unicode="~" horiz-adv-x="763" d="M63 1950q33 12 72 22t80 10q72 0 162 -28.5t121 -28.5q57 0 86.5 11.5t42.5 21.5l-4 31h65l51 -228q-27 -16 -63.5 -31.5t-85.5 -15.5q-70 0 -176.5 27.5t-112.5 27.5q-45 0 -79 -7t-48 -11l4 -31h-65z" />
<glyph unicode="&#xa2;" horiz-adv-x="692" d="M63 772q0 33 3 49q0 109 64.5 197t176.5 127q-2 51 -4 100t-8 127q68 -6 149 -6q68 0 127 6q-8 -41 -15 -93t-7 -87q57 -6 94 -27l19 -254q-29 4 -44 4q-41 0 -71.5 -15t-48 -45t-17.5 -64q0 -29 14.5 -56.5t46 -45t76.5 -17.5q27 0 64 10l-88 -287q-16 -6 -32.5 -12 t-35.5 -6l25 -156q-25 2 -71 4t-70 2q-35 0 -74 -2t-76 -8l31 205q-100 29 -164 122t-64 228z" />
<glyph unicode="&#xa3;" horiz-adv-x="778" d="M63 829q14 -4 34 -6t53 -2q-6 27 -12.5 58.5t-6.5 52.5q0 233 133 287.5t187.5 61.5t117.5 7q106 0 127 -12l21 -254q-31 6 -62 6q-45 0 -75.5 -16.5t-41 -50t-10.5 -64.5q0 -14 4.5 -35.5t10.5 -54.5q63 0 110 4t84 8l-45 -180q-25 6 -63.5 12t-83.5 6q0 -68 -6.5 -99.5 t-18.5 -57.5l236 10l-45 -223q-74 2 -202 4t-169 2q-82 0 -150.5 -2t-105.5 -8l41 194l125 6q0 33 -12.5 74t-32.5 92q-25 0 -58.5 -7t-35.5 -7z" />
<glyph unicode="&#xa8;" horiz-adv-x="884" d="M63 1980q0 70 56.5 116t130.5 40q70 0 115 -55.5t45 -130.5q-6 -72 -60.5 -115t-130.5 -43q-72 6 -114 59t-42 129zM518 1980q0 70 56.5 116t130.5 40q70 0 114.5 -55.5t44.5 -130.5q-6 -72 -60 -115t-130 -43q-72 6 -117 61t-39 127z" />
<glyph unicode="&#xa9;" horiz-adv-x="1212" d="M-6 606q0 162 82 304.5t224 224.5t306 82q166 0 307.5 -82t223.5 -224.5t82 -304.5q0 -164 -82 -306t-224.5 -224t-306.5 -82t-306 82t-224 224t-82 306zM119 606q0 -127 65.5 -239.5t179 -177t242.5 -64.5t243 64.5t179.5 176t65.5 236.5q0 205 -142.5 346.5 t-343.5 141.5q-131 0 -244.5 -64.5t-179 -177.5t-65.5 -242zM289 616q0 158 95 255.5t243 97.5q121 0 196.5 -60.5t100.5 -175.5h-140q-14 59 -55 91t-100 32q-88 0 -146.5 -64.5t-58.5 -173.5q0 -115 61.5 -184t147.5 -69q59 0 101 36t50 93h140q-12 -104 -93 -173 t-198 -69q-152 0 -248 101.5t-96 262.5z" />
<glyph unicode="&#xad;" horiz-adv-x="720" d="M63 1024h521l-4 33h63l51 -455h-520l4 -31h-65z" />
<glyph unicode="&#xae;" horiz-adv-x="1212" d="M-6 604q0 164 82 306.5t224 224.5t306 82q166 0 307.5 -82t223.5 -224.5t82 -306.5t-82 -305t-223.5 -223t-307.5 -82q-164 0 -306 82t-224 223t-82 305zM119 606q0 -129 65.5 -240.5t179 -176t242.5 -64.5t243 64.5t179.5 175t65.5 237.5q0 205 -142.5 346.5 t-343.5 141.5q-203 0 -346 -141.5t-143 -342.5zM352 266v672h297q94 0 138 -20.5t71 -65.5t27 -109q0 -53 -16.5 -86.5t-61.5 -66.5q37 -20 50 -47t15 -92q8 -125 12.5 -145.5t28.5 -39.5h-168q-12 29 -15 47.5t-5 61.5q0 90 -8 110.5t-25.5 31.5t-73.5 11h-118v-262h-148z M500 651h123q72 0 95 18.5t23 61.5t-23.5 60.5t-92.5 17.5h-125v-158z" />
<glyph unicode="&#xb1;" horiz-adv-x="1124" d="M90 39v139h946v-139h-946zM90 539v139h404v250h139v-250h403v-139h-403v-250h-139v250h-404z" />
<glyph unicode="&#xb4;" horiz-adv-x="708" d="M63 1841l9 43l49 -18q74 59 133 142t115 175l-37 23l22 39q55 -35 133 -77t191 -75l-10 -45l-54 23q-113 -82 -193.5 -151.5t-139.5 -137.5l45 -25l-21 -43q-59 47 -119.5 80t-122.5 47z" />
<glyph unicode="&#xb5;" horiz-adv-x="1179" d="M150 -285l4 119l4 182l-2 207l-4 195v502h188v-607q0 -145 28.5 -194t102.5 -49q117 0 194.5 165.5t77.5 417.5v267h189v-672q0 -92 19.5 -135t58.5 -43q41 0 64.5 42t23.5 126v28h43l2 -18v-27q0 -113 -48 -176t-137 -63q-100 0 -154 88t-54 264q-47 -182 -126 -267 t-198 -85q-86 0 -150 53q-57 55 -81 158l-2 -58q0 -133 65.5 -290.5t65.5 -186.5q0 -41 -22.5 -63.5t-63.5 -22.5q-47 0 -67.5 35t-20.5 108z" />
<glyph unicode="&#xb8;" horiz-adv-x="645" d="M63 -662q35 121 38 200t3 114h50q0 -66 49 -92q33 -12 65 -13q37 0 68 22.5t31 84.5q-4 31 -35 60.5t-84 29.5q-31 0 -72 -12l-51 18l63 234h201l-16 -68q88 -20 144 -59t75.5 -101.5t19.5 -111.5q0 -57 -17 -111.5t-59 -102.5t-102.5 -68.5t-128.5 -20.5q-55 0 -90 7 t-52.5 12t-33.5 11l-25 -47z" />
<glyph unicode="&#xc0;" horiz-adv-x="1880" d="M41 88l29 80l61 -14q4 0 154.5 247.5t335 595t372.5 777.5q182 -424 370.5 -779.5t327 -581t142.5 -225.5l74 9l16 -82q-14 0 -131 -43t-252 -118t-217 -171l-61 63l57 72q-18 76 -30.5 112t-49.5 99h-537q-43 -90 -59 -186l62 -66l-48 -74q-143 131 -309 190.5 t-307 94.5zM551 2200q117 35 192.5 75.5t130.5 75.5l23 -39l-35 -22q70 -113 120 -183.5t126 -134.5l49 17l10 -41q-59 -14 -118.5 -46t-124.5 -81l-19 43l43 26q-63 74 -141 138.5t-195 148.5l-49 -23zM852 528h227l-108 269z" />
<glyph unicode="&#xc1;" horiz-adv-x="1880" d="M41 88l29 80l61 -14q4 0 154.5 247.5t335 595t372.5 777.5q182 -424 370.5 -779.5t327 -581t142.5 -225.5l74 9l16 -82q-14 0 -131 -43t-252 -118t-217 -171l-61 63l57 72q-18 76 -30.5 112t-49.5 99h-537q-43 -90 -59 -186l62 -66l-48 -74q-143 131 -309 190.5 t-307 94.5zM834 1948l10 41l49 -17q78 66 132 141.5t114 176.5l-35 22l22 39q55 -35 131 -76t193 -75l-12 -46l-49 23q-125 -90 -199 -151.5t-137 -135.5l43 -26l-17 -43q-61 43 -125.5 78.5t-119.5 48.5zM852 528h227l-108 269z" />
<glyph unicode="&#xc2;" horiz-adv-x="1880" d="M41 88l29 80l61 -14q4 0 154.5 247.5t335 595t372.5 777.5q182 -424 370.5 -779.5t327 -581t142.5 -225.5l74 9l16 -82q-14 0 -131 -43t-252 -118t-217 -171l-61 63l57 72q-18 76 -30.5 112t-49.5 99h-537q-43 -90 -59 -186l62 -66l-48 -74q-143 131 -309 190.5 t-307 94.5zM510 1954l10 43l55 -10q84 70 194 159.5t210 180.5q166 -150 259 -224.5t132 -105.5l51 22l11 -45q-121 -35 -195 -74.5t-129 -76.5l-21 39l35 22l-139 154q-43 -35 -87 -77t-54 -65l45 -26l-21 -43q-154 94 -356 127zM852 528h227l-108 269z" />
<glyph unicode="&#xc3;" horiz-adv-x="1880" d="M41 88l29 80l61 -14q4 0 154.5 247.5t335 595t372.5 777.5q182 -424 370.5 -779.5t327 -581t142.5 -225.5l74 9l16 -82q-14 0 -131 -43t-252 -118t-217 -171l-61 63l57 72q-18 76 -30.5 112t-49.5 99h-537q-43 -90 -59 -186l62 -66l-48 -74q-143 131 -309 190.5 t-307 94.5zM633 2064q35 12 75 22.5t76 10.5q72 0 164 -28.5t121 -28.5q45 0 76 10t53 23l-4 32h66l49 -231q-25 -16 -62 -31.5t-88 -15.5q-80 0 -169 29.5t-118 29.5q-49 0 -80.5 -7t-46.5 -13l5 -33h-66zM852 528h227l-108 269z" />
<glyph unicode="&#xc4;" horiz-adv-x="1880" d="M41 88l29 80l61 -14q4 0 154.5 247.5t335 595t372.5 777.5q182 -424 370.5 -779.5t327 -581t142.5 -225.5l74 9l16 -82q-14 0 -131 -43t-252 -118t-217 -171l-61 63l57 72q-18 76 -30.5 112t-49.5 99h-537q-43 -90 -59 -186l62 -66l-48 -74q-143 131 -309 190.5 t-307 94.5zM592 1980q6 72 61.5 117t126.5 39q70 0 114 -55.5t44 -130.5q0 -70 -56.5 -114t-131.5 -44q-70 6 -114 60t-44 128zM852 528h227l-108 269zM1049 1980q0 70 55 113t133 43q70 0 114 -55.5t44 -130.5q0 -68 -57.5 -113t-133.5 -45q-72 6 -113.5 59t-41.5 129z" />
<glyph unicode="&#xc5;" horiz-adv-x="1880" d="M41 88l29 80l61 -14q4 0 154.5 247.5t335 595t372.5 777.5q182 -424 370.5 -779.5t327 -581t142.5 -225.5l74 9l16 -82q-14 0 -131 -43t-252 -118t-217 -171l-61 63l57 72q-18 76 -30.5 112t-49.5 99h-537q-43 -90 -59 -186l62 -66l-48 -74q-143 131 -309 190.5 t-307 94.5zM711 2136q0 117 81.5 201t202.5 84q117 0 202 -83t85 -202t-84 -203t-203 -84q-121 0 -202.5 82t-81.5 205zM852 528h227l-108 269zM889 2138q0 -45 29.5 -76.5t76.5 -31.5q45 0 76 32.5t31 75.5t-30 75t-77 32t-76.5 -32t-29.5 -75z" />
<glyph unicode="&#xc6;" horiz-adv-x="2248" d="M47 74l51 80l58 -7q2 0 167.5 195t398 491t484.5 650l-127 18l13 101q51 -10 148 -15.5t237 -5.5q160 0 394 10.5t279 10.5l9 104l100 4q-2 -57 -3 -138t-1 -140q0 -172 15.5 -228.5t25.5 -77.5l-92 -26l-41 92q-76 10 -189 10q-70 0 -123 -4t-125 -18l-2 -176h211l4 100 h86q-2 -20 -4 -61.5t-2 -65.5q0 -92 11.5 -188.5t42.5 -184.5l-84 -31l-19 56h-246l2 -183q164 0 228.5 7.5t163.5 29.5l20 142l103 -15q-10 -59 -19.5 -146t-9.5 -231q0 -182 10 -257.5t19 -106.5l-103 -14l-16 127q-78 8 -263.5 13t-322.5 5h-59q-207 0 -278 -5t-107 -13 l-13 102l140 18l6 115l-504 -45q-37 -53 -60.5 -94t-50.5 -96l45 -64l-65 -76q-106 115 -259 161t-284 71zM977 586l262 10v272v93z" />
<glyph unicode="&#xc7;" horiz-adv-x="1554" d="M41 842q0 336 264 560t623 224q119 0 219 -35t194 -104l52 94l82 -45q-86 -184 -121 -288.5t-64 -276.5h-90l6 102q-35 45 -102.5 80t-109.5 39t-66 4q-145 0 -256 -100.5t-118 -180t-7 -104.5q0 -150 101.5 -265.5t246.5 -115.5q111 0 181.5 32t107.5 64l-31 107l84 55 q68 -182 135.5 -283.5t220.5 -259.5l-67 -63l-96 80q-80 -74 -206 -140.5t-296 -66.5l-8 -31q88 -23 144 -61.5t75.5 -101t19.5 -111.5q0 -57 -17.5 -111.5t-58.5 -101.5t-103 -67.5t-128 -20.5q-29 0 -57.5 3t-40.5 5q-23 0 -42.5 6t-35.5 14l-25 -47l-43 15q29 96 35 176 t8 137h49q0 -70 50 -92q33 -12 63 -12q39 0 69.5 22.5t30.5 83.5q0 33 -29.5 62.5t-84.5 29.5q-35 0 -76 -14l-51 18l55 213q-307 55 -496.5 302t-189.5 571z" />
<glyph unicode="&#xc8;" horiz-adv-x="1263" d="M63 84l140 18q0 49 10 318.5t10 447.5q0 190 -10 393t-10 220l-140 20l13 101q51 -10 148.5 -15.5t236.5 -5.5q162 0 396.5 10.5t277.5 10.5l10 104l98 4q-2 -57 -3 -138t-1 -140q0 -172 15.5 -228.5t25.5 -77.5l-90 -26l-41 92q-76 10 -188 10q-70 0 -123 -4t-125 -18 l-2 -176h209l8 100h82q0 -10 -2 -47t-2 -74q0 -106 10 -195.5t43 -183.5l-84 -31l-21 56h-243l2 -183q164 0 226 7.5t165 29.5l20 142l101 -15q-10 -59 -19.5 -146t-9.5 -231q0 -182 10.5 -257.5t18.5 -106.5l-101 -14l-18 127q-102 12 -299 15t-287 3h-59q-207 0 -277.5 -5 t-107.5 -13zM340 2093q119 35 192.5 75t129.5 77l22 -39l-35 -23q66 -109 117 -181.5t131 -135.5l47 18l10 -43q-57 -14 -121.5 -49t-119.5 -78l-21 43l45 25q-61 70 -141 138.5t-195 150.5l-51 -23z" />
<glyph unicode="&#xc9;" horiz-adv-x="1263" d="M63 84l140 18q0 49 10 318.5t10 447.5q0 190 -10 393t-10 220l-140 20l13 101q51 -10 148.5 -15.5t236.5 -5.5q162 0 396.5 10.5t277.5 10.5l10 104l98 4q-2 -57 -3 -138t-1 -140q0 -172 15.5 -228.5t25.5 -77.5l-90 -26l-41 92q-76 10 -188 10q-70 0 -123 -4t-125 -18 l-2 -176h209l8 100h82q0 -10 -2 -47t-2 -74q0 -106 10 -195.5t43 -183.5l-84 -31l-21 56h-243l2 -183q164 0 226 7.5t165 29.5l20 142l101 -15q-10 -59 -19.5 -146t-9.5 -231q0 -182 10.5 -257.5t18.5 -106.5l-101 -14l-18 127q-102 12 -299 15t-287 3h-59q-207 0 -277.5 -5 t-107.5 -13zM465 1841l10 43l49 -18q59 47 116.5 119.5t129.5 197.5l-33 23l21 39q55 -35 133 -77t192 -75l-12 -45l-51 23q-106 -78 -192.5 -150.5t-143.5 -138.5l47 -25l-20 -43q-63 45 -125 79t-121 48z" />
<glyph unicode="&#xca;" horiz-adv-x="1263" d="M63 84l140 18q0 49 10 318.5t10 447.5q0 190 -10 393t-10 220l-140 20l13 101q51 -10 148.5 -15.5t236.5 -5.5q162 0 396.5 10.5t277.5 10.5l10 104l98 4q-2 -57 -3 -138t-1 -140q0 -172 15.5 -228.5t25.5 -77.5l-90 -26l-41 92q-76 10 -188 10q-70 0 -123 -4t-125 -18 l-2 -176h209l8 100h82q0 -10 -2 -47t-2 -74q0 -106 10 -195.5t43 -183.5l-84 -31l-21 56h-243l2 -183q164 0 226 7.5t165 29.5l20 142l101 -15q-10 -59 -19.5 -146t-9.5 -231q0 -182 10.5 -257.5t18.5 -106.5l-101 -14l-18 127q-102 12 -299 15t-287 3h-59q-207 0 -277.5 -5 t-107.5 -13zM233 1845l9 43l55 -10q86 70 188.5 154t214.5 186q166 -150 259.5 -224.5t132.5 -105.5l49 23l12 -45q-117 -35 -192.5 -76t-131.5 -76l-22 37l37 23l-139 155q-43 -37 -86.5 -78t-55.5 -65l43 -25l-18 -43q-154 90 -355 127z" />
<glyph unicode="&#xcb;" horiz-adv-x="1263" d="M63 84l140 18q0 49 10 318.5t10 447.5q0 190 -10 393t-10 220l-140 20l13 101q51 -10 148.5 -15.5t236.5 -5.5q162 0 396.5 10.5t277.5 10.5l10 104l98 4q-2 -57 -3 -138t-1 -140q0 -172 15.5 -228.5t25.5 -77.5l-90 -26l-41 92q-76 10 -188 10q-70 0 -123 -4t-125 -18 l-2 -176h209l8 100h82q0 -10 -2 -47t-2 -74q0 -106 10 -195.5t43 -183.5l-84 -31l-21 56h-243l2 -183q164 0 226 7.5t165 29.5l20 142l101 -15q-10 -59 -19.5 -146t-9.5 -231q0 -182 10.5 -257.5t18.5 -106.5l-101 -14l-18 127q-102 12 -299 15t-287 3h-59q-207 0 -277.5 -5 t-107.5 -13zM291 1901q6 70 60.5 113.5t127.5 43.5q72 -6 118 -60t40 -128q0 -72 -57.5 -117t-130.5 -39q-70 0 -114 55.5t-44 131.5zM748 1901q6 72 59 114.5t127 42.5q72 -6 116 -60t44 -128q0 -72 -57.5 -117t-131.5 -39q-70 0 -113.5 56.5t-43.5 130.5z" />
<glyph unicode="&#xcc;" horiz-adv-x="892" d="M63 84l140 18q0 49 10 318.5t10 447.5q0 190 -10 393t-10 220l-140 20l13 101q51 -10 148.5 -15.5t236.5 -5.5q170 0 254 4.5t141 16.5l14 -103l-139 -18q0 -55 -10 -258t-10 -355q0 -229 6 -404t14 -362l139 -18l-14 -102q-61 10 -149.5 14t-245.5 4q-207 0 -277.5 -5 t-107.5 -13zM90 2093q123 35 197.5 75t128.5 77l20 -39l-35 -23q66 -109 117 -181.5t131 -135.5l49 18l11 -43q-57 -14 -119 -47t-127 -80l-21 43l45 25q-61 72 -134.5 135.5t-198.5 153.5l-52 -23z" />
<glyph unicode="&#xcd;" horiz-adv-x="892" d="M63 84l140 18q0 49 10 318.5t10 447.5q0 190 -10 393t-10 220l-140 20l13 101q51 -10 148.5 -15.5t236.5 -5.5q170 0 254 4.5t141 16.5l14 -103l-139 -18q0 -55 -10 -258t-10 -355q0 -229 6 -404t14 -362l139 -18l-14 -102q-61 10 -149.5 14t-245.5 4q-207 0 -277.5 -5 t-107.5 -13zM262 1841l10 43l50 -18q74 61 132 142t115 175l-34 23l22 39q53 -35 130 -77t192 -75l-11 -45l-51 23q-115 -82 -195 -150.5t-141 -138.5l45 -25l-20 -43q-61 45 -122.5 79t-121.5 48z" />
<glyph unicode="&#xce;" horiz-adv-x="892" d="M2 1845l10 43l56 -10q84 70 193.5 160t209.5 180q133 -123 226.5 -198.5t164.5 -131.5l51 23l11 -45q-117 -35 -193 -76t-131 -76l-20 37l32 23l-137 155q-43 -37 -88 -79t-55 -64l45 -25l-21 -43q-150 90 -354 127zM63 84l140 18q0 49 10 318.5t10 447.5q0 190 -10 393 t-10 220l-140 20l13 101q51 -10 148.5 -15.5t236.5 -5.5q170 0 254 4.5t141 16.5l14 -103l-139 -18q0 -55 -10 -258t-10 -355q0 -229 6 -404t14 -362l139 -18l-14 -102q-61 10 -149.5 14t-245.5 4q-207 0 -277.5 -5t-107.5 -13z" />
<glyph unicode="&#xcf;" horiz-adv-x="892" d="M63 84l140 18q0 49 10 318.5t10 447.5q0 190 -10 393t-10 220l-140 20l13 101q51 -10 148.5 -15.5t236.5 -5.5q170 0 254 4.5t141 16.5l14 -103l-139 -18q0 -55 -10 -258t-10 -355q0 -229 6 -404t14 -362l139 -18l-14 -102q-61 10 -149.5 14t-245.5 4q-207 0 -277.5 -5 t-107.5 -13zM66 1901q0 70 55 113.5t131 43.5q72 -6 116 -60t44 -128q0 -70 -58.5 -116t-132.5 -40q-70 0 -112.5 55.5t-42.5 131.5zM520 1901q0 70 55.5 113.5t133.5 43.5q70 -6 113.5 -60t43.5 -128q-6 -72 -61 -117t-129 -39q-68 0 -112 56.5t-44 130.5z" />
<glyph unicode="&#xd0;" horiz-adv-x="1685" d="M23 1024h768l-5 33h64l51 -455h-768l4 -31h-65zM63 84l140 18q0 49 10 318.5t10 447.5q0 190 -10 393t-10 220l-140 20l13 101q51 -10 149.5 -15.5t235.5 -5.5q61 0 171.5 8t178.5 8q20 0 45 2.5t37 2.5q334 0 568.5 -211t234.5 -529q0 -350 -223.5 -614t-548.5 -264 q-84 0 -248 8t-215 8q-207 0 -277.5 -5t-107.5 -13zM713 504q188 0 293.5 81t105.5 242q0 166 -109.5 240t-289.5 74v-259v-221.5v-156.5z" />
<glyph unicode="&#xd1;" horiz-adv-x="1916" d="M63 84l140 18q0 49 10 318.5t10 447.5q0 229 -3 449.5t-5 349.5q74 -63 218.5 -183t367.5 -286t485 -328v72q0 195 -3 293t-17 246l-140 20l13 101q61 -8 159.5 -12.5t237.5 -4.5q176 0 250 3t135 14l14 -101l-143 -20q0 -27 -9 -287t-9 -477q0 -203 5 -515.5t5 -332.5 q-240 182 -447 324.5t-376.5 252t-249.5 162.5q2 -109 4 -235.5t16 -270.5l139 -18l-14 -102q-61 10 -149.5 14t-245.5 4q-207 0 -277.5 -5t-107.5 -13zM653 1950q35 12 75 22t77 10q76 0 168 -28.5t117 -28.5q45 0 75.5 10.5t53.5 22.5l-5 31h64l51 -228 q-27 -16 -63.5 -31.5t-85.5 -15.5q-80 0 -170 27.5t-117 27.5q-39 0 -70.5 -5t-58.5 -13l4 -31h-63z" />
<glyph unicode="&#xd2;" d="M59 762q0 340 235.5 579.5t575.5 239.5q338 0 578 -237.5t240 -577.5q0 -336 -238 -573.5t-576 -237.5q-340 0 -577.5 235.5t-237.5 571.5zM496 2093q121 35 194.5 75t128.5 77l23 -39l-37 -23q66 -109 117 -181.5t131 -135.5l49 18l8 -43q-57 -14 -121.5 -49t-120.5 -78 l-20 43l45 25q-66 76 -136.5 136.5t-197.5 152.5l-53 -23zM573 762q0 -119 86 -205t209 -86q121 0 207 84t86 207t-85 210t-208 87t-209 -86t-86 -211z" />
<glyph unicode="&#xd3;" d="M59 762q0 340 235.5 579.5t575.5 239.5q338 0 578 -237.5t240 -577.5q0 -336 -238 -573.5t-576 -237.5q-340 0 -577.5 235.5t-237.5 571.5zM573 762q0 -119 86 -205t209 -86q121 0 207 84t86 207t-85 210t-208 87t-209 -86t-86 -211zM668 1841l8 43l49 -18 q76 61 135.5 143t112.5 174l-37 23l22 39q55 -35 133 -77t191 -75l-12 -45l-49 23q-109 -80 -194 -151.5t-140 -137.5l43 -25l-64 -43q-47 37 -94 76q-51 37 -104 51z" />
<glyph unicode="&#xd4;" d="M59 762q0 340 235.5 579.5t575.5 239.5q338 0 578 -237.5t240 -577.5q0 -336 -238 -573.5t-576 -237.5q-340 0 -577.5 235.5t-237.5 571.5zM412 1845l8 43l55 -10q86 70 188.5 154t215.5 186q135 -123 227 -198.5t162 -131.5l53 23l10 -45q-117 -35 -192.5 -76 t-130.5 -76l-23 37l37 23l-137 155q-43 -37 -88 -78t-56 -65l43 -25l-20 -43q-150 90 -352 127zM573 762q0 -119 86 -205t209 -86q121 0 207 84t86 207t-85 210t-208 87t-209 -86t-86 -211z" />
<glyph unicode="&#xd5;" d="M59 762q0 340 235.5 579.5t575.5 239.5q338 0 578 -237.5t240 -577.5q0 -336 -238 -573.5t-576 -237.5q-340 0 -577.5 235.5t-237.5 571.5zM557 1950q33 12 72 22t80 10q70 0 162 -28.5t120 -28.5q45 0 75 10.5t52 22.5l-4 31h66l53 -228q-27 -16 -63.5 -31.5 t-86.5 -15.5q-74 0 -178 27.5t-110 27.5q-45 0 -79 -7t-48 -11l4 -31h-66zM573 762q0 -119 86 -205t209 -86q121 0 207 84t86 207t-85 210t-208 87t-209 -86t-86 -211z" />
<glyph unicode="&#xd6;" d="M59 762q0 340 235.5 579.5t575.5 239.5q338 0 578 -237.5t240 -577.5q0 -336 -238 -573.5t-576 -237.5q-340 0 -577.5 235.5t-237.5 571.5zM494 1901q0 70 55 113.5t131 43.5q72 -6 116 -60t44 -128q-6 -72 -61.5 -117t-129.5 -39q-70 0 -115.5 56.5t-39.5 130.5z M573 762q0 -119 86 -205t209 -86q121 0 207 84t86 207t-85 210t-208 87t-209 -86t-86 -211zM948 1901q0 70 55.5 113.5t131.5 43.5q72 0 117.5 -57t39.5 -131q0 -72 -57 -117t-131 -39q-70 0 -116 56.5t-40 130.5z" />
<glyph unicode="&#xd8;" d="M59 762q0 340 235.5 579.5t575.5 239.5q162 0 304 -59l71 149l-141 21l63 98q135 -27 250 -27q111 0 285 27l-35 -100l-160 -19l-137 -260q150 -115 234 -281.5t84 -363.5q0 -336 -238 -573.5t-576 -237.5q-59 0 -108 6t-107 23l-45 -93l144 -20l-64 -102 q-123 14 -250 14q-135 0 -286 -14l37 102l157 20l94 183q-178 111 -282.5 292t-104.5 396zM573 762q1 -139 107 -223l258 510q-27 10 -70 10q-123 0 -209 -86t-86 -211zM901 473q111 10 185.5 93t74.5 196q0 85 -43 153z" />
<glyph unicode="&#xd9;" horiz-adv-x="1835" d="M63 1501l13 101q51 -10 148.5 -15.5t236.5 -5.5q170 0 254 4t141 17l14 -101l-139 -20q-12 -86 -16 -184.5t-4 -194.5v-189q0 -340 89 -383t111.5 -49t49.5 -6q43 0 103 26.5t99 124t39 287.5v144q0 156 -3 231.5t-17 192.5l-140 20l13 101q51 -10 148 -15.5t237 -5.5 q170 0 254 4t141 17l14 -101l-139 -20q0 -129 16.5 -374t16.5 -257q0 -260 -98.5 -477t-188.5 -269.5t-109.5 -62.5t-39.5 -18q-90 -35 -183.5 -52.5t-183.5 -17.5q-240 0 -416 110.5t-265 318.5t-89 468q0 76 16.5 295t16.5 336zM567 2093q121 35 195 75t129 77l22 -39 l-36 -23q66 -109 116.5 -181.5t130.5 -135.5l50 18l8 -43q-55 -14 -121 -49t-123 -78l-18 43l43 25q-61 72 -135 135.5t-199 153.5l-49 -23z" />
<glyph unicode="&#xda;" horiz-adv-x="1835" d="M63 1501l13 101q51 -10 148.5 -15.5t236.5 -5.5q170 0 254 4t141 17l14 -101l-139 -20q-12 -86 -16 -184.5t-4 -194.5v-189q0 -340 89 -383t111.5 -49t49.5 -6q43 0 103 26.5t99 124t39 287.5v144q0 156 -3 231.5t-17 192.5l-140 20l13 101q51 -10 148 -15.5t237 -5.5 q170 0 254 4t141 17l14 -101l-139 -20q0 -129 16.5 -374t16.5 -257q0 -260 -98.5 -477t-188.5 -269.5t-109.5 -62.5t-39.5 -18q-90 -35 -183.5 -52.5t-183.5 -17.5q-240 0 -416 110.5t-265 318.5t-89 468q0 76 16.5 295t16.5 336zM672 1841l8 43l51 -18q76 63 128 136 t118 181l-37 23l23 39q55 -35 133 -77t190 -75l-10 -45l-51 23q-109 -80 -194 -151.5t-140 -137.5l43 -25l-19 -43q-61 45 -122.5 79t-120.5 48z" />
<glyph unicode="&#xdb;" horiz-adv-x="1835" d="M63 1501l13 101q51 -10 148.5 -15.5t236.5 -5.5q170 0 254 4t141 17l14 -101l-139 -20q-12 -86 -16 -184.5t-4 -194.5v-189q0 -340 89 -383t111.5 -49t49.5 -6q43 0 103 26.5t99 124t39 287.5v144q0 156 -3 231.5t-17 192.5l-140 20l13 101q51 -10 148 -15.5t237 -5.5 q170 0 254 4t141 17l14 -101l-139 -20q0 -129 16.5 -374t16.5 -257q0 -260 -98.5 -477t-188.5 -269.5t-109.5 -62.5t-39.5 -18q-90 -35 -183.5 -52.5t-183.5 -17.5q-240 0 -416 110.5t-265 318.5t-89 468q0 76 16.5 295t16.5 336zM481 1845l11 43l55 -10q84 70 193.5 160 t209.5 180q133 -123 226.5 -198.5t164.5 -131.5l52 23l10 -45q-117 -35 -191.5 -76t-130.5 -76l-22 37l35 23l-140 155q-43 -37 -88 -79t-55 -64l45 -25l-20 -43q-76 47 -161 77t-194 50z" />
<glyph unicode="&#xdc;" horiz-adv-x="1835" d="M63 1501l13 101q51 -10 148.5 -15.5t236.5 -5.5q170 0 254 4t141 17l14 -101l-139 -20q-12 -86 -16 -184.5t-4 -194.5v-189q0 -340 89 -383t111.5 -49t49.5 -6q43 0 103 26.5t99 124t39 287.5v144q0 156 -3 231.5t-17 192.5l-140 20l13 101q51 -10 148 -15.5t237 -5.5 q170 0 254 4t141 17l14 -101l-139 -20q0 -129 16.5 -374t16.5 -257q0 -260 -98.5 -477t-188.5 -269.5t-109.5 -62.5t-39.5 -18q-90 -35 -183.5 -52.5t-183.5 -17.5q-240 0 -416 110.5t-265 318.5t-89 468q0 76 16.5 295t16.5 336zM565 1901q0 70 55.5 113.5t133.5 43.5 q70 -6 113.5 -60t43.5 -128q0 -70 -58 -116t-132 -40q-70 0 -113 55.5t-43 131.5zM1020 1901q0 70 55 113.5t131 43.5q72 -6 116 -60t44 -128q-6 -72 -61.5 -117t-128.5 -39q-68 0 -112 56.5t-44 130.5z" />
<glyph unicode="&#xdd;" horiz-adv-x="1851" d="M27 1247q6 0 140 80t280.5 183.5t220.5 189.5l65 -66l-82 -94q94 -166 186.5 -282.5t168.5 -200.5q129 162 207.5 278.5t136.5 204.5l-58 92l80 60q88 -141 204 -253t212 -179.5t104 -67.5l-49 -84l-86 45q-170 -178 -312 -356.5t-270 -362.5t-339 -516l65 -90l-72 -61 q-135 129 -281.5 215t-250.5 128t-115 42l39 86l96 -35q4 0 66.5 62.5t161 178t186.5 244.5q-147 160 -268 278.5t-285 256.5l-112 -62zM618 1835l9 43l49 -18q74 59 133 142t115 175l-37 23l22 39q55 -35 133 -77t191 -75l-10 -45l-54 23q-113 -82 -193.5 -151.5 t-139.5 -137.5l45 -25l-21 -43q-59 47 -119.5 80t-122.5 47z" />
<glyph unicode="&#xe0;" horiz-adv-x="1880" d="M41 88l29 80l61 -14q4 0 154.5 247.5t335 595t372.5 777.5q182 -424 370.5 -779.5t327 -581t142.5 -225.5l74 9l16 -82q-14 0 -131 -43t-252 -118t-217 -171l-61 63l57 72q-18 76 -30.5 112t-49.5 99h-537q-43 -90 -59 -186l62 -66l-48 -74q-143 131 -309 190.5 t-307 94.5zM551 2200q117 35 192.5 75.5t130.5 75.5l23 -39l-35 -22q70 -113 120 -183.5t126 -134.5l49 17l10 -41q-59 -14 -118.5 -46t-124.5 -81l-19 43l43 26q-63 74 -141 138.5t-195 148.5l-49 -23zM852 528h227l-108 269z" />
<glyph unicode="&#xe1;" horiz-adv-x="1880" d="M41 88l29 80l61 -14q4 0 154.5 247.5t335 595t372.5 777.5q182 -424 370.5 -779.5t327 -581t142.5 -225.5l74 9l16 -82q-14 0 -131 -43t-252 -118t-217 -171l-61 63l57 72q-18 76 -30.5 112t-49.5 99h-537q-43 -90 -59 -186l62 -66l-48 -74q-143 131 -309 190.5 t-307 94.5zM834 1948l10 41l49 -17q78 66 132 141.5t114 176.5l-35 22l22 39q55 -35 131 -76t193 -75l-12 -46l-49 23q-125 -90 -199 -151.5t-137 -135.5l43 -26l-17 -43q-61 43 -125.5 78.5t-119.5 48.5zM852 528h227l-108 269z" />
<glyph unicode="&#xe2;" horiz-adv-x="1880" d="M41 88l29 80l61 -14q4 0 154.5 247.5t335 595t372.5 777.5q182 -424 370.5 -779.5t327 -581t142.5 -225.5l74 9l16 -82q-14 0 -131 -43t-252 -118t-217 -171l-61 63l57 72q-18 76 -30.5 112t-49.5 99h-537q-43 -90 -59 -186l62 -66l-48 -74q-143 131 -309 190.5 t-307 94.5zM510 1954l10 43l55 -10q84 70 194 159.5t210 180.5q166 -150 259 -224.5t132 -105.5l51 22l11 -45q-121 -35 -195 -74.5t-129 -76.5l-21 39l35 22l-139 154q-43 -35 -87 -77t-54 -65l45 -26l-21 -43q-154 94 -356 127zM852 528h227l-108 269z" />
<glyph unicode="&#xe3;" horiz-adv-x="1880" d="M41 88l29 80l61 -14q4 0 154.5 247.5t335 595t372.5 777.5q182 -424 370.5 -779.5t327 -581t142.5 -225.5l74 9l16 -82q-14 0 -131 -43t-252 -118t-217 -171l-61 63l57 72q-18 76 -30.5 112t-49.5 99h-537q-43 -90 -59 -186l62 -66l-48 -74q-143 131 -309 190.5 t-307 94.5zM633 2064q35 12 75 22.5t76 10.5q72 0 164 -28.5t121 -28.5q45 0 76 10t53 23l-4 32h66l49 -231q-25 -16 -62 -31.5t-88 -15.5q-80 0 -169 29.5t-118 29.5q-49 0 -80.5 -7t-46.5 -13l5 -33h-66zM852 528h227l-108 269z" />
<glyph unicode="&#xe4;" horiz-adv-x="1880" d="M41 88l29 80l61 -14q4 0 154.5 247.5t335 595t372.5 777.5q182 -424 370.5 -779.5t327 -581t142.5 -225.5l74 9l16 -82q-14 0 -131 -43t-252 -118t-217 -171l-61 63l57 72q-18 76 -30.5 112t-49.5 99h-537q-43 -90 -59 -186l62 -66l-48 -74q-143 131 -309 190.5 t-307 94.5zM592 1980q6 72 61.5 117t126.5 39q70 0 114 -55.5t44 -130.5q0 -70 -56.5 -114t-131.5 -44q-70 6 -114 60t-44 128zM852 528h227l-108 269zM1049 1980q0 70 55 113t133 43q70 0 114 -55.5t44 -130.5q0 -68 -57.5 -113t-133.5 -45q-72 6 -113.5 59t-41.5 129z" />
<glyph unicode="&#xe5;" horiz-adv-x="1880" d="M41 88l29 80l61 -14q4 0 154.5 247.5t335 595t372.5 777.5q182 -424 370.5 -779.5t327 -581t142.5 -225.5l74 9l16 -82q-14 0 -131 -43t-252 -118t-217 -171l-61 63l57 72q-18 76 -30.5 112t-49.5 99h-537q-43 -90 -59 -186l62 -66l-48 -74q-143 131 -309 190.5 t-307 94.5zM711 2136q0 117 81.5 201t202.5 84q117 0 202 -83t85 -202t-84 -203t-203 -84q-121 0 -202.5 82t-81.5 205zM852 528h227l-108 269zM889 2138q0 -45 29.5 -76.5t76.5 -31.5q45 0 76 32.5t31 75.5t-30 75t-77 32t-76.5 -32t-29.5 -75z" />
<glyph unicode="&#xe6;" horiz-adv-x="2248" d="M47 74l51 80l58 -7q2 0 167.5 195t398 491t484.5 650l-127 18l13 101q51 -10 148 -15.5t237 -5.5q160 0 394 10.5t279 10.5l9 104l100 4q-2 -57 -3 -138t-1 -140q0 -172 15.5 -228.5t25.5 -77.5l-92 -26l-41 92q-76 10 -189 10q-70 0 -123 -4t-125 -18l-2 -176h211l4 100 h86q-2 -20 -4 -61.5t-2 -65.5q0 -92 11.5 -188.5t42.5 -184.5l-84 -31l-19 56h-246l2 -183q164 0 228.5 7.5t163.5 29.5l20 142l103 -15q-10 -59 -19.5 -146t-9.5 -231q0 -182 10 -257.5t19 -106.5l-103 -14l-16 127q-78 8 -263.5 13t-322.5 5h-59q-207 0 -278 -5t-107 -13 l-13 102l140 18l6 115l-504 -45q-37 -53 -60.5 -94t-50.5 -96l45 -64l-65 -76q-106 115 -259 161t-284 71zM977 586l262 10v272v93z" />
<glyph unicode="&#xe7;" horiz-adv-x="1554" d="M41 842q0 336 264 560t623 224q119 0 219 -35t194 -104l52 94l82 -45q-86 -184 -121 -288.5t-64 -276.5h-90l6 102q-35 45 -102.5 80t-109.5 39t-66 4q-145 0 -256 -100.5t-118 -180t-7 -104.5q0 -150 101.5 -265.5t246.5 -115.5q111 0 181.5 32t107.5 64l-31 107l84 55 q68 -182 135.5 -283.5t220.5 -259.5l-67 -63l-96 80q-80 -74 -206 -140.5t-296 -66.5l-8 -31q88 -23 144 -61.5t75.5 -101t19.5 -111.5q0 -57 -17.5 -111.5t-58.5 -101.5t-103 -67.5t-128 -20.5q-29 0 -57.5 3t-40.5 5q-23 0 -42.5 6t-35.5 14l-25 -47l-43 15q29 96 35 176 t8 137h49q0 -70 50 -92q33 -12 63 -12q39 0 69.5 22.5t30.5 83.5q0 33 -29.5 62.5t-84.5 29.5q-35 0 -76 -14l-51 18l55 213q-307 55 -496.5 302t-189.5 571z" />
<glyph unicode="&#xe8;" horiz-adv-x="1263" d="M63 84l140 18q0 49 10 318.5t10 447.5q0 190 -10 393t-10 220l-140 20l13 101q51 -10 148.5 -15.5t236.5 -5.5q162 0 396.5 10.5t277.5 10.5l10 104l98 4q-2 -57 -3 -138t-1 -140q0 -172 15.5 -228.5t25.5 -77.5l-90 -26l-41 92q-76 10 -188 10q-70 0 -123 -4t-125 -18 l-2 -176h209l8 100h82q0 -10 -2 -47t-2 -74q0 -106 10 -195.5t43 -183.5l-84 -31l-21 56h-243l2 -183q164 0 226 7.5t165 29.5l20 142l101 -15q-10 -59 -19.5 -146t-9.5 -231q0 -182 10.5 -257.5t18.5 -106.5l-101 -14l-18 127q-102 12 -299 15t-287 3h-59q-207 0 -277.5 -5 t-107.5 -13zM340 2093q119 35 192.5 75t129.5 77l22 -39l-35 -23q66 -109 117 -181.5t131 -135.5l47 18l10 -43q-57 -14 -121.5 -49t-119.5 -78l-21 43l45 25q-61 70 -141 138.5t-195 150.5l-51 -23z" />
<glyph unicode="&#xe9;" horiz-adv-x="1263" d="M63 84l140 18q0 49 10 318.5t10 447.5q0 190 -10 393t-10 220l-140 20l13 101q51 -10 148.5 -15.5t236.5 -5.5q162 0 396.5 10.5t277.5 10.5l10 104l98 4q-2 -57 -3 -138t-1 -140q0 -172 15.5 -228.5t25.5 -77.5l-90 -26l-41 92q-76 10 -188 10q-70 0 -123 -4t-125 -18 l-2 -176h209l8 100h82q0 -10 -2 -47t-2 -74q0 -106 10 -195.5t43 -183.5l-84 -31l-21 56h-243l2 -183q164 0 226 7.5t165 29.5l20 142l101 -15q-10 -59 -19.5 -146t-9.5 -231q0 -182 10.5 -257.5t18.5 -106.5l-101 -14l-18 127q-102 12 -299 15t-287 3h-59q-207 0 -277.5 -5 t-107.5 -13zM465 1841l10 43l49 -18q59 47 116.5 119.5t129.5 197.5l-33 23l21 39q55 -35 133 -77t192 -75l-12 -45l-51 23q-106 -78 -192.5 -150.5t-143.5 -138.5l47 -25l-20 -43q-63 45 -125 79t-121 48z" />
<glyph unicode="&#xea;" horiz-adv-x="1263" d="M63 84l140 18q0 49 10 318.5t10 447.5q0 190 -10 393t-10 220l-140 20l13 101q51 -10 148.5 -15.5t236.5 -5.5q162 0 396.5 10.5t277.5 10.5l10 104l98 4q-2 -57 -3 -138t-1 -140q0 -172 15.5 -228.5t25.5 -77.5l-90 -26l-41 92q-76 10 -188 10q-70 0 -123 -4t-125 -18 l-2 -176h209l8 100h82q0 -10 -2 -47t-2 -74q0 -106 10 -195.5t43 -183.5l-84 -31l-21 56h-243l2 -183q164 0 226 7.5t165 29.5l20 142l101 -15q-10 -59 -19.5 -146t-9.5 -231q0 -182 10.5 -257.5t18.5 -106.5l-101 -14l-18 127q-102 12 -299 15t-287 3h-59q-207 0 -277.5 -5 t-107.5 -13zM233 1845l9 43l55 -10q86 70 188.5 154t214.5 186q166 -150 259.5 -224.5t132.5 -105.5l49 23l12 -45q-117 -35 -192.5 -76t-131.5 -76l-22 37l37 23l-139 155q-43 -37 -86.5 -78t-55.5 -65l43 -25l-18 -43q-154 90 -355 127z" />
<glyph unicode="&#xeb;" horiz-adv-x="1263" d="M63 84l140 18q0 49 10 318.5t10 447.5q0 190 -10 393t-10 220l-140 20l13 101q51 -10 148.5 -15.5t236.5 -5.5q162 0 396.5 10.5t277.5 10.5l10 104l98 4q-2 -57 -3 -138t-1 -140q0 -172 15.5 -228.5t25.5 -77.5l-90 -26l-41 92q-76 10 -188 10q-70 0 -123 -4t-125 -18 l-2 -176h209l8 100h82q0 -10 -2 -47t-2 -74q0 -106 10 -195.5t43 -183.5l-84 -31l-21 56h-243l2 -183q164 0 226 7.5t165 29.5l20 142l101 -15q-10 -59 -19.5 -146t-9.5 -231q0 -182 10.5 -257.5t18.5 -106.5l-101 -14l-18 127q-102 12 -299 15t-287 3h-59q-207 0 -277.5 -5 t-107.5 -13zM291 1901q6 70 60.5 113.5t127.5 43.5q72 -6 118 -60t40 -128q0 -72 -57.5 -117t-130.5 -39q-70 0 -114 55.5t-44 131.5zM748 1901q6 72 59 114.5t127 42.5q72 -6 116 -60t44 -128q0 -72 -57.5 -117t-131.5 -39q-70 0 -113.5 56.5t-43.5 130.5z" />
<glyph unicode="&#xec;" horiz-adv-x="892" d="M63 84l140 18q0 49 10 318.5t10 447.5q0 190 -10 393t-10 220l-140 20l13 101q51 -10 148.5 -15.5t236.5 -5.5q170 0 254 4.5t141 16.5l14 -103l-139 -18q0 -55 -10 -258t-10 -355q0 -229 6 -404t14 -362l139 -18l-14 -102q-61 10 -149.5 14t-245.5 4q-207 0 -277.5 -5 t-107.5 -13zM90 2093q123 35 197.5 75t128.5 77l20 -39l-35 -23q66 -109 117 -181.5t131 -135.5l49 18l11 -43q-57 -14 -119 -47t-127 -80l-21 43l45 25q-61 72 -134.5 135.5t-198.5 153.5l-52 -23z" />
<glyph unicode="&#xed;" horiz-adv-x="892" d="M63 84l140 18q0 49 10 318.5t10 447.5q0 190 -10 393t-10 220l-140 20l13 101q51 -10 148.5 -15.5t236.5 -5.5q170 0 254 4.5t141 16.5l14 -103l-139 -18q0 -55 -10 -258t-10 -355q0 -229 6 -404t14 -362l139 -18l-14 -102q-61 10 -149.5 14t-245.5 4q-207 0 -277.5 -5 t-107.5 -13zM262 1841l10 43l50 -18q74 61 132 142t115 175l-34 23l22 39q53 -35 130 -77t192 -75l-11 -45l-51 23q-115 -82 -195 -150.5t-141 -138.5l45 -25l-20 -43q-61 45 -122.5 79t-121.5 48z" />
<glyph unicode="&#xee;" horiz-adv-x="892" d="M2 1845l10 43l56 -10q84 70 193.5 160t209.5 180q133 -123 226.5 -198.5t164.5 -131.5l51 23l11 -45q-117 -35 -193 -76t-131 -76l-20 37l32 23l-137 155q-43 -37 -88 -79t-55 -64l45 -25l-21 -43q-150 90 -354 127zM63 84l140 18q0 49 10 318.5t10 447.5q0 190 -10 393 t-10 220l-140 20l13 101q51 -10 148.5 -15.5t236.5 -5.5q170 0 254 4.5t141 16.5l14 -103l-139 -18q0 -55 -10 -258t-10 -355q0 -229 6 -404t14 -362l139 -18l-14 -102q-61 10 -149.5 14t-245.5 4q-207 0 -277.5 -5t-107.5 -13z" />
<glyph unicode="&#xef;" horiz-adv-x="892" d="M63 84l140 18q0 49 10 318.5t10 447.5q0 190 -10 393t-10 220l-140 20l13 101q51 -10 148.5 -15.5t236.5 -5.5q170 0 254 4.5t141 16.5l14 -103l-139 -18q0 -55 -10 -258t-10 -355q0 -229 6 -404t14 -362l139 -18l-14 -102q-61 10 -149.5 14t-245.5 4q-207 0 -277.5 -5 t-107.5 -13zM66 1901q0 70 55 113.5t131 43.5q72 -6 116 -60t44 -128q0 -70 -58.5 -116t-132.5 -40q-70 0 -112.5 55.5t-42.5 131.5zM520 1901q0 70 55.5 113.5t133.5 43.5q70 -6 113.5 -60t43.5 -128q-6 -72 -61 -117t-129 -39q-68 0 -112 56.5t-44 130.5z" />
<glyph unicode="&#xf1;" horiz-adv-x="1916" d="M63 84l140 18q0 49 10 318.5t10 447.5q0 229 -3 449.5t-5 349.5q74 -63 218.5 -183t367.5 -286t485 -328v72q0 195 -3 293t-17 246l-140 20l13 101q61 -8 159.5 -12.5t237.5 -4.5q176 0 250 3t135 14l14 -101l-143 -20q0 -27 -9 -287t-9 -477q0 -203 5 -515.5t5 -332.5 q-240 182 -447 324.5t-376.5 252t-249.5 162.5q2 -109 4 -235.5t16 -270.5l139 -18l-14 -102q-61 10 -149.5 14t-245.5 4q-207 0 -277.5 -5t-107.5 -13zM653 1950q35 12 75 22t77 10q76 0 168 -28.5t117 -28.5q45 0 75.5 10.5t53.5 22.5l-5 31h64l51 -228 q-27 -16 -63.5 -31.5t-85.5 -15.5q-80 0 -170 27.5t-117 27.5q-39 0 -70.5 -5t-58.5 -13l4 -31h-63z" />
<glyph unicode="&#xf2;" d="M59 762q0 340 235.5 579.5t575.5 239.5q338 0 578 -237.5t240 -577.5q0 -336 -238 -573.5t-576 -237.5q-340 0 -577.5 235.5t-237.5 571.5zM496 2093q121 35 194.5 75t128.5 77l23 -39l-37 -23q66 -109 117 -181.5t131 -135.5l49 18l8 -43q-57 -14 -121.5 -49t-120.5 -78 l-20 43l45 25q-66 76 -136.5 136.5t-197.5 152.5l-53 -23zM573 762q0 -119 86 -205t209 -86q121 0 207 84t86 207t-85 210t-208 87t-209 -86t-86 -211z" />
<glyph unicode="&#xf3;" d="M59 762q0 340 235.5 579.5t575.5 239.5q338 0 578 -237.5t240 -577.5q0 -336 -238 -573.5t-576 -237.5q-340 0 -577.5 235.5t-237.5 571.5zM573 762q0 -119 86 -205t209 -86q121 0 207 84t86 207t-85 210t-208 87t-209 -86t-86 -211zM668 1841l8 43l49 -18 q76 61 135.5 143t112.5 174l-37 23l22 39q55 -35 133 -77t191 -75l-12 -45l-49 23q-109 -80 -194 -151.5t-140 -137.5l43 -25l-64 -43q-47 37 -94 76q-51 37 -104 51z" />
<glyph unicode="&#xf4;" d="M59 762q0 340 235.5 579.5t575.5 239.5q338 0 578 -237.5t240 -577.5q0 -336 -238 -573.5t-576 -237.5q-340 0 -577.5 235.5t-237.5 571.5zM412 1845l8 43l55 -10q86 70 188.5 154t215.5 186q135 -123 227 -198.5t162 -131.5l53 23l10 -45q-117 -35 -192.5 -76 t-130.5 -76l-23 37l37 23l-137 155q-43 -37 -88 -78t-56 -65l43 -25l-20 -43q-150 90 -352 127zM573 762q0 -119 86 -205t209 -86q121 0 207 84t86 207t-85 210t-208 87t-209 -86t-86 -211z" />
<glyph unicode="&#xf5;" d="M59 762q0 340 235.5 579.5t575.5 239.5q338 0 578 -237.5t240 -577.5q0 -336 -238 -573.5t-576 -237.5q-340 0 -577.5 235.5t-237.5 571.5zM557 1950q33 12 72 22t80 10q70 0 162 -28.5t120 -28.5q45 0 75 10.5t52 22.5l-4 31h66l53 -228q-27 -16 -63.5 -31.5 t-86.5 -15.5q-74 0 -178 27.5t-110 27.5q-45 0 -79 -7t-48 -11l4 -31h-66zM573 762q0 -119 86 -205t209 -86q121 0 207 84t86 207t-85 210t-208 87t-209 -86t-86 -211z" />
<glyph unicode="&#xf6;" d="M59 762q0 340 235.5 579.5t575.5 239.5q338 0 578 -237.5t240 -577.5q0 -336 -238 -573.5t-576 -237.5q-340 0 -577.5 235.5t-237.5 571.5zM494 1901q0 70 55 113.5t131 43.5q72 -6 116 -60t44 -128q-6 -72 -61.5 -117t-129.5 -39q-70 0 -115.5 56.5t-39.5 130.5z M573 762q0 -119 86 -205t209 -86q121 0 207 84t86 207t-85 210t-208 87t-209 -86t-86 -211zM948 1901q0 70 55.5 113.5t131.5 43.5q72 0 117.5 -57t39.5 -131q0 -72 -57 -117t-131 -39q-70 0 -116 56.5t-40 130.5z" />
<glyph unicode="&#xf7;" horiz-adv-x="1124" d="M88 414v139h948v-139h-948zM446 207q0 49 36 83t81 34q49 0 82 -33t33 -84q0 -49 -35 -82q-31 -35 -80 -35t-83 36t-34 81zM446 758q0 49 36 82.5t81 33.5q49 0 82 -34.5t33 -81.5q0 -49 -35 -82q-31 -35 -80 -35t-83 34t-34 83z" />
<glyph unicode="&#xf8;" d="M59 762q0 340 235.5 579.5t575.5 239.5q162 0 304 -59l71 149l-141 21l63 98q135 -27 250 -27q111 0 285 27l-35 -100l-160 -19l-137 -260q150 -115 234 -281.5t84 -363.5q0 -336 -238 -573.5t-576 -237.5q-59 0 -108 6t-107 23l-45 -93l144 -20l-64 -102 q-123 14 -250 14q-135 0 -286 -14l37 102l157 20l94 183q-178 111 -282.5 292t-104.5 396zM573 762q1 -139 107 -223l258 510q-27 10 -70 10q-123 0 -209 -86t-86 -211zM901 473q111 10 185.5 93t74.5 196q0 85 -43 153z" />
<glyph unicode="&#xf9;" horiz-adv-x="1835" d="M63 1501l13 101q51 -10 148.5 -15.5t236.5 -5.5q170 0 254 4t141 17l14 -101l-139 -20q-12 -86 -16 -184.5t-4 -194.5v-189q0 -340 89 -383t111.5 -49t49.5 -6q43 0 103 26.5t99 124t39 287.5v144q0 156 -3 231.5t-17 192.5l-140 20l13 101q51 -10 148 -15.5t237 -5.5 q170 0 254 4t141 17l14 -101l-139 -20q0 -129 16.5 -374t16.5 -257q0 -260 -98.5 -477t-188.5 -269.5t-109.5 -62.5t-39.5 -18q-90 -35 -183.5 -52.5t-183.5 -17.5q-240 0 -416 110.5t-265 318.5t-89 468q0 76 16.5 295t16.5 336zM567 2093q121 35 195 75t129 77l22 -39 l-36 -23q66 -109 116.5 -181.5t130.5 -135.5l50 18l8 -43q-55 -14 -121 -49t-123 -78l-18 43l43 25q-61 72 -135 135.5t-199 153.5l-49 -23z" />
<glyph unicode="&#xfa;" horiz-adv-x="1835" d="M63 1501l13 101q51 -10 148.5 -15.5t236.5 -5.5q170 0 254 4t141 17l14 -101l-139 -20q-12 -86 -16 -184.5t-4 -194.5v-189q0 -340 89 -383t111.5 -49t49.5 -6q43 0 103 26.5t99 124t39 287.5v144q0 156 -3 231.5t-17 192.5l-140 20l13 101q51 -10 148 -15.5t237 -5.5 q170 0 254 4t141 17l14 -101l-139 -20q0 -129 16.5 -374t16.5 -257q0 -260 -98.5 -477t-188.5 -269.5t-109.5 -62.5t-39.5 -18q-90 -35 -183.5 -52.5t-183.5 -17.5q-240 0 -416 110.5t-265 318.5t-89 468q0 76 16.5 295t16.5 336zM672 1841l8 43l51 -18q76 63 128 136 t118 181l-37 23l23 39q55 -35 133 -77t190 -75l-10 -45l-51 23q-109 -80 -194 -151.5t-140 -137.5l43 -25l-19 -43q-61 45 -122.5 79t-120.5 48z" />
<glyph unicode="&#xfb;" horiz-adv-x="1835" d="M63 1501l13 101q51 -10 148.5 -15.5t236.5 -5.5q170 0 254 4t141 17l14 -101l-139 -20q-12 -86 -16 -184.5t-4 -194.5v-189q0 -340 89 -383t111.5 -49t49.5 -6q43 0 103 26.5t99 124t39 287.5v144q0 156 -3 231.5t-17 192.5l-140 20l13 101q51 -10 148 -15.5t237 -5.5 q170 0 254 4t141 17l14 -101l-139 -20q0 -129 16.5 -374t16.5 -257q0 -260 -98.5 -477t-188.5 -269.5t-109.5 -62.5t-39.5 -18q-90 -35 -183.5 -52.5t-183.5 -17.5q-240 0 -416 110.5t-265 318.5t-89 468q0 76 16.5 295t16.5 336zM481 1845l11 43l55 -10q84 70 193.5 160 t209.5 180q133 -123 226.5 -198.5t164.5 -131.5l52 23l10 -45q-117 -35 -191.5 -76t-130.5 -76l-22 37l35 23l-140 155q-43 -37 -88 -79t-55 -64l45 -25l-20 -43q-76 47 -161 77t-194 50z" />
<glyph unicode="&#xfc;" horiz-adv-x="1835" d="M63 1501l13 101q51 -10 148.5 -15.5t236.5 -5.5q170 0 254 4t141 17l14 -101l-139 -20q-12 -86 -16 -184.5t-4 -194.5v-189q0 -340 89 -383t111.5 -49t49.5 -6q43 0 103 26.5t99 124t39 287.5v144q0 156 -3 231.5t-17 192.5l-140 20l13 101q51 -10 148 -15.5t237 -5.5 q170 0 254 4t141 17l14 -101l-139 -20q0 -129 16.5 -374t16.5 -257q0 -260 -98.5 -477t-188.5 -269.5t-109.5 -62.5t-39.5 -18q-90 -35 -183.5 -52.5t-183.5 -17.5q-240 0 -416 110.5t-265 318.5t-89 468q0 76 16.5 295t16.5 336zM565 1901q0 70 55.5 113.5t133.5 43.5 q70 -6 113.5 -60t43.5 -128q0 -70 -58 -116t-132 -40q-70 0 -113 55.5t-43 131.5zM1020 1901q0 70 55 113.5t131 43.5q72 -6 116 -60t44 -128q-6 -72 -61.5 -117t-128.5 -39q-68 0 -112 56.5t-44 130.5z" />
<glyph unicode="&#xfd;" horiz-adv-x="1851" d="M27 1247q6 0 140 80t280.5 183.5t220.5 189.5l65 -66l-82 -94q94 -166 186.5 -282.5t168.5 -200.5q129 162 207.5 278.5t136.5 204.5l-58 92l80 60q88 -141 204 -253t212 -179.5t104 -67.5l-49 -84l-86 45q-170 -178 -312 -356.5t-270 -362.5t-339 -516l65 -90l-72 -61 q-135 129 -281.5 215t-250.5 128t-115 42l39 86l96 -35q4 0 66.5 62.5t161 178t186.5 244.5q-147 160 -268 278.5t-285 256.5l-112 -62zM618 1841l9 43l49 -18q74 59 133 142t115 175l-37 23l22 39q55 -35 133 -77t191 -75l-10 -45l-54 23q-113 -82 -193.5 -151.5 t-139.5 -137.5l45 -25l-21 -43q-59 47 -119.5 80t-122.5 47z" />
<glyph unicode="&#xff;" horiz-adv-x="1851" d="M27 1247q6 0 140 80t280.5 183.5t220.5 189.5l65 -66l-82 -94q94 -166 186.5 -282.5t168.5 -200.5q129 162 207.5 278.5t136.5 204.5l-58 92l80 60q88 -141 204 -253t212 -179.5t104 -67.5l-49 -84l-86 45q-170 -178 -312 -356.5t-270 -362.5t-339 -516l65 -90l-72 -61 q-135 129 -281.5 215t-250.5 128t-115 42l39 86l96 -35q4 0 66.5 62.5t161 178t186.5 244.5q-147 160 -268 278.5t-285 256.5l-112 -62zM610 1980q0 72 57.5 117t131.5 39q70 0 113.5 -55.5t43.5 -130.5q0 -70 -56 -114t-134 -44q-68 6 -112 60t-44 128zM1067 1980 q0 70 55.5 113t132.5 43q70 0 114 -55.5t44 -130.5q0 -68 -57.5 -113t-132.5 -45q-72 6 -114 59t-42 129z" />
<glyph unicode="&#x152;" horiz-adv-x="2213" d="M63 786q0 350 244 596t592 246q66 0 125 -9.5t133 -29.5q20 0 112.5 -4t170.5 -4q162 0 396.5 10.5t277.5 10.5l10 104l98 4q-2 -57 -3 -138t-1 -140q0 -143 13.5 -206t29.5 -100l-92 -26l-41 92q-76 10 -189 10q-70 0 -123 -4t-124 -18l-2 -176h208l9 100h82 q0 -10 -2 -47t-2 -74q0 -106 10 -195.5t43 -183.5l-84 -31l-19 56h-245l2 -183q166 0 226 6.5t167 30.5l20 142l99 -15q-10 -59 -19.5 -146t-9.5 -231q0 -182 10 -257.5t19 -106.5l-99 -14l-18 127q-102 12 -299 15t-289 3h-59q-98 0 -162 -2t-119 -4q-111 -41 -254 -41 q-352 0 -597 242.5t-245 590.5zM592 786q0 -123 90 -213t215 -90q127 0 215 88t88 215q0 125 -88 215.5t-215 90.5t-216 -89.5t-89 -216.5z" />
<glyph unicode="&#x153;" horiz-adv-x="2213" d="M63 786q0 350 244 596t592 246q66 0 125 -9.5t133 -29.5q20 0 112.5 -4t170.5 -4q162 0 396.5 10.5t277.5 10.5l10 104l98 4q-2 -57 -3 -138t-1 -140q0 -143 13.5 -206t29.5 -100l-92 -26l-41 92q-76 10 -189 10q-70 0 -123 -4t-124 -18l-2 -176h208l9 100h82 q0 -10 -2 -47t-2 -74q0 -106 10 -195.5t43 -183.5l-84 -31l-19 56h-245l2 -183q166 0 226 6.5t167 30.5l20 142l99 -15q-10 -59 -19.5 -146t-9.5 -231q0 -182 10 -257.5t19 -106.5l-99 -14l-18 127q-102 12 -299 15t-289 3h-59q-98 0 -162 -2t-119 -4q-111 -41 -254 -41 q-352 0 -597 242.5t-245 590.5zM592 786q0 -123 90 -213t215 -90q127 0 215 88t88 215q0 125 -88 215.5t-215 90.5t-216 -89.5t-89 -216.5z" />
<glyph unicode="&#x178;" horiz-adv-x="1851" d="M27 1247q6 0 140 80t280.5 183.5t220.5 189.5l65 -66l-82 -94q94 -166 186.5 -282.5t168.5 -200.5q129 162 207.5 278.5t136.5 204.5l-58 92l80 60q88 -141 204 -253t212 -179.5t104 -67.5l-49 -84l-86 45q-170 -178 -312 -356.5t-270 -362.5t-339 -516l65 -90l-72 -61 q-135 129 -281.5 215t-250.5 128t-115 42l39 86l96 -35q4 0 66.5 62.5t161 178t186.5 244.5q-147 160 -268 278.5t-285 256.5l-112 -62zM524 1974q0 70 56.5 116t130.5 40q70 0 115 -55.5t45 -130.5q-6 -72 -60.5 -115t-130.5 -43q-72 6 -114 59t-42 129zM979 1974 q0 70 56.5 116t130.5 40q70 0 114.5 -55.5t44.5 -130.5q-6 -72 -60 -115t-130 -43q-72 6 -117 61t-39 127z" />
<glyph unicode="&#x2c6;" horiz-adv-x="1001" d="M63 1845l9 43l55 -10q86 70 188.5 154t214.5 186q166 -150 259.5 -224.5t132.5 -105.5l51 23l10 -45q-117 -35 -192.5 -76t-131.5 -76l-22 37l37 23l-137 155q-43 -37 -88.5 -79t-55.5 -64l43 -25l-18 -43q-154 90 -355 127z" />
<glyph unicode="&#x2dc;" horiz-adv-x="763" d="M63 1950q33 12 72 22t80 10q72 0 162 -28.5t121 -28.5q57 0 86.5 11.5t42.5 21.5l-4 31h65l51 -228q-27 -16 -63.5 -31.5t-85.5 -15.5q-70 0 -176.5 27.5t-112.5 27.5q-45 0 -79 -7t-48 -11l4 -31h-65z" />
<glyph unicode="&#x2000;" horiz-adv-x="1210" />
<glyph unicode="&#x2001;" horiz-adv-x="2421" />
<glyph unicode="&#x2002;" horiz-adv-x="1210" />
<glyph unicode="&#x2003;" horiz-adv-x="2421" />
<glyph unicode="&#x2004;" horiz-adv-x="807" />
<glyph unicode="&#x2005;" horiz-adv-x="605" />
<glyph unicode="&#x2006;" horiz-adv-x="403" />
<glyph unicode="&#x2007;" horiz-adv-x="403" />
<glyph unicode="&#x2008;" horiz-adv-x="302" />
<glyph unicode="&#x2009;" horiz-adv-x="484" />
<glyph unicode="&#x200a;" horiz-adv-x="134" />
<glyph unicode="&#x2010;" horiz-adv-x="720" d="M63 1024h521l-4 33h63l51 -455h-520l4 -31h-65z" />
<glyph unicode="&#x2011;" horiz-adv-x="720" d="M63 1024h521l-4 33h63l51 -455h-520l4 -31h-65z" />
<glyph unicode="&#x2012;" horiz-adv-x="720" d="M63 1024h521l-4 33h63l51 -455h-520l4 -31h-65z" />
<glyph unicode="&#x2013;" horiz-adv-x="1630" d="M63 1024h1463l-4 33h65l49 -455h-1462l4 -31h-65z" />
<glyph unicode="&#x2014;" horiz-adv-x="2072" d="M63 1024h1919l-4 33h66l51 -455h-1921l4 -31h-65z" />
<glyph unicode="&#x2018;" horiz-adv-x="825" d="M63 1180q0 92 21.5 168.5t75 145.5t151.5 124.5t215 69.5l41 -74q-61 -8 -96 -24.5t-76 -51.5q29 8 76 8q63 0 108.5 -16.5t96.5 -53t89 -106.5t38 -153q0 -158 -101.5 -274t-250.5 -116q-156 0 -272 101.5t-116 251.5z" />
<glyph unicode="&#x2019;" horiz-adv-x="825" d="M63 1237q0 156 101.5 271.5t251.5 115.5q154 0 270.5 -102.5t116.5 -251.5q0 -90 -21.5 -166t-68.5 -139q-61 -76 -158.5 -131.5t-214.5 -69.5l-41 72q63 10 94 25.5t78 53.5q-29 -8 -82 -8q-49 0 -94 11.5t-100.5 52.5t-93.5 111.5t-38 154.5z" />
<glyph unicode="&#x201c;" horiz-adv-x="1642" d="M63 1180q0 92 21.5 168.5t75 145.5t151.5 124.5t215 69.5l41 -74q-61 -8 -96 -24.5t-76 -51.5q29 8 76 8q63 0 108.5 -16.5t96.5 -53t89 -106.5t38 -153q0 -158 -101.5 -274t-250.5 -116q-156 0 -272 101.5t-116 251.5zM911 1180q0 92 21.5 168.5t75 145.5t151.5 124.5 t215 69.5l41 -74q-61 -8 -96 -24.5t-76 -51.5q29 8 76 8q53 0 97 -12t101.5 -53t95.5 -111t38 -153q0 -158 -101.5 -274t-251.5 -116q-156 0 -271.5 101.5t-115.5 251.5z" />
<glyph unicode="&#x201d;" horiz-adv-x="1642" d="M63 1241q0 156 101.5 271.5t251.5 115.5q154 0 270.5 -102.5t116.5 -249.5q0 -92 -20.5 -168t-76 -145.5t-152.5 -125t-214 -69.5l-41 74q63 8 94 23.5t78 54.5q-29 -8 -78 -9q-51 0 -96 12.5t-101.5 52.5t-94.5 110.5t-38 154.5zM911 1241q0 156 101.5 271.5 t251.5 115.5q154 0 270.5 -102.5t116.5 -249.5q0 -92 -20.5 -168t-76 -145.5t-152.5 -125t-214 -69.5l-41 74q63 8 94 23.5t78 54.5q-29 -8 -78 -9q-51 0 -96 12.5t-101.5 52.5t-94.5 110.5t-38 154.5z" />
<glyph unicode="&#x2022;" horiz-adv-x="796" d="M63 1135q0 145 108 244.5t257 99.5q145 0 243.5 -108.5t98.5 -258.5q0 -145 -106.5 -244.5t-255.5 -99.5q-145 0 -245 107.5t-100 259.5z" />
<glyph unicode="&#x202f;" horiz-adv-x="484" />
<glyph unicode="&#x205f;" horiz-adv-x="605" />
<glyph unicode="&#x2122;" horiz-adv-x="1638" d="M80 1059v117h567v-117h-209v-555h-147v555h-211zM739 504v672h215l172 -431l187 431h211v-672h-142v555l-219 -555h-69l-213 555v-555h-142z" />
<glyph unicode="&#xe000;" horiz-adv-x="1751" d="M0 0v1751h1751v-1751h-1751z" />
<glyph unicode="&#xfb01;" horiz-adv-x="2162" d="M63 84l140 18q0 49 10 318.5t10 447.5q0 190 -10 393t-10 220l-140 20l13 101q51 -10 148.5 -15.5t236.5 -5.5q98 0 385.5 10.5t320.5 10.5l4 92l93 6q-8 -100 -9 -197q0 -100 10.5 -177t37.5 -220l-84 -21l-25 89q-70 12 -147.5 17t-169.5 5q-57 0 -96.5 -1t-67.5 -3 l-2 -221h225l18 73l86 -18q-8 -61 -12 -111.5t-4 -103.5q0 -139 51 -334l-92 -22l-33 104h-237q0 -14 9 -185t9 -272l139 -18l-14 -102q-61 10 -149.5 14t-245.5 4q-207 0 -277.5 -5t-107.5 -13zM1333 84l140 18q0 49 10 318.5t10 447.5q0 190 -10 393t-10 220l-140 20 l13 101q51 -10 148.5 -15.5t236.5 -5.5q170 0 254 4.5t141 16.5l14 -103l-139 -18q0 -55 -10 -258t-10 -355q0 -229 6 -404t14 -362l139 -18l-14 -102q-61 10 -149.5 14t-245.5 4q-207 0 -277.5 -5t-107.5 -13z" />
<glyph unicode="&#xfb02;" horiz-adv-x="2480" d="M63 84l140 18q0 49 10 318.5t10 447.5q0 190 -10 393t-10 220l-140 20l13 101q51 -10 148.5 -15.5t236.5 -5.5q98 0 385.5 10.5t320.5 10.5l4 92l93 6q-8 -100 -9 -197q0 -100 10.5 -177t37.5 -220l-84 -21l-25 89q-70 12 -147.5 17t-169.5 5q-57 0 -96.5 -1t-67.5 -3 l-2 -221h225l18 73l86 -18q-8 -61 -12 -111.5t-4 -103.5q0 -139 51 -334l-92 -22l-33 104h-237q0 -14 9 -185t9 -272l139 -18l-14 -102q-61 10 -149.5 14t-245.5 4q-207 0 -277.5 -5t-107.5 -13zM1333 84l140 18q0 49 10 318.5t10 447.5q0 190 -10 393t-10 220l-140 20 l13 101q51 -10 148.5 -15.5t236.5 -5.5q170 0 254 4t141 17l14 -103l-139 -18q0 -68 -10 -275t-10 -338l2 -366q10 0 24.5 -1t38.5 -1q72 0 156 10t164 37l34 137l105 -14q-27 -127 -39 -217.5t-12 -206.5q0 -156 33 -355h-99l-31 89q-94 0 -316 10t-310 10 q-207 0 -277.5 -5t-107.5 -13z" />
</font>
</defs>
</svg>
