<?xml version="1.0" standalone="no"?>
<!DOCTYPE svg PUBLIC "-//W3C//DTD SVG 1.1//EN" "http://www.w3.org/Graphics/SVG/1.1/DTD/svg11.dtd" >
<svg xmlns="http://www.w3.org/2000/svg">
<metadata></metadata>
<defs>
<font id="olympia-mediumcondregular" horiz-adv-x="929" >
<font-face units-per-em="2048" ascent="1638" descent="-410" />
<missing-glyph horiz-adv-x="593" />
<glyph horiz-adv-x="2048" />
<glyph horiz-adv-x="2048" />
<glyph unicode="&#xd;" horiz-adv-x="593" />
<glyph unicode=" "  horiz-adv-x="593" />
<glyph unicode="&#x09;" horiz-adv-x="593" />
<glyph unicode="&#xa0;" horiz-adv-x="593" />
<glyph unicode="!" horiz-adv-x="370" d="M92 1016v461h182v-461l-34 -639h-109zM98 0v256h176v-256h-176z" />
<glyph unicode="&#x22;" horiz-adv-x="530" d="M49 920v86q41 27 55.5 63.5t14.5 114.5v37l-70 -2v258h172v-244q0 -125 -39 -196.5t-133 -116.5zM311 920v86q39 25 55.5 65.5t16.5 110.5v39l-72 -2v258h174v-244q0 -123 -41 -196.5t-133 -116.5z" />
<glyph unicode="#" horiz-adv-x="270" d="M47 0v256h176v-256h-176z" />
<glyph unicode="$" horiz-adv-x="940" d="M59 373v112h183v-125q0 -209 180 -233v551l-78 47q-152 92 -209 176t-57 217q0 180 92 280.5t264 100.5v88h90v-88q170 -20 245 -103t75 -251v-78h-178v80q0 63 -6.5 95t-26 53.5t-46 34.5t-65.5 20v-521l84 -55q27 -14 55.5 -34.5t88 -68.5t95.5 -117t36 -173 q0 -180 -93.5 -285.5t-273.5 -124.5v-90h-96v90q-88 8 -148.5 36t-115.5 81q-94 94 -95 285zM256 1130q0 -86 38 -136t136 -97v449q-82 -14 -128 -70.5t-46 -145.5zM518 135q186 31 187 227q0 170 -187 256v-483z" />
<glyph unicode="%" horiz-adv-x="1249" d="M74 977v166v164q0 90 61.5 143t169.5 53q162 0 211 -108l14 -45q8 -23 9 -43v-164v-156q0 -98 -59.5 -151.5t-170.5 -53.5q-109 0 -172 51.5t-63 143.5zM215 995q0 -45 2 -56t16 -30q33 -29 72 -28q76 0 86 63l2 203l-2 194q-4 25 -29.5 42.5t-56.5 17.5 q-33 0 -58.5 -16.5t-29.5 -43.5l-2 -55v-143v-148zM279 0l569 1477h125l-572 -1477h-122zM713 162v162v170q0 90 63.5 145t169.5 55q104 0 167 -54t63 -146v-162l2 -82l-2 -80q0 -45 -21 -86q-20 -53 -75.5 -83t-133.5 -30q-100 0 -166.5 54.5t-66.5 136.5zM856 176 q0 -49 24.5 -77.5t65.5 -28.5q88 0 88 106v152v153q0 104 -88 105q-90 0 -90 -105v-153v-152z" />
<glyph unicode="&#x26;" horiz-adv-x="1005" d="M70 375q0 170 73.5 279.5t173.5 193.5q-122 186 -122 338q0 137 77.5 224t202.5 87q117 0 192.5 -82t75.5 -211q0 -113 -50 -206t-163 -187l203 -354q10 39 19.5 72.5t15.5 71.5t6 114h164q0 -63 -4 -99t-21.5 -109t-31 -112t-45.5 -116l157 -279h-202l-72 139 q-102 -168 -291 -168q-158 0 -258 113t-100 291zM250 397q0 -117 55 -194.5t139 -77.5q125 0 193 156l-238 424q-150 -141 -149 -308zM367 1200q0 -59 24.5 -127t67.5 -129q131 123 131 258q0 70 -32 116t-77 46q-49 0 -81.5 -45t-32.5 -119z" />
<glyph unicode="'" horiz-adv-x="274" d="M49 913v88q72 47 72 179v37h-72v260h178v-246q0 -125 -41 -197.5t-137 -120.5z" />
<glyph unicode="(" horiz-adv-x="397" d="M84 281v456v457q0 197 73.5 291t241.5 135v-113q-72 -29 -98.5 -71.5t-32.5 -77.5t-6 -127v-494v-493q0 -100 5 -130t32 -74t100 -73v-114q-176 43 -245.5 137t-69.5 291z" />
<glyph unicode=")" horiz-adv-x="393" d="M-2 -33q74 31 97.5 74t29.5 86t6 119v491v490q0 143 -21.5 181t-46 59.5t-65.5 37.5v115q92 -23 150.5 -56.5t108.5 -102t50 -283.5v-441v-442q0 -213 -67.5 -307t-241.5 -133v112z" />
<glyph unicode="*" horiz-adv-x="720" d="M47 1034l207 115l-205 113l53 94l203 -117v238h111v-238l205 117l53 -94l-207 -113l209 -115l-53 -96l-209 117v-238h-107v238l-207 -117z" />
<glyph unicode="+" d="M47 336v164h338v340h162v-340h338v-164h-338v-336h-162v336h-338z" />
<glyph unicode="," horiz-adv-x="274" d="M49 0v256h178v-244q0 -117 -42 -193.5t-136 -119.5v86q39 25 55.5 67t16.5 115l-2 33h-70z" />
<glyph unicode="-" horiz-adv-x="581" d="M45 549v164h494v-164h-494z" />
<glyph unicode="." horiz-adv-x="270" d="M47 0v256h176v-256h-176z" />
<glyph unicode="/" horiz-adv-x="536" d="M16 0l398 1477h108l-397 -1477h-109z" />
<glyph unicode="0" d="M80 737q0 147 6 258t20 195q29 150 122.5 232.5t236.5 82.5q199 0 271.5 -114.5t94 -233.5t21.5 -420q0 -154 -6 -258t-27.5 -222t-116 -202t-237.5 -84q-195 0 -295 150q-49 82 -69.5 203.5t-20.5 412.5zM270 737q0 -262 23 -403q6 -68 29 -111q20 -49 58 -76.5 t85 -27.5q70 0 115 55t62 182t17 383q0 399 -35.5 481.5t-73.5 110t-85 27.5q-147 0 -172 -217q-10 -61 -16.5 -174t-6.5 -230z" />
<glyph unicode="1" d="M127 1155v131q129 0 192.5 45t79.5 146h170v-1477h-186v1180z" />
<glyph unicode="2" d="M80 0q0 76 4 118t16 95q25 111 69 193.5t90 135t175 173.5t172 199.5t43 195.5t-45 182.5t-129 65.5q-184 0 -184 -283v-84h-191v99q0 190 99.5 299.5t273.5 109.5q176 0 276.5 -106.5t100.5 -294.5q0 -141 -56.5 -244.5t-187.5 -220.5t-169 -157t-71.5 -96t-52 -104.5 t-28.5 -115.5h555v-160h-760z" />
<glyph unicode="3" d="M82 348v98h188v-94q0 -113 49.5 -176t139.5 -63q199 0 198 313q0 152 -59 217.5t-201 65.5l-47 -2v149l39 -2q125 0 180.5 59.5t55.5 198.5q0 248 -164 248q-82 0 -129 -63.5t-47 -172.5v-65h-191v61q0 172 100.5 276.5t268.5 104.5q172 0 262 -102.5t90 -300.5 q0 -260 -188 -310q117 -23 172 -110.5t55 -251.5q0 -221 -101.5 -339t-289.5 -118q-176 0 -278.5 102.5t-102.5 276.5z" />
<glyph unicode="4" d="M66 377v135q70 158 106.5 247t83.5 210t90 244.5t88 261.5h199q-106 -303 -185 -475.5t-119 -251t-130 -236.5h348v518q23 31 30 44t27.5 49t44.5 110h82v-721h127v-139h-127v-373h-186v377h-479z" />
<glyph unicode="5" d="M86 334v84h188v-88q0 -213 175 -213q111 0 159.5 92t48.5 295q0 178 -43 257t-143 79q-133 0 -182 -154h-180l59 789h625v-154h-467l-41 -430q98 96 235 96q170 0 232.5 -99.5t81 -179t18.5 -196.5q0 -123 -25.5 -251t-127 -209t-250.5 -81q-172 0 -267.5 95.5 t-95.5 267.5z" />
<glyph unicode="6" d="M78 664q0 348 65.5 592.5t350.5 244.5q156 0 244.5 -85t88.5 -232v-47h-184v45q0 178 -147 178q-121 0 -175.5 -127t-54.5 -430q76 170 260 170q174 0 251 -128t77 -353q0 -229 -56.5 -332t-139.5 -147t-183 -44q-182 0 -265 103.5t-107.5 228.5t-24.5 363zM272 467 q0 -354 201 -354q190 0 191 362q0 188 -43 274.5t-142 86.5q-207 0 -207 -349v-20z" />
<glyph unicode="7" d="M84 1313v164h756v-191l-74 -123q-117 -209 -182.5 -431t-88 -348t-30.5 -191.5t-19 -192.5h-202q0 57 4 89t16 83q18 137 52 279.5t75 262.5t74 194.5t81 172t136 232.5h-598z" />
<glyph unicode="8" d="M82 422q0 317 217 385q-94 27 -136 99.5t-42 211.5q0 184 89 283.5t255 99.5t255 -99t89 -284q0 -141 -41 -214t-137 -97q217 -63 217 -385q0 -209 -102.5 -330t-280.5 -121t-280.5 120t-102.5 331zM272 422q0 -305 193 -305q190 0 190 309q0 303 -190 303 q-193 0 -193 -307zM305 1116q0 -240 160 -239q160 0 160 239q0 238 -160 238t-160 -238z" />
<glyph unicode="9" d="M76 973q0 240 59.5 340t139 143t178.5 43q186 0 268 -104.5t106.5 -235.5t24.5 -371q0 -336 -41 -499.5t-136 -240.5t-239 -77q-150 0 -243 85t-93 218v60h189l2 -49q0 -172 149 -172q143 0 173 133t38 182t8 152l7 92q-81 -176 -263 -176q-328 0 -327 477zM266 983 q0 -184 44 -265t145 -81q201 0 200 348q0 371 -198 371q-191 0 -191 -373z" />
<glyph unicode=":" horiz-adv-x="339" d="M82 0v256h176v-256h-176zM82 809v256h176v-256h-176z" />
<glyph unicode=";" horiz-adv-x="333" d="M78 0v256h178v-244q0 -66 -8 -108.5t-42 -102t-126 -102.5v86q39 25 55.5 64.5t16.5 113.5l-5 37h-69zM78 809v256h178v-256h-178z" />
<glyph unicode="&#x3c;" horiz-adv-x="520" d="M53 582l314 569l100 -37l-217 -532l213 -533l-92 -39z" />
<glyph unicode="=" d="M51 229v152h828v-152h-828zM51 459v149h828v-149h-828z" />
<glyph unicode="&#x3e;" horiz-adv-x="503" d="M53 47l201 535l-197 526l97 35l299 -561l-306 -572z" />
<glyph unicode="?" horiz-adv-x="776" d="M4 1022v88q0 186 96.5 288.5t274.5 102.5q168 0 265 -103.5t97 -281.5q0 -119 -36.5 -188.5t-66.5 -108.5t-85 -99.5t-81 -96t-46.5 -77.5t-20.5 -126v-47h-151v63q0 57 9 101.5t30.5 91.5t40 72.5t94.5 114.5t106.5 154.5t30.5 145.5q0 113 -53 180.5t-143 67.5 q-94 0 -147.5 -71.5t-53.5 -202.5v-68h-160zM236 0v256h178v-256h-178z" />
<glyph unicode="@" horiz-adv-x="1601" d="M119 786q0 158 63.5 288t214 265.5t286.5 150.5t183 15q274 0 451.5 -177t177.5 -451q0 -68 -17.5 -166.5t-71.5 -196.5t-113.5 -143t-101.5 -59.5t-85 -14.5q-59 0 -105.5 30.5t-54.5 60.5t-10 43t-2 38q-12 -37 -41 -70q-74 -88 -168 -88q-45 0 -152.5 46t-107.5 341 l8 72q14 100 47 175t86 139.5t111.5 93t118.5 28.5q121 0 176 -106l10 -21l18 111h101l-76 -436l-27 -174q-6 -41 -6 -70t2 -41q6 -12 16.5 -45t71.5 -33q14 0 37 8.5t46.5 26.5t60.5 63q39 41 67.5 110t37.5 126t11 88t2 59q0 233 -144 380t-372 147q-45 0 -182 -19.5 t-287.5 -204t-150.5 -440.5v-49q4 -23 16 -159t182 -297.5t402 -161.5q119 0 252 55t250 182l51 62l37 -88l-52 -60q-236 -248 -548 -248q-315 0 -517 230.5t-202 584.5zM586 596q0 -37 7 -68.5t19 -56.5q35 -74 121 -74q53 0 87 34t51.5 67.5t41 99.5t43.5 164l2 20l15 86 q6 47 6 76q0 31 -5 65.5t-43 69.5t-89 35q-25 0 -67 -17.5t-77.5 -65.5t-61.5 -124t-36 -130t-12 -91t-2 -90z" />
<glyph unicode="A" horiz-adv-x="925" d="M-27 0l355 1477h270l354 -1477h-204l-84 381h-402l-86 -381h-203zM299 541h328l-131 585l-13 78q-4 25 -10 52.5t-6 72.5h-8q0 -39 -5 -71.5t-10 -53.5l-14 -78z" />
<glyph unicode="B" horiz-adv-x="985" d="M111 0v1477h381q215 0 306 -89.5t91 -297.5q0 -287 -209 -314q242 0 242 -370q0 -209 -90.5 -307.5t-284.5 -98.5h-436zM301 147h207q217 0 217 273q0 150 -54.5 212t-183.5 62h-186v-547zM301 846h184q111 0 159 54t48 181q0 133 -48 189.5t-161 56.5h-182v-481z" />
<glyph unicode="C" horiz-adv-x="972" d="M80 694q0 231 20.5 367.5t68.5 233t143.5 149.5t213.5 53q109 0 194 -42t136 -125t51 -253v-69l-192 4v75v37q0 12 -2 28.5t-7.5 62t-54.5 94.5t-127 49q-131 0 -177 -107.5t-59.5 -228.5t-13.5 -317q0 -180 8.5 -273.5t34.5 -165.5q47 -151 193 -151h2q205 0 205 346v90 h190v-119l-6 -129q-18 -160 -118.5 -246t-270.5 -86q-117 0 -210 47.5t-139 129t-64.5 205.5t-18.5 341z" />
<glyph unicode="D" horiz-adv-x="1011" d="M111 0v1477h376q219 0 310.5 -102.5t106 -197t22.5 -234.5t8 -261q0 -242 -22.5 -354.5t-102.5 -220t-317 -107.5h-381zM301 154h168q150 0 198 76.5t60 176t12 328.5q0 231 -14 333.5t-51 158t-86 76t-119 20.5h-168v-1169z" />
<glyph unicode="E" horiz-adv-x="854" d="M111 0v1477h706v-160h-516v-473h471v-160h-471v-526h535v-158h-725z" />
<glyph unicode="F" horiz-adv-x="768" d="M111 0v1477h692v-162h-502v-467h457v-158h-457v-690h-190z" />
<glyph unicode="G" horiz-adv-x="1021" d="M84 719q0 240 20.5 372t94 271t323.5 139q180 0 283.5 -107.5t103.5 -289.5v-76h-188v82q0 113 -54.5 179.5t-146.5 66.5q-125 0 -169 -95.5t-58 -223.5t-14 -359q0 -203 12 -291t61 -182t172 -94q102 0 143.5 56t52.5 105.5t11 133.5v204h-242v156h433v-766h-158 l-16 121q-109 -150 -277 -150q-180 0 -261 113t-103.5 241t-22.5 394z" />
<glyph unicode="H" horiz-adv-x="1034" d="M111 0v1477h190v-650h432v650h193v-1477h-193v672h-432v-672h-190z" />
<glyph unicode="I" horiz-adv-x="411" d="M111 0v1477h190v-1477h-190z" />
<glyph unicode="J" horiz-adv-x="774" d="M-20 365v131h188v-142q0 -125 37 -182t121 -57q82 0 114.5 51t32.5 182v1129h193v-1104q0 -47 -2 -79t-24 -178.5t-318 -146.5q-180 0 -245 81t-81 143.5t-16 171.5z" />
<glyph unicode="K" horiz-adv-x="950" d="M111 0v1477h190v-707l440 707h220l-400 -623l422 -854h-217l-332 694l-133 -202v-492h-190z" />
<glyph unicode="L" horiz-adv-x="755" d="M111 0v1470h192v-1312h494v-158h-686z" />
<glyph unicode="M" horiz-adv-x="1353" d="M111 0v1477h301l221 -936l20 -113l19 -147h12q4 49 9 85.5t9.5 64.5t8.5 52.5t14 57.5l219 936h301v-1477h-188v987l6 164l6 209h-12l-37 -211q-12 -84 -17.5 -108.5t-11.5 -41.5l-221 -999h-190l-222 999l-28 150q-12 68 -18.5 108.5t-14.5 102.5h-14l10 -209l4 -164 v-987h-186z" />
<glyph unicode="N" horiz-adv-x="1085" d="M111 0v1477h260l344 -983q6 -14 16 -48t17.5 -56.5t19.5 -70t16 -65.5h13q0 72 -3 127t-8 129v967h189v-1477h-260l-348 977l-39 131q-12 45 -18.5 73.5t-14.5 69.5h-16q6 -37 10 -79t4 -68q4 -35 4 -70v-67v-967h-186z" />
<glyph unicode="O" horiz-adv-x="993" d="M80 737q0 143 8.5 256t26.5 199q33 145 134 229t247 84q203 0 283.5 -111.5t107 -245.5t26.5 -411q0 -285 -32.5 -442.5t-134 -240.5t-250.5 -83q-203 0 -281 109.5t-106.5 239t-28.5 417.5zM272 737q0 -184 16.5 -317t55.5 -220t154 -87q158 0 190.5 193.5t32.5 430.5 q0 387 -54.5 507t-170.5 120q-154 0 -189 -189.5t-35 -437.5z" />
<glyph unicode="P" horiz-adv-x="868" d="M111 0v1477h342q109 0 260 -38t151 -409q0 -422 -362 -422h-199v-608h-192zM301 758h154q119 0 171 64.5t52 215.5q0 158 -51.5 224.5t-173.5 66.5h-152v-571z" />
<glyph unicode="Q" horiz-adv-x="993" d="M80 737q0 285 33.5 442.5t135 241.5t247.5 84q203 0 283.5 -111.5t107 -245.5t26.5 -411l-6 -237q0 -137 -24.5 -222t-91 -176.5t-222.5 -128.5v-47v-24q0 -25 11.5 -35t27 -14.5t51.5 -4.5h99v-137h-137q-94 0 -115 4t-48.5 29t-33.5 46.5t-6 94.5v15v71 q-154 43 -217.5 131t-85.5 183q-35 178 -35 452zM272 745q0 -188 16.5 -323t55.5 -222t154 -87q158 0 190.5 193.5t32.5 430.5q0 387 -54.5 507t-170.5 120q-154 0 -189 -188.5t-35 -430.5z" />
<glyph unicode="R" horiz-adv-x="1001" d="M111 0v1477h405q209 0 300 -93.5t91 -310.5q0 -293 -207 -334q88 -10 130 -61t55.5 -102.5t13.5 -129.5v-264q0 -82 29 -182h-201q-18 90 -18 182v246q0 121 -39 161t-75 50t-110 10h-184v-649h-190zM301 797h191q117 0 167 60.5t50 203.5q0 231 -80 246.5t-96.5 17.5 t-49.5 2h-182v-530z" />
<glyph unicode="S" horiz-adv-x="960" d="M59 373v112h193v-125q0 -115 60.5 -179t166.5 -64q104 0 166 67.5t62 180.5q0 84 -37 137t-144 116l-172 103q-162 96 -219 178t-57 215q0 188 103.5 287.5t297.5 99.5q193 0 288 -88t95 -268v-78h-184v80l-6 82q-14 61 -64.5 96t-126.5 35q-213 0 -213 -232 q0 -94 38 -141t151 -113l164 -100q164 -96 222 -179t58 -212q0 -190 -113.5 -302t-306.5 -112q-205 0 -313.5 107.5t-108.5 296.5z" />
<glyph unicode="T" horiz-adv-x="768" d="M-35 1317v160h836v-160h-320v-1317h-190v1317h-326z" />
<glyph unicode="U" horiz-adv-x="1001" d="M111 426v1051h190v-1061v-60.5t10.5 -85t62.5 -107.5t126 -48q102 0 140 58t48 106.5t10 136.5v1061h193v-1051q0 -113 -22.5 -210t-125 -171t-243.5 -74q-86 0 -165 33t-132 86q-51 57 -71.5 131t-20.5 205z" />
<glyph unicode="V" horiz-adv-x="835" d="M-27 1477h201l205 -1022q14 -96 22.5 -149.5t8.5 -110.5h16q8 80 17.5 158.5t13.5 101.5l205 1022h200l-321 -1477l-250 -4z" />
<glyph unicode="W" horiz-adv-x="1417" d="M4 1477h199l153 -1028l15 -113l14 -166h14q0 63 1 78.5t10 85.5l16 115l164 1028h237l164 -1028l17 -115l10 -164h14q0 90 10 174q14 90 17 105l153 1028h201l-246 -1477h-274l-154 950q-6 49 -15 148.5t-9 177.5h-13l-12 -174l-14 -152l-154 -950h-274z" />
<glyph unicode="X" horiz-adv-x="899" d="M-33 0l363 774l-334 703h205l198 -428q29 -70 43 -160h15q8 57 17 91t26 69l198 428h205l-334 -703l363 -774h-211l-209 463q-23 51 -36 94t-19 94h-15q-8 -55 -18 -90t-37 -98l-211 -463h-209z" />
<glyph unicode="Y" horiz-adv-x="882" d="M-27 1477h209l217 -553q25 -72 35 -164h10q10 61 17.5 98t21.5 66l217 553h209l-379 -887v-590h-184v590z" />
<glyph unicode="Z" horiz-adv-x="892" d="M37 0v168l557 1057q25 47 35 59t45 37l-2 16q-39 -6 -72 -8t-61 -2h-463v150h778v-158l-559 -1065q-18 -33 -33.5 -53.5t-44.5 -46.5l2 -15q51 6 85 9.5t56 3.5h496v-152h-819z" />
<glyph unicode="[" horiz-adv-x="376" d="M102 -137v1753h254v-119h-92v-1517h92v-117h-254z" />
<glyph unicode="\" horiz-adv-x="618" d="M88 1475h184l258 -1475h-184z" />
<glyph unicode="]" horiz-adv-x="376" d="M20 -20h93v1517h-93v119h254v-1753h-254v117z" />
<glyph unicode="^" horiz-adv-x="600" d="M4 1251l164 242h266l164 -242l-158 -18l-139 194l-141 -194z" />
<glyph unicode="_" horiz-adv-x="913" d="M88 0h737v-66h-737v66z" />
<glyph unicode="`" horiz-adv-x="516" d="M4 1450l176 53l236 -229l-127 -29z" />
<glyph unicode="a" horiz-adv-x="899" d="M118 504q52 59 106.5 90t152.5 68l123 45q106 39 106 114v84q0 154 -162 154q-170 0 -170 -185v-53h-172v64q0 293 340 293q162 0 236 -51.5t92 -100.5t18 -147v-879h-161l-21 125q-82 -154 -254 -154q-286 0 -286 322q0 152 52 211zM252 305q0 -215 160 -215 q88 0 141 67.5t53 178.5v301q-31 -23 -39 -27t-57 -26l-72 -29q-113 -47 -149.5 -96t-36.5 -154z" />
<glyph unicode="b" horiz-adv-x="921" d="M111 0v1477h182v-445q84 145 246 146q80 0 147.5 -39t98 -103.5t44 -172t13.5 -265.5q0 -322 -38 -429.5t-107.5 -154.5t-153.5 -47q-178 0 -250 166v-133h-182zM293 668l2 -115q0 -156 4 -218.5t28.5 -142t143.5 -79.5q156 0 180 266q0 29 4 118t4 103 q0 217 -36.5 325.5t-151.5 108.5q-57 0 -102 -39t-58.5 -95t-15.5 -107.5t-2 -124.5z" />
<glyph unicode="c" horiz-adv-x="856" d="M78 573q0 180 14 271.5t55 169.5t125 121t191 43q90 0 164.5 -31t123 -94.5t48.5 -212.5v-66h-172v66q0 213 -166 213q-119 0 -149.5 -84t-39 -176.5t-8.5 -241.5q0 -262 43 -357.5t156 -95.5q164 0 164 238v86h174v-103q0 -166 -89 -257t-249 -91q-96 0 -173 35 t-128 100q-47 66 -65.5 165.5t-18.5 301.5z" />
<glyph unicode="d" horiz-adv-x="919" d="M78 514q0 68 6 182.5t6 116.5q0 174 80 268.5t215 94.5q164 0 244 -146v447h180v-1477h-178v133q-80 -164 -252 -164q-76 0 -137.5 33t-97 95.5t-51 158.5t-15.5 258zM264 553q0 -268 39 -358.5t141 -90.5q61 0 103.5 37t59 99.5t20.5 123t4 211.5q0 174 -4 235.5 t-22.5 114t-60.5 84t-95 31.5q-109 0 -138.5 -88t-38 -173t-8.5 -226z" />
<glyph unicode="e" horiz-adv-x="880" d="M80 569q0 199 13 287t53 164t121 117t186 41q98 0 176 -39t113.5 -103.5t48 -138.5t12.5 -211v-121h-541v-108q0 -190 43 -274.5t141 -84.5q164 0 164 234v65h185v-78q0 -166 -90.5 -258t-255.5 -92q-201 0 -270.5 104.5t-84 194.5t-14.5 301zM266 694h355l2 39 q0 172 -40 247t-130 75q-80 0 -122 -58.5t-57 -187.5z" />
<glyph unicode="f" horiz-adv-x="428" d="M0 1014v137h119v53q0 94 10 135t40 78t75 51.5t118 14.5h103v-140l-39 5q-74 0 -100.5 -35t-26.5 -135v-27h162v-137h-160v-1014h-182v1014h-119z" />
<glyph unicode="g" horiz-adv-x="921" d="M80 557q0 197 9 277.5t42 163.5t102.5 131.5t159.5 48.5q158 0 236 -148v121h184v-1135q0 -102 -16.5 -162.5t-82 -137t-268.5 -76.5q-158 0 -246.5 66.5t-88.5 187.5v28h182l-2 -16q0 -61 44 -101.5t114 -40.5q184 0 184 236v162q-76 -160 -258 -160q-164 0 -217.5 96.5 t-65.5 186.5t-12 272zM264 545q0 -139 6 -197.5t40 -136.5t139 -78q125 0 147 89t28.5 172t6.5 218v62q0 104 -2 138t-15.5 93.5t-56.5 98t-104 38.5q-123 0 -150 -100t-33 -176t-6 -201v-20z" />
<glyph unicode="h" horiz-adv-x="921" d="M111 0v1477h180v-449q102 147 260 148q127 0 197 -80q35 -35 49 -87.5t14 -152.5v-856h-180v823l-2 82q-6 57 -44 91t-98 34q-76 0 -136 -56t-60 -124v-850h-180z" />
<glyph unicode="i" horiz-adv-x="405" d="M111 0v1151h184v-1151h-184zM111 1247v230h186v-230h-186z" />
<glyph unicode="j" horiz-adv-x="405" d="M-49 -207h33q55 0 75.5 10.5t37 47t16.5 151.5v1149h182v-1178l-2 -32q0 -106 -6 -136t-45 -92.5t-203 -62.5h-88v143zM111 1247v230h184v-230h-184z" />
<glyph unicode="k" horiz-adv-x="843" d="M111 0v1477h180v-852l4 6l326 520h206l-297 -473l342 -678h-204l-283 575l-94 -129v-446h-180z" />
<glyph unicode="l" horiz-adv-x="401" d="M111 0v1477h180v-1477h-180z" />
<glyph unicode="m" horiz-adv-x="1400" d="M111 0v1151h182v-121q90 145 246 146q166 0 237 -154q102 152 252 152q70 0 129.5 -29t97 -85t37.5 -214v-846h-180v821q0 211 -151 211q-70 0 -120 -56t-50 -134v-842h-181v829l-2 76q0 53 -41 90t-98 37q-72 0 -124 -54t-52 -128v-850h-182z" />
<glyph unicode="n" horiz-adv-x="921" d="M111 0v1151h180v-131q98 156 262 156q63 0 119.5 -25t89.5 -69t42 -88t9 -150v-844h-184v821v82q0 55 -41 92t-101 37q-78 0 -136 -60.5t-58 -142.5v-829h-182z" />
<glyph unicode="o" horiz-adv-x="901" d="M80 573q0 186 12 280.5t49 164.5q37 76 120 119t194 43q104 0 184 -43t117 -112t51 -171t14 -281q0 -186 -12 -277t-49 -166t-120 -118t-196 -43q-106 0 -185 42t-114.5 112t-50 171t-14.5 279zM262 573q0 -270 25.5 -343.5t65.5 -104.5t96 -31q53 0 96 31t60.5 83 t25.5 138t8 229q0 262 -33 369q-41 111 -153 111q-119 0 -146.5 -80t-36 -171.5t-8.5 -230.5z" />
<glyph unicode="p" horiz-adv-x="919" d="M111 -340v1491h182v-133q68 158 242 158q78 0 145.5 -41t114.5 -145.5t47 -405.5q0 -299 -38 -407.5t-108.5 -157t-158.5 -48.5q-162 0 -246 144v-455h-180zM291 551q0 -168 4 -231.5t19.5 -107.5t59.5 -75t95 -31q53 0 96 33t66.5 110t23.5 333q0 244 -43 351t-145 107 q-57 0 -100 -38.5t-55.5 -93t-16.5 -136.5t-4 -221z" />
<glyph unicode="q" horiz-adv-x="913" d="M80 549q0 190 10 287.5t41 169.5q29 78 97.5 123t156.5 45q172 0 240 -162v139h182v-1491h-180v467q-78 -158 -246 -158q-76 0 -141.5 37t-100.5 99.5t-47 156.5t-12 287zM262 571q0 -260 37 -356q16 -51 56 -80t94 -29q125 0 147 90.5t26.5 151t4.5 201.5 q0 162 -4.5 234.5t-18.5 126t-57 90t-101 36.5q-53 0 -93 -32.5t-65.5 -116t-25.5 -316.5z" />
<glyph unicode="r" horiz-adv-x="544" d="M111 0v1151h178v-199q33 109 101.5 163t182.5 54v-186h-10q-92 0 -157 -45q-115 -70 -115 -266v-672h-180z" />
<glyph unicode="s" horiz-adv-x="811" d="M45 291v80h176v-76q0 -201 185 -201q82 0 129 49.5t47 132.5q0 70 -32 106t-54.5 52.5t-83.5 52.5l-97 60l-90 55q-90 61 -128 122.5t-38 152.5q0 141 91.5 220t252.5 79q330 0 330 -295v-56h-170v54q0 168 -157 168q-78 0 -123 -41t-45 -113t28.5 -102.5t57 -50 t92.5 -56.5l88 -53q145 -84 200.5 -156t55.5 -182q0 -158 -91 -241t-261 -83q-362 0 -363 322z" />
<glyph unicode="t" horiz-adv-x="473" d="M-4 1012v139h125v223h182v-223h176v-137h-178v-758l4 -63q0 -63 113 -64l61 2v-131h-112q-135 0 -195 51q-31 31 -41 70t-10 141v750h-125z" />
<glyph unicode="u" horiz-adv-x="921" d="M111 317v834h180v-823l2 -92q4 -55 43 -88t98 -33q78 0 137.5 65.5t59.5 153.5v817h182v-1151h-182v131q-92 -158 -264 -158q-66 0 -125.5 29t-87 70t-35.5 91t-8 154z" />
<glyph unicode="v" horiz-adv-x="745" d="M-27 1151h189l176 -750q12 -41 19.5 -95t7.5 -120h14q0 55 6 98.5t21 116.5l176 750h190l-291 -1151h-215z" />
<glyph unicode="w" horiz-adv-x="1220" d="M-6 1151h190l138 -737q10 -66 16 -112t6 -103h10q0 63 10.5 130.5t12.5 86.5l137 735h193l137 -735l10 -82q4 -33 9 -62.5t5 -72.5h9q0 49 4 76.5t8 52.5l10 86l137 737h193l-252 -1151h-211l-127 664l-23 235h-12q0 -74 -7 -136.5t-17 -115.5l-123 -647h-213z" />
<glyph unicode="x" horiz-adv-x="813" d="M-29 0l326 596l-299 555h209l151 -303q16 -31 25.5 -61.5t17.5 -69.5h11q12 76 41 131l151 303h209l-297 -555l326 -596h-209l-170 315q-37 70 -51 160h-11q-16 -96 -53 -160l-168 -315h-209z" />
<glyph unicode="y" horiz-adv-x="776" d="M-27 1151h199l182 -789q14 -68 21.5 -108.5t7.5 -95.5h8q10 74 19.5 141.5t17.5 97.5l178 754h197l-322 -1243q-20 -74 -37.5 -116t-48 -79t-82 -55t-141.5 -18l-125 6v147q35 -8 68 -8q74 0 101.5 40t47.5 114l6 53z" />
<glyph unicode="z" horiz-adv-x="749" d="M39 0v158l420 753q27 51 38 65.5t42 43.5q-39 -4 -73 -7t-67 -3h-333v141h641v-158l-408 -747q-18 -37 -36.5 -61.5t-49.5 -55.5q49 6 80 9t55 3h369v-141h-678z" />
<glyph unicode="{" horiz-adv-x="665" d="M88 737q57 0 94 41t37 107v667q0 74 44 116t128 42h187v-108h-25q-68 0 -92.5 -25t-24.5 -92v-578q0 -74 -49 -119t-104 -51q29 -4 91 -33.5t62 -136.5v-577q0 -70 23.5 -93.5t93.5 -23.5h25v-109h-187q-82 0 -127 41t-45 117v668q0 66 -37 106.5t-94 40.5z" />
<glyph unicode="|" horiz-adv-x="360" d="M88 0v1475h184v-1475h-184z" />
<glyph unicode="}" horiz-adv-x="665" d="M88 -127h25q70 0 94 24.5t24 92.5v577q0 109 61.5 137.5t92.5 32.5q-31 4 -92.5 33t-61.5 137v578q0 70 -23.5 93.5t-94.5 23.5h-25v108h186q84 0 129.5 -41t45.5 -117v-667q0 -63 35.5 -105.5t93.5 -42.5q-55 0 -92 -41t-37 -106v-668q0 -74 -46.5 -116t-128.5 -42h-186 v109z" />
<glyph unicode="~" horiz-adv-x="661" d="M4 1667q77 92 186 92q37 0 63 -4t123 -29.5t132 -25.5q59 0 108 51l43 -84q-72 -102 -174 -102q-37 0 -114.5 19.5t-130 32.5t-80.5 13q-63 0 -113 -55z" />
<glyph unicode="&#xa1;" horiz-adv-x="346" d="M84 0v459l37 643h102l39 -643v-459h-178zM86 1223v254h170v-254h-170z" />
<glyph unicode="&#xa2;" horiz-adv-x="856" d="M78 573q0 184 14 277.5t56 168.5t135 122q31 12 61.5 20t73.5 13v92h82v-92q154 0 226.5 -85t72.5 -249v-66h-172v66q0 182 -129 200v-929q129 0 129 225v86h174v-103q0 -162 -80 -256t-227 -94v-98h-76v98q-41 6 -64.5 12.5t-84 34t-107.5 92t-65.5 164t-18.5 301.5z M270 557q0 -244 27 -327t121 -126v930q-86 -25 -117 -123t-31 -354z" />
<glyph unicode="&#xa3;" horiz-adv-x="933" d="M80 651v105h143l-14 37l-14 28l-50 97q-59 115 -59 223q0 154 106.5 258t268.5 104q125 0 222 -65.5t153 -190.5l-148 -63q-76 160 -221 159q-86 0 -143.5 -59t-57.5 -149q0 -76 49 -168l45 -86q10 -25 26.5 -60t27.5 -67h311v-103h-289q8 -59 8 -108q0 -193 -114 -346 l37 2q66 0 138.5 -30t88.5 -34t49 -4q92 0 156 90l110 -65q-29 -49 -52 -75t-87.5 -68t-167.5 -42q-66 0 -153 32t-117.5 40t-65.5 8q-49 0 -86 -16.5t-78 -57.5v152q16 10 34 20.5t36 18.5q61 78 85 151.5t24 184.5q0 72 -19 147h-182z" />
<glyph unicode="&#xa4;" horiz-adv-x="1011" d="M88 434l123 123q-27 35 -43 87t-16 99q0 98 59 181l-121 116q29 41 68 76l127 -123q84 61 184 62q102 0 184 -60l123 123l21 -16q29 -25 51 -62l-121 -114q59 -84 59 -187q0 -102 -61 -186l123 -123l-17 -16l-16 -19l-41 -37l-121 123q-84 -61 -184 -61q-102 0 -184 63 l-127 -123l-19 17l-16 18l-19 19zM258 737q0 -83 61 -149q61 -61 152 -62q86 0 147.5 61.5t61.5 151.5q0 86 -61.5 147.5t-149.5 61.5t-149.5 -61.5t-61.5 -149.5z" />
<glyph unicode="&#xa5;" horiz-adv-x="1042" d="M53 1477h209l213 -553q12 -31 21.5 -69t17.5 -95h10q18 117 37 164l219 553h209l-299 -717h285v-117l-332 -4l-33 -49l15 -39h346l4 -113h-365v-438h-188v440l-340 -2l2 117l346 -2l-4 41l-12 49l-328 2v119h279z" />
<glyph unicode="&#xa7;" horiz-adv-x="1075" d="M59 618q0 180 220 338q-127 83 -127 228q0 135 112.5 227t278.5 92q174 0 277.5 -93t103.5 -255l-185 2q0 90 -52 144.5t-140 54.5q-76 0 -131.5 -51.5t-55.5 -122.5q0 -66 58 -117l61 -43l369 -240q76 -51 122 -103t46 -155q0 -168 -209 -325q106 -88 106 -228 q0 -139 -111.5 -234t-277.5 -95q-117 0 -211 47t-132 110.5t-49 104.5t-11 102l184 -2q0 -96 58.5 -156.5t152.5 -60.5q84 0 141.5 51t57.5 127q0 51 -20.5 84t-73.5 68l-392 254q-80 49 -125 99t-45 148zM250 635q0 -78 112 -150l306 -200q150 113 149 227q0 66 -47 113 l-61 49l-297 196q-162 -117 -162 -235z" />
<glyph unicode="&#xa8;" horiz-adv-x="403" d="M-45 1245v228h174v-228h-174zM274 1245v228h170v-228h-170z" />
<glyph unicode="&#xa9;" horiz-adv-x="1765" d="M119 739q0 152 57 291t166 248q111 111 251 167t292 56q150 0 289 -56t306 -223t167 -483q0 -317 -223.5 -540.5t-540.5 -223.5t-540.5 223.5t-223.5 540.5zM229 739q0 -133 49.5 -255t143.5 -216q92 -92 214 -142t249 -50t245.5 48t213 144.5t142.5 219t48 251.5 q0 131 -48 252t-141.5 215t-215 144.5t-248.5 50.5t-246 -48t-262.5 -194.5t-143.5 -419.5zM424 723q0 45 8 94t44 143.5t157 178.5t276 84h39.5t100.5 -15.5t184 -99.5l-68 -96q-76 63 -140 75.5t-101 12.5q-135 0 -235.5 -84t-115 -170t-14.5 -117q0 -135 84 -237.5 t165 -117t107 -14.5q106 0 201 60l47 33l68 -97q-66 -55 -143.5 -84.5t-165.5 -29.5q-211 0 -354.5 139t-143.5 342z" />
<glyph unicode="&#xaa;" horiz-adv-x="913" d="M88 1135q0 158 98.5 260t233.5 102q31 0 102.5 -15.5t132.5 -107.5l11 -18l8 -15v134h151v-687h-153v142l-6 -17l-9 -16q-33 -57 -96 -92t-141 -35q-66 0 -178.5 45t-147.5 240zM109 549v139h716v-139h-716zM245 1111q1 -14 5 -24q12 -72 57 -118.5t93.5 -55t62.5 -8.5 q45 0 114.5 32t84 99.5t14.5 100.5q0 14 -14.5 87.5t-73 100.5t-86 33t-43.5 6q-76 0 -135.5 -51t-75.5 -137l-2 -41q-2 -10 -1 -24z" />
<glyph unicode="&#xab;" horiz-adv-x="817" d="M53 582l307 569l97 -39l-211 -530l209 -533l-93 -39zM360 582l308 569l96 -39l-211 -530l209 -533l-90 -39z" />
<glyph unicode="&#xac;" horiz-adv-x="1208" d="M88 737v185h1032v-480h-147v295h-885z" />
<glyph unicode="&#xad;" horiz-adv-x="581" d="M45 549v164h494v-164h-494z" />
<glyph unicode="&#xae;" horiz-adv-x="1765" d="M119 739q0 152 57 291t166 248q111 111 251 167t292 56q150 0 289 -56t306 -223t167 -483q0 -317 -223.5 -540.5t-540.5 -223.5t-540.5 223.5t-223.5 540.5zM229 739q0 -133 49.5 -255t143.5 -216q92 -92 214 -142t249 -50t245.5 48t213 144.5t142.5 219t48 251.5 q0 131 -48 252t-141.5 215t-215 144.5t-248.5 50.5t-246 -48t-262.5 -194.5t-143.5 -419.5zM637 276v943h233q80 0 128.5 -12.5t101.5 -57.5t65.5 -106.5t12.5 -90.5q0 -96 -57.5 -162.5t-151.5 -82.5l-31 -2l289 -429h-158l-299 457v-457h-133zM770 780h78q90 0 141 43 t51 119q0 166 -182 166h-88v-328z" />
<glyph unicode="&#xb1;" horiz-adv-x="1124" d="M90 39v139h946v-139h-946zM90 539v139h404v250h139v-250h403v-139h-403v-250h-139v250h-404z" />
<glyph unicode="&#xb4;" horiz-adv-x="456" d="M88 1266l238 235l170 -51l-281 -209z" />
<glyph unicode="&#xb5;" horiz-adv-x="1179" d="M150 -285l4 119l4 182l-2 207l-4 195v502h188v-607q0 -145 28.5 -194t102.5 -49q117 0 194.5 165.5t77.5 417.5v267h189v-672q0 -92 19.5 -135t58.5 -43q41 0 64.5 42t23.5 126v28h43l2 -18v-27q0 -113 -48 -176t-137 -63q-100 0 -154 88t-54 264q-47 -182 -126 -267 t-198 -85q-86 0 -150 53q-57 55 -81 158l-2 -58q0 -133 65.5 -290.5t65.5 -186.5q0 -41 -22.5 -63.5t-63.5 -22.5q-47 0 -67.5 35t-20.5 108z" />
<glyph unicode="&#xb6;" horiz-adv-x="1228" d="M88 1065q0 170 118 290t288 120h647v-119h-647q-119 0 -203 -86t-84 -209q0 -119 84 -203t203 -84h137v488h125v-1262h-125v655h-137q-168 0 -287 119t-119 291zM889 0v1262h125v-1262h-125z" />
<glyph unicode="&#xb8;" horiz-adv-x="256" d="M86 -70h166v-176l-164 -143v70l107 112h-109v137z" />
<glyph unicode="&#xba;" horiz-adv-x="913" d="M88 1135v31t8 44q27 133 125 215t232 82h31.5t95.5 -17t163.5 -118.5t81.5 -234.5q0 -37 -6 -78q-27 -129 -129 -211t-233 -82q-37 0 -111 14.5t-150.5 90t-92 149.5t-15.5 115zM100 549v139h715v-139h-715zM240 1135l4 -41q27 -152 109.5 -170.5t107.5 -18.5 q78 0 135 51.5t74 135.5q4 33 4 45q0 123 -92 186q-53 41 -123 41q-47 0 -120 -34t-95 -152z" />
<glyph unicode="&#xbb;" horiz-adv-x="800" d="M53 47l197 535l-193 522l90 39l293 -561l-297 -572zM360 47l197 535l-192 522l92 39l291 -561l-295 -572z" />
<glyph unicode="&#xbf;" horiz-adv-x="802" d="M39 358q0 117 41 196t125 174t105.5 125t43 81t21.5 123v51h143v-68q0 -53 -6 -83.5t-13 -56.5t-23.5 -62.5t-34 -61t-94.5 -116t-107.5 -158t-30.5 -144.5q0 -113 53 -180t144 -67q96 0 149 73.5t53 204.5v66h156v-88q0 -184 -96.5 -289t-268.5 -105q-166 0 -263 103.5 t-97 281.5zM360 1223v254h175v-254h-175z" />
<glyph unicode="&#xc0;" horiz-adv-x="925" d="M-27 0l355 1477h270l354 -1477h-204l-84 381h-402l-86 -381h-203zM209 1847l176 53l236 -229l-127 -29zM299 541h328l-131 585l-13 78q-4 25 -10 52.5t-6 72.5h-8q0 -39 -5 -71.5t-10 -53.5l-14 -78z" />
<glyph unicode="&#xc1;" horiz-adv-x="925" d="M-27 0l355 1477h270l354 -1477h-204l-84 381h-402l-86 -381h-203zM299 541h328l-131 585l-13 78q-4 25 -10 52.5t-6 72.5h-8q0 -39 -5 -71.5t-10 -53.5l-14 -78zM321 1663l238 235l170 -51l-281 -209z" />
<glyph unicode="&#xc2;" horiz-adv-x="925" d="M-27 0l355 1477h270l354 -1477h-204l-84 381h-402l-86 -381h-203zM166 1648l164 242h266l164 -242l-158 -18l-139 194l-141 -194zM299 541h328l-131 585l-13 78q-4 25 -10 52.5t-6 72.5h-8q0 -39 -5 -71.5t-10 -53.5l-14 -78z" />
<glyph unicode="&#xc3;" horiz-adv-x="925" d="M-27 0l355 1477h270l354 -1477h-204l-84 381h-402l-86 -381h-203zM190 1730q68 88 156 88q23 0 52.5 -6t100 -27.5t105.5 -21.5q55 0 90 49l39 -78q-53 -96 -146 -96q-14 0 -35.5 4t-82.5 19q-57 18 -93 26t-55 8q-53 0 -92 -51zM299 541h328l-131 585l-13 78 q-4 25 -10 52.5t-6 72.5h-8q0 -39 -5 -71.5t-10 -53.5l-14 -78z" />
<glyph unicode="&#xc4;" horiz-adv-x="925" d="M-27 0l355 1477h270l354 -1477h-204l-84 381h-402l-86 -381h-203zM174 1534v238h186v-238h-186zM299 541h328l-131 585l-13 78q-4 25 -10 52.5t-6 72.5h-8q0 -39 -5 -71.5t-10 -53.5l-14 -78zM565 1534v238h185v-238h-185z" />
<glyph unicode="&#xc5;" horiz-adv-x="925" d="M-27 0l355 1477h12q-43 57 -43 98q0 70 47 119t117 49q59 0 105 -48t57 -118l2 -21q0 -16 -5.5 -35.5t-15.5 -43.5l348 -1477h-204l-84 381h-402l-86 -381h-203zM299 541h328l-131 585l-13 78q-4 25 -10 52.5t-6 72.5h-8q0 -39 -5 -71.5t-10 -53.5l-14 -78zM397 1577 q0 -27 18.5 -45.5t45.5 -18.5q63 0 63 64q0 27 -18.5 47.5t-44.5 20.5q-27 0 -45.5 -19.5t-18.5 -48.5z" />
<glyph unicode="&#xc6;" horiz-adv-x="1353" d="M-27 0l392 1477h950v-146h-508v-487h469v-150h-469v-553h528v-141h-708v397h-357l-102 -397h-195zM303 539h324v790h-125z" />
<glyph unicode="&#xc7;" horiz-adv-x="970" d="M80 694q0 231 20.5 367.5t68.5 233t143.5 149.5t213.5 53q109 0 194 -42t136 -125t51 -253v-69l-192 4v75v37q0 12 -2 28.5t-7.5 62t-54.5 94.5t-127 49q-131 0 -177 -107.5t-59.5 -228.5t-13.5 -317q0 -180 8.5 -273.5t34.5 -165.5q47 -152 195 -151q205 0 205 346v90 h190v-119l-6 -129q-18 -160 -118.5 -246t-270.5 -86q-117 0 -210 47.5t-139 129t-64.5 205.5t-18.5 341zM389 -66h166v-178l-164 -143v70l107 114h-109v137z" />
<glyph unicode="&#xc8;" horiz-adv-x="854" d="M111 0v1477h706v-160h-516v-473h471v-160h-471v-526h535v-158h-725zM172 1847l176 53l236 -229l-127 -29z" />
<glyph unicode="&#xc9;" horiz-adv-x="854" d="M111 0v1477h706v-160h-516v-473h471v-160h-471v-526h535v-158h-725zM287 1663l238 235l170 -51l-281 -209z" />
<glyph unicode="&#xca;" horiz-adv-x="854" d="M111 0v1477h706v-160h-516v-473h471v-160h-471v-526h535v-158h-725zM131 1648l164 242h266l164 -242l-158 -18l-139 194l-141 -194z" />
<glyph unicode="&#xcb;" horiz-adv-x="854" d="M111 0v1477h706v-160h-516v-473h471v-160h-471v-526h535v-158h-725zM180 1642v228h174v-228h-174zM499 1642v228h170v-228h-170z" />
<glyph unicode="&#xcc;" horiz-adv-x="411" d="M-45 1847l176 53l236 -229l-127 -29zM111 0v1477h190v-1477h-190z" />
<glyph unicode="&#xcd;" horiz-adv-x="411" d="M68 1663l238 235l170 -51l-281 -209zM111 0v1477h190v-1477h-190z" />
<glyph unicode="&#xce;" horiz-adv-x="411" d="M-88 1648l164 242h266l164 -242l-158 -18l-139 194l-141 -194zM111 0v1477h190v-1477h-190z" />
<glyph unicode="&#xcf;" horiz-adv-x="411" d="M-41 1642v228h174v-228h-174zM111 0v1477h190v-1477h-190zM278 1642v228h170v-228h-170z" />
<glyph unicode="&#xd1;" horiz-adv-x="1085" d="M111 0v1477h260l344 -983q6 -14 16 -48t17.5 -56.5t19.5 -70t16 -65.5h13q0 72 -3 127t-8 129v967h189v-1477h-260l-348 977l-39 131q-12 45 -18.5 73.5t-14.5 69.5h-16q6 -37 10 -79t4 -68q4 -35 4 -70v-67v-967h-186zM270 1730q68 88 156 88q23 0 52.5 -6t100 -27.5 t105.5 -21.5q55 0 90 49l39 -78q-53 -96 -146 -96q-14 0 -35.5 4t-82.5 19q-57 18 -93 26t-55 8q-53 0 -92 -51z" />
<glyph unicode="&#xd2;" horiz-adv-x="993" d="M80 737q0 143 8.5 256t26.5 199q33 145 134 229t247 84q203 0 283.5 -111.5t107 -245.5t26.5 -411q0 -285 -32.5 -442.5t-134 -240.5t-250.5 -83q-203 0 -281 109.5t-106.5 239t-28.5 417.5zM242 1847l176 53l236 -229l-127 -29zM272 737q0 -184 16.5 -317t55.5 -220 t154 -87q158 0 190.5 193.5t32.5 430.5q0 387 -54.5 507t-170.5 120q-154 0 -189 -189.5t-35 -437.5z" />
<glyph unicode="&#xd3;" horiz-adv-x="993" d="M80 737q0 143 8.5 256t26.5 199q33 145 134 229t247 84q203 0 283.5 -111.5t107 -245.5t26.5 -411q0 -285 -32.5 -442.5t-134 -240.5t-250.5 -83q-203 0 -281 109.5t-106.5 239t-28.5 417.5zM272 737q0 -184 16.5 -317t55.5 -220t154 -87q158 0 190.5 193.5t32.5 430.5 q0 387 -54.5 507t-170.5 120q-154 0 -189 -189.5t-35 -437.5zM356 1663l238 235l170 -51l-281 -209z" />
<glyph unicode="&#xd4;" horiz-adv-x="993" d="M80 737q0 143 8.5 256t26.5 199q33 145 134 229t247 84q203 0 283.5 -111.5t107 -245.5t26.5 -411q0 -285 -32.5 -442.5t-134 -240.5t-250.5 -83q-203 0 -281 109.5t-106.5 239t-28.5 417.5zM201 1648l164 242h266l164 -242l-158 -18l-139 194l-141 -194zM272 737 q0 -184 16.5 -317t55.5 -220t154 -87q158 0 190.5 193.5t32.5 430.5q0 387 -54.5 507t-170.5 120q-154 0 -189 -189.5t-35 -437.5z" />
<glyph unicode="&#xd5;" horiz-adv-x="993" d="M80 737q0 143 8.5 256t26.5 199q33 145 134 229t247 84q203 0 283.5 -111.5t107 -245.5t26.5 -411q0 -285 -32.5 -442.5t-134 -240.5t-250.5 -83q-203 0 -281 109.5t-106.5 239t-28.5 417.5zM225 1730q68 88 156 88q23 0 52.5 -6t100 -27.5t105.5 -21.5q55 0 90 49 l39 -78q-53 -96 -146 -96q-14 0 -35.5 4t-82.5 19q-57 18 -93 26t-55 8q-53 0 -92 -51zM272 737q0 -184 16.5 -317t55.5 -220t154 -87q158 0 190.5 193.5t32.5 430.5q0 387 -54.5 507t-170.5 120q-154 0 -189 -189.5t-35 -437.5z" />
<glyph unicode="&#xd6;" horiz-adv-x="993" d="M80 737q0 143 8.5 256t26.5 199q33 145 134 229t247 84q203 0 283.5 -111.5t107 -245.5t26.5 -411q0 -285 -32.5 -442.5t-134 -240.5t-250.5 -83q-203 0 -281 109.5t-106.5 239t-28.5 417.5zM227 1532v240h183v-240h-183zM272 737q0 -184 16.5 -317t55.5 -220t154 -87 q158 0 190.5 193.5t32.5 430.5q0 387 -54.5 507t-170.5 120q-154 0 -189 -189.5t-35 -437.5zM604 1532v240h182v-240h-182z" />
<glyph unicode="&#xd8;" horiz-adv-x="1017" d="M49 31l105 168l-35 118q-39 170 -39 414q0 289 33.5 447.5t134 242.5t244.5 84q102 0 170.5 -35.5t134.5 -105.5l88 129l82 -53l-105 -172q10 -45 21.5 -85t16.5 -79t9 -135.5t4 -206.5q0 -315 -32.5 -471t-131 -238t-251.5 -82q-92 0 -158 28t-133 103l-70 -131z M291 819q0 -84 2 -142.5t4 -113.5l8 -90l385 680q-8 84 -59 133t-131 49q-55 0 -100.5 -41t-69 -110.5t-31.5 -145t-8 -219.5zM324 279q0 -68 51 -117t123 -49q158 0 190.5 193.5t32.5 438.5q0 47 -4 141.5t-4 127.5l-387 -703z" />
<glyph unicode="&#xd9;" horiz-adv-x="1001" d="M111 426v1051h190v-1061v-60.5t10.5 -85t62.5 -107.5t126 -48q102 0 140 58t48 106.5t10 136.5v1061h193v-1051q0 -113 -22.5 -210t-125 -171t-243.5 -74q-86 0 -165 33t-132 86q-51 57 -71.5 131t-20.5 205zM246 1847l176 53l236 -229l-127 -29z" />
<glyph unicode="&#xda;" horiz-adv-x="1001" d="M111 426v1051h190v-1061v-60.5t10.5 -85t62.5 -107.5t126 -48q102 0 140 58t48 106.5t10 136.5v1061h193v-1051q0 -113 -22.5 -210t-125 -171t-243.5 -74q-86 0 -165 33t-132 86q-51 57 -71.5 131t-20.5 205zM360 1663l238 235l170 -51l-281 -209z" />
<glyph unicode="&#xdb;" horiz-adv-x="1001" d="M111 426v1051h190v-1061v-60.5t10.5 -85t62.5 -107.5t126 -48q102 0 140 58t48 106.5t10 136.5v1061h193v-1051q0 -113 -22.5 -210t-125 -171t-243.5 -74q-86 0 -165 33t-132 86q-51 57 -71.5 131t-20.5 205zM205 1648l164 242h266l164 -242l-158 -18l-139 194l-141 -194 z" />
<glyph unicode="&#xdc;" horiz-adv-x="1001" d="M111 426v1051h190v-1061v-60.5t10.5 -85t62.5 -107.5t126 -48q102 0 140 58t48 106.5t10 136.5v1061h193v-1051q0 -113 -22.5 -210t-125 -171t-243.5 -74q-86 0 -165 33t-132 86q-51 57 -71.5 131t-20.5 205zM238 1530v242h188v-242h-188zM580 1530v242h188v-242h-188z " />
<glyph unicode="&#xdf;" horiz-adv-x="919" d="M111 0v1120q0 92 11 173t100 144.5t222 63.5q174 0 266.5 -92t92.5 -266q0 -238 -178 -275q119 -18 174 -115.5t55 -287.5q0 -262 -87 -367.5t-300 -105.5l-55 2v145l34 -2q119 0 170.5 78t51.5 258q0 174 -57.5 250t-190.5 76h-8v133h20q193 0 193 219q0 106 -44 162.5 t-126 56.5q-47 0 -81 -18.5t-59.5 -60.5t-25.5 -156v-1135h-178z" />
<glyph unicode="&#xe0;" horiz-adv-x="899" d="M66 295q0 150 52 209t106.5 90t152.5 68l123 45q106 39 106 114v84q0 154 -162 154q-170 0 -170 -185v-53h-172v64q0 293 340 293q162 0 236 -51.5t92 -100.5t18 -147v-879h-161l-21 125q-82 -154 -254 -154q-287 0 -286 324zM194 1450l176 53l236 -229l-127 -29z M252 305q0 -215 160 -215q88 0 141 67.5t53 178.5v301q-31 -23 -39 -27t-57 -26l-72 -29q-113 -47 -149.5 -96t-36.5 -154z" />
<glyph unicode="&#xe1;" horiz-adv-x="899" d="M66 295q0 150 52 209t106.5 90t152.5 68l123 45q106 39 106 114v84q0 154 -162 154q-170 0 -170 -185v-53h-172v64q0 293 340 293q162 0 236 -51.5t92 -100.5t18 -147v-879h-161l-21 125q-82 -154 -254 -154q-287 0 -286 324zM252 305q0 -215 160 -215q88 0 141 67.5 t53 178.5v301q-31 -23 -39 -27t-57 -26l-72 -29q-113 -47 -149.5 -96t-36.5 -154zM309 1266l238 235l170 -51l-281 -209z" />
<glyph unicode="&#xe2;" horiz-adv-x="899" d="M66 295q0 150 52 209t106.5 90t152.5 68l123 45q106 39 106 114v84q0 154 -162 154q-170 0 -170 -185v-53h-172v64q0 293 340 293q162 0 236 -51.5t92 -100.5t18 -147v-879h-161l-21 125q-82 -154 -254 -154q-287 0 -286 324zM154 1251l164 242h266l164 -242l-158 -18 l-139 194l-141 -194zM252 305q0 -215 160 -215q88 0 141 67.5t53 178.5v301q-31 -23 -39 -27t-57 -26l-72 -29q-113 -47 -149.5 -96t-36.5 -154z" />
<glyph unicode="&#xe3;" horiz-adv-x="899" d="M66 295q0 150 52 209t106.5 90t152.5 68l123 45q106 39 106 114v84q0 154 -162 154q-170 0 -170 -185v-53h-172v64q0 293 340 293q162 0 236 -51.5t92 -100.5t18 -147v-879h-161l-21 125q-82 -154 -254 -154q-287 0 -286 324zM178 1333q68 88 156 88q23 0 52.5 -6 t100 -27.5t105.5 -21.5q55 0 90 49l39 -78q-53 -96 -146 -96q-14 0 -35.5 4t-82.5 19q-57 18 -93 26t-55 8q-53 0 -92 -51zM252 305q0 -215 160 -215q88 0 141 67.5t53 178.5v301q-31 -23 -39 -27t-57 -26l-72 -29q-113 -47 -149.5 -96t-36.5 -154z" />
<glyph unicode="&#xe4;" horiz-adv-x="899" d="M66 295q0 150 52 209t106.5 90t152.5 68l123 45q106 39 106 114v84q0 154 -162 154q-170 0 -170 -185v-53h-172v64q0 293 340 293q162 0 236 -51.5t92 -100.5t18 -147v-879h-161l-21 125q-82 -154 -254 -154q-287 0 -286 324zM174 1249v228h174v-228h-174zM252 305 q0 -215 160 -215q88 0 141 67.5t53 178.5v301q-31 -23 -39 -27t-57 -26l-72 -29q-113 -47 -149.5 -96t-36.5 -154zM535 1249v228h172v-228h-172z" />
<glyph unicode="&#xe5;" horiz-adv-x="899" d="M66 295q0 150 52 209t106.5 90t152.5 68l123 45q106 39 106 114v84q0 154 -162 154q-170 0 -170 -185v-53h-172v64q0 293 340 293q162 0 236 -51.5t92 -100.5t18 -147v-879h-161l-21 125q-82 -154 -254 -154q-287 0 -286 324zM252 305q0 -215 160 -215q88 0 141 67.5 t53 178.5v301q-31 -23 -39 -27t-57 -26l-72 -29q-113 -47 -149.5 -96t-36.5 -154zM274 1384q0 66 46 114t114 48q66 0 113 -47t47 -115q0 -66 -47 -112.5t-113 -46.5q-68 0 -114 46t-46 113zM365 1384q0 -29 20.5 -47t48.5 -18q66 0 66 65q0 29 -18.5 49.5t-47.5 20.5 t-49 -20.5t-20 -49.5z" />
<glyph unicode="&#xe6;" horiz-adv-x="1390" d="M63 297q0 160 53.5 215t103.5 83t134 58l105 37q141 55 141 127v84q0 152 -158 152q-174 0 -174 -185v-49h-174v74q0 135 88 209t252 74q225 0 283 -146q82 145 250 146q102 0 183 -49.5t116 -135.5q25 -51 35 -125.5t10 -193.5v-105h-535v-121q0 -348 187 -348 q76 0 119.5 60.5t43.5 169.5l2 65h177v-78q0 -156 -92.5 -250t-245.5 -94q-221 0 -310 191q-55 -102 -125 -148.5t-172 -46.5q-297 0 -297 330zM246 311q0 -109 42 -167t120 -58q145 0 204 197l-14 153l-2 86l4 107q-23 -20 -37 -27.5t-98 -42.5t-151.5 -71.5t-67.5 -176.5z M780 694h355v15q0 184 -39 265t-129 81q-187 -1 -187 -361z" />
<glyph unicode="&#xe7;" horiz-adv-x="856" d="M78 573q0 180 14 271.5t55 169.5t125 121t191 43q90 0 164.5 -31t123 -94.5t48.5 -212.5v-66h-172v66q0 213 -166 213q-119 0 -149.5 -84t-39 -176.5t-8.5 -241.5q0 -262 43 -357.5t156 -95.5q164 0 164 238v86h174v-103q0 -166 -89 -257t-249 -91q-96 0 -173 35 t-128 100q-47 66 -65.5 165.5t-18.5 301.5zM338 -59h166v-179l-164 -143v72l106 112h-108v138z" />
<glyph unicode="&#xe8;" horiz-adv-x="880" d="M80 569q0 199 13 287t53 164t121 117t186 41q98 0 176 -39t113.5 -103.5t48 -138.5t12.5 -211v-121h-541v-108q0 -190 43 -274.5t141 -84.5q164 0 164 234v65h185v-78q0 -166 -90.5 -258t-255.5 -92q-201 0 -270.5 104.5t-84 194.5t-14.5 301zM186 1450l176 53l236 -229 l-127 -29zM266 694h355l2 39q0 172 -40 247t-130 75q-80 0 -122 -58.5t-57 -187.5z" />
<glyph unicode="&#xe9;" horiz-adv-x="880" d="M80 569q0 199 13 287t53 164t121 117t186 41q98 0 176 -39t113.5 -103.5t48 -138.5t12.5 -211v-121h-541v-108q0 -190 43 -274.5t141 -84.5q164 0 164 234v65h185v-78q0 -166 -90.5 -258t-255.5 -92q-201 0 -270.5 104.5t-84 194.5t-14.5 301zM266 694h355l2 39 q0 172 -40 247t-130 75q-80 0 -122 -58.5t-57 -187.5zM299 1266l238 235l170 -51l-281 -209z" />
<glyph unicode="&#xea;" horiz-adv-x="880" d="M80 569q0 199 13 287t53 164t121 117t186 41q98 0 176 -39t113.5 -103.5t48 -138.5t12.5 -211v-121h-541v-108q0 -190 43 -274.5t141 -84.5q164 0 164 234v65h185v-78q0 -166 -90.5 -258t-255.5 -92q-201 0 -270.5 104.5t-84 194.5t-14.5 301zM143 1251l164 242h266 l164 -242l-158 -18l-139 194l-141 -194zM266 694h355l2 39q0 172 -40 247t-130 75q-80 0 -122 -58.5t-57 -187.5z" />
<glyph unicode="&#xeb;" horiz-adv-x="880" d="M80 569q0 199 13 287t53 164t121 117t186 41q98 0 176 -39t113.5 -103.5t48 -138.5t12.5 -211v-121h-541v-108q0 -190 43 -274.5t141 -84.5q164 0 164 234v65h185v-78q0 -166 -90.5 -258t-255.5 -92q-201 0 -270.5 104.5t-84 194.5t-14.5 301zM193 1245v228h174v-228 h-174zM266 694h355l2 39q0 172 -40 247t-130 75q-80 0 -122 -58.5t-57 -187.5zM512 1245v228h170v-228h-170z" />
<glyph unicode="&#xec;" horiz-adv-x="403" d="M-49 1450l176 53l236 -229l-127 -29zM111 0v1151h184v-1151h-184z" />
<glyph unicode="&#xed;" horiz-adv-x="403" d="M63 1266l238 235l170 -51l-281 -209zM111 0v1151h184v-1151h-184z" />
<glyph unicode="&#xee;" horiz-adv-x="403" d="M-92 1251l164 242h266l164 -242l-158 -18l-139 194l-141 -194zM111 0v1151h184v-1151h-184z" />
<glyph unicode="&#xef;" horiz-adv-x="403" d="M-45 1245v228h174v-228h-174zM111 0v1151h184v-1151h-184zM274 1245v228h170v-228h-170z" />
<glyph unicode="&#xf1;" horiz-adv-x="921" d="M111 0v1151h180v-131q98 156 262 156q63 0 119.5 -25t89.5 -69t42 -88t9 -150v-844h-184v821v82q0 55 -41 92t-101 37q-78 0 -136 -60.5t-58 -142.5v-829h-182zM188 1333q68 88 156 88q23 0 52.5 -6t100 -27.5t105.5 -21.5q55 0 90 49l39 -78q-53 -96 -146 -96 q-14 0 -35.5 4t-82.5 19q-57 18 -93 26t-55 8q-53 0 -92 -51z" />
<glyph unicode="&#xf2;" horiz-adv-x="901" d="M80 573q0 186 12 280.5t49 164.5q37 76 120 119t194 43q104 0 184 -43t117 -112t51 -171t14 -281q0 -186 -12 -277t-49 -166t-120 -118t-196 -43q-106 0 -185 42t-114.5 112t-50 171t-14.5 279zM197 1450l176 53l236 -229l-127 -29zM262 573q0 -270 25.5 -343.5 t65.5 -104.5t96 -31q53 0 96 31t60.5 83t25.5 138t8 229q0 262 -33 369q-41 111 -153 111q-119 0 -146.5 -80t-36 -171.5t-8.5 -230.5z" />
<glyph unicode="&#xf3;" horiz-adv-x="901" d="M80 573q0 186 12 280.5t49 164.5q37 76 120 119t194 43q104 0 184 -43t117 -112t51 -171t14 -281q0 -186 -12 -277t-49 -166t-120 -118t-196 -43q-106 0 -185 42t-114.5 112t-50 171t-14.5 279zM262 573q0 -270 25.5 -343.5t65.5 -104.5t96 -31q53 0 96 31t60.5 83 t25.5 138t8 229q0 262 -33 369q-41 111 -153 111q-119 0 -146.5 -80t-36 -171.5t-8.5 -230.5zM309 1266l238 235l170 -51l-281 -209z" />
<glyph unicode="&#xf4;" horiz-adv-x="901" d="M80 573q0 186 12 280.5t49 164.5q37 76 120 119t194 43q104 0 184 -43t117 -112t51 -171t14 -281q0 -186 -12 -277t-49 -166t-120 -118t-196 -43q-106 0 -185 42t-114.5 112t-50 171t-14.5 279zM154 1251l164 242h266l164 -242l-158 -18l-139 194l-141 -194zM262 573 q0 -270 25.5 -343.5t65.5 -104.5t96 -31q53 0 96 31t60.5 83t25.5 138t8 229q0 262 -33 369q-41 111 -153 111q-119 0 -146.5 -80t-36 -171.5t-8.5 -230.5z" />
<glyph unicode="&#xf5;" horiz-adv-x="901" d="M80 573q0 186 12 280.5t49 164.5q37 76 120 119t194 43q104 0 184 -43t117 -112t51 -171t14 -281q0 -186 -12 -277t-49 -166t-120 -118t-196 -43q-106 0 -185 42t-114.5 112t-50 171t-14.5 279zM178 1333q68 88 156 88q23 0 52.5 -6t100 -27.5t105.5 -21.5q55 0 90 49 l39 -78q-53 -96 -146 -96q-14 0 -35.5 4t-82.5 19q-57 18 -93 26t-55 8q-53 0 -92 -51zM262 573q0 -270 25.5 -343.5t65.5 -104.5t96 -31q53 0 96 31t60.5 83t25.5 138t8 229q0 262 -33 369q-41 111 -153 111q-119 0 -146.5 -80t-36 -171.5t-8.5 -230.5z" />
<glyph unicode="&#xf6;" horiz-adv-x="901" d="M80 573q0 186 12 280.5t49 164.5q37 76 120 119t194 43q104 0 184 -43t117 -112t51 -171t14 -281q0 -186 -12 -277t-49 -166t-120 -118t-196 -43q-106 0 -185 42t-114.5 112t-50 171t-14.5 279zM186 1247v230h172v-230h-172zM262 573q0 -270 25.5 -343.5t65.5 -104.5 t96 -31q53 0 96 31t60.5 83t25.5 138t8 229q0 262 -33 369q-41 111 -153 111q-119 0 -146.5 -80t-36 -171.5t-8.5 -230.5zM543 1247v230h172v-230h-172z" />
<glyph unicode="&#xf7;" horiz-adv-x="1124" d="M88 414v139h948v-139h-948zM446 207q0 49 36 83t81 34q49 0 82 -33t33 -84q0 -49 -35 -82q-31 -35 -80 -35t-83 36t-34 81zM446 758q0 49 36 82.5t81 33.5q49 0 82 -34.5t33 -81.5q0 -49 -35 -82q-31 -35 -80 -35t-83 34t-34 83z" />
<glyph unicode="&#xf8;" horiz-adv-x="917" d="M57 20l78 121q-37 113 -47 186.5t-10 233.5q0 197 12 290t50 168t120 118t189 43q88 0 146 -21.5t126 -81.5l70 105l71 -56l-80 -114l19 -105q20 -129 20 -334q0 -184 -12 -277t-71.5 -210t-291.5 -117q-92 0 -143 20.5t-110 82.5l-60 -103zM270 631q0 -129 19 -252 l321 539q-41 127 -155 126q-94 0 -139.5 -99t-45.5 -314zM303 236q25 -133 152 -134q72 0 116.5 53.5t55 145.5t10.5 223v39q0 70 -4 122t-6 91z" />
<glyph unicode="&#xf9;" horiz-adv-x="921" d="M111 317v834h180v-823l2 -92q4 -55 43 -88t98 -33q78 0 137.5 65.5t59.5 153.5v817h182v-1151h-182v131q-92 -158 -264 -158q-66 0 -125.5 29t-87 70t-35.5 91t-8 154zM207 1450l176 53l236 -229l-127 -29z" />
<glyph unicode="&#xfa;" horiz-adv-x="921" d="M111 317v834h180v-823l2 -92q4 -55 43 -88t98 -33q78 0 137.5 65.5t59.5 153.5v817h182v-1151h-182v131q-92 -158 -264 -158q-66 0 -125.5 29t-87 70t-35.5 91t-8 154zM319 1266l238 235l170 -51l-281 -209z" />
<glyph unicode="&#xfb;" horiz-adv-x="921" d="M111 317v834h180v-823l2 -92q4 -55 43 -88t98 -33q78 0 137.5 65.5t59.5 153.5v817h182v-1151h-182v131q-92 -158 -264 -158q-66 0 -125.5 29t-87 70t-35.5 91t-8 154zM164 1251l164 242h266l164 -242l-158 -18l-139 194l-141 -194z" />
<glyph unicode="&#xfc;" horiz-adv-x="921" d="M111 317v834h180v-823l2 -92q4 -55 43 -88t98 -33q78 0 137.5 65.5t59.5 153.5v817h182v-1151h-182v131q-92 -158 -264 -158q-66 0 -125.5 29t-87 70t-35.5 91t-8 154zM203 1247v230h174v-230h-174zM565 1247v230h172v-230h-172z" />
<glyph unicode="&#xff;" horiz-adv-x="776" d="M-27 1151h199l182 -789q14 -68 21.5 -108.5t7.5 -95.5h8q10 74 19.5 141.5t17.5 97.5l178 754h197l-322 -1243q-20 -74 -37.5 -116t-48 -79t-82 -55t-141.5 -18l-125 6v147q35 -8 68 -8q74 0 101.5 40t47.5 114l6 53zM141 1245v228h174v-228h-174zM460 1245v228h170v-228 h-170z" />
<glyph unicode="&#x152;" horiz-adv-x="1439" d="M80 711q0 330 42 490.5t137 218t339 57.5h803v-144h-508v-487h467v-146h-467v-559h528v-141h-805q-166 0 -234.5 8t-140 53t-116.5 202t-45 448zM264 721q0 -455 107 -547q23 -16 76 -24.5t159 -8.5h107v1196h-107h-57q-88 0 -114.5 -4t-65.5 -32.5t-72 -149.5t-33 -430z " />
<glyph unicode="&#x153;" horiz-adv-x="1423" d="M78 575q0 176 12 270.5t49 168t118 121t181 47.5q117 0 180.5 -41t116.5 -150q84 189 277 189q92 0 166.5 -44t119.5 -136.5t45 -309.5v-123h-532v-118q0 -346 193 -347q76 0 117.5 60.5t41.5 171.5v67h178v-84q0 -156 -90 -252t-239 -96q-205 0 -291 185 q-41 -98 -105.5 -140.5t-173.5 -42.5q-211 0 -271 112t-76.5 215t-16.5 277zM258 565q0 -131 8 -215t37 -168t141 -84q61 0 106.5 37t64 115t18.5 325q0 127 -4 202t-16.5 135.5t-58.5 100.5t-110 40q-123 0 -146.5 -93.5t-31.5 -181.5t-8 -213zM813 698h354v31 q0 326 -163 326q-191 -1 -191 -357z" />
<glyph unicode="&#x178;" horiz-adv-x="882" d="M-27 1477h209l217 -553q25 -72 35 -164h10q10 61 17.5 98t21.5 66l217 553h209l-379 -887v-590h-184v590zM195 1642v228h174v-228h-174zM514 1642v228h170v-228h-170z" />
<glyph unicode="&#x2000;" horiz-adv-x="950" />
<glyph unicode="&#x2001;" horiz-adv-x="1900" />
<glyph unicode="&#x2002;" horiz-adv-x="950" />
<glyph unicode="&#x2003;" horiz-adv-x="1900" />
<glyph unicode="&#x2004;" horiz-adv-x="633" />
<glyph unicode="&#x2005;" horiz-adv-x="475" />
<glyph unicode="&#x2006;" horiz-adv-x="316" />
<glyph unicode="&#x2007;" horiz-adv-x="316" />
<glyph unicode="&#x2008;" horiz-adv-x="237" />
<glyph unicode="&#x2009;" horiz-adv-x="380" />
<glyph unicode="&#x200a;" horiz-adv-x="105" />
<glyph unicode="&#x2010;" horiz-adv-x="581" d="M45 549v164h494v-164h-494z" />
<glyph unicode="&#x2011;" horiz-adv-x="581" d="M45 549v164h494v-164h-494z" />
<glyph unicode="&#x2012;" horiz-adv-x="581" d="M45 549v164h494v-164h-494z" />
<glyph unicode="&#x2013;" d="M47 344v152h836v-152h-836z" />
<glyph unicode="&#x2014;" horiz-adv-x="2039" d="M61 637v194h1917v-194h-1917z" />
<glyph unicode="&#x2018;" horiz-adv-x="276" d="M49 950v240q0 229 178 317v-86q-72 -43 -71 -172l2 -45h71v-254h-180z" />
<glyph unicode="&#x2019;" horiz-adv-x="274" d="M49 913v88q72 47 72 179v37h-72v260h178v-246q0 -125 -41 -197.5t-137 -120.5z" />
<glyph unicode="&#x201a;" horiz-adv-x="274" d="M49 0v256h178v-244q0 -117 -42 -193.5t-136 -119.5v86q39 25 55.5 67t16.5 115l-2 33h-70z" />
<glyph unicode="&#x201c;" horiz-adv-x="536" d="M49 952v238q0 121 40 195.5t132 121.5v-86q-70 -43 -69 -172l2 -45h69v-252h-174zM311 952v238q0 119 41 195.5t133 121.5v-86q-72 -43 -71 -172l2 -45h71v-252h-176z" />
<glyph unicode="&#x201d;" horiz-adv-x="530" d="M49 920v86q41 27 55.5 63.5t14.5 114.5v37l-70 -2v258h172v-244q0 -125 -39 -196.5t-133 -116.5zM311 920v86q39 25 55.5 65.5t16.5 110.5v39l-72 -2v258h174v-244q0 -123 -41 -196.5t-133 -116.5z" />
<glyph unicode="&#x201e;" horiz-adv-x="530" d="M49 0v254h172v-242q0 -121 -39 -192q-29 -45 -54.5 -69.5t-78.5 -51.5v86q37 25 53.5 68t16.5 116l-2 31h-68zM311 0v254h174v-242q0 -117 -32.5 -176t-61.5 -85.5t-80 -51.5v86q72 49 72 184l-2 31h-70z" />
<glyph unicode="&#x2022;" horiz-adv-x="294" d="M57 461v256h179v-256h-179z" />
<glyph unicode="&#x2026;" horiz-adv-x="2039" d="M195 125q0 61 43 104t104 43t104 -43t43 -104t-43 -104.5t-104 -43.5t-104 43t-43 105zM877 125q0 61 43 104t104 43t104 -43t43 -104t-43 -104.5t-104 -43.5t-104 43t-43 105zM1559 125q0 61 43 104t104 43t104 -43t43 -104t-43 -104.5t-104 -43.5t-104 43t-43 105z" />
<glyph unicode="&#x202f;" horiz-adv-x="380" />
<glyph unicode="&#x2039;" horiz-adv-x="520" d="M53 582l314 569l100 -37l-217 -532l213 -533l-92 -39z" />
<glyph unicode="&#x203a;" horiz-adv-x="503" d="M53 47l201 535l-197 526l97 35l299 -561l-306 -572z" />
<glyph unicode="&#x205f;" horiz-adv-x="475" />
<glyph unicode="&#x2122;" horiz-adv-x="1480" d="M88 1364v111h447v-111h-164v-627h-123v627h-160zM510 737l137 752h80l188 -445q35 -78 35 -139q0 57 35 139l191 445h79l138 -752h-123l-72 422l-2 23l-2 20v78l-20 -76l-9 -30l-4 -11l-184 -438h-51l-185 438l-4 11l-10 30l-20 76v-37.5t2 -40.5l-2 -20l-5 -23l-71 -422 h-121z" />
<glyph unicode="&#xe000;" horiz-adv-x="1146" d="M0 0v1147h1147v-1147h-1147z" />
</font>
</defs>
</svg>
