<?xml version="1.0" standalone="no"?>
<!DOCTYPE svg PUBLIC "-//W3C//DTD SVG 1.1//EN" "http://www.w3.org/Graphics/SVG/1.1/DTD/svg11.dtd" >
<svg xmlns="http://www.w3.org/2000/svg">
<metadata></metadata>
<defs>
<font id="kaleidoskopregular" horiz-adv-x="876" >
<font-face units-per-em="2048" ascent="1638" descent="-410" />
<missing-glyph horiz-adv-x="780" />
<glyph horiz-adv-x="2048" />
<glyph horiz-adv-x="2048" />
<glyph unicode="&#xd;" horiz-adv-x="780" />
<glyph unicode=" "  horiz-adv-x="780" />
<glyph unicode="&#x09;" horiz-adv-x="780" />
<glyph unicode="&#xa0;" horiz-adv-x="780" />
<glyph unicode="!" horiz-adv-x="724" d="M229 92q0 61 40 105.5t100 44.5q57 0 98 -43.5t41 -106.5q0 -61 -39 -104t-100 -43q-57 0 -98.5 43t-41.5 104zM233 1247q0 66 43 155t93 89q51 0 96 -88t45 -156q0 -195 -20.5 -361.5t-49 -305t-30.5 -138.5h-82q-2 0 -27 141.5t-46.5 322.5t-21.5 341z" />
<glyph unicode="&#x22;" d="M135 1417q0 39 39 73t68 34q37 0 72.5 -40t35.5 -67q0 -117 -24.5 -233.5t-51.5 -212.5h-65q-25 104 -49.5 226t-24.5 220zM571 1417q0 31 33 69t72 38t74.5 -39t35.5 -68q0 -113 -25.5 -231.5t-51.5 -214.5h-64q-25 104 -49.5 226t-24.5 220z" />
<glyph unicode="#" horiz-adv-x="958" d="M113 618v68h186v266h-186v68h186v434h68v-434h278v434h68v-434h184v-68h-184v-266h184v-68h-184v-436h-68v436h-278v-436h-68v436h-186zM367 686h278v266h-278v-266z" />
<glyph unicode="$" horiz-adv-x="880" d="M-6 186l153 185q92 -88 157 -121t123 -40t79 -7q66 0 112 19.5t58 56t12 47v16.5q0 39 -29.5 74t-100.5 68.5t-144.5 69.5t-141 62.5t-124 86t-56.5 128.5q0 27 25.5 87.5t95.5 104.5t201 44v350h65v-348q61 0 135 -43q53 -35 80 -49l72 76l63 -41l-114 -183 q-102 96 -171 125t-182 29q-45 0 -87 -31.5t-42 -70.5q0 -49 131.5 -103.5t253 -117t172 -135t50.5 -142.5q0 -121 -99.5 -193.5t-261.5 -72.5v-348h-65v352l-47 8q-57 8 -109.5 32.5t-120.5 65.5l-88 -94z" />
<glyph unicode="%" horiz-adv-x="1579" d="M92 1028q0 174 98.5 308t239.5 134q145 0 250.5 -123.5t105.5 -293.5q0 -174 -96 -306.5t-239 -132.5t-251 124t-108 290zM201 1153q0 -53 15 -109.5t55 -130t114 -127t143 -53.5q39 0 74 19q78 49 78 180q0 51 -14 108.5t-45 110.5q-51 92 -128 146.5t-149 54.5 q-37 0 -69.5 -20.5t-53 -69t-20.5 -109.5zM285 -33l923 1417l39 -30l-923 -1420zM825 342q0 174 97.5 307t238.5 133q145 0 251 -123.5t106 -293.5q0 -174 -96.5 -306.5t-239.5 -132.5q-147 0 -252 123t-105 293zM932 465q0 -53 15.5 -109.5t55 -129t114.5 -127t145 -54.5 q41 0 74.5 19.5t54 67.5t20.5 112q0 111 -59 217q-51 92 -128 147.5t-147 55.5q-37 0 -91 -34t-54 -165z" />
<glyph unicode="&#x26;" horiz-adv-x="1368" d="M86 457q0 70 21.5 130t60.5 98t94 79t162 108q-41 80 -64.5 143.5t-23.5 119.5q0 31 15.5 98t87 123.5t171.5 56.5q12 0 28.5 -2t70 -9t123 -78t69.5 -136q0 -66 -66.5 -128.5t-136 -119.5t-131.5 -90l27 -33q92 -162 191.5 -323.5t175.5 -251.5q66 125 65 284 q0 68 -17.5 111t-54.5 43q-49 0 -57 -4q-16 -18 -41 -43l-22 35q47 59 87 92t80 33q37 0 68 -29q78 -63 139 -64q37 0 78 16.5t82 35.5v-74q-16 -6 -69.5 -11t-100.5 -50.5t-107.5 -219.5t-80.5 -211q80 -86 143 -86q16 0 29 6l-43 -182q-33 0 -84 46t-119 128 q-72 -57 -153 -83.5t-167 -26.5q-33 0 -49 2q-104 0 -202.5 46t-188.5 143t-90 278zM227 516q0 -74 32 -149.5t80 -119.5t104.5 -84t101.5 -54.5t100 -14.5q68 0 130.5 15.5t113.5 52.5q-78 104 -178.5 258.5t-153.5 245t-86 145.5q-45 -14 -96 -53t-99.5 -93.5 t-48.5 -148.5zM438 1137q0 -51 21.5 -104.5t60.5 -112.5q96 55 183.5 135t87.5 139q0 36 -39 63q-37 23 -76 37.5t-76 14.5q-80 0 -121 -59.5t-41 -112.5z" />
<glyph unicode="'" horiz-adv-x="483" d="M135 1417q0 39 39 73t68 34q37 0 72.5 -40t35.5 -67q0 -117 -24.5 -233.5t-51.5 -212.5h-65q-25 104 -49.5 226t-24.5 220z" />
<glyph unicode="(" horiz-adv-x="581" d="M96 590q0 262 90 502.5t183.5 348t109.5 107.5q23 0 17 -37q-174 -221 -219.5 -405t-45.5 -522q0 -260 11.5 -383t68 -250t185.5 -277q12 -18 12 -32q0 -18 -16 -19q-25 0 -122.5 115t-185.5 349.5t-88 502.5z" />
<glyph unicode=")" horiz-adv-x="581" d="M111 -352q0 12 98 126.5t142 291t44 524.5q0 238 -15 373t-71.5 263t-183.5 283q0 39 20 39q16 0 110.5 -110.5t182.5 -347t88 -506.5q0 -262 -89 -494.5t-251 -421.5q-29 -43 -55 -43q-20 0 -20 23z" />
<glyph unicode="*" horiz-adv-x="1095" d="M135 1126q0 8 12.5 45t77.5 37q14 0 23.5 -3t126.5 -78.5t205 -102.5q0 92 -25 179t-51 183q0 39 25.5 67t62.5 28t61.5 -27t24.5 -68q0 -6 -35 -139t-35 -223q100 33 194.5 102.5t119 77.5t39.5 8q63 0 83 -57q6 -12 7 -27q0 -29 -18.5 -52t-45 -32.5t-49.5 -11.5 t-57 -2h-54q-59 0 -102 -5t-109 -26q51 -72 159 -156.5t120 -101t12 -49.5q0 -43 -28.5 -63.5t-55.5 -20.5q-47 0 -62.5 20.5t-66.5 151.5t-102 199q-49 -68 -98.5 -199t-66.5 -154.5t-67 -23.5q-25 0 -52 20.5t-27 67.5q0 31 10 44.5t118.5 101.5t159.5 161 q-55 18 -108 25.5t-105 7.5h-84q-41 0 -69.5 9.5t-48 34t-19.5 52.5z" />
<glyph unicode="+" horiz-adv-x="1189" d="M133 483v72h449v477h65v-477h453v-72h-453v-477h-65v477h-449z" />
<glyph unicode="," horiz-adv-x="712" d="M102 -365l258 410q-55 0 -104 40t-49 112q0 74 45 127t113 53t112.5 -51t44.5 -129q0 -39 -11 -65t-73 -114l-311 -424z" />
<glyph unicode="-" horiz-adv-x="866" d="M205 647v88h459v-88h-459z" />
<glyph unicode="." horiz-adv-x="712" d="M203 152q0 66 45 110.5t110 44.5q66 0 112 -43.5t46 -111.5q0 -66 -45 -111t-113 -45q-63 0 -109 46t-46 110z" />
<glyph unicode="/" horiz-adv-x="1032" d="M57 -133l885 1515l45 -26l-885 -1516z" />
<glyph unicode="0" horiz-adv-x="886" d="M53 428q0 184 110.5 334.5t270.5 150.5q158 0 277.5 -140t119.5 -320q0 -184 -110.5 -327.5t-269.5 -143.5q-162 0 -280 132t-118 314zM197 518q0 -78 17 -152.5t57 -142t93.5 -115t110.5 -47.5q63 0 113.5 44.5t73 124t22.5 171.5q0 72 -14 142t-45 121 q-45 78 -104.5 119.5t-121.5 41.5q-66 0 -113.5 -38.5t-68 -111.5t-20.5 -157z" />
<glyph unicode="1" horiz-adv-x="720" d="M68 0v90h225v490q0 121 -30 169t-109 48q-14 0 -33 -2t-29 -2v94q115 4 236 10t147 33v-840h227v-90h-634z" />
<glyph unicode="2" horiz-adv-x="972" d="M41 629q0 29 31.5 97.5t134 124.5t233.5 56q129 0 210 -40t129 -111.5t48 -122.5q0 -80 -71.5 -161t-142 -127t-204 -115.5t-165.5 -98.5l594 -2v96h88l2 -221h-862l4 125l446 250q133 84 133 182q0 43 -29.5 94.5t-111.5 89t-166 37.5q-53 0 -93 -17t-54.5 -50 t-14.5 -49q0 -14 17 -31l63 14l41 -55l-209 -88q-51 70 -51 123z" />
<glyph unicode="3" horiz-adv-x="935" d="M8 -268l191 196q51 -98 125.5 -159.5t169.5 -61.5q29 0 96 18.5t115.5 103.5t48.5 194q0 102 -41 180t-90.5 85t-61.5 7q-43 0 -77.5 -14.5t-92.5 -47.5l-10 97q137 45 213 75.5t76 135.5q0 121 -100.5 197.5t-221.5 76.5q-66 0 -117 -25.5t-76.5 -76.5t-25.5 -74 q0 -20 27 -64l71 41l25 -47l-203 -108q-29 63 -29 121q0 29 2.5 43t34 103t141 149.5t263.5 60.5q139 0 223 -56.5t111.5 -123t27.5 -105.5q0 -76 -48 -154.5t-146 -127.5q31 8 57 8q43 0 78 -23q35 -31 49 -41q59 -47 89 -115.5t30 -148.5q0 -168 -112.5 -308t-276.5 -140 q-18 0 -60.5 -2t-44.5 -2q-80 0 -150.5 31.5t-146.5 127.5l-73 -86z" />
<glyph unicode="4" horiz-adv-x="1005" d="M92 -23v101q106 111 216 237.5t228.5 284.5t204.5 301q41 20 90.5 48t90.5 59l2 -967h73v-64l-73 -2l-2 -346l-168 -6v352zM168 41h586v39v67v80v78v74v63v56v49v41v33v28v25q0 33 -1 60.5t-1 49.5q-53 -121 -172 -274.5t-235 -280.5t-177 -188z" />
<glyph unicode="5" horiz-adv-x="960" d="M45 -260l174 186q45 -98 122 -160.5t173 -62.5q27 0 88.5 13.5t111.5 101.5t50 202q0 86 -25.5 160t-82 135.5t-114 96t-122.5 34.5q-66 0 -133.5 -40.5t-134.5 -131.5l-101 58l160 618q72 -39 139.5 -51t175.5 -12q78 6 121 30.5t135 94.5l35 -54q-45 -82 -112.5 -140 t-126 -72.5t-89.5 -14.5q-59 0 -125.5 36t-101.5 54l-121 -413q94 68 141.5 99.5t123.5 31.5q158 0 265 -38t183 -147q33 -49 52.5 -114.5t19.5 -130.5q0 -172 -97.5 -314.5t-192.5 -159t-127 -20.5t-63 -4q-76 0 -139 37t-137 131l-78 -98z" />
<glyph unicode="6" horiz-adv-x="1005" d="M59 668q0 84 12.5 153.5t54.5 197.5t154.5 218t243.5 90q25 4 41 4q80 0 172 -40t111 -48l-90 -231l-58 39l37 88q-27 45 -69.5 58t-118.5 25.5t-88 12.5q-113 0 -167 -117t-81 -344q158 98 346 98q82 0 146.5 -19t128 -72.5t93 -148.5t29.5 -204q0 -174 -120.5 -305 t-292.5 -131q-168 0 -287 118.5t-158 276.5t-39 281zM211 682q0 -127 28.5 -239.5t104.5 -177t145.5 -92.5t133.5 -28q102 1 165 58q72 61 72 174q0 66 -25.5 129t-86 132t-139.5 106.5t-154 37.5q-137 0 -244 -100z" />
<glyph unicode="7" horiz-adv-x="903" d="M45 655v287h840l2 -180q-203 -166 -337 -364.5t-134 -391.5q0 -57 8 -101t33.5 -104.5t74 -98.5t111.5 -69q-49 -25 -112.5 -50t-120.5 -25q-18 0 -35 6q-66 68 -95.5 157t-29.5 173q0 160 83 315.5t213 308t242 281.5l-677 2l-2 -146h-64z" />
<glyph unicode="8" horiz-adv-x="935" d="M47 408q0 207 191 360q-100 125 -101 233q0 137 93.5 237.5t232.5 100.5q121 0 233.5 -98t112.5 -223q0 -63 -26.5 -118.5t-86.5 -129.5q94 -78 147.5 -164t53.5 -178q0 -172 -122 -314.5t-292 -142.5q-172 0 -304 134.5t-132 302.5zM217 432q0 -49 20.5 -131 t98.5 -153.5t166 -71.5q27 0 79 13t100 93t48 185q0 49 -12 98q-31 115 -106.5 186.5t-164.5 71.5h-32q-16 -6 -59.5 -17.5t-90.5 -90t-47 -183.5zM285 1019.5q0 -11.5 15 -70t73.5 -112t126.5 -53.5q20 0 60 12.5t77 69t37 133.5q0 39 -12 80q-23 86 -81.5 139.5 t-125.5 53.5q-18 0 -57.5 -11.5t-76 -73t-36.5 -138.5v-29.5z" />
<glyph unicode="9" horiz-adv-x="1005" d="M70 522q0 176 118.5 308.5t292.5 132.5q168 0 286 -120t163 -296q20 -78 28.5 -139.5t8.5 -124.5q0 -84 -11.5 -145.5t-55.5 -198t-154.5 -225.5t-245.5 -89q-25 -4 -41 -4q-53 0 -109.5 17.5t-175.5 72.5l94 228l56 -37l-37 -90q25 -43 78 -59.5t119.5 -27t78.5 -10.5 q115 0 168 117t82 346q-158 -98 -346 -98q-162 0 -250 72.5t-117.5 169t-29.5 200.5zM166 573q0 -61 27.5 -128.5t88 -134t134 -102.5t155.5 -36q140 0 246 100q0 119 -30.5 237t-104.5 179.5t-145.5 89t-133.5 27.5q-100 0 -163 -57q-74 -61 -74 -175z" />
<glyph unicode=":" horiz-adv-x="712" d="M203 152q0 66 45 110.5t110 44.5q66 0 112 -43.5t46 -111.5q0 -66 -45 -111t-113 -45q-63 0 -109 46t-46 110zM203 760q0 63 46 109t109 46q66 0 112 -43.5t46 -111.5q0 -66 -45 -111t-113 -45q-61 0 -108 45t-47 111z" />
<glyph unicode=";" horiz-adv-x="712" d="M102 -365l258 410q-55 0 -104 40t-49 112q0 74 45 127t113 53t112.5 -51t44.5 -129q0 -39 -11 -65t-73 -114l-311 -424zM203 760q0 63 46 109t109 46q66 0 112 -43.5t46 -111.5q0 -66 -45 -111t-113 -45q-61 0 -108 45t-47 111z" />
<glyph unicode="&#x3c;" horiz-adv-x="1187" d="M111 571q0 27 32 41l944 428q10 6 19 7q25 0 35 -16.5t10 -31.5q0 -29 -29 -41l-850 -385l850 -393q27 -12 27 -37q0 -18 -12.5 -32.5t-32.5 -14.5q-6 0 -19 4l-942 428q-33 14 -32 43z" />
<glyph unicode="=" horiz-adv-x="1433" d="M246 270v76h964v-76h-964zM246 659v78h964v-78h-964z" />
<glyph unicode="&#x3e;" horiz-adv-x="1187" d="M154 141q0 27 28 39l852 393l-850 385q-29 12 -28 41q0 18 12 33t33 15q8 0 18 -7l942 -428q31 -14 31 -43q0 -25 -31 -41l-942 -428q-12 -4 -18 -4q-18 0 -32.5 14.5t-14.5 30.5z" />
<glyph unicode="?" horiz-adv-x="964" d="M90 1061q0 154 101.5 257t349.5 103q162 0 272.5 -104.5t110.5 -272.5q0 -166 -96.5 -302t-233.5 -136q-35 0 -58.5 -50t-23.5 -169l-129 -4v106q0 98 56.5 157t111.5 48q10 -2 31 -2q94 0 146 117t52 248q0 109 -60.5 179t-156.5 95q-72 18 -127 19q-76 0 -134 -37 t-112.5 -111t-54.5 -141q0 -31 12 -62q10 23 29 45.5t45.5 38t65.5 15.5q82 0 114.5 -52.5t32.5 -93.5q0 -84 -54 -114.5t-95 -30.5q-59 0 -107.5 36t-62 75.5t-19.5 78.5t-6 64zM313 92q0 59 41 102.5t101 43.5q57 0 98 -43.5t41 -102.5q0 -61 -41 -104t-98 -43 q-59 0 -100.5 43t-41.5 104z" />
<glyph unicode="@" horiz-adv-x="1816" d="M147 602q0 369 211 621t551 252q342 0 556 -252t214 -621q0 -193 -102 -302.5t-229 -109.5q-94 0 -154 62q-33 12 -70 32.5t-57 61.5q-80 -117 -199 -117q-59 0 -114.5 32t-97.5 94.5t-42 133.5q0 68 32 125.5t73 78t72 20.5q72 0 144.5 -37t131.5 -76q0 129 -42 189.5 t-93 84t-78 23.5q-39 0 -71.5 -17.5t-112.5 -68.5l-74 164l59 26l45 -81q88 47 170 47q102 0 167 -54.5t103 -124t38 -143.5l-9 -264q41 -51 91.5 -79t99.5 -28q102 0 178 91.5t76 236.5q0 346 -193.5 567.5t-519.5 221.5q-324 0 -502 -214t-178 -567q0 -356 183.5 -589.5 t504.5 -233.5q33 0 33 -14q0 -10 -10 -22.5t-23 -22.5q-340 0 -551 250.5t-211 623.5zM690 483q0 -45 23.5 -89t59.5 -67.5t79 -23.5q115 0 201 127l8 72q-59 47 -117 94q-72 51 -121 51q-31 0 -82 -31.5t-51 -132.5z" />
<glyph unicode="A" horiz-adv-x="1538" d="M-215 -221q0 23 9 60.5t50 68.5t88 31q18 0 51 -10.5t64 -50.5t31 -89l-4 -35q-14 -51 -62 -84q23 -8 43 -8q57 0 83 50t52.5 125t47 133.5t38.5 119.5l404 1229q-49 6 -77 8t-58 4q-18 0 -68.5 2t-66.5 2q-72 0 -116 -5t-79 -24.5t-64.5 -71.5t-29.5 -106q0 -43 20 -75 q10 25 28.5 47t45.5 37.5t66 15.5q82 0 114.5 -52t32.5 -93q0 -86 -50 -114t-83 -28q-57 0 -112.5 35t-83 95.5t-27.5 140.5q0 82 31.5 147.5t79.5 94t86 34.5t91 6h97h454l420 -1329h219v-88h-637v88h201l-115 367h-538l-127 -367l-101 -297q-33 -94 -82 -143t-128 -49 q-47 0 -142.5 37.5t-95.5 140.5zM483 518h496l-234 793z" />
<glyph unicode="B" horiz-adv-x="1587" d="M72 1137q0 82 31.5 147.5t79.5 94t86 34.5t91 6h97h477q236 0 375 -68.5t139 -236.5q0 -129 -69.5 -218t-223.5 -134q156 -18 247 -121.5t91 -263.5q0 -190 -127 -282.5t-369 -92.5h-671v88h227v1239q-20 0 -80.5 2t-79.5 2q-66 0 -105.5 -5t-73.5 -23.5t-63.5 -70.5 t-29.5 -106q0 -43 20 -75q10 25 28.5 47t45.5 37.5t66 15.5q82 0 114.5 -52t32.5 -93q0 -86 -50 -114t-83 -28q-57 0 -112.5 35t-83 95.5t-27.5 140.5zM735 90h230q164 0 246.5 68.5t82.5 218.5t-85 239t-230 89h-244v-615zM735 786h238q133 0 203.5 75t70.5 231 q0 121 -84 180t-227 59h-201v-545z" />
<glyph unicode="C" horiz-adv-x="1243" d="M72 641q0 360 170 578.5t477 218.5q82 0 180 -46t180 -132t82 -240q0 -61 -19.5 -118.5t-69.5 -95.5t-109 -38q-39 0 -92.5 33t-53.5 117q0 37 19 73q43 70 127 70q39 0 78.5 -23.5t60.5 -76.5q12 31 12 61q0 68 -97 201t-337 133q-35 0 -125 -8.5t-206 -184.5t-116 -393 v-46t20.5 -142t127 -265.5t225.5 -172t180 -31.5q100 0 184.5 41t168.5 125l39 -39q-113 -139 -244 -210t-299 -71q-242 0 -402.5 207t-160.5 475z" />
<glyph unicode="D" horiz-adv-x="1564" d="M72 1137q0 82 31.5 147.5t79.5 94t86 34.5t91 6h97h383q307 0 524 -163t217 -564q0 -338 -180 -514t-529 -176h-550v88h227v1241q-18 0 -68.5 2t-66.5 2q-55 0 -106.5 -4t-89.5 -24.5t-67.5 -72.5t-29.5 -106q0 -43 20 -75q10 25 28.5 47t45.5 37.5t66 15.5 q82 0 114.5 -52t32.5 -93q0 -86 -50 -114t-83 -28q-57 0 -112.5 35t-83 95.5t-27.5 140.5zM731 90h250q162 0 283.5 160t121.5 455q0 301 -165.5 462.5t-319.5 161.5l-170 2v-1241z" />
<glyph unicode="E" horiz-adv-x="1347" d="M72 1137q0 82 31.5 147.5t78.5 94t82 34.5t84 6q25 0 51.5 -1t57.5 -1h835l21 -360h-72q-14 125 -36.5 196.5t-168.5 71.5h-305v-567h209q74 0 82 14t33 137l51 2l2 -395l-59 4q-10 92 -32 123t-85 31l-201 2v-586h324q104 0 137 60.5t49 209.5h72l-21 -358h-970v88h227 v1241q-4 0 -52 2t-85 2q-74 0 -118 -5t-79 -24.5t-64.5 -71.5t-29.5 -106q0 -43 20 -75q10 25 28.5 47t45.5 37.5t66 15.5q82 0 114.5 -52t32.5 -93q0 -86 -50 -114t-83 -28q-57 0 -112.5 35t-83 95.5t-27.5 140.5z" />
<glyph unicode="F" horiz-adv-x="1351" d="M72 1137q0 82 31.5 147.5t78.5 94t82 34.5t84 6q25 0 51.5 -1t57.5 -1h835l21 -360h-72q-14 125 -36.5 196.5t-168.5 71.5h-305v-567h209q74 0 82 14t33 137l53 2v-395l-59 4q-10 92 -32 123t-85 31l-201 2v-586h299v-88h-708v88h227v1241q-4 0 -52 2t-85 2 q-74 0 -118 -5t-79 -24.5t-64.5 -71.5t-29.5 -106q0 -43 20 -75q10 25 28.5 47t45.5 37.5t66 15.5q82 0 114.5 -52t32.5 -93q0 -86 -50 -114t-83 -28q-57 0 -112.5 35t-83 95.5t-27.5 140.5z" />
<glyph unicode="G" horiz-adv-x="1314" d="M72 641q0 360 170 578.5t477 218.5q92 0 182 -37t152 -107l104 133l51 -41q-2 -4 -79.5 -118.5t-92.5 -145.5q-94 125 -175 179.5t-189 54.5q-29 0 -118 -8.5t-205 -184.5t-116 -393v-46t20.5 -142t127 -265.5t240 -176.5t206.5 -36q98 0 172 39t112 111t38 125 q0 41 -18.5 87t-51.5 95h-250v82h433v-663q0 -104 -5.5 -154.5t-27 -109t-94 -95.5t-158.5 -37q-78 0 -135.5 25.5t-94 84t-36.5 111.5q0 35 28.5 82t114.5 47q39 0 91 -29.5t52 -115.5q0 -37 -15 -64.5t-38.5 -46t-46.5 -28.5q29 -14 66 -15q61 0 117.5 32t70.5 73 t19.5 114.5t5.5 219.5l-2 143q-92 -115 -239 -186.5t-300 -71.5q-242 0 -402.5 207t-160.5 475z" />
<glyph unicode="H" horiz-adv-x="1951" d="M72 1137q0 82 31.5 147.5t79.5 94t86 34.5t91 6h97h452v-88h-178v-616h680q-4 33 -4 239q0 262 56.5 440.5t226.5 178.5q229 0 278 -122t49 -153q0 -66 -31.5 -123t-80.5 -71q-25 -4 -37 -4q-49 0 -89 29.5t-49.5 64.5t-9.5 53q0 49 30 89t64.5 47.5t49.5 7.5 q16 0 34.5 -4.5t34.5 -8.5q-14 66 -72.5 94.5t-127.5 28.5q-88 0 -117 -109.5t-29 -291.5v-81t2 -77l4 -852h228v-88h-588v88h178v545h-680v-545h178v-88h-587v88h227l-4 1241q-18 0 -68.5 2t-66.5 2q-72 0 -116 -5t-79 -24.5t-64.5 -71.5t-29.5 -106q0 -43 20 -75 q10 25 28.5 47t45.5 37.5t66 15.5q82 0 114.5 -52t32.5 -93q0 -86 -50 -114t-83 -28q-57 0 -112.5 35t-83 95.5t-27.5 140.5z" />
<glyph unicode="I" horiz-adv-x="997" d="M72 1137q0 82 31.5 147.5t79.5 94t86 34.5t91 6h97h499v-88h-227v-1241h227v-88h-637v88h228v1241q-18 0 -68.5 2t-66.5 2q-53 0 -105.5 -4t-89.5 -24.5t-66.5 -72.5t-29.5 -106q0 -43 20 -75q10 25 28.5 47t45.5 37.5t66 15.5q82 0 114.5 -52t32.5 -93q0 -86 -50 -114 t-83 -28q-57 0 -112.5 35t-83 95.5t-27.5 140.5z" />
<glyph unicode="J" horiz-adv-x="976" d="M72 1137q0 82 31.5 147.5t79.5 94t86 34.5t91 6h97h499v-86h-227v-743h215v-88h-215v-418q0 -225 -121 -350t-305 -125q-57 0 -125.5 56t-103.5 138l127 136l43 -41l-60 -103q57 -41 74.5 -52t50.5 -11q104 0 171 94t67 223v453h-342v88h342v741q-18 0 -68.5 2t-66.5 2 q-53 0 -105.5 -4t-89.5 -24.5t-66.5 -72.5t-29.5 -106q0 -43 20 -75q10 25 28.5 47t45.5 37.5t66 15.5q82 0 114.5 -52t32.5 -93q0 -86 -50 -114t-83 -28q-57 0 -112.5 35t-83 95.5t-27.5 140.5z" />
<glyph unicode="K" horiz-adv-x="1871" d="M72 1137q0 82 31.5 147.5t79.5 94t86 34.5t91 6h97h452v-88h-178v-923l686 923h-184v88h508v-88h-211l-379 -497q133 -82 252 -306.5t180 -468.5q57 -215 163.5 -328.5t215.5 -113.5q61 0 111 37q-51 0 -93.5 42t-42.5 105q0 57 41 103q41 39 105 39q61 0 102 -40 t41 -108q0 -37 -13 -70.5t-28.5 -51t-51.5 -43t-90 -39t-128 -13.5q-143 0 -273.5 96.5t-217.5 291t-177 401.5q-106 209 -231 295l-285 -390v-182h178v-88h-587v88h227v1241q-4 0 -52 2t-85 2q-74 0 -118 -5t-79 -24.5t-64.5 -71.5t-29.5 -106q0 -43 20 -75q10 25 28.5 47 t45.5 37.5t66 15.5q82 0 114.5 -52t32.5 -93q0 -86 -50 -114t-83 -28q-57 0 -112.5 35t-83 95.5t-27.5 140.5z" />
<glyph unicode="L" horiz-adv-x="1026" d="M12 2q2 12 9.5 39t66.5 85t99 150.5t40 190.5q0 55 -23.5 206.5t-25.5 170t-2 35v24.5q0 190 103.5 348t255.5 158q117 0 215 -56.5t123.5 -122t25.5 -95.5q0 -66 -31.5 -123.5t-81.5 -71.5q-25 -4 -36 -4q-49 0 -89 29.5t-49.5 64.5t-9.5 53q0 49 28.5 88t64.5 47.5 t50 8.5q20 0 41 -5t29 -10q-14 66 -88 95.5t-149 29.5q-106 0 -164 -128t-58 -300v-37q4 -24 4 -34q2 -35 29 -181.5t27 -201.5q0 -92 -40 -179.5t-143 -185.5h494q104 0 137 60.5t49 209.5h72l-20 -358h-953z" />
<glyph unicode="M" horiz-adv-x="2320" d="M72 1137q0 82 31.5 147.5t79.5 94t86 34.5t91 6h97h350l539 -1212l538 1212h453v-88h-226v-1241h226v-88h-635v88h227v1235l-608 -1323h-104l-607 1323v-1282q0 -219 -41 -328.5t-172 -109.5q-53 0 -147 29.5t-94 144.5q0 23 9 60.5t50 68.5t88 30q18 0 51 -10t64 -50 t31 -89l-5 -35q-14 -51 -61 -84q25 -6 43 -6q78 0 100.5 89t22.5 239v71v1268q-4 0 -52 2t-85 2q-74 0 -118 -5t-73 -21q-41 -23 -70.5 -75t-29.5 -106q0 -43 20 -75q10 25 28.5 47t45.5 37.5t66 15.5q82 0 114.5 -52t32.5 -93q0 -86 -50 -114t-83 -28q-57 0 -112.5 35 t-83 95.5t-27.5 140.5z" />
<glyph unicode="N" horiz-adv-x="1744" d="M72 1137q0 82 31.5 147.5t79.5 94t86 34.5t91 6h97h348l668 -1040v954h-228v86h514v-86h-225v-1181v-91q0 -124 -12 -124q-6 0 -21.5 19t-32.5 42l-858 1339v-1294q0 -219 -41 -328.5t-172 -109.5q-53 0 -147 29.5t-94 144.5q0 23 9 60.5t50 68.5t88 30q18 0 51 -10 t64 -50t31 -89l-5 -35q-14 -51 -61 -84q25 -6 43 -6q78 0 100.5 89t22.5 239v71v1268q-4 0 -52 2t-85 2q-74 0 -118 -5t-79 -24.5t-64.5 -71.5t-29.5 -106q0 -43 20 -75q10 25 28.5 47t45.5 37.5t66 15.5q82 0 114.5 -52t32.5 -93q0 -86 -50 -114t-83 -28q-57 0 -112.5 35 t-83 95.5t-27.5 140.5z" />
<glyph unicode="O" horiz-adv-x="1308" d="M55 668q0 307 172 539.5t420 232.5q256 0 442.5 -218t186.5 -513q0 -303 -173 -534.5t-425 -231.5t-437.5 216t-185.5 509zM250 686q0 -289 114.5 -469t299.5 -180q182 0 298.5 185t116.5 470q0 287 -118.5 471.5t-301.5 184.5l-41 -2q-92 -27 -142 -120t-50 -225 q0 -113 20.5 -189.5t85 -143t150.5 -66.5q31 0 59 12q-47 35 -57 69t-10 52q0 49 29.5 89t63.5 50.5t52 10.5q51 0 90 -31t49.5 -67.5t10.5 -59.5q0 -61 -43 -106.5t-90.5 -55.5t-61.5 -12t-47 -2q-92 0 -173 38t-124 105.5t-73.5 163.5t-30.5 193q0 29 2 43 q-78 -166 -78 -408z" />
<glyph unicode="P" horiz-adv-x="1591" d="M72 1137q0 82 31.5 147.5t79.5 94t86 34.5t91 6h97h579q229 0 381 -112.5t152 -423.5q0 -227 -151.5 -364.5t-416.5 -137.5l-270 2v-293h328l-2 -88h-735v88h227v1241q-4 0 -52 2t-85 2q-74 0 -118 -5t-79 -24.5t-64.5 -71.5t-29.5 -106q0 -43 20 -75q10 25 28.5 47 t45.5 37.5t66 15.5q82 0 114.5 -52t32.5 -93q0 -86 -50 -114t-83 -28q-57 0 -112.5 35t-83 95.5t-27.5 140.5zM731 446h270q170 0 272.5 113t102.5 299q0 238 -109.5 356.5t-246.5 118.5l-289 2v-889z" />
<glyph unicode="Q" horiz-adv-x="1357" d="M55 668q0 307 172 539.5t420 232.5q256 0 442.5 -218t186.5 -513q0 -147 -49 -295q45 -70 70.5 -126.5t35.5 -119t10 -123.5v-7q0 -101 -28 -167q-47 -115 -111.5 -181.5t-126 -83t-84.5 -16.5q-68 0 -126 44t-58 112q0 63 40 109.5t99 46.5t106.5 -40t47.5 -100 q0 -51 -33 -98q49 10 93 51t77 125t33 195q0 57 -12.5 112.5t-34.5 114.5l-31 66q-80 -174 -216 -279.5t-300 -105.5q-252 0 -437.5 216t-185.5 509zM250 686q0 -365 174 -543q0 170 81 295t172 161t177 36q117 0 219 -68l6 125q0 287 -118.5 471.5t-301.5 184.5 q-180 0 -294.5 -186.5t-114.5 -475.5zM489 166q0 -37 7 -80q78 -49 168 -49q145 0 251.5 119.5t143.5 322.5q-98 78 -215 78q-49 0 -125 -25.5t-153 -116.5t-77 -249z" />
<glyph unicode="R" horiz-adv-x="1648" d="M72 1137q0 82 31.5 147.5t78.5 94t82 34.5t84 6q25 0 51.5 -1t57.5 -1h305q403 0 561 -74.5t158 -295.5q0 -145 -87 -238.5t-266 -146.5q156 -86 279 -242t178 -366t161.5 -323.5t215.5 -113.5q61 0 111 37q-51 0 -93.5 42t-42.5 105q0 57 41 103q41 39 105 39 q61 0 102 -40t41 -108q0 -37 -13 -70.5t-28.5 -51t-51.5 -43t-90 -39t-128 -13.5q-143 0 -273 96.5t-212 278.5q-100 227 -221.5 394t-264.5 267h-76t-100 2h-37v-528h275v-94h-684v88h227v1249q-4 0 -52 2t-85 2q-74 0 -118 -5t-79 -24.5t-64.5 -71.5t-29.5 -106 q0 -43 20 -75q10 25 28.5 47t45.5 37.5t66 15.5q82 0 114.5 -52t32.5 -93q0 -86 -50 -114t-83 -28q-57 0 -112.5 35t-83 95.5t-27.5 140.5zM731 682q207 0 378 63.5t171 260.5q0 182 -113.5 258.5t-435.5 76.5v-659z" />
<glyph unicode="S" horiz-adv-x="1177" d="M37 70q0 90 23.5 158.5t73.5 106.5t108 38q39 0 73.5 -20.5t53 -54.5t18.5 -75q0 -37 -18 -73q-43 -70 -129 -70q-35 0 -62.5 15.5t-46 39t-29.5 45.5q-16 -49 -16 -119q0 -86 93 -239.5t433 -153.5q152 0 249 49.5t122 126t33 121.5t8 82q0 121 -59.5 226.5 t-196.5 188.5t-238.5 148.5t-188.5 136t-131 156.5t-44 178q0 59 26.5 154.5t104.5 155t227 59.5q47 0 120 -8t132.5 -37t151.5 -98l94 118l53 -39q-8 -12 -63.5 -107t-69.5 -122q-125 143 -215 182t-256 39q-74 0 -134.5 -58t-60.5 -146q0 -51 25 -103.5t88.5 -116 t279.5 -176t292.5 -162t139 -168t62.5 -258.5q0 -72 -14 -135q-55 -248 -189.5 -353t-381.5 -105q-162 0 -268.5 58t-169 137t-83 145.5t-20.5 132.5z" />
<glyph unicode="T" horiz-adv-x="1234" d="M72 1137q0 82 31.5 147.5t82 95t90 37.5t91.5 8q43 0 76.5 -4t195.5 -31.5t285 -27.5q129 0 202.5 10.5t171.5 57.5l-2 -39q-109 -113 -186.5 -130.5t-113 -21.5t-68.5 -4q-68 0 -166 22v-1167h227v-88h-637v88h228v1210q-41 14 -101.5 22.5t-124.5 8.5q-96 0 -135 -22.5 t-68.5 -74.5t-29.5 -106q0 -43 20 -75q10 25 28.5 47t45.5 37.5t66 15.5q82 0 114.5 -52t32.5 -93q0 -86 -50 -114t-83 -28q-57 0 -112.5 35t-83 95.5t-27.5 140.5z" />
<glyph unicode="U" horiz-adv-x="1806" d="M72 1137q0 82 31.5 147.5t79.5 94t86 34.5t91 6h97h452v-86h-178v-715q0 -313 90 -436t250 -123q156 0 248 124t92 435v715h-178v86h588v-86h-228v-715q0 -293 -129 -473t-393 -180t-393 179.5t-129 473.5v715h-54.5t-66.5 2q-76 0 -127 -5t-86 -24.5t-64.5 -71.5 t-29.5 -106q0 -43 20 -75q10 25 28.5 47t45.5 37.5t66 15.5q82 0 114.5 -52t32.5 -93q0 -86 -50 -114t-83 -28q-57 0 -112.5 35t-83 95.5t-27.5 140.5z" />
<glyph unicode="V" horiz-adv-x="1814" d="M72 1137q0 82 31.5 147.5t79.5 94t86 34.5t91 6h97l499 -2v-86h-200l383 -1214l385 1214h-228v86h514v-86h-219l-438 -1358l-172 -2l-442 1360q-20 0 -72.5 2t-65.5 2q-53 0 -99 -4t-84 -24.5t-67.5 -72.5t-29.5 -106q0 -43 20 -75q10 25 28.5 47t45.5 37.5t66 15.5 q82 0 114.5 -52t32.5 -93q0 -86 -50 -114t-83 -28q-57 0 -112.5 35t-83 95.5t-27.5 140.5z" />
<glyph unicode="W" horiz-adv-x="2617" d="M72 1137q0 82 31.5 147.5t79.5 94t86 34.5t91 6h97l499 -2v-86h-200l381 -1196l309 957l-80 239h-139v86h583v-86h-229l383 -1196l385 1196h-227v86h516v-86h-219l-441 -1362l-172 2l-327 1018l-328 -1020l-172 2l-440 1360q-20 0 -72.5 2t-65.5 2q-53 0 -99 -4 t-84 -24.5t-67.5 -72.5t-29.5 -106q0 -43 20 -75q10 25 28.5 47t45.5 37.5t66 15.5q82 0 114.5 -52t32.5 -93q0 -86 -50 -114t-83 -28q-57 0 -112.5 35t-83 95.5t-27.5 140.5z" />
<glyph unicode="X" horiz-adv-x="1728" d="M72 1137q0 82 31.5 147.5t79.5 94t86 34.5t91 6h97h403v-88h-158l353 -506l338 506h-197v88h455v-88h-181l-374 -561l475 -680h141v-88h-538v88h157l-352 504l-336 -504h193v-88h-453v88h182l373 557l-477 684q-14 0 -50 2t-46 2q-51 0 -83 -5t-67 -24.5t-64.5 -71.5 t-29.5 -106q0 -43 20 -75q10 25 28.5 47t45.5 37.5t66 15.5q82 0 114.5 -52t32.5 -93q0 -86 -50 -114t-83 -28q-57 0 -112.5 35t-83 95.5t-27.5 140.5z" />
<glyph unicode="Y" horiz-adv-x="1734" d="M72 1137q0 82 31.5 147.5t79.5 94t86 34.5t91 6h97h495v-88h-213l353 -727l350 727h-221v88h516v-88h-217l-404 -815v-426h227v-88h-636v88h227l-2 410l-404 831q-2 0 -46 2t-79 2q-70 0 -111.5 -5t-76.5 -24.5t-64.5 -71.5t-29.5 -106q0 -43 20 -75q10 25 28.5 47 t45.5 37.5t66 15.5q82 0 114.5 -52t32.5 -93q0 -86 -50 -114t-83 -28q-57 0 -112.5 35t-83 95.5t-27.5 140.5z" />
<glyph unicode="Z" horiz-adv-x="1163" d="M16 1094q0 63 22.5 125.5t61.5 114.5t102.5 86t139.5 34q47 0 91 -13.5t87 -41t98.5 -37.5t124.5 -10q106 0 209.5 19t177.5 52v-84l-753 -1249q74 20 173 38.5t226 18.5q90 0 163 -13t143.5 -54t152.5 -133q84 -106 168 -215q39 -37 68.5 -54.5t66.5 -17.5t72 27 q-47 0 -91 42t-44 105q0 59 40.5 100t106.5 41q59 0 101 -42t42 -105q0 -39 -12 -71.5t-28.5 -50t-57.5 -47.5t-95 -51.5t-118 -21.5q-78 0 -152.5 38t-159.5 139.5t-105.5 120t-97.5 69.5t-178.5 71.5t-219.5 20.5q-129 0 -219.5 -13.5t-159.5 -29.5v107l723 1148 q-77 -26 -141 -26h-5q-70 0 -132 25.5t-126.5 62.5t-120.5 37q-66 0 -127 -25.5t-95 -63.5t-55.5 -85t-21.5 -97q0 -49 29 -84q10 55 50 86t89 31q74 0 112 -49t38 -96q0 -76 -44 -107.5t-89 -31.5q-53 0 -106.5 27.5t-88.5 87t-35 145.5z" />
<glyph unicode="[" horiz-adv-x="604" d="M150 -406v1975h311v-47h-209v-1878h209v-50h-311z" />
<glyph unicode="\" horiz-adv-x="1161" d="M166 1356l47 30l887 -1521l-49 -27z" />
<glyph unicode="]" horiz-adv-x="604" d="M168 -356h211v1878h-211v47h311v-1975h-311v50z" />
<glyph unicode="^" horiz-adv-x="675" d="M106 905l218 307l217 -307l-37 -35l-180 209l-181 -209z" />
<glyph unicode="_" horiz-adv-x="1607" d="M14 -305h1667v-78h-1667v78z" />
<glyph unicode="`" horiz-adv-x="731" d="M100 1282l86 94l303 -338l-34 -39z" />
<glyph unicode="a" horiz-adv-x="1153" d="M29 2v86h170l340 825l149 -2l322 -823h170v-86h-512v86h147l-76 188h-383l-80 -188h170v-86h-417zM385 346h324l-152 422z" />
<glyph unicode="b" horiz-adv-x="952" d="M29 2v86h170v723h-170v84h471q182 0 291.5 -47t109.5 -156q0 -70 -40 -123t-126 -86q96 -25 148.5 -87t52.5 -150q0 -244 -389 -244h-518zM367 88h155q119 0 175.5 37t56.5 121q0 82 -59.5 133t-162.5 51h-165v-342zM367 508h161q191 0 191 172q0 68 -57.5 99.5 t-159.5 31.5h-135v-303z" />
<glyph unicode="c" horiz-adv-x="933" d="M35 455q0 205 138 335t366 130q68 0 132 -25t117 -68l76 80l68 -41q-59 -72 -94 -114.5t-56 -77.5q-88 92 -152.5 127t-158.5 35q-115 0 -198 -109t-83 -242q0 -33 15.5 -107.5t92.5 -157.5t162 -101.5t128 -18.5q137 0 268 109l51 -47q-96 -96 -197.5 -141.5 t-234.5 -45.5q-182 0 -302 128t-129 223.5t-9 128.5z" />
<glyph unicode="d" horiz-adv-x="1011" d="M29 2v86h170v723h-170v84h405q238 0 405 -102.5t167 -356.5q0 -211 -138.5 -322.5t-408.5 -111.5h-430zM367 88h172q117 0 202.5 92t85.5 264q0 176 -119.5 270.5t-230.5 94.5l-110 2v-723z" />
<glyph unicode="e" horiz-adv-x="821" d="M29 2v86h170v719h-170v84l759 2l19 -250h-88q-10 94 -32.5 128t-104.5 34h-215v-313h141q45 0 50 9t22 83h67l2 -271h-37q-25 4 -37 6q-8 57 -20 74t-53 17h-135v-322h227q72 0 93.5 35t31.5 129h88l-21 -250h-757z" />
<glyph unicode="f" horiz-adv-x="823" d="M29 2v86h170v719h-170v84l759 2l19 -250h-88q-10 94 -32.5 128t-104.5 34h-215v-313h141q45 0 50 9t22 83h67l2 -271h-37q-25 4 -37 6q-8 57 -20 74t-53 17h-135v-322h225v-86h-563z" />
<glyph unicode="g" horiz-adv-x="987" d="M35 455q0 203 138 330.5t366 127.5q143 0 249 -86l76 80l68 -41q-59 -72 -94 -114.5t-56 -77.5q-86 88 -152.5 121.5t-158.5 33.5q-115 0 -198 -107.5t-83 -238.5q0 -31 15.5 -105.5t93.5 -158.5t173 -103.5t151 -19.5q70 0 122 21.5t75.5 58.5t23.5 68q0 29 -12.5 52 t-28.5 46h-195v82h324q39 -59 39 -119q0 -61 -54.5 -138t-181.5 -134.5t-260 -57.5q-182 0 -302 128t-129 223.5t-9 128.5z" />
<glyph unicode="h" horiz-adv-x="1175" d="M29 2v86h170v723h-170v84h471v-84h-133v-346h477v346h-133v84h475v-84h-172v-723h172v-86h-475v86h133v297h-477v-297h133v-86h-471z" />
<glyph unicode="i" horiz-adv-x="548" d="M29 2v86h170v723h-170v84h508v-84h-170v-723h170v-86h-508z" />
<glyph unicode="j" horiz-adv-x="643" d="M-59 -106l118 98l54 -43l-43 -58q42 -28 67 -28h2q72 0 117 52t45 126v772h-170v84h510v-84h-172v-752q0 -145 -93 -226t-241 -81q-47 0 -104.5 40t-89.5 100z" />
<glyph unicode="k" horiz-adv-x="1165" d="M29 2v86h170v723h-170v84h471v-84h-133v-506l462 510h-118v84h413v-84h-168l-270 -291l367 -436h133v-86h-475v86h120l-268 313l-196 -227v-86h133v-86h-471z" />
<glyph unicode="l" horiz-adv-x="817" d="M29 2v86h170v723h-170v84h518v-84h-180v-723h227q72 0 93.5 35t31.5 129h88l-21 -250h-757z" />
<glyph unicode="m" horiz-adv-x="1552" d="M29 2v86h170v723h-170v84h389l395 -721l391 721h367v-84h-170v-723h170v-86h-508v86h170v674l-428 -760h-100l-429 760v-674h170v-86h-417z" />
<glyph unicode="n" horiz-adv-x="1118" d="M29 -2v88h170v725h-170v82h385l477 -600v518h-170v82h418v-82h-170v-700q0 -49 -1 -100.5t-18 -51.5q-10 0 -27.5 17.5l-31.5 31.5l-615 776v-698h170v-88h-417z" />
<glyph unicode="o" horiz-adv-x="980" d="M25 424q0 190 135 342t325 152q197 0 343.5 -142.5t146.5 -326.5q0 -190 -136.5 -337t-330.5 -147q-195 0 -339 136.5t-144 322.5zM203 436q0 -170 82 -276.5t213 -106.5q129 0 213 110.5t84 274.5q0 168 -85 279.5t-214 111.5t-211 -112.5t-82 -280.5z" />
<glyph unicode="p" horiz-adv-x="1005" d="M29 2v86h170v723h-170v84h553q178 0 296.5 -72.5t118.5 -269.5q0 -145 -117.5 -232.5t-326.5 -87.5h-186v-145h247l-2 -86h-583zM367 303l186 2q123 0 194.5 64t71.5 170q0 137 -77.5 205.5t-172.5 68.5h-202v-510z" />
<glyph unicode="q" horiz-adv-x="1017" d="M25 424q0 190 134 340.5t326 150.5q199 0 344.5 -141t145.5 -325q0 -199 -150 -359l152 -143l45 41l37 -43l-164 -148q-47 35 -122 102.5t-101 96.5q-86 -37 -164 -37q-195 0 -339 138.5t-144 326.5zM203 436q0 -172 83 -290.5t212 -118.5q127 0 212 121.5t85 289.5 q0 170 -83 281.5t-214 111.5q-129 0 -212 -112.5t-83 -282.5z" />
<glyph unicode="r" horiz-adv-x="1044" d="M29 0v86h170v725h-170v82h346q307 0 431 -50t124 -190q0 -174 -252 -241l225 -246q37 -39 72 -39q20 0 57 14l37 -49q-43 -31 -94 -61.5t-103 -59.5l-368 406h-62.5t-56.5 2h-18v-289h206v-90h-544zM367 449q150 0 265.5 34.5t115.5 143.5q0 104 -81 147t-300 43v-368z " />
<glyph unicode="s" horiz-adv-x="880" d="M-6 41l153 184q90 -86 156 -119.5t124 -41t79 -7.5q66 0 112 19.5t58 56.5t12 47v17q0 39 -29.5 73.5t-101.5 67.5t-150.5 72t-140 63.5t-118 84.5t-56.5 128q0 27 27.5 89.5t105.5 105.5t236 43q59 0 106 -22.5t127 -72.5l72 78l63 -41l-114 -182q-104 96 -170 124 t-183 28q-45 0 -87 -32t-42 -71q0 -49 73 -78.5t170 -73.5t180 -87t133.5 -113.5t50.5 -142.5q0 -119 -98.5 -193t-252.5 -74q-57 0 -119.5 11.5t-112.5 34t-120 65.5l-88 -94z" />
<glyph unicode="t" horiz-adv-x="845" d="M29 645l16 248h795l20 -248h-86q-10 98 -35.5 133t-120.5 35l-90 4v-729h170v-86h-510v86h170v729l-86 -4q-86 0 -116.5 -39t-42.5 -129h-84z" />
<glyph unicode="u" horiz-adv-x="1165" d="M29 813v84h471v-84h-133v-422q0 -180 63.5 -251.5t175.5 -71.5q141 0 189.5 93t48.5 230v422h-133v84h475v-84h-172v-422q0 -186 -99.5 -298.5t-308.5 -112.5q-205 0 -306 113.5t-101 297.5v422h-170z" />
<glyph unicode="v" horiz-adv-x="1171" d="M27 811v84h510v-84h-146l264 -678l269 678h-164v84h418v-84h-170l-330 -823h-150l-331 823h-170z" />
<glyph unicode="w" horiz-adv-x="1771" d="M27 811v84h510v-84h-146l262 -672l217 541l-53 131h-110v84h471v-84h-166l264 -672l268 672h-164v84h416v-84h-170l-330 -827h-147l-238 591l-235 -591h-150l-329 827h-170z" />
<glyph unicode="x" horiz-adv-x="1105" d="M29 811v84h434v-84h-98l229 -270l223 270h-133v84h373v-84h-144l-268 -328l344 -395h113v-86h-436v86h100l-229 266l-222 -266h131v-86h-372v86h145l266 324l-344 399h-112z" />
<glyph unicode="y" horiz-adv-x="1110" d="M25 811v84h507v-84h-147l238 -395l233 395h-154v84h418v-84h-168l-297 -485v-238h172v-86h-512v86h170v229l-297 494h-163z" />
<glyph unicode="z" horiz-adv-x="845" d="M43 2l2 88l543 723l-320 -2q-86 0 -101 -44t-26 -122h-84l19 248l721 2l2 -70l-549 -737h358q72 0 92.5 34t32.5 130h86l-16 -250h-760z" />
<glyph unicode="{" horiz-adv-x="653" d="M72 588q125 78 191.5 127t66.5 149q0 74 -55.5 197t-55.5 219q0 158 68.5 231.5t277.5 73.5l2 -57q-152 -23 -200 -73t-48 -144q0 -82 56.5 -221.5t56.5 -196.5q0 -92 -49 -156.5t-180 -148.5q129 -82 179 -149.5t50 -159.5q0 -78 -56.5 -201t-56.5 -215q0 -98 47 -145 t201 -74l-2 -33q-207 0 -276.5 66.5t-69.5 216.5q0 86 55.5 218t55.5 199q0 68 -35 113t-223 164z" />
<glyph unicode="|" horiz-adv-x="993" d="M453 -342v1911h88v-1911h-88z" />
<glyph unicode="}" horiz-adv-x="653" d="M141 -356q154 27 201 73.5t47 145.5q0 84 -56.5 216t-56.5 200q0 94 50.5 160.5t179.5 148.5q-127 80 -178.5 147.5t-51.5 157.5q0 72 56.5 205t56.5 213q0 96 -47 145t-201 72l2 57q207 0 276.5 -73.5t69.5 -231.5q0 -88 -55 -219t-55 -197q0 -84 52 -133t208 -143 q-156 -96 -208 -144.5t-52 -132.5q0 -63 55 -201.5t55 -215.5q0 -152 -67.5 -217.5t-278.5 -65.5z" />
<glyph unicode="~" horiz-adv-x="980" d="M199 918q0 59 41 117.5t83 69.5t52 11q47 0 104 -47q61 -59 82 -78.5t51.5 -47.5t55.5 -28q43 0 59 105h18q2 -6 3 -29q0 -61 -26 -118.5t-81 -57.5q-6 0 -34.5 6t-112.5 78t-115 89.5t-66 17.5q-41 0 -64.5 -30t-23.5 -93h-20q-6 16 -6 35z" />
<glyph unicode="&#xa1;" horiz-adv-x="724" d="M229 1012q0 61 40 105t100 44q57 0 98 -43t41 -106q0 -61 -39 -104.5t-100 -43.5q-57 0 -98.5 43t-41.5 105zM233 -141q0 158 21.5 339t46.5 323.5t27 142.5h82q2 0 29.5 -137.5t49 -312.5t21.5 -355q0 -66 -45 -155t-96 -89q-49 0 -92.5 88t-43.5 156z" />
<glyph unicode="&#xa2;" horiz-adv-x="923" d="M51 600q0 197 123 330t322 133v354h67v-352q61 0 126 -25.5t116 -66.5l76 80l67 -41q-59 -72 -97 -118t-52 -73q-86 88 -153.5 125t-158.5 37q-113 0 -196.5 -110.5t-83.5 -241.5q0 -33 15.5 -109t92 -157.5t165.5 -100t126 -18.5q70 0 135.5 27.5t130.5 80.5l52 -47 q-82 -82 -171 -130t-190 -56v-352h-67v352q-186 0 -306 127t-129.5 223t-9.5 129z" />
<glyph unicode="&#xa3;" horiz-adv-x="1122" d="M-4 37q0 25 81 81t124 126.5t43 171.5q0 53 -11 141h-210v88h190q-49 141 -62.5 193.5t-20.5 101.5t-7 86q0 184 118.5 298t356.5 114q84 0 180 -46t178 -132t82 -240q0 -61 -19.5 -118.5t-69.5 -95.5t-107 -38q-39 0 -74 20.5t-53.5 54.5t-18.5 75q0 37 19 73 q43 70 127 70q39 0 79 -23.5t60 -76.5q8 18 8 49q0 45 -17.5 99t-62.5 114.5t-123.5 98.5t-183.5 38q-45 0 -125 -10.5t-125 -79t-45 -164.5q0 -37 5 -69.5t16 -71.5l86 -320h493v-88h-471q12 -61 13 -113q0 -127 -72 -200.5t-219 -151.5h618q104 0 137 60.5t50 212.5h69 l-20 -359h-969q-23 4 -35 11.5t-12 19.5z" />
<glyph unicode="&#xa4;" horiz-adv-x="1439" d="M117 1149l43 45l231 -248q166 135 344 135q86 0 169 -30.5t155 -85.5q6 0 61.5 53t177.5 176l43 -45q-63 -72 -139 -140.5t-110 -68.5q88 -109 129 -213t41 -207q0 -195 -127 -373l204 -221l-41 -43q-82 80 -148.5 143.5t-72.5 63.5q-147 -135 -342 -135q-201 0 -362 154 l-213 -226l-41 43l215 232q-121 170 -121 362q0 201 135 383zM344 520q0 -176 113.5 -302t277.5 -126t281 125t117 303q0 170 -117 295t-281 125q-162 0 -276.5 -123t-114.5 -297z" />
<glyph unicode="&#xa5;" horiz-adv-x="1480" d="M53 1331v88h635v-88h-213l354 -727l351 727h-222v88h515v-88h-218l-292 -594h247v-78h-286l-72 -143v-170h358v-76h-358v-180h227v-88h-635v88h226v180h-359v76h357v154l-76 159h-281v78h242l-287 594h-213z" />
<glyph unicode="&#xa7;" horiz-adv-x="1062" d="M111 127q0 27 4 64.5t53 89t108 51.5q20 0 47 -11.5t53.5 -59.5t26.5 -99q0 -20 -15 -71.5t-101 -51.5q-25 0 -54.5 13.5t-56.5 58.5v-25q0 -47 16.5 -95t70.5 -107.5t139 -100.5t178 -41q100 0 177 62.5t120 164.5l-11 49q-35 211 -176 281q-172 45 -278.5 81 t-194.5 202t-88 327q0 221 124 388t335 167q68 0 173 -41t155.5 -100t86 -138t35.5 -171q0 -29 -2 -43q-6 -61 -55 -112.5t-109 -51.5q-20 0 -45.5 11t-52 58.5t-26.5 98.5q0 20 9 51t39.5 53.5t67.5 22.5q18 0 52 -15.5t59 -60.5v25q0 49 -16.5 96t-69.5 106.5t-139 100.5 t-179 41q-102 0 -177 -61.5t-120 -164.5l9 -49q43 -246 237 -305q92 -23 185 -45q141 -47 228 -212t87 -329q0 -221 -123 -388t-334 -167q-74 0 -176 39t-151.5 99.5t-87 142.5t-37.5 172zM215 913q0 -166 59.5 -296t193.5 -178t253 -89q160 -88 190 -276q8 35 16.5 75.5 t8.5 75.5q0 166 -59.5 296t-194.5 178.5t-252 88.5q-160 88 -190 277q-10 -39 -17.5 -78t-7.5 -74z" />
<glyph unicode="&#xa8;" horiz-adv-x="935" d="M219 1313q0 41 31 71.5t72 30.5q43 0 73.5 -28.5t30.5 -73.5q0 -43 -30.5 -74t-73.5 -31q-41 0 -72 31t-31 74zM627 1313q0 43 29.5 72.5t72.5 29.5t72.5 -29.5t29.5 -72.5t-28.5 -74t-73.5 -31q-41 0 -71.5 31t-30.5 74z" />
<glyph unicode="&#xa9;" horiz-adv-x="1294" d="M29 549q0 123 46 229.5t126 186t187.5 126t229.5 46.5q123 0 229.5 -46.5t186.5 -126t126 -186t46 -229.5t-46 -230.5t-126 -187.5t-186.5 -126t-229.5 -46t-230 46t-187 126t-126 187.5t-46 230.5zM123 549q0 -102 39 -192.5t106.5 -158t157.5 -106.5t192 -39t192.5 39 t157 106.5t105.5 158t39 192.5t-39 192t-105.5 157t-156.5 105.5t-193 38.5q-102 0 -192 -38.5t-157.5 -105.5t-106.5 -157t-39 -192zM288.5 597q14.5 81 61.5 147.5t122 109.5t167 43q51 0 105.5 -14.5t109.5 -44.5l14 -166q-121 141 -229 141q-68 0 -115 -24.5 t-74.5 -62.5t-40 -83t-8.5 -86q4 -70 28 -119t57.5 -80.5t73.5 -46t79 -14.5q61 0 108.5 24.5t106.5 84.5l25 -95q-111 -98 -238 -98q-49 0 -99 12.5t-96.5 38t-83 68.5t-59.5 104q-29 80 -14.5 161z" />
<glyph unicode="&#xaa;" horiz-adv-x="921" d="M23 840v67h135l274 662l119 -2l256 -660h137v-67h-409v67h116l-59 154h-307l-64 -154h135v-67h-333zM84 588v86h811v-86h-811zM307 1116h260l-121 336z" />
<glyph unicode="&#xab;" horiz-adv-x="1087" d="M240 338l299 344l43 -43l-260 -305l260 -297l-41 -53zM623 338l299 344l43 -43l-260 -305l260 -297l-41 -53z" />
<glyph unicode="&#xad;" horiz-adv-x="866" d="M205 647v88h459v-88h-459z" />
<glyph unicode="&#xae;" horiz-adv-x="1294" d="M29 549q0 123 46 229.5t126 186t187.5 126t229.5 46.5q123 0 229.5 -46.5t186.5 -126t126 -186t46 -229.5t-46 -230.5t-126 -187.5t-186.5 -126t-229.5 -46t-230 46t-187 126t-126 187.5t-46 230.5zM123 549q0 -102 39 -192.5t106.5 -158t157.5 -106.5t192 -39t192.5 39 t157 106.5t105.5 158t39 192.5t-39 192t-105.5 157t-156.5 105.5t-193 38.5q-102 0 -192 -38.5t-157.5 -105.5t-106.5 -157t-39 -192zM360 238q18 41 21.5 64.5t3.5 41.5v442q0 23 -3 46.5t-22 64.5h166q31 0 81 -2t98.5 -19.5t83 -55.5t34.5 -107q0 -33 -15 -62.5 t-40 -54.5t-56.5 -40t-64.5 -21q27 -35 51.5 -68t56 -67.5t77 -74.5t116.5 -87h-188q-39 35 -67.5 65.5t-53.5 64t-51.5 76.5t-63.5 105l17 20q18 -2 46.5 5.5t55.5 23.5t45.5 44t18.5 69q0 55 -51.5 97t-157.5 38v-502q0 -18 2 -41.5t22 -64.5h-162z" />
<glyph unicode="&#xaf;" horiz-adv-x="655" d="M221 1421v92h285v-92h-285z" />
<glyph unicode="&#xb0;" horiz-adv-x="829" d="M119 1266q0 109 67.5 186.5t165.5 77.5t167 -76.5t69 -187.5t-68.5 -188t-167.5 -77q-98 0 -165.5 76t-67.5 189zM178 1266q0 -82 51.5 -141.5t122.5 -59.5q74 0 125 58.5t51 142.5t-51 141t-125 57q-72 0 -123 -57t-51 -141z" />
<glyph unicode="&#xb1;" horiz-adv-x="1433" d="M246 -25v72h964v-72h-964zM246 582v69h446v391h68v-391h450v-69h-450v-392h-68v392h-446z" />
<glyph unicode="&#xb4;" horiz-adv-x="731" d="M145 1026l299 344l91 -82l-353 -301z" />
<glyph unicode="&#xb5;" horiz-adv-x="1179" d="M150 -285l4 119l4 182l-2 207l-4 195v502h188v-607q0 -145 28.5 -194t102.5 -49q117 0 194.5 165.5t77.5 417.5v267h189v-672q0 -92 19.5 -135t58.5 -43q41 0 64.5 42t23.5 126v28h43l2 -18v-27q0 -113 -48 -176t-137 -63q-100 0 -154 88t-54 264q-47 -182 -126 -267 t-198 -85q-86 0 -150 53q-57 55 -81 158l-2 -58q0 -133 65.5 -290.5t65.5 -186.5q0 -41 -22.5 -63.5t-63.5 -22.5q-47 0 -67.5 35t-20.5 108z" />
<glyph unicode="&#xb6;" horiz-adv-x="933" d="M76 1047q0 78 22.5 156.5t73.5 133.5l35 37q61 66 164 66h477q25 0 24 -23q0 -8 -6 -18l-37 -31q-2 -6 -22.5 -7t-42.5 -3v-1372l-6 -13l-37 -39q-12 -12 -25.5 -2.5t-13.5 21.5v1405h-184v-1372l-6 -15l-33 -37q-6 -6 -17 -6q-23 0 -22 25v752q-143 0 -243.5 87 t-100.5 255zM133 1098q0 -127 77 -227t210 -123v610h-86q-37 0 -70 -14.5t-82 -69.5t-49 -176z" />
<glyph unicode="&#xb7;" horiz-adv-x="712" d="M203 760q0 63 46 109t109 46q66 0 112 -43.5t46 -111.5q0 -66 -45 -111t-113 -45q-61 0 -108 45t-47 111z" />
<glyph unicode="&#xb8;" horiz-adv-x="1052" d="M109 -401q14 47 25 78.5t34 78.5q55 -59 114.5 -87.5t108.5 -28.5q35 0 59.5 12t37 30.5t12.5 36.5q0 27 -10.5 46.5t-24.5 35t-58.5 34t-68.5 30.5q16 35 40.5 99.5t37.5 101.5l69 -27q-4 -8 -32.5 -64.5t-38.5 -80.5q37 -14 75 -31q64 -33 64 -111q0 -102 -25.5 -127.5 t-67.5 -33t-59 -7.5q-53 0 -101 17.5t-85 54.5q-4 2 -19.5 -37t-17.5 -41q-10 6 -69 21z" />
<glyph unicode="&#xba;" horiz-adv-x="923" d="M84 588v86h811v-86h-811zM117 1178q0 156 106.5 274.5t261.5 118.5q158 0 275 -112.5t117 -262.5q0 -152 -109 -268.5t-264 -116.5q-158 0 -272.5 108.5t-114.5 258.5zM260 1188q0 -135 65.5 -221t170.5 -86q104 0 170.5 87t66.5 222q0 137 -66.5 224t-172.5 87 q-102 0 -168 -90t-66 -223z" />
<glyph unicode="&#xbb;" horiz-adv-x="1087" d="M203 37l260 297l-260 305l43 43l299 -344l-301 -354zM586 37l260 297l-260 305l43 43l299 -344l-301 -354z" />
<glyph unicode="&#xbf;" horiz-adv-x="964" d="M86 2q0 168 96.5 304t233.5 136q45 0 62.5 62.5t17.5 154.5l131 5v-107q0 -98 -56.5 -156.5t-111.5 -48.5q-10 2 -31 2q-96 0 -147.5 -114.5t-51.5 -249.5q0 -109 61.5 -179.5t155.5 -93.5q72 -18 125 -18q76 0 134.5 37t100.5 93t54 90t12 69q0 31 -12 61 q-8 -23 -27.5 -46t-45 -38.5t-64.5 -15.5q-82 0 -115 53t-33 92q0 84 53.5 116t92.5 32q57 0 108.5 -39t71 -98.5t19.5 -118.5q0 -150 -79 -232t-165 -105.5t-209 -23.5q-164 0 -272.5 104.5t-108.5 272.5zM416 956q0 61 40 103.5t99 42.5q57 0 98 -43t41 -103 q0 -61 -40 -103t-99 -42t-99 42t-40 103z" />
<glyph unicode="&#xc0;" horiz-adv-x="1515" d="M-215 -221q0 23 9 60.5t50 68.5t88 31q18 0 51 -10.5t64 -50.5t31 -89l-4 -35q-14 -51 -62 -84q23 -8 43 -8q57 0 83 50t52.5 125t47 133.5t38.5 119.5l404 1229q-49 6 -77 8t-58 4q-18 0 -68.5 2t-66.5 2q-72 0 -116 -5t-79 -24.5t-64.5 -71.5t-29.5 -106q0 -43 20 -75 q10 25 28.5 47t45.5 37.5t66 15.5q82 0 114.5 -52t32.5 -93q0 -86 -50 -114t-83 -28q-57 0 -112.5 35t-83 95.5t-27.5 140.5q0 82 31.5 147.5t79.5 94t86 34.5t91 6h97h454l420 -1329h219v-88h-637v88h201l-115 367h-538l-127 -367l-101 -297q-33 -94 -82 -143t-128 -49 q-47 0 -142.5 37.5t-95.5 140.5zM483 518h496l-234 793zM610 1753l84 94l305 -336l-36 -41z" />
<glyph unicode="&#xc1;" horiz-adv-x="1544" d="M-215 -221q0 23 9 60.5t50 68.5t88 31q18 0 51 -10.5t64 -50.5t31 -89l-4 -35q-14 -51 -62 -84q23 -8 43 -8q57 0 83 50t52.5 125t47 133.5t38.5 119.5l404 1229q-49 6 -77 8t-58 4q-18 0 -68.5 2t-66.5 2q-72 0 -116 -5t-79 -24.5t-64.5 -71.5t-29.5 -106q0 -43 20 -75 q10 25 28.5 47t45.5 37.5t66 15.5q82 0 114.5 -52t32.5 -93q0 -86 -50 -114t-83 -28q-57 0 -112.5 35t-83 95.5t-27.5 140.5q0 82 31.5 147.5t79.5 94t86 34.5t91 6h97h454l420 -1329h219v-88h-637v88h201l-115 367h-538l-127 -367l-101 -297q-33 -94 -82 -143t-128 -49 q-47 0 -142.5 37.5t-95.5 140.5zM463 1493l299 342l90 -82l-352 -301zM483 518h496l-234 793z" />
<glyph unicode="&#xc2;" horiz-adv-x="1556" d="M-215 -221q0 23 9 60.5t50 68.5t88 31q18 0 51 -10.5t64 -50.5t31 -89l-4 -35q-14 -51 -62 -84q23 -8 43 -8q57 0 83 50t52.5 125t47 133.5t38.5 119.5l404 1229q-49 6 -77 8t-58 4q-18 0 -68.5 2t-66.5 2q-72 0 -116 -5t-79 -24.5t-64.5 -71.5t-29.5 -106q0 -43 20 -75 q10 25 28.5 47t45.5 37.5t66 15.5q82 0 114.5 -52t32.5 -93q0 -86 -50 -114t-83 -28q-57 0 -112.5 35t-83 95.5t-27.5 140.5q0 82 31.5 147.5t79.5 94t86 34.5t91 6h97h454l420 -1329h219v-88h-637v88h201l-115 367h-538l-127 -367l-101 -297q-33 -94 -82 -143t-128 -49 q-47 0 -142.5 37.5t-95.5 140.5zM483 518h496l-234 793zM610 1475l115 237h125l117 -237l-13 -13l-166 180l-165 -180z" />
<glyph unicode="&#xc3;" horiz-adv-x="1515" d="M-215 -221q0 23 9 60.5t50 68.5t88 31q18 0 51 -10.5t64 -50.5t31 -89l-4 -35q-14 -51 -62 -84q23 -8 43 -8q57 0 83 50t52.5 125t47 133.5t38.5 119.5l404 1229q-49 6 -77 8t-58 4q-18 0 -68.5 2t-66.5 2q-72 0 -116 -5t-79 -24.5t-64.5 -71.5t-29.5 -106q0 -43 20 -75 q10 25 28.5 47t45.5 37.5t66 15.5q82 0 114.5 -52t32.5 -93q0 -86 -50 -114t-83 -28q-57 0 -112.5 35t-83 95.5t-27.5 140.5q0 82 31.5 147.5t79.5 94t86 34.5t91 6h97h454l420 -1329h219v-88h-637v88h201l-115 367h-538l-127 -367l-101 -297q-33 -94 -82 -143t-128 -49 q-47 0 -142.5 37.5t-95.5 140.5zM483 518h496l-234 793zM545 1569q0 59 41 116.5t83 68.5t52 11q49 0 106 -47q59 -59 90 -87.5t54.5 -46t42.5 -17.5q43 0 59 104h19q2 -6 2 -29q0 -61 -26 -119.5t-81 -58.5q-6 0 -34.5 7.5t-114.5 79t-115 89t-64 17.5q-88 0 -88 -123h-20 q-6 16 -6 35z" />
<glyph unicode="&#xc4;" horiz-adv-x="1556" d="M-215 -221q0 23 9 60.5t50 68.5t88 31q18 0 51 -10.5t64 -50.5t31 -89l-4 -35q-14 -51 -62 -84q23 -8 43 -8q57 0 83 50t52.5 125t47 133.5t38.5 119.5l404 1229q-49 6 -77 8t-58 4q-18 0 -68.5 2t-66.5 2q-72 0 -116 -5t-79 -24.5t-64.5 -71.5t-29.5 -106q0 -43 20 -75 q10 25 28.5 47t45.5 37.5t66 15.5q82 0 114.5 -52t32.5 -93q0 -86 -50 -114t-83 -28q-57 0 -112.5 35t-83 95.5t-27.5 140.5q0 82 31.5 147.5t79.5 94t86 34.5t91 6h97h454l420 -1329h219v-88h-637v88h201l-115 367h-538l-127 -367l-101 -297q-33 -94 -82 -143t-128 -49 q-47 0 -142.5 37.5t-95.5 140.5zM475 1581q0 43 31 74t74 31q41 0 71.5 -31t30.5 -74t-29.5 -72.5t-72.5 -29.5t-74 30.5t-31 71.5zM483 518h496l-234 793zM883 1581q0 43 30.5 74t73.5 31q41 0 72 -31t31 -74q0 -41 -31 -71.5t-72 -30.5q-43 0 -73.5 30.5t-30.5 71.5z" />
<glyph unicode="&#xc5;" horiz-adv-x="1556" d="M-215 -221q0 23 9 60.5t50 68.5t88 31q18 0 51 -10.5t64 -50.5t31 -89l-4 -35q-14 -51 -62 -84q23 -8 43 -8q57 0 83 50t52.5 125t47 133.5t38.5 119.5l404 1229q-49 6 -77 8t-58 4q-18 0 -68.5 2t-66.5 2q-72 0 -116 -5t-79 -24.5t-64.5 -71.5t-29.5 -106q0 -43 20 -75 q10 25 28.5 47t45.5 37.5t66 15.5q82 0 114.5 -52t32.5 -93q0 -86 -50 -114t-83 -28q-57 0 -112.5 35t-83 95.5t-27.5 140.5q0 82 31.5 147.5t79.5 94t86 34.5t91 6h97h454l420 -1329h219v-88h-637v88h201l-115 367h-538l-127 -367l-101 -297q-33 -94 -82 -143t-128 -49 q-47 0 -142.5 37.5t-95.5 140.5zM483 518h496l-234 793zM539 1659q0 84 69.5 139t155.5 55t156.5 -54t70.5 -140q0 -84 -71.5 -141.5t-155.5 -57.5q-86 0 -155.5 56.5t-69.5 142.5zM604 1659q0 -59 49 -96t111 -37q57 0 109.5 37t52.5 96t-50.5 94t-111.5 35 q-59 0 -109.5 -35t-50.5 -94z" />
<glyph unicode="&#xc6;" horiz-adv-x="1923" d="M59 2v88h242l803 1325l739 2l21 -360h-72q-14 125 -36.5 196.5t-168.5 71.5h-305v-567h209q74 0 82 14t33 137l51 2l2 -395l-60 4q-10 92 -31.5 123t-84.5 31l-201 2v-586h324q104 0 137 60.5t49 209.5h72l-21 -358h-971v88h228l2 367h-506l-238 -367h215v-88h-514z M637 518h467v795z" />
<glyph unicode="&#xc7;" horiz-adv-x="1243" d="M72 641q0 360 170 578.5t477 218.5q82 0 180 -46t180 -132t82 -240q0 -61 -19.5 -118.5t-69.5 -95.5t-109 -38q-39 0 -92.5 33t-53.5 117q0 37 19 73q43 70 127 70q39 0 78.5 -23.5t60.5 -76.5q12 31 12 61q0 68 -97 201t-337 133q-35 0 -125 -8.5t-206 -184.5t-116 -393 v-46t20.5 -142t127.5 -265.5t287 -189.5q57 -14 118 -14q100 0 184.5 41t168.5 125l39 -39q-113 -139 -244 -210t-299 -71q-41 0 -83 11.5t-87 29.5l-51 -106q37 -14 75 -31q63 -33 64 -111q0 -102 -25.5 -127.5t-67.5 -33t-59 -7.5q-53 0 -101 17.5t-85 54.5 q-4 2 -19.5 -37t-17.5 -41q-10 6 -69 21q14 47 25 78.5t34 78.5q55 -59 114.5 -87.5t108.5 -28.5q35 0 59.5 12t37 30.5t12.5 36.5q0 27 -10.5 46.5t-24.5 35t-58.5 34t-68.5 30.5q10 20 30.5 74.5t34.5 91.5q-150 88 -240.5 253t-90.5 357z" />
<glyph unicode="&#xc8;" horiz-adv-x="1380" d="M72 1137q0 82 31.5 147.5t78.5 94t82 34.5t84 6q25 0 51.5 -1t57.5 -1h835l21 -360h-72q-14 125 -36.5 196.5t-168.5 71.5h-305v-567h209q74 0 82 14t33 137l51 2l2 -395l-59 4q-10 92 -32 123t-85 31l-201 2v-586h324q104 0 137 60.5t49 209.5h72l-21 -358h-970v88h227 v1241q-4 0 -52 2t-85 2q-74 0 -118 -5t-79 -24.5t-64.5 -71.5t-29.5 -106q0 -43 20 -75q10 25 28.5 47t45.5 37.5t66 15.5q82 0 114.5 -52t32.5 -93q0 -86 -50 -114t-83 -28q-57 0 -112.5 35t-83 95.5t-27.5 140.5zM557 1749l86 94l303 -336l-37 -41z" />
<glyph unicode="&#xc9;" horiz-adv-x="1339" d="M72 1137q0 82 31.5 147.5t78.5 94t82 34.5t84 6q25 0 51.5 -1t57.5 -1h835l21 -360h-72q-14 125 -36.5 196.5t-168.5 71.5h-305v-567h209q74 0 82 14t33 137l51 2l2 -395l-59 4q-10 92 -32 123t-85 31l-201 2v-586h324q104 0 137 60.5t49 209.5h72l-21 -358h-970v88h227 v1241q-4 0 -52 2t-85 2q-74 0 -118 -5t-79 -24.5t-64.5 -71.5t-29.5 -106q0 -43 20 -75q10 25 28.5 47t45.5 37.5t66 15.5q82 0 114.5 -52t32.5 -93q0 -86 -50 -114t-83 -28q-57 0 -112.5 35t-83 95.5t-27.5 140.5zM596 1522l297 342l92 -82l-352 -301z" />
<glyph unicode="&#xca;" horiz-adv-x="1370" d="M72 1137q0 82 31.5 147.5t78.5 94t82 34.5t84 6q25 0 51.5 -1t57.5 -1h835l21 -360h-72q-14 125 -36.5 196.5t-168.5 71.5h-305v-567h209q74 0 82 14t33 137l51 2l2 -395l-59 4q-10 92 -32 123t-85 31l-201 2v-586h324q104 0 137 60.5t49 209.5h72l-21 -358h-970v88h227 v1241q-4 0 -52 2t-85 2q-74 0 -118 -5t-79 -24.5t-64.5 -71.5t-29.5 -106q0 -43 20 -75q10 25 28.5 47t45.5 37.5t66 15.5q82 0 114.5 -52t32.5 -93q0 -86 -50 -114t-83 -28q-57 0 -112.5 35t-83 95.5t-27.5 140.5zM666 1499l116 238h125l115 -238l-10 -12l-168 180 l-166 -180z" />
<glyph unicode="&#xcb;" horiz-adv-x="1370" d="M72 1137q0 82 31.5 147.5t78.5 94t82 34.5t84 6q25 0 51.5 -1t57.5 -1h835l21 -360h-72q-14 125 -36.5 196.5t-168.5 71.5h-305v-567h209q74 0 82 14t33 137l51 2l2 -395l-59 4q-10 92 -32 123t-85 31l-201 2v-586h324q104 0 137 60.5t49 209.5h72l-21 -358h-970v88h227 v1241q-4 0 -52 2t-85 2q-74 0 -118 -5t-79 -24.5t-64.5 -71.5t-29.5 -106q0 -43 20 -75q10 25 28.5 47t45.5 37.5t66 15.5q82 0 114.5 -52t32.5 -93q0 -86 -50 -114t-83 -28q-57 0 -112.5 35t-83 95.5t-27.5 140.5zM567 1602q0 43 31 73.5t72 30.5q43 0 73.5 -30.5 t30.5 -73.5q0 -41 -30.5 -72t-73.5 -31q-41 0 -72 31t-31 72zM975 1602q0 43 28.5 73.5t73.5 30.5q43 0 74 -30.5t31 -73.5q0 -41 -31 -72t-74 -31q-41 0 -71.5 31t-30.5 72z" />
<glyph unicode="&#xcc;" horiz-adv-x="983" d="M72 1137q0 82 31.5 147.5t79.5 94t86 34.5t91 6h97h499v-88h-227v-1241h227v-88h-637v88h228v1241q-18 0 -68.5 2t-66.5 2q-53 0 -105.5 -4t-89.5 -24.5t-66.5 -72.5t-29.5 -106q0 -43 20 -75q10 25 28.5 47t45.5 37.5t66 15.5q82 0 114.5 -52t32.5 -93q0 -86 -50 -114 t-83 -28q-57 0 -112.5 35t-83 95.5t-27.5 140.5zM369 1737l86 92l303 -336l-37 -41z" />
<glyph unicode="&#xcd;" horiz-adv-x="983" d="M72 1137q0 82 31.5 147.5t79.5 94t86 34.5t91 6h97h499v-88h-227v-1241h227v-88h-637v88h228v1241q-18 0 -68.5 2t-66.5 2q-53 0 -105.5 -4t-89.5 -24.5t-66.5 -72.5t-29.5 -106q0 -43 20 -75q10 25 28.5 47t45.5 37.5t66 15.5q82 0 114.5 -52t32.5 -93q0 -86 -50 -114 t-83 -28q-57 0 -112.5 35t-83 95.5t-27.5 140.5zM393 1493l297 342l92 -82l-352 -301z" />
<glyph unicode="&#xce;" horiz-adv-x="983" d="M72 1137q0 82 31.5 147.5t79.5 94t86 34.5t91 6h97h499v-88h-227v-1241h227v-88h-637v88h228v1241q-18 0 -68.5 2t-66.5 2q-53 0 -105.5 -4t-89.5 -24.5t-66.5 -72.5t-29.5 -106q0 -43 20 -75q10 25 28.5 47t45.5 37.5t66 15.5q82 0 114.5 -52t32.5 -93q0 -86 -50 -114 t-83 -28q-57 0 -112.5 35t-83 95.5t-27.5 140.5zM420 1483l115 237h124l117 -237l-12 -13l-166 181l-166 -181z" />
<glyph unicode="&#xcf;" horiz-adv-x="983" d="M72 1137q0 82 31.5 147.5t79.5 94t86 34.5t91 6h97h499v-88h-227v-1241h227v-88h-637v88h228v1241q-18 0 -68.5 2t-66.5 2q-53 0 -105.5 -4t-89.5 -24.5t-66.5 -72.5t-29.5 -106q0 -43 20 -75q10 25 28.5 47t45.5 37.5t66 15.5q82 0 114.5 -52t32.5 -93q0 -86 -50 -114 t-83 -28q-57 0 -112.5 35t-83 95.5t-27.5 140.5zM297 1612q0 43 30.5 73.5t73.5 30.5q41 0 72 -30.5t31 -73.5t-30 -73t-73 -30t-73.5 31t-30.5 72zM705 1612q0 43 30.5 73.5t73.5 30.5q41 0 71.5 -30.5t30.5 -73.5q0 -41 -30.5 -72t-71.5 -31q-43 0 -73.5 31t-30.5 72z" />
<glyph unicode="&#xd1;" horiz-adv-x="1720" d="M72 1137q0 82 31.5 147.5t79.5 94t86 34.5t91 6h97h348l668 -1040v954h-228v86h514v-86h-225v-1181v-91q0 -125 -12 -124q-6 0 -21.5 19t-32.5 42l-858 1339v-1294q0 -219 -41 -328.5t-172 -109.5q-53 0 -147 29.5t-94 144.5q0 23 9 60.5t50 68.5t88 31q18 0 51 -10.5 t64 -50.5t31 -89l-5 -35q-14 -51 -61 -84q25 -6 43 -6q78 0 100.5 89t22.5 239v71v1268q-4 0 -52 2t-85 2q-74 0 -118 -5t-79 -24.5t-64.5 -71.5t-29.5 -106q0 -43 20 -75q10 25 28.5 47t45.5 37.5t66 15.5q82 0 114.5 -52t32.5 -93q0 -86 -50 -114t-83 -28q-57 0 -112.5 35 t-83 95.5t-27.5 140.5zM737 1561q0 59 41 116.5t83 68.5t52 11q49 0 107 -47q59 -59 79.5 -78.5t52.5 -46t54 -26.5q43 0 60 104h18q2 -6 2 -29q0 -61 -25.5 -119.5t-80.5 -58.5q-6 0 -35 7t-115 79t-114.5 89.5t-63.5 17.5q-88 0 -88 -123h-21q-6 16 -6 35z" />
<glyph unicode="&#xd2;" horiz-adv-x="1310" d="M55 668q0 307 172 539.5t420 232.5q256 0 442.5 -218t186.5 -513q0 -303 -173 -534.5t-425 -231.5t-437.5 216t-185.5 509zM250 686q0 -289 114.5 -469t299.5 -180q182 0 298.5 185t116.5 470q0 287 -118.5 471.5t-301.5 184.5l-41 -2q-92 -27 -142 -120t-50 -225 q0 -113 20.5 -189.5t85 -143t150.5 -66.5q31 0 59 12q-47 35 -57 69t-10 52q0 49 29.5 89t63.5 50.5t52 10.5q51 0 90 -31t49.5 -67.5t10.5 -59.5q0 -61 -43 -106.5t-90.5 -55.5t-61.5 -12t-47 -2q-92 0 -173 38t-124 105.5t-73.5 163.5t-30.5 193q0 29 2 43 q-78 -166 -78 -408zM518 1759l86 94l303 -335l-37 -41z" />
<glyph unicode="&#xd3;" horiz-adv-x="1310" d="M55 668q0 307 172 539.5t420 232.5q256 0 442.5 -218t186.5 -513q0 -303 -173 -534.5t-425 -231.5t-437.5 216t-185.5 509zM250 686q0 -289 114.5 -469t299.5 -180q182 0 298.5 185t116.5 470q0 287 -118.5 471.5t-301.5 184.5l-41 -2q-92 -27 -142 -120t-50 -225 q0 -113 20.5 -189.5t85 -143t150.5 -66.5q31 0 59 12q-47 35 -57 69t-10 52q0 49 29.5 89t63.5 50.5t52 10.5q51 0 90 -31t49.5 -67.5t10.5 -59.5q0 -61 -43 -106.5t-90.5 -55.5t-61.5 -12t-47 -2q-92 0 -173 38t-124 105.5t-73.5 163.5t-30.5 193q0 29 2 43 q-78 -166 -78 -408zM446 1499l297 342l91 -82l-353 -301z" />
<glyph unicode="&#xd4;" horiz-adv-x="1310" d="M55 668q0 307 172 539.5t420 232.5q256 0 442.5 -218t186.5 -513q0 -303 -173 -534.5t-425 -231.5t-437.5 216t-185.5 509zM250 686q0 -289 114.5 -469t299.5 -180q182 0 298.5 185t116.5 470q0 287 -118.5 471.5t-301.5 184.5l-41 -2q-92 -27 -142 -120t-50 -225 q0 -113 20.5 -189.5t85 -143t150.5 -66.5q31 0 59 12q-47 35 -57 69t-10 52q0 49 29.5 89t63.5 50.5t52 10.5q51 0 90 -31t49.5 -67.5t10.5 -59.5q0 -61 -43 -106.5t-90.5 -55.5t-61.5 -12t-47 -2q-92 0 -173 38t-124 105.5t-73.5 163.5t-30.5 193q0 29 2 43 q-78 -166 -78 -408zM475 1487l117 237h125l114 -237l-10 -12l-168 180l-166 -180z" />
<glyph unicode="&#xd5;" horiz-adv-x="1310" d="M55 668q0 307 172 539.5t420 232.5q256 0 442.5 -218t186.5 -513q0 -303 -173 -534.5t-425 -231.5t-437.5 216t-185.5 509zM250 686q0 -289 114.5 -469t299.5 -180q182 0 298.5 185t116.5 470q0 287 -118.5 471.5t-301.5 184.5l-41 -2q-92 -27 -142 -120t-50 -225 q0 -113 20.5 -189.5t85 -143t150.5 -66.5q31 0 59 12q-47 35 -57 69t-10 52q0 49 29.5 89t63.5 50.5t52 10.5q51 0 90 -31t49.5 -67.5t10.5 -59.5q0 -61 -43 -106.5t-90.5 -55.5t-61.5 -12t-47 -2q-92 0 -173 38t-124 105.5t-73.5 163.5t-30.5 193q0 29 2 43 q-78 -166 -78 -408zM408 1595q0 57 40.5 115.5t82.5 70t53 11.5q49 0 106 -47q59 -59 90 -88t54.5 -46.5t42.5 -17.5q43 0 59 105h18q2 -6 2 -29q0 -61 -25.5 -119.5t-80.5 -58.5q-6 0 -35 7t-116 80t-114.5 89t-62.5 16q-88 0 -88 -122h-20q-6 16 -6 34z" />
<glyph unicode="&#xd6;" horiz-adv-x="1335" d="M55 668q0 307 172 539.5t420 232.5q256 0 442.5 -218t186.5 -513q0 -303 -173 -534.5t-425 -231.5t-437.5 216t-185.5 509zM250 686q0 -289 114.5 -469t299.5 -180q182 0 298.5 185t116.5 470q0 287 -118.5 471.5t-301.5 184.5l-41 -2q-92 -27 -142 -120t-50 -225 q0 -113 20.5 -189.5t85 -143t150.5 -66.5q31 0 59 12q-47 35 -57 69t-10 52q0 49 29.5 89t63.5 50.5t52 10.5q51 0 90 -31t49.5 -67.5t10.5 -59.5q0 -61 -43 -106.5t-90.5 -55.5t-61.5 -12t-47 -2q-92 0 -173 38t-124 105.5t-73.5 163.5t-30.5 193q0 29 2 43 q-78 -166 -78 -408zM387 1585q0 43 31 74t71 31q43 0 74 -31t31 -74q0 -41 -31 -71.5t-74 -30.5q-41 0 -71.5 30.5t-30.5 71.5zM795 1585q0 43 28.5 74t73.5 31q43 0 73.5 -31t30.5 -74q0 -41 -30.5 -71.5t-73.5 -30.5q-41 0 -71.5 30.5t-30.5 71.5z" />
<glyph unicode="&#xd8;" horiz-adv-x="1308" d="M55 668q0 307 172 539.5t420 232.5q106 0 201.5 -40t179.5 -116l84 141l45 -28l-90 -152q96 -102 152.5 -243.5t56.5 -292.5q0 -303 -173 -534.5t-425 -231.5q-164 0 -309 100l-95 -160l-47 25l97 168q-123 100 -196 256.5t-73 335.5zM250 686q0 -324 137 -502l223 383 q-59 18 -107 53t-82 88.5t-64.5 149.5t-30.5 193q0 29 2 43q-78 -166 -78 -408zM424 141q104 -104 240 -104q182 0 298.5 185.5t116.5 469.5q0 244 -88 420l-137 -233q86 -20 100.5 -74.5t14.5 -79.5q0 -61 -44 -105.5t-98.5 -56.5t-105.5 -12q-14 0 -30.5 2t-24.5 2z M426 1001q0 -113 20.5 -189.5t77.5 -137.5q54 -50 111 -66l47 82l-2 8q-6 23 -6 41q0 47 31.5 87t76.5 51l11 2l165 286q-55 86 -132.5 134.5t-166.5 48.5l-41 -2q-92 -27 -142 -120t-50 -225zM692 604q23 0 49 10l-26 25z" />
<glyph unicode="&#xd9;" horiz-adv-x="1802" d="M72 1137q0 82 31.5 147.5t79.5 94t86 34.5t91 6h97h452v-86h-178v-715q0 -313 90 -436t250 -123q156 0 248 124t92 435v715h-178v86h588v-86h-228v-715q0 -293 -129 -473t-393 -180t-393 179.5t-129 473.5v715h-54.5t-66.5 2q-76 0 -127 -5t-86 -24.5t-64.5 -71.5 t-29.5 -106q0 -43 20 -75q10 25 28.5 47t45.5 37.5t66 15.5q82 0 114.5 -52t32.5 -93q0 -86 -50 -114t-83 -28q-57 0 -112.5 35t-83 95.5t-27.5 140.5zM862 1739l86 92l303 -336l-37 -41z" />
<glyph unicode="&#xda;" horiz-adv-x="1802" d="M72 1137q0 82 31.5 147.5t79.5 94t86 34.5t91 6h97h452v-86h-178v-715q0 -313 90 -436t250 -123q156 0 248 124t92 435v715h-178v86h588v-86h-228v-715q0 -293 -129 -473t-393 -180t-393 179.5t-129 473.5v715h-54.5t-66.5 2q-76 0 -127 -5t-86 -24.5t-64.5 -71.5 t-29.5 -106q0 -43 20 -75q10 25 28.5 47t45.5 37.5t66 15.5q82 0 114.5 -52t32.5 -93q0 -86 -50 -114t-83 -28q-57 0 -112.5 35t-83 95.5t-27.5 140.5zM874 1481l300 342l90 -80l-353 -303z" />
<glyph unicode="&#xdb;" horiz-adv-x="1802" d="M72 1137q0 82 31.5 147.5t79.5 94t86 34.5t91 6h97h452v-86h-178v-715q0 -313 90 -436t250 -123q156 0 248 124t92 435v715h-178v86h588v-86h-228v-715q0 -293 -129 -473t-393 -180t-393 179.5t-129 473.5v715h-54.5t-66.5 2q-76 0 -127 -5t-86 -24.5t-64.5 -71.5 t-29.5 -106q0 -43 20 -75q10 25 28.5 47t45.5 37.5t66 15.5q82 0 114.5 -52t32.5 -93q0 -86 -50 -114t-83 -28q-57 0 -112.5 35t-83 95.5t-27.5 140.5zM877 1470l116 238h125l115 -238l-12 -12l-166 180l-166 -180z" />
<glyph unicode="&#xdc;" horiz-adv-x="1802" d="M72 1137q0 82 31.5 147.5t79.5 94t86 34.5t91 6h97h452v-86h-178v-715q0 -313 90 -436t250 -123q156 0 248 124t92 435v715h-178v86h588v-86h-228v-715q0 -293 -129 -473t-393 -180t-393 179.5t-129 473.5v715h-54.5t-66.5 2q-76 0 -127 -5t-86 -24.5t-64.5 -71.5 t-29.5 -106q0 -43 20 -75q10 25 28.5 47t45.5 37.5t66 15.5q82 0 114.5 -52t32.5 -93q0 -86 -50 -114t-83 -28q-57 0 -112.5 35t-83 95.5t-27.5 140.5zM705 1567q0 43 30.5 73.5t73.5 30.5q41 0 71.5 -30.5t30.5 -73.5q0 -41 -30.5 -72t-71.5 -31q-43 0 -73.5 31t-30.5 72z M1112 1567q0 43 31 73.5t71 30.5q43 0 74 -30.5t31 -73.5q0 -41 -31 -72t-74 -31q-41 0 -71.5 31t-30.5 72z" />
<glyph unicode="&#xdd;" horiz-adv-x="1734" d="M72 1137q0 82 31.5 147.5t79.5 94t86 34.5t91 6h97h495v-88h-213l353 -727l350 727h-221v88h516v-88h-217l-404 -815v-426h227v-88h-636v88h227l-2 410l-404 831q-2 0 -46 2t-79 2q-70 0 -111.5 -5t-76.5 -24.5t-64.5 -71.5t-29.5 -106q0 -43 20 -75q10 25 28.5 47 t45.5 37.5t66 15.5q82 0 114.5 -52t32.5 -93q0 -86 -50 -114t-83 -28q-57 0 -112.5 35t-83 95.5t-27.5 140.5zM671 1704l299 344l91 -82l-353 -301z" />
<glyph unicode="&#xe0;" horiz-adv-x="1171" d="M29 2v86h170l340 825l149 -2l322 -823h170v-86h-512v86h147l-76 188h-383l-80 -188h170v-86h-417zM369 1323l86 92l303 -336l-37 -41zM385 346h324l-152 422z" />
<glyph unicode="&#xe1;" horiz-adv-x="1159" d="M29 2v86h170l340 825l149 -2l322 -823h170v-86h-512v86h147l-76 188h-383l-80 -188h170v-86h-417zM319 1094l299 342l91 -80l-353 -303zM385 346h324l-152 422z" />
<glyph unicode="&#xe2;" horiz-adv-x="1171" d="M29 2v86h170l340 825l149 -2l322 -823h170v-86h-512v86h147l-76 188h-383l-80 -188h170v-86h-417zM385 346h324l-152 422zM395 1180l115 235h127l115 -235l-13 -13l-166 181l-165 -181z" />
<glyph unicode="&#xe3;" horiz-adv-x="1171" d="M29 2v86h170l340 825l149 -2l322 -823h170v-86h-512v86h147l-76 188h-383l-80 -188h170v-86h-417zM291 1206q0 55 41 115.5t83 71t52 10.5q47 0 104 -47q59 -59 90 -88t54.5 -46.5t44.5 -17.5q43 0 59 105h17q2 -6 2 -29q0 -61 -26 -119.5t-81 -58.5q-6 0 -34.5 7 t-112.5 77.5t-115 89t-63 18.5q-90 0 -91 -123h-20q-4 20 -4 35zM385 346h324l-152 422z" />
<glyph unicode="&#xe4;" horiz-adv-x="1171" d="M29 2v86h170l340 825l149 -2l322 -823h170v-86h-512v86h147l-76 188h-383l-80 -188h170v-86h-417zM266 1303q0 43 30 72.5t73 29.5t72.5 -29.5t29.5 -72.5t-28.5 -74t-73.5 -31q-41 0 -72 31t-31 74zM385 346h324l-152 422zM672 1303q0 41 30.5 71.5t73.5 30.5t73 -29.5 t30 -72.5t-31 -74t-72 -31q-43 0 -73.5 31t-30.5 74z" />
<glyph unicode="&#xe5;" horiz-adv-x="1146" d="M29 2v86h170l340 825l149 -2l322 -823h170v-86h-512v86h147l-76 188h-383l-80 -188h170v-86h-417zM369 1223q0 86 68.5 140t156.5 54q86 0 156.5 -53t70.5 -141q0 -84 -71.5 -141.5t-155.5 -57.5q-86 0 -155.5 56.5t-69.5 142.5zM385 346h324l-152 422zM434 1223 q0 -57 50.5 -95t109.5 -38q57 0 109.5 37t52.5 96q0 57 -51.5 94t-110.5 37q-61 0 -110.5 -36t-49.5 -95z" />
<glyph unicode="&#xe6;" horiz-adv-x="1441" d="M33 2v78h186l604 809l572 4l14 -246h-74q-12 96 -35.5 130t-107.5 34h-217v-324h143q49 0 58 13q10 39 20 82h59v-265l-63 2q-10 59 -23.5 77t-56.5 18h-137v-334h229q74 0 96.5 37t34.5 129h74l-14 -244h-752v78h170l2 199h-360l-160 -199h147v-78h-409zM500 340h317 v438z" />
<glyph unicode="&#xe7;" horiz-adv-x="933" d="M35 455q0 205 138 335t366 130q68 0 132 -25t117 -68l76 80l68 -41q-59 -72 -94 -114.5t-56 -77.5q-88 92 -152.5 127t-158.5 35q-115 0 -198 -109t-83 -242q0 -33 15.5 -107.5t92.5 -157.5t162 -101.5t128 -18.5q137 0 268 109l51 -47q-96 -96 -197.5 -141.5 t-234.5 -45.5l-20 2l-41 -83q37 -14 75 -31q63 -33 64 -111q0 -102 -25.5 -127.5t-67.5 -33t-59 -7.5q-53 0 -101 17.5t-85 54.5q-4 2 -19.5 -37t-17.5 -41q-10 6 -69 21q14 47 25 78.5t34 78.5q55 -59 114.5 -87.5t108.5 -28.5q35 0 59.5 12t37 30.5t12.5 36.5 q0 27 -10.5 46.5t-24.5 35t-58.5 34t-68.5 30.5l49 123q-150 35 -243 151.5t-101 199.5t-8 116z" />
<glyph unicode="&#xe8;" d="M29 2v86h170v719h-170v84l759 2l19 -250h-88q-10 94 -32.5 128t-104.5 34h-215v-313h141q45 0 50 9t22 83h67l2 -271h-37q-25 4 -37 6q-8 57 -20 74t-53 17h-135v-322h227q72 0 93.5 35t31.5 129h88l-21 -250h-757zM211 1341l84 93l305 -336l-37 -41z" />
<glyph unicode="&#xe9;" d="M29 2v86h170v719h-170v84l759 2l19 -250h-88q-10 94 -32.5 128t-104.5 34h-215v-313h141q45 0 50 9t22 83h67l2 -271h-37q-25 4 -37 6q-8 57 -20 74t-53 17h-135v-322h227q72 0 93.5 35t31.5 129h88l-21 -250h-757zM279 1071l299 342l90 -80l-353 -303z" />
<glyph unicode="&#xea;" d="M29 2v86h170v719h-170v84l759 2l19 -250h-88q-10 94 -32.5 128t-104.5 34h-215v-313h141q45 0 50 9t22 83h67l2 -271h-37q-25 4 -37 6q-8 57 -20 74t-53 17h-135v-322h227q72 0 93.5 35t31.5 129h88l-21 -250h-757zM268 1184l115 235h125l117 -235l-13 -13l-166 181 l-167 -181z" />
<glyph unicode="&#xeb;" d="M29 2v86h170v719h-170v84l759 2l19 -250h-88q-10 94 -32.5 128t-104.5 34h-215v-313h141q45 0 50 9t22 83h67l2 -271h-37q-25 4 -37 6q-8 57 -20 74t-53 17h-135v-322h227q72 0 93.5 35t31.5 129h88l-21 -250h-757zM158 1331q0 41 30.5 72t73.5 31q41 0 72 -31t31 -72 q0 -43 -31 -73.5t-72 -30.5q-43 0 -73.5 30.5t-30.5 73.5zM565 1331q0 41 31 72t72 31q43 0 73.5 -31t30.5 -72q0 -43 -30.5 -73.5t-73.5 -30.5q-41 0 -72 30.5t-31 73.5z" />
<glyph unicode="&#xec;" horiz-adv-x="585" d="M29 2v86h170v723h-170v84h508v-84h-170v-723h170v-86h-508zM61 1343l84 93l306 -336l-37 -41z" />
<glyph unicode="&#xed;" horiz-adv-x="585" d="M29 2v86h170v723h-170v84h508v-84h-170v-723h170v-86h-508zM121 1090l299 342l90 -80l-352 -303z" />
<glyph unicode="&#xee;" horiz-adv-x="585" d="M29 2v86h170v723h-170v84h508v-84h-170v-723h170v-86h-508zM111 1186l116 235h125l115 -235l-10 -12l-168 180l-166 -180z" />
<glyph unicode="&#xef;" horiz-adv-x="585" d="M12 1329q0 41 31 72t72 31q43 0 73.5 -31t30.5 -72q0 -43 -30.5 -73.5t-73.5 -30.5q-41 0 -72 30.5t-31 73.5zM29 2v86h170v723h-170v84h508v-84h-170v-723h170v-86h-508zM420 1329q0 43 29.5 73t72.5 30t74 -31t31 -72q0 -43 -31 -73.5t-74 -30.5q-41 0 -71.5 30.5 t-30.5 73.5z" />
<glyph unicode="&#xf1;" horiz-adv-x="1146" d="M29 -2v88h170v725h-170v82h385l477 -600v518h-170v82h418v-82h-170v-700q0 -49 -1 -100.5t-18 -51.5q-10 0 -27.5 17.5l-31.5 31.5l-615 776v-698h170v-88h-417zM330 1225q0 57 41 115.5t83 69.5t52 11q49 0 106 -47q59 -59 90 -88t54.5 -46t42.5 -17q43 0 59 104h19 q2 -6 2 -29q0 -61 -26 -119.5t-81 -58.5q-6 0 -34.5 7.5t-114.5 79t-115 89t-62 17.5q-90 0 -90 -123h-20q-6 16 -6 35z" />
<glyph unicode="&#xf2;" horiz-adv-x="995" d="M25 424q0 190 135 342t325 152q197 0 343.5 -142.5t146.5 -326.5q0 -190 -136.5 -337t-330.5 -147q-195 0 -339 136.5t-144 322.5zM203 436q0 -170 82 -276.5t213 -106.5q129 0 213 110.5t84 274.5q0 168 -85 279.5t-214 111.5t-211 -112.5t-82 -280.5zM236 1343l83 93 l306 -336l-37 -41z" />
<glyph unicode="&#xf3;" horiz-adv-x="995" d="M25 424q0 190 135 342t325 152q197 0 343.5 -142.5t146.5 -326.5q0 -190 -136.5 -337t-330.5 -147q-195 0 -339 136.5t-144 322.5zM203 436q0 -170 82 -276.5t213 -106.5q129 0 213 110.5t84 274.5q0 168 -85 279.5t-214 111.5t-211 -112.5t-82 -280.5zM319 1085l299 342 l91 -79l-353 -304z" />
<glyph unicode="&#xf4;" horiz-adv-x="995" d="M25 424q0 190 135 342t325 152q197 0 343.5 -142.5t146.5 -326.5q0 -190 -136.5 -337t-330.5 -147q-195 0 -339 136.5t-144 322.5zM203 436q0 -170 82 -276.5t213 -106.5q129 0 213 110.5t84 274.5q0 168 -85 279.5t-214 111.5t-211 -112.5t-82 -280.5zM313 1184l117 235 h125l115 -235l-13 -13l-165 181l-166 -181z" />
<glyph unicode="&#xf5;" horiz-adv-x="972" d="M25 424q0 190 135 342t325 152q197 0 343.5 -142.5t146.5 -326.5q0 -190 -136.5 -337t-330.5 -147q-195 0 -339 136.5t-144 322.5zM197 1223q0 57 41 115.5t82.5 69.5t52.5 11q49 0 106 -47q59 -59 90 -88t54.5 -46t42.5 -17q43 0 59 104h18q2 -6 2 -29 q0 -61 -25.5 -119.5t-80.5 -58.5q-6 0 -35 7.5t-115 79t-114.5 89t-63.5 17.5q-88 0 -88 -123h-20q-6 16 -6 35zM203 436q0 -170 82 -276.5t213 -106.5q129 0 213 110.5t84 274.5q0 168 -85 279.5t-214 111.5t-211 -112.5t-82 -280.5z" />
<glyph unicode="&#xf6;" horiz-adv-x="995" d="M25 424q0 190 135 342t325 152q197 0 343.5 -142.5t146.5 -326.5q0 -190 -136.5 -337t-330.5 -147q-195 0 -339 136.5t-144 322.5zM178 1333q0 41 31 72t72 31q43 0 73.5 -31t30.5 -72q0 -43 -30.5 -73.5t-73.5 -30.5q-41 0 -72 30.5t-31 73.5zM203 436q0 -170 82 -276.5 t213 -106.5q129 0 213 110.5t84 274.5q0 168 -85 279.5t-214 111.5t-211 -112.5t-82 -280.5zM586 1333q0 41 30.5 72t71.5 31q43 0 74 -31t31 -72q0 -43 -31 -73.5t-74 -30.5q-41 0 -71.5 30.5t-30.5 73.5z" />
<glyph unicode="&#xf7;" horiz-adv-x="1124" d="M246 637v70h770v-70h-770zM489 287q0 63 41 106t101 43q57 0 98 -43t41 -106q0 -61 -41 -104.5t-98 -43.5q-59 0 -100.5 43t-41.5 105zM489 1055q0 61 41 104t101 43q57 0 98 -43t41 -104t-41 -104.5t-98 -43.5q-59 0 -100.5 43t-41.5 105z" />
<glyph unicode="&#xf8;" horiz-adv-x="980" d="M29 424q0 190 133 337.5t323 147.5q139 0 275 -82l61 82l35 -6l-70 -96q88 -76 136.5 -168.5t48.5 -192.5q0 -188 -134.5 -336.5t-326.5 -148.5q-76 0 -140.5 19.5t-133.5 68.5l-50 -72l-41 7l62 82q-178 154 -178 358zM199 436q0 -143 75 -280l426 592q-80 100 -202 100 q-129 0 -214 -120t-85 -292zM293 127q86 -109 205 -109q131 0 216 123t85 297q0 137 -76 281z" />
<glyph unicode="&#xf9;" horiz-adv-x="1183" d="M29 813v84h471v-84h-133v-422q0 -180 63.5 -251.5t175.5 -71.5q141 0 189.5 93t48.5 230v422h-133v84h475v-84h-172v-422q0 -186 -99.5 -298.5t-308.5 -112.5q-205 0 -306 113.5t-101 297.5v422h-170zM305 1346l86 92l303 -336l-37 -41z" />
<glyph unicode="&#xfa;" horiz-adv-x="1183" d="M29 813v84h471v-84h-133v-422q0 -180 63.5 -251.5t175.5 -71.5q141 0 189.5 93t48.5 230v422h-133v84h475v-84h-172v-422q0 -186 -99.5 -298.5t-308.5 -112.5q-205 0 -306 113.5t-101 297.5v422h-170zM375 1083l297 342l92 -79l-352 -304z" />
<glyph unicode="&#xfb;" horiz-adv-x="1183" d="M29 813v84h471v-84h-133v-422q0 -180 63.5 -251.5t175.5 -71.5q141 0 189.5 93t48.5 230v422h-133v84h475v-84h-172v-422q0 -186 -99.5 -298.5t-308.5 -112.5q-205 0 -306 113.5t-101 297.5v422h-170zM399 1182l115 235h127l115 -235l-13 -13l-165 181l-166 -181z" />
<glyph unicode="&#xfc;" horiz-adv-x="1183" d="M29 813v84h471v-84h-133v-422q0 -180 63.5 -251.5t175.5 -71.5q141 0 189.5 93t48.5 230v422h-133v84h475v-84h-172v-422q0 -186 -99.5 -298.5t-308.5 -112.5q-205 0 -306 113.5t-101 297.5v422h-170zM274 1317q0 43 30 72.5t73 29.5t72.5 -29.5t29.5 -72.5t-28.5 -74 t-73.5 -31q-41 0 -72 31t-31 74zM680 1317q0 41 30.5 71.5t73.5 30.5t73 -29.5t30 -72.5t-31 -74t-72 -31q-43 0 -73.5 31t-30.5 74z" />
<glyph unicode="&#xfd;" horiz-adv-x="1110" d="M25 811v84h507v-84h-147l238 -395l233 395h-154v84h418v-84h-168l-297 -485v-238h172v-86h-512v86h170v229l-297 494h-163zM360 1026l299 344l91 -82l-353 -301z" />
<glyph unicode="&#xff;" horiz-adv-x="1105" d="M25 811v84h507v-84h-147l238 -395l233 395h-154v84h418v-84h-168l-297 -485v-238h172v-86h-512v86h170v229l-297 494h-163zM279 1329q0 41 30.5 72t73.5 31q41 0 71.5 -31t30.5 -72q0 -43 -28.5 -73.5t-73.5 -30.5q-43 0 -73.5 30.5t-30.5 73.5zM686 1329q0 41 31 72 t74 31q41 0 71.5 -31t30.5 -72q0 -43 -31 -73.5t-71 -30.5q-43 0 -74 30.5t-31 73.5z" />
<glyph unicode="&#x152;" horiz-adv-x="1638" d="M55 668q0 297 207 522t477 225l838 2l20 -360h-69q-14 125 -37 196.5t-168 71.5h-307v-567h209q82 0 94 41q12 59 22 110l50 2l2 -395l-58 4q-10 92 -31.5 123t-86.5 31l-201 2v-586h325q104 0 137 60.5t50 209.5h69l-20 -358h-838q-274 0 -479 189.5t-205 476.5z M250 686q0 -274 143.5 -435t345.5 -161h95v1241h-95q-195 0 -342 -183t-147 -462z" />
<glyph unicode="&#x153;" horiz-adv-x="1228" d="M29 422q0 184 159.5 325.5t366.5 141.5l641 4l14 -246h-73q-12 96 -36 130t-108 34h-217v-324h144q49 0 57 13q10 39 20 82h58l2 -265l-66 2q-8 57 -21.5 76t-56.5 19h-137v-334h232q72 0 94 37t35 129h73l-14 -244h-641q-211 0 -368.5 120t-157.5 300zM199 434 q0 -164 105.5 -259t250.5 -95h59v735h-59q-141 0 -248.5 -107.5t-107.5 -273.5z" />
<glyph unicode="&#x178;" horiz-adv-x="1720" d="M72 1137q0 82 31.5 147.5t79.5 94t86 34.5t91 6h97h495v-88h-213l353 -727l350 727h-221v88h516v-88h-217l-404 -815v-426h227v-88h-636v88h227l-2 410l-404 831q-2 0 -46 2t-79 2q-70 0 -111.5 -5t-76.5 -24.5t-64.5 -71.5t-29.5 -106q0 -43 20 -75q10 25 28.5 47 t45.5 37.5t66 15.5q82 0 114.5 -52t32.5 -93q0 -86 -50 -114t-83 -28q-57 0 -112.5 35t-83 95.5t-27.5 140.5zM688 1597q0 43 31 74t74 31q41 0 71.5 -31t30.5 -74q0 -41 -30.5 -71.5t-71.5 -30.5q-43 0 -74 30.5t-31 71.5zM1096 1597q0 43 30.5 74t71.5 31q43 0 74 -31 t31 -74q0 -41 -31 -71.5t-74 -30.5q-41 0 -71.5 30.5t-30.5 71.5z" />
<glyph unicode="&#x2c6;" horiz-adv-x="675" d="M141 1184l117 235h125l115 -235l-13 -13l-166 181l-165 -181z" />
<glyph unicode="&#x2dc;" horiz-adv-x="980" d="M188 1120q0 49 39 94.5t83 59.5t63 14q43 0 88 -27.5t86 -52.5q41 -18 78 -18q88 0 96 63.5t16 63.5q7 0 11 -14q2 -8 2 -25q0 -53 -45.5 -96t-110.5 -43q-25 0 -46.5 6t-81.5 37.5t-114 31.5q-57 0 -97 -47t-32 -108q-2 -4 -2 -8q-8 0 -20 16q-12 25 -13 53z" />
<glyph unicode="&#x2000;" horiz-adv-x="1024" />
<glyph unicode="&#x2001;" horiz-adv-x="2048" />
<glyph unicode="&#x2002;" horiz-adv-x="1024" />
<glyph unicode="&#x2003;" horiz-adv-x="2048" />
<glyph unicode="&#x2004;" horiz-adv-x="682" />
<glyph unicode="&#x2005;" horiz-adv-x="512" />
<glyph unicode="&#x2006;" horiz-adv-x="341" />
<glyph unicode="&#x2007;" horiz-adv-x="341" />
<glyph unicode="&#x2008;" horiz-adv-x="256" />
<glyph unicode="&#x2009;" horiz-adv-x="409" />
<glyph unicode="&#x200a;" horiz-adv-x="113" />
<glyph unicode="&#x2010;" horiz-adv-x="866" d="M205 647v88h459v-88h-459z" />
<glyph unicode="&#x2011;" horiz-adv-x="866" d="M205 647v88h459v-88h-459z" />
<glyph unicode="&#x2012;" horiz-adv-x="866" d="M205 647v88h459v-88h-459z" />
<glyph unicode="&#x2013;" horiz-adv-x="1064" d="M246 608v90h661v-90h-661z" />
<glyph unicode="&#x2014;" horiz-adv-x="1941" d="M209 608v90h1683v-90h-1683z" />
<glyph unicode="&#x2018;" horiz-adv-x="397" d="M104 1391q-6 29 20 73.5t62 51.5q37 8 80 -22t52.5 -73t14.5 -110.5t5 -151.5q0 -78 -1 -111.5t-5 -64.5l-62 -12q-45 96 -95 211.5t-71 208.5z" />
<glyph unicode="&#x2019;" horiz-adv-x="397" d="M143 1159q0 76 4.5 146.5t14.5 115.5t53 75t80 22q37 -6 62.5 -52t19.5 -75q-20 -94 -69.5 -208t-94.5 -212l-63 12q0 16 -3.5 78.5t-3.5 97.5z" />
<glyph unicode="&#x201a;" horiz-adv-x="397" d="M143 -166q0 76 4.5 146.5t14.5 115.5t53 75t80 22t62.5 -52t19.5 -73q-20 -96 -69.5 -211t-94.5 -211l-63 12q0 16 -3.5 78.5t-3.5 97.5z" />
<glyph unicode="&#x201c;" d="M104 1391q-6 29 20 73.5t62 51.5q37 8 80 -22t52.5 -73t14.5 -110.5t5 -151.5q0 -78 -1 -111.5t-5 -64.5l-62 -12q-45 96 -95 211.5t-71 208.5zM530 1391q-6 29 19.5 73.5t62.5 51.5q35 8 80 -23t53.5 -74t13.5 -109.5t5 -150.5q0 -78 -1 -111.5t-5 -64.5l-64 -12 q-45 96 -94 208.5t-70 211.5z" />
<glyph unicode="&#x201d;" d="M143 1159q0 76 4.5 146.5t14.5 115.5t53 75t80 22q37 -6 62.5 -52t19.5 -75q-20 -94 -69.5 -208t-94.5 -212l-63 12q0 16 -3.5 78.5t-3.5 97.5zM569 1159q0 76 4.5 146.5t14.5 115.5t53 75t80 22q37 -6 62.5 -52t19.5 -75q-20 -94 -69.5 -208t-94.5 -212l-64 12 q0 16 -3 78.5t-3 97.5z" />
<glyph unicode="&#x201e;" d="M143 -166q0 76 4.5 146.5t14.5 115.5t53 75t80 22t62.5 -52t19.5 -73q-20 -96 -69.5 -211t-94.5 -211l-63 12q0 16 -3.5 78.5t-3.5 97.5zM569 -166q0 76 4.5 146.5t14.5 115.5t53 75t80 22t62.5 -52t19.5 -73q-20 -96 -69.5 -211t-94.5 -211l-64 12q0 16 -3 78.5t-3 97.5 z" />
<glyph unicode="&#x2022;" horiz-adv-x="829" d="M211 772q0 113 66.5 187.5t166.5 74.5t167 -74.5t67 -187.5q0 -111 -67.5 -188.5t-166.5 -77.5q-98 0 -165.5 78t-67.5 188z" />
<glyph unicode="&#x2026;" horiz-adv-x="2035" d="M225 115q0 74 39 122t101 48q57 0 98 -49t41 -121q0 -70 -40 -120t-99 -50q-57 0 -98.5 50t-41.5 120zM936 115q0 72 41 121t98 49t98 -49t41 -121q0 -70 -39.5 -120t-99.5 -50q-57 0 -98 49t-41 121zM1647 115q0 72 41 121t98 49q59 0 100 -49t41 -121q0 -70 -42 -120 t-99 -50t-98 49t-41 121z" />
<glyph unicode="&#x202f;" horiz-adv-x="409" />
<glyph unicode="&#x2039;" horiz-adv-x="737" d="M240 338l299 344l43 -43l-260 -305l260 -297l-41 -53z" />
<glyph unicode="&#x203a;" horiz-adv-x="737" d="M260 37l260 297l-260 305l41 43l301 -344l-303 -354z" />
<glyph unicode="&#x205f;" horiz-adv-x="512" />
<glyph unicode="&#x2122;" horiz-adv-x="1699" d="M18 958l13 172h557l14 -172h-61q-6 68 -24.5 92.5t-84.5 24.5l-63 2v-510h118v-61h-356v61h119v510l-60 -2q-61 0 -82.5 -26.5t-29.5 -90.5h-60zM625 506v61h118v506h-118v60h272l277 -506l274 506h258v-60h-121v-506h121v-61h-356v61h118v471l-301 -532h-69l-301 532 v-471h121v-61h-293z" />
<glyph unicode="&#xe000;" horiz-adv-x="890" d="M0 0v891h891v-891h-891z" />
<glyph unicode="&#xfb01;" horiz-adv-x="1372" d="M29 2v86h170v719h-170v84l759 2l19 -250h-88q-10 94 -32.5 128t-104.5 34h-215v-313h141q45 0 50 9t22 83h67l2 -271h-37q-25 4 -37 6q-8 57 -20 74t-53 17h-135v-322h225v-86h-563zM852 2v86h170v723h-170v84h508v-84h-170v-723h170v-86h-508z" />
<glyph unicode="&#xfb02;" horiz-adv-x="1640" d="M29 2v86h170v719h-170v84l759 2l19 -250h-88q-10 94 -32.5 128t-104.5 34h-215v-313h141q45 0 50 9t22 83h67l2 -271h-37q-25 4 -37 6q-8 57 -20 74t-53 17h-135v-322h225v-86h-563zM852 2v86h170v723h-170v84h518v-84h-180v-723h227q72 0 93.5 35t31.5 129h88l-21 -250 h-757z" />
</font>
</defs>
</svg>
